<?xml version="1.0" encoding="UTF-8"?>
<!DOCTYPE svg PUBLIC "-//W3C//DTD SVG 1.1//EN" "http://www.w3.org/Graphics/SVG/1.1/DTD/svg11.dtd">
<svg xmlns="http://www.w3.org/2000/svg" version="1.1" width="454px" height="619px" style="shape-rendering:geometricPrecision; text-rendering:geometricPrecision; image-rendering:optimizeQuality; fill-rule:evenodd; clip-rule:evenodd" xmlns:xlink="http://www.w3.org/1999/xlink">
<g><path style="opacity:0.996" fill="#fefefe" d="M 453.5,193.5 C 453.5,202.833 453.5,212.167 453.5,221.5C 452.279,230.711 450.946,240.044 449.5,249.5C 443.697,245.849 437.53,242.849 431,240.5C 429.527,240.903 428.194,241.57 427,242.5C 426.51,241.207 426.343,239.873 426.5,238.5C 426.5,237.167 426.5,235.833 426.5,234.5C 426.5,234.167 426.5,233.833 426.5,233.5C 429.018,228.927 430.018,223.927 429.5,218.5C 430.659,207.007 430.826,195.341 430,183.5C 429.802,181.618 429.302,179.952 428.5,178.5C 428.147,172.379 427.147,166.379 425.5,160.5C 425.573,158.973 424.906,157.973 423.5,157.5C 423.5,156.167 423.5,154.833 423.5,153.5C 424.004,149.519 422.671,146.519 419.5,144.5C 419.5,144.167 419.5,143.833 419.5,143.5C 419.573,141.973 418.906,140.973 417.5,140.5C 417.5,139.833 417.5,139.167 417.5,138.5C 417.264,135.379 415.931,133.046 413.5,131.5C 412.89,129.566 411.89,127.899 410.5,126.5C 410.408,122.316 408.741,118.983 405.5,116.5C 404.662,116.158 404.328,115.492 404.5,114.5C 404.443,113.391 404.11,112.391 403.5,111.5C 402.864,109.205 401.531,107.539 399.5,106.5C 398.833,106.167 398.167,105.833 397.5,105.5C 397.262,103.596 396.262,102.262 394.5,101.5C 394.573,99.9731 393.906,98.9731 392.5,98.5C 392.167,97.8333 391.833,97.1667 391.5,96.5C 391.5,94.5 390.5,93.5 388.5,93.5C 387.585,91.2459 386.252,89.2459 384.5,87.5C 380.773,82.7703 376.44,78.7703 371.5,75.5C 370.415,73.4131 368.749,72.0798 366.5,71.5C 365.833,71.5 365.167,71.5 364.5,71.5C 363.738,69.7376 362.404,68.7376 360.5,68.5C 359.738,66.7376 358.404,65.7376 356.5,65.5C 355.833,65.5 355.167,65.5 354.5,65.5C 353.32,61.5717 350.654,59.5717 346.5,59.5C 345.833,59.5 345.167,59.5 344.5,59.5C 343.738,57.7376 342.404,56.7376 340.5,56.5C 338.901,56.7678 337.568,56.4345 336.5,55.5C 336.027,54.0937 335.027,53.427 333.5,53.5C 332.106,51.2918 330.106,49.7918 327.5,49C 323.811,48.1484 320.144,47.3151 316.5,46.5C 316.082,45.7784 315.416,45.2784 314.5,45C 310.833,44.3333 307.167,44.3333 303.5,45C 301.475,46.194 301.141,47.694 302.5,49.5C 304.4,51.6159 306.733,52.9493 309.5,53.5C 311.766,57.4356 314.766,60.7689 318.5,63.5C 318.833,65.8333 320.167,67.1667 322.5,67.5C 322.738,69.4044 323.738,70.7377 325.5,71.5C 326.167,72.1667 326.833,72.8333 327.5,73.5C 327.5,74.1667 327.5,74.8333 327.5,75.5C 327.427,77.0269 328.094,78.0269 329.5,78.5C 329.564,82.2194 331.231,84.8861 334.5,86.5C 335.11,88.4341 336.11,90.1007 337.5,91.5C 337.427,93.0269 338.094,94.0269 339.5,94.5C 339.415,97.6489 340.415,100.316 342.5,102.5C 342.557,103.609 342.89,104.609 343.5,105.5C 343.41,108.152 344.076,110.485 345.5,112.5C 345.5,113.833 345.5,115.167 345.5,116.5C 348.21,129.661 349.21,142.994 348.5,156.5C 348.5,157.167 348.5,157.833 348.5,158.5C 347.018,161.688 346.018,165.021 345.5,168.5C 342.267,176.75 338.934,185.083 335.5,193.5C 334.079,196.009 332.412,198.343 330.5,200.5C 329.414,200.38 328.747,199.713 328.5,198.5C 329.443,167.268 314.443,149.102 283.5,144C 240.5,143.333 197.5,143.333 154.5,144C 147.944,144.352 143.444,147.519 141,153.5C 134.032,172.911 140.532,184.578 160.5,188.5C 160.5,203.833 160.5,219.167 160.5,234.5C 160.5,234.833 160.5,235.167 160.5,235.5C 160.5,235.833 160.5,236.167 160.5,236.5C 147.496,236.333 134.496,236.5 121.5,237C 118.964,237.186 116.631,237.686 114.5,238.5C 100.922,238.205 87.5884,239.205 74.5,241.5C 74.5,241.833 74.5,242.167 74.5,242.5C 73.1667,242.5 71.8333,242.5 70.5,242.5C 62.8145,243.022 56.1479,245.689 50.5,250.5C 48.6115,251.604 46.9448,252.937 45.5,254.5C 42.1667,257.167 39.1667,260.167 36.5,263.5C 33.9558,264.708 32.6225,266.708 32.5,269.5C 26.5905,278.905 24.9238,289.239 27.5,300.5C 27.8606,323.709 29.1939,346.709 31.5,369.5C 31.6352,375.787 32.6352,381.787 34.5,387.5C 34.5,388.5 34.5,389.5 34.5,390.5C 36.6547,390.628 38.6547,390.128 40.5,389C 43.3957,385.934 46.3957,383.101 49.5,380.5C 51.4044,380.262 52.7377,379.262 53.5,377.5C 56.8515,377.47 59.5182,376.137 61.5,373.5C 63.5,372.833 65.5,372.167 67.5,371.5C 71.2634,370.299 74.93,368.799 78.5,367C 90.9655,365.07 103.299,363.237 115.5,361.5C 117.415,361.784 119.081,361.451 120.5,360.5C 133.167,360.5 145.833,360.5 158.5,360.5C 186.687,359.824 214.687,358.491 242.5,356.5C 253.359,356.488 264.026,355.821 274.5,354.5C 275.833,354.5 277.167,354.5 278.5,354.5C 285.175,354.666 291.842,354.5 298.5,354C 299.056,353.617 299.389,353.117 299.5,352.5C 299.833,352.5 300.167,352.5 300.5,352.5C 304.846,352.666 309.179,352.499 313.5,352C 317.232,349.867 321.232,348.534 325.5,348C 326.571,347.148 327.571,346.315 328.5,345.5C 332.947,345.628 337.113,344.628 341,342.5C 342.167,342.667 343.333,342.833 344.5,343C 341.911,350.155 342.078,357.322 345,364.5C 349.81,367.102 354.976,368.102 360.5,367.5C 388.062,411.613 415.895,455.613 444,499.5C 448.883,508.737 452.05,518.403 453.5,528.5C 453.5,534.5 453.5,540.5 453.5,546.5C 452.732,548.715 452.065,551.048 451.5,553.5C 443.539,549.926 435.206,548.426 426.5,549C 420.261,557.576 412.928,565.242 404.5,572C 396.779,577.691 388.113,580.858 378.5,581.5C 362.603,578.12 349.769,569.786 340,556.5C 300,496.5 260,436.5 220,376.5C 215.61,369.72 209.443,365.554 201.5,364C 185.498,362.021 169.498,362.021 153.5,364C 147.373,364.641 143.206,367.808 141,373.5C 134.497,392.499 140.997,404.166 160.5,408.5C 160.667,454.501 160.5,500.501 160,546.5C 159.814,549.036 159.314,551.369 158.5,553.5C 151.077,549.479 143.077,547.646 134.5,548C 128.553,555.819 121.886,563.152 114.5,570C 106.425,576.361 97.2585,580.194 87,581.5C 70.7108,578.884 57.7108,570.884 48,557.5C 44.0146,549.854 39.848,542.354 35.5,535C 34.3914,534.362 33.2247,533.862 32,533.5C 25.5425,535.149 19.3759,537.482 13.5,540.5C 13.3333,388.5 13.5,236.5 14,84.5C 21.287,51.5462 41.4537,31.7128 74.5,25C 146.167,24.3333 217.833,24.3333 289.5,25C 350.32,32.8095 396.82,62.6429 429,114.5C 443.141,139.084 451.308,165.418 453.5,193.5 Z M 160.5,171.5 C 160.833,171.5 161.167,171.5 161.5,171.5C 162.833,171.5 164.167,171.5 165.5,171.5C 166.5,171.5 167.5,171.5 168.5,171.5C 169.833,171.5 171.167,171.5 172.5,171.5C 174.5,171.5 176.5,171.5 178.5,171.5C 212.191,171.194 245.858,171.528 279.5,172.5C 281.649,173.736 283.982,174.736 286.5,175.5C 287.965,176.737 289.632,177.737 291.5,178.5C 292.167,179.833 293.167,180.833 294.5,181.5C 295.167,182.833 296.167,183.833 297.5,184.5C 298.833,186.5 300.167,188.5 301.5,190.5C 301.932,191.71 302.599,192.71 303.5,193.5C 303.263,194.791 303.596,195.791 304.5,196.5C 304.5,197.167 304.5,197.833 304.5,198.5C 305.11,199.391 305.443,200.391 305.5,201.5C 305.804,207.577 305.304,213.577 304,219.5C 303.667,219.167 303.333,218.833 303,218.5C 301.829,219.893 300.329,220.727 298.5,221C 299.34,222.666 298.84,222.833 297,221.5C 296.369,224.641 294.702,225.641 292,224.5C 291.536,225.094 291.369,225.761 291.5,226.5C 291.167,226.5 290.833,226.5 290.5,226.5C 287.634,226.6 284.634,226.6 281.5,226.5C 280.304,226.846 280.304,227.346 281.5,228C 278.812,228.392 276.145,228.892 273.5,229.5C 265.541,229.707 257.541,229.374 249.5,228.5C 248.833,228.667 248.167,228.833 247.5,229C 248.5,229.333 249.5,229.667 250.5,230C 242.507,230.5 234.507,230.666 226.5,230.5C 224.372,229.371 222.039,229.204 219.5,230C 220.416,230.278 221.082,230.778 221.5,231.5C 206.173,231.487 190.84,232.154 175.5,233.5C 170.438,233.274 165.438,233.608 160.5,234.5C 160.5,219.167 160.5,203.833 160.5,188.5C 160.5,187.167 160.5,185.833 160.5,184.5C 160.5,183.5 160.5,182.5 160.5,181.5C 160.5,180.833 160.5,180.167 160.5,179.5C 160.5,178.167 160.5,176.833 160.5,175.5C 160.5,174.167 160.5,172.833 160.5,171.5 Z"/></g>
<g><path style="opacity:1" fill="#8b8b8b" d="M 316.5,46.5 C 316.5,46.8333 316.5,47.1667 316.5,47.5C 313.833,47.5 311.167,47.5 308.5,47.5C 308.5,48.8333 308.5,50.1667 308.5,51.5C 306.241,50.656 305.241,48.9893 305.5,46.5C 309.167,46.5 312.833,46.5 316.5,46.5 Z"/></g>
<g><path style="opacity:1" fill="#dfdfdf" d="M 316.5,46.5 C 312.833,46.5 309.167,46.5 305.5,46.5C 305.241,48.9893 306.241,50.656 308.5,51.5C 308.833,52.1667 309.167,52.8333 309.5,53.5C 306.733,52.9493 304.4,51.6159 302.5,49.5C 301.141,47.694 301.475,46.194 303.5,45C 307.167,44.3333 310.833,44.3333 314.5,45C 315.416,45.2784 316.082,45.7784 316.5,46.5 Z"/></g>
<g><path style="opacity:1" fill="#4a4a4a" d="M 316.5,47.5 C 318.403,47.7959 320.07,48.4625 321.5,49.5C 317.534,48.8379 313.534,48.5045 309.5,48.5C 309.263,49.791 309.596,50.791 310.5,51.5C 311.11,52.391 311.443,53.391 311.5,54.5C 310.833,54.1667 310.167,53.8333 309.5,53.5C 309.167,52.8333 308.833,52.1667 308.5,51.5C 308.5,50.1667 308.5,48.8333 308.5,47.5C 311.167,47.5 313.833,47.5 316.5,47.5 Z"/></g>
<g><path style="opacity:1" fill="#1c1c1c" d="M 321.5,49.5 C 322.568,50.4345 323.901,50.7678 325.5,50.5C 325.833,51.1667 326.167,51.8333 326.5,52.5C 322.22,51.3469 317.886,50.3469 313.5,49.5C 311.97,49.6399 310.97,50.3065 310.5,51.5C 309.596,50.791 309.263,49.791 309.5,48.5C 313.534,48.5045 317.534,48.8379 321.5,49.5 Z"/></g>
<g><path style="opacity:1" fill="#c9c9c9" d="M 316.5,47.5 C 316.5,47.1667 316.5,46.8333 316.5,46.5C 320.144,47.3151 323.811,48.1484 327.5,49C 330.106,49.7918 332.106,51.2918 333.5,53.5C 331.708,53.634 330.042,53.3007 328.5,52.5C 328.027,51.0937 327.027,50.427 325.5,50.5C 323.901,50.7678 322.568,50.4345 321.5,49.5C 320.07,48.4625 318.403,47.7959 316.5,47.5 Z"/></g>
<g><path style="opacity:1" fill="#000000" d="M 326.5,52.5 C 326.833,52.5 327.167,52.5 327.5,52.5C 329.395,54.2413 331.728,55.2413 334.5,55.5C 336.395,57.2413 338.728,58.2413 341.5,58.5C 342.391,59.1098 343.391,59.4431 344.5,59.5C 344.973,60.9063 345.973,61.573 347.5,61.5C 347.842,62.3382 348.508,62.6716 349.5,62.5C 349.973,63.9063 350.973,64.573 352.5,64.5C 352.842,65.3382 353.508,65.6716 354.5,65.5C 355.262,67.2624 356.596,68.2624 358.5,68.5C 358.973,69.9063 359.973,70.573 361.5,70.5C 362.391,71.1098 363.391,71.4431 364.5,71.5C 365.585,73.5869 367.251,74.9202 369.5,75.5C 373.227,80.2297 377.56,84.2297 382.5,87.5C 382.833,88.1667 383.167,88.8333 383.5,89.5C 383.5,91.5 384.5,92.5 386.5,92.5C 387.757,95.4274 389.757,97.7607 392.5,99.5C 392.833,100.5 393.5,101.167 394.5,101.5C 394.738,103.404 395.738,104.738 397.5,105.5C 397.738,107.404 398.738,108.738 400.5,109.5C 400.5,110.167 400.5,110.833 400.5,111.5C 401.511,113.372 402.345,115.372 403,117.5C 403.671,118.252 404.504,118.586 405.5,118.5C 405.755,120.967 406.755,122.967 408.5,124.5C 409.167,125.167 409.833,125.833 410.5,126.5C 410.232,128.099 410.566,129.432 411.5,130.5C 411.427,132.027 412.094,133.027 413.5,133.5C 413.259,135.898 413.926,137.898 415.5,139.5C 415.427,141.027 416.094,142.027 417.5,142.5C 418.129,145.397 419.129,148.064 420.5,150.5C 420.5,151.167 420.5,151.833 420.5,152.5C 420.528,155.916 421.528,158.916 423.5,161.5C 424.936,168.914 426.27,176.247 427.5,183.5C 427.5,185.5 427.5,187.5 427.5,189.5C 427.097,201.498 426.763,213.498 426.5,225.5C 425.539,227.265 425.205,229.265 425.5,231.5C 424.5,231.833 423.833,232.5 423.5,233.5C 422.778,233.918 422.278,234.584 422,235.5C 421.452,239.17 420.952,242.837 420.5,246.5C 420.167,248.5 419.833,250.5 419.5,252.5C 416.908,254.036 415.908,256.369 416.5,259.5C 415.89,260.391 415.557,261.391 415.5,262.5C 414.662,262.842 414.328,263.508 414.5,264.5C 413.094,264.973 412.427,265.973 412.5,267.5C 411.5,270.167 410.5,272.833 409.5,275.5C 402.02,285.098 394.52,294.764 387,304.5C 377.876,313.47 368.376,321.803 358.5,329.5C 355.702,330.65 353.035,331.983 350.5,333.5C 348.566,334.11 346.899,335.11 345.5,336.5C 343.973,336.427 342.973,337.094 342.5,338.5C 340.973,338.427 339.973,339.094 339.5,340.5C 336.99,340.054 334.99,340.72 333.5,342.5C 330.565,342.717 327.731,343.383 325,344.5C 323.624,344.684 322.791,345.351 322.5,346.5C 320.302,346.12 318.635,346.787 317.5,348.5C 317.167,348.5 316.833,348.5 316.5,348.5C 315.167,348.5 313.833,348.5 312.5,348.5C 302.922,349.052 293.589,350.386 284.5,352.5C 282.621,353.341 280.621,353.675 278.5,353.5C 262.82,353.371 247.153,353.704 231.5,354.5C 221.326,354.839 211.326,355.506 201.5,356.5C 190.81,356.321 180.143,356.655 169.5,357.5C 159.486,357.501 149.486,357.834 139.5,358.5C 127.964,358.309 116.631,358.975 105.5,360.5C 104.5,360.5 103.5,360.5 102.5,360.5C 96.8196,360.299 91.4862,361.299 86.5,363.5C 82.4908,363.858 78.4908,364.358 74.5,365C 72.9336,365.608 71.6002,366.442 70.5,367.5C 67.3695,366.908 65.0361,367.908 63.5,370.5C 63.1583,371.338 62.4916,371.672 61.5,371.5C 59.712,371.215 58.0453,371.548 56.5,372.5C 51.4811,376.524 46.4811,380.524 41.5,384.5C 39.8333,384.5 38.1667,384.5 36.5,384.5C 34.9722,367.384 33.6388,350.384 32.5,333.5C 31.7196,324.652 31.053,315.652 30.5,306.5C 30.2792,297.134 30.6126,287.801 31.5,278.5C 31.5,277.167 31.5,275.833 31.5,274.5C 31.5,273.833 31.5,273.167 31.5,272.5C 32.9063,272.027 33.573,271.027 33.5,269.5C 35.2624,268.738 36.2624,267.404 36.5,265.5C 36.5,265.167 36.5,264.833 36.5,264.5C 40.1667,261.5 43.5,258.167 46.5,254.5C 47.391,253.89 48.391,253.557 49.5,253.5C 51.7488,252.92 53.4154,251.587 54.5,249.5C 56.403,249.204 58.0697,248.537 59.5,247.5C 60.1667,247.5 60.8333,247.5 61.5,247.5C 64.5769,247.821 66.9103,246.821 68.5,244.5C 70.5648,244.483 72.5648,244.15 74.5,243.5C 103.221,242.942 131.888,241.609 160.5,239.5C 182.191,239.332 203.857,238.499 225.5,237C 226.416,236.722 227.082,236.222 227.5,235.5C 243.847,235.5 260.181,235 276.5,234C 279.004,233.302 281.337,232.469 283.5,231.5C 290.774,231.022 297.44,229.022 303.5,225.5C 304.5,225.167 305.167,224.5 305.5,223.5C 306.167,223.5 306.833,223.5 307.5,223.5C 309.027,223.573 310.027,222.906 310.5,221.5C 310.842,220.662 311.508,220.328 312.5,220.5C 315.204,220.33 316.871,218.997 317.5,216.5C 319.404,216.262 320.738,215.262 321.5,213.5C 322.167,212.167 323.167,211.167 324.5,210.5C 327.5,209.5 329.5,207.5 330.5,204.5C 331.906,204.027 332.573,203.027 332.5,201.5C 332.427,199.973 333.094,198.973 334.5,198.5C 336.104,197.713 336.771,196.38 336.5,194.5C 338.723,191.856 340.389,188.856 341.5,185.5C 341.5,184.833 341.5,184.167 341.5,183.5C 342.492,181.544 343.492,179.544 344.5,177.5C 344.5,176.833 344.5,176.167 344.5,175.5C 345.674,174.486 346.34,173.153 346.5,171.5C 347.693,171.03 348.36,170.03 348.5,168.5C 349.274,164.535 349.607,160.535 349.5,156.5C 350.719,153.579 351.386,150.412 351.5,147C 351.095,141.652 350.428,136.486 349.5,131.5C 349.756,127.731 349.423,124.064 348.5,120.5C 348.634,118.708 348.301,117.042 347.5,115.5C 347.59,112.848 346.924,110.515 345.5,108.5C 345.634,106.708 345.301,105.042 344.5,103.5C 344.573,101.973 343.906,100.973 342.5,100.5C 342.167,99.1667 341.833,97.8333 341.5,96.5C 341.885,93.11 340.552,90.7767 337.5,89.5C 337.672,88.5084 337.338,87.8417 336.5,87.5C 336.5,86.8333 336.5,86.1667 336.5,85.5C 336.19,83.8564 335.19,82.8564 333.5,82.5C 332.662,82.1583 332.328,81.4916 332.5,80.5C 332.262,78.5956 331.262,77.2623 329.5,76.5C 329.443,75.391 329.11,74.391 328.5,73.5C 328.532,71.3812 327.532,70.0478 325.5,69.5C 324.5,68.8333 323.5,68.1667 322.5,67.5C 322.672,66.5084 322.338,65.8417 321.5,65.5C 321.5,63.5 320.5,62.5 318.5,62.5C 317.5,61.1667 316.5,59.8333 315.5,58.5C 315.167,56.1667 313.833,54.8333 311.5,54.5C 311.443,53.391 311.11,52.391 310.5,51.5C 310.97,50.3065 311.97,49.6399 313.5,49.5C 317.886,50.3469 322.22,51.3469 326.5,52.5 Z"/></g>
<g><path style="opacity:1" fill="#707070" d="M 325.5,50.5 C 327.027,50.427 328.027,51.0937 328.5,52.5C 328.167,52.5 327.833,52.5 327.5,52.5C 327.167,52.5 326.833,52.5 326.5,52.5C 326.167,51.8333 325.833,51.1667 325.5,50.5 Z"/></g>
<g><path style="opacity:1" fill="#b7b7b7" d="M 309.5,53.5 C 310.167,53.8333 310.833,54.1667 311.5,54.5C 312.5,56.1667 313.833,57.5 315.5,58.5C 316.5,59.8333 317.5,61.1667 318.5,62.5C 318.5,62.8333 318.5,63.1667 318.5,63.5C 314.766,60.7689 311.766,57.4356 309.5,53.5 Z"/></g>
<g><path style="opacity:1" fill="#444444" d="M 311.5,54.5 C 313.833,54.8333 315.167,56.1667 315.5,58.5C 313.833,57.5 312.5,56.1667 311.5,54.5 Z"/></g>
<g><path style="opacity:1" fill="#424242" d="M 327.5,52.5 C 327.833,52.5 328.167,52.5 328.5,52.5C 330.042,53.3007 331.708,53.634 333.5,53.5C 333.833,54.1667 334.167,54.8333 334.5,55.5C 331.728,55.2413 329.395,54.2413 327.5,52.5 Z"/></g>
<g><path style="opacity:1" fill="#8e8e8e" d="M 333.5,53.5 C 335.027,53.427 336.027,54.0937 336.5,55.5C 335.833,55.5 335.167,55.5 334.5,55.5C 334.167,54.8333 333.833,54.1667 333.5,53.5 Z"/></g>
<g><path style="opacity:1" fill="#3f3f3f" d="M 334.5,55.5 C 335.167,55.5 335.833,55.5 336.5,55.5C 337.568,56.4345 338.901,56.7678 340.5,56.5C 340.833,57.1667 341.167,57.8333 341.5,58.5C 338.728,58.2413 336.395,57.2413 334.5,55.5 Z"/></g>
<g><path style="opacity:1" fill="#878787" d="M 340.5,56.5 C 342.404,56.7376 343.738,57.7376 344.5,59.5C 343.391,59.4431 342.391,59.1098 341.5,58.5C 341.167,57.8333 340.833,57.1667 340.5,56.5 Z"/></g>
<g><path style="opacity:1" fill="#606060" d="M 344.5,59.5 C 345.167,59.5 345.833,59.5 346.5,59.5C 346.833,60.1667 347.167,60.8333 347.5,61.5C 345.973,61.573 344.973,60.9063 344.5,59.5 Z"/></g>
<g><path style="opacity:1" fill="#b8b8b8" d="M 346.5,59.5 C 350.654,59.5717 353.32,61.5717 354.5,65.5C 353.508,65.6716 352.842,65.3382 352.5,64.5C 352.027,63.0937 351.027,62.427 349.5,62.5C 348.508,62.6716 347.842,62.3382 347.5,61.5C 347.167,60.8333 346.833,60.1667 346.5,59.5 Z"/></g>
<g><path style="opacity:1" fill="#474747" d="M 318.5,63.5 C 318.5,63.1667 318.5,62.8333 318.5,62.5C 320.5,62.5 321.5,63.5 321.5,65.5C 320.5,64.8333 319.5,64.1667 318.5,63.5 Z"/></g>
<g><path style="opacity:1" fill="#565656" d="M 349.5,62.5 C 351.027,62.427 352.027,63.0937 352.5,64.5C 350.973,64.573 349.973,63.9063 349.5,62.5 Z"/></g>
<g><path style="opacity:1" fill="#ababab" d="M 318.5,63.5 C 319.5,64.1667 320.5,64.8333 321.5,65.5C 322.338,65.8417 322.672,66.5084 322.5,67.5C 320.167,67.1667 318.833,65.8333 318.5,63.5 Z"/></g>
<g><path style="opacity:1" fill="#5b5b5b" d="M 354.5,65.5 C 355.167,65.5 355.833,65.5 356.5,65.5C 357.167,66.5 357.833,67.5 358.5,68.5C 356.596,68.2624 355.262,67.2624 354.5,65.5 Z"/></g>
<g><path style="opacity:1" fill="#aaaaaa" d="M 356.5,65.5 C 358.404,65.7376 359.738,66.7376 360.5,68.5C 359.833,68.5 359.167,68.5 358.5,68.5C 357.833,67.5 357.167,66.5 356.5,65.5 Z"/></g>
<g><path style="opacity:1" fill="#939393" d="M 322.5,67.5 C 323.5,68.1667 324.5,68.8333 325.5,69.5C 325.5,70.1667 325.5,70.8333 325.5,71.5C 323.738,70.7377 322.738,69.4044 322.5,67.5 Z"/></g>
<g><path style="opacity:1" fill="#3b3b3b" d="M 358.5,68.5 C 359.167,68.5 359.833,68.5 360.5,68.5C 360.833,69.1667 361.167,69.8333 361.5,70.5C 359.973,70.573 358.973,69.9063 358.5,68.5 Z"/></g>
<g><path style="opacity:1" fill="#818181" d="M 360.5,68.5 C 362.404,68.7376 363.738,69.7376 364.5,71.5C 363.391,71.4431 362.391,71.1098 361.5,70.5C 361.167,69.8333 360.833,69.1667 360.5,68.5 Z"/></g>
<g><path style="opacity:1" fill="#313131" d="M 325.5,69.5 C 327.532,70.0478 328.532,71.3812 328.5,73.5C 328.167,73.5 327.833,73.5 327.5,73.5C 326.833,72.8333 326.167,72.1667 325.5,71.5C 325.5,70.8333 325.5,70.1667 325.5,69.5 Z"/></g>
<g><path style="opacity:1" fill="#777777" d="M 364.5,71.5 C 365.167,71.5 365.833,71.5 366.5,71.5C 367.5,72.8333 368.5,74.1667 369.5,75.5C 367.251,74.9202 365.585,73.5869 364.5,71.5 Z"/></g>
<g><path style="opacity:1" fill="#d3d3d3" d="M 366.5,71.5 C 368.749,72.0798 370.415,73.4131 371.5,75.5C 370.833,75.5 370.167,75.5 369.5,75.5C 368.5,74.1667 367.5,72.8333 366.5,71.5 Z"/></g>
<g><path style="opacity:1" fill="#6b6b6b" d="M 327.5,73.5 C 327.833,73.5 328.167,73.5 328.5,73.5C 329.11,74.391 329.443,75.391 329.5,76.5C 328.833,76.1667 328.167,75.8333 327.5,75.5C 327.5,74.8333 327.5,74.1667 327.5,73.5 Z"/></g>
<g><path style="opacity:1" fill="#757575" d="M 369.5,75.5 C 370.167,75.5 370.833,75.5 371.5,75.5C 375.167,79.5 378.833,83.5 382.5,87.5C 377.56,84.2297 373.227,80.2297 369.5,75.5 Z"/></g>
<g><path style="opacity:1" fill="#dadada" d="M 371.5,75.5 C 376.44,78.7703 380.773,82.7703 384.5,87.5C 383.833,87.5 383.167,87.5 382.5,87.5C 378.833,83.5 375.167,79.5 371.5,75.5 Z"/></g>
<g><path style="opacity:1" fill="#c3c3c3" d="M 327.5,75.5 C 328.167,75.8333 328.833,76.1667 329.5,76.5C 329.5,77.1667 329.5,77.8333 329.5,78.5C 328.094,78.0269 327.427,77.0269 327.5,75.5 Z"/></g>
<g><path style="opacity:1" fill="#686868" d="M 329.5,76.5 C 331.262,77.2623 332.262,78.5956 332.5,80.5C 331.5,79.8333 330.5,79.1667 329.5,78.5C 329.5,77.8333 329.5,77.1667 329.5,76.5 Z"/></g>
<g><path style="opacity:1" fill="#dadada" d="M 329.5,78.5 C 330.5,79.1667 331.5,79.8333 332.5,80.5C 332.328,81.4916 332.662,82.1583 333.5,82.5C 333.328,83.4916 333.662,84.1583 334.5,84.5C 334.5,85.1667 334.5,85.8333 334.5,86.5C 331.231,84.8861 329.564,82.2194 329.5,78.5 Z"/></g>
<g><path style="opacity:1" fill="#393939" d="M 333.5,82.5 C 335.19,82.8564 336.19,83.8564 336.5,85.5C 335.833,85.1667 335.167,84.8333 334.5,84.5C 333.662,84.1583 333.328,83.4916 333.5,82.5 Z"/></g>
<g><path style="opacity:1" fill="#757575" d="M 334.5,84.5 C 335.167,84.8333 335.833,85.1667 336.5,85.5C 336.5,86.1667 336.5,86.8333 336.5,87.5C 335.833,87.1667 335.167,86.8333 334.5,86.5C 334.5,85.8333 334.5,85.1667 334.5,84.5 Z"/></g>
<g><path style="opacity:1" fill="#999999" d="M 382.5,87.5 C 383.167,87.5 383.833,87.5 384.5,87.5C 386.252,89.2459 387.585,91.2459 388.5,93.5C 387.833,93.1667 387.167,92.8333 386.5,92.5C 385.833,91.1667 384.833,90.1667 383.5,89.5C 383.167,88.8333 382.833,88.1667 382.5,87.5 Z"/></g>
<g><path style="opacity:1" fill="#a7a7a7" d="M 334.5,86.5 C 335.167,86.8333 335.833,87.1667 336.5,87.5C 337.338,87.8417 337.672,88.5084 337.5,89.5C 337.5,90.1667 337.5,90.8333 337.5,91.5C 336.11,90.1007 335.11,88.4341 334.5,86.5 Z"/></g>
<g><path style="opacity:1" fill="#313131" d="M 383.5,89.5 C 384.833,90.1667 385.833,91.1667 386.5,92.5C 384.5,92.5 383.5,91.5 383.5,89.5 Z"/></g>
<g><path style="opacity:1" fill="#343434" d="M 337.5,89.5 C 340.552,90.7767 341.885,93.11 341.5,96.5C 340.833,95.8333 340.167,95.1667 339.5,94.5C 339.573,92.9731 338.906,91.9731 337.5,91.5C 337.5,90.8333 337.5,90.1667 337.5,89.5 Z"/></g>
<g><path style="opacity:1" fill="#9b9b9b" d="M 337.5,91.5 C 338.906,91.9731 339.573,92.9731 339.5,94.5C 338.094,94.0269 337.427,93.0269 337.5,91.5 Z"/></g>
<g><path style="opacity:1" fill="#b3b3b3" d="M 388.5,93.5 C 390.5,93.5 391.5,94.5 391.5,96.5C 390.167,95.8333 389.167,94.8333 388.5,93.5 Z"/></g>
<g><path style="opacity:1" fill="#444444" d="M 386.5,92.5 C 387.167,92.8333 387.833,93.1667 388.5,93.5C 389.167,94.8333 390.167,95.8333 391.5,96.5C 391.833,97.1667 392.167,97.8333 392.5,98.5C 392.5,98.8333 392.5,99.1667 392.5,99.5C 389.757,97.7607 387.757,95.4274 386.5,92.5 Z"/></g>
<g><path style="opacity:1" fill="#a4a4a4" d="M 339.5,94.5 C 340.167,95.1667 340.833,95.8333 341.5,96.5C 341.833,97.8333 342.167,99.1667 342.5,100.5C 342.5,101.167 342.5,101.833 342.5,102.5C 340.415,100.316 339.415,97.6489 339.5,94.5 Z"/></g>
<g><path style="opacity:1" fill="#767676" d="M 392.5,98.5 C 393.906,98.9731 394.573,99.9731 394.5,101.5C 393.5,101.167 392.833,100.5 392.5,99.5C 392.5,99.1667 392.5,98.8333 392.5,98.5 Z"/></g>
<g><path style="opacity:1" fill="#545454" d="M 342.5,100.5 C 343.906,100.973 344.573,101.973 344.5,103.5C 343.833,103.167 343.167,102.833 342.5,102.5C 342.5,101.833 342.5,101.167 342.5,100.5 Z"/></g>
<g><path style="opacity:1" fill="#707070" d="M 394.5,101.5 C 396.262,102.262 397.262,103.596 397.5,105.5C 395.738,104.738 394.738,103.404 394.5,101.5 Z"/></g>
<g><path style="opacity:1" fill="#5f5f5f" d="M 397.5,105.5 C 398.167,105.833 398.833,106.167 399.5,106.5C 400.11,107.391 400.443,108.391 400.5,109.5C 398.738,108.738 397.738,107.404 397.5,105.5 Z"/></g>
<g><path style="opacity:1" fill="#d2d2d2" d="M 399.5,106.5 C 401.531,107.539 402.864,109.205 403.5,111.5C 402.5,110.833 401.5,110.167 400.5,109.5C 400.443,108.391 400.11,107.391 399.5,106.5 Z"/></g>
<g><path style="opacity:1" fill="#767676" d="M 342.5,102.5 C 343.167,102.833 343.833,103.167 344.5,103.5C 345.301,105.042 345.634,106.708 345.5,108.5C 344.833,107.5 344.167,106.5 343.5,105.5C 342.89,104.609 342.557,103.609 342.5,102.5 Z"/></g>
<g><path style="opacity:1" fill="#bcbcbc" d="M 343.5,105.5 C 344.167,106.5 344.833,107.5 345.5,108.5C 345.5,109.833 345.5,111.167 345.5,112.5C 344.076,110.485 343.41,108.152 343.5,105.5 Z"/></g>
<g><path style="opacity:1" fill="#282828" d="M 400.5,111.5 C 401.833,112.5 403.167,113.5 404.5,114.5C 404.328,115.492 404.662,116.158 405.5,116.5C 405.5,117.167 405.5,117.833 405.5,118.5C 404.504,118.586 403.671,118.252 403,117.5C 402.345,115.372 401.511,113.372 400.5,111.5 Z"/></g>
<g><path style="opacity:1" fill="#868686" d="M 400.5,109.5 C 401.5,110.167 402.5,110.833 403.5,111.5C 404.11,112.391 404.443,113.391 404.5,114.5C 403.167,113.5 401.833,112.5 400.5,111.5C 400.5,110.833 400.5,110.167 400.5,109.5 Z"/></g>
<g><path style="opacity:1" fill="#4f4f4f" d="M 345.5,108.5 C 346.924,110.515 347.59,112.848 347.5,115.5C 346.833,114.5 346.167,113.5 345.5,112.5C 345.5,111.167 345.5,109.833 345.5,108.5 Z"/></g>
<g><path style="opacity:1" fill="#828282" d="M 345.5,112.5 C 346.167,113.5 346.833,114.5 347.5,115.5C 348.301,117.042 348.634,118.708 348.5,120.5C 347.143,119.41 346.143,118.076 345.5,116.5C 345.5,115.167 345.5,113.833 345.5,112.5 Z"/></g>
<g><path style="opacity:1" fill="#999999" d="M 405.5,116.5 C 408.741,118.983 410.408,122.316 410.5,126.5C 409.833,125.833 409.167,125.167 408.5,124.5C 408.245,122.033 407.245,120.033 405.5,118.5C 405.5,117.833 405.5,117.167 405.5,116.5 Z"/></g>
<g><path style="opacity:1" fill="#393939" d="M 405.5,118.5 C 407.245,120.033 408.245,122.033 408.5,124.5C 406.755,122.967 405.755,120.967 405.5,118.5 Z"/></g>
<g><path style="opacity:1" fill="#b0b0b0" d="M 345.5,116.5 C 346.143,118.076 347.143,119.41 348.5,120.5C 349.423,124.064 349.756,127.731 349.5,131.5C 349.5,139.833 349.5,148.167 349.5,156.5C 349.167,156.5 348.833,156.5 348.5,156.5C 349.21,142.994 348.21,129.661 345.5,116.5 Z"/></g>
<g><path style="opacity:1" fill="#737373" d="M 410.5,126.5 C 411.89,127.899 412.89,129.566 413.5,131.5C 412.833,131.167 412.167,130.833 411.5,130.5C 410.566,129.432 410.232,128.099 410.5,126.5 Z"/></g>
<g><path style="opacity:1" fill="#434343" d="M 411.5,130.5 C 412.167,130.833 412.833,131.167 413.5,131.5C 413.5,132.167 413.5,132.833 413.5,133.5C 412.094,133.027 411.427,132.027 411.5,130.5 Z"/></g>
<g><path style="opacity:1" fill="#b6b6b6" d="M 413.5,131.5 C 415.931,133.046 417.264,135.379 417.5,138.5C 416.833,138.167 416.167,137.833 415.5,137.5C 415.34,135.847 414.674,134.514 413.5,133.5C 413.5,132.833 413.5,132.167 413.5,131.5 Z"/></g>
<g><path style="opacity:1" fill="#2e2e2e" d="M 413.5,133.5 C 414.674,134.514 415.34,135.847 415.5,137.5C 415.5,138.167 415.5,138.833 415.5,139.5C 413.926,137.898 413.259,135.898 413.5,133.5 Z"/></g>
<g><path style="opacity:1" fill="#797979" d="M 415.5,137.5 C 416.167,137.833 416.833,138.167 417.5,138.5C 417.5,139.167 417.5,139.833 417.5,140.5C 416.833,140.167 416.167,139.833 415.5,139.5C 415.5,138.833 415.5,138.167 415.5,137.5 Z"/></g>
<g><path style="opacity:1" fill="#414141" d="M 415.5,139.5 C 416.167,139.833 416.833,140.167 417.5,140.5C 417.5,141.167 417.5,141.833 417.5,142.5C 416.094,142.027 415.427,141.027 415.5,139.5 Z"/></g>
<g><path style="opacity:1" fill="#acacac" d="M 417.5,140.5 C 418.906,140.973 419.573,141.973 419.5,143.5C 418.833,143.167 418.167,142.833 417.5,142.5C 417.5,141.833 417.5,141.167 417.5,140.5 Z"/></g>
<g><path style="opacity:0.998" fill="#f4f4f4" d="M 330.5,200.5 C 329.139,202.85 327.806,205.184 326.5,207.5C 319.495,212.84 312.495,218.174 305.5,223.5C 304.06,224.363 302.726,224.363 301.5,223.5C 299.739,224.035 298.406,225.035 297.5,226.5C 295.5,226.5 293.5,226.5 291.5,226.5C 291.369,225.761 291.536,225.094 292,224.5C 294.702,225.641 296.369,224.641 297,221.5C 298.84,222.833 299.34,222.666 298.5,221C 300.329,220.727 301.829,219.893 303,218.5C 303.333,218.833 303.667,219.167 304,219.5C 305.304,213.577 305.804,207.577 305.5,201.5C 309.915,201.695 314.249,201.195 318.5,200C 320.815,198.891 322.315,197.057 323,194.5C 323.254,173.525 313.754,158.691 294.5,150C 287.875,148.509 281.208,147.343 274.5,146.5C 274.389,145.883 274.056,145.383 273.5,145C 255.667,144.833 237.833,144.667 220,144.5C 200.131,144.371 180.298,144.871 160.5,146C 149.236,149.811 143.569,157.811 143.5,170C 146.337,178.094 152.004,182.927 160.5,184.5C 160.5,185.833 160.5,187.167 160.5,188.5C 140.532,184.578 134.032,172.911 141,153.5C 143.444,147.519 147.944,144.352 154.5,144C 197.5,143.333 240.5,143.333 283.5,144C 314.443,149.102 329.443,167.268 328.5,198.5C 328.747,199.713 329.414,200.38 330.5,200.5 Z"/></g>
<g><path style="opacity:1" fill="#6f6f6f" d="M 417.5,142.5 C 418.167,142.833 418.833,143.167 419.5,143.5C 419.5,143.833 419.5,144.167 419.5,144.5C 420.15,146.435 420.483,148.435 420.5,150.5C 419.129,148.064 418.129,145.397 417.5,142.5 Z"/></g>
<g><path style="opacity:0.991" fill="#e6e6e6" d="M 274.5,146.5 C 241.844,145.409 209.177,145.243 176.5,146C 157.891,145.281 148.391,154.114 148,172.5C 151.257,176.947 155.424,179.947 160.5,181.5C 160.5,182.5 160.5,183.5 160.5,184.5C 152.004,182.927 146.337,178.094 143.5,170C 143.569,157.811 149.236,149.811 160.5,146C 180.298,144.871 200.131,144.371 220,144.5C 237.833,144.667 255.667,144.833 273.5,145C 274.056,145.383 274.389,145.883 274.5,146.5 Z"/></g>
<g><path style="opacity:1" fill="#d8d8d8" d="M 274.5,146.5 C 276.833,147.833 279.167,149.167 281.5,150.5C 277.377,150.202 273.377,149.369 269.5,148C 237.5,147.333 205.5,147.333 173.5,148C 164.461,149.366 157.961,154.2 154,162.5C 152.632,165.738 152.299,169.072 153,172.5C 155.52,174.975 158.02,177.308 160.5,179.5C 160.5,180.167 160.5,180.833 160.5,181.5C 155.424,179.947 151.257,176.947 148,172.5C 148.391,154.114 157.891,145.281 176.5,146C 209.177,145.243 241.844,145.409 274.5,146.5 Z"/></g>
<g><path style="opacity:1" fill="#c9c9c9" d="M 281.5,150.5 C 286.248,152.041 290.581,154.374 294.5,157.5C 284.84,152.335 274.507,149.835 263.5,150C 233.5,149.333 203.5,149.333 173.5,150C 161.959,152.042 155.292,158.875 153.5,170.5C 154.99,171.826 156.324,173.326 157.5,175C 158.448,175.483 159.448,175.649 160.5,175.5C 160.5,176.833 160.5,178.167 160.5,179.5C 158.02,177.308 155.52,174.975 153,172.5C 152.299,169.072 152.632,165.738 154,162.5C 157.961,154.2 164.461,149.366 173.5,148C 205.5,147.333 237.5,147.333 269.5,148C 273.377,149.369 277.377,150.202 281.5,150.5 Z"/></g>
<g><path style="opacity:0.999" fill="#e4e4e4" d="M 274.5,146.5 C 281.208,147.343 287.875,148.509 294.5,150C 313.754,158.691 323.254,173.525 323,194.5C 322.315,197.057 320.815,198.891 318.5,200C 314.249,201.195 309.915,201.695 305.5,201.5C 305.443,200.391 305.11,199.391 304.5,198.5C 317.652,195.52 321.152,187.854 315,175.5C 309.529,166.699 302.696,159.199 294.5,153C 290.278,151.554 285.945,150.72 281.5,150.5C 279.167,149.167 276.833,147.833 274.5,146.5 Z"/></g>
<g><path style="opacity:1" fill="#dddddd" d="M 419.5,144.5 C 422.671,146.519 424.004,149.519 423.5,153.5C 422.728,152.306 421.728,151.306 420.5,150.5C 420.483,148.435 420.15,146.435 419.5,144.5 Z"/></g>
<g><path style="opacity:1" fill="#b9b9b9" d="M 294.5,157.5 C 294.539,158.583 294.873,159.583 295.5,160.5C 306.068,165.556 310.902,173.889 310,185.5C 308.641,188.903 306.474,191.569 303.5,193.5C 302.599,192.71 301.932,191.71 301.5,190.5C 305.01,188.157 307.01,184.824 307.5,180.5C 304.971,169.472 298.304,162.639 287.5,160C 281.516,156.078 274.849,153.745 267.5,153C 238.167,152.333 208.833,152.333 179.5,153C 170.972,153.222 164.805,157.055 161,164.5C 160.503,166.81 160.337,169.143 160.5,171.5C 160.5,172.833 160.5,174.167 160.5,175.5C 159.448,175.649 158.448,175.483 157.5,175C 156.324,173.326 154.99,171.826 153.5,170.5C 155.292,158.875 161.959,152.042 173.5,150C 203.5,149.333 233.5,149.333 263.5,150C 274.507,149.835 284.84,152.335 294.5,157.5 Z"/></g>
<g><path style="opacity:1" fill="#a7a7a7" d="M 301.5,190.5 C 300.167,188.5 298.833,186.5 297.5,184.5C 301.423,179.516 301.256,174.516 297,169.5C 289.054,161.777 279.554,157.111 268.5,155.5C 238.839,154.333 209.172,154.167 179.5,155C 173.163,155.914 167.997,158.747 164,163.5C 162.659,166.022 161.826,168.689 161.5,171.5C 161.167,171.5 160.833,171.5 160.5,171.5C 160.337,169.143 160.503,166.81 161,164.5C 164.805,157.055 170.972,153.222 179.5,153C 208.833,152.333 238.167,152.333 267.5,153C 274.849,153.745 281.516,156.078 287.5,160C 298.304,162.639 304.971,169.472 307.5,180.5C 307.01,184.824 305.01,188.157 301.5,190.5 Z"/></g>
<g><path style="opacity:0.994" fill="#989898" d="M 297.5,184.5 C 296.167,183.833 295.167,182.833 294.5,181.5C 296.203,179.149 296.703,176.482 296,173.5C 288.163,163.205 277.663,158.038 264.5,158C 237.5,157.333 210.5,157.333 183.5,158C 174.238,158.436 168.238,162.936 165.5,171.5C 164.167,171.5 162.833,171.5 161.5,171.5C 161.826,168.689 162.659,166.022 164,163.5C 167.997,158.747 173.163,155.914 179.5,155C 209.172,154.167 238.839,154.333 268.5,155.5C 279.554,157.111 289.054,161.777 297,169.5C 301.256,174.516 301.423,179.516 297.5,184.5 Z"/></g>
<g><path style="opacity:1" fill="#545454" d="M 349.5,131.5 C 350.428,136.486 351.095,141.652 351.5,147C 351.386,150.412 350.719,153.579 349.5,156.5C 349.5,148.167 349.5,139.833 349.5,131.5 Z"/></g>
<g><path style="opacity:1" fill="#262626" d="M 420.5,152.5 C 421.313,154.261 422.313,155.928 423.5,157.5C 423.5,158.167 423.5,158.833 423.5,159.5C 423.5,160.167 423.5,160.833 423.5,161.5C 421.528,158.916 420.528,155.916 420.5,152.5 Z"/></g>
<g><path style="opacity:1" fill="#878787" d="M 420.5,150.5 C 421.728,151.306 422.728,152.306 423.5,153.5C 423.5,154.833 423.5,156.167 423.5,157.5C 422.313,155.928 421.313,154.261 420.5,152.5C 420.5,151.833 420.5,151.167 420.5,150.5 Z"/></g>
<g><path style="opacity:0.996" fill="#888888" d="M 294.5,181.5 C 293.167,180.833 292.167,179.833 291.5,178.5C 292.792,173.566 291.125,169.732 286.5,167C 281.32,163.622 275.653,161.622 269.5,161C 240.167,160.333 210.833,160.333 181.5,161C 174.874,161.804 170.541,165.304 168.5,171.5C 167.5,171.5 166.5,171.5 165.5,171.5C 168.238,162.936 174.238,158.436 183.5,158C 210.5,157.333 237.5,157.333 264.5,158C 277.663,158.038 288.163,163.205 296,173.5C 296.703,176.482 296.203,179.149 294.5,181.5 Z"/></g>
<g><path style="opacity:0.98" fill="#c9c9c9" d="M 294.5,157.5 C 305.431,163.173 312.097,172.173 314.5,184.5C 313.657,190.669 310.324,194.669 304.5,196.5C 303.596,195.791 303.263,194.791 303.5,193.5C 306.474,191.569 308.641,188.903 310,185.5C 310.902,173.889 306.068,165.556 295.5,160.5C 294.873,159.583 294.539,158.583 294.5,157.5 Z"/></g>
<g><path style="opacity:1" fill="#b5b5b5" d="M 423.5,157.5 C 424.906,157.973 425.573,158.973 425.5,160.5C 424.833,160.167 424.167,159.833 423.5,159.5C 423.5,158.833 423.5,158.167 423.5,157.5 Z"/></g>
<g><path style="opacity:0.989" fill="#7b7b7b" d="M 291.5,178.5 C 289.632,177.737 287.965,176.737 286.5,175.5C 286.673,171.83 285.007,169.33 281.5,168C 276.774,165.647 271.774,164.314 266.5,164C 239.167,163.333 211.833,163.333 184.5,164C 179.333,164.744 175.333,167.244 172.5,171.5C 171.167,171.5 169.833,171.5 168.5,171.5C 170.541,165.304 174.874,161.804 181.5,161C 210.833,160.333 240.167,160.333 269.5,161C 275.653,161.622 281.32,163.622 286.5,167C 291.125,169.732 292.792,173.566 291.5,178.5 Z"/></g>
<g><path style="opacity:1" fill="#adadad" d="M 348.5,158.5 C 348.018,162.873 347.352,167.206 346.5,171.5C 346.167,171.5 345.833,171.5 345.5,171.5C 345.5,170.5 345.5,169.5 345.5,168.5C 346.018,165.021 347.018,161.688 348.5,158.5 Z"/></g>
<g><path style="opacity:1" fill="#3f3f3f" d="M 348.5,156.5 C 348.833,156.5 349.167,156.5 349.5,156.5C 349.607,160.535 349.274,164.535 348.5,168.5C 348.36,170.03 347.693,171.03 346.5,171.5C 347.352,167.206 348.018,162.873 348.5,158.5C 348.5,157.833 348.5,157.167 348.5,156.5 Z"/></g>
<g><path style="opacity:1" fill="#d5d5d5" d="M 281.5,150.5 C 285.945,150.72 290.278,151.554 294.5,153C 302.696,159.199 309.529,166.699 315,175.5C 321.152,187.854 317.652,195.52 304.5,198.5C 304.5,197.833 304.5,197.167 304.5,196.5C 310.324,194.669 313.657,190.669 314.5,184.5C 312.097,172.173 305.431,163.173 294.5,157.5C 290.581,154.374 286.248,152.041 281.5,150.5 Z"/></g>
<g><path style="opacity:0.98" fill="#6e6e6e" d="M 286.5,175.5 C 283.982,174.736 281.649,173.736 279.5,172.5C 276.466,169.759 272.799,168.259 268.5,168C 240.5,167.333 212.5,167.333 184.5,168C 181.975,168.424 179.975,169.59 178.5,171.5C 176.5,171.5 174.5,171.5 172.5,171.5C 175.333,167.244 179.333,164.744 184.5,164C 211.833,163.333 239.167,163.333 266.5,164C 271.774,164.314 276.774,165.647 281.5,168C 285.007,169.33 286.673,171.83 286.5,175.5 Z"/></g>
<g><path style="opacity:0.767" fill="#646464" d="M 279.5,172.5 C 245.858,171.528 212.191,171.194 178.5,171.5C 179.975,169.59 181.975,168.424 184.5,168C 212.5,167.333 240.5,167.333 268.5,168C 272.799,168.259 276.466,169.759 279.5,172.5 Z"/></g>
<g><path style="opacity:1" fill="#949494" d="M 423.5,159.5 C 424.167,159.833 424.833,160.167 425.5,160.5C 427.147,166.379 428.147,172.379 428.5,178.5C 428.5,180.833 428.5,183.167 428.5,185.5C 428.5,186.833 428.5,188.167 428.5,189.5C 428.167,189.5 427.833,189.5 427.5,189.5C 427.5,187.5 427.5,185.5 427.5,183.5C 427.731,175.748 426.398,168.414 423.5,161.5C 423.5,160.833 423.5,160.167 423.5,159.5 Z"/></g>
<g><path style="opacity:1" fill="#747474" d="M 345.5,171.5 C 345.833,171.5 346.167,171.5 346.5,171.5C 346.34,173.153 345.674,174.486 344.5,175.5C 344.232,173.901 344.566,172.568 345.5,171.5 Z"/></g>
<g><path style="opacity:1" fill="#3a3a3a" d="M 423.5,161.5 C 426.398,168.414 427.731,175.748 427.5,183.5C 426.27,176.247 424.936,168.914 423.5,161.5 Z"/></g>
<g><path style="opacity:1" fill="#cdcdcd" d="M 345.5,168.5 C 345.5,169.5 345.5,170.5 345.5,171.5C 344.566,172.568 344.232,173.901 344.5,175.5C 344.5,176.167 344.5,176.833 344.5,177.5C 342.025,178.687 341.025,180.687 341.5,183.5C 341.5,184.167 341.5,184.833 341.5,185.5C 339.107,187.63 337.44,190.296 336.5,193.5C 336.167,193.5 335.833,193.5 335.5,193.5C 338.934,185.083 342.267,176.75 345.5,168.5 Z"/></g>
<g><path style="opacity:1" fill="#7a7a7a" d="M 344.5,177.5 C 343.492,179.544 342.492,181.544 341.5,183.5C 341.025,180.687 342.025,178.687 344.5,177.5 Z"/></g>
<g><path style="opacity:1" fill="#616161" d="M 341.5,185.5 C 340.389,188.856 338.723,191.856 336.5,194.5C 336.5,194.167 336.5,193.833 336.5,193.5C 337.44,190.296 339.107,187.63 341.5,185.5 Z"/></g>
<g><path style="opacity:1" fill="#e7e7e7" d="M 428.5,178.5 C 429.302,179.952 429.802,181.618 430,183.5C 430.826,195.341 430.659,207.007 429.5,218.5C 429.828,207.321 429.495,196.321 428.5,185.5C 428.5,183.167 428.5,180.833 428.5,178.5 Z"/></g>
<g><path style="opacity:1" fill="#979797" d="M 335.5,193.5 C 335.833,193.5 336.167,193.5 336.5,193.5C 336.5,193.833 336.5,194.167 336.5,194.5C 335.326,195.514 334.66,196.847 334.5,198.5C 333.094,198.973 332.427,199.973 332.5,201.5C 331.094,201.973 330.427,202.973 330.5,204.5C 329.167,205.5 327.833,206.5 326.5,207.5C 327.806,205.184 329.139,202.85 330.5,200.5C 332.412,198.343 334.079,196.009 335.5,193.5 Z"/></g>
<g><path style="opacity:1" fill="#383838" d="M 336.5,194.5 C 336.771,196.38 336.104,197.713 334.5,198.5C 334.66,196.847 335.326,195.514 336.5,194.5 Z"/></g>
<g><path style="opacity:1" fill="#313131" d="M 332.5,201.5 C 332.573,203.027 331.906,204.027 330.5,204.5C 330.427,202.973 331.094,201.973 332.5,201.5 Z"/></g>
<g><path style="opacity:1" fill="#242424" d="M 330.5,204.5 C 329.5,207.5 327.5,209.5 324.5,210.5C 325.167,209.5 325.833,208.5 326.5,207.5C 327.833,206.5 329.167,205.5 330.5,204.5 Z"/></g>
<g><path style="opacity:1" fill="#aaaaaa" d="M 428.5,185.5 C 429.495,196.321 429.828,207.321 429.5,218.5C 428.903,222.267 427.903,225.934 426.5,229.5C 426.5,228.167 426.5,226.833 426.5,225.5C 428.273,213.717 428.939,201.717 428.5,189.5C 428.5,188.167 428.5,186.833 428.5,185.5 Z"/></g>
<g><path style="opacity:1" fill="#333333" d="M 321.5,213.5 C 320.738,215.262 319.404,216.262 317.5,216.5C 318.262,214.738 319.596,213.738 321.5,213.5 Z"/></g>
<g><path style="opacity:1" fill="#444444" d="M 427.5,189.5 C 427.833,189.5 428.167,189.5 428.5,189.5C 428.939,201.717 428.273,213.717 426.5,225.5C 426.763,213.498 427.097,201.498 427.5,189.5 Z"/></g>
<g><path style="opacity:1" fill="#919191" d="M 326.5,207.5 C 325.833,208.5 325.167,209.5 324.5,210.5C 323.167,211.167 322.167,212.167 321.5,213.5C 319.596,213.738 318.262,214.738 317.5,216.5C 315.611,217.604 313.945,218.937 312.5,220.5C 311.508,220.328 310.842,220.662 310.5,221.5C 308.973,221.427 307.973,222.094 307.5,223.5C 306.833,223.5 306.167,223.5 305.5,223.5C 312.495,218.174 319.495,212.84 326.5,207.5 Z"/></g>
<g><path style="opacity:1" fill="#383838" d="M 317.5,216.5 C 316.871,218.997 315.204,220.33 312.5,220.5C 313.945,218.937 315.611,217.604 317.5,216.5 Z"/></g>
<g><path style="opacity:1" fill="#484848" d="M 310.5,221.5 C 310.027,222.906 309.027,223.573 307.5,223.5C 307.973,222.094 308.973,221.427 310.5,221.5 Z"/></g>
<g><path style="opacity:0.725" fill="#929292" d="M 305.5,223.5 C 305.167,224.5 304.5,225.167 303.5,225.5C 301.435,225.517 299.435,225.85 297.5,226.5C 298.406,225.035 299.739,224.035 301.5,223.5C 302.726,224.363 304.06,224.363 305.5,223.5 Z"/></g>
<g><path style="opacity:1" fill="#e2e2e2" d="M 429.5,218.5 C 430.018,223.927 429.018,228.927 426.5,233.5C 426.5,232.167 426.5,230.833 426.5,229.5C 427.903,225.934 428.903,222.267 429.5,218.5 Z"/></g>
<g><path style="opacity:0.325" fill="#9c9c9c" d="M 290.5,226.5 C 290.833,226.5 291.167,226.5 291.5,226.5C 293.5,226.5 295.5,226.5 297.5,226.5C 292.222,228.378 286.888,230.045 281.5,231.5C 280.5,231.5 279.5,231.5 278.5,231.5C 277.167,231.5 275.833,231.5 274.5,231.5C 269.167,231.5 263.833,231.5 258.5,231.5C 265.655,230.671 272.989,230.171 280.5,230C 283.942,228.816 287.275,227.65 290.5,226.5 Z"/></g>
<g><path style="opacity:0.773" fill="#4f4f4f" d="M 303.5,225.5 C 297.44,229.022 290.774,231.022 283.5,231.5C 282.833,231.5 282.167,231.5 281.5,231.5C 286.888,230.045 292.222,228.378 297.5,226.5C 299.435,225.85 301.435,225.517 303.5,225.5 Z"/></g>
<g><path style="opacity:0.004" fill="#fdfdfd" d="M 226.5,230.5 C 225.833,230.5 225.5,230.833 225.5,231.5C 224.167,231.5 222.833,231.5 221.5,231.5C 221.082,230.778 220.416,230.278 219.5,230C 222.039,229.204 224.372,229.371 226.5,230.5 Z"/></g>
<g><path style="opacity:0.007" fill="#dfdfdf" d="M 290.5,226.5 C 287.275,227.65 283.942,228.816 280.5,230C 272.989,230.171 265.655,230.671 258.5,231.5C 239.52,232.496 220.52,233.162 201.5,233.5C 192.833,233.5 184.167,233.5 175.5,233.5C 190.84,232.154 206.173,231.487 221.5,231.5C 222.833,231.5 224.167,231.5 225.5,231.5C 226.167,231.5 226.5,231.167 226.5,230.5C 234.507,230.666 242.507,230.5 250.5,230C 249.5,229.667 248.5,229.333 247.5,229C 248.167,228.833 248.833,228.667 249.5,228.5C 257.541,229.374 265.541,229.707 273.5,229.5C 276.145,228.892 278.812,228.392 281.5,228C 280.304,227.346 280.304,226.846 281.5,226.5C 284.634,226.6 287.634,226.6 290.5,226.5 Z"/></g>
<g><path style="opacity:0.609" fill="#545454" d="M 274.5,231.5 C 275.833,231.5 277.167,231.5 278.5,231.5C 277.737,232.268 276.737,232.768 275.5,233C 266.84,233.5 258.173,233.666 249.5,233.5C 257.833,232.833 266.167,232.167 274.5,231.5 Z"/></g>
<g><path style="opacity:0.031" fill="#cdcdcd" d="M 175.5,233.5 C 184.167,233.5 192.833,233.5 201.5,233.5C 198.375,234.479 195.042,234.813 191.5,234.5C 181.15,234.44 170.817,234.774 160.5,235.5C 160.5,235.167 160.5,234.833 160.5,234.5C 165.438,233.608 170.438,233.274 175.5,233.5 Z"/></g>
<g><path style="opacity:0.297" fill="#8b8b8b" d="M 258.5,231.5 C 263.833,231.5 269.167,231.5 274.5,231.5C 266.167,232.167 257.833,232.833 249.5,233.5C 242.142,233.418 234.809,233.752 227.5,234.5C 216.813,234.354 206.146,234.688 195.5,235.5C 194.167,235.5 192.833,235.5 191.5,235.5C 191.5,235.167 191.5,234.833 191.5,234.5C 195.042,234.813 198.375,234.479 201.5,233.5C 220.52,233.162 239.52,232.496 258.5,231.5 Z"/></g>
<g><path style="opacity:0.893" fill="#2e2e2e" d="M 278.5,231.5 C 279.5,231.5 280.5,231.5 281.5,231.5C 282.167,231.5 282.833,231.5 283.5,231.5C 281.337,232.469 279.004,233.302 276.5,234C 260.181,235 243.847,235.5 227.5,235.5C 227.5,235.167 227.5,234.833 227.5,234.5C 234.809,233.752 242.142,233.418 249.5,233.5C 258.173,233.666 266.84,233.5 275.5,233C 276.737,232.768 277.737,232.268 278.5,231.5 Z"/></g>
<g><path style="opacity:1" fill="#444444" d="M 425.5,231.5 C 425.204,233.403 424.537,235.07 423.5,236.5C 423.5,235.5 423.5,234.5 423.5,233.5C 423.833,232.5 424.5,231.833 425.5,231.5 Z"/></g>
<g><path style="opacity:0.181" fill="#9c9c9c" d="M 191.5,234.5 C 191.5,234.833 191.5,235.167 191.5,235.5C 181.155,235.534 170.821,235.867 160.5,236.5C 160.5,236.167 160.5,235.833 160.5,235.5C 170.817,234.774 181.15,234.44 191.5,234.5 Z"/></g>
<g><path style="opacity:0.599" fill="#535353" d="M 227.5,234.5 C 227.5,234.833 227.5,235.167 227.5,235.5C 218.818,235.521 210.152,235.854 201.5,236.5C 199.5,236.5 197.5,236.5 195.5,236.5C 195.5,236.167 195.5,235.833 195.5,235.5C 206.146,234.688 216.813,234.354 227.5,234.5 Z"/></g>
<g><path style="opacity:0.575" fill="#656565" d="M 191.5,235.5 C 192.833,235.5 194.167,235.5 195.5,235.5C 195.5,235.833 195.5,236.167 195.5,236.5C 183.826,236.612 172.159,236.945 160.5,237.5C 160.5,237.167 160.5,236.833 160.5,236.5C 170.821,235.867 181.155,235.534 191.5,235.5 Z"/></g>
<g><path style="opacity:1" fill="#1c1c1c" d="M 423.5,233.5 C 423.5,234.5 423.5,235.5 423.5,236.5C 423.5,237.833 423.5,239.167 423.5,240.5C 422.5,242.5 421.5,244.5 420.5,246.5C 420.952,242.837 421.452,239.17 422,235.5C 422.278,234.584 422.778,233.918 423.5,233.5 Z"/></g>
<g><path style="opacity:1" fill="#cfcfcf" d="M 160.5,236.5 C 160.5,236.833 160.5,237.167 160.5,237.5C 160.5,237.833 160.5,238.167 160.5,238.5C 154.167,238.5 147.833,238.5 141.5,238.5C 133.833,238.5 126.167,238.5 118.5,238.5C 117.167,238.5 115.833,238.5 114.5,238.5C 116.631,237.686 118.964,237.186 121.5,237C 134.496,236.5 147.496,236.333 160.5,236.5 Z"/></g>
<g><path style="opacity:1" fill="#858585" d="M 426.5,225.5 C 426.5,226.833 426.5,228.167 426.5,229.5C 426.5,230.833 426.5,232.167 426.5,233.5C 426.5,233.833 426.5,234.167 426.5,234.5C 425.5,236.5 424.5,238.5 423.5,240.5C 423.5,239.167 423.5,237.833 423.5,236.5C 424.537,235.07 425.204,233.403 425.5,231.5C 425.205,229.265 425.539,227.265 426.5,225.5 Z"/></g>
<g><path style="opacity:0.933" fill="#303030" d="M 195.5,236.5 C 197.5,236.5 199.5,236.5 201.5,236.5C 188.024,237.916 174.358,238.583 160.5,238.5C 160.5,238.167 160.5,237.833 160.5,237.5C 172.159,236.945 183.826,236.612 195.5,236.5 Z"/></g>
<g><path style="opacity:0.988" fill="#161616" d="M 227.5,235.5 C 227.082,236.222 226.416,236.722 225.5,237C 203.857,238.499 182.191,239.332 160.5,239.5C 160.5,239.167 160.5,238.833 160.5,238.5C 174.358,238.583 188.024,237.916 201.5,236.5C 210.152,235.854 218.818,235.521 227.5,235.5 Z"/></g>
<g><path style="opacity:1" fill="#c8c8c8" d="M 114.5,238.5 C 115.833,238.5 117.167,238.5 118.5,238.5C 103.978,239.439 89.3109,240.439 74.5,241.5C 87.5884,239.205 100.922,238.205 114.5,238.5 Z"/></g>
<g><path style="opacity:1" fill="#737373" d="M 118.5,238.5 C 126.167,238.5 133.833,238.5 141.5,238.5C 119.295,239.83 96.9619,241.163 74.5,242.5C 74.5,242.167 74.5,241.833 74.5,241.5C 89.3109,240.439 103.978,239.439 118.5,238.5 Z"/></g>
<g><path style="opacity:0.984" fill="#f5f5f5" d="M 426.5,238.5 C 426.343,239.873 426.51,241.207 427,242.5C 428.194,241.57 429.527,240.903 431,240.5C 437.53,242.849 443.697,245.849 449.5,249.5C 448.976,251.306 448.309,252.972 447.5,254.5C 444.521,253.346 441.521,252.18 438.5,251C 432.342,249.328 427.509,251.162 424,256.5C 422.92,258.996 421.586,261.33 420,263.5C 419.503,261.19 419.337,258.857 419.5,256.5C 419.5,256.167 419.5,255.833 419.5,255.5C 423.793,250.682 426.127,245.016 426.5,238.5 Z"/></g>
<g><path style="opacity:1" fill="#212121" d="M 141.5,238.5 C 147.833,238.5 154.167,238.5 160.5,238.5C 160.5,238.833 160.5,239.167 160.5,239.5C 131.888,241.609 103.221,242.942 74.5,243.5C 74.5,243.167 74.5,242.833 74.5,242.5C 96.9619,241.163 119.295,239.83 141.5,238.5 Z"/></g>
<g><path style="opacity:1" fill="#4b4b4b" d="M 70.5,242.5 C 71.8333,242.5 73.1667,242.5 74.5,242.5C 74.5,242.833 74.5,243.167 74.5,243.5C 72.5648,244.15 70.5648,244.483 68.5,244.5C 69.1667,243.833 69.8333,243.167 70.5,242.5 Z"/></g>
<g><path style="opacity:1" fill="#d6d6d6" d="M 426.5,234.5 C 426.5,235.833 426.5,237.167 426.5,238.5C 426.127,245.016 423.793,250.682 419.5,255.5C 419.5,255.167 419.5,254.833 419.5,254.5C 419.5,254.167 419.5,253.833 419.5,253.5C 421.61,249.498 422.943,245.165 423.5,240.5C 424.5,238.5 425.5,236.5 426.5,234.5 Z"/></g>
<g><path style="opacity:1" fill="#cacaca" d="M 70.5,242.5 C 69.8333,243.167 69.1667,243.833 68.5,244.5C 66.901,244.232 65.5676,244.566 64.5,245.5C 62.302,245.12 60.6354,245.787 59.5,247.5C 57.302,247.12 55.6354,247.787 54.5,249.5C 53.391,249.557 52.391,249.89 51.5,250.5C 51.1667,250.5 50.8333,250.5 50.5,250.5C 56.1479,245.689 62.8145,243.022 70.5,242.5 Z"/></g>
<g><path style="opacity:1" fill="#6f6f6f" d="M 64.5,245.5 C 63.5,246.167 62.5,246.833 61.5,247.5C 60.8333,247.5 60.1667,247.5 59.5,247.5C 60.6354,245.787 62.302,245.12 64.5,245.5 Z"/></g>
<g><path style="opacity:1" fill="#323232" d="M 68.5,244.5 C 66.9103,246.821 64.5769,247.821 61.5,247.5C 62.5,246.833 63.5,246.167 64.5,245.5C 65.5676,244.566 66.901,244.232 68.5,244.5 Z"/></g>
<g><path style="opacity:1" fill="#555555" d="M 59.5,247.5 C 58.0697,248.537 56.403,249.204 54.5,249.5C 55.6354,247.787 57.302,247.12 59.5,247.5 Z"/></g>
<g><path style="opacity:1" fill="#636363" d="M 423.5,240.5 C 422.943,245.165 421.61,249.498 419.5,253.5C 419.5,253.167 419.5,252.833 419.5,252.5C 419.833,250.5 420.167,248.5 420.5,246.5C 421.5,244.5 422.5,242.5 423.5,240.5 Z"/></g>
<g><path style="opacity:0.992" fill="#eeeeee" d="M 447.5,254.5 C 446.91,258.603 445.91,262.603 444.5,266.5C 434.791,262.259 426.958,264.593 421,273.5C 412.149,287.355 402.149,300.355 391,312.5C 378.919,323.918 366.253,334.585 353,344.5C 349.519,350.814 349.686,356.981 353.5,363C 356.327,364.664 359.327,365.83 362.5,366.5C 362.158,367.338 361.492,367.672 360.5,367.5C 354.976,368.102 349.81,367.102 345,364.5C 342.078,357.322 341.911,350.155 344.5,343C 343.333,342.833 342.167,342.667 341,342.5C 337.113,344.628 332.947,345.628 328.5,345.5C 330.261,344.687 331.928,343.687 333.5,342.5C 335.698,342.125 337.698,341.458 339.5,340.5C 341.027,340.573 342.027,339.906 342.5,338.5C 343.167,338.5 343.833,338.5 344.5,338.5C 346.967,338.245 348.967,337.245 350.5,335.5C 353.563,333.975 356.23,331.975 358.5,329.5C 359.167,329.5 359.833,329.5 360.5,329.5C 364.938,327.907 368.605,325.24 371.5,321.5C 376.537,315.462 382.203,310.129 388.5,305.5C 390.587,304.415 391.92,302.749 392.5,300.5C 395.174,296.828 397.84,293.161 400.5,289.5C 402.587,288.415 403.92,286.749 404.5,284.5C 404.427,282.973 405.094,281.973 406.5,281.5C 408.262,280.738 409.262,279.404 409.5,277.5C 411.951,274.26 413.618,270.593 414.5,266.5C 415.89,265.101 416.89,263.434 417.5,261.5C 417.5,260.833 417.5,260.167 417.5,259.5C 418.167,258.5 418.833,257.5 419.5,256.5C 419.337,258.857 419.503,261.19 420,263.5C 421.586,261.33 422.92,258.996 424,256.5C 427.509,251.162 432.342,249.328 438.5,251C 441.521,252.18 444.521,253.346 447.5,254.5 Z"/></g>
<g><path style="opacity:1" fill="#282828" d="M 54.5,249.5 C 53.4154,251.587 51.7488,252.92 49.5,253.5C 50.1667,252.5 50.8333,251.5 51.5,250.5C 52.391,249.89 53.391,249.557 54.5,249.5 Z"/></g>
<g><path style="opacity:1" fill="#8b8b8b" d="M 50.5,250.5 C 50.8333,250.5 51.1667,250.5 51.5,250.5C 50.8333,251.5 50.1667,252.5 49.5,253.5C 48.391,253.557 47.391,253.89 46.5,254.5C 46.1667,254.5 45.8333,254.5 45.5,254.5C 46.9448,252.937 48.6115,251.604 50.5,250.5 Z"/></g>
<g><path style="opacity:1" fill="#363636" d="M 419.5,252.5 C 419.5,252.833 419.5,253.167 419.5,253.5C 419.5,253.833 419.5,254.167 419.5,254.5C 417.787,255.635 417.12,257.302 417.5,259.5C 417.167,259.5 416.833,259.5 416.5,259.5C 415.908,256.369 416.908,254.036 419.5,252.5 Z"/></g>
<g><path style="opacity:1" fill="#797979" d="M 419.5,254.5 C 419.5,254.833 419.5,255.167 419.5,255.5C 419.5,255.833 419.5,256.167 419.5,256.5C 418.833,257.5 418.167,258.5 417.5,259.5C 417.12,257.302 417.787,255.635 419.5,254.5 Z"/></g>
<g><path style="opacity:1" fill="#696969" d="M 45.5,254.5 C 45.8333,254.5 46.1667,254.5 46.5,254.5C 43.5,258.167 40.1667,261.5 36.5,264.5C 36.5,264.167 36.5,263.833 36.5,263.5C 39.1667,260.167 42.1667,257.167 45.5,254.5 Z"/></g>
<g><path style="opacity:1" fill="#797979" d="M 416.5,259.5 C 416.833,259.5 417.167,259.5 417.5,259.5C 417.5,260.167 417.5,260.833 417.5,261.5C 416.833,261.833 416.167,262.167 415.5,262.5C 415.557,261.391 415.89,260.391 416.5,259.5 Z"/></g>
<g><path style="opacity:0.987" fill="#e2e2e2" d="M 444.5,266.5 C 443.205,270.734 441.539,274.734 439.5,278.5C 433.703,276.606 428.369,277.439 423.5,281C 411.833,294 400.167,307 388.5,320C 377.467,327.338 366.633,335.171 356,343.5C 351.496,350.242 351.662,356.742 356.5,363C 358.743,364.136 361.076,364.97 363.5,365.5C 363.5,366.167 363.167,366.5 362.5,366.5C 359.327,365.83 356.327,364.664 353.5,363C 349.686,356.981 349.519,350.814 353,344.5C 366.253,334.585 378.919,323.918 391,312.5C 402.149,300.355 412.149,287.355 421,273.5C 426.958,264.593 434.791,262.259 444.5,266.5 Z"/></g>
<g><path style="opacity:1" fill="#9e9e9e" d="M 417.5,261.5 C 416.89,263.434 415.89,265.101 414.5,266.5C 414.5,265.833 414.5,265.167 414.5,264.5C 414.328,263.508 414.662,262.842 415.5,262.5C 416.167,262.167 416.833,261.833 417.5,261.5 Z"/></g>
<g><path style="opacity:1" fill="#474747" d="M 414.5,264.5 C 414.5,265.167 414.5,265.833 414.5,266.5C 413.833,266.833 413.167,267.167 412.5,267.5C 412.427,265.973 413.094,264.973 414.5,264.5 Z"/></g>
<g><path style="opacity:1" fill="#c0c0c0" d="M 36.5,263.5 C 36.5,263.833 36.5,264.167 36.5,264.5C 36.5,264.833 36.5,265.167 36.5,265.5C 34.7376,266.262 33.7376,267.596 33.5,269.5C 33.1667,269.5 32.8333,269.5 32.5,269.5C 32.6225,266.708 33.9558,264.708 36.5,263.5 Z"/></g>
<g><path style="opacity:1" fill="#575757" d="M 36.5,265.5 C 36.2624,267.404 35.2624,268.738 33.5,269.5C 33.7376,267.596 34.7376,266.262 36.5,265.5 Z"/></g>
<g><path style="opacity:1" fill="#868686" d="M 32.5,269.5 C 32.8333,269.5 33.1667,269.5 33.5,269.5C 33.573,271.027 32.9063,272.027 31.5,272.5C 31.5569,271.391 31.8902,270.391 32.5,269.5 Z"/></g>
<g><path style="opacity:1" fill="#a4a4a4" d="M 414.5,266.5 C 413.618,270.593 411.951,274.26 409.5,277.5C 409.5,276.833 409.5,276.167 409.5,275.5C 410.5,272.833 411.5,270.167 412.5,267.5C 413.167,267.167 413.833,266.833 414.5,266.5 Z"/></g>
<g><path style="opacity:1" fill="#b0b0b0" d="M 409.5,277.5 C 409.262,279.404 408.262,280.738 406.5,281.5C 406.738,279.596 407.738,278.262 409.5,277.5 Z"/></g>
<g><path style="opacity:1" fill="#dadada" d="M 32.5,269.5 C 31.8902,270.391 31.5569,271.391 31.5,272.5C 31.5,273.167 31.5,273.833 31.5,274.5C 30.3995,276.277 29.5662,278.277 29,280.5C 28.5004,287.158 28.3337,293.825 28.5,300.5C 28.1667,300.5 27.8333,300.5 27.5,300.5C 24.9238,289.239 26.5905,278.905 32.5,269.5 Z"/></g>
<g><path style="opacity:1" fill="#b3b3b3" d="M 404.5,284.5 C 403.92,286.749 402.587,288.415 400.5,289.5C 401.08,287.251 402.413,285.585 404.5,284.5 Z"/></g>
<g><path style="opacity:1" fill="#747474" d="M 31.5,274.5 C 31.5,275.833 31.5,277.167 31.5,278.5C 30.7321,279.263 30.2321,280.263 30,281.5C 29.5003,289.493 29.3336,297.493 29.5,305.5C 28.5489,304.081 28.2155,302.415 28.5,300.5C 28.3337,293.825 28.5004,287.158 29,280.5C 29.5662,278.277 30.3995,276.277 31.5,274.5 Z"/></g>
<g><path style="opacity:1" fill="#2f2f2f" d="M 31.5,278.5 C 30.6126,287.801 30.2792,297.134 30.5,306.5C 30.1667,306.5 29.8333,306.5 29.5,306.5C 29.5,306.167 29.5,305.833 29.5,305.5C 29.3336,297.493 29.5003,289.493 30,281.5C 30.2321,280.263 30.7321,279.263 31.5,278.5 Z"/></g>
<g><path style="opacity:0.964" fill="#c6c6c6" d="M 434.5,290.5 C 432.571,295.372 429.905,299.705 426.5,303.5C 425.359,302.661 424.026,301.994 422.5,301.5C 411.843,305.168 402.843,311.335 395.5,320C 394.167,320.333 392.833,320.667 391.5,321C 386.227,326.118 380.561,330.618 374.5,334.5C 389.624,321.386 404.29,307.553 418.5,293C 423.456,288.917 428.79,288.084 434.5,290.5 Z"/></g>
<g><path style="opacity:0.967" fill="#bfbfbf" d="M 426.5,303.5 C 425.66,305.853 424.326,307.853 422.5,309.5C 421.626,308.475 420.459,307.808 419,307.5C 415.633,308.133 412.467,309.3 409.5,311C 394.674,321.841 380.507,333.341 367,345.5C 363.171,352.177 364.671,357.177 371.5,360.5C 370.564,361.974 369.23,362.974 367.5,363.5C 365.229,361.734 363.063,359.734 361,357.5C 360.333,354.5 360.333,351.5 361,348.5C 362.944,344.89 365.277,341.557 368,338.5C 369.972,336.768 372.139,335.435 374.5,334.5C 380.561,330.618 386.227,326.118 391.5,321C 392.833,320.667 394.167,320.333 395.5,320C 402.843,311.335 411.843,305.168 422.5,301.5C 424.026,301.994 425.359,302.661 426.5,303.5 Z"/></g>
<g><path style="opacity:1" fill="#c6c6c6" d="M 392.5,300.5 C 391.92,302.749 390.587,304.415 388.5,305.5C 389.08,303.251 390.413,301.585 392.5,300.5 Z"/></g>
<g><path style="opacity:1" fill="#6c6c6c" d="M 409.5,275.5 C 409.5,276.167 409.5,276.833 409.5,277.5C 407.738,278.262 406.738,279.596 406.5,281.5C 405.094,281.973 404.427,282.973 404.5,284.5C 402.413,285.585 401.08,287.251 400.5,289.5C 397.84,293.161 395.174,296.828 392.5,300.5C 390.413,301.585 389.08,303.251 388.5,305.5C 382.203,310.129 376.537,315.462 371.5,321.5C 368.975,323.177 366.309,324.677 363.5,326C 362.29,327.039 361.29,328.206 360.5,329.5C 359.833,329.5 359.167,329.5 358.5,329.5C 368.376,321.803 377.876,313.47 387,304.5C 394.52,294.764 402.02,285.098 409.5,275.5 Z"/></g>
<g><path style="opacity:0.973" fill="#b3b3b3" d="M 422.5,309.5 C 420.262,314.071 417.262,318.071 413.5,321.5C 409.375,320.36 405.375,320.86 401.5,323C 391.327,329.586 381.327,336.42 371.5,343.5C 365.017,349.546 365.351,355.212 372.5,360.5C 372.167,360.5 371.833,360.5 371.5,360.5C 364.671,357.177 363.171,352.177 367,345.5C 380.507,333.341 394.674,321.841 409.5,311C 412.467,309.3 415.633,308.133 419,307.5C 420.459,307.808 421.626,308.475 422.5,309.5 Z"/></g>
<g><path style="opacity:1" fill="#d4d4d4" d="M 27.5,300.5 C 27.8333,300.5 28.1667,300.5 28.5,300.5C 28.2155,302.415 28.5489,304.081 29.5,305.5C 29.5,305.833 29.5,306.167 29.5,306.5C 30.4993,323.485 31.166,340.485 31.5,357.5C 31.5,361.5 31.5,365.5 31.5,369.5C 29.1939,346.709 27.8606,323.709 27.5,300.5 Z"/></g>
<g><path style="opacity:1" fill="#505050" d="M 29.5,306.5 C 29.8333,306.5 30.1667,306.5 30.5,306.5C 31.053,315.652 31.7196,324.652 32.5,333.5C 32.8001,346.501 33.1334,359.501 33.5,372.5C 32.8333,367.5 32.1667,362.5 31.5,357.5C 31.166,340.485 30.4993,323.485 29.5,306.5 Z"/></g>
<g><path style="opacity:0.949" fill="#a7a7a7" d="M 413.5,321.5 C 409.971,326.548 405.971,331.215 401.5,335.5C 401.389,334.883 401.056,334.383 400.5,334C 389.631,334.85 380.464,339.35 373,347.5C 370.712,351.682 371.545,355.016 375.5,357.5C 374.833,358.833 373.833,359.833 372.5,360.5C 365.351,355.212 365.017,349.546 371.5,343.5C 381.327,336.42 391.327,329.586 401.5,323C 405.375,320.86 409.375,320.36 413.5,321.5 Z"/></g>
<g><path style="opacity:1" fill="#c7c7c7" d="M 371.5,321.5 C 368.605,325.24 364.938,327.907 360.5,329.5C 361.29,328.206 362.29,327.039 363.5,326C 366.309,324.677 368.975,323.177 371.5,321.5 Z"/></g>
<g><path style="opacity:1" fill="#7e7e7e" d="M 358.5,329.5 C 356.23,331.975 353.563,333.975 350.5,335.5C 350.167,335.5 349.833,335.5 349.5,335.5C 349.833,334.833 350.167,334.167 350.5,333.5C 353.035,331.983 355.702,330.65 358.5,329.5 Z"/></g>
<g><path style="opacity:1" fill="#4c4c4c" d="M 350.5,333.5 C 350.167,334.167 349.833,334.833 349.5,335.5C 348.292,336.234 346.959,336.567 345.5,336.5C 346.899,335.11 348.566,334.11 350.5,333.5 Z"/></g>
<g><path style="opacity:1" fill="#4c4c4c" d="M 345.5,336.5 C 345.167,337.167 344.833,337.833 344.5,338.5C 343.833,338.5 343.167,338.5 342.5,338.5C 342.973,337.094 343.973,336.427 345.5,336.5 Z"/></g>
<g><path style="opacity:1" fill="#ababab" d="M 349.5,335.5 C 349.833,335.5 350.167,335.5 350.5,335.5C 348.967,337.245 346.967,338.245 344.5,338.5C 344.833,337.833 345.167,337.167 345.5,336.5C 346.959,336.567 348.292,336.234 349.5,335.5 Z"/></g>
<g><path style="opacity:1" fill="#656565" d="M 342.5,338.5 C 342.027,339.906 341.027,340.573 339.5,340.5C 339.973,339.094 340.973,338.427 342.5,338.5 Z"/></g>
<g><path style="opacity:1" fill="#d5d5d5" d="M 439.5,278.5 C 438.383,282.734 436.716,286.734 434.5,290.5C 428.79,288.084 423.456,288.917 418.5,293C 404.29,307.553 389.624,321.386 374.5,334.5C 372.139,335.435 369.972,336.768 368,338.5C 365.277,341.557 362.944,344.89 361,348.5C 360.333,351.5 360.333,354.5 361,357.5C 363.063,359.734 365.229,361.734 367.5,363.5C 366.486,364.674 365.153,365.34 363.5,365.5C 361.076,364.97 358.743,364.136 356.5,363C 351.662,356.742 351.496,350.242 356,343.5C 366.633,335.171 377.467,327.338 388.5,320C 400.167,307 411.833,294 423.5,281C 428.369,277.439 433.703,276.606 439.5,278.5 Z"/></g>
<g><path style="opacity:0.903" fill="#9b9b9b" d="M 401.5,335.5 C 393.719,343.953 385.052,351.287 375.5,357.5C 371.545,355.016 370.712,351.682 373,347.5C 380.464,339.35 389.631,334.85 400.5,334C 401.056,334.383 401.389,334.883 401.5,335.5 Z"/></g>
<g><path style="opacity:1" fill="#646464" d="M 339.5,340.5 C 337.698,341.458 335.698,342.125 333.5,342.5C 334.99,340.72 336.99,340.054 339.5,340.5 Z"/></g>
<g><path style="opacity:1" fill="#676767" d="M 333.5,342.5 C 331.928,343.687 330.261,344.687 328.5,345.5C 326.435,345.517 324.435,345.85 322.5,346.5C 322.791,345.351 323.624,344.684 325,344.5C 327.731,343.383 330.565,342.717 333.5,342.5 Z"/></g>
<g><path style="opacity:1" fill="#626262" d="M 322.5,346.5 C 321.07,347.537 319.403,348.204 317.5,348.5C 318.635,346.787 320.302,346.12 322.5,346.5 Z"/></g>
<g><path style="opacity:1" fill="#8c8c8c" d="M 312.5,348.5 C 313.833,348.5 315.167,348.5 316.5,348.5C 314.485,349.924 312.152,350.59 309.5,350.5C 310.5,349.833 311.5,349.167 312.5,348.5 Z"/></g>
<g><path style="opacity:1" fill="#474747" d="M 312.5,348.5 C 311.5,349.167 310.5,349.833 309.5,350.5C 308.833,350.5 308.167,350.5 307.5,350.5C 302.269,350.444 297.269,351.111 292.5,352.5C 289.833,352.5 287.167,352.5 284.5,352.5C 293.589,350.386 302.922,349.052 312.5,348.5 Z"/></g>
<g><path style="opacity:1" fill="#909090" d="M 307.5,350.5 C 305.167,351.167 302.833,351.833 300.5,352.5C 300.167,352.5 299.833,352.5 299.5,352.5C 297.167,352.5 294.833,352.5 292.5,352.5C 297.269,351.111 302.269,350.444 307.5,350.5 Z"/></g>
<g><path style="opacity:1" fill="#dddddd" d="M 328.5,345.5 C 327.571,346.315 326.571,347.148 325.5,348C 321.232,348.534 317.232,349.867 313.5,352C 309.179,352.499 304.846,352.666 300.5,352.5C 302.833,351.833 305.167,351.167 307.5,350.5C 308.167,350.5 308.833,350.5 309.5,350.5C 312.152,350.59 314.485,349.924 316.5,348.5C 316.833,348.5 317.167,348.5 317.5,348.5C 319.403,348.204 321.07,347.537 322.5,346.5C 324.435,345.85 326.435,345.517 328.5,345.5 Z"/></g>
<g><path style="opacity:1" fill="#d2d2d2" d="M 284.5,352.5 C 287.167,352.5 289.833,352.5 292.5,352.5C 294.833,352.5 297.167,352.5 299.5,352.5C 299.389,353.117 299.056,353.617 298.5,354C 291.842,354.5 285.175,354.666 278.5,354.5C 278.5,354.167 278.5,353.833 278.5,353.5C 280.621,353.675 282.621,353.341 284.5,352.5 Z"/></g>
<g><path style="opacity:1" fill="#7a7a7a" d="M 278.5,353.5 C 278.5,353.833 278.5,354.167 278.5,354.5C 277.167,354.5 275.833,354.5 274.5,354.5C 260.166,354.803 245.832,355.136 231.5,355.5C 231.5,355.167 231.5,354.833 231.5,354.5C 247.153,353.704 262.82,353.371 278.5,353.5 Z"/></g>
<g><path style="opacity:1" fill="#d5d5d5" d="M 274.5,354.5 C 264.026,355.821 253.359,356.488 242.5,356.5C 236.5,356.5 230.5,356.5 224.5,356.5C 226.607,355.532 228.941,355.198 231.5,355.5C 245.832,355.136 260.166,354.803 274.5,354.5 Z"/></g>
<g><path style="opacity:1" fill="#696969" d="M 231.5,354.5 C 231.5,354.833 231.5,355.167 231.5,355.5C 228.941,355.198 226.607,355.532 224.5,356.5C 221.833,356.5 219.167,356.5 216.5,356.5C 211.5,356.5 206.5,356.5 201.5,356.5C 211.326,355.506 221.326,354.839 231.5,354.5 Z"/></g>
<g><path style="opacity:1" fill="#151515" d="M 32.5,333.5 C 33.6388,350.384 34.9722,367.384 36.5,384.5C 38.1667,384.5 39.8333,384.5 41.5,384.5C 41.5,384.833 41.5,385.167 41.5,385.5C 39.5648,386.15 37.5648,386.483 35.5,386.5C 35.5905,383.848 34.9238,381.515 33.5,379.5C 33.5,377.167 33.5,374.833 33.5,372.5C 33.1334,359.501 32.8001,346.501 32.5,333.5 Z"/></g>
<g><path style="opacity:1" fill="#656565" d="M 169.5,357.5 C 159.677,358.545 149.677,359.212 139.5,359.5C 139.5,359.167 139.5,358.833 139.5,358.5C 149.486,357.834 159.486,357.501 169.5,357.5 Z"/></g>
<g><path style="opacity:1" fill="#acacac" d="M 201.5,356.5 C 206.5,356.5 211.5,356.5 216.5,356.5C 197.158,357.71 177.824,359.044 158.5,360.5C 145.833,360.5 133.167,360.5 120.5,360.5C 126.645,359.51 132.978,359.177 139.5,359.5C 149.677,359.212 159.677,358.545 169.5,357.5C 180.143,356.655 190.81,356.321 201.5,356.5 Z"/></g>
<g><path style="opacity:1" fill="#f0f0f0" d="M 216.5,356.5 C 219.167,356.5 221.833,356.5 224.5,356.5C 230.5,356.5 236.5,356.5 242.5,356.5C 214.687,358.491 186.687,359.824 158.5,360.5C 177.824,359.044 197.158,357.71 216.5,356.5 Z"/></g>
<g><path style="opacity:1" fill="#414141" d="M 139.5,358.5 C 139.5,358.833 139.5,359.167 139.5,359.5C 132.978,359.177 126.645,359.51 120.5,360.5C 115.5,360.5 110.5,360.5 105.5,360.5C 116.631,358.975 127.964,358.309 139.5,358.5 Z"/></g>
<g><path style="opacity:1" fill="#4b4b4b" d="M 102.5,360.5 C 99.0689,361.135 95.7356,362.135 92.5,363.5C 91.5,363.5 90.5,363.5 89.5,363.5C 88.5,363.5 87.5,363.5 86.5,363.5C 91.4862,361.299 96.8196,360.299 102.5,360.5 Z"/></g>
<g><path style="opacity:1" fill="#969696" d="M 102.5,360.5 C 103.5,360.5 104.5,360.5 105.5,360.5C 110.5,360.5 115.5,360.5 120.5,360.5C 119.081,361.451 117.415,361.784 115.5,361.5C 107.764,361.45 100.097,362.117 92.5,363.5C 95.7356,362.135 99.0689,361.135 102.5,360.5 Z"/></g>
<g><path style="opacity:0.999" fill="#f6f6f6" d="M 378.5,581.5 C 370.097,581.982 362.43,579.816 355.5,575C 352.5,572.667 349.5,570.333 346.5,568C 344.037,564.535 341.204,561.369 338,558.5C 298.419,499.672 259.085,440.672 220,381.5C 209.628,366.906 195.462,360.906 177.5,363.5C 167.261,362.539 157.594,364.372 148.5,369C 135.72,387.113 139.72,399.613 160.5,406.5C 160.5,407.167 160.5,407.833 160.5,408.5C 140.997,404.166 134.497,392.499 141,373.5C 143.206,367.808 147.373,364.641 153.5,364C 169.498,362.021 185.498,362.021 201.5,364C 209.443,365.554 215.61,369.72 220,376.5C 260,436.5 300,496.5 340,556.5C 349.769,569.786 362.603,578.12 378.5,581.5 Z"/></g>
<g><path style="opacity:0.999" fill="#efefef" d="M 378.5,581.5 C 388.113,580.858 396.779,577.691 404.5,572C 412.928,565.242 420.261,557.576 426.5,549C 435.206,548.426 443.539,549.926 451.5,553.5C 451.59,556.152 450.924,558.485 449.5,560.5C 443.378,557.411 437.044,556.911 430.5,559C 422.277,565.271 414.277,571.771 406.5,578.5C 393.475,582.374 380.142,583.54 366.5,582C 361.272,580.716 356.272,578.883 351.5,576.5C 343.161,569.327 335.661,561.327 329,552.5C 292,496.833 255,441.167 218,385.5C 204.944,367.587 187.444,361.087 165.5,366C 151.916,368.973 145.416,377.473 146,391.5C 148.985,397.741 153.818,401.741 160.5,403.5C 160.5,404.5 160.5,405.5 160.5,406.5C 139.72,399.613 135.72,387.113 148.5,369C 157.594,364.372 167.261,362.539 177.5,363.5C 195.462,360.906 209.628,366.906 220,381.5C 259.085,440.672 298.419,499.672 338,558.5C 341.204,561.369 344.037,564.535 346.5,568C 349.5,570.333 352.5,572.667 355.5,575C 362.43,579.816 370.097,581.982 378.5,581.5 Z"/></g>
<g><path style="opacity:1" fill="#d2d2d2" d="M 115.5,361.5 C 103.299,363.237 90.9655,365.07 78.5,367C 74.93,368.799 71.2634,370.299 67.5,371.5C 68.0998,370.1 69.0998,369.1 70.5,368.5C 76.7268,366.081 83.0602,364.415 89.5,363.5C 90.5,363.5 91.5,363.5 92.5,363.5C 100.097,362.117 107.764,361.45 115.5,361.5 Z"/></g>
<g><path style="opacity:1" fill="#626262" d="M 86.5,363.5 C 87.5,363.5 88.5,363.5 89.5,363.5C 83.0602,364.415 76.7268,366.081 70.5,368.5C 70.5,368.167 70.5,367.833 70.5,367.5C 71.6002,366.442 72.9336,365.608 74.5,365C 78.4908,364.358 82.4908,363.858 86.5,363.5 Z"/></g>
<g><path style="opacity:0.999" fill="#e3e3e3" d="M 351.5,576.5 C 347.458,574.638 343.792,572.138 340.5,569C 335.622,563.791 331.122,558.291 327,552.5C 290,496.833 253,441.167 216,385.5C 211.502,378.827 205.669,373.827 198.5,370.5C 197.158,369.207 195.491,368.374 193.5,368C 183.468,367.287 173.468,367.621 163.5,369C 153.457,373.579 148.957,381.412 150,392.5C 152.828,396.175 156.328,398.842 160.5,400.5C 160.5,401.5 160.5,402.5 160.5,403.5C 153.818,401.741 148.985,397.741 146,391.5C 145.416,377.473 151.916,368.973 165.5,366C 187.444,361.087 204.944,367.587 218,385.5C 255,441.167 292,496.833 329,552.5C 335.661,561.327 343.161,569.327 351.5,576.5 Z"/></g>
<g><path style="opacity:1" fill="#333333" d="M 70.5,367.5 C 70.5,367.833 70.5,368.167 70.5,368.5C 67.8915,368.4 65.5582,369.067 63.5,370.5C 65.0361,367.908 67.3695,366.908 70.5,367.5 Z"/></g>
<g><path style="opacity:1" fill="#d3d3d3" d="M 198.5,370.5 C 204.766,374.931 210.266,380.264 215,386.5C 215.49,387.793 215.657,389.127 215.5,390.5C 214.5,389.833 213.5,389.167 212.5,388.5C 209.758,385.144 207.091,381.644 204.5,378C 201.672,375.752 198.672,373.752 195.5,372C 188.241,370.279 180.907,369.612 173.5,370C 161.406,372.094 154.906,379.26 154,391.5C 155.926,393.539 158.093,395.206 160.5,396.5C 160.5,397.833 160.5,399.167 160.5,400.5C 156.328,398.842 152.828,396.175 150,392.5C 148.957,381.412 153.457,373.579 163.5,369C 173.468,367.621 183.468,367.287 193.5,368C 195.491,368.374 197.158,369.207 198.5,370.5 Z"/></g>
<g><path style="opacity:1" fill="#b6b6b6" d="M 70.5,368.5 C 69.0998,369.1 68.0998,370.1 67.5,371.5C 65.5,372.167 63.5,372.833 61.5,373.5C 60.8333,373.5 60.1667,373.5 59.5,373.5C 60.1667,372.833 60.8333,372.167 61.5,371.5C 62.4916,371.672 63.1583,371.338 63.5,370.5C 65.5582,369.067 67.8915,368.4 70.5,368.5 Z"/></g>
<g><path style="opacity:1" fill="#505050" d="M 61.5,371.5 C 60.8333,372.167 60.1667,372.833 59.5,373.5C 57.1475,374.34 55.1475,375.674 53.5,377.5C 51.5956,377.738 50.2623,378.738 49.5,380.5C 46.3189,381.349 43.6523,383.015 41.5,385.5C 41.5,385.167 41.5,384.833 41.5,384.5C 46.4811,380.524 51.4811,376.524 56.5,372.5C 58.0453,371.548 59.712,371.215 61.5,371.5 Z"/></g>
<g><path style="opacity:1" fill="#dfdfdf" d="M 59.5,373.5 C 60.1667,373.5 60.8333,373.5 61.5,373.5C 59.5182,376.137 56.8515,377.47 53.5,377.5C 55.1475,375.674 57.1475,374.34 59.5,373.5 Z"/></g>
<g><path style="opacity:1" fill="#c5c5c5" d="M 53.5,377.5 C 52.7377,379.262 51.4044,380.262 49.5,380.5C 50.2623,378.738 51.5956,377.738 53.5,377.5 Z"/></g>
<g><path style="opacity:0.938" fill="#828282" d="M 197.5,397.5 C 196.11,396.101 195.11,394.434 194.5,392.5C 194.703,390.61 194.037,389.11 192.5,388C 186.589,383.069 180.255,382.402 173.5,386C 171.393,387.264 170.393,389.097 170.5,391.5C 169.167,391.5 167.833,391.5 166.5,391.5C 169.363,382.831 175.363,379.331 184.5,381C 189.85,382.428 194.35,385.261 198,389.5C 198.602,392.221 198.435,394.887 197.5,397.5 Z"/></g>
<g><path style="opacity:1" fill="#595959" d="M 33.5,379.5 C 34.9238,381.515 35.5905,383.848 35.5,386.5C 37.5648,386.483 39.5648,386.15 41.5,385.5C 39.8567,388.495 37.5233,389.161 34.5,387.5C 34.1667,384.833 33.8333,382.167 33.5,379.5 Z"/></g>
<g><path style="opacity:0.938" fill="#909090" d="M 200.5,401.5 C 199.026,400.564 198.026,399.23 197.5,397.5C 198.435,394.887 198.602,392.221 198,389.5C 194.35,385.261 189.85,382.428 184.5,381C 175.363,379.331 169.363,382.831 166.5,391.5C 165.167,391.5 163.833,391.5 162.5,391.5C 164.027,381.824 169.86,376.824 180,376.5C 184.367,376.967 188.534,378.133 192.5,380C 195.297,383.799 198.464,387.299 202,390.5C 202.879,394.477 202.379,398.144 200.5,401.5 Z"/></g>
<g><path style="opacity:1" fill="#b3b3b3" d="M 345.5,579.5 C 347.792,580.79 349.792,582.457 351.5,584.5C 335.374,577.908 321.874,567.575 311,553.5C 281.333,509.167 251.667,464.833 222,420.5C 215.729,408.959 209.729,397.292 204,385.5C 193.474,373.743 180.974,370.909 166.5,377C 161.331,380.506 159.331,385.339 160.5,391.5C 160.5,392.5 160.5,393.5 160.5,394.5C 157.82,393.513 156.154,391.68 155.5,389C 157.865,379.639 163.865,373.972 173.5,372C 186.846,370.967 198.012,375.467 207,385.5C 207.483,386.448 207.649,387.448 207.5,388.5C 208.5,388.5 209.5,388.5 210.5,388.5C 212.513,394.861 215.346,400.861 219,406.5C 251.915,455.328 284.581,504.328 317,553.5C 322.459,560.627 328.292,567.461 334.5,574C 337.96,576.315 341.627,578.149 345.5,579.5 Z"/></g>
<g><path style="opacity:1" fill="#a5a5a5" d="M 31.5,357.5 C 32.1667,362.5 32.8333,367.5 33.5,372.5C 33.5,374.833 33.5,377.167 33.5,379.5C 33.8333,382.167 34.1667,384.833 34.5,387.5C 32.6352,381.787 31.6352,375.787 31.5,369.5C 31.5,365.5 31.5,361.5 31.5,357.5 Z"/></g>
<g><path style="opacity:1" fill="#c3c3c3" d="M 49.5,380.5 C 46.3957,383.101 43.3957,385.934 40.5,389C 38.6547,390.128 36.6547,390.628 34.5,390.5C 34.5,389.5 34.5,388.5 34.5,387.5C 37.5233,389.161 39.8567,388.495 41.5,385.5C 43.6523,383.015 46.3189,381.349 49.5,380.5 Z"/></g>
<g><path style="opacity:1" fill="#cbcbcb" d="M 212.5,388.5 C 213.5,389.167 214.5,389.833 215.5,390.5C 249.397,442.614 283.564,494.614 318,546.5C 321.04,551.269 324.54,555.603 328.5,559.5C 330.849,562.865 333.516,566.031 336.5,569C 342.272,573.2 347.939,577.366 353.5,581.5C 350.833,580.833 348.167,580.167 345.5,579.5C 335.201,570.694 326.034,560.694 318,549.5C 286,501.5 254,453.5 222,405.5C 218.302,400.102 215.136,394.435 212.5,388.5 Z"/></g>
<g><path style="opacity:1" fill="#c0c0c0" d="M 212.5,388.5 C 215.136,394.435 218.302,400.102 222,405.5C 254,453.5 286,501.5 318,549.5C 326.034,560.694 335.201,570.694 345.5,579.5C 341.627,578.149 337.96,576.315 334.5,574C 328.292,567.461 322.459,560.627 317,553.5C 284.581,504.328 251.915,455.328 219,406.5C 215.346,400.861 212.513,394.861 210.5,388.5C 209.5,388.5 208.5,388.5 207.5,388.5C 207.649,387.448 207.483,386.448 207,385.5C 198.012,375.467 186.846,370.967 173.5,372C 163.865,373.972 157.865,379.639 155.5,389C 156.154,391.68 157.82,393.513 160.5,394.5C 160.5,395.167 160.5,395.833 160.5,396.5C 158.093,395.206 155.926,393.539 154,391.5C 154.906,379.26 161.406,372.094 173.5,370C 180.907,369.612 188.241,370.279 195.5,372C 198.672,373.752 201.672,375.752 204.5,378C 207.091,381.644 209.758,385.144 212.5,388.5 Z"/></g>
<g><path style="opacity:0.918" fill="#727272" d="M 194.5,392.5 C 186.586,391.533 178.586,391.199 170.5,391.5C 170.393,389.097 171.393,387.264 173.5,386C 180.255,382.402 186.589,383.069 192.5,388C 194.037,389.11 194.703,390.61 194.5,392.5 Z"/></g>
<g><path style="opacity:1" fill="#dddddd" d="M 198.5,370.5 C 205.669,373.827 211.502,378.827 216,385.5C 253,441.167 290,496.833 327,552.5C 331.122,558.291 335.622,563.791 340.5,569C 343.792,572.138 347.458,574.638 351.5,576.5C 356.272,578.883 361.272,580.716 366.5,582C 380.142,583.54 393.475,582.374 406.5,578.5C 414.277,571.771 422.277,565.271 430.5,559C 437.044,556.911 443.378,557.411 449.5,560.5C 449.371,562.216 449.038,563.883 448.5,565.5C 437.955,560.968 428.622,562.801 420.5,571C 419.167,571.333 417.833,571.667 416.5,572C 413.149,575.348 409.482,578.348 405.5,581C 391.219,585.529 376.552,586.696 361.5,584.5C 358.458,584.267 355.792,583.267 353.5,581.5C 347.939,577.366 342.272,573.2 336.5,569C 333.516,566.031 330.849,562.865 328.5,559.5C 326.145,556.124 324.312,552.457 323,548.5C 289.667,498.5 256.333,448.5 223,398.5C 220.27,396.033 217.77,393.367 215.5,390.5C 215.657,389.127 215.49,387.793 215,386.5C 210.266,380.264 204.766,374.931 198.5,370.5 Z"/></g>
<g><path style="opacity:0.922" fill="#a8a8a8" d="M 351.5,584.5 C 364.769,588.965 378.436,590.632 392.5,589.5C 395.85,589.665 399.183,589.498 402.5,589C 412.042,583.05 422.376,580.383 433.5,581C 434.693,582.095 436.027,582.928 437.5,583.5C 436.167,585.5 434.5,587.167 432.5,588.5C 429.75,586.302 426.583,584.968 423,584.5C 412.996,586.948 403.162,589.782 393.5,593C 379.061,594.817 365.061,593.15 351.5,588C 343.662,584.276 335.662,580.943 327.5,578C 325.167,577.333 322.833,577.333 320.5,578C 319.944,578.383 319.611,578.883 319.5,579.5C 279.057,520.716 239.39,461.383 200.5,401.5C 202.379,398.144 202.879,394.477 202,390.5C 198.464,387.299 195.297,383.799 192.5,380C 188.534,378.133 184.367,376.967 180,376.5C 169.86,376.824 164.027,381.824 162.5,391.5C 161.833,391.5 161.167,391.5 160.5,391.5C 159.331,385.339 161.331,380.506 166.5,377C 180.974,370.909 193.474,373.743 204,385.5C 209.729,397.292 215.729,408.959 222,420.5C 251.667,464.833 281.333,509.167 311,553.5C 321.874,567.575 335.374,577.908 351.5,584.5 Z"/></g>
<g><path style="opacity:1" fill="#d4d4d4" d="M 215.5,390.5 C 217.77,393.367 220.27,396.033 223,398.5C 256.333,448.5 289.667,498.5 323,548.5C 324.312,552.457 326.145,556.124 328.5,559.5C 324.54,555.603 321.04,551.269 318,546.5C 283.564,494.614 249.397,442.614 215.5,390.5 Z"/></g>
<g><path style="opacity:0.992" fill="#e2e2e2" d="M 66.5,580.5 C 62.1438,579.489 58.1438,577.656 54.5,575C 48.5745,571.079 43.2412,566.412 38.5,561C 31.6636,554.871 23.9969,553.371 15.5,556.5C 14.6586,554.621 14.3253,552.621 14.5,550.5C 21.3901,547.526 28.0568,548.026 34.5,552C 40.0681,557.812 45.4015,563.812 50.5,570C 55.4682,574.149 60.8015,577.649 66.5,580.5 Z"/></g>
<g><path style="opacity:0.987" fill="#f1f1f1" d="M 158.5,553.5 C 158.59,556.152 157.924,558.485 156.5,560.5C 150.378,557.411 144.044,556.911 137.5,559C 129.277,565.271 121.277,571.771 113.5,578.5C 100.882,583.016 87.8823,584.516 74.5,583C 71.5432,582.721 68.8766,581.887 66.5,580.5C 60.8015,577.649 55.4682,574.149 50.5,570C 45.4015,563.812 40.0681,557.812 34.5,552C 28.0568,548.026 21.3901,547.526 14.5,550.5C 13.5206,547.375 13.1872,544.042 13.5,540.5C 19.3759,537.482 25.5425,535.149 32,533.5C 33.2247,533.862 34.3914,534.362 35.5,535C 39.848,542.354 44.0146,549.854 48,557.5C 57.7108,570.884 70.7108,578.884 87,581.5C 97.2585,580.194 106.425,576.361 114.5,570C 121.886,563.152 128.553,555.819 134.5,548C 143.077,547.646 151.077,549.479 158.5,553.5 Z"/></g>
<g><path style="opacity:0.971" fill="#c0c0c0" d="M 60.5,583.5 C 58.7376,583.643 57.0709,583.309 55.5,582.5C 49.1204,578.317 42.7871,574.15 36.5,570C 31.182,567.049 25.8487,566.883 20.5,569.5C 19.0687,568.22 18.4021,566.553 18.5,564.5C 22.7061,562.031 27.0395,561.864 31.5,564C 41.3438,570.363 51.0105,576.863 60.5,583.5 Z"/></g>
<g><path style="opacity:0.956" fill="#b3b3b3" d="M 60.5,583.5 C 63.5263,585.759 66.8597,587.425 70.5,588.5C 66.414,588.116 62.414,587.283 58.5,586C 51.3998,581.565 44.0665,577.565 36.5,574C 31.8281,572.02 27.4948,572.52 23.5,575.5C 21.9925,573.819 20.9925,571.819 20.5,569.5C 25.8487,566.883 31.182,567.049 36.5,570C 42.7871,574.15 49.1204,578.317 55.5,582.5C 57.0709,583.309 58.7376,583.643 60.5,583.5 Z"/></g>
<g><path style="opacity:0.963" fill="#bebebe" d="M 444.5,573.5 C 443.396,575.389 442.063,577.055 440.5,578.5C 439.653,577.034 438.32,576.2 436.5,576C 428.502,574.555 421.502,576.555 415.5,582C 407.927,585.025 400.26,587.525 392.5,589.5C 378.436,590.632 364.769,588.965 351.5,584.5C 349.792,582.457 347.792,580.79 345.5,579.5C 348.167,580.167 350.833,580.833 353.5,581.5C 355.792,583.267 358.458,584.267 361.5,584.5C 363.026,586.13 365.026,586.963 367.5,587C 379.836,588.225 392.003,587.392 404,584.5C 412.748,579.876 421.581,575.376 430.5,571C 435.513,570.042 440.179,570.875 444.5,573.5 Z"/></g>
<g><path style="opacity:1" fill="#d1d1d1" d="M 448.5,565.5 C 447.167,568.167 445.833,570.833 444.5,573.5C 440.179,570.875 435.513,570.042 430.5,571C 421.581,575.376 412.748,579.876 404,584.5C 392.003,587.392 379.836,588.225 367.5,587C 365.026,586.963 363.026,586.13 361.5,584.5C 376.552,586.696 391.219,585.529 405.5,581C 409.482,578.348 413.149,575.348 416.5,572C 417.833,571.667 419.167,571.333 420.5,571C 428.622,562.801 437.955,560.968 448.5,565.5 Z"/></g>
<g><path style="opacity:0.973" fill="#b3b3b3" d="M 147.5,578.5 C 146.925,580.411 145.925,582.078 144.5,583.5C 139.615,580.585 134.282,579.751 128.5,581C 119.256,585.36 109.589,588.193 99.5,589.5C 107.235,587.533 114.902,585.033 122.5,582C 128.809,576.343 136.143,574.343 144.5,576C 145.942,576.377 146.942,577.21 147.5,578.5 Z"/></g>
<g><path style="opacity:0.966" fill="#9a9a9a" d="M 432.5,588.5 C 430.833,590.833 428.833,592.833 426.5,594.5C 424.302,591.564 421.302,589.897 417.5,589.5C 405.647,592.404 393.647,594.404 381.5,595.5C 374.07,594.924 366.736,593.757 359.5,592C 349.262,588.198 338.928,584.698 328.5,581.5C 326.308,581.757 324.641,582.757 323.5,584.5C 321.413,583.415 320.08,581.749 319.5,579.5C 319.611,578.883 319.944,578.383 320.5,578C 322.833,577.333 325.167,577.333 327.5,578C 335.662,580.943 343.662,584.276 351.5,588C 365.061,593.15 379.061,594.817 393.5,593C 403.162,589.782 412.996,586.948 423,584.5C 426.583,584.968 429.75,586.302 432.5,588.5 Z"/></g>
<g><path style="opacity:0.971" fill="#b3b3b3" d="M 440.5,578.5 C 439.925,580.411 438.925,582.078 437.5,583.5C 436.027,582.928 434.693,582.095 433.5,581C 422.376,580.383 412.042,583.05 402.5,589C 399.183,589.498 395.85,589.665 392.5,589.5C 400.26,587.525 407.927,585.025 415.5,582C 421.502,576.555 428.502,574.555 436.5,576C 438.32,576.2 439.653,577.034 440.5,578.5 Z"/></g>
<g><path style="opacity:1" fill="#dbdbdb" d="M 66.5,580.5 C 68.8766,581.887 71.5432,582.721 74.5,583C 87.8823,584.516 100.882,583.016 113.5,578.5C 121.277,571.771 129.277,565.271 137.5,559C 144.044,556.911 150.378,557.411 156.5,560.5C 156.128,564.297 154.794,567.63 152.5,570.5C 148.512,567.953 144.179,567.12 139.5,568C 133.927,569.938 128.594,572.271 123.5,575C 121.423,577.738 118.757,579.738 115.5,581C 109.304,581.784 103.304,583.118 97.5,585C 85.0694,586.271 72.9027,585.105 61,581.5C 51.3869,575.612 42.2202,569.112 33.5,562C 27.8838,558.949 22.2171,558.782 16.5,561.5C 15.962,559.883 15.6287,558.216 15.5,556.5C 23.9969,553.371 31.6636,554.871 38.5,561C 43.2412,566.412 48.5745,571.079 54.5,575C 58.1438,577.656 62.1438,579.489 66.5,580.5 Z"/></g>
<g><path style="opacity:0.971" fill="#969696" d="M 139.5,588.5 C 137.12,591.881 134.12,594.547 130.5,596.5C 127.773,593.395 124.273,592.062 120,592.5C 111.845,593.72 103.679,594.887 95.5,596C 86.7419,596.656 78.0753,595.989 69.5,594C 60.6294,590.987 51.6294,588.487 42.5,586.5C 39.3764,586.4 36.7097,587.4 34.5,589.5C 31.8621,586.526 29.1954,583.526 26.5,580.5C 31.0268,577.688 35.6934,577.188 40.5,579C 47.6403,581.735 54.307,585.235 60.5,589.5C 73.5939,593.213 86.9272,594.38 100.5,593C 110.206,589.765 120.04,586.932 130,584.5C 133.583,584.968 136.75,586.302 139.5,588.5 Z"/></g>
<g><path style="opacity:1" fill="#cccccc" d="M 152.5,570.5 C 152.443,571.609 152.11,572.609 151.5,573.5C 147.179,570.875 142.513,570.042 137.5,571C 130.223,573.637 123.556,577.304 117.5,582C 112.381,584.261 107.048,585.928 101.5,587C 87.5555,588.48 73.8889,587.313 60.5,583.5C 51.0105,576.863 41.3438,570.363 31.5,564C 27.0395,561.864 22.7061,562.031 18.5,564.5C 17.5987,563.71 16.9321,562.71 16.5,561.5C 22.2171,558.782 27.8838,558.949 33.5,562C 42.2202,569.112 51.3869,575.612 61,581.5C 72.9027,585.105 85.0694,586.271 97.5,585C 103.304,583.118 109.304,581.784 115.5,581C 118.757,579.738 121.423,577.738 123.5,575C 128.594,572.271 133.927,569.938 139.5,568C 144.179,567.12 148.512,567.953 152.5,570.5 Z"/></g>
<g><path style="opacity:0.971" fill="#8e8e8e" d="M 426.5,594.5 C 424.469,596.522 422.135,598.189 419.5,599.5C 419.489,597.983 418.823,596.816 417.5,596C 415.256,595.094 412.923,594.594 410.5,594.5C 395.902,597.552 381.235,598.052 366.5,596C 356.643,593.577 346.81,591.077 337,588.5C 334.489,588.84 332.322,589.84 330.5,591.5C 327.833,589.5 325.5,587.167 323.5,584.5C 324.641,582.757 326.308,581.757 328.5,581.5C 338.928,584.698 349.262,588.198 359.5,592C 366.736,593.757 374.07,594.924 381.5,595.5C 393.647,594.404 405.647,592.404 417.5,589.5C 421.302,589.897 424.302,591.564 426.5,594.5 Z"/></g>
<g><path style="opacity:1" fill="#bebebe" d="M 151.5,573.5 C 150.396,575.389 149.063,577.055 147.5,578.5C 146.942,577.21 145.942,576.377 144.5,576C 136.143,574.343 128.809,576.343 122.5,582C 114.902,585.033 107.235,587.533 99.5,589.5C 89.8093,589.658 80.1427,589.325 70.5,588.5C 66.8597,587.425 63.5263,585.759 60.5,583.5C 73.8889,587.313 87.5555,588.48 101.5,587C 107.048,585.928 112.381,584.261 117.5,582C 123.556,577.304 130.223,573.637 137.5,571C 142.513,570.042 147.179,570.875 151.5,573.5 Z"/></g>
<g><path style="opacity:0.973" fill="#888888" d="M 130.5,596.5 C 128.469,598.522 126.135,600.189 123.5,601.5C 122.657,599.827 121.324,598.66 119.5,598C 105.505,598.213 91.5053,598.213 77.5,598C 68.2244,595.848 58.8911,594.014 49.5,592.5C 46.1743,592.073 43.5076,593.073 41.5,595.5C 38.9401,593.727 36.6068,591.727 34.5,589.5C 36.7097,587.4 39.3764,586.4 42.5,586.5C 51.6294,588.487 60.6294,590.987 69.5,594C 78.0753,595.989 86.7419,596.656 95.5,596C 103.679,594.887 111.845,593.72 120,592.5C 124.273,592.062 127.773,593.395 130.5,596.5 Z"/></g>
<g><path style="opacity:1" fill="#a6a6a6" d="M 70.5,588.5 C 80.1427,589.325 89.8093,589.658 99.5,589.5C 109.589,588.193 119.256,585.36 128.5,581C 134.282,579.751 139.615,580.585 144.5,583.5C 143.167,585.5 141.5,587.167 139.5,588.5C 136.75,586.302 133.583,584.968 130,584.5C 120.04,586.932 110.206,589.765 100.5,593C 86.9272,594.38 73.5939,593.213 60.5,589.5C 54.307,585.235 47.6403,581.735 40.5,579C 35.6934,577.188 31.0268,577.688 26.5,580.5C 25.2485,578.999 24.2485,577.332 23.5,575.5C 27.4948,572.52 31.8281,572.02 36.5,574C 44.0665,577.565 51.3998,581.565 58.5,586C 62.414,587.283 66.414,588.116 70.5,588.5 Z"/></g>
<g><path style="opacity:0.965" fill="#828282" d="M 419.5,599.5 C 416.869,601.153 414.203,602.819 411.5,604.5C 410.71,603.206 409.71,602.039 408.5,601C 405.845,600.436 403.179,599.936 400.5,599.5C 382.261,601.543 364.261,600.21 346.5,595.5C 344.803,595.899 343.137,596.399 341.5,597C 340.748,597.671 340.414,598.504 340.5,599.5C 336.397,597.784 333.064,595.117 330.5,591.5C 332.322,589.84 334.489,588.84 337,588.5C 346.81,591.077 356.643,593.577 366.5,596C 381.235,598.052 395.902,597.552 410.5,594.5C 412.923,594.594 415.256,595.094 417.5,596C 418.823,596.816 419.489,597.983 419.5,599.5 Z"/></g>
<g><path style="opacity:0.959" fill="#7b7b7b" d="M 123.5,601.5 C 120.377,603.544 117.044,605.211 113.5,606.5C 113.426,604.589 112.426,603.422 110.5,603C 93.0203,603.152 75.6869,601.652 58.5,598.5C 56.4233,598.692 54.4233,599.192 52.5,600C 51.7476,600.671 51.4142,601.504 51.5,602.5C 47.7792,600.646 44.4459,598.313 41.5,595.5C 43.5076,593.073 46.1743,592.073 49.5,592.5C 58.8911,594.014 68.2244,595.848 77.5,598C 91.5053,598.213 105.505,598.213 119.5,598C 121.324,598.66 122.657,599.827 123.5,601.5 Z"/></g>
<g><path style="opacity:0.954" fill="#757575" d="M 411.5,604.5 C 408.296,605.901 404.963,606.901 401.5,607.5C 400.4,606.442 399.066,605.608 397.5,605C 383.956,604.292 370.456,603.125 357,601.5C 355.112,601.796 353.278,602.296 351.5,603C 350.748,603.671 350.414,604.504 350.5,605.5C 346.799,603.988 343.466,601.988 340.5,599.5C 340.414,598.504 340.748,597.671 341.5,597C 343.137,596.399 344.803,595.899 346.5,595.5C 364.261,600.21 382.261,601.543 400.5,599.5C 403.179,599.936 405.845,600.436 408.5,601C 409.71,602.039 410.71,603.206 411.5,604.5 Z"/></g>
<g><path style="opacity:0.943" fill="#6f6f6f" d="M 113.5,606.5 C 109.584,607.812 105.584,608.812 101.5,609.5C 100.653,608.034 99.3197,607.2 97.5,607C 88.6542,606.146 79.8208,605.312 71,604.5C 68.8649,605.127 66.6982,605.627 64.5,606C 63.944,606.383 63.6107,606.883 63.5,607.5C 59.3328,606.222 55.3328,604.556 51.5,602.5C 51.4142,601.504 51.7476,600.671 52.5,600C 54.4233,599.192 56.4233,598.692 58.5,598.5C 75.6869,601.652 93.0203,603.152 110.5,603C 112.426,603.422 113.426,604.589 113.5,606.5 Z"/></g>
<g><path style="opacity:0.905" fill="#666666" d="M 101.5,609.5 C 88.6666,611.289 76,610.622 63.5,607.5C 63.6107,606.883 63.944,606.383 64.5,606C 66.6982,605.627 68.8649,605.127 71,604.5C 79.8208,605.312 88.6542,606.146 97.5,607C 99.3197,607.2 100.653,608.034 101.5,609.5 Z"/></g>
<g><path style="opacity:0.903" fill="#686868" d="M 401.5,607.5 C 398.742,608.761 395.742,609.594 392.5,610C 378.083,611.745 364.083,610.245 350.5,605.5C 350.414,604.504 350.748,603.671 351.5,603C 353.278,602.296 355.112,601.796 357,601.5C 370.456,603.125 383.956,604.292 397.5,605C 399.066,605.608 400.4,606.442 401.5,607.5 Z"/></g>
</svg>
