<?xml version="1.0" encoding="UTF-8"?>
<!DOCTYPE svg PUBLIC "-//W3C//DTD SVG 1.1//EN" "http://www.w3.org/Graphics/SVG/1.1/DTD/svg11.dtd">
<svg xmlns="http://www.w3.org/2000/svg" version="1.1" width="612px" height="612px" style="shape-rendering:geometricPrecision; text-rendering:geometricPrecision; image-rendering:optimizeQuality; fill-rule:evenodd; clip-rule:evenodd" xmlns:xlink="http://www.w3.org/1999/xlink">
<g><path style="opacity:0.992" fill="#1c1c1c" d="M 168.5,6.5 C 168.367,15.76 172.7,21.5933 181.5,24C 220.564,27.9037 255.897,41.237 287.5,64C 295.52,70.1625 302.854,76.9959 309.5,84.5C 313.262,87.9289 316.262,91.9289 318.5,96.5C 329.992,115.16 338.492,135.16 344,156.5C 345.272,180.824 344.605,205.157 342,229.5C 339.377,237.412 335.711,244.745 331,251.5C 330.306,256.119 330.806,260.619 332.5,265C 332.43,265.765 332.097,266.265 331.5,266.5C 330.5,266.167 329.833,265.5 329.5,264.5C 329.938,264.565 330.272,264.399 330.5,264C 328.173,258.578 327.673,253.078 329,247.5C 334.745,242.013 338.412,235.346 340,227.5C 342.164,207.547 343.164,187.547 343,167.5C 335.825,115.694 309.658,76.8603 264.5,51C 237.273,36.7527 208.273,29.086 177.5,28C 170.864,27.237 165.031,24.737 160,20.5C 158.572,16.693 157.072,13.0264 155.5,9.5C 159.719,8.40236 164.052,7.40236 168.5,6.5 Z"/></g>
<g><path style="opacity:1" fill="#262626" d="M 168.5,6.5 C 179.167,6.5 189.833,6.5 200.5,6.5C 199.343,12.386 201.01,17.2193 205.5,21C 225.724,27.6115 245.391,35.6115 264.5,45C 280.883,54.7895 295.717,66.6228 309,80.5C 309.49,81.7932 309.657,83.1266 309.5,84.5C 302.854,76.9959 295.52,70.1625 287.5,64C 255.897,41.237 220.564,27.9037 181.5,24C 172.7,21.5933 168.367,15.76 168.5,6.5 Z"/></g>
<g><path style="opacity:0.985" fill="#333333" d="M 200.5,6.5 C 212.277,6.85173 223.944,8.18507 235.5,10.5C 232.499,19.3301 235.165,25.8301 243.5,30C 291.64,51.1418 325.14,86.3084 344,135.5C 347.434,144.902 349.767,154.568 351,164.5C 351.052,183.218 351.718,201.885 353,220.5C 353.725,222.949 354.725,225.283 356,227.5C 358.479,229.314 360.979,230.981 363.5,232.5C 362.696,235.579 361.696,238.579 360.5,241.5C 350.763,241.45 343.263,245.45 338,253.5C 337.333,256.833 337.333,260.167 338,263.5C 344.477,274.932 348.977,287.098 351.5,300C 353.201,308.059 352.534,315.892 349.5,323.5C 350.232,330.098 353.399,332.098 359,329.5C 360.06,324.198 361.06,318.865 362,313.5C 364.857,309.102 367.691,304.768 370.5,300.5C 370.5,302.167 370.5,303.833 370.5,305.5C 364.626,312.304 361.793,320.304 362,329.5C 360.309,333.213 357.475,334.379 353.5,333C 351,331.833 349.167,330 348,327.5C 352.325,305.453 348.659,284.787 337,265.5C 335.061,260.473 335.061,255.473 337,250.5C 339.63,246.868 342.63,243.535 346,240.5C 347.439,238.725 348.439,236.725 349,234.5C 348.184,217.003 348.351,199.503 349.5,182C 350.155,166.74 347.989,151.907 343,137.5C 338.197,125.894 332.863,114.561 327,103.5C 324.585,100.683 321.751,98.3492 318.5,96.5C 316.262,91.9289 313.262,87.9289 309.5,84.5C 309.657,83.1266 309.49,81.7932 309,80.5C 295.717,66.6228 280.883,54.7895 264.5,45C 245.391,35.6115 225.724,27.6115 205.5,21C 201.01,17.2193 199.343,12.386 200.5,6.5 Z"/></g>
<g><path style="opacity:0.986" fill="#151515" d="M 155.5,9.5 C 157.072,13.0264 158.572,16.693 160,20.5C 165.031,24.737 170.864,27.237 177.5,28C 208.273,29.086 237.273,36.7527 264.5,51C 309.658,76.8603 335.825,115.694 343,167.5C 343.164,187.547 342.164,207.547 340,227.5C 338.412,235.346 334.745,242.013 329,247.5C 327.673,253.078 328.173,258.578 330.5,264C 330.272,264.399 329.938,264.565 329.5,264.5C 321.435,258.923 312.435,255.923 302.5,255.5C 289.109,252.441 281.109,244.108 278.5,230.5C 281.906,228.891 285.573,227.724 289.5,227C 297.827,226.5 306.16,226.334 314.5,226.5C 314.833,227.833 315.167,227.833 315.5,226.5C 319.837,231.277 323.17,236.777 325.5,243C 332.795,240.675 336.962,235.509 338,227.5C 352.058,167.374 337.225,115.874 293.5,73C 267.441,51.1871 237.441,37.8538 203.5,33C 188.385,32.2536 173.385,30.5869 158.5,28C 150.952,25.088 146.619,19.588 145.5,11.5C 148.789,10.6261 152.123,9.95947 155.5,9.5 Z"/></g>
<g><path style="opacity:0.977" fill="#3f3f3f" d="M 235.5,10.5 C 249.018,14.59 262.351,19.2567 275.5,24.5C 270.484,32.8623 271.817,40.029 279.5,46C 290.119,51.6086 299.286,59.1086 307,68.5C 331.52,96.5396 347.854,128.873 356,165.5C 356.802,177.849 357.802,190.182 359,202.5C 361.242,206.919 364.742,209.586 369.5,210.5C 368.558,218.201 366.558,225.534 363.5,232.5C 360.979,230.981 358.479,229.314 356,227.5C 354.725,225.283 353.725,222.949 353,220.5C 351.718,201.885 351.052,183.218 351,164.5C 349.767,154.568 347.434,144.902 344,135.5C 325.14,86.3084 291.64,51.1418 243.5,30C 235.165,25.8301 232.499,19.3301 235.5,10.5 Z"/></g>
<g><path style="opacity:0.982" fill="#323232" d="M 435.5,15.5 C 442.933,15.3023 450.267,15.9689 457.5,17.5C 456.56,21.4631 456.393,25.4631 457,29.5C 459.5,32 462,34.5 464.5,37C 528.188,67.1702 564.355,117.337 573,187.5C 573.786,204.495 574.452,221.495 575,238.5C 576.316,243.648 579.483,246.982 584.5,248.5C 581.473,258.249 577.473,267.582 572.5,276.5C 565.799,273.618 562.466,268.451 562.5,261C 564.903,248.884 567.07,236.718 569,224.5C 571.464,198.365 569.131,172.698 562,147.5C 556.479,136.452 551.479,125.119 547,113.5C 532.28,88.1133 512.113,67.9467 486.5,53C 471.555,46.1939 456.888,38.8606 442.5,31C 437.305,27.1614 434.972,21.9948 435.5,15.5 Z"/></g>
<g><path style="opacity:0.992" fill="#1b1b1b" d="M 388.5,16.5 C 388.678,22.594 391.345,27.094 396.5,30C 410.055,32.6507 423.721,34.6507 437.5,36C 469.702,45.0086 497.869,60.8419 522,83.5C 568.158,138.105 578.824,199.105 554,266.5C 551.553,274.061 548.553,281.394 545,288.5C 543.532,295.88 546.032,301.546 552.5,305.5C 550.167,308.5 547.5,311.167 544.5,313.5C 542.539,311.037 540.372,308.703 538,306.5C 535.387,301.012 535.387,295.346 538,289.5C 571.983,233.822 574.316,176.822 545,118.5C 525.841,84.6844 498.008,60.851 461.5,47C 454.773,43.8689 447.773,41.5355 440.5,40C 423.854,38.4356 407.187,37.1023 390.5,36C 383.579,32.2333 379.579,26.3999 378.5,18.5C 381.906,18.0445 385.239,17.3778 388.5,16.5 Z"/></g>
<g><path style="opacity:0.991" fill="#0b0b0b" d="M 145.5,11.5 C 146.619,19.588 150.952,25.088 158.5,28C 173.385,30.5869 188.385,32.2536 203.5,33C 237.441,37.8538 267.441,51.1871 293.5,73C 337.225,115.874 352.058,167.374 338,227.5C 336.962,235.509 332.795,240.675 325.5,243C 323.17,236.777 319.837,231.277 315.5,226.5C 315.167,226.5 314.833,226.5 314.5,226.5C 309.503,222.666 304.17,219.333 298.5,216.5C 310.824,215.827 320.157,220.66 326.5,231C 328.112,231.72 329.612,231.554 331,230.5C 332.737,226.351 333.737,222.017 334,217.5C 336.279,197.555 336.946,177.555 336,157.5C 324.095,103.938 292.595,67.4385 241.5,48C 219.506,40.279 196.839,36.779 173.5,37.5C 161.4,37.5845 149.4,38.5845 137.5,40.5C 132.243,40.1213 128.076,37.7879 125,33.5C 122.822,29.8057 120.655,26.1391 118.5,22.5C 127.096,18.0418 136.096,14.3752 145.5,11.5 Z"/></g>
<g><path style="opacity:0.98" fill="#3b3b3b" d="M 457.5,17.5 C 461.227,18.348 464.893,19.348 468.5,20.5C 464.724,27.6141 466.057,33.4474 472.5,38C 522.697,64.2068 555.197,104.707 570,159.5C 574.395,180.269 577.062,201.269 578,222.5C 579.48,228.4 583.314,231.4 589.5,231.5C 588.296,237.319 586.629,242.985 584.5,248.5C 579.483,246.982 576.316,243.648 575,238.5C 574.452,221.495 573.786,204.495 573,187.5C 564.355,117.337 528.188,67.1702 464.5,37C 462,34.5 459.5,32 457,29.5C 456.393,25.4631 456.56,21.4631 457.5,17.5 Z"/></g>
<g><path style="opacity:0.991" fill="#111111" d="M 378.5,18.5 C 379.579,26.3999 383.579,32.2333 390.5,36C 407.187,37.1023 423.854,38.4356 440.5,40C 447.773,41.5355 454.773,43.8689 461.5,47C 498.008,60.851 525.841,84.6844 545,118.5C 574.316,176.822 571.983,233.822 538,289.5C 535.387,295.346 535.387,301.012 538,306.5C 540.372,308.703 542.539,311.037 544.5,313.5C 536.467,322.534 527.8,330.867 518.5,338.5C 512.888,332.612 510.055,325.612 510,317.5C 526.429,297.657 540.096,275.99 551,252.5C 570.435,195.11 561.768,142.444 525,94.5C 487.921,55.3907 442.421,38.224 388.5,43C 384.462,42.1007 380.795,40.434 377.5,38C 372.269,33.2597 366.936,28.7597 361.5,24.5C 366.801,21.7313 372.468,19.7313 378.5,18.5 Z"/></g>
<g><path style="opacity:0.977" fill="#414141" d="M 468.5,20.5 C 477.167,24.1667 485.833,27.8333 494.5,31.5C 492.44,38.137 493.607,44.137 498,49.5C 543.038,84.6085 569.705,130.608 578,187.5C 578.104,195.299 579.104,202.966 581,210.5C 583.777,214.476 587.61,216.809 592.5,217.5C 591.5,222.167 590.5,226.833 589.5,231.5C 583.314,231.4 579.48,228.4 578,222.5C 577.062,201.269 574.395,180.269 570,159.5C 555.197,104.707 522.697,64.2068 472.5,38C 466.057,33.4474 464.724,27.6141 468.5,20.5 Z"/></g>
<g><path style="opacity:0.994" fill="#000000" d="M 118.5,22.5 C 120.655,26.1391 122.822,29.8057 125,33.5C 128.076,37.7879 132.243,40.1213 137.5,40.5C 149.4,38.5845 161.4,37.5845 173.5,37.5C 196.839,36.779 219.506,40.279 241.5,48C 292.595,67.4385 324.095,103.938 336,157.5C 336.946,177.555 336.279,197.555 334,217.5C 333.737,222.017 332.737,226.351 331,230.5C 329.612,231.554 328.112,231.72 326.5,231C 320.157,220.66 310.824,215.827 298.5,216.5C 281.568,208.204 264.235,200.704 246.5,194C 165.996,178.403 95.9963,198.403 36.5,254C 34.7412,254.798 33.0745,254.631 31.5,253.5C 20.6564,231.281 15.6564,207.781 16.5,183C 16.4723,161.138 20.3057,139.971 28,119.5C 34.0612,106.377 40.3945,93.3775 47,80.5C 57.47,69.0292 68.3034,57.8625 79.5,47C 91.5453,37.3108 104.545,29.1442 118.5,22.5 Z"/></g>
<g><path style="opacity:0.982" fill="#474747" d="M 275.5,24.5 C 282.996,29.7489 290.663,34.7489 298.5,39.5C 296.814,45.478 297.648,51.1447 301,56.5C 312.773,70.9384 323.773,85.9384 334,101.5C 343.653,119.47 351.653,138.137 358,157.5C 359.829,161.828 362.162,165.828 365,169.5C 365.428,174.29 367.262,178.29 370.5,181.5C 370.532,191.183 370.199,200.849 369.5,210.5C 364.742,209.586 361.242,206.919 359,202.5C 357.802,190.182 356.802,177.849 356,165.5C 347.854,128.873 331.52,96.5396 307,68.5C 299.286,59.1086 290.119,51.6086 279.5,46C 271.817,40.029 270.484,32.8623 275.5,24.5 Z"/></g>
<g><path style="opacity:0.993" fill="#000000" d="M 361.5,24.5 C 366.936,28.7597 372.269,33.2597 377.5,38C 380.795,40.434 384.462,42.1007 388.5,43C 442.421,38.224 487.921,55.3907 525,94.5C 561.768,142.444 570.435,195.11 551,252.5C 540.096,275.99 526.429,297.657 510,317.5C 510.055,325.612 512.888,332.612 518.5,338.5C 479.383,363.445 436.717,373.278 390.5,368C 374.795,365.824 359.795,361.324 345.5,354.5C 334.14,363.677 321.14,368.677 306.5,369.5C 297.806,365.992 289.139,362.158 280.5,358C 274.123,356.773 269.29,358.939 266,364.5C 261.943,379.335 265.777,391.835 277.5,402C 318.896,430.519 364.896,445.352 415.5,446.5C 434.357,445.476 453.024,442.976 471.5,439C 480.584,436.901 487.751,432.067 493,424.5C 493.273,422.899 493.773,421.399 494.5,420C 493.069,415.874 491.736,411.707 490.5,407.5C 511.8,398.015 532.466,387.182 552.5,375C 558.864,369.825 565.197,364.658 571.5,359.5C 569.022,368.746 566.856,378.079 565,387.5C 565.347,402.824 565.847,418.157 566.5,433.5C 566.805,443.607 565.972,453.607 564,463.5C 559.552,475.729 554.552,487.729 549,499.5C 540.667,512.167 532.333,524.833 524,537.5C 520.808,544.238 519.808,551.238 521,558.5C 520.439,559.022 519.772,559.355 519,559.5C 514.35,556.526 509.516,556.026 504.5,558C 502.151,561.666 501.985,565.5 504,569.5C 505.786,572.736 507.286,576.07 508.5,579.5C 469.535,598.546 428.535,604.38 385.5,597C 346.793,587.235 314.293,567.401 288,537.5C 284.702,533.2 281.035,529.2 277,525.5C 271.333,514.167 265.667,502.833 260,491.5C 242.2,446.348 242.034,401.182 259.5,356C 256.048,351.545 252.214,347.378 248,343.5C 237.163,328.651 232.163,311.984 233,293.5C 232.148,294.571 231.315,295.571 230.5,296.5C 228.955,291.438 227.455,286.438 226,281.5C 226.5,279.667 227.667,278.5 229.5,278C 234.143,277.17 238.81,276.503 243.5,276C 248.336,274.008 250.669,270.341 250.5,265C 250.024,260.791 249.358,256.624 248.5,252.5C 256.395,242.226 266.395,234.893 278.5,230.5C 281.109,244.108 289.109,252.441 302.5,255.5C 272.902,259.608 259.402,276.608 262,306.5C 269.653,331.578 286.486,342.411 312.5,339C 322.869,336.443 331.203,330.943 337.5,322.5C 339.88,336.366 348.213,343.199 362.5,343C 366.112,342.111 368.612,339.945 370,336.5C 370.759,327.132 372.925,318.132 376.5,309.5C 407.859,256.684 417.359,200.017 405,139.5C 391.971,98.7395 370.804,63.0728 341.5,32.5C 347.93,29.2456 354.596,26.5789 361.5,24.5 Z"/></g>
<g><path style="opacity:0.984" fill="#474747" d="M 494.5,31.5 C 500.696,34.092 506.363,37.4253 511.5,41.5C 508.995,46.2583 509.495,50.9249 513,55.5C 539.857,83.5384 559.857,115.872 573,152.5C 575.176,161.538 577.51,170.538 580,179.5C 581.31,184.124 583.644,188.124 587,191.5C 587.426,195.99 589.259,199.656 592.5,202.5C 592.5,207.5 592.5,212.5 592.5,217.5C 587.61,216.809 583.777,214.476 581,210.5C 579.104,202.966 578.104,195.299 578,187.5C 569.705,130.608 543.038,84.6085 498,49.5C 493.607,44.137 492.44,38.137 494.5,31.5 Z"/></g>
<g><path style="opacity:0.939" fill="#515151" d="M 298.5,39.5 C 309.634,46.121 319.468,54.4543 328,64.5C 347.7,87.5626 361.367,113.896 369,143.5C 370.348,156.125 370.848,168.791 370.5,181.5C 367.262,178.29 365.428,174.29 365,169.5C 362.162,165.828 359.829,161.828 358,157.5C 351.653,138.137 343.653,119.47 334,101.5C 323.773,85.9384 312.773,70.9384 301,56.5C 297.648,51.1447 296.814,45.478 298.5,39.5 Z"/></g>
<g><path style="opacity:0.941" fill="#515151" d="M 511.5,41.5 C 525.292,50.1118 537.792,60.4451 549,72.5C 556.667,83.5 564.333,94.5 572,105.5C 582.435,126.704 589.101,149.038 592,172.5C 592.5,182.494 592.666,192.494 592.5,202.5C 589.259,199.656 587.426,195.99 587,191.5C 583.644,188.124 581.31,184.124 580,179.5C 577.51,170.538 575.176,161.538 573,152.5C 559.857,115.872 539.857,83.5384 513,55.5C 509.495,50.9249 508.995,46.2583 511.5,41.5 Z"/></g>
<g><path style="opacity:0.977" fill="#252525" d="M 435.5,15.5 C 434.972,21.9948 437.305,27.1614 442.5,31C 456.888,38.8606 471.555,46.1939 486.5,53C 512.113,67.9467 532.28,88.1133 547,113.5C 551.479,125.119 556.479,136.452 562,147.5C 569.131,172.698 571.464,198.365 569,224.5C 567.07,236.718 564.903,248.884 562.5,261C 562.466,268.451 565.799,273.618 572.5,276.5C 566.574,286.689 559.907,296.355 552.5,305.5C 546.032,301.546 543.532,295.88 545,288.5C 548.553,281.394 551.553,274.061 554,266.5C 578.824,199.105 568.158,138.105 522,83.5C 497.869,60.8419 469.702,45.0086 437.5,36C 423.721,34.6507 410.055,32.6507 396.5,30C 391.345,27.094 388.678,22.594 388.5,16.5C 404.151,15.6583 419.818,15.325 435.5,15.5 Z"/></g>
<g><path style="opacity:0.996" fill="#2b2b2b" d="M 318.5,96.5 C 321.751,98.3492 324.585,100.683 327,103.5C 332.863,114.561 338.197,125.894 343,137.5C 347.989,151.907 350.155,166.74 349.5,182C 348.351,199.503 348.184,217.003 349,234.5C 348.439,236.725 347.439,238.725 346,240.5C 342.63,243.535 339.63,246.868 337,250.5C 335.061,255.473 335.061,260.473 337,265.5C 348.659,284.787 352.325,305.453 348,327.5C 349.167,330 351,331.833 353.5,333C 357.475,334.379 360.309,333.213 362,329.5C 361.793,320.304 364.626,312.304 370.5,305.5C 370.397,310.681 369.397,315.681 367.5,320.5C 367.624,321.107 367.957,321.44 368.5,321.5C 368.062,326.67 366.895,331.67 365,336.5C 358.975,340.225 353.142,339.725 347.5,335C 345.383,333.269 343.883,331.102 343,328.5C 342.694,322.952 342.527,317.618 342.5,312.5C 348.201,294.803 344.534,279.469 331.5,266.5C 332.097,266.265 332.43,265.765 332.5,265C 330.806,260.619 330.306,256.119 331,251.5C 335.711,244.745 339.377,237.412 342,229.5C 344.605,205.157 345.272,180.824 344,156.5C 338.492,135.16 329.992,115.16 318.5,96.5 Z"/></g>
<g><path style="opacity:1" fill="#262626" d="M 302.5,228.5 C 310.815,227.979 315.815,231.813 317.5,240C 315.81,247.231 311.477,249.564 304.5,247C 298.496,244.354 295.996,239.854 297,233.5C 298.107,230.887 299.94,229.22 302.5,228.5 Z"/></g>
<g><path style="opacity:0.99" fill="#3d3d3d" d="M 360.5,241.5 C 359.167,244.833 357.833,248.167 356.5,251.5C 351.997,251.501 347.663,252.334 343.5,254C 341.571,257.256 341.071,260.756 342,264.5C 348.196,276.722 353.696,289.222 358.5,302C 359.833,302.667 361.167,302.667 362.5,302C 365.805,298.536 368.472,294.703 370.5,290.5C 370.5,293.833 370.5,297.167 370.5,300.5C 367.691,304.768 364.857,309.102 362,313.5C 361.06,318.865 360.06,324.198 359,329.5C 353.399,332.098 350.232,330.098 349.5,323.5C 352.534,315.892 353.201,308.059 351.5,300C 348.977,287.098 344.477,274.932 338,263.5C 337.333,260.167 337.333,256.833 338,253.5C 343.263,245.45 350.763,241.45 360.5,241.5 Z"/></g>
<g><path style="opacity:0.969" fill="#2f2f2f" d="M 180.5,245.5 C 202.324,244.568 223.324,247.901 243.5,255.5C 243.665,259.182 243.499,262.848 243,266.5C 242.167,267.333 241.333,268.167 240.5,269C 232.605,270.601 224.605,270.934 216.5,270C 208.252,267.416 199.919,265.083 191.5,263C 183.732,259.87 180.065,254.037 180.5,245.5 Z"/></g>
<g><path style="opacity:0.989" fill="#1c1c1c" d="M 180.5,245.5 C 180.065,254.037 183.732,259.87 191.5,263C 199.919,265.083 208.252,267.416 216.5,270C 224.605,270.934 232.605,270.601 240.5,269C 241.333,268.167 242.167,267.333 243,266.5C 243.499,262.848 243.665,259.182 243.5,255.5C 245.959,255.69 247.626,254.69 248.5,252.5C 249.358,256.624 250.024,260.791 250.5,265C 250.669,270.341 248.336,274.008 243.5,276C 238.81,276.503 234.143,277.17 229.5,278C 227.667,278.5 226.5,279.667 226,281.5C 227.455,286.438 228.955,291.438 230.5,296.5C 228.554,300.439 226.221,304.106 223.5,307.5C 225.666,300.826 224.333,294.993 219.5,290C 217.5,289.333 215.5,289.333 213.5,290C 201.319,302.858 191.486,317.358 184,333.5C 160.783,389.025 158.45,445.358 177,502.5C 180.063,510.956 183.896,518.956 188.5,526.5C 193.169,537.503 198.669,548.169 205,558.5C 210.628,565.457 217.461,570.957 225.5,575C 236.185,577.838 246.852,580.671 257.5,583.5C 256.22,584.931 254.553,585.598 252.5,585.5C 242.535,582.674 232.535,579.841 222.5,577C 216.248,574.131 211.081,569.964 207,564.5C 154.711,485.638 148.711,403.304 189,317.5C 196.597,305.305 204.93,293.638 214,282.5C 215.165,278.316 213.665,275.483 209.5,274C 194.131,269.66 178.464,266.993 162.5,266C 152.775,264.776 147.775,259.276 147.5,249.5C 158.374,247.266 169.374,245.932 180.5,245.5 Z"/></g>
<g><path style="opacity:0.994" fill="#111111" d="M 147.5,249.5 C 147.775,259.276 152.775,264.776 162.5,266C 178.464,266.993 194.131,269.66 209.5,274C 213.665,275.483 215.165,278.316 214,282.5C 204.93,293.638 196.597,305.305 189,317.5C 148.711,403.304 154.711,485.638 207,564.5C 211.081,569.964 216.248,574.131 222.5,577C 232.535,579.841 242.535,582.674 252.5,585.5C 251.07,586.537 249.403,587.204 247.5,587.5C 235.511,585.505 224.178,581.672 213.5,576C 203.821,566.146 195.987,554.979 190,542.5C 158.968,486.576 151.301,427.576 167,365.5C 173.643,336.889 185.643,310.889 203,287.5C 206.032,281.787 204.532,277.953 198.5,276C 180.741,273.318 162.908,272.818 145,274.5C 132.918,274.253 125.418,268.253 122.5,256.5C 130.7,253.7 139.033,251.367 147.5,249.5 Z"/></g>
<g><path style="opacity:0.974" fill="#4d4d4d" d="M 356.5,251.5 C 359.635,257.769 362.801,264.103 366,270.5C 368.714,276.904 370.214,283.571 370.5,290.5C 368.472,294.703 365.805,298.536 362.5,302C 361.167,302.667 359.833,302.667 358.5,302C 353.696,289.222 348.196,276.722 342,264.5C 341.071,260.756 341.571,257.256 343.5,254C 347.663,252.334 351.997,251.501 356.5,251.5 Z"/></g>
<g><path style="opacity:0.994" fill="#000000" d="M 122.5,256.5 C 125.418,268.253 132.918,274.253 145,274.5C 162.908,272.818 180.741,273.318 198.5,276C 204.532,277.953 206.032,281.787 203,287.5C 185.643,310.889 173.643,336.889 167,365.5C 151.301,427.576 158.968,486.576 190,542.5C 195.987,554.979 203.821,566.146 213.5,576C 224.178,581.672 235.511,585.505 247.5,587.5C 233.821,594.663 219.154,598.497 203.5,599C 186.5,599.667 169.5,599.667 152.5,599C 108.523,590.273 72.6893,568.44 45,533.5C 40.659,524.812 35.3256,516.812 29,509.5C -12.1472,417.935 5.68617,340.102 82.5,276C 95.7372,269.214 109.071,262.714 122.5,256.5 Z"/></g>
<g><path style="opacity:1" fill="#dfdfdf" d="M 302.5,255.5 C 312.435,255.923 321.435,258.923 329.5,264.5C 329.833,265.5 330.5,266.167 331.5,266.5C 344.534,279.469 348.201,294.803 342.5,312.5C 340.833,315.833 339.167,319.167 337.5,322.5C 331.203,330.943 322.869,336.443 312.5,339C 286.486,342.411 269.653,331.578 262,306.5C 259.402,276.608 272.902,259.608 302.5,255.5 Z"/></g>
<g><path style="opacity:1" fill="#181818" d="M 329.5,268.5 C 343.914,283.459 346.247,300.126 336.5,318.5C 339.47,308.062 339.637,297.729 337,287.5C 334.48,281.135 331.98,274.802 329.5,268.5 Z"/></g>
<g><path style="opacity:1" fill="#010101" d="M 329.5,268.5 C 331.98,274.802 334.48,281.135 337,287.5C 339.637,297.729 339.47,308.062 336.5,318.5C 326.525,333.448 312.525,339.615 294.5,337C 273.28,329.774 263.113,314.941 264,292.5C 270.151,267.67 285.985,256.503 311.5,259C 318.255,260.876 324.255,264.043 329.5,268.5 Z"/></g>
<g><path style="opacity:0.994" fill="#262626" d="M 223.5,307.5 C 221.084,312.001 218.417,316.334 215.5,320.5C 210.338,312.893 204.505,312.559 198,319.5C 181.581,345.423 171.914,373.756 169,404.5C 166.08,426.569 166.747,448.569 171,470.5C 172.685,479.908 174.685,489.241 177,498.5C 180.745,507.91 184.578,517.243 188.5,526.5C 183.896,518.956 180.063,510.956 177,502.5C 158.45,445.358 160.783,389.025 184,333.5C 191.486,317.358 201.319,302.858 213.5,290C 215.5,289.333 217.5,289.333 219.5,290C 224.333,294.993 225.666,300.826 223.5,307.5 Z"/></g>
<g><path style="opacity:0.974" fill="#1a1a1a" d="M 376.5,309.5 C 372.925,318.132 370.759,327.132 370,336.5C 368.612,339.945 366.112,342.111 362.5,343C 348.213,343.199 339.88,336.366 337.5,322.5C 339.167,319.167 340.833,315.833 342.5,312.5C 342.527,317.618 342.694,322.952 343,328.5C 343.883,331.102 345.383,333.269 347.5,335C 353.142,339.725 358.975,340.225 365,336.5C 366.895,331.67 368.062,326.67 368.5,321.5C 370.684,317.119 373.35,313.119 376.5,309.5 Z"/></g>
<g><path style="opacity:0.989" fill="#2d2d2d" d="M 215.5,320.5 C 214.439,323.622 213.105,326.622 211.5,329.5C 209.045,326.971 206.045,326.138 202.5,327C 198.421,329.075 194.921,331.908 192,335.5C 165.109,389.63 161.442,445.297 181,502.5C 188.749,519.662 196.749,536.662 205,553.5C 209.8,559.302 214.967,564.802 220.5,570C 232.225,574.431 244.225,577.931 256.5,580.5C 259.682,581.14 260.015,582.14 257.5,583.5C 246.852,580.671 236.185,577.838 225.5,575C 217.461,570.957 210.628,565.457 205,558.5C 198.669,548.169 193.169,537.503 188.5,526.5C 184.578,517.243 180.745,507.91 177,498.5C 174.685,489.241 172.685,479.908 171,470.5C 166.747,448.569 166.08,426.569 169,404.5C 171.914,373.756 181.581,345.423 198,319.5C 204.505,312.559 210.338,312.893 215.5,320.5 Z"/></g>
<g><path style="opacity:0.984" fill="#353535" d="M 211.5,329.5 C 208.609,335.283 206.275,341.283 204.5,347.5C 200.792,346.086 197.125,346.253 193.5,348C 188.447,353.391 184.614,359.557 182,366.5C 172.581,395.182 169.248,424.516 172,454.5C 173.092,468.484 175.759,482.151 180,495.5C 189.135,520.107 201.135,543.107 216,564.5C 219.081,567.293 222.581,569.46 226.5,571C 236.057,573.973 245.724,576.473 255.5,578.5C 256.338,578.842 256.672,579.508 256.5,580.5C 244.225,577.931 232.225,574.431 220.5,570C 214.967,564.802 209.8,559.302 205,553.5C 196.749,536.662 188.749,519.662 181,502.5C 161.442,445.297 165.109,389.63 192,335.5C 194.921,331.908 198.421,329.075 202.5,327C 206.045,326.138 209.045,326.971 211.5,329.5 Z"/></g>
<g><path style="opacity:0.968" fill="#323232" d="M 583.5,348.5 C 584.674,349.514 585.34,350.847 585.5,352.5C 583.655,363.215 581.489,373.882 579,384.5C 578.833,387.5 578.667,390.5 578.5,393.5C 580.625,416.456 582.125,439.456 583,462.5C 584.135,469.805 588.302,474.472 595.5,476.5C 590.344,487.992 585.011,499.325 579.5,510.5C 573.338,508.334 569.671,504 568.5,497.5C 570.711,490.075 573.211,482.742 576,475.5C 577.033,463.861 577.533,452.194 577.5,440.5C 576.968,421.82 576.468,403.154 576,384.5C 579.137,372.619 581.637,360.619 583.5,348.5 Z"/></g>
<g><path style="opacity:0.979" fill="#242424" d="M 583.5,348.5 C 581.637,360.619 579.137,372.619 576,384.5C 576.468,403.154 576.968,421.82 577.5,440.5C 577.533,452.194 577.033,463.861 576,475.5C 573.211,482.742 570.711,490.075 568.5,497.5C 569.671,504 573.338,508.334 579.5,510.5C 574.484,519.872 568.484,528.539 561.5,536.5C 559.873,534.37 558.04,532.37 556,530.5C 554.167,524.454 554.501,518.454 557,512.5C 560.877,499.537 565.543,486.87 571,474.5C 573.657,463.323 575.157,451.99 575.5,440.5C 574.766,425.155 573.766,409.821 572.5,394.5C 574.688,380.081 577.355,365.747 580.5,351.5C 581.272,350.306 582.272,349.306 583.5,348.5 Z"/></g>
<g><path style="opacity:0.988" fill="#171717" d="M 580.5,351.5 C 577.355,365.747 574.688,380.081 572.5,394.5C 573.766,409.821 574.766,425.155 575.5,440.5C 575.157,451.99 573.657,463.323 571,474.5C 565.543,486.87 560.877,499.537 557,512.5C 554.501,518.454 554.167,524.454 556,530.5C 558.04,532.37 559.873,534.37 561.5,536.5C 556.537,543.131 550.87,549.131 544.5,554.5C 539.217,549.267 536.717,542.934 537,535.5C 538.443,530.611 540.443,525.945 543,521.5C 554.088,503.654 562.754,484.654 569,464.5C 570.893,454.931 571.726,445.264 571.5,435.5C 570.359,418.51 569.859,401.51 570,384.5C 572.328,374.855 574.495,365.188 576.5,355.5C 577.5,353.833 578.833,352.5 580.5,351.5 Z"/></g>
<g><path style="opacity:0.979" fill="#3f3f3f" d="M 585.5,352.5 C 586.738,354.214 587.405,356.214 587.5,358.5C 585.032,369.373 583.366,380.373 582.5,391.5C 584.329,407.465 585.829,423.465 587,439.5C 587.093,448.428 591.593,453.428 600.5,454.5C 599.156,461.877 597.49,469.211 595.5,476.5C 588.302,474.472 584.135,469.805 583,462.5C 582.125,439.456 580.625,416.456 578.5,393.5C 578.667,390.5 578.833,387.5 579,384.5C 581.489,373.882 583.655,363.215 585.5,352.5 Z"/></g>
<g><path style="opacity:0.993" fill="#111111" d="M 306.5,369.5 C 302.833,369.5 299.167,369.5 295.5,369.5C 290.165,365.919 284.332,363.252 278,361.5C 270.896,363.346 267.396,368.013 267.5,375.5C 268.191,385.048 272.191,392.882 279.5,399C 323.028,428.947 371.362,442.947 424.5,441C 438.584,438.43 452.584,435.43 466.5,432C 475.598,428.084 477.931,421.584 473.5,412.5C 479.097,410.635 484.763,408.968 490.5,407.5C 491.736,411.707 493.069,415.874 494.5,420C 493.773,421.399 493.273,422.899 493,424.5C 487.751,432.067 480.584,436.901 471.5,439C 453.024,442.976 434.357,445.476 415.5,446.5C 364.896,445.352 318.896,430.519 277.5,402C 265.777,391.835 261.943,379.335 266,364.5C 269.29,358.939 274.123,356.773 280.5,358C 289.139,362.158 297.806,365.992 306.5,369.5 Z"/></g>
<g><path style="opacity:0.98" fill="#0a0a0a" d="M 576.5,355.5 C 574.495,365.188 572.328,374.855 570,384.5C 569.859,401.51 570.359,418.51 571.5,435.5C 571.726,445.264 570.893,454.931 569,464.5C 562.754,484.654 554.088,503.654 543,521.5C 540.443,525.945 538.443,530.611 537,535.5C 536.717,542.934 539.217,549.267 544.5,554.5C 541.358,557.469 538.025,560.302 534.5,563C 525.27,567.772 516.603,573.272 508.5,579.5C 507.286,576.07 505.786,572.736 504,569.5C 501.985,565.5 502.151,561.666 504.5,558C 509.516,556.026 514.35,556.526 519,559.5C 519.772,559.355 520.439,559.022 521,558.5C 519.808,551.238 520.808,544.238 524,537.5C 532.333,524.833 540.667,512.167 549,499.5C 554.552,487.729 559.552,475.729 564,463.5C 565.972,453.607 566.805,443.607 566.5,433.5C 565.847,418.157 565.347,402.824 565,387.5C 566.856,378.079 569.022,368.746 571.5,359.5C 572.945,357.937 574.611,356.604 576.5,355.5 Z"/></g>
<g><path style="opacity:0.987" fill="#1c1c1c" d="M 295.5,369.5 C 293.265,369.795 291.265,369.461 289.5,368.5C 284.127,364.144 278.294,363.477 272,366.5C 267.631,379.729 271.131,390.562 282.5,399C 324.201,426.784 370.201,439.784 420.5,438C 430.061,434.351 439.728,431.018 449.5,428C 450,427.5 450.5,427 451,426.5C 451.499,422.848 451.665,419.182 451.5,415.5C 458.833,414.5 466.167,413.5 473.5,412.5C 477.931,421.584 475.598,428.084 466.5,432C 452.584,435.43 438.584,438.43 424.5,441C 371.362,442.947 323.028,428.947 279.5,399C 272.191,392.882 268.191,385.048 267.5,375.5C 267.396,368.013 270.896,363.346 278,361.5C 284.332,363.252 290.165,365.919 295.5,369.5 Z"/></g>
<g><path style="opacity:0.969" fill="#4b4b4b" d="M 587.5,358.5 C 593.409,369.73 597.242,381.73 599,394.5C 600.366,414.472 600.866,434.472 600.5,454.5C 591.593,453.428 587.093,448.428 587,439.5C 585.829,423.465 584.329,407.465 582.5,391.5C 583.366,380.373 585.032,369.373 587.5,358.5 Z"/></g>
<g><path style="opacity:0.978" fill="#262626" d="M 289.5,368.5 C 288.209,368.263 287.209,368.596 286.5,369.5C 275.116,365.375 270.616,369.375 273,381.5C 274.922,387.43 278.422,392.263 283.5,396C 323.535,423.56 367.868,435.227 416.5,431C 419.521,427.105 420.854,422.605 420.5,417.5C 430.909,417.613 441.242,416.947 451.5,415.5C 451.665,419.182 451.499,422.848 451,426.5C 450.5,427 450,427.5 449.5,428C 439.728,431.018 430.061,434.351 420.5,438C 370.201,439.784 324.201,426.784 282.5,399C 271.131,390.562 267.631,379.729 272,366.5C 278.294,363.477 284.127,364.144 289.5,368.5 Z"/></g>
<g><path style="opacity:0.977" fill="#3f3f3f" d="M 204.5,347.5 C 198.457,364.676 194.457,382.343 192.5,400.5C 191.883,400.389 191.383,400.056 191,399.5C 187.922,402.252 184.589,404.586 181,406.5C 177.583,414.834 175.417,423.5 174.5,432.5C 175.34,447.892 176.84,463.225 179,478.5C 187.289,507.407 199.622,534.407 216,559.5C 218.592,562.762 221.759,565.262 225.5,567C 234.095,569.815 242.762,572.315 251.5,574.5C 253.167,575.5 254.5,576.833 255.5,578.5C 245.724,576.473 236.057,573.973 226.5,571C 222.581,569.46 219.081,567.293 216,564.5C 201.135,543.107 189.135,520.107 180,495.5C 175.759,482.151 173.092,468.484 172,454.5C 169.248,424.516 172.581,395.182 182,366.5C 184.614,359.557 188.447,353.391 193.5,348C 197.125,346.253 200.792,346.086 204.5,347.5 Z"/></g>
<g><path style="opacity:0.973" fill="#333333" d="M 286.5,369.5 C 290.382,371.934 294.048,374.601 297.5,377.5C 292.753,375.963 288.087,374.13 283.5,372C 278.617,370.87 275.95,372.87 275.5,378C 277.038,385.41 281.038,391.077 287.5,395C 308.994,409.403 332.66,418.237 358.5,421.5C 362.067,421.589 365.4,420.755 368.5,419C 370.556,416.386 372.223,413.553 373.5,410.5C 388.89,414.413 404.557,416.746 420.5,417.5C 420.854,422.605 419.521,427.105 416.5,431C 367.868,435.227 323.535,423.56 283.5,396C 278.422,392.263 274.922,387.43 273,381.5C 270.616,369.375 275.116,365.375 286.5,369.5 Z"/></g>
<g><path style="opacity:0.967" fill="#414141" d="M 297.5,377.5 C 305.265,382.083 312.932,386.916 320.5,392C 337.367,400.466 355.033,406.633 373.5,410.5C 372.223,413.553 370.556,416.386 368.5,419C 365.4,420.755 362.067,421.589 358.5,421.5C 332.66,418.237 308.994,409.403 287.5,395C 281.038,391.077 277.038,385.41 275.5,378C 275.95,372.87 278.617,370.87 283.5,372C 288.087,374.13 292.753,375.963 297.5,377.5 Z"/></g>
<g><path style="opacity:0.974" fill="#4c4c4c" d="M 192.5,400.5 C 190.528,412.378 190.028,424.378 191,436.5C 191.987,448.573 193.487,460.573 195.5,472.5C 192.9,473.919 190.4,475.585 188,477.5C 187.704,486.96 189.704,495.96 194,504.5C 199.394,516.289 205.061,527.956 211,539.5C 214.72,546.551 219.22,553.051 224.5,559C 230.741,562.581 237.408,565.081 244.5,566.5C 247.55,568.549 249.883,571.216 251.5,574.5C 242.762,572.315 234.095,569.815 225.5,567C 221.759,565.262 218.592,562.762 216,559.5C 199.622,534.407 187.289,507.407 179,478.5C 176.84,463.225 175.34,447.892 174.5,432.5C 175.417,423.5 177.583,414.834 181,406.5C 184.589,404.586 187.922,402.252 191,399.5C 191.383,400.056 191.883,400.389 192.5,400.5 Z"/></g>
<g><path style="opacity:0.944" fill="#535353" d="M 195.5,472.5 C 206.594,506.693 222.928,538.026 244.5,566.5C 237.408,565.081 230.741,562.581 224.5,559C 219.22,553.051 214.72,546.551 211,539.5C 205.061,527.956 199.394,516.289 194,504.5C 189.704,495.96 187.704,486.96 188,477.5C 190.4,475.585 192.9,473.919 195.5,472.5 Z"/></g>
</svg>
