<?xml version="1.0" encoding="UTF-8"?>
<!DOCTYPE svg PUBLIC "-//W3C//DTD SVG 1.1//EN" "http://www.w3.org/Graphics/SVG/1.1/DTD/svg11.dtd">
<svg xmlns="http://www.w3.org/2000/svg" version="1.1" width="612px" height="612px" style="shape-rendering:geometricPrecision; text-rendering:geometricPrecision; image-rendering:optimizeQuality; fill-rule:evenodd; clip-rule:evenodd" xmlns:xlink="http://www.w3.org/1999/xlink">
<g><path style="opacity:0.993" fill="#fefefe" d="M 367.5,219.5 C 361.369,216.186 354.869,213.853 348,212.5C 345.855,212.396 344.021,213.063 342.5,214.5C 335.49,222.054 334.824,230.221 340.5,239C 342.218,239.346 343.885,239.846 345.5,240.5C 350.832,239.127 356.165,238.793 361.5,239.5C 359.569,243.702 357.902,248.035 356.5,252.5C 370.874,273.35 374.541,296.017 367.5,320.5C 383.487,300.527 394.987,277.527 402,251.5C 408.781,226.545 411.281,201.211 409.5,175.5C 413.423,176.795 417.09,178.628 420.5,181C 423.738,182.368 427.072,182.701 430.5,182C 431.893,180.829 432.727,179.329 433,177.5C 434.789,150.142 430.456,123.809 420,98.5C 412.409,81.4828 403.909,64.9828 394.5,49C 379.114,44.4219 363.447,40.9219 347.5,38.5C 345.673,36.8678 343.839,35.2012 342,33.5C 341.312,32.6683 341.479,32.0016 342.5,31.5C 359.842,22.7743 378.176,17.6076 397.5,16C 414.5,15.3333 431.5,15.3333 448.5,16C 490.565,24.4357 525.398,44.9357 553,77.5C 558.838,87.1795 565.172,96.5128 572,105.5C 589.344,141.226 596.01,178.893 592,218.5C 591.354,224.08 590.188,229.414 588.5,234.5C 584.059,233.076 579.559,231.743 575,230.5C 570.677,230.818 567.343,232.818 565,236.5C 550.03,269.271 527.863,296.105 498.5,317C 480.353,327.493 461.019,334.826 440.5,339C 407.755,342.455 375.755,339.122 344.5,329C 340.262,328.692 336.262,328.525 332.5,328.5C 342.697,316.728 346.53,303.061 344,287.5C 336.018,264.534 319.851,254.034 295.5,256C 275.925,261.073 264.591,273.573 261.5,293.5C 260.683,295.969 260.183,298.635 260,301.5C 259.138,295.657 257.638,289.991 255.5,284.5C 252.798,282.653 249.798,281.487 246.5,281C 233.932,278.645 221.265,277.978 208.5,279C 207.584,279.374 206.75,279.874 206,280.5C 187.639,308.245 176.806,338.745 173.5,372C 173.637,374.898 174.137,377.731 175,380.5C 176.062,381.097 177.228,381.43 178.5,381.5C 184.557,379.131 190.557,376.798 196.5,374.5C 187.21,414.381 189.043,453.714 202,492.5C 209.077,507.654 216.41,522.654 224,537.5C 234.234,553.299 245.901,567.966 259,581.5C 259.528,582.816 259.028,583.483 257.5,583.5C 246.304,579.532 234.97,575.865 223.5,572.5C 222.391,571.71 221.058,571.21 219.5,571C 205.316,570.227 191.15,570.394 177,571.5C 164.727,571.705 152.894,569.538 141.5,565C 94.3146,546.814 61.4813,514.314 43,467.5C 39.1255,455.545 35.4589,443.545 32,431.5C 29.4406,428.651 26.2739,427.817 22.5,429C 17.9317,431.452 13.265,433.618 8.5,435.5C 4.86838,387.566 18.3684,345.233 49,308.5C 59.8625,297.303 71.0292,286.47 82.5,276C 95.3775,269.394 108.377,263.061 121.5,257C 162.518,242.252 203.685,241.752 245,255.5C 252.597,246.572 261.43,239.072 271.5,233C 285.204,227.165 299.537,224.832 314.5,226C 312.654,224.97 310.987,223.804 309.5,222.5C 313.849,222.585 318.182,222.918 322.5,223.5C 325.388,223.615 328.055,222.948 330.5,221.5C 330.987,220.554 331.32,219.554 331.5,218.5C 330.747,212.196 330.247,205.863 330,199.5C 307.195,184.682 282.695,173.515 256.5,166C 192.954,152.949 131.954,160.282 73.5,188C 64.9609,193.434 56.2942,198.601 47.5,203.5C 45.6171,203.124 44.1171,202.124 43,200.5C 42.0111,192.829 37.8444,189.996 30.5,192C 26.1401,194.18 21.8068,196.347 17.5,198.5C 14.7878,169.543 18.9545,141.543 30,114.5C 35.6667,103.167 41.3333,91.8333 47,80.5C 111.102,3.68617 188.935,-14.1472 280.5,27C 291.5,34.6667 302.5,42.3333 313.5,50C 357.434,91.0525 376.268,141.552 370,201.5C 369.626,207.585 368.792,213.585 367.5,219.5 Z"/></g>
<g><path style="opacity:0.99" fill="#f1f1f1" d="M 347.5,38.5 C 363.447,40.9219 379.114,44.4219 394.5,49C 403.909,64.9828 412.409,81.4828 420,98.5C 430.456,123.809 434.789,150.142 433,177.5C 432.727,179.329 431.893,180.829 430.5,182C 427.072,182.701 423.738,182.368 420.5,181C 417.09,178.628 413.423,176.795 409.5,175.5C 409.062,166.766 408.062,158.099 406.5,149.5C 411.941,149.605 416.441,147.605 420,143.5C 421.536,137.251 421.87,130.917 421,124.5C 413.203,97.2422 401.37,71.9089 385.5,48.5C 373.695,44.9767 361.695,42.3101 349.5,40.5C 348.5,40.1667 347.833,39.5 347.5,38.5 Z"/></g>
<g><path style="opacity:0.988" fill="#e1e1e1" d="M 349.5,40.5 C 361.695,42.3101 373.695,44.9767 385.5,48.5C 401.37,71.9089 413.203,97.2422 421,124.5C 421.87,130.917 421.536,137.251 420,143.5C 416.441,147.605 411.941,149.605 406.5,149.5C 406.016,145.768 405.349,142.101 404.5,138.5C 413.912,135.174 417.412,128.507 415,118.5C 407.701,95.2385 397.701,73.2385 385,52.5C 383.549,50.5359 381.716,49.2026 379.5,48.5C 376.904,47.7347 374.237,47.4013 371.5,47.5C 365.855,46.8658 360.189,46.5324 354.5,46.5C 352.11,45.1092 350.443,43.1092 349.5,40.5 Z"/></g>
<g><path style="opacity:0.956" fill="#bcbcbc" d="M 354.5,46.5 C 360.189,46.5324 365.855,46.8658 371.5,47.5C 375.509,49.4215 378.675,52.4215 381,56.5C 389.067,71.6307 394.567,87.6307 397.5,104.5C 397.659,107.701 396.659,110.368 394.5,112.5C 389.983,103.63 385.649,94.6297 381.5,85.5C 383.534,81.1236 384.034,76.4569 383,71.5C 381.448,65.5106 379.115,59.844 376,54.5C 370.542,50.4261 364.375,48.7594 357.5,49.5C 356.167,48.8333 355.167,47.8333 354.5,46.5 Z"/></g>
<g><path style="opacity:0.984" fill="#c8c8c8" d="M 371.5,47.5 C 374.237,47.4013 376.904,47.7347 379.5,48.5C 390.854,67.02 400.02,86.6867 407,107.5C 409.312,113.691 408.979,119.691 406,125.5C 404.729,126.883 403.229,127.883 401.5,128.5C 399.205,123.235 396.872,117.902 394.5,112.5C 396.659,110.368 397.659,107.701 397.5,104.5C 394.567,87.6307 389.067,71.6307 381,56.5C 378.675,52.4215 375.509,49.4215 371.5,47.5 Z"/></g>
<g><path style="opacity:0.933" fill="#acacac" d="M 357.5,49.5 C 364.375,48.7594 370.542,50.4261 376,54.5C 379.115,59.844 381.448,65.5106 383,71.5C 384.034,76.4569 383.534,81.1236 381.5,85.5C 373.999,73.1642 365.999,61.1642 357.5,49.5 Z"/></g>
<g><path style="opacity:0.983" fill="#d5d5d5" d="M 379.5,48.5 C 381.716,49.2026 383.549,50.5359 385,52.5C 397.701,73.2385 407.701,95.2385 415,118.5C 417.412,128.507 413.912,135.174 404.5,138.5C 403.101,135.301 402.101,131.968 401.5,128.5C 403.229,127.883 404.729,126.883 406,125.5C 408.979,119.691 409.312,113.691 407,107.5C 400.02,86.6867 390.854,67.02 379.5,48.5 Z"/></g>
<g><path style="opacity:0.998" fill="#f2f2f2" d="M 309.5,222.5 C 307.632,221.737 305.965,220.737 304.5,219.5C 307.85,219.665 311.183,219.498 314.5,219C 315.931,218.535 317.097,217.701 318,216.5C 318.667,210.5 318.667,204.5 318,198.5C 309.582,193.374 301.082,188.374 292.5,183.5C 287.287,180.727 281.954,178.227 276.5,176C 266.953,173.595 257.619,170.595 248.5,167C 175.379,153.489 108.712,168.155 48.5,211C 38.6145,211.957 28.9478,213.791 19.5,216.5C 18.046,210.631 17.3793,204.631 17.5,198.5C 21.8068,196.347 26.1401,194.18 30.5,192C 37.8444,189.996 42.0111,192.829 43,200.5C 44.1171,202.124 45.6171,203.124 47.5,203.5C 56.2942,198.601 64.9609,193.434 73.5,188C 131.954,160.282 192.954,152.949 256.5,166C 282.695,173.515 307.195,184.682 330,199.5C 330.247,205.863 330.747,212.196 331.5,218.5C 331.32,219.554 330.987,220.554 330.5,221.5C 328.055,222.948 325.388,223.615 322.5,223.5C 318.182,222.918 313.849,222.585 309.5,222.5 Z"/></g>
<g><path style="opacity:1" fill="#dedede" d="M 304.5,219.5 C 301.515,218.674 298.849,217.341 296.5,215.5C 306.304,214.043 309.804,208.377 307,198.5C 296.589,193.046 286.422,187.213 276.5,181C 273.479,180.151 270.479,179.317 267.5,178.5C 262.567,175.575 257.567,172.742 252.5,170C 194.526,156.903 139.526,164.236 87.5,192C 83.3631,193.787 79.0298,195.121 74.5,196C 67.8333,200.333 61.1667,204.667 54.5,209C 53.1279,210.242 52.1279,211.742 51.5,213.5C 40.6462,215.784 30.3129,219.451 20.5,224.5C 19.9084,221.873 19.5751,219.206 19.5,216.5C 28.9478,213.791 38.6145,211.957 48.5,211C 108.712,168.155 175.379,153.489 248.5,167C 257.619,170.595 266.953,173.595 276.5,176C 281.954,178.227 287.287,180.727 292.5,183.5C 301.082,188.374 309.582,193.374 318,198.5C 318.667,204.5 318.667,210.5 318,216.5C 317.097,217.701 315.931,218.535 314.5,219C 311.183,219.498 307.85,219.665 304.5,219.5 Z"/></g>
<g><path style="opacity:1" fill="#9c9c9c" d="M 274.5,186.5 C 276.677,186.586 278.677,187.253 280.5,188.5C 286.002,192.085 291.669,195.419 297.5,198.5C 299.621,205.817 296.955,210.15 289.5,211.5C 287.447,211.598 285.78,210.931 284.5,209.5C 291.426,207.83 293.426,203.997 290.5,198C 283.953,196.06 277.953,193.06 272.5,189C 263.888,186.796 255.555,183.796 247.5,180C 197.472,168.48 149.139,173.48 102.5,195C 85.7703,203.695 70.437,214.362 56.5,227C 49.7887,227.977 43.122,229.31 36.5,231C 32.1621,234.489 28.8287,238.656 26.5,243.5C 25.962,241.883 25.6287,240.216 25.5,238.5C 25.9867,237.527 26.4867,236.527 27,235.5C 30.7889,233.615 33.9556,230.949 36.5,227.5C 41.3164,225.845 46.3164,225.012 51.5,225C 57.444,221.389 63.1107,217.389 68.5,213C 79.3483,207.747 89.3483,201.247 98.5,193.5C 110.845,188.164 123.512,183.664 136.5,180C 149.029,177.961 161.529,175.794 174,173.5C 197.647,171.612 221.147,172.779 244.5,177C 254.493,180.283 264.493,183.449 274.5,186.5 Z"/></g>
<g><path style="opacity:0.969" fill="#8c8c8c" d="M 284.5,209.5 C 282.716,209.107 281.05,208.441 279.5,207.5C 282.077,206.365 284.077,204.531 285.5,202C 284.743,200.488 283.743,199.154 282.5,198C 251.148,181.662 217.814,174.995 182.5,178C 158.311,180.214 134.978,185.881 112.5,195C 101.619,199.234 92.4524,205.734 85,214.5C 84.5172,215.448 84.3505,216.448 84.5,217.5C 72.8534,224.996 61.5201,232.996 50.5,241.5C 46.7125,232.901 41.5458,232.234 35,239.5C 32.1591,243.29 31.4924,247.29 33,251.5C 33.8159,252.823 34.9826,253.489 36.5,253.5C 34.9652,254.788 33.2985,254.788 31.5,253.5C 29.8201,250.14 28.1534,246.807 26.5,243.5C 28.8287,238.656 32.1621,234.489 36.5,231C 43.122,229.31 49.7887,227.977 56.5,227C 70.437,214.362 85.7703,203.695 102.5,195C 149.139,173.48 197.472,168.48 247.5,180C 255.555,183.796 263.888,186.796 272.5,189C 277.953,193.06 283.953,196.06 290.5,198C 293.426,203.997 291.426,207.83 284.5,209.5 Z"/></g>
<g><path style="opacity:1" fill="#cfcfcf" d="M 267.5,178.5 C 258.039,175.426 248.539,172.426 239,169.5C 191.844,162.999 146.344,168.499 102.5,186C 92.8487,190.491 83.5153,195.491 74.5,201C 71.5285,205.156 67.5285,207.823 62.5,209C 59.3138,211.525 56.1471,214.025 53,216.5C 44.8937,218.969 37.0603,222.136 29.5,226C 27.0038,227.331 25.0038,229.164 23.5,231.5C 22.3228,229.321 21.3228,226.987 20.5,224.5C 30.3129,219.451 40.6462,215.784 51.5,213.5C 52.1279,211.742 53.1279,210.242 54.5,209C 61.1667,204.667 67.8333,200.333 74.5,196C 79.0298,195.121 83.3631,193.787 87.5,192C 139.526,164.236 194.526,156.903 252.5,170C 257.567,172.742 262.567,175.575 267.5,178.5 Z"/></g>
<g><path style="opacity:0.973" fill="#7b7b7b" d="M 279.5,207.5 C 277.426,206.486 275.426,205.486 273.5,204.5C 277.379,202.355 277.379,200.188 273.5,198C 249.644,185.994 224.311,180.161 197.5,180.5C 171.254,181.263 145.92,186.429 121.5,196C 117.002,197.898 113.336,200.731 110.5,204.5C 101.841,208.83 93.1743,213.163 84.5,217.5C 84.3505,216.448 84.5172,215.448 85,214.5C 92.4524,205.734 101.619,199.234 112.5,195C 134.978,185.881 158.311,180.214 182.5,178C 217.814,174.995 251.148,181.662 282.5,198C 283.743,199.154 284.743,200.488 285.5,202C 284.077,204.531 282.077,206.365 279.5,207.5 Z"/></g>
<g><path style="opacity:1" fill="#bababa" d="M 267.5,178.5 C 270.479,179.317 273.479,180.151 276.5,181C 286.422,187.213 296.589,193.046 307,198.5C 309.804,208.377 306.304,214.043 296.5,215.5C 293.669,214.921 291.336,213.588 289.5,211.5C 296.955,210.15 299.621,205.817 297.5,198.5C 291.669,195.419 286.002,192.085 280.5,188.5C 278.677,187.253 276.677,186.586 274.5,186.5C 257.713,177.634 239.713,172.801 220.5,172C 219.833,171 219.167,170 218.5,169C 199.112,168.076 179.778,168.742 160.5,171C 158.495,172.871 156.161,174.205 153.5,175C 135.045,177.707 117.378,183.04 100.5,191C 92.2508,195.624 83.9174,199.957 75.5,204C 67.9708,209.261 60.3041,214.261 52.5,219C 46.0856,220.981 39.7522,223.147 33.5,225.5C 29.7722,228.225 26.7722,231.559 24.5,235.5C 23.5655,234.432 23.2322,233.099 23.5,231.5C 25.0038,229.164 27.0038,227.331 29.5,226C 37.0603,222.136 44.8937,218.969 53,216.5C 56.1471,214.025 59.3138,211.525 62.5,209C 67.5285,207.823 71.5285,205.156 74.5,201C 83.5153,195.491 92.8487,190.491 102.5,186C 146.344,168.499 191.844,162.999 239,169.5C 248.539,172.426 258.039,175.426 267.5,178.5 Z"/></g>
<g><path style="opacity:0.963" fill="#6e6e6e" d="M 273.5,204.5 C 264.721,200.516 255.721,197.016 246.5,194C 216.937,187.741 187.27,187.075 157.5,192C 149.868,193.825 142.202,195.491 134.5,197C 126.574,199.809 118.574,202.309 110.5,204.5C 113.336,200.731 117.002,197.898 121.5,196C 145.92,186.429 171.254,181.263 197.5,180.5C 224.311,180.161 249.644,185.994 273.5,198C 277.379,200.188 277.379,202.355 273.5,204.5 Z"/></g>
<g><path style="opacity:1" fill="#a9a9a9" d="M 274.5,186.5 C 264.493,183.449 254.493,180.283 244.5,177C 221.147,172.779 197.647,171.612 174,173.5C 161.529,175.794 149.029,177.961 136.5,180C 123.512,183.664 110.845,188.164 98.5,193.5C 89.3483,201.247 79.3483,207.747 68.5,213C 63.1107,217.389 57.444,221.389 51.5,225C 46.3164,225.012 41.3164,225.845 36.5,227.5C 33.9556,230.949 30.7889,233.615 27,235.5C 26.4867,236.527 25.9867,237.527 25.5,238.5C 24.596,237.791 24.2627,236.791 24.5,235.5C 26.7722,231.559 29.7722,228.225 33.5,225.5C 39.7522,223.147 46.0856,220.981 52.5,219C 60.3041,214.261 67.9708,209.261 75.5,204C 83.9174,199.957 92.2508,195.624 100.5,191C 117.378,183.04 135.045,177.707 153.5,175C 156.161,174.205 158.495,172.871 160.5,171C 179.778,168.742 199.112,168.076 218.5,169C 219.167,170 219.833,171 220.5,172C 239.713,172.801 257.713,177.634 274.5,186.5 Z"/></g>
<g><path style="opacity:0.974" fill="#f2f2f2" d="M 367.5,219.5 C 366.105,226.35 364.105,233.017 361.5,239.5C 356.165,238.793 350.832,239.127 345.5,240.5C 343.885,239.846 342.218,239.346 340.5,239C 334.824,230.221 335.49,222.054 342.5,214.5C 344.021,213.063 345.855,212.396 348,212.5C 354.869,213.853 361.369,216.186 367.5,219.5 Z"/></g>
<g><path style="opacity:0.931" fill="#7b7b7b" d="M 50.5,241.5 C 46.1278,245.874 41.4611,249.874 36.5,253.5C 34.9826,253.489 33.8159,252.823 33,251.5C 31.4924,247.29 32.1591,243.29 35,239.5C 41.5458,232.234 46.7125,232.901 50.5,241.5 Z"/></g>
<g><path style="opacity:0.988" fill="#e9e9e9" d="M 588.5,234.5 C 587.274,241.174 585.274,247.507 582.5,253.5C 576.365,250.61 570.698,251.444 565.5,256C 556.592,264.671 548.759,274.171 542,284.5C 530.864,295.805 519.697,306.805 508.5,317.5C 473.725,337.761 436.059,346.261 395.5,343C 377.955,340.372 360.455,337.539 343,334.5C 340.167,334.667 337.333,334.833 334.5,335C 328.66,337.602 322.66,339.768 316.5,341.5C 314.283,341.122 312.283,340.455 310.5,339.5C 318.675,337.413 326.008,333.746 332.5,328.5C 336.262,328.525 340.262,328.692 344.5,329C 375.755,339.122 407.755,342.455 440.5,339C 461.019,334.826 480.353,327.493 498.5,317C 527.863,296.105 550.03,269.271 565,236.5C 567.343,232.818 570.677,230.818 575,230.5C 579.559,231.743 584.059,233.076 588.5,234.5 Z"/></g>
<g><path style="opacity:0.978" fill="#d8d8d8" d="M 582.5,253.5 C 580.751,259.414 578.418,265.08 575.5,270.5C 569.802,268.08 564.468,268.913 559.5,273C 545.36,287.813 530.693,301.813 515.5,315C 512.94,315.384 510.606,316.217 508.5,317.5C 519.697,306.805 530.864,295.805 542,284.5C 548.759,274.171 556.592,264.671 565.5,256C 570.698,251.444 576.365,250.61 582.5,253.5 Z"/></g>
<g><path style="opacity:0.992" fill="#f1f1f1" d="M 261.5,293.5 C 260.838,314.685 270.171,329.518 289.5,338C 292.168,338.567 294.834,339.067 297.5,339.5C 301.5,340.167 305.5,340.833 309.5,341.5C 300.591,341.805 291.758,342.805 283,344.5C 281.033,344.458 279.199,343.958 277.5,343C 274.818,337.972 272.318,332.805 270,327.5C 265.177,321.853 260.843,315.853 257,309.5C 255.249,301.147 252.582,293.147 249,285.5C 246.808,283.765 244.308,282.598 241.5,282C 231.737,279.348 222.403,280.348 213.5,285C 211.667,286.833 209.833,288.667 208,290.5C 199.838,303.828 194.171,318.162 191,333.5C 188.442,344.109 192.609,349.775 203.5,350.5C 200.353,358.273 198.02,366.273 196.5,374.5C 190.557,376.798 184.557,379.131 178.5,381.5C 177.228,381.43 176.062,381.097 175,380.5C 174.137,377.731 173.637,374.898 173.5,372C 176.806,338.745 187.639,308.245 206,280.5C 206.75,279.874 207.584,279.374 208.5,279C 221.265,277.978 233.932,278.645 246.5,281C 249.798,281.487 252.798,282.653 255.5,284.5C 257.638,289.991 259.138,295.657 260,301.5C 260.183,298.635 260.683,295.969 261.5,293.5 Z"/></g>
<g><path style="opacity:0.991" fill="#dbdbdb" d="M 259.5,354.5 C 258.5,354.167 257.833,353.5 257.5,352.5C 267.898,350.156 270.731,344.156 266,334.5C 262.766,327.931 258.099,322.598 252,318.5C 249.122,309.893 246.455,301.226 244,292.5C 235.396,282.731 225.896,281.898 215.5,290C 213.291,291.873 211.458,294.04 210,296.5C 205.417,305.46 203.75,314.793 205,324.5C 206.116,327.756 207.949,330.422 210.5,332.5C 208.833,335.833 207.167,339.167 205.5,342.5C 199.001,341.669 195.668,338.002 195.5,331.5C 197.15,317.529 201.65,304.529 209,292.5C 221.182,279.096 233.849,278.43 247,290.5C 249.425,296.621 251.092,302.954 252,309.5C 255.846,317.015 260.846,323.682 267,329.5C 271.048,336.265 272.548,343.432 271.5,351C 267.769,353.099 263.769,354.266 259.5,354.5 Z"/></g>
<g><path style="opacity:0.983" fill="#e6e6e6" d="M 309.5,341.5 C 310.873,341.343 312.207,341.51 313.5,342C 304.771,342.04 296.937,344.54 290,349.5C 288.466,353.711 288.133,358.044 289,362.5C 289.139,365.445 290.306,367.779 292.5,369.5C 290.309,368.709 288.309,368.709 286.5,369.5C 282.328,367.628 280.161,364.295 280,359.5C 279.5,358.333 278.667,357.5 277.5,357C 271.509,356.501 265.509,356.334 259.5,356.5C 259.5,355.833 259.5,355.167 259.5,354.5C 263.769,354.266 267.769,353.099 271.5,351C 272.548,343.432 271.048,336.265 267,329.5C 260.846,323.682 255.846,317.015 252,309.5C 251.092,302.954 249.425,296.621 247,290.5C 233.849,278.43 221.182,279.096 209,292.5C 201.65,304.529 197.15,317.529 195.5,331.5C 195.668,338.002 199.001,341.669 205.5,342.5C 205.037,345.221 204.371,347.888 203.5,350.5C 192.609,349.775 188.442,344.109 191,333.5C 194.171,318.162 199.838,303.828 208,290.5C 209.833,288.667 211.667,286.833 213.5,285C 222.403,280.348 231.737,279.348 241.5,282C 244.308,282.598 246.808,283.765 249,285.5C 252.582,293.147 255.249,301.147 257,309.5C 260.843,315.853 265.177,321.853 270,327.5C 272.318,332.805 274.818,337.972 277.5,343C 279.199,343.958 281.033,344.458 283,344.5C 291.758,342.805 300.591,341.805 309.5,341.5 Z"/></g>
<g><path style="opacity:0.966" fill="#c3c3c3" d="M 575.5,270.5 C 572.256,277.39 568.256,283.723 563.5,289.5C 561.598,288.489 559.598,288.322 557.5,289C 553.941,290.228 550.608,291.894 547.5,294C 534.398,304.785 521.065,315.119 507.5,325C 492.549,333.646 476.549,339.146 459.5,341.5C 467.872,338.767 476.372,336.1 485,333.5C 487.176,332.484 488.343,330.818 488.5,328.5C 494.126,327.192 499.459,325.025 504.5,322C 506.384,320.951 507.718,319.451 508.5,317.5C 510.606,316.217 512.94,315.384 515.5,315C 530.693,301.813 545.36,287.813 559.5,273C 564.468,268.913 569.802,268.08 575.5,270.5 Z"/></g>
<g><path style="opacity:1" fill="#1d1d1d" d="M 332.5,328.5 C 326.008,333.746 318.675,337.413 310.5,339.5C 306.167,339.5 301.833,339.5 297.5,339.5C 294.834,339.067 292.168,338.567 289.5,338C 270.171,329.518 260.838,314.685 261.5,293.5C 264.591,273.573 275.925,261.073 295.5,256C 319.851,254.034 336.018,264.534 344,287.5C 346.53,303.061 342.697,316.728 332.5,328.5 Z"/></g>
<g><path style="opacity:1" fill="#fdfdfd" d="M 293.5,258.5 C 325.674,256.513 341.84,271.513 342,303.5C 335.885,328.316 320.052,339.483 294.5,337C 272.169,329.511 262.003,314.011 264,290.5C 268.515,274.823 278.348,264.156 293.5,258.5 Z"/></g>
<g><path style="opacity:0.991" fill="#cdcdcd" d="M 257.5,352.5 C 256.167,351.833 255.167,350.833 254.5,349.5C 263.885,345.503 265.718,339.169 260,330.5C 255.215,327.288 250.882,323.621 247,319.5C 245.575,312.525 244.241,305.525 243,298.5C 238.546,288.574 231.38,285.741 221.5,290C 213.032,295.263 208.699,302.929 208.5,313C 209.019,317.782 210.353,322.282 212.5,326.5C 211.833,328.5 211.167,330.5 210.5,332.5C 207.949,330.422 206.116,327.756 205,324.5C 203.75,314.793 205.417,305.46 210,296.5C 211.458,294.04 213.291,291.873 215.5,290C 225.896,281.898 235.396,282.731 244,292.5C 246.455,301.226 249.122,309.893 252,318.5C 258.099,322.598 262.766,327.931 266,334.5C 270.731,344.156 267.898,350.156 257.5,352.5 Z"/></g>
<g><path style="opacity:0.987" fill="#c0c0c0" d="M 254.5,349.5 C 253.167,348.833 252.167,347.833 251.5,346.5C 256.812,344.204 258.646,340.204 257,334.5C 256.535,333.069 255.701,331.903 254.5,331C 250.581,329.46 247.081,327.293 244,324.5C 242.812,317.234 241.812,309.901 241,302.5C 238.973,293.09 233.473,289.59 224.5,292C 212.351,299.219 209.018,309.385 214.5,322.5C 214.34,324.153 213.674,325.486 212.5,326.5C 210.353,322.282 209.019,317.782 208.5,313C 208.699,302.929 213.032,295.263 221.5,290C 231.38,285.741 238.546,288.574 243,298.5C 244.241,305.525 245.575,312.525 247,319.5C 250.882,323.621 255.215,327.288 260,330.5C 265.718,339.169 263.885,345.503 254.5,349.5 Z"/></g>
<g><path style="opacity:0.911" fill="#b1b1b1" d="M 251.5,346.5 C 238.124,331.547 231.957,313.88 233,293.5C 232.617,294.056 232.117,294.389 231.5,294.5C 220.472,295.031 215.139,300.864 215.5,312C 215.504,314.361 215.837,316.527 216.5,318.5C 216.011,319.995 215.345,321.329 214.5,322.5C 209.018,309.385 212.351,299.219 224.5,292C 233.473,289.59 238.973,293.09 241,302.5C 241.812,309.901 242.812,317.234 244,324.5C 247.081,327.293 250.581,329.46 254.5,331C 255.701,331.903 256.535,333.069 257,334.5C 258.646,340.204 256.812,344.204 251.5,346.5 Z"/></g>
<g><path style="opacity:0.707" fill="#9f9f9f" d="M 231.5,294.5 C 226.997,302.844 221.997,310.844 216.5,318.5C 215.837,316.527 215.504,314.361 215.5,312C 215.139,300.864 220.472,295.031 231.5,294.5 Z"/></g>
<g><path style="opacity:0.973" fill="#9d9d9d" d="M 547.5,310.5 C 540.799,318.202 533.466,325.202 525.5,331.5C 525.389,330.883 525.056,330.383 524.5,330C 521.5,329.333 518.5,329.333 515.5,330C 499.844,335.663 484.178,341.33 468.5,347C 440.121,354.876 411.454,356.209 382.5,351C 380.256,350.95 378.589,350.117 377.5,348.5C 402.001,351.104 426.501,351.104 451,348.5C 459.355,345.782 467.855,343.615 476.5,342C 497.739,333.213 518.072,322.546 537.5,310C 539.423,309.192 541.423,308.692 543.5,308.5C 545.355,308.34 546.688,309.007 547.5,310.5 Z"/></g>
<g><path style="opacity:0.98" fill="#909090" d="M 525.5,331.5 C 522.789,335.212 519.456,338.212 515.5,340.5C 515.047,339.542 514.381,338.708 513.5,338C 510.5,337.333 507.5,337.333 504.5,338C 490.967,342.733 477.3,347.066 463.5,351C 432.827,358.311 402.16,358.311 371.5,351C 362.867,347.576 353.867,346.242 344.5,347C 335.183,349.493 326.183,352.826 317.5,357C 311.98,361.11 312.314,364.61 318.5,367.5C 317.432,368.434 316.099,368.768 314.5,368.5C 309.818,366.752 308.318,363.419 310,358.5C 311.543,356.622 313.376,355.122 315.5,354C 324.363,350.601 333.363,347.601 342.5,345C 351.211,344.638 359.878,345.138 368.5,346.5C 371.219,347.913 374.219,348.58 377.5,348.5C 378.589,350.117 380.256,350.95 382.5,351C 411.454,356.209 440.121,354.876 468.5,347C 484.178,341.33 499.844,335.663 515.5,330C 518.5,329.333 521.5,329.333 524.5,330C 525.056,330.383 525.389,330.883 525.5,331.5 Z"/></g>
<g><path style="opacity:1" fill="#cfcfcf" d="M 508.5,317.5 C 507.718,319.451 506.384,320.951 504.5,322C 499.459,325.025 494.126,327.192 488.5,328.5C 488.343,330.818 487.176,332.484 485,333.5C 476.372,336.1 467.872,338.767 459.5,341.5C 459.389,342.117 459.056,342.617 458.5,343C 423.508,350.072 388.841,348.405 354.5,338C 349.167,337.333 343.833,337.333 338.5,338C 325.017,342.456 311.351,346.456 297.5,350C 295.112,352.306 294.112,355.139 294.5,358.5C 294.183,362.977 295.516,366.644 298.5,369.5C 296.5,369.5 294.5,369.5 292.5,369.5C 290.306,367.779 289.139,365.445 289,362.5C 288.133,358.044 288.466,353.711 290,349.5C 296.937,344.54 304.771,342.04 313.5,342C 312.207,341.51 310.873,341.343 309.5,341.5C 305.5,340.833 301.5,340.167 297.5,339.5C 301.833,339.5 306.167,339.5 310.5,339.5C 312.283,340.455 314.283,341.122 316.5,341.5C 322.66,339.768 328.66,337.602 334.5,335C 337.333,334.833 340.167,334.667 343,334.5C 360.455,337.539 377.955,340.372 395.5,343C 436.059,346.261 473.725,337.761 508.5,317.5 Z"/></g>
<g><path style="opacity:0.981" fill="#7f7f7f" d="M 515.5,340.5 C 504.402,346.383 493.068,351.716 481.5,356.5C 479.422,355.899 477.255,355.566 475,355.5C 456.284,358.61 437.45,360.61 418.5,361.5C 408.453,361.218 398.453,360.385 388.5,359C 375.662,356.414 362.829,353.914 350,351.5C 341.802,351.35 335.302,354.516 330.5,361C 331.044,361.717 331.711,362.217 332.5,362.5C 328.305,365.254 323.638,366.921 318.5,367.5C 312.314,364.61 311.98,361.11 317.5,357C 326.183,352.826 335.183,349.493 344.5,347C 353.867,346.242 362.867,347.576 371.5,351C 402.16,358.311 432.827,358.311 463.5,351C 477.3,347.066 490.967,342.733 504.5,338C 507.5,337.333 510.5,337.333 513.5,338C 514.381,338.708 515.047,339.542 515.5,340.5 Z"/></g>
<g><path style="opacity:0.982" fill="#9f9f9f" d="M 368.5,346.5 C 359.878,345.138 351.211,344.638 342.5,345C 333.363,347.601 324.363,350.601 315.5,354C 313.376,355.122 311.543,356.622 310,358.5C 308.318,363.419 309.818,366.752 314.5,368.5C 311.038,369.482 307.371,369.815 303.5,369.5C 301.771,365.33 301.271,360.997 302,356.5C 303.251,353.619 305.417,351.786 308.5,351C 319.66,348.977 330.66,346.311 341.5,343C 350.31,341.971 358.977,342.637 367.5,345C 368.056,345.383 368.389,345.883 368.5,346.5 Z"/></g>
<g><path style="opacity:1" fill="#b1b1b1" d="M 563.5,289.5 C 560.182,295.455 556.349,301.122 552,306.5C 550.629,308.041 549.129,309.375 547.5,310.5C 546.688,309.007 545.355,308.34 543.5,308.5C 541.423,308.692 539.423,309.192 537.5,310C 518.072,322.546 497.739,333.213 476.5,342C 467.855,343.615 459.355,345.782 451,348.5C 426.501,351.104 402.001,351.104 377.5,348.5C 374.219,348.58 371.219,347.913 368.5,346.5C 368.389,345.883 368.056,345.383 367.5,345C 358.977,342.637 350.31,341.971 341.5,343C 330.66,346.311 319.66,348.977 308.5,351C 305.417,351.786 303.251,353.619 302,356.5C 301.271,360.997 301.771,365.33 303.5,369.5C 301.833,369.5 300.167,369.5 298.5,369.5C 295.516,366.644 294.183,362.977 294.5,358.5C 294.112,355.139 295.112,352.306 297.5,350C 311.351,346.456 325.017,342.456 338.5,338C 343.833,337.333 349.167,337.333 354.5,338C 388.841,348.405 423.508,350.072 458.5,343C 459.056,342.617 459.389,342.117 459.5,341.5C 476.549,339.146 492.549,333.646 507.5,325C 521.065,315.119 534.398,304.785 547.5,294C 550.608,291.894 553.941,290.228 557.5,289C 559.598,288.322 561.598,288.489 563.5,289.5 Z"/></g>
<g><path style="opacity:0.994" fill="#fefefe" d="M 598.5,464.5 C 592.284,461.483 585.784,459.149 579,457.5C 576.113,457.903 573.779,459.236 572,461.5C 547.385,522.786 502.552,558.953 437.5,570C 426.515,571.11 415.515,571.444 404.5,571C 360.133,559.962 324.3,536.128 297,499.5C 291.728,489.289 286.728,478.956 282,468.5C 278.151,456.096 274.151,443.763 270,431.5C 267.421,429.653 264.588,429.153 261.5,430C 256.43,432.076 251.43,434.243 246.5,436.5C 244.515,408.718 248.848,382.052 259.5,356.5C 265.509,356.334 271.509,356.501 277.5,357C 278.667,357.5 279.5,358.333 280,359.5C 280.161,364.295 282.328,367.628 286.5,369.5C 330.95,403.257 381.283,419.091 437.5,417C 456.739,416.016 475.406,412.349 493.5,406C 513.893,396.971 533.56,386.638 552.5,375C 563.3,366.699 573.633,357.866 583.5,348.5C 597.049,373.94 602.715,401.107 600.5,430C 600.715,441.588 600.049,453.088 598.5,464.5 Z"/></g>
<g><path style="opacity:0.88" fill="#696969" d="M 481.5,356.5 C 447.938,370.017 413.272,373.183 377.5,366C 366.36,363.454 355.694,359.62 345.5,354.5C 341.306,357.429 336.973,360.095 332.5,362.5C 331.711,362.217 331.044,361.717 330.5,361C 335.302,354.516 341.802,351.35 350,351.5C 362.829,353.914 375.662,356.414 388.5,359C 398.453,360.385 408.453,361.218 418.5,361.5C 437.45,360.61 456.284,358.61 475,355.5C 477.255,355.566 479.422,355.899 481.5,356.5 Z"/></g>
<g><path style="opacity:0.997" fill="#f2f2f2" d="M 598.5,464.5 C 597.5,468.5 596.5,472.5 595.5,476.5C 589.04,472.353 582.707,472.519 576.5,477C 564.363,495.809 550.697,513.476 535.5,530C 521.811,540.173 507.811,549.84 493.5,559C 464.185,570.455 433.852,575.122 402.5,573C 396.475,572.273 390.475,571.44 384.5,570.5C 384.5,569.5 384.5,568.5 384.5,567.5C 381.603,567.681 378.77,567.348 376,566.5C 365.709,561.272 355.209,556.439 344.5,552C 323.84,539.343 306.34,523.176 292,503.5C 284.374,488.616 276.374,473.949 268,459.5C 262.934,453.868 256.768,452.202 249.5,454.5C 248.5,448.5 247.5,442.5 246.5,436.5C 251.43,434.243 256.43,432.076 261.5,430C 264.588,429.153 267.421,429.653 270,431.5C 274.151,443.763 278.151,456.096 282,468.5C 286.728,478.956 291.728,489.289 297,499.5C 324.3,536.128 360.133,559.962 404.5,571C 415.515,571.444 426.515,571.11 437.5,570C 502.552,558.953 547.385,522.786 572,461.5C 573.779,459.236 576.113,457.903 579,457.5C 585.784,459.149 592.284,461.483 598.5,464.5 Z"/></g>
<g><path style="opacity:0.994" fill="#f1f1f1" d="M 223.5,572.5 C 198.491,572.568 173.491,572.068 148.5,571C 142.382,568.406 136.049,566.406 129.5,565C 121.381,559.607 112.714,555.274 103.5,552C 77.7493,535.918 57.9159,514.418 44,487.5C 39.8235,476.305 33.9902,466.138 26.5,457C 21.6294,453.679 16.6294,453.179 11.5,455.5C 9.85598,448.966 8.85598,442.299 8.5,435.5C 13.265,433.618 17.9317,431.452 22.5,429C 26.2739,427.817 29.4406,428.651 32,431.5C 35.4589,443.545 39.1255,455.545 43,467.5C 61.4813,514.314 94.3146,546.814 141.5,565C 152.894,569.538 164.727,571.705 177,571.5C 191.15,570.394 205.316,570.227 219.5,571C 221.058,571.21 222.391,571.71 223.5,572.5 Z"/></g>
<g><path style="opacity:0.989" fill="#e2e2e2" d="M 223.5,572.5 C 234.97,575.865 246.304,579.532 257.5,583.5C 257.158,584.338 256.492,584.672 255.5,584.5C 243.382,581.518 231.382,578.018 219.5,574C 199.505,574.28 179.505,574.28 159.5,574C 135.883,570.794 114.217,562.46 94.5,549C 89.2333,543.573 83.2333,539.073 76.5,535.5C 72.2095,530.708 67.7095,526.041 63,521.5C 51.2897,504.579 39.4564,487.746 27.5,471C 23.0618,467.27 18.3951,466.77 13.5,469.5C 12.704,464.853 12.0373,460.186 11.5,455.5C 16.6294,453.179 21.6294,453.679 26.5,457C 33.9902,466.138 39.8235,476.305 44,487.5C 57.9159,514.418 77.7493,535.918 103.5,552C 112.714,555.274 121.381,559.607 129.5,565C 136.049,566.406 142.382,568.406 148.5,571C 173.491,572.068 198.491,572.568 223.5,572.5 Z"/></g>
<g><path style="opacity:0.973" fill="#c9c9c9" d="M 18.5,481.5 C 20.1992,481.34 21.8659,481.506 23.5,482C 28.0441,483.882 32.0441,486.549 35.5,490C 43.7161,499.881 51.5494,510.048 59,520.5C 64.7029,526.035 70.2029,531.702 75.5,537.5C 72.0738,535.924 68.7405,534.091 65.5,532C 56.8333,522 48.1667,512 39.5,502C 35.2389,497.744 30.2389,496.244 24.5,497.5C 21.929,492.463 19.929,487.129 18.5,481.5 Z"/></g>
<g><path style="opacity:0.965" fill="#c4c4c4" d="M 339.5,556.5 C 330.248,550.921 321.248,544.921 312.5,538.5C 311.064,535.435 308.731,533.269 305.5,532C 296.707,521.869 286.707,513.202 275.5,506C 272.607,504.851 269.607,504.351 266.5,504.5C 262.059,496.952 258.726,488.952 256.5,480.5C 261.376,479.251 265.709,480.417 269.5,484C 284.839,504.992 301.839,524.325 320.5,542C 327.33,546.389 333.664,551.222 339.5,556.5 Z"/></g>
<g><path style="opacity:0.966" fill="#bcbcbc" d="M 75.5,537.5 C 76.0283,538.721 76.695,539.887 77.5,541C 82.2055,544.244 87.2055,546.744 92.5,548.5C 92.3505,549.552 92.5172,550.552 93,551.5C 107.65,561.979 123.817,568.979 141.5,572.5C 142.91,572.868 143.91,573.701 144.5,575C 148.795,575.912 153.128,576.579 157.5,577C 179.839,577.318 202.172,577.318 224.5,577C 233.899,579.729 243.233,582.562 252.5,585.5C 251.07,586.537 249.403,587.204 247.5,587.5C 245.9,586.356 244.233,585.189 242.5,584C 236.833,582.333 231.167,580.667 225.5,579C 209.999,578.607 194.499,578.774 179,579.5C 163.857,580.077 149.023,578.243 134.5,574C 128.756,571.081 122.756,568.914 116.5,567.5C 115.167,567.5 113.833,567.5 112.5,567.5C 101.488,560.995 90.4878,554.495 79.5,548C 75.9971,544.992 72.9971,541.492 70.5,537.5C 59.7052,529.205 49.7052,520.039 40.5,510C 36.7353,507.427 32.7353,506.927 28.5,508.5C 26.7709,504.979 25.4375,501.313 24.5,497.5C 30.2389,496.244 35.2389,497.744 39.5,502C 48.1667,512 56.8333,522 65.5,532C 68.7405,534.091 72.0738,535.924 75.5,537.5 Z"/></g>
<g><path style="opacity:0.965" fill="#c4c4c4" d="M 582.5,504.5 C 579.834,511.176 576.167,517.176 571.5,522.5C 566.47,520.864 561.803,521.697 557.5,525C 541.675,536.413 525.675,547.58 509.5,558.5C 502.61,561.445 495.61,564.111 488.5,566.5C 485.978,567.303 483.978,568.636 482.5,570.5C 474.9,572.415 467.234,574.248 459.5,576C 433.357,578.53 407.357,577.864 381.5,574C 380.045,572.374 378.378,571.208 376.5,570.5C 408.883,577.646 441.217,577.146 473.5,569C 485.15,564.676 496.483,559.676 507.5,554C 510.036,553.661 512.536,553.161 515,552.5C 519.929,548.621 525.096,545.121 530.5,542C 542.778,530.724 554.778,519.057 566.5,507C 570.52,503.319 575.187,501.986 580.5,503C 581.416,503.278 582.082,503.778 582.5,504.5 Z"/></g>
<g><path style="opacity:0.947" fill="#a6a6a6" d="M 112.5,567.5 C 107.612,567.455 103.612,565.622 100.5,562C 95.2395,560.034 90.2395,557.701 85.5,555C 77.4348,549.272 69.1015,543.939 60.5,539C 56.8433,537.353 53.1766,537.187 49.5,538.5C 42.5125,528.537 35.5125,518.537 28.5,508.5C 32.7353,506.927 36.7353,507.427 40.5,510C 49.7052,520.039 59.7052,529.205 70.5,537.5C 72.9971,541.492 75.9971,544.992 79.5,548C 90.4878,554.495 101.488,560.995 112.5,567.5 Z"/></g>
<g><path style="opacity:0.984" fill="#9a9a9a" d="M 552.5,546.5 C 549.437,550.566 545.771,553.899 541.5,556.5C 541.389,555.883 541.056,555.383 540.5,555C 537.833,554.333 535.167,554.333 532.5,555C 513.904,564.423 494.57,572.09 474.5,578C 445.046,585.383 415.38,586.383 385.5,581C 381.573,580.276 377.906,579.109 374.5,577.5C 416.412,587.702 457.412,584.869 497.5,569C 511.632,561.099 525.965,553.432 540.5,546C 544.644,543.862 548.644,544.029 552.5,546.5 Z"/></g>
<g><path style="opacity:1" fill="#d3d3d3" d="M 255.5,584.5 C 254.791,585.404 253.791,585.737 252.5,585.5C 243.233,582.562 233.899,579.729 224.5,577C 202.172,577.318 179.839,577.318 157.5,577C 153.128,576.579 148.795,575.912 144.5,575C 143.91,573.701 142.91,572.868 141.5,572.5C 123.817,568.979 107.65,561.979 93,551.5C 92.5172,550.552 92.3505,549.552 92.5,548.5C 87.2055,546.744 82.2055,544.244 77.5,541C 76.695,539.887 76.0283,538.721 75.5,537.5C 70.2029,531.702 64.7029,526.035 59,520.5C 51.5494,510.048 43.7161,499.881 35.5,490C 32.0441,486.549 28.0441,483.882 23.5,482C 21.8659,481.506 20.1992,481.34 18.5,481.5C 16.4612,477.734 14.7945,473.734 13.5,469.5C 18.3951,466.77 23.0618,467.27 27.5,471C 39.4564,487.746 51.2897,504.579 63,521.5C 67.7095,526.041 72.2095,530.708 76.5,535.5C 83.2333,539.073 89.2333,543.573 94.5,549C 114.217,562.46 135.883,570.794 159.5,574C 179.505,574.28 199.505,574.28 219.5,574C 231.382,578.018 243.382,581.518 255.5,584.5 Z"/></g>
<g><path style="opacity:0.981" fill="#909090" d="M 374.5,577.5 C 377.906,579.109 381.573,580.276 385.5,581C 415.38,586.383 445.046,585.383 474.5,578C 494.57,572.09 513.904,564.423 532.5,555C 535.167,554.333 537.833,554.333 540.5,555C 541.056,555.383 541.389,555.883 541.5,556.5C 537.366,561.293 532.366,564.96 526.5,567.5C 526.189,566.522 525.522,565.855 524.5,565.5C 503.092,572.581 481.425,578.747 459.5,584C 421.814,590.926 385.481,586.926 350.5,572C 338.888,566.861 327.554,561.194 316.5,555C 314,554.167 311.5,553.333 309,552.5C 307.541,552.808 306.374,553.475 305.5,554.5C 299.833,549.5 294.5,544.167 289.5,538.5C 291.288,537.378 293.288,537.211 295.5,538C 312.036,548.033 328.703,557.866 345.5,567.5C 355.495,570.098 365.162,573.432 374.5,577.5 Z"/></g>
<g><path style="opacity:0.965" fill="#808080" d="M 526.5,567.5 C 521.057,571.067 515.724,574.9 510.5,579C 504.589,581.791 498.589,584.291 492.5,586.5C 491.688,585.007 490.355,584.34 488.5,584.5C 460.804,590.67 432.804,592.837 404.5,591C 384.817,588.246 365.484,583.913 346.5,578C 345.333,577.833 344.167,577.667 343,577.5C 341.319,577.608 340.152,578.275 339.5,579.5C 327.418,572.131 316.084,563.798 305.5,554.5C 306.374,553.475 307.541,552.808 309,552.5C 311.5,553.333 314,554.167 316.5,555C 327.554,561.194 338.888,566.861 350.5,572C 385.481,586.926 421.814,590.926 459.5,584C 481.425,578.747 503.092,572.581 524.5,565.5C 525.522,565.855 526.189,566.522 526.5,567.5 Z"/></g>
<g><path style="opacity:0.972" fill="#828282" d="M 232.5,585.5 C 236.052,586.276 239.386,587.609 242.5,589.5C 240.064,590.871 237.397,591.871 234.5,592.5C 229.593,589.095 224.093,587.762 218,588.5C 197.171,590.628 176.337,590.795 155.5,589C 147.363,587.973 139.363,586.306 131.5,584C 117.443,578.715 103.276,573.882 89,569.5C 88.0053,570.066 87.172,570.733 86.5,571.5C 78.9074,566.903 71.9074,561.569 65.5,555.5C 68.2378,553.309 71.2378,553.142 74.5,555C 93.3315,564.831 112.665,573.497 132.5,581C 147.689,585.313 163.189,587.479 179,587.5C 196.809,586.155 214.643,585.489 232.5,585.5 Z"/></g>
<g><path style="opacity:1" fill="#dadada" d="M 595.5,476.5 C 591.132,485.898 586.799,495.231 582.5,504.5C 582.082,503.778 581.416,503.278 580.5,503C 575.187,501.986 570.52,503.319 566.5,507C 554.778,519.057 542.778,530.724 530.5,542C 525.096,545.121 519.929,548.621 515,552.5C 512.536,553.161 510.036,553.661 507.5,554C 496.483,559.676 485.15,564.676 473.5,569C 441.217,577.146 408.883,577.646 376.5,570.5C 369.104,568.641 361.771,566.474 354.5,564C 349.562,561.192 344.562,558.692 339.5,556.5C 333.664,551.222 327.33,546.389 320.5,542C 301.839,524.325 284.839,504.992 269.5,484C 265.709,480.417 261.376,479.251 256.5,480.5C 253.253,472.187 250.92,463.52 249.5,454.5C 256.768,452.202 262.934,453.868 268,459.5C 276.374,473.949 284.374,488.616 292,503.5C 306.34,523.176 323.84,539.343 344.5,552C 355.209,556.439 365.709,561.272 376,566.5C 378.77,567.348 381.603,567.681 384.5,567.5C 384.5,568.5 384.5,569.5 384.5,570.5C 390.475,571.44 396.475,572.273 402.5,573C 433.852,575.122 464.185,570.455 493.5,559C 507.811,549.84 521.811,540.173 535.5,530C 550.697,513.476 564.363,495.809 576.5,477C 582.707,472.519 589.04,472.353 595.5,476.5 Z"/></g>
<g><path style="opacity:0.96" fill="#757575" d="M 234.5,592.5 C 232.321,593.677 229.987,594.677 227.5,595.5C 226.942,594.21 225.942,593.377 224.5,593C 220.833,592.833 217.167,592.667 213.5,592.5C 180.921,595.613 148.755,593.279 117,585.5C 115.615,585.514 114.449,585.848 113.5,586.5C 103.691,582.766 94.6907,577.766 86.5,571.5C 87.172,570.733 88.0053,570.066 89,569.5C 103.276,573.882 117.443,578.715 131.5,584C 139.363,586.306 147.363,587.973 155.5,589C 176.337,590.795 197.171,590.628 218,588.5C 224.093,587.762 229.593,589.095 234.5,592.5 Z"/></g>
<g><path style="opacity:0.953" fill="#6e6e6e" d="M 492.5,586.5 C 461.94,598.48 430.273,602.646 397.5,599C 377.028,595.787 357.695,589.287 339.5,579.5C 340.152,578.275 341.319,577.608 343,577.5C 344.167,577.667 345.333,577.833 346.5,578C 365.484,583.913 384.817,588.246 404.5,591C 432.804,592.837 460.804,590.67 488.5,584.5C 490.355,584.34 491.688,585.007 492.5,586.5 Z"/></g>
<g><path style="opacity:1" fill="#b6b6b6" d="M 266.5,504.5 C 269.607,504.351 272.607,504.851 275.5,506C 286.707,513.202 296.707,521.869 305.5,532C 308.731,533.269 311.064,535.435 312.5,538.5C 321.248,544.921 330.248,550.921 339.5,556.5C 344.562,558.692 349.562,561.192 354.5,564C 361.771,566.474 369.104,568.641 376.5,570.5C 378.378,571.208 380.045,572.374 381.5,574C 407.357,577.864 433.357,578.53 459.5,576C 467.234,574.248 474.9,572.415 482.5,570.5C 481.077,571.449 479.577,572.449 478,573.5C 443.434,582.045 408.934,582.545 374.5,575C 345.581,564.886 320.247,549.22 298.5,528C 294.783,524.615 290.783,521.615 286.5,519C 282.357,516.53 278.024,516.03 273.5,517.5C 270.928,513.361 268.595,509.027 266.5,504.5 Z"/></g>
<g><path style="opacity:1" fill="#a5a5a5" d="M 482.5,570.5 C 483.978,568.636 485.978,567.303 488.5,566.5C 495.61,564.111 502.61,561.445 509.5,558.5C 525.675,547.58 541.675,536.413 557.5,525C 561.803,521.697 566.47,520.864 571.5,522.5C 570.191,525.778 568.358,528.778 566,531.5C 561.634,536.695 557.134,541.695 552.5,546.5C 548.644,544.029 544.644,543.862 540.5,546C 525.965,553.432 511.632,561.099 497.5,569C 457.412,584.869 416.412,587.702 374.5,577.5C 365.162,573.432 355.495,570.098 345.5,567.5C 328.703,557.866 312.036,548.033 295.5,538C 293.288,537.211 291.288,537.378 289.5,538.5C 285.564,534.062 281.398,529.729 277,525.5C 275.546,522.929 274.38,520.262 273.5,517.5C 278.024,516.03 282.357,516.53 286.5,519C 290.783,521.615 294.783,524.615 298.5,528C 320.247,549.22 345.581,564.886 374.5,575C 408.934,582.545 443.434,582.045 478,573.5C 479.577,572.449 481.077,571.449 482.5,570.5 Z"/></g>
<g><path style="opacity:1" fill="#929292" d="M 112.5,567.5 C 113.833,567.5 115.167,567.5 116.5,567.5C 135.243,580.062 156.076,585.396 179,583.5C 191.528,583.37 204.028,582.703 216.5,581.5C 220.555,581.575 224.555,582.075 228.5,583C 230.437,583.122 231.77,583.955 232.5,585.5C 214.643,585.489 196.809,586.155 179,587.5C 163.189,587.479 147.689,585.313 132.5,581C 112.665,573.497 93.3315,564.831 74.5,555C 71.2378,553.142 68.2378,553.309 65.5,555.5C 59.4623,550.463 54.1289,544.797 49.5,538.5C 53.1766,537.187 56.8433,537.353 60.5,539C 69.1015,543.939 77.4348,549.272 85.5,555C 90.2395,557.701 95.2395,560.034 100.5,562C 103.612,565.622 107.612,567.455 112.5,567.5 Z"/></g>
<g><path style="opacity:1" fill="#a7a7a7" d="M 116.5,567.5 C 122.756,568.914 128.756,571.081 134.5,574C 149.023,578.243 163.857,580.077 179,579.5C 194.499,578.774 209.999,578.607 225.5,579C 231.167,580.667 236.833,582.333 242.5,584C 244.233,585.189 245.9,586.356 247.5,587.5C 246.07,588.537 244.403,589.204 242.5,589.5C 239.386,587.609 236.052,586.276 232.5,585.5C 231.77,583.955 230.437,583.122 228.5,583C 224.555,582.075 220.555,581.575 216.5,581.5C 204.028,582.703 191.528,583.37 179,583.5C 156.076,585.396 135.243,580.062 116.5,567.5 Z"/></g>
<g><path style="opacity:0.91" fill="#686868" d="M 113.5,586.5 C 114.449,585.848 115.615,585.514 117,585.5C 148.755,593.279 180.921,595.613 213.5,592.5C 217.167,592.667 220.833,592.833 224.5,593C 225.942,593.377 226.942,594.21 227.5,595.5C 219.598,597.205 211.598,598.372 203.5,599C 186.5,599.667 169.5,599.667 152.5,599C 138.666,597.333 125.666,593.166 113.5,586.5 Z"/></g>
</svg>
