<?xml version="1.0" encoding="UTF-8"?>
<!DOCTYPE svg PUBLIC "-//W3C//DTD SVG 1.1//EN" "http://www.w3.org/Graphics/SVG/1.1/DTD/svg11.dtd">
<svg xmlns="http://www.w3.org/2000/svg" version="1.1" width="612px" height="612px" style="shape-rendering:geometricPrecision; text-rendering:geometricPrecision; image-rendering:optimizeQuality; fill-rule:evenodd; clip-rule:evenodd" xmlns:xlink="http://www.w3.org/1999/xlink">
<g><path style="opacity:0.996" fill="#17dfb7" d="M 549.5,249.5 C 545.895,248.037 542.229,246.537 538.5,245C 533.014,242.33 528.514,243.497 525,248.5C 522.746,252.007 520.746,255.673 519,259.5C 518.88,254.353 519.714,249.353 521.5,244.5C 521.5,243.167 521.5,241.833 521.5,240.5C 521.5,240.167 521.5,239.833 521.5,239.5C 523.117,237.879 524.284,235.879 525,233.5C 525.667,218.833 525.667,204.167 525,189.5C 524.826,184.649 524.326,179.982 523.5,175.5C 522.662,175.158 522.328,174.492 522.5,173.5C 521.828,169.812 520.995,166.145 520,162.5C 519.28,160.944 518.113,159.944 516.5,159.5C 516.5,158.833 516.5,158.167 516.5,157.5C 516.121,151.897 514.788,146.564 512.5,141.5C 511.5,141.5 510.5,141.5 509.5,141.5C 508.666,138.319 507.666,135.152 506.5,132C 505.59,130.251 504.257,129.084 502.5,128.5C 502.167,127.5 501.5,126.833 500.5,126.5C 500.262,124.596 499.262,123.262 497.5,122.5C 496.581,119.911 494.914,117.911 492.5,116.5C 491.92,114.251 490.587,112.585 488.5,111.5C 487.585,109.246 486.252,107.246 484.5,105.5C 481.833,100.833 478.167,97.1667 473.5,94.5C 471.431,91.4275 468.764,89.0941 465.5,87.5C 464.089,85.086 462.089,83.4194 459.5,82.5C 459.027,81.0937 458.027,80.427 456.5,80.5C 456.027,79.0937 455.027,78.427 453.5,78.5C 452.833,78.5 452.167,78.5 451.5,78.5C 451.167,77.5 450.5,76.8333 449.5,76.5C 448.826,74.9755 447.826,73.6422 446.5,72.5C 442.601,70.7213 438.935,68.7213 435.5,66.5C 433.955,65.5481 432.288,65.2148 430.5,65.5C 428.315,65.2964 426.315,64.6298 424.5,63.5C 420.743,61.5952 417.076,59.4285 413.5,57C 410.518,56.502 407.518,56.3354 404.5,56.5C 404.167,56.5 403.833,56.5 403.5,56.5C 400.038,55.5184 396.371,55.185 392.5,55.5C 393.022,60.3578 395.689,63.3578 400.5,64.5C 401.5,64.8333 402.167,65.5 402.5,66.5C 404.094,69.7642 406.427,72.4309 409.5,74.5C 410.5,74.8333 411.167,75.5 411.5,76.5C 412.757,79.4274 414.757,81.7607 417.5,83.5C 417.738,85.4044 418.738,86.7377 420.5,87.5C 420.5,88.1667 420.5,88.8333 420.5,89.5C 421.226,92.2878 422.893,94.2878 425.5,95.5C 425.427,97.0269 426.094,98.0269 427.5,98.5C 427.5,99.1667 427.5,99.8333 427.5,100.5C 427.338,102.527 427.505,104.527 428,106.5C 430.048,108.709 431.881,111.042 433.5,113.5C 434.167,113.833 434.833,114.167 435.5,114.5C 435.5,114.833 435.5,115.167 435.5,115.5C 435.833,118.167 436.167,120.833 436.5,123.5C 438.19,136.088 438.856,148.755 438.5,161.5C 438.5,162.833 438.5,164.167 438.5,165.5C 437.85,167.435 437.517,169.435 437.5,171.5C 436.343,174.273 435.676,177.273 435.5,180.5C 435.167,181.167 434.833,181.833 434.5,182.5C 432.755,184.033 431.755,186.033 431.5,188.5C 430.833,190.5 430.167,192.5 429.5,194.5C 428.094,194.973 427.427,195.973 427.5,197.5C 427.672,198.492 427.338,199.158 426.5,199.5C 424.782,201.223 423.449,203.223 422.5,205.5C 421.094,205.973 420.427,206.973 420.5,208.5C 418.5,209.833 416.833,211.5 415.5,213.5C 413.856,213.286 412.356,213.62 411,214.5C 411.728,172.234 391.228,148.067 349.5,142C 341.529,141.002 333.529,140.335 325.5,140C 292.5,139.333 259.5,139.333 226.5,140C 221.749,140.189 217.083,140.855 212.5,142C 208.317,144.173 206.151,147.673 206,152.5C 200.805,173.105 208.638,184.439 229.5,186.5C 229.5,204.167 229.5,221.833 229.5,239.5C 229.5,240.167 229.5,240.833 229.5,241.5C 197.5,242.422 165.5,243.589 133.5,245C 131.5,245.333 129.5,245.667 127.5,246C 126.944,246.383 126.611,246.883 126.5,247.5C 126.5,247.833 126.5,248.167 126.5,248.5C 123.848,248.41 121.515,249.076 119.5,250.5C 118.5,250.5 117.5,250.5 116.5,250.5C 114.801,250.34 113.134,250.506 111.5,251C 107.588,253.432 103.588,255.598 99.5,257.5C 99.5,258.5 99.5,259.5 99.5,260.5C 97.1667,263.5 94.5,266.167 91.5,268.5C 88.3579,268.799 86.1912,270.466 85,273.5C 84.6667,226.833 84.3333,180.167 84,133.5C 82.8403,131.203 81.8403,131.536 81,134.5C 80.831,232.874 80.331,331.207 79.5,429.5C 80.0396,438.923 76.373,446.423 68.5,452C 65.9679,453.765 63.3013,455.265 60.5,456.5C 60.3333,338.166 60.5,219.833 61,101.5C 66.3514,72.4808 82.5181,51.9808 109.5,40C 116.571,37.0654 123.904,35.0654 131.5,34C 204.167,33.3333 276.833,33.3333 349.5,34C 385.441,35.4546 420.108,42.7879 453.5,56C 526.433,89.3368 559.6,146.17 553,226.5C 552.263,234.252 551.097,241.919 549.5,249.5 Z M 229.5,168.5 C 230.5,168.5 231.5,168.5 232.5,168.5C 233.5,168.5 234.5,168.5 235.5,168.5C 236.167,168.5 236.833,168.5 237.5,168.5C 238.5,168.5 239.5,168.5 240.5,168.5C 241.5,168.5 242.5,168.5 243.5,168.5C 244.833,168.5 246.167,168.5 247.5,168.5C 249.5,168.5 251.5,168.5 253.5,168.5C 280.208,168.071 306.874,168.738 333.5,170.5C 338.642,171.368 343.642,172.702 348.5,174.5C 350.833,175.167 353.167,175.833 355.5,176.5C 356.965,177.737 358.632,178.737 360.5,179.5C 361.965,180.737 363.632,181.737 365.5,182.5C 366.579,184.543 368.246,185.876 370.5,186.5C 371.026,188.23 372.026,189.564 373.5,190.5C 374.167,191.5 374.833,192.5 375.5,193.5C 376.167,194.5 376.833,195.5 377.5,196.5C 377.932,197.71 378.599,198.71 379.5,199.5C 379.557,200.609 379.89,201.609 380.5,202.5C 380.796,204.403 381.463,206.07 382.5,207.5C 382.5,207.833 382.5,208.167 382.5,208.5C 382.5,209.5 382.5,210.5 382.5,211.5C 383.11,212.391 383.443,213.391 383.5,214.5C 383.666,219.844 383.499,225.177 383,230.5C 380.032,232.511 376.866,233.844 373.5,234.5C 367.776,234.924 362.11,235.757 356.5,237C 314.152,237.327 271.818,238.16 229.5,239.5C 229.5,221.833 229.5,204.167 229.5,186.5C 229.5,186.167 229.5,185.833 229.5,185.5C 229.5,184.5 229.5,183.5 229.5,182.5C 229.5,181.833 229.5,181.167 229.5,180.5C 229.5,180.167 229.5,179.833 229.5,179.5C 229.5,178.833 229.5,178.167 229.5,177.5C 229.5,176.167 229.5,174.833 229.5,173.5C 229.5,172.167 229.5,170.833 229.5,169.5C 229.5,169.167 229.5,168.833 229.5,168.5 Z"/></g>
<g><path style="opacity:1" fill="#39dec2" d="M 403.5,56.5 C 401.167,56.5 398.833,56.5 396.5,56.5C 396.12,58.698 396.787,60.3646 398.5,61.5C 399.167,62.5 399.833,63.5 400.5,64.5C 395.689,63.3578 393.022,60.3578 392.5,55.5C 396.371,55.185 400.038,55.5184 403.5,56.5 Z"/></g>
<g><path style="opacity:1" fill="#46ddc5" d="M 404.5,56.5 C 407.518,56.3354 410.518,56.502 413.5,57C 417.076,59.4285 420.743,61.5952 424.5,63.5C 423.833,63.5 423.167,63.5 422.5,63.5C 420.02,62.758 417.687,61.758 415.5,60.5C 413.621,59.6586 411.621,59.3253 409.5,59.5C 409.5,58.8333 409.167,58.5 408.5,58.5C 407.167,57.8333 405.833,57.1667 404.5,56.5 Z"/></g>
<g><path style="opacity:1" fill="#99d9e3" d="M 403.5,56.5 C 403.833,56.5 404.167,56.5 404.5,56.5C 405.833,57.1667 407.167,57.8333 408.5,58.5C 405.167,58.5 401.833,58.5 398.5,58.5C 398.5,59.5 398.5,60.5 398.5,61.5C 396.787,60.3646 396.12,58.698 396.5,56.5C 398.833,56.5 401.167,56.5 403.5,56.5 Z"/></g>
<g><path style="opacity:1" fill="#b8d7ef" d="M 408.5,58.5 C 409.167,58.5 409.5,58.8333 409.5,59.5C 406.833,59.5 404.167,59.5 401.5,59.5C 401.957,62.4056 402.957,65.0722 404.5,67.5C 403.833,67.1667 403.167,66.8333 402.5,66.5C 402.167,65.5 401.5,64.8333 400.5,64.5C 399.833,63.5 399.167,62.5 398.5,61.5C 398.5,60.5 398.5,59.5 398.5,58.5C 401.833,58.5 405.167,58.5 408.5,58.5 Z"/></g>
<g><path style="opacity:1" fill="#cbd5f5" d="M 409.5,59.5 C 411.621,59.3253 413.621,59.6586 415.5,60.5C 417.052,63.1119 419.386,64.4452 422.5,64.5C 425.004,65.6392 427.67,66.3059 430.5,66.5C 432.849,68.341 435.515,69.6743 438.5,70.5C 438.973,71.9063 439.973,72.573 441.5,72.5C 443.635,74.0709 445.968,75.4043 448.5,76.5C 448.973,77.9063 449.973,78.573 451.5,78.5C 452.167,78.5 452.833,78.5 453.5,78.5C 453.973,79.9063 454.973,80.573 456.5,80.5C 456.973,81.9063 457.973,82.573 459.5,82.5C 460.911,84.914 462.911,86.5806 465.5,87.5C 467.569,90.5725 470.236,92.9059 473.5,94.5C 476.833,98.1667 480.167,101.833 483.5,105.5C 484.419,108.089 486.086,110.089 488.5,111.5C 489.08,113.749 490.413,115.415 492.5,116.5C 493.419,119.089 495.086,121.089 497.5,122.5C 497.755,124.967 498.755,126.967 500.5,128.5C 501.11,130.434 502.11,132.101 503.5,133.5C 505.748,136.328 507.748,139.328 509.5,142.5C 509.307,145.811 510.307,148.478 512.5,150.5C 512.182,153.481 513.182,155.815 515.5,157.5C 515.833,157.5 516.167,157.5 516.5,157.5C 516.5,158.167 516.5,158.833 516.5,159.5C 516.5,160.167 516.5,160.833 516.5,161.5C 516.343,162.873 516.51,164.207 517,165.5C 518.082,167.618 519.249,169.618 520.5,171.5C 521.508,175.596 522.508,179.596 523.5,183.5C 523.5,185.833 523.5,188.167 523.5,190.5C 523.655,203.185 523.322,215.851 522.5,228.5C 520.625,233.206 519.625,238.206 519.5,243.5C 518.833,245.833 518.167,248.167 517.5,250.5C 516.503,250.47 515.836,250.97 515.5,252C 513.449,255.928 512.449,260.095 512.5,264.5C 512.5,265.167 512.5,265.833 512.5,266.5C 511.833,266.833 511.167,267.167 510.5,267.5C 508.992,269.181 507.992,271.181 507.5,273.5C 505.837,275.373 504.171,277.373 502.5,279.5C 501.571,280.689 501.238,282.022 501.5,283.5C 500.833,285.5 500.167,287.5 499.5,289.5C 496.806,291.527 494.473,293.861 492.5,296.5C 491.127,296.343 489.793,296.51 488.5,297C 478.592,306.912 468.092,316.079 457,324.5C 456.505,326.473 456.338,328.473 456.5,330.5C 456.5,330.833 456.5,331.167 456.5,331.5C 454.566,332.11 452.899,333.11 451.5,334.5C 451.158,335.338 450.492,335.672 449.5,335.5C 446.708,335.622 444.708,336.956 443.5,339.5C 442.391,339.557 441.391,339.89 440.5,340.5C 438.847,340.66 437.514,341.326 436.5,342.5C 436.5,342.833 436.5,343.167 436.5,343.5C 435.833,343.5 435.167,343.5 434.5,343.5C 431.609,344.541 428.942,345.874 426.5,347.5C 422.5,349.167 418.5,350.833 414.5,352.5C 412.435,352.517 410.435,352.85 408.5,353.5C 405.058,352.828 402.391,353.828 400.5,356.5C 399.833,356.5 399.167,356.5 398.5,356.5C 394.154,356.334 389.821,356.501 385.5,357C 383.942,357.21 382.609,357.71 381.5,358.5C 373.198,359.55 364.865,360.383 356.5,361C 336.996,361.168 317.662,361.668 298.5,362.5C 298.167,362.5 297.833,362.5 297.5,362.5C 268.491,362.317 239.491,362.65 210.5,363.5C 194.83,363.333 179.163,363.5 163.5,364C 161.618,364.198 159.952,364.698 158.5,365.5C 148.832,366.583 139.165,367.75 129.5,369C 128.619,369.708 127.953,370.542 127.5,371.5C 124.654,371.552 122.32,372.552 120.5,374.5C 119.041,374.433 117.708,374.766 116.5,375.5C 114.302,375.12 112.635,375.787 111.5,377.5C 109.973,377.427 108.973,378.094 108.5,379.5C 107.833,379.5 107.5,379.833 107.5,380.5C 106.391,380.557 105.391,380.89 104.5,381.5C 100.046,382.626 96.379,384.959 93.5,388.5C 91.8333,388.5 90.1667,388.5 88.5,388.5C 87.695,377.671 86.695,367.004 85.5,356.5C 85.5,348.5 85.5,340.5 85.5,332.5C 85.224,315.472 85.5574,298.472 86.5,281.5C 87.1495,279.565 87.4828,277.565 87.5,275.5C 89.2624,274.738 90.2624,273.404 90.5,271.5C 94.5,268.167 98.1667,264.5 101.5,260.5C 101.833,259.5 102.5,258.833 103.5,258.5C 105.674,258.25 107.341,257.25 108.5,255.5C 110.027,255.573 111.027,254.906 111.5,253.5C 112.492,253.672 113.158,253.338 113.5,252.5C 115.861,252.326 118.194,251.993 120.5,251.5C 124.162,251.277 127.495,250.277 130.5,248.5C 131.209,247.596 132.209,247.263 133.5,247.5C 165.669,247.15 197.669,246.483 229.5,245.5C 271.348,245.367 313.015,244.367 354.5,242.5C 361.685,240.868 369.018,240.035 376.5,240C 379.099,238.205 381.766,236.705 384.5,235.5C 384.833,235.5 385.167,235.5 385.5,235.5C 397.23,230.737 407.23,223.737 415.5,214.5C 417.914,213.089 419.581,211.089 420.5,208.5C 421.906,208.027 422.573,207.027 422.5,205.5C 425.044,204.292 426.378,202.292 426.5,199.5C 427.338,199.158 427.672,198.492 427.5,197.5C 428.167,197.167 428.833,196.833 429.5,196.5C 431.944,192.837 433.611,188.837 434.5,184.5C 434.5,184.167 434.5,183.833 434.5,183.5C 436.173,182.657 437.34,181.324 438,179.5C 438.497,176.854 438.664,174.187 438.5,171.5C 439.578,168.598 440.244,165.598 440.5,162.5C 441.658,153.009 441.825,143.342 441,133.5C 440.617,132.944 440.117,132.611 439.5,132.5C 438.833,129.5 438.167,126.5 437.5,123.5C 437.706,120.505 437.04,117.838 435.5,115.5C 435.5,115.167 435.5,114.833 435.5,114.5C 435.573,112.973 434.906,111.973 433.5,111.5C 433.5,110.833 433.5,110.167 433.5,109.5C 433.694,104.515 431.694,100.849 427.5,98.5C 427.573,96.9731 426.906,95.9731 425.5,95.5C 424.89,93.5659 423.89,91.8993 422.5,90.5C 422.573,88.9731 421.906,87.9731 420.5,87.5C 420.262,85.5956 419.262,84.2623 417.5,83.5C 416.925,81.5887 415.925,79.922 414.5,78.5C 413.833,75.8333 412.167,74.1667 409.5,73.5C 407.833,71.5 406.167,69.5 404.5,67.5C 402.957,65.0722 401.957,62.4056 401.5,59.5C 404.167,59.5 406.833,59.5 409.5,59.5 Z"/></g>
<g><path style="opacity:1" fill="#abd8ea" d="M 415.5,60.5 C 417.687,61.758 420.02,62.758 422.5,63.5C 422.5,63.8333 422.5,64.1667 422.5,64.5C 419.386,64.4452 417.052,63.1119 415.5,60.5 Z"/></g>
<g><path style="opacity:1" fill="#6edbd4" d="M 422.5,64.5 C 422.5,64.1667 422.5,63.8333 422.5,63.5C 423.167,63.5 423.833,63.5 424.5,63.5C 426.315,64.6298 428.315,65.2964 430.5,65.5C 430.5,65.8333 430.5,66.1667 430.5,66.5C 427.67,66.3059 425.004,65.6392 422.5,64.5 Z"/></g>
<g><path style="opacity:1" fill="#5cdccd" d="M 402.5,66.5 C 403.167,66.8333 403.833,67.1667 404.5,67.5C 406.167,69.5 407.833,71.5 409.5,73.5C 409.5,73.8333 409.5,74.1667 409.5,74.5C 406.427,72.4309 404.094,69.7642 402.5,66.5 Z"/></g>
<g><path style="opacity:1" fill="#44dec4" d="M 430.5,65.5 C 432.288,65.2148 433.955,65.5481 435.5,66.5C 438.935,68.7213 442.601,70.7213 446.5,72.5C 447.826,73.6422 448.826,74.9755 449.5,76.5C 449.167,76.5 448.833,76.5 448.5,76.5C 445.968,75.4043 443.635,74.0709 441.5,72.5C 441.027,71.0937 440.027,70.427 438.5,70.5C 435.515,69.6743 432.849,68.341 430.5,66.5C 430.5,66.1667 430.5,65.8333 430.5,65.5 Z"/></g>
<g><path style="opacity:1" fill="#7fdadb" d="M 438.5,70.5 C 440.027,70.427 441.027,71.0937 441.5,72.5C 439.973,72.573 438.973,71.9063 438.5,70.5 Z"/></g>
<g><path style="opacity:1" fill="#9dd9e5" d="M 409.5,74.5 C 409.5,74.1667 409.5,73.8333 409.5,73.5C 412.167,74.1667 413.833,75.8333 414.5,78.5C 413.5,77.8333 412.5,77.1667 411.5,76.5C 411.167,75.5 410.5,74.8333 409.5,74.5 Z"/></g>
<g><path style="opacity:1" fill="#58dccc" d="M 411.5,76.5 C 412.5,77.1667 413.5,77.8333 414.5,78.5C 415.925,79.922 416.925,81.5887 417.5,83.5C 414.757,81.7607 412.757,79.4274 411.5,76.5 Z"/></g>
<g><path style="opacity:1" fill="#90d9e1" d="M 448.5,76.5 C 448.833,76.5 449.167,76.5 449.5,76.5C 450.5,76.8333 451.167,77.5 451.5,78.5C 449.973,78.573 448.973,77.9063 448.5,76.5 Z"/></g>
<g><path style="opacity:1" fill="#5ddcce" d="M 453.5,78.5 C 455.027,78.427 456.027,79.0937 456.5,80.5C 454.973,80.573 453.973,79.9063 453.5,78.5 Z"/></g>
<g><path style="opacity:1" fill="#65dbd1" d="M 456.5,80.5 C 458.027,80.427 459.027,81.0937 459.5,82.5C 457.973,82.573 456.973,81.9063 456.5,80.5 Z"/></g>
<g><path style="opacity:1" fill="#70dbd5" d="M 417.5,83.5 C 419.262,84.2623 420.262,85.5956 420.5,87.5C 418.738,86.7377 417.738,85.4044 417.5,83.5 Z"/></g>
<g><path style="opacity:1" fill="#6ddbd3" d="M 459.5,82.5 C 462.089,83.4194 464.089,85.086 465.5,87.5C 462.911,86.5806 460.911,84.914 459.5,82.5 Z"/></g>
<g><path style="opacity:1" fill="#68dbd2" d="M 465.5,87.5 C 468.764,89.0941 471.431,91.4275 473.5,94.5C 470.236,92.9059 467.569,90.5725 465.5,87.5 Z"/></g>
<g><path style="opacity:1" fill="#7fdadb" d="M 420.5,87.5 C 421.906,87.9731 422.573,88.9731 422.5,90.5C 421.833,90.1667 421.167,89.8333 420.5,89.5C 420.5,88.8333 420.5,88.1667 420.5,87.5 Z"/></g>
<g><path style="opacity:1" fill="#57dccb" d="M 420.5,89.5 C 421.167,89.8333 421.833,90.1667 422.5,90.5C 423.89,91.8993 424.89,93.5659 425.5,95.5C 422.893,94.2878 421.226,92.2878 420.5,89.5 Z"/></g>
<g><path style="opacity:1" fill="#60dccf" d="M 473.5,94.5 C 478.167,97.1667 481.833,100.833 484.5,105.5C 484.167,105.5 483.833,105.5 483.5,105.5C 480.167,101.833 476.833,98.1667 473.5,94.5 Z"/></g>
<g><path style="opacity:1" fill="#6fdbd5" d="M 425.5,95.5 C 426.906,95.9731 427.573,96.9731 427.5,98.5C 426.094,98.0269 425.427,97.0269 425.5,95.5 Z"/></g>
<g><path style="opacity:1" fill="#aad8e9" d="M 427.5,98.5 C 431.694,100.849 433.694,104.515 433.5,109.5C 431.748,106.328 429.748,103.328 427.5,100.5C 427.5,99.8333 427.5,99.1667 427.5,98.5 Z"/></g>
<g><path style="opacity:1" fill="#3cdec1" d="M 427.5,100.5 C 429.748,103.328 431.748,106.328 433.5,109.5C 433.5,110.167 433.5,110.833 433.5,111.5C 433.5,112.167 433.5,112.833 433.5,113.5C 431.881,111.042 430.048,108.709 428,106.5C 427.505,104.527 427.338,102.527 427.5,100.5 Z"/></g>
<g><path style="opacity:1" fill="#a4d8e7" d="M 483.5,105.5 C 483.833,105.5 484.167,105.5 484.5,105.5C 486.252,107.246 487.585,109.246 488.5,111.5C 486.086,110.089 484.419,108.089 483.5,105.5 Z"/></g>
<g><path style="opacity:1" fill="#9bd8e4" d="M 488.5,111.5 C 490.587,112.585 491.92,114.251 492.5,116.5C 490.413,115.415 489.08,113.749 488.5,111.5 Z"/></g>
<g><path style="opacity:1" fill="#91d9e1" d="M 433.5,111.5 C 434.906,111.973 435.573,112.973 435.5,114.5C 434.833,114.167 434.167,113.833 433.5,113.5C 433.5,112.833 433.5,112.167 433.5,111.5 Z"/></g>
<g><path style="opacity:1" fill="#81dadb" d="M 435.5,115.5 C 437.04,117.838 437.706,120.505 437.5,123.5C 437.167,123.5 436.833,123.5 436.5,123.5C 436.167,120.833 435.833,118.167 435.5,115.5 Z"/></g>
<g><path style="opacity:1" fill="#99d8e4" d="M 492.5,116.5 C 494.914,117.911 496.581,119.911 497.5,122.5C 495.086,121.089 493.419,119.089 492.5,116.5 Z"/></g>
<g><path style="opacity:1" fill="#aad8e9" d="M 497.5,122.5 C 499.262,123.262 500.262,124.596 500.5,126.5C 500.5,127.167 500.5,127.833 500.5,128.5C 498.755,126.967 497.755,124.967 497.5,122.5 Z"/></g>
<g><path style="opacity:1" fill="#7ddada" d="M 500.5,126.5 C 501.5,126.833 502.167,127.5 502.5,128.5C 502.5,128.833 502.5,129.167 502.5,129.5C 501.833,129.167 501.167,128.833 500.5,128.5C 500.5,127.833 500.5,127.167 500.5,126.5 Z"/></g>
<g><path style="opacity:1" fill="#1bddb6" d="M 91.5,268.5 C 90.8902,269.391 90.5569,270.391 90.5,271.5C 88.7376,272.262 87.7376,273.596 87.5,275.5C 85.9261,277.102 85.2594,279.102 85.5,281.5C 85.3713,283.216 85.038,284.883 84.5,286.5C 83.5034,303.325 83.1701,320.325 83.5,337.5C 83.3334,353.837 83.5001,370.17 84,386.5C 84.8564,388.868 85.6897,391.202 86.5,393.5C 88.1667,393.5 89.8333,393.5 91.5,393.5C 89.5399,395.21 87.3732,395.543 85,394.5C 83.3187,417.235 84.9854,439.569 90,461.5C 100.143,486.644 118.476,501.977 145,507.5C 170.917,501.916 189.417,487.083 200.5,463C 202.5,462.333 204.5,462.333 206.5,463C 213.818,465.938 221.151,468.771 228.5,471.5C 228.443,472.609 228.11,473.609 227.5,474.5C 221.749,472.029 215.749,470.362 209.5,469.5C 207.423,469.692 205.423,470.192 203.5,471C 196.209,481.958 187.209,491.291 176.5,499C 145.917,515.233 119.417,510.066 97,483.5C 92.4919,476.487 88.4919,469.153 85,461.5C 83.0914,458.586 80.4247,456.919 77,456.5C 71.1923,457.27 65.6923,458.937 60.5,461.5C 60.5,459.833 60.5,458.167 60.5,456.5C 63.3013,455.265 65.9679,453.765 68.5,452C 76.373,446.423 80.0396,438.923 79.5,429.5C 80.331,331.207 80.831,232.874 81,134.5C 81.8403,131.536 82.8403,131.203 84,133.5C 84.3333,180.167 84.6667,226.833 85,273.5C 86.1912,270.466 88.3579,268.799 91.5,268.5 Z"/></g>
<g><path style="opacity:1" fill="#a7d8e8" d="M 500.5,128.5 C 501.167,128.833 501.833,129.167 502.5,129.5C 503.434,130.568 503.768,131.901 503.5,133.5C 502.11,132.101 501.11,130.434 500.5,128.5 Z"/></g>
<g><path style="opacity:1" fill="#1bddb5" d="M 415.5,213.5 C 415.5,213.833 415.5,214.167 415.5,214.5C 406.293,222.377 396.293,229.043 385.5,234.5C 383.766,233.438 382.099,233.438 380.5,234.5C 378.167,234.5 375.833,234.5 373.5,234.5C 376.866,233.844 380.032,232.511 383,230.5C 383.499,225.177 383.666,219.844 383.5,214.5C 389.842,214.666 396.175,214.5 402.5,214C 405.108,211.435 406.442,208.269 406.5,204.5C 402.379,169.877 383.046,149.71 348.5,144C 339.909,142.344 331.243,141.344 322.5,141C 292.5,140.333 262.5,140.333 232.5,141C 225.53,141.111 219.363,143.277 214,147.5C 203.444,166.676 208.611,179.343 229.5,185.5C 229.5,185.833 229.5,186.167 229.5,186.5C 208.638,184.439 200.805,173.105 206,152.5C 206.151,147.673 208.317,144.173 212.5,142C 217.083,140.855 221.749,140.189 226.5,140C 259.5,139.333 292.5,139.333 325.5,140C 333.529,140.335 341.529,141.002 349.5,142C 391.228,148.067 411.728,172.234 411,214.5C 412.356,213.62 413.856,213.286 415.5,213.5 Z"/></g>
<g><path style="opacity:1" fill="#3edec2" d="M 502.5,129.5 C 502.5,129.167 502.5,128.833 502.5,128.5C 504.257,129.084 505.59,130.251 506.5,132C 507.666,135.152 508.666,138.319 509.5,141.5C 510.5,141.5 511.5,141.5 512.5,141.5C 514.788,146.564 516.121,151.897 516.5,157.5C 516.167,157.5 515.833,157.5 515.5,157.5C 515.834,154.509 514.834,152.176 512.5,150.5C 512.585,147.351 511.585,144.684 509.5,142.5C 507.748,139.328 505.748,136.328 503.5,133.5C 503.768,131.901 503.434,130.568 502.5,129.5 Z"/></g>
<g><path style="opacity:1" fill="#43dec4" d="M 436.5,123.5 C 436.833,123.5 437.167,123.5 437.5,123.5C 438.167,126.5 438.833,129.5 439.5,132.5C 439.5,135.167 439.5,137.833 439.5,140.5C 439.825,147.687 439.491,154.687 438.5,161.5C 438.856,148.755 438.19,136.088 436.5,123.5 Z"/></g>
<g><path style="opacity:1" fill="#3fbaa1" d="M 320.5,144.5 C 331.165,145.836 341.832,147.836 352.5,150.5C 367.984,155.992 380.151,165.659 389,179.5C 392.628,185.376 393.961,191.709 393,198.5C 391.149,203.524 387.649,206.524 382.5,207.5C 381.463,206.07 380.796,204.403 380.5,202.5C 388.132,199.387 390.632,193.72 388,185.5C 384.509,176.851 379.009,169.851 371.5,164.5C 366.239,161.899 361.239,158.899 356.5,155.5C 344.871,150.204 332.538,147.37 319.5,147C 294.833,146.333 270.167,146.333 245.5,147C 231.738,148.424 224.571,155.924 224,169.5C 225.451,171.464 227.284,172.797 229.5,173.5C 229.5,174.833 229.5,176.167 229.5,177.5C 224.945,175.113 221.612,171.613 219.5,167C 221.908,152.925 230.241,145.592 244.5,145C 269.831,144.5 295.164,144.333 320.5,144.5 Z"/></g>
<g><path style="opacity:0.994" fill="#2dcaaa" d="M 310.5,142.5 C 321.607,141.606 332.273,143.106 342.5,147C 347.167,147.333 351.833,147.667 356.5,148C 372.278,153.642 384.778,163.475 394,177.5C 399.332,186.491 401.332,196.158 400,206.5C 398.833,207.667 397.667,208.833 396.5,210C 391.898,211.122 387.232,211.622 382.5,211.5C 382.5,210.5 382.5,209.5 382.5,208.5C 389.851,209.572 394.351,206.572 396,199.5C 394.947,182.753 387.447,169.587 373.5,160C 366.973,155.736 359.973,152.569 352.5,150.5C 341.832,147.836 331.165,145.836 320.5,144.5C 294.67,143.337 268.67,143.17 242.5,144C 225.131,145.35 217.298,154.516 219,171.5C 221.901,175.025 225.401,177.692 229.5,179.5C 229.5,179.833 229.5,180.167 229.5,180.5C 222.695,178.194 218.028,173.694 215.5,167C 216.33,155.642 221.997,147.976 232.5,144C 258.466,142.566 284.466,142.066 310.5,142.5 Z"/></g>
<g><path style="opacity:1" fill="#66dbd2" d="M 439.5,140.5 C 440.492,147.648 440.825,154.981 440.5,162.5C 439.833,163.5 439.167,164.5 438.5,165.5C 438.5,164.167 438.5,162.833 438.5,161.5C 439.491,154.687 439.825,147.687 439.5,140.5 Z"/></g>
<g><path style="opacity:1" fill="#a1d8e7" d="M 439.5,132.5 C 440.117,132.611 440.617,132.944 441,133.5C 441.825,143.342 441.658,153.009 440.5,162.5C 440.825,154.981 440.492,147.648 439.5,140.5C 439.5,137.833 439.5,135.167 439.5,132.5 Z"/></g>
<g><path style="opacity:1" fill="#a7d8e8" d="M 509.5,142.5 C 511.585,144.684 512.585,147.351 512.5,150.5C 510.307,148.478 509.307,145.811 509.5,142.5 Z"/></g>
<g><path style="opacity:0.999" fill="#35c4a7" d="M 352.5,150.5 C 359.973,152.569 366.973,155.736 373.5,160C 387.447,169.587 394.947,182.753 396,199.5C 394.351,206.572 389.851,209.572 382.5,208.5C 382.5,208.167 382.5,207.833 382.5,207.5C 387.649,206.524 391.149,203.524 393,198.5C 393.961,191.709 392.628,185.376 389,179.5C 380.151,165.659 367.984,155.992 352.5,150.5 Z"/></g>
<g><path style="opacity:1" fill="#21d6b1" d="M 383.5,214.5 C 383.443,213.391 383.11,212.391 382.5,211.5C 387.232,211.622 391.898,211.122 396.5,210C 397.667,208.833 398.833,207.667 400,206.5C 401.332,196.158 399.332,186.491 394,177.5C 384.778,163.475 372.278,153.642 356.5,148C 351.833,147.667 347.167,147.333 342.5,147C 332.273,143.106 321.607,141.606 310.5,142.5C 286.003,141.337 261.337,141.17 236.5,142C 218.848,143.324 211.015,152.824 213,170.5C 216.47,177.316 221.97,181.316 229.5,182.5C 229.5,183.5 229.5,184.5 229.5,185.5C 208.611,179.343 203.444,166.676 214,147.5C 219.363,143.277 225.53,141.111 232.5,141C 262.5,140.333 292.5,140.333 322.5,141C 331.243,141.344 339.909,142.344 348.5,144C 383.046,149.71 402.379,169.877 406.5,204.5C 406.442,208.269 405.108,211.435 402.5,214C 396.175,214.5 389.842,214.666 383.5,214.5 Z"/></g>
<g><path style="opacity:1" fill="#57a494" d="M 349.5,154.5 C 352.866,156.513 356.199,158.513 359.5,160.5C 354.499,159.499 349.832,157.665 345.5,155C 338.754,153.917 332.087,152.584 325.5,151C 301.167,150.333 276.833,150.333 252.5,151C 247.762,151.512 243.095,152.345 238.5,153.5C 233.453,157.226 230.453,162.226 229.5,168.5C 229.5,168.833 229.5,169.167 229.5,169.5C 227.748,169.582 226.748,168.749 226.5,167C 228.347,160.072 232.014,154.406 237.5,150C 269.533,147.771 301.533,148.105 333.5,151C 338.895,151.979 344.228,153.145 349.5,154.5 Z"/></g>
<g><path style="opacity:1" fill="#4caf9a" d="M 356.5,155.5 C 354.139,155.326 351.806,154.993 349.5,154.5C 344.228,153.145 338.895,151.979 333.5,151C 301.533,148.105 269.533,147.771 237.5,150C 232.014,154.406 228.347,160.072 226.5,167C 226.748,168.749 227.748,169.582 229.5,169.5C 229.5,170.833 229.5,172.167 229.5,173.5C 227.284,172.797 225.451,171.464 224,169.5C 224.571,155.924 231.738,148.424 245.5,147C 270.167,146.333 294.833,146.333 319.5,147C 332.538,147.37 344.871,150.204 356.5,155.5 Z"/></g>
<g><path style="opacity:0.999" fill="#35c4a6" d="M 320.5,144.5 C 295.164,144.333 269.831,144.5 244.5,145C 230.241,145.592 221.908,152.925 219.5,167C 221.612,171.613 224.945,175.113 229.5,177.5C 229.5,178.167 229.5,178.833 229.5,179.5C 225.401,177.692 221.901,175.025 219,171.5C 217.298,154.516 225.131,145.35 242.5,144C 268.67,143.17 294.67,143.337 320.5,144.5 Z"/></g>
<g><path style="opacity:1" fill="#619b8f" d="M 359.5,160.5 C 362.382,161.379 364.715,163.046 366.5,165.5C 371.566,170.074 375.733,175.407 379,181.5C 380.407,186.401 379.24,190.401 375.5,193.5C 374.833,192.5 374.167,191.5 373.5,190.5C 376.317,185.019 375.984,179.685 372.5,174.5C 369.041,171.585 366.041,168.252 363.5,164.5C 357.515,162.002 351.515,159.502 345.5,157C 339.007,156.036 332.674,154.702 326.5,153C 299.833,152.333 273.167,152.333 246.5,153C 239.585,153.995 235.085,157.828 233,164.5C 232.51,165.793 232.343,167.127 232.5,168.5C 231.5,168.5 230.5,168.5 229.5,168.5C 230.453,162.226 233.453,157.226 238.5,153.5C 243.095,152.345 247.762,151.512 252.5,151C 276.833,150.333 301.167,150.333 325.5,151C 332.087,152.584 338.754,153.917 345.5,155C 349.832,157.665 354.499,159.499 359.5,160.5 Z"/></g>
<g><path style="opacity:1" fill="#6b9189" d="M 373.5,190.5 C 372.026,189.564 371.026,188.23 370.5,186.5C 372.145,178.453 369.478,172.12 362.5,167.5C 353.018,161.395 342.684,157.561 331.5,156C 305.849,154.537 280.182,154.204 254.5,155C 250.728,155.406 247.061,156.239 243.5,157.5C 241.183,160.317 238.683,162.984 236,165.5C 235.517,166.448 235.351,167.448 235.5,168.5C 234.5,168.5 233.5,168.5 232.5,168.5C 232.343,167.127 232.51,165.793 233,164.5C 235.085,157.828 239.585,153.995 246.5,153C 273.167,152.333 299.833,152.333 326.5,153C 332.674,154.702 339.007,156.036 345.5,157C 351.515,159.502 357.515,162.002 363.5,164.5C 366.041,168.252 369.041,171.585 372.5,174.5C 375.984,179.685 376.317,185.019 373.5,190.5 Z"/></g>
<g><path style="opacity:1" fill="#9cd9e5" d="M 512.5,150.5 C 514.834,152.176 515.834,154.509 515.5,157.5C 513.182,155.815 512.182,153.481 512.5,150.5 Z"/></g>
<g><path style="opacity:1" fill="#768884" d="M 370.5,186.5 C 368.246,185.876 366.579,184.543 365.5,182.5C 365.965,176.598 363.632,172.098 358.5,169C 352.823,165.998 347.156,162.998 341.5,160C 312.213,157.584 282.88,156.917 253.5,158C 245.929,158.274 240.596,161.774 237.5,168.5C 236.833,168.5 236.167,168.5 235.5,168.5C 235.351,167.448 235.517,166.448 236,165.5C 238.683,162.984 241.183,160.317 243.5,157.5C 247.061,156.239 250.728,155.406 254.5,155C 280.182,154.204 305.849,154.537 331.5,156C 342.684,157.561 353.018,161.395 362.5,167.5C 369.478,172.12 372.145,178.453 370.5,186.5 Z"/></g>
<g><path style="opacity:0.988" fill="#7f7f7f" d="M 365.5,182.5 C 363.632,181.737 361.965,180.737 360.5,179.5C 361.709,177.565 361.542,175.565 360,173.5C 351.092,166.416 340.926,162.249 329.5,161C 304.189,159.447 278.856,159.113 253.5,160C 247.64,160.725 243.307,163.558 240.5,168.5C 239.5,168.5 238.5,168.5 237.5,168.5C 240.596,161.774 245.929,158.274 253.5,158C 282.88,156.917 312.213,157.584 341.5,160C 347.156,162.998 352.823,165.998 358.5,169C 363.632,172.098 365.965,176.598 365.5,182.5 Z"/></g>
<g><path style="opacity:0.986" fill="#85797b" d="M 360.5,179.5 C 358.632,178.737 356.965,177.737 355.5,176.5C 354.452,172.281 351.785,169.447 347.5,168C 341.069,165.446 334.402,163.78 327.5,163C 303.851,161.528 280.184,161.194 256.5,162C 251.061,162.188 246.728,164.354 243.5,168.5C 242.5,168.5 241.5,168.5 240.5,168.5C 243.307,163.558 247.64,160.725 253.5,160C 278.856,159.113 304.189,159.447 329.5,161C 340.926,162.249 351.092,166.416 360,173.5C 361.542,175.565 361.709,177.565 360.5,179.5 Z"/></g>
<g><path style="opacity:0.988" fill="#8c7378" d="M 355.5,176.5 C 353.167,175.833 350.833,175.167 348.5,174.5C 347.746,171.909 346.079,170.076 343.5,169C 336.99,166.898 330.323,165.565 323.5,165C 300.167,164.333 276.833,164.333 253.5,165C 250.975,165.424 248.975,166.59 247.5,168.5C 246.167,168.5 244.833,168.5 243.5,168.5C 246.728,164.354 251.061,162.188 256.5,162C 280.184,161.194 303.851,161.528 327.5,163C 334.402,163.78 341.069,165.446 347.5,168C 351.785,169.447 354.452,172.281 355.5,176.5 Z"/></g>
<g><path style="opacity:1" fill="#41ddc4" d="M 516.5,159.5 C 518.113,159.944 519.28,160.944 520,162.5C 520.995,166.145 521.828,169.812 522.5,173.5C 521.833,172.833 521.167,172.167 520.5,171.5C 520.23,167.642 518.897,164.309 516.5,161.5C 516.5,160.833 516.5,160.167 516.5,159.5 Z"/></g>
<g><path style="opacity:0.974" fill="#936d75" d="M 348.5,174.5 C 343.642,172.702 338.642,171.368 333.5,170.5C 331.524,168.989 329.191,168.156 326.5,168C 301.997,167.17 277.663,167.337 253.5,168.5C 251.5,168.5 249.5,168.5 247.5,168.5C 248.975,166.59 250.975,165.424 253.5,165C 276.833,164.333 300.167,164.333 323.5,165C 330.323,165.565 336.99,166.898 343.5,169C 346.079,170.076 347.746,171.909 348.5,174.5 Z"/></g>
<g><path style="opacity:1" fill="#9ad9e4" d="M 516.5,161.5 C 518.897,164.309 520.23,167.642 520.5,171.5C 519.249,169.618 518.082,167.618 517,165.5C 516.51,164.207 516.343,162.873 516.5,161.5 Z"/></g>
<g><path style="opacity:0.874" fill="#976973" d="M 253.5,168.5 C 277.663,167.337 301.997,167.17 326.5,168C 329.191,168.156 331.524,168.989 333.5,170.5C 306.874,168.738 280.208,168.071 253.5,168.5 Z"/></g>
<g><path style="opacity:1" fill="#92d9e1" d="M 440.5,162.5 C 440.244,165.598 439.578,168.598 438.5,171.5C 438.167,171.5 437.833,171.5 437.5,171.5C 437.517,169.435 437.85,167.435 438.5,165.5C 439.167,164.5 439.833,163.5 440.5,162.5 Z"/></g>
<g><path style="opacity:1" fill="#28d0ad" d="M 310.5,142.5 C 284.466,142.066 258.466,142.566 232.5,144C 221.997,147.976 216.33,155.642 215.5,167C 218.028,173.694 222.695,178.194 229.5,180.5C 229.5,181.167 229.5,181.833 229.5,182.5C 221.97,181.316 216.47,177.316 213,170.5C 211.015,152.824 218.848,143.324 236.5,142C 261.337,141.17 286.003,141.337 310.5,142.5 Z"/></g>
<g><path style="opacity:1" fill="#64dbd1" d="M 437.5,171.5 C 437.785,174.829 437.118,177.829 435.5,180.5C 435.676,177.273 436.343,174.273 437.5,171.5 Z"/></g>
<g><path style="opacity:0.945" fill="#5aa192" d="M 366.5,165.5 C 368.39,165.297 369.89,165.963 371,167.5C 374.385,171.217 377.385,175.217 380,179.5C 381.363,183.761 381.696,188.095 381,192.5C 380.34,194.324 379.173,195.657 377.5,196.5C 376.833,195.5 376.167,194.5 375.5,193.5C 379.24,190.401 380.407,186.401 379,181.5C 375.733,175.407 371.566,170.074 366.5,165.5 Z"/></g>
<g><path style="opacity:1" fill="#aad7ea" d="M 437.5,171.5 C 437.833,171.5 438.167,171.5 438.5,171.5C 438.664,174.187 438.497,176.854 438,179.5C 437.34,181.324 436.173,182.657 434.5,183.5C 434.5,183.167 434.5,182.833 434.5,182.5C 434.833,181.833 435.167,181.167 435.5,180.5C 437.118,177.829 437.785,174.829 437.5,171.5 Z"/></g>
<g><path style="opacity:1" fill="#7edada" d="M 520.5,171.5 C 521.167,172.167 521.833,172.833 522.5,173.5C 522.328,174.492 522.662,175.158 523.5,175.5C 523.5,178.167 523.5,180.833 523.5,183.5C 522.508,179.596 521.508,175.596 520.5,171.5 Z"/></g>
<g><path style="opacity:1" fill="#64dcd1" d="M 434.5,182.5 C 434.5,182.833 434.5,183.167 434.5,183.5C 434.5,183.833 434.5,184.167 434.5,184.5C 433.857,186.076 432.857,187.41 431.5,188.5C 431.755,186.033 432.755,184.033 434.5,182.5 Z"/></g>
<g><path style="opacity:0.866" fill="#52a997" d="M 349.5,154.5 C 351.806,154.993 354.139,155.326 356.5,155.5C 361.239,158.899 366.239,161.899 371.5,164.5C 373.408,168.08 376.074,171.08 379.5,173.5C 381.587,176.673 383.421,180.006 385,183.5C 385.667,187.167 385.667,190.833 385,194.5C 383.924,197.079 382.091,198.746 379.5,199.5C 378.599,198.71 377.932,197.71 377.5,196.5C 379.173,195.657 380.34,194.324 381,192.5C 381.696,188.095 381.363,183.761 380,179.5C 377.385,175.217 374.385,171.217 371,167.5C 369.89,165.963 368.39,165.297 366.5,165.5C 364.715,163.046 362.382,161.379 359.5,160.5C 356.199,158.513 352.866,156.513 349.5,154.5 Z"/></g>
<g><path style="opacity:1" fill="#a8d8e9" d="M 434.5,184.5 C 433.611,188.837 431.944,192.837 429.5,196.5C 429.5,195.833 429.5,195.167 429.5,194.5C 430.167,192.5 430.833,190.5 431.5,188.5C 432.857,187.41 433.857,186.076 434.5,184.5 Z"/></g>
<g><path style="opacity:1" fill="#75dbd7" d="M 429.5,194.5 C 429.5,195.167 429.5,195.833 429.5,196.5C 428.833,196.833 428.167,197.167 427.5,197.5C 427.427,195.973 428.094,194.973 429.5,194.5 Z"/></g>
<g><path style="opacity:1" fill="#49b19c" d="M 371.5,164.5 C 379.009,169.851 384.509,176.851 388,185.5C 390.632,193.72 388.132,199.387 380.5,202.5C 379.89,201.609 379.557,200.609 379.5,199.5C 382.091,198.746 383.924,197.079 385,194.5C 385.667,190.833 385.667,187.167 385,183.5C 383.421,180.006 381.587,176.673 379.5,173.5C 376.074,171.08 373.408,168.08 371.5,164.5 Z"/></g>
<g><path style="opacity:1" fill="#88dade" d="M 426.5,199.5 C 426.378,202.292 425.044,204.292 422.5,205.5C 423.449,203.223 424.782,201.223 426.5,199.5 Z"/></g>
<g><path style="opacity:1" fill="#8bd9df" d="M 523.5,190.5 C 524.166,195.656 524.499,200.989 524.5,206.5C 524.668,214.722 524.001,222.722 522.5,230.5C 522.5,229.833 522.5,229.167 522.5,228.5C 523.322,215.851 523.655,203.185 523.5,190.5 Z"/></g>
<g><path style="opacity:1" fill="#8ed9df" d="M 422.5,205.5 C 422.573,207.027 421.906,208.027 420.5,208.5C 420.427,206.973 421.094,205.973 422.5,205.5 Z"/></g>
<g><path style="opacity:1" fill="#87dadd" d="M 420.5,208.5 C 419.581,211.089 417.914,213.089 415.5,214.5C 415.5,214.167 415.5,213.833 415.5,213.5C 416.833,211.5 418.5,209.833 420.5,208.5 Z"/></g>
<g><path style="opacity:1" fill="#43ddc4" d="M 523.5,175.5 C 524.326,179.982 524.826,184.649 525,189.5C 525.667,204.167 525.667,218.833 525,233.5C 524.284,235.879 523.117,237.879 521.5,239.5C 521.963,236.518 522.296,233.518 522.5,230.5C 524.001,222.722 524.668,214.722 524.5,206.5C 524.499,200.989 524.166,195.656 523.5,190.5C 523.5,188.167 523.5,185.833 523.5,183.5C 523.5,180.833 523.5,178.167 523.5,175.5 Z"/></g>
<g><path style="opacity:1" fill="#99d8e3" d="M 415.5,214.5 C 407.23,223.737 397.23,230.737 385.5,235.5C 385.5,235.167 385.5,234.833 385.5,234.5C 396.293,229.043 406.293,222.377 415.5,214.5 Z"/></g>
<g><path style="opacity:1" fill="#b3d6ec" d="M 522.5,228.5 C 522.5,229.167 522.5,229.833 522.5,230.5C 522.296,233.518 521.963,236.518 521.5,239.5C 521.5,239.833 521.5,240.167 521.5,240.5C 520.833,241.5 520.167,242.5 519.5,243.5C 519.625,238.206 520.625,233.206 522.5,228.5 Z"/></g>
<g><path style="opacity:0.408" fill="#66dbd2" d="M 385.5,234.5 C 385.5,234.833 385.5,235.167 385.5,235.5C 385.167,235.5 384.833,235.5 384.5,235.5C 383.167,235.5 381.833,235.5 380.5,235.5C 380.5,235.167 380.5,234.833 380.5,234.5C 382.099,233.438 383.766,233.438 385.5,234.5 Z"/></g>
<g><path style="opacity:0.455" fill="#77dad8" d="M 380.5,235.5 C 374.571,238.228 368.238,239.562 361.5,239.5C 367.497,237.088 373.83,235.755 380.5,235.5 Z"/></g>
<g><path style="opacity:0.012" fill="#27dfbc" d="M 373.5,234.5 C 375.833,234.5 378.167,234.5 380.5,234.5C 380.5,234.833 380.5,235.167 380.5,235.5C 373.83,235.755 367.497,237.088 361.5,239.5C 360.167,239.5 358.833,239.5 357.5,239.5C 323.65,239.091 289.983,239.757 256.5,241.5C 247.5,241.5 238.5,241.5 229.5,241.5C 229.5,240.833 229.5,240.167 229.5,239.5C 271.818,238.16 314.152,237.327 356.5,237C 362.11,235.757 367.776,234.924 373.5,234.5 Z"/></g>
<g><path style="opacity:0.12" fill="#50dccb" d="M 357.5,239.5 C 337.657,240.254 317.657,240.921 297.5,241.5C 283.833,241.5 270.167,241.5 256.5,241.5C 289.983,239.757 323.65,239.091 357.5,239.5 Z"/></g>
<g><path style="opacity:0.64" fill="#89d9de" d="M 229.5,241.5 C 238.5,241.5 247.5,241.5 256.5,241.5C 270.167,241.5 283.833,241.5 297.5,241.5C 275.016,242.969 252.349,243.636 229.5,243.5C 229.5,242.833 229.5,242.167 229.5,241.5 Z"/></g>
<g><path style="opacity:0.778" fill="#a5d8e8" d="M 380.5,235.5 C 381.833,235.5 383.167,235.5 384.5,235.5C 381.766,236.705 379.099,238.205 376.5,240C 369.018,240.035 361.685,240.868 354.5,242.5C 312.832,243.09 271.165,243.756 229.5,244.5C 229.5,244.167 229.5,243.833 229.5,243.5C 252.349,243.636 275.016,242.969 297.5,241.5C 317.657,240.921 337.657,240.254 357.5,239.5C 358.833,239.5 360.167,239.5 361.5,239.5C 368.238,239.562 374.571,238.228 380.5,235.5 Z"/></g>
<g><path style="opacity:0.97" fill="#c1d6f2" d="M 354.5,242.5 C 313.015,244.367 271.348,245.367 229.5,245.5C 229.5,245.167 229.5,244.833 229.5,244.5C 271.165,243.756 312.832,243.09 354.5,242.5 Z"/></g>
<g><path style="opacity:1" fill="#38dec0" d="M 229.5,241.5 C 229.5,242.167 229.5,242.833 229.5,243.5C 229.5,243.833 229.5,244.167 229.5,244.5C 222.833,244.5 216.167,244.5 209.5,244.5C 191.164,244.333 172.83,244.5 154.5,245C 151.305,245.181 148.305,245.681 145.5,246.5C 141.5,246.5 137.5,246.5 133.5,246.5C 131.139,246.674 128.806,247.007 126.5,247.5C 126.611,246.883 126.944,246.383 127.5,246C 129.5,245.667 131.5,245.333 133.5,245C 165.5,243.589 197.5,242.422 229.5,241.5 Z"/></g>
<g><path style="opacity:1" fill="#84dadd" d="M 209.5,244.5 C 188.334,245.406 167,246.073 145.5,246.5C 148.305,245.681 151.305,245.181 154.5,245C 172.83,244.5 191.164,244.333 209.5,244.5 Z"/></g>
<g><path style="opacity:1" fill="#b6d7ee" d="M 209.5,244.5 C 216.167,244.5 222.833,244.5 229.5,244.5C 229.5,244.833 229.5,245.167 229.5,245.5C 197.669,246.483 165.669,247.15 133.5,247.5C 133.5,247.167 133.5,246.833 133.5,246.5C 137.5,246.5 141.5,246.5 145.5,246.5C 167,246.073 188.334,245.406 209.5,244.5 Z"/></g>
<g><path style="opacity:1" fill="#66dbd2" d="M 133.5,246.5 C 133.5,246.833 133.5,247.167 133.5,247.5C 132.209,247.263 131.209,247.596 130.5,248.5C 129.167,248.5 127.833,248.5 126.5,248.5C 126.5,248.167 126.5,247.833 126.5,247.5C 128.806,247.007 131.139,246.674 133.5,246.5 Z"/></g>
<g><path style="opacity:0.991" fill="#24d7b3" d="M 549.5,249.5 C 548.985,251.894 548.319,254.228 547.5,256.5C 540.345,252.379 533.345,252.546 526.5,257C 519.739,267.557 512.906,278.057 506,288.5C 498.736,296.156 491.569,303.989 484.5,312C 483.184,312.528 482.517,312.028 482.5,310.5C 484.909,308.098 486.909,305.431 488.5,302.5C 492.877,298.732 496.544,294.399 499.5,289.5C 504.62,284.932 507.954,279.265 509.5,272.5C 509.557,271.391 509.89,270.391 510.5,269.5C 511.906,269.027 512.573,268.027 512.5,266.5C 512.5,265.833 512.5,265.167 512.5,264.5C 514.008,262.819 515.008,260.819 515.5,258.5C 517.074,256.898 517.741,254.898 517.5,252.5C 518.833,249.833 520.167,247.167 521.5,244.5C 519.714,249.353 518.88,254.353 519,259.5C 520.746,255.673 522.746,252.007 525,248.5C 528.514,243.497 533.014,242.33 538.5,245C 542.229,246.537 545.895,248.037 549.5,249.5 Z"/></g>
<g><path style="opacity:1" fill="#6cdad3" d="M 521.5,240.5 C 521.5,241.833 521.5,243.167 521.5,244.5C 520.167,247.167 518.833,249.833 517.5,252.5C 517.5,251.833 517.5,251.167 517.5,250.5C 518.167,248.167 518.833,245.833 519.5,243.5C 520.167,242.5 520.833,241.5 521.5,240.5 Z"/></g>
<g><path style="opacity:1" fill="#6cdbd4" d="M 126.5,248.5 C 124.786,249.738 122.786,250.405 120.5,250.5C 120.167,250.5 119.833,250.5 119.5,250.5C 121.515,249.076 123.848,248.41 126.5,248.5 Z"/></g>
<g><path style="opacity:1" fill="#add7eb" d="M 126.5,248.5 C 127.833,248.5 129.167,248.5 130.5,248.5C 127.495,250.277 124.162,251.277 120.5,251.5C 120.5,251.167 120.5,250.833 120.5,250.5C 122.786,250.405 124.786,249.738 126.5,248.5 Z"/></g>
<g><path style="opacity:1" fill="#8dd9df" d="M 116.5,250.5 C 117.5,250.5 118.5,250.5 119.5,250.5C 119.833,250.5 120.167,250.5 120.5,250.5C 120.5,250.833 120.5,251.167 120.5,251.5C 118.194,251.993 115.861,252.326 113.5,252.5C 114.5,251.833 115.5,251.167 116.5,250.5 Z"/></g>
<g><path style="opacity:1" fill="#34debf" d="M 116.5,250.5 C 115.5,251.167 114.5,251.833 113.5,252.5C 113.158,253.338 112.492,253.672 111.5,253.5C 109.973,253.427 108.973,254.094 108.5,255.5C 106.326,255.75 104.659,256.75 103.5,258.5C 102.5,258.833 101.833,259.5 101.5,260.5C 100.833,260.5 100.167,260.5 99.5,260.5C 99.5,259.5 99.5,258.5 99.5,257.5C 103.588,255.598 107.588,253.432 111.5,251C 113.134,250.506 114.801,250.34 116.5,250.5 Z"/></g>
<g><path style="opacity:1" fill="#8fd9e0" d="M 111.5,253.5 C 111.027,254.906 110.027,255.573 108.5,255.5C 108.973,254.094 109.973,253.427 111.5,253.5 Z"/></g>
<g><path style="opacity:1" fill="#b2d6eb" d="M 517.5,250.5 C 517.5,251.167 517.5,251.833 517.5,252.5C 515.926,254.102 515.259,256.102 515.5,258.5C 515.008,260.819 514.008,262.819 512.5,264.5C 512.449,260.095 513.449,255.928 515.5,252C 515.836,250.97 516.503,250.47 517.5,250.5 Z"/></g>
<g><path style="opacity:1" fill="#80dadb" d="M 108.5,255.5 C 107.341,257.25 105.674,258.25 103.5,258.5C 104.659,256.75 106.326,255.75 108.5,255.5 Z"/></g>
<g><path style="opacity:1" fill="#77d9d6" d="M 517.5,252.5 C 517.741,254.898 517.074,256.898 515.5,258.5C 515.259,256.102 515.926,254.102 517.5,252.5 Z"/></g>
<g><path style="opacity:0.982" fill="#28d0ae" d="M 547.5,256.5 C 547.072,259.785 546.072,262.785 544.5,265.5C 537.077,262.237 530.41,263.404 524.5,269C 508.725,290.442 490.558,309.608 470,326.5C 464.778,338.015 468.278,345.015 480.5,347.5C 480.5,348.167 480.167,348.5 479.5,348.5C 470.736,348.236 466.069,343.736 465.5,335C 466.386,332.192 466.553,329.359 466,326.5C 465.329,327.252 464.496,327.586 463.5,327.5C 464.167,326.5 464.833,325.5 465.5,324.5C 467.749,323.92 469.415,322.587 470.5,320.5C 470.5,319.833 470.833,319.5 471.5,319.5C 475.438,316.902 479.105,313.902 482.5,310.5C 482.517,312.028 483.184,312.528 484.5,312C 491.569,303.989 498.736,296.156 506,288.5C 512.906,278.057 519.739,267.557 526.5,257C 533.345,252.546 540.345,252.379 547.5,256.5 Z"/></g>
<g><path style="opacity:0.987" fill="#2ecaaa" d="M 544.5,265.5 C 544.396,267.703 543.73,269.703 542.5,271.5C 535.484,268.668 529.15,269.835 523.5,275C 508.667,293.833 491.833,310.667 473,325.5C 467.018,336.113 469.852,343.113 481.5,346.5C 481.5,347.167 481.167,347.5 480.5,347.5C 468.278,345.015 464.778,338.015 470,326.5C 490.558,309.608 508.725,290.442 524.5,269C 530.41,263.404 537.077,262.237 544.5,265.5 Z"/></g>
<g><path style="opacity:1" fill="#a1d8e6" d="M 99.5,260.5 C 100.167,260.5 100.833,260.5 101.5,260.5C 98.1667,264.5 94.5,268.167 90.5,271.5C 90.5569,270.391 90.8902,269.391 91.5,268.5C 94.5,266.167 97.1667,263.5 99.5,260.5 Z"/></g>
<g><path style="opacity:1" fill="#72d8d3" d="M 512.5,266.5 C 512.573,268.027 511.906,269.027 510.5,269.5C 510.5,268.833 510.5,268.167 510.5,267.5C 511.167,267.167 511.833,266.833 512.5,266.5 Z"/></g>
<g><path style="opacity:1" fill="#abd5e8" d="M 510.5,267.5 C 510.5,268.167 510.5,268.833 510.5,269.5C 509.89,270.391 509.557,271.391 509.5,272.5C 508.833,272.833 508.167,273.167 507.5,273.5C 507.992,271.181 508.992,269.181 510.5,267.5 Z"/></g>
<g><path style="opacity:0.982" fill="#35c4a7" d="M 542.5,271.5 C 541.736,274.018 540.736,276.351 539.5,278.5C 532.863,276.44 526.863,277.607 521.5,282C 507.912,297.757 492.912,311.924 476.5,324.5C 471.268,330.773 471.268,336.94 476.5,343C 478.65,344.411 480.984,345.245 483.5,345.5C 483.158,346.338 482.492,346.672 481.5,346.5C 469.852,343.113 467.018,336.113 473,325.5C 491.833,310.667 508.667,293.833 523.5,275C 529.15,269.835 535.484,268.668 542.5,271.5 Z"/></g>
<g><path style="opacity:1" fill="#85d9dc" d="M 90.5,271.5 C 90.2624,273.404 89.2624,274.738 87.5,275.5C 87.7376,273.596 88.7376,272.262 90.5,271.5 Z"/></g>
<g><path style="opacity:1" fill="#5cd8c9" d="M 509.5,272.5 C 507.954,279.265 504.62,284.932 499.5,289.5C 500.167,287.5 500.833,285.5 501.5,283.5C 504.474,280.908 506.474,277.575 507.5,273.5C 508.167,273.167 508.833,272.833 509.5,272.5 Z"/></g>
<g><path style="opacity:0.975" fill="#3cbda3" d="M 539.5,278.5 C 538.773,280.954 537.773,283.287 536.5,285.5C 530.395,282.627 524.728,283.46 519.5,288C 507.937,299.067 496.271,309.9 484.5,320.5C 482.873,322.63 481.04,324.63 479,326.5C 474.675,334.849 476.841,340.849 485.5,344.5C 484.833,344.833 484.167,345.167 483.5,345.5C 480.984,345.245 478.65,344.411 476.5,343C 471.268,336.94 471.268,330.773 476.5,324.5C 492.912,311.924 507.912,297.757 521.5,282C 526.863,277.607 532.863,276.44 539.5,278.5 Z"/></g>
<g><path style="opacity:1" fill="#7fd9d9" d="M 87.5,275.5 C 87.4828,277.565 87.1495,279.565 86.5,281.5C 86.1667,281.5 85.8333,281.5 85.5,281.5C 85.2594,279.102 85.9261,277.102 87.5,275.5 Z"/></g>
<g><path style="opacity:1" fill="#b6d4eb" d="M 507.5,273.5 C 506.474,277.575 504.474,280.908 501.5,283.5C 501.238,282.022 501.571,280.689 502.5,279.5C 504.171,277.373 505.837,275.373 507.5,273.5 Z"/></g>
<g><path style="opacity:0.975" fill="#41b8a0" d="M 536.5,285.5 C 535.5,287.5 534.5,289.5 533.5,291.5C 528.278,289.839 523.278,290.339 518.5,293C 508.647,301.097 498.98,309.43 489.5,318C 487.922,319.094 486.255,319.928 484.5,320.5C 496.271,309.9 507.937,299.067 519.5,288C 524.728,283.46 530.395,282.627 536.5,285.5 Z"/></g>
<g><path style="opacity:1" fill="#b6d6ed" d="M 85.5,281.5 C 85.8333,281.5 86.1667,281.5 86.5,281.5C 85.5574,298.472 85.224,315.472 85.5,332.5C 84.5038,317.342 84.1705,302.009 84.5,286.5C 85.038,284.883 85.3713,283.216 85.5,281.5 Z"/></g>
<g><path style="opacity:1" fill="#c2d2ee" d="M 492.5,296.5 C 490.748,298.246 489.415,300.246 488.5,302.5C 482.5,307.833 476.833,313.5 471.5,319.5C 470.833,319.5 470.5,319.833 470.5,320.5C 468.251,321.08 466.585,322.413 465.5,324.5C 462.357,326.242 459.357,328.242 456.5,330.5C 456.338,328.473 456.505,326.473 457,324.5C 468.092,316.079 478.592,306.912 488.5,297C 489.793,296.51 491.127,296.343 492.5,296.5 Z"/></g>
<g><path style="opacity:0.969" fill="#4fac99" d="M 527.5,300.5 C 526.876,302.754 525.543,304.421 523.5,305.5C 522.376,304.191 520.876,303.525 519,303.5C 514.9,304.299 511.066,305.799 507.5,308C 499.045,314.12 490.879,320.62 483,327.5C 479.739,334.296 481.572,338.962 488.5,341.5C 488.5,342.167 488.167,342.5 487.5,342.5C 479.18,339.222 477.347,333.555 482,325.5C 491.677,317.073 501.844,309.239 512.5,302C 515.592,300.136 518.926,298.969 522.5,298.5C 524.557,298.436 526.223,299.102 527.5,300.5 Z"/></g>
<g><path style="opacity:1" fill="#6fd6cf" d="M 499.5,289.5 C 496.544,294.399 492.877,298.732 488.5,302.5C 489.415,300.246 490.748,298.246 492.5,296.5C 494.473,293.861 496.806,291.527 499.5,289.5 Z"/></g>
<g><path style="opacity:0.963" fill="#54a796" d="M 523.5,305.5 C 522.551,307.777 521.218,309.777 519.5,311.5C 517.205,309.615 514.538,309.115 511.5,310C 505.964,311.724 501.297,314.724 497.5,319C 495.044,320.711 492.377,322.044 489.5,323C 488.667,325.167 487.167,326.667 485,327.5C 481.921,333.591 483.421,337.924 489.5,340.5C 489.5,341.167 489.167,341.5 488.5,341.5C 481.572,338.962 479.739,334.296 483,327.5C 490.879,320.62 499.045,314.12 507.5,308C 511.066,305.799 514.9,304.299 519,303.5C 520.876,303.525 522.376,304.191 523.5,305.5 Z"/></g>
<g><path style="opacity:1" fill="#6ad4cb" d="M 488.5,302.5 C 486.909,305.431 484.909,308.098 482.5,310.5C 479.105,313.902 475.438,316.902 471.5,319.5C 476.833,313.5 482.5,307.833 488.5,302.5 Z"/></g>
<g><path style="opacity:0.949" fill="#5aa193" d="M 519.5,311.5 C 517.727,314.06 515.727,316.393 513.5,318.5C 511.862,317.841 510.195,317.174 508.5,316.5C 500.499,318.581 493.665,322.581 488,328.5C 485.562,333.571 487.062,336.905 492.5,338.5C 492.027,339.906 491.027,340.573 489.5,340.5C 483.421,337.924 481.921,333.591 485,327.5C 487.167,326.667 488.667,325.167 489.5,323C 492.377,322.044 495.044,320.711 497.5,319C 501.297,314.724 505.964,311.724 511.5,310C 514.538,309.115 517.205,309.615 519.5,311.5 Z"/></g>
<g><path style="opacity:0.973" fill="#629a8f" d="M 513.5,318.5 C 507.132,325.869 500.132,332.536 492.5,338.5C 487.062,336.905 485.562,333.571 488,328.5C 493.665,322.581 500.499,318.581 508.5,316.5C 510.195,317.174 511.862,317.841 513.5,318.5 Z"/></g>
<g><path style="opacity:1" fill="#63d2c7" d="M 470.5,320.5 C 469.415,322.587 467.749,323.92 465.5,324.5C 466.585,322.413 468.251,321.08 470.5,320.5 Z"/></g>
<g><path style="opacity:1" fill="#48b29c" d="M 533.5,291.5 C 531.735,294.709 529.735,297.709 527.5,300.5C 526.223,299.102 524.557,298.436 522.5,298.5C 518.926,298.969 515.592,300.136 512.5,302C 501.844,309.239 491.677,317.073 482,325.5C 477.347,333.555 479.18,339.222 487.5,342.5C 487.167,343.5 486.5,344.167 485.5,344.5C 476.841,340.849 474.675,334.849 479,326.5C 481.04,324.63 482.873,322.63 484.5,320.5C 486.255,319.928 487.922,319.094 489.5,318C 498.98,309.43 508.647,301.097 518.5,293C 523.278,290.339 528.278,289.839 533.5,291.5 Z"/></g>
<g><path style="opacity:1" fill="#70d6d0" d="M 465.5,324.5 C 464.833,325.5 464.167,326.5 463.5,327.5C 461.15,328.861 458.816,330.194 456.5,331.5C 456.5,331.167 456.5,330.833 456.5,330.5C 459.357,328.242 462.357,326.242 465.5,324.5 Z"/></g>
<g><path style="opacity:1" fill="#21dab4" d="M 479.5,348.5 C 479.158,349.338 478.492,349.672 477.5,349.5C 471.12,349.607 464.787,349.107 458.5,348C 456.755,344.434 455.589,340.601 455,336.5C 450.996,338.586 446.829,340.252 442.5,341.5C 442.833,340.833 443.167,340.167 443.5,339.5C 445.777,338.551 447.777,337.218 449.5,335.5C 450.492,335.672 451.158,335.338 451.5,334.5C 453.933,334.727 455.599,333.727 456.5,331.5C 458.816,330.194 461.15,328.861 463.5,327.5C 464.496,327.586 465.329,327.252 466,326.5C 466.553,329.359 466.386,332.192 465.5,335C 466.069,343.736 470.736,348.236 479.5,348.5 Z"/></g>
<g><path style="opacity:1" fill="#7bd9d8" d="M 456.5,331.5 C 455.599,333.727 453.933,334.727 451.5,334.5C 452.899,333.11 454.566,332.11 456.5,331.5 Z"/></g>
<g><path style="opacity:0.996" fill="#17dfb7" d="M 477.5,349.5 C 476.499,350.789 476.666,352.122 478,353.5C 495.333,376.167 512.667,398.833 530,421.5C 540.17,437.54 543.337,454.873 539.5,473.5C 530.232,469.099 520.565,466.765 510.5,466.5C 501.431,485.403 487.097,498.569 467.5,506C 463.833,506.667 460.167,506.667 456.5,506C 442.882,501.709 431.382,494.209 422,483.5C 397.087,448.008 372.42,412.341 348,376.5C 344.762,371.592 340.595,367.759 335.5,365C 339.688,364.824 343.688,364.324 347.5,363.5C 360.5,363.083 373.5,362.583 386.5,362C 391.524,360.773 396.524,359.44 401.5,358C 402.056,357.617 402.389,357.117 402.5,356.5C 406.915,356.139 410.915,354.806 414.5,352.5C 419.703,351.991 424.37,350.324 428.5,347.5C 431.025,347.023 433.025,345.69 434.5,343.5C 435.167,343.5 435.833,343.5 436.5,343.5C 438.858,343.747 440.858,343.081 442.5,341.5C 446.829,340.252 450.996,338.586 455,336.5C 455.589,340.601 456.755,344.434 458.5,348C 464.787,349.107 471.12,349.607 477.5,349.5 Z"/></g>
<g><path style="opacity:1" fill="#85dadc" d="M 449.5,335.5 C 447.777,337.218 445.777,338.551 443.5,339.5C 444.708,336.956 446.708,335.622 449.5,335.5 Z"/></g>
<g><path style="opacity:1" fill="#9bd8e4" d="M 440.5,340.5 C 439.713,342.104 438.38,342.771 436.5,342.5C 437.514,341.326 438.847,340.66 440.5,340.5 Z"/></g>
<g><path style="opacity:1" fill="#4fddc9" d="M 443.5,339.5 C 443.167,340.167 442.833,340.833 442.5,341.5C 440.858,343.081 438.858,343.747 436.5,343.5C 436.5,343.167 436.5,342.833 436.5,342.5C 438.38,342.771 439.713,342.104 440.5,340.5C 441.391,339.89 442.391,339.557 443.5,339.5 Z"/></g>
<g><path style="opacity:1" fill="#7ad9d8" d="M 84.5,286.5 C 84.1705,302.009 84.5038,317.342 85.5,332.5C 85.5,340.5 85.5,348.5 85.5,356.5C 85.5,366.167 85.5,375.833 85.5,385.5C 84.8333,369.5 84.1667,353.5 83.5,337.5C 83.1701,320.325 83.5034,303.325 84.5,286.5 Z"/></g>
<g><path style="opacity:1" fill="#a0d8e6" d="M 434.5,343.5 C 433.025,345.69 431.025,347.023 428.5,347.5C 427.833,347.5 427.167,347.5 426.5,347.5C 428.942,345.874 431.609,344.541 434.5,343.5 Z"/></g>
<g><path style="opacity:1" fill="#67dbd2" d="M 426.5,347.5 C 427.167,347.5 427.833,347.5 428.5,347.5C 424.37,350.324 419.703,351.991 414.5,352.5C 418.5,350.833 422.5,349.167 426.5,347.5 Z"/></g>
<g><path style="opacity:1" fill="#a9d8e9" d="M 408.5,353.5 C 406.5,354.5 404.5,355.5 402.5,356.5C 401.833,356.5 401.167,356.5 400.5,356.5C 402.391,353.828 405.058,352.828 408.5,353.5 Z"/></g>
<g><path style="opacity:1" fill="#5bdccd" d="M 414.5,352.5 C 410.915,354.806 406.915,356.139 402.5,356.5C 404.5,355.5 406.5,354.5 408.5,353.5C 410.435,352.85 412.435,352.517 414.5,352.5 Z"/></g>
<g><path style="opacity:1" fill="#b6d7ee" d="M 398.5,356.5 C 396.626,357.285 394.626,357.952 392.5,358.5C 390.167,358.5 387.833,358.5 385.5,358.5C 384.167,358.5 382.833,358.5 381.5,358.5C 382.609,357.71 383.942,357.21 385.5,357C 389.821,356.501 394.154,356.334 398.5,356.5 Z"/></g>
<g><path style="opacity:1" fill="#8fd9e0" d="M 381.5,358.5 C 382.833,358.5 384.167,358.5 385.5,358.5C 380.189,359.645 374.856,360.645 369.5,361.5C 352.848,362.333 336.181,362.666 319.5,362.5C 312.5,362.5 305.5,362.5 298.5,362.5C 317.662,361.668 336.996,361.168 356.5,361C 364.865,360.383 373.198,359.55 381.5,358.5 Z"/></g>
<g><path style="opacity:1" fill="#59dccd" d="M 385.5,358.5 C 387.833,358.5 390.167,358.5 392.5,358.5C 385.098,360.508 377.432,361.508 369.5,361.5C 374.856,360.645 380.189,359.645 385.5,358.5 Z"/></g>
<g><path style="opacity:1" fill="#b1d7ec" d="M 210.5,363.5 C 210.5,363.833 210.5,364.167 210.5,364.5C 193.818,364.313 177.151,364.647 160.5,365.5C 159.833,365.5 159.167,365.5 158.5,365.5C 159.952,364.698 161.618,364.198 163.5,364C 179.163,363.5 194.83,363.333 210.5,363.5 Z"/></g>
<g><path style="opacity:1" fill="#8bd6dc" d="M 297.5,362.5 C 274.647,363.207 251.647,363.874 228.5,364.5C 222.5,364.5 216.5,364.5 210.5,364.5C 210.5,364.167 210.5,363.833 210.5,363.5C 239.491,362.65 268.491,362.317 297.5,362.5 Z"/></g>
<g><path style="opacity:0.998" fill="#1adcb5" d="M 347.5,363.5 C 343.688,364.324 339.688,364.824 335.5,365C 340.595,367.759 344.762,371.592 348,376.5C 372.42,412.341 397.087,448.008 422,483.5C 431.382,494.209 442.882,501.709 456.5,506C 460.167,506.667 463.833,506.667 467.5,506C 487.097,498.569 501.431,485.403 510.5,466.5C 520.565,466.765 530.232,469.099 539.5,473.5C 539.672,474.492 539.338,475.158 538.5,475.5C 530.883,471.925 522.883,470.758 514.5,472C 506.875,483.292 497.542,492.958 486.5,501C 469.861,510.953 453.194,510.953 436.5,501C 429.456,496.962 423.289,491.796 418,485.5C 392.61,449.776 367.61,413.776 343,377.5C 337.51,370.846 330.677,366.346 322.5,364C 330.827,363.5 339.16,363.334 347.5,363.5 Z"/></g>
<g><path style="opacity:0.998" fill="#38cdb1" d="M 297.5,362.5 C 297.833,362.5 298.167,362.5 298.5,362.5C 305.5,362.5 312.5,362.5 319.5,362.5C 312.5,363.167 305.5,363.833 298.5,364.5C 296.801,364.34 295.134,364.506 293.5,365C 297.688,365.176 301.688,365.676 305.5,366.5C 284.497,366.333 263.497,366.5 242.5,367C 225.131,368.35 217.298,377.516 219,394.5C 221.901,398.025 225.401,400.692 229.5,402.5C 229.5,402.833 229.5,403.167 229.5,403.5C 222.695,401.194 218.028,396.694 215.5,390C 216.859,375.308 224.859,367.308 239.5,366C 236.183,365.502 232.85,365.335 229.5,365.5C 229.167,365.5 228.833,365.5 228.5,365.5C 228.5,365.167 228.5,364.833 228.5,364.5C 251.647,363.874 274.647,363.207 297.5,362.5 Z"/></g>
<g><path style="opacity:1" fill="#22d6b1" d="M 398.5,356.5 C 399.167,356.5 399.833,356.5 400.5,356.5C 401.167,356.5 401.833,356.5 402.5,356.5C 402.389,357.117 402.056,357.617 401.5,358C 396.524,359.44 391.524,360.773 386.5,362C 373.5,362.583 360.5,363.083 347.5,363.5C 339.16,363.334 330.827,363.5 322.5,364C 330.677,366.346 337.51,370.846 343,377.5C 367.61,413.776 392.61,449.776 418,485.5C 423.289,491.796 429.456,496.962 436.5,501C 453.194,510.953 469.861,510.953 486.5,501C 497.542,492.958 506.875,483.292 514.5,472C 522.883,470.758 530.883,471.925 538.5,475.5C 538.5,476.5 538.5,477.5 538.5,478.5C 531.337,475.417 524.004,474.917 516.5,477C 511.188,482.621 505.854,488.288 500.5,494C 496.233,496.927 492.233,500.26 488.5,504C 483.352,505.768 478.352,507.601 473.5,509.5C 463.19,510.752 452.857,510.752 442.5,509.5C 440.786,508.262 438.786,507.595 436.5,507.5C 433.568,506.2 431.234,504.2 429.5,501.5C 428.212,497.718 425.545,495.551 421.5,495C 416.646,490.114 412.146,484.947 408,479.5C 384.723,445.224 361.056,411.224 337,377.5C 326.094,367.741 313.261,363.408 298.5,364.5C 305.5,363.833 312.5,363.167 319.5,362.5C 336.181,362.666 352.848,362.333 369.5,361.5C 377.432,361.508 385.098,360.508 392.5,358.5C 394.626,357.952 396.626,357.285 398.5,356.5 Z"/></g>
<g><path style="opacity:0.998" fill="#1ddbb5" d="M 228.5,365.5 C 228.833,365.5 229.167,365.5 229.5,365.5C 216.637,370.194 211.137,379.527 213,393.5C 216.47,400.316 221.97,404.316 229.5,405.5C 229.5,406.833 229.5,408.167 229.5,409.5C 208.638,407.439 200.805,396.105 206,375.5C 206.452,372.851 207.286,370.351 208.5,368C 180.608,366.611 152.941,368.445 125.5,373.5C 126.5,372.833 127.5,372.167 128.5,371.5C 128.833,371.5 129.167,371.5 129.5,371.5C 135.326,370.736 140.993,369.736 146.5,368.5C 173.766,365.973 201.099,364.973 228.5,365.5 Z"/></g>
<g><path style="opacity:0.999" fill="#34c4a7" d="M 305.5,366.5 C 308.054,367.388 310.721,367.721 313.5,367.5C 322.085,370.218 329.585,374.885 336,381.5C 361.333,417.5 386.667,453.5 412,489.5C 414.436,492.447 417.269,494.78 420.5,496.5C 423.339,498.42 426.339,500.087 429.5,501.5C 431.234,504.2 433.568,506.2 436.5,507.5C 425.609,503.794 416.443,497.461 409,488.5C 385.754,455.675 362.754,422.675 340,389.5C 331.683,376.515 319.85,369.348 304.5,368C 282.134,367.078 259.801,367.412 237.5,369C 225.546,372.286 219.713,380.119 220,392.5C 222.747,395.754 225.914,398.42 229.5,400.5C 229.5,401.167 229.5,401.833 229.5,402.5C 225.401,400.692 221.901,398.025 219,394.5C 217.298,377.516 225.131,368.35 242.5,367C 263.497,366.5 284.497,366.333 305.5,366.5 Z"/></g>
<g><path style="opacity:1" fill="#98d8e3" d="M 158.5,365.5 C 159.167,365.5 159.833,365.5 160.5,365.5C 155.833,366.5 151.167,367.5 146.5,368.5C 141.141,368.67 135.808,369.17 130.5,370C 129.944,370.383 129.611,370.883 129.5,371.5C 129.167,371.5 128.833,371.5 128.5,371.5C 128.167,371.5 127.833,371.5 127.5,371.5C 127.953,370.542 128.619,369.708 129.5,369C 139.165,367.75 148.832,366.583 158.5,365.5 Z"/></g>
<g><path style="opacity:1" fill="#50dcc9" d="M 210.5,364.5 C 216.5,364.5 222.5,364.5 228.5,364.5C 228.5,364.833 228.5,365.167 228.5,365.5C 201.099,364.973 173.766,365.973 146.5,368.5C 151.167,367.5 155.833,366.5 160.5,365.5C 177.151,364.647 193.818,364.313 210.5,364.5 Z"/></g>
<g><path style="opacity:0.999" fill="#17dfb7" d="M 229.5,409.5 C 229.787,430.193 229.454,450.86 228.5,471.5C 221.151,468.771 213.818,465.938 206.5,463C 204.5,462.333 202.5,462.333 200.5,463C 189.417,487.083 170.917,501.916 145,507.5C 118.476,501.977 100.143,486.644 90,461.5C 84.9854,439.569 83.3187,417.235 85,394.5C 87.3732,395.543 89.5399,395.21 91.5,393.5C 93.8116,392.522 95.4782,390.855 96.5,388.5C 99.0245,386.823 101.691,385.323 104.5,384C 105.71,382.961 106.71,381.794 107.5,380.5C 107.5,379.833 107.833,379.5 108.5,379.5C 110.027,379.573 111.027,378.906 111.5,377.5C 112.167,377.5 112.833,377.5 113.5,377.5C 117.708,377.323 121.374,375.99 124.5,373.5C 124.833,373.5 125.167,373.5 125.5,373.5C 152.941,368.445 180.608,366.611 208.5,368C 207.286,370.351 206.452,372.851 206,375.5C 200.805,396.105 208.638,407.439 229.5,409.5 Z"/></g>
<g><path style="opacity:1" fill="#2ecaaa" d="M 313.5,367.5 C 324.065,368.88 332.565,373.88 339,382.5C 362.58,415.992 385.913,449.659 409,483.5C 412.67,488.002 416.503,492.335 420.5,496.5C 417.269,494.78 414.436,492.447 412,489.5C 386.667,453.5 361.333,417.5 336,381.5C 329.585,374.885 322.085,370.218 313.5,367.5 Z"/></g>
<g><path style="opacity:1" fill="#54dccb" d="M 146.5,368.5 C 140.993,369.736 135.326,370.736 129.5,371.5C 129.611,370.883 129.944,370.383 130.5,370C 135.808,369.17 141.141,368.67 146.5,368.5 Z"/></g>
<g><path style="opacity:1" fill="#b4d6ec" d="M 85.5,356.5 C 86.695,367.004 87.695,377.671 88.5,388.5C 90.1667,388.5 91.8333,388.5 93.5,388.5C 93.5,388.833 93.5,389.167 93.5,389.5C 91.8583,391.081 89.8583,391.747 87.5,391.5C 87.405,389.214 86.7384,387.214 85.5,385.5C 85.5,375.833 85.5,366.167 85.5,356.5 Z"/></g>
<g><path style="opacity:1" fill="#73dbd6" d="M 127.5,371.5 C 127.833,371.5 128.167,371.5 128.5,371.5C 127.5,372.167 126.5,372.833 125.5,373.5C 125.167,373.5 124.833,373.5 124.5,373.5C 123.167,373.833 121.833,374.167 120.5,374.5C 122.32,372.552 124.654,371.552 127.5,371.5 Z"/></g>
<g><path style="opacity:1" fill="#86dadd" d="M 116.5,375.5 C 115.5,376.167 114.5,376.833 113.5,377.5C 112.833,377.5 112.167,377.5 111.5,377.5C 112.635,375.787 114.302,375.12 116.5,375.5 Z"/></g>
<g><path style="opacity:1" fill="#40dec4" d="M 124.5,373.5 C 121.374,375.99 117.708,377.323 113.5,377.5C 114.5,376.833 115.5,376.167 116.5,375.5C 117.708,374.766 119.041,374.433 120.5,374.5C 121.833,374.167 123.167,373.833 124.5,373.5 Z"/></g>
<g><path style="opacity:1" fill="#6e8f88" d="M 305.5,376.5 C 310.745,378.993 316.078,381.326 321.5,383.5C 322.833,384.167 323.833,385.167 324.5,386.5C 326.177,389.025 327.677,391.691 329,394.5C 329.768,398.92 329.602,403.253 328.5,407.5C 326.147,405.14 324.147,402.473 322.5,399.5C 323.933,397.086 324.433,394.419 324,391.5C 317.813,384.322 309.98,380.155 300.5,379C 283.167,378.333 265.833,378.333 248.5,379C 243.558,380.916 239.391,384.083 236,388.5C 235.517,389.448 235.351,390.448 235.5,391.5C 234.5,391.5 233.5,391.5 232.5,391.5C 232.818,387.199 234.485,383.532 237.5,380.5C 241.38,379.029 245.38,377.862 249.5,377C 268.164,376.5 286.83,376.333 305.5,376.5 Z"/></g>
<g><path style="opacity:1" fill="#3fbaa1" d="M 436.5,507.5 C 438.786,507.595 440.786,508.262 442.5,509.5C 442.833,510.167 443.167,510.833 443.5,511.5C 438.654,510.773 433.987,509.44 429.5,507.5C 425.836,505.505 422.17,503.505 418.5,501.5C 410.827,494.992 403.994,487.659 398,479.5C 376.609,449.108 355.609,418.441 335,387.5C 328.615,379.237 320.449,373.904 310.5,371.5C 308.345,371.628 306.345,371.128 304.5,370C 284.833,369.333 265.167,369.333 245.5,370C 231.738,371.424 224.571,378.924 224,392.5C 225.451,394.464 227.284,395.797 229.5,396.5C 229.5,397.833 229.5,399.167 229.5,400.5C 225.914,398.42 222.747,395.754 220,392.5C 219.713,380.119 225.546,372.286 237.5,369C 259.801,367.412 282.134,367.078 304.5,368C 319.85,369.348 331.683,376.515 340,389.5C 362.754,422.675 385.754,455.675 409,488.5C 416.443,497.461 425.609,503.794 436.5,507.5 Z"/></g>
<g><path style="opacity:1" fill="#4cae9a" d="M 310.5,371.5 C 320.234,374.866 327.9,380.866 333.5,389.5C 329.335,385.503 325.002,381.67 320.5,378C 316.202,375.421 311.535,373.755 306.5,373C 283.506,371.04 260.506,371.04 237.5,373C 232.014,377.406 228.347,383.072 226.5,390C 226.748,391.749 227.748,392.582 229.5,392.5C 229.5,393.833 229.5,395.167 229.5,396.5C 227.284,395.797 225.451,394.464 224,392.5C 224.571,378.924 231.738,371.424 245.5,370C 265.167,369.333 284.833,369.333 304.5,370C 306.345,371.128 308.345,371.628 310.5,371.5 Z"/></g>
<g><path style="opacity:1" fill="#77dad8" d="M 111.5,377.5 C 111.027,378.906 110.027,379.573 108.5,379.5C 108.973,378.094 109.973,377.427 111.5,377.5 Z"/></g>
<g><path style="opacity:1" fill="#33ddbf" d="M 83.5,337.5 C 84.1667,353.5 84.8333,369.5 85.5,385.5C 86.7384,387.214 87.405,389.214 87.5,391.5C 89.8583,391.747 91.8583,391.081 93.5,389.5C 94.391,388.89 95.391,388.557 96.5,388.5C 95.4782,390.855 93.8116,392.522 91.5,393.5C 89.8333,393.5 88.1667,393.5 86.5,393.5C 85.6897,391.202 84.8564,388.868 84,386.5C 83.5001,370.17 83.3334,353.837 83.5,337.5 Z"/></g>
<g><path style="opacity:0.991" fill="#7f7f7f" d="M 320.5,395.5 C 319.5,395.167 318.833,394.5 318.5,393.5C 318.607,391.097 317.607,389.264 315.5,388C 311.186,385.34 306.519,383.673 301.5,383C 285.5,382.333 269.5,382.333 253.5,383C 247.64,383.725 243.307,386.558 240.5,391.5C 239.5,391.5 238.5,391.5 237.5,391.5C 240.596,384.774 245.929,381.274 253.5,381C 269.5,380.333 285.5,380.333 301.5,381C 309.257,381.691 315.757,384.858 321,390.5C 321.64,392.265 321.473,393.932 320.5,395.5 Z"/></g>
<g><path style="opacity:1" fill="#98d9e3" d="M 104.5,381.5 C 101.265,383.061 98.5984,385.394 96.5,388.5C 95.391,388.557 94.391,388.89 93.5,389.5C 93.5,389.167 93.5,388.833 93.5,388.5C 96.379,384.959 100.046,382.626 104.5,381.5 Z"/></g>
<g><path style="opacity:1" fill="#44ddc5" d="M 107.5,380.5 C 106.71,381.794 105.71,382.961 104.5,384C 101.691,385.323 99.0245,386.823 96.5,388.5C 98.5984,385.394 101.265,383.061 104.5,381.5C 105.391,380.89 106.391,380.557 107.5,380.5 Z"/></g>
<g><path style="opacity:1" fill="#85797b" d="M 318.5,393.5 C 317.778,392.449 316.778,391.782 315.5,391.5C 312.68,388.919 309.346,387.086 305.5,386C 287.49,384.031 269.49,384.031 251.5,386C 247.93,386.611 245.263,388.444 243.5,391.5C 242.5,391.5 241.5,391.5 240.5,391.5C 243.307,386.558 247.64,383.725 253.5,383C 269.5,382.333 285.5,382.333 301.5,383C 306.519,383.673 311.186,385.34 315.5,388C 317.607,389.264 318.607,391.097 318.5,393.5 Z"/></g>
<g><path style="opacity:1" fill="#788683" d="M 322.5,399.5 C 321.4,398.395 320.733,397.062 320.5,395.5C 321.473,393.932 321.64,392.265 321,390.5C 315.757,384.858 309.257,381.691 301.5,381C 285.5,380.333 269.5,380.333 253.5,381C 245.929,381.274 240.596,384.774 237.5,391.5C 236.833,391.5 236.167,391.5 235.5,391.5C 235.351,390.448 235.517,389.448 236,388.5C 239.391,384.083 243.558,380.916 248.5,379C 265.833,378.333 283.167,378.333 300.5,379C 309.98,380.155 317.813,384.322 324,391.5C 324.433,394.419 323.933,397.086 322.5,399.5 Z"/></g>
<g><path style="opacity:1" fill="#4fac99" d="M 333.5,391.5 C 333.5,391.167 333.5,390.833 333.5,390.5C 353.517,418.808 373.351,447.475 393,476.5C 398.981,484.751 405.814,492.251 413.5,499C 415.078,500.094 416.745,500.928 418.5,501.5C 422.17,503.505 425.836,505.505 429.5,507.5C 430.306,508.728 431.306,509.728 432.5,510.5C 431.833,510.5 431.167,510.5 430.5,510.5C 430.167,510.5 429.833,510.5 429.5,510.5C 425.23,507.429 420.563,504.929 415.5,503C 412.838,500.015 409.838,497.515 406.5,495.5C 397.692,485.226 389.359,474.559 381.5,463.5C 365.036,439.722 349.036,415.722 333.5,391.5 Z"/></g>
<g><path style="opacity:1" fill="#29cead" d="M 298.5,364.5 C 313.261,363.408 326.094,367.741 337,377.5C 361.056,411.224 384.723,445.224 408,479.5C 412.146,484.947 416.646,490.114 421.5,495C 425.545,495.551 428.212,497.718 429.5,501.5C 426.339,500.087 423.339,498.42 420.5,496.5C 416.503,492.335 412.67,488.002 409,483.5C 385.913,449.659 362.58,415.992 339,382.5C 332.565,373.88 324.065,368.88 313.5,367.5C 310.721,367.721 308.054,367.388 305.5,366.5C 301.688,365.676 297.688,365.176 293.5,365C 295.134,364.506 296.801,364.34 298.5,364.5 Z"/></g>
<g><path style="opacity:1" fill="#5aa193" d="M 333.5,389.5 C 333.5,389.833 333.5,390.167 333.5,390.5C 333.5,390.833 333.5,391.167 333.5,391.5C 336.032,397.568 338.866,403.568 342,409.5C 359.667,434.833 377.333,460.167 395,485.5C 398.512,489.533 402.345,492.866 406.5,495.5C 409.838,497.515 412.838,500.015 415.5,503C 420.563,504.929 425.23,507.429 429.5,510.5C 424.546,509.527 419.879,507.694 415.5,505C 406.499,499.728 397.999,493.561 390,486.5C 374,463.833 358,441.167 342,418.5C 337.942,409.661 334.276,400.661 331,391.5C 328.713,389.946 326.546,388.279 324.5,386.5C 323.833,385.167 322.833,384.167 321.5,383.5C 315.69,377.163 308.357,373.996 299.5,374C 283.833,373.333 268.167,373.333 252.5,374C 247.762,374.512 243.095,375.345 238.5,376.5C 233.453,380.226 230.453,385.226 229.5,391.5C 229.5,391.833 229.5,392.167 229.5,392.5C 227.748,392.582 226.748,391.749 226.5,390C 228.347,383.072 232.014,377.406 237.5,373C 260.506,371.04 283.506,371.04 306.5,373C 311.535,373.755 316.202,375.421 320.5,378C 325.002,381.67 329.335,385.503 333.5,389.5 Z"/></g>
<g><path style="opacity:1" fill="#8c7378" d="M 315.5,391.5 C 314.167,391.5 312.833,391.5 311.5,391.5C 309.266,389.554 306.599,388.387 303.5,388C 286.833,387.333 270.167,387.333 253.5,388C 250.975,388.424 248.975,389.59 247.5,391.5C 246.167,391.5 244.833,391.5 243.5,391.5C 245.263,388.444 247.93,386.611 251.5,386C 269.49,384.031 287.49,384.031 305.5,386C 309.346,387.086 312.68,388.919 315.5,391.5 Z"/></g>
<g><path style="opacity:1" fill="#936c74" d="M 311.5,391.5 C 290.167,391.5 268.833,391.5 247.5,391.5C 248.975,389.59 250.975,388.424 253.5,388C 270.167,387.333 286.833,387.333 303.5,388C 306.599,388.387 309.266,389.554 311.5,391.5 Z"/></g>
<g><path style="opacity:1" fill="#619b8f" d="M 321.5,383.5 C 316.078,381.326 310.745,378.993 305.5,376.5C 286.004,375.338 266.338,375.171 246.5,376C 242.965,376.663 239.965,378.163 237.5,380.5C 234.485,383.532 232.818,387.199 232.5,391.5C 231.5,391.5 230.5,391.5 229.5,391.5C 230.453,385.226 233.453,380.226 238.5,376.5C 243.095,375.345 247.762,374.512 252.5,374C 268.167,373.333 283.833,373.333 299.5,374C 308.357,373.996 315.69,377.163 321.5,383.5 Z"/></g>
<g><path style="opacity:1" fill="#68948b" d="M 305.5,376.5 C 286.83,376.333 268.164,376.5 249.5,377C 245.38,377.862 241.38,379.029 237.5,380.5C 239.965,378.163 242.965,376.663 246.5,376C 266.338,375.171 286.004,375.338 305.5,376.5 Z"/></g>
<g><path style="opacity:1" fill="#26d1ae" d="M 229.5,365.5 C 232.85,365.335 236.183,365.502 239.5,366C 224.859,367.308 216.859,375.308 215.5,390C 218.028,396.694 222.695,401.194 229.5,403.5C 229.5,404.167 229.5,404.833 229.5,405.5C 221.97,404.316 216.47,400.316 213,393.5C 211.137,379.527 216.637,370.194 229.5,365.5 Z"/></g>
<g><path style="opacity:0.897" fill="#609c90" d="M 324.5,386.5 C 326.546,388.279 328.713,389.946 331,391.5C 334.276,400.661 337.942,409.661 342,418.5C 358,441.167 374,463.833 390,486.5C 397.999,493.561 406.499,499.728 415.5,505C 419.879,507.694 424.546,509.527 429.5,510.5C 429.833,510.5 430.167,510.5 430.5,510.5C 431.167,511.5 431.833,512.5 432.5,513.5C 426.378,513.272 421.044,511.105 416.5,507C 412.315,506.242 408.315,504.909 404.5,503C 401.833,502.333 399.167,502.333 396.5,503C 395.944,503.383 395.611,503.883 395.5,504.5C 372.809,472.465 350.476,440.132 328.5,407.5C 329.602,403.253 329.768,398.92 329,394.5C 327.677,391.691 326.177,389.025 324.5,386.5 Z"/></g>
<g><path style="opacity:1" fill="#48b29c" d="M 310.5,371.5 C 320.449,373.904 328.615,379.237 335,387.5C 355.609,418.441 376.609,449.108 398,479.5C 403.994,487.659 410.827,494.992 418.5,501.5C 416.745,500.928 415.078,500.094 413.5,499C 405.814,492.251 398.981,484.751 393,476.5C 373.351,447.475 353.517,418.808 333.5,390.5C 333.5,390.167 333.5,389.833 333.5,389.5C 327.9,380.866 320.234,374.866 310.5,371.5 Z"/></g>
<g><path style="opacity:1" fill="#54a796" d="M 333.5,391.5 C 349.036,415.722 365.036,439.722 381.5,463.5C 389.359,474.559 397.692,485.226 406.5,495.5C 402.345,492.866 398.512,489.533 395,485.5C 377.333,460.167 359.667,434.833 342,409.5C 338.866,403.568 336.032,397.568 333.5,391.5 Z"/></g>
<g><path style="opacity:0.983" fill="#2aceac" d="M 156.5,509.5 C 139.406,512.637 123.073,510.304 107.5,502.5C 98.3987,495.233 90.0653,487.067 82.5,478C 76.3486,473.732 69.6819,472.566 62.5,474.5C 61.469,472.039 60.8023,469.373 60.5,466.5C 67.9143,462.419 75.2476,462.586 82.5,467C 88.8121,477.986 96.6454,487.819 106,496.5C 106.707,498.081 107.54,499.581 108.5,501C 114.919,503.185 121.252,505.518 127.5,508C 137.126,509.244 146.792,509.744 156.5,509.5 Z"/></g>
<g><path style="opacity:0.993" fill="#21d6b1" d="M 227.5,474.5 C 227.167,476.5 226.833,478.5 226.5,480.5C 218.915,476.776 211.248,476.609 203.5,480C 192.005,492.233 178.672,501.733 163.5,508.5C 161.097,508.448 158.764,508.781 156.5,509.5C 146.792,509.744 137.126,509.244 127.5,508C 121.252,505.518 114.919,503.185 108.5,501C 107.54,499.581 106.707,498.081 106,496.5C 96.6454,487.819 88.8121,477.986 82.5,467C 75.2476,462.586 67.9143,462.419 60.5,466.5C 60.5,464.833 60.5,463.167 60.5,461.5C 65.6923,458.937 71.1923,457.27 77,456.5C 80.4247,456.919 83.0914,458.586 85,461.5C 88.4919,469.153 92.4919,476.487 97,483.5C 119.417,510.066 145.917,515.233 176.5,499C 187.209,491.291 196.209,481.958 203.5,471C 205.423,470.192 207.423,469.692 209.5,469.5C 215.749,470.362 221.749,472.029 227.5,474.5 Z"/></g>
<g><path style="opacity:0.983" fill="#37c2a6" d="M 107.5,502.5 C 105.518,502.005 103.518,501.505 101.5,501C 94.1667,495 86.8333,489 79.5,483C 74.5393,481.236 69.5393,481.07 64.5,482.5C 63.2264,480.007 62.5597,477.341 62.5,474.5C 69.6819,472.566 76.3486,473.732 82.5,478C 90.0653,487.067 98.3987,495.233 107.5,502.5 Z"/></g>
<g><path style="opacity:0.985" fill="#2acdac" d="M 226.5,480.5 C 225.833,482.167 225.167,483.833 224.5,485.5C 215.483,481.97 207.15,483.137 199.5,489C 189.916,499.959 177.916,506.459 163.5,508.5C 178.672,501.733 192.005,492.233 203.5,480C 211.248,476.609 218.915,476.776 226.5,480.5 Z"/></g>
<g><path style="opacity:0.974" fill="#2aceac" d="M 538.5,478.5 C 537.5,481.167 536.5,483.833 535.5,486.5C 527.926,482.382 520.593,482.882 513.5,488C 505.188,496.648 495.521,503.314 484.5,508C 480.83,508.548 477.163,509.048 473.5,509.5C 478.352,507.601 483.352,505.768 488.5,504C 492.233,500.26 496.233,496.927 500.5,494C 505.854,488.288 511.188,482.621 516.5,477C 524.004,474.917 531.337,475.417 538.5,478.5 Z"/></g>
<g><path style="opacity:0.976" fill="#44b69e" d="M 107.5,502.5 C 115.471,509.161 124.804,512.494 135.5,512.5C 135.611,513.117 135.944,513.617 136.5,514C 144.852,514.622 153.186,514.455 161.5,513.5C 160.737,514.268 159.737,514.768 158.5,515C 150.167,515.667 141.833,515.667 133.5,515C 126.082,513.455 118.749,511.622 111.5,509.5C 105.112,505.625 99.1119,501.125 93.5,496C 89.462,495.101 85.7954,493.434 82.5,491C 79.8276,490.166 77.161,489.332 74.5,488.5C 72.1987,489.325 69.8654,489.992 67.5,490.5C 66.1084,487.993 65.1084,485.327 64.5,482.5C 69.5393,481.07 74.5393,481.236 79.5,483C 86.8333,489 94.1667,495 101.5,501C 103.518,501.505 105.518,502.005 107.5,502.5 Z"/></g>
<g><path style="opacity:0.981" fill="#35c4a7" d="M 224.5,485.5 C 224.011,486.995 223.345,488.329 222.5,489.5C 216.623,485.828 210.623,485.662 204.5,489C 198.354,492.397 193.021,496.73 188.5,502C 182.257,504.122 176.257,506.788 170.5,510C 167.833,510.667 165.167,511.333 162.5,512C 153.506,512.5 144.506,512.666 135.5,512.5C 124.804,512.494 115.471,509.161 107.5,502.5C 123.073,510.304 139.406,512.637 156.5,509.5C 158.764,508.781 161.097,508.448 163.5,508.5C 177.916,506.459 189.916,499.959 199.5,489C 207.15,483.137 215.483,481.97 224.5,485.5 Z"/></g>
<g><path style="opacity:0.977" fill="#35c4a7" d="M 535.5,486.5 C 535.011,487.995 534.345,489.329 533.5,490.5C 527.736,486.722 521.736,486.555 515.5,490C 509.202,493.971 503.535,498.638 498.5,504C 496.222,504.986 493.889,505.82 491.5,506.5C 490.702,506.957 490.369,507.624 490.5,508.5C 475.072,512.646 459.405,513.646 443.5,511.5C 443.167,510.833 442.833,510.167 442.5,509.5C 452.857,510.752 463.19,510.752 473.5,509.5C 477.163,509.048 480.83,508.548 484.5,508C 495.521,503.314 505.188,496.648 513.5,488C 520.593,482.882 527.926,482.382 535.5,486.5 Z"/></g>
<g><path style="opacity:0.965" fill="#50aa98" d="M 111.5,509.5 C 105.361,508.655 100.028,506.322 95.5,502.5C 94.8333,502.5 94.1667,502.5 93.5,502.5C 87.1466,495.43 79.4799,493.43 70.5,496.5C 69.5,494.5 68.5,492.5 67.5,490.5C 69.8654,489.992 72.1987,489.325 74.5,488.5C 77.161,489.332 79.8276,490.166 82.5,491C 85.7954,493.434 89.462,495.101 93.5,496C 99.1119,501.125 105.112,505.625 111.5,509.5 Z"/></g>
<g><path style="opacity:0.971" fill="#40b9a0" d="M 222.5,489.5 C 222.008,491.819 221.008,493.819 219.5,495.5C 212.296,492.607 205.296,493.107 198.5,497C 194.102,499.857 189.768,502.691 185.5,505.5C 184.013,506.804 182.346,507.97 180.5,509C 174.423,511.582 168.09,513.082 161.5,513.5C 153.186,514.455 144.852,514.622 136.5,514C 135.944,513.617 135.611,513.117 135.5,512.5C 144.506,512.666 153.506,512.5 162.5,512C 165.167,511.333 167.833,510.667 170.5,510C 176.257,506.788 182.257,504.122 188.5,502C 193.021,496.73 198.354,492.397 204.5,489C 210.623,485.662 216.623,485.828 222.5,489.5 Z"/></g>
<g><path style="opacity:0.974" fill="#3fbaa1" d="M 533.5,490.5 C 533.008,492.819 532.008,494.819 530.5,496.5C 525.251,494.109 519.917,493.942 514.5,496C 509.334,498.748 504.334,501.748 499.5,505C 496.691,506.741 493.691,507.908 490.5,508.5C 490.369,507.624 490.702,506.957 491.5,506.5C 493.889,505.82 496.222,504.986 498.5,504C 503.535,498.638 509.202,493.971 515.5,490C 521.736,486.555 527.736,486.722 533.5,490.5 Z"/></g>
<g><path style="opacity:0.958" fill="#48b29c" d="M 219.5,495.5 C 218.89,497.434 217.89,499.101 216.5,500.5C 212.973,497.871 208.973,497.038 204.5,498C 201.833,498.667 199.167,499.333 196.5,500C 193.358,502.904 189.691,504.738 185.5,505.5C 189.768,502.691 194.102,499.857 198.5,497C 205.296,493.107 212.296,492.607 219.5,495.5 Z"/></g>
<g><path style="opacity:0.954" fill="#5aa193" d="M 93.5,502.5 C 89.167,500.667 84.667,499.334 80,498.5C 77.5897,498.482 75.423,499.149 73.5,500.5C 72.0256,499.564 71.0256,498.23 70.5,496.5C 79.4799,493.43 87.1466,495.43 93.5,502.5 Z"/></g>
<g><path style="opacity:0.964" fill="#4fac99" d="M 527.5,501.5 C 527.068,502.71 526.401,503.71 525.5,504.5C 521.981,501.721 517.981,500.888 513.5,502C 507.812,504.18 502.145,506.347 496.5,508.5C 503.522,503.825 511.189,500.492 519.5,498.5C 522.345,499.114 525.012,500.114 527.5,501.5 Z"/></g>
<g><path style="opacity:0.974" fill="#63998e" d="M 93.5,502.5 C 94.1667,502.5 94.8333,502.5 95.5,502.5C 96.4553,506.004 98.7886,508.171 102.5,509C 126.123,519.256 150.456,521.256 175.5,515C 177.858,513.724 180.192,512.558 182.5,511.5C 184.426,509.707 186.759,508.707 189.5,508.5C 196.399,505.538 203.066,505.872 209.5,509.5C 207.833,511.833 205.833,513.833 203.5,515.5C 201.695,512.597 199.029,511.264 195.5,511.5C 184.08,515.021 172.414,517.854 160.5,520C 146.778,520.819 133.111,520.319 119.5,518.5C 119.53,517.503 119.03,516.836 118,516.5C 108.385,513.07 98.8854,509.237 89.5,505C 85.2686,504.081 81.2686,504.581 77.5,506.5C 75.7819,504.777 74.4486,502.777 73.5,500.5C 75.423,499.149 77.5897,498.482 80,498.5C 84.667,499.334 89.167,500.667 93.5,502.5 Z"/></g>
<g><path style="opacity:0.963" fill="#52a997" d="M 216.5,500.5 C 215.876,502.754 214.543,504.421 212.5,505.5C 204.161,501.435 196.495,502.435 189.5,508.5C 186.759,508.707 184.426,509.707 182.5,511.5C 173.927,512.381 165.594,514.214 157.5,517C 141.233,519.122 125.9,516.622 111.5,509.5C 118.749,511.622 126.082,513.455 133.5,515C 141.833,515.667 150.167,515.667 158.5,515C 159.737,514.768 160.737,514.268 161.5,513.5C 168.09,513.082 174.423,511.582 180.5,509C 182.346,507.97 184.013,506.804 185.5,505.5C 189.691,504.738 193.358,502.904 196.5,500C 199.167,499.333 201.833,498.667 204.5,498C 208.973,497.038 212.973,497.871 216.5,500.5 Z"/></g>
<g><path style="opacity:0.958" fill="#5aa193" d="M 212.5,505.5 C 212.262,507.404 211.262,508.738 209.5,509.5C 203.066,505.872 196.399,505.538 189.5,508.5C 196.495,502.435 204.161,501.435 212.5,505.5 Z"/></g>
<g><path style="opacity:1" fill="#47b39d" d="M 530.5,496.5 C 529.89,498.434 528.89,500.101 527.5,501.5C 525.012,500.114 522.345,499.114 519.5,498.5C 511.189,500.492 503.522,503.825 496.5,508.5C 480.446,515.267 463.78,517.267 446.5,514.5C 441.257,514.862 436.591,513.528 432.5,510.5C 431.306,509.728 430.306,508.728 429.5,507.5C 433.987,509.44 438.654,510.773 443.5,511.5C 459.405,513.646 475.072,512.646 490.5,508.5C 493.691,507.908 496.691,506.741 499.5,505C 504.334,501.748 509.334,498.748 514.5,496C 519.917,493.942 525.251,494.109 530.5,496.5 Z"/></g>
<g><path style="opacity:1" fill="#6b9189" d="M 432.5,513.5 C 435.032,516.229 438.032,518.229 441.5,519.5C 431.607,516.135 421.607,512.968 411.5,510C 407.858,508.93 404.858,509.764 402.5,512.5C 399.45,510.451 397.117,507.784 395.5,504.5C 395.611,503.883 395.944,503.383 396.5,503C 399.167,502.333 401.833,502.333 404.5,503C 408.315,504.909 412.315,506.242 416.5,507C 421.044,511.105 426.378,513.272 432.5,513.5 Z"/></g>
<g><path style="opacity:0.957" fill="#768784" d="M 119.5,518.5 C 127.417,521.612 135.75,522.945 144.5,522.5C 153.871,522.331 163.204,521.664 172.5,520.5C 179.249,517.716 186.249,516.55 193.5,517C 195.324,517.66 196.657,518.827 197.5,520.5C 195.025,523.241 192.025,525.241 188.5,526.5C 188.586,525.504 188.252,524.671 187.5,524C 185.256,523.094 182.923,522.594 180.5,522.5C 165.268,525.194 149.934,526.027 134.5,525C 122.612,521.155 110.446,518.322 98,516.5C 94.682,516.231 92.5153,517.564 91.5,520.5C 88.5,518.167 85.8333,515.5 83.5,512.5C 86.2036,509.697 89.5369,508.863 93.5,510C 102.1,513.139 110.767,515.972 119.5,518.5 Z"/></g>
<g><path style="opacity:1" fill="#5aa193" d="M 95.5,502.5 C 100.028,506.322 105.361,508.655 111.5,509.5C 125.9,516.622 141.233,519.122 157.5,517C 165.594,514.214 173.927,512.381 182.5,511.5C 180.192,512.558 177.858,513.724 175.5,515C 150.456,521.256 126.123,519.256 102.5,509C 98.7886,508.171 96.4553,506.004 95.5,502.5 Z"/></g>
<g><path style="opacity:0.933" fill="#798582" d="M 441.5,522.5 C 433.738,520.524 425.904,518.858 418,517.5C 416.167,517.667 414.333,517.833 412.5,518C 411.748,518.671 411.414,519.504 411.5,520.5C 408.891,519.557 406.891,517.89 405.5,515.5C 405.577,514.25 406.244,513.417 407.5,513C 410.5,512.333 413.5,512.333 416.5,513C 425.005,515.888 433.338,519.054 441.5,522.5 Z"/></g>
<g><path style="opacity:1" fill="#6c9189" d="M 119.5,518.5 C 110.767,515.972 102.1,513.139 93.5,510C 89.5369,508.863 86.2036,509.697 83.5,512.5C 81.1667,510.833 79.1667,508.833 77.5,506.5C 81.2686,504.581 85.2686,504.081 89.5,505C 98.8854,509.237 108.385,513.07 118,516.5C 119.03,516.836 119.53,517.503 119.5,518.5 Z"/></g>
<g><path style="opacity:1" fill="#6d9089" d="M 203.5,515.5 C 202.109,517.89 200.109,519.557 197.5,520.5C 196.657,518.827 195.324,517.66 193.5,517C 186.249,516.55 179.249,517.716 172.5,520.5C 163.204,521.664 153.871,522.331 144.5,522.5C 135.75,522.945 127.417,521.612 119.5,518.5C 133.111,520.319 146.778,520.819 160.5,520C 172.414,517.854 184.08,515.021 195.5,511.5C 199.029,511.264 201.695,512.597 203.5,515.5 Z"/></g>
<g><path style="opacity:1" fill="#50ab98" d="M 496.5,508.5 C 490.165,513.43 482.831,515.93 474.5,516C 466.5,516.667 458.5,516.667 450.5,516C 448.942,515.79 447.609,515.29 446.5,514.5C 463.78,517.267 480.446,515.267 496.5,508.5 Z"/></g>
<g><path style="opacity:1" fill="#58a394" d="M 525.5,504.5 C 524.219,507.447 522.219,509.781 519.5,511.5C 517.407,509.233 514.741,507.9 511.5,507.5C 507.204,508.526 502.871,509.359 498.5,510C 482.097,518.252 464.763,520.752 446.5,517.5C 441.904,515.969 437.237,514.635 432.5,513.5C 431.833,512.5 431.167,511.5 430.5,510.5C 431.167,510.5 431.833,510.5 432.5,510.5C 436.591,513.528 441.257,514.862 446.5,514.5C 447.609,515.29 448.942,515.79 450.5,516C 458.5,516.667 466.5,516.667 474.5,516C 482.831,515.93 490.165,513.43 496.5,508.5C 502.145,506.347 507.812,504.18 513.5,502C 517.981,500.888 521.981,501.721 525.5,504.5 Z"/></g>
<g><path style="opacity:0.972" fill="#7f7f7f" d="M 188.5,526.5 C 186.819,528.008 184.819,529.008 182.5,529.5C 181.942,528.21 180.942,527.377 179.5,527C 177,526.833 174.5,526.667 172,526.5C 159.51,527.5 147.01,527.666 134.5,527C 124.494,525.165 114.494,523.331 104.5,521.5C 102.833,521.667 101.167,521.833 99.5,522C 98.244,522.417 97.5774,523.25 97.5,524.5C 95.5,523.167 93.5,521.833 91.5,520.5C 92.5153,517.564 94.682,516.231 98,516.5C 110.446,518.322 122.612,521.155 134.5,525C 149.934,526.027 165.268,525.194 180.5,522.5C 182.923,522.594 185.256,523.094 187.5,524C 188.252,524.671 188.586,525.504 188.5,526.5 Z"/></g>
<g><path style="opacity:0.967" fill="#7f7f7f" d="M 441.5,522.5 C 449.019,524.873 456.853,525.873 465,525.5C 473.711,525.421 482.378,524.754 491,523.5C 494.875,523.359 498.042,524.693 500.5,527.5C 498.819,529.008 496.819,530.008 494.5,530.5C 493.691,529.531 492.691,528.698 491.5,528C 468.513,528.967 445.846,526.8 423.5,521.5C 420.692,521.078 418.692,522.078 417.5,524.5C 415.147,523.66 413.147,522.326 411.5,520.5C 411.414,519.504 411.748,518.671 412.5,518C 414.333,517.833 416.167,517.667 418,517.5C 425.904,518.858 433.738,520.524 441.5,522.5 Z"/></g>
<g><path style="opacity:1" fill="#63998e" d="M 519.5,511.5 C 518.811,514.189 517.144,515.856 514.5,516.5C 511.838,514.109 508.671,513.109 505,513.5C 495.185,515.658 485.352,517.825 475.5,520C 464.156,520.555 452.823,520.388 441.5,519.5C 438.032,518.229 435.032,516.229 432.5,513.5C 437.237,514.635 441.904,515.969 446.5,517.5C 464.763,520.752 482.097,518.252 498.5,510C 502.871,509.359 507.204,508.526 511.5,507.5C 514.741,507.9 517.407,509.233 519.5,511.5 Z"/></g>
<g><path style="opacity:1" fill="#6b9189" d="M 514.5,516.5 C 513.5,518.167 512.167,519.5 510.5,520.5C 508.139,517.821 505.139,516.488 501.5,516.5C 493.062,517.859 484.729,519.693 476.5,522C 468.507,522.5 460.507,522.666 452.5,522.5C 452.167,522.5 451.833,522.5 451.5,522.5C 448.113,521.712 444.78,520.712 441.5,519.5C 452.823,520.388 464.156,520.555 475.5,520C 485.352,517.825 495.185,515.658 505,513.5C 508.671,513.109 511.838,514.109 514.5,516.5 Z"/></g>
<g><path style="opacity:1" fill="#738a85" d="M 441.5,519.5 C 444.78,520.712 448.113,521.712 451.5,522.5C 448.167,522.5 444.833,522.5 441.5,522.5C 433.338,519.054 425.005,515.888 416.5,513C 413.5,512.333 410.5,512.333 407.5,513C 406.244,513.417 405.577,514.25 405.5,515.5C 404.167,514.833 403.167,513.833 402.5,512.5C 404.858,509.764 407.858,508.93 411.5,510C 421.607,512.968 431.607,516.135 441.5,519.5 Z"/></g>
<g><path style="opacity:0.961" fill="#86797b" d="M 182.5,529.5 C 179.995,531.011 177.328,532.345 174.5,533.5C 172.925,531.059 170.592,529.893 167.5,530C 148.455,530.965 129.622,529.465 111,525.5C 108.791,525.989 106.958,526.989 105.5,528.5C 102.55,527.692 99.8831,526.358 97.5,524.5C 97.5774,523.25 98.244,522.417 99.5,522C 101.167,521.833 102.833,521.667 104.5,521.5C 114.494,523.331 124.494,525.165 134.5,527C 147.01,527.666 159.51,527.5 172,526.5C 174.5,526.667 177,526.833 179.5,527C 180.942,527.377 181.942,528.21 182.5,529.5 Z"/></g>
<g><path style="opacity:0.968" fill="#86797b" d="M 494.5,530.5 C 492.491,532.065 490.157,533.065 487.5,533.5C 486.317,532.496 484.984,531.662 483.5,531C 466.23,530.63 449.064,529.13 432,526.5C 429.176,526.303 426.676,526.969 424.5,528.5C 421.669,527.921 419.336,526.588 417.5,524.5C 418.692,522.078 420.692,521.078 423.5,521.5C 445.846,526.8 468.513,528.967 491.5,528C 492.691,528.698 493.691,529.531 494.5,530.5 Z"/></g>
<g><path style="opacity:1" fill="#748985" d="M 510.5,520.5 C 508.45,522.547 506.117,524.214 503.5,525.5C 500.929,522.916 497.762,521.583 494,521.5C 485.059,523.063 476.059,524.063 467,524.5C 461.91,524.656 457.077,523.99 452.5,522.5C 460.507,522.666 468.507,522.5 476.5,522C 484.729,519.693 493.062,517.859 501.5,516.5C 505.139,516.488 508.139,517.821 510.5,520.5 Z"/></g>
<g><path style="opacity:1" fill="#798482" d="M 503.5,525.5 C 502.71,526.401 501.71,527.068 500.5,527.5C 498.042,524.693 494.875,523.359 491,523.5C 482.378,524.754 473.711,525.421 465,525.5C 456.853,525.873 449.019,524.873 441.5,522.5C 444.833,522.5 448.167,522.5 451.5,522.5C 451.833,522.5 452.167,522.5 452.5,522.5C 457.077,523.99 461.91,524.656 467,524.5C 476.059,524.063 485.059,523.063 494,521.5C 497.762,521.583 500.929,522.916 503.5,525.5 Z"/></g>
<g><path style="opacity:0.949" fill="#8c7378" d="M 174.5,533.5 C 171.539,534.323 168.539,534.99 165.5,535.5C 163.524,533.989 161.191,533.156 158.5,533C 146.302,532.615 134.136,531.782 122,530.5C 119.134,530.3 116.634,530.967 114.5,532.5C 111.088,531.925 108.088,530.592 105.5,528.5C 106.958,526.989 108.791,525.989 111,525.5C 129.622,529.465 148.455,530.965 167.5,530C 170.592,529.893 172.925,531.059 174.5,533.5 Z"/></g>
<g><path style="opacity:0.942" fill="#8c7378" d="M 487.5,533.5 C 484.919,534.488 482.252,535.488 479.5,536.5C 477.925,534.059 475.592,532.893 472.5,533C 460.489,532.089 448.489,531.422 436.5,531C 435.244,531.417 434.577,532.25 434.5,533.5C 430.853,532.343 427.52,530.677 424.5,528.5C 426.676,526.969 429.176,526.303 432,526.5C 449.064,529.13 466.23,530.63 483.5,531C 484.984,531.662 486.317,532.496 487.5,533.5 Z"/></g>
<g><path style="opacity:0.903" fill="#936d75" d="M 165.5,535.5 C 154.301,537.52 142.968,538.02 131.5,537C 125.512,536.255 119.845,534.755 114.5,532.5C 116.634,530.967 119.134,530.3 122,530.5C 134.136,531.782 146.302,532.615 158.5,533C 161.191,533.156 163.524,533.989 165.5,535.5 Z"/></g>
<g><path style="opacity:0.907" fill="#936d75" d="M 479.5,536.5 C 464.259,538.543 449.259,537.543 434.5,533.5C 434.577,532.25 435.244,531.417 436.5,531C 448.489,531.422 460.489,532.089 472.5,533C 475.592,532.893 477.925,534.059 479.5,536.5 Z"/></g>
</svg>
