<?xml version="1.0" encoding="UTF-8"?>
<!DOCTYPE svg PUBLIC "-//W3C//DTD SVG 1.1//EN" "http://www.w3.org/Graphics/SVG/1.1/DTD/svg11.dtd">
<svg xmlns="http://www.w3.org/2000/svg" version="1.1" width="504px" height="515px" style="shape-rendering:geometricPrecision; text-rendering:geometricPrecision; image-rendering:optimizeQuality; fill-rule:evenodd; clip-rule:evenodd" xmlns:xlink="http://www.w3.org/1999/xlink">
<g><path style="opacity:0.996" fill="#1c1c1c" d="M 82.5,10.5 C 83.8294,22.3265 90.4961,28.4931 102.5,29C 158.833,29.3333 215.167,29.6667 271.5,30C 297.587,31.2741 323.254,35.1074 348.5,41.5C 349.833,42.1667 350.833,43.1667 351.5,44.5C 326.598,38.2199 301.264,34.7199 275.5,34C 214.478,33.9655 153.478,33.2988 92.5,32C 81.194,30.5236 75.194,24.0236 74.5,12.5C 77.1667,11.8333 79.8333,11.1667 82.5,10.5 Z"/></g>
<g><path style="opacity:0.996" fill="#222222" d="M 82.5,10.5 C 85.8333,10.5 89.1667,10.5 92.5,10.5C 93.3634,13.9228 94.5301,17.2561 96,20.5C 97.7998,22.317 99.9664,23.4837 102.5,24C 157.5,24.3333 212.5,24.6667 267.5,25C 272.983,26.2457 278.483,27.4123 284,28.5C 288.471,27.4873 292.971,27.3206 297.5,28C 313.646,30.9674 329.646,34.4674 345.5,38.5C 346.391,39.1098 347.391,39.4431 348.5,39.5C 348.5,40.1667 348.5,40.8333 348.5,41.5C 323.254,35.1074 297.587,31.2741 271.5,30C 215.167,29.6667 158.833,29.3333 102.5,29C 90.4961,28.4931 83.8294,22.3265 82.5,10.5 Z"/></g>
<g><path style="opacity:0.984" fill="#282828" d="M 92.5,10.5 C 153.5,10.5 214.5,10.5 275.5,10.5C 275.915,14.921 277.581,18.7543 280.5,22C 284.484,23.1154 287.818,22.1154 290.5,19C 292.833,18.3333 295.167,18.3333 297.5,19C 299.5,21 301.5,23 303.5,25C 314.886,27.453 326.219,30.1197 337.5,33C 338.693,34.0946 340.027,34.928 341.5,35.5C 342.209,36.404 343.209,36.7373 344.5,36.5C 344.833,37.1667 345.167,37.8333 345.5,38.5C 329.646,34.4674 313.646,30.9674 297.5,28C 292.971,27.3206 288.471,27.4873 284,28.5C 278.483,27.4123 272.983,26.2457 267.5,25C 212.5,24.6667 157.5,24.3333 102.5,24C 99.9664,23.4837 97.7998,22.317 96,20.5C 94.5301,17.2561 93.3634,13.9228 92.5,10.5 Z"/></g>
<g><path style="opacity:0.964" fill="#2e2e2e" d="M 275.5,10.5 C 291.937,10.2263 308.27,11.2263 324.5,13.5C 324.301,16.941 324.801,20.2744 326,23.5C 331.415,25.861 336.915,28.0277 342.5,30C 340.17,31.4875 339.836,33.3209 341.5,35.5C 340.027,34.928 338.693,34.0946 337.5,33C 326.219,30.1197 314.886,27.453 303.5,25C 301.5,23 299.5,21 297.5,19C 295.167,18.3333 292.833,18.3333 290.5,19C 287.818,22.1154 284.484,23.1154 280.5,22C 277.581,18.7543 275.915,14.921 275.5,10.5 Z"/></g>
<g><path style="opacity:0.995" fill="#151515" d="M 74.5,12.5 C 75.194,24.0236 81.194,30.5236 92.5,32C 153.478,33.2988 214.478,33.9655 275.5,34C 301.264,34.7199 326.598,38.2199 351.5,44.5C 352.833,45.5 354.167,46.5 355.5,47.5C 355.5,48.1667 355.5,48.8333 355.5,49.5C 354.833,49.1667 354.167,48.8333 353.5,48.5C 353.047,47.5416 352.381,46.7083 351.5,46C 324.837,39.9633 297.837,36.63 270.5,36C 210.833,35.6667 151.167,35.3333 91.5,35C 77.9205,34.2563 70.2539,27.0896 68.5,13.5C 70.5,13.1667 72.5,12.8333 74.5,12.5 Z"/></g>
<g><path style="opacity:0.995" fill="#0f0f0f" d="M 68.5,13.5 C 70.2539,27.0896 77.9205,34.2563 91.5,35C 151.167,35.3333 210.833,35.6667 270.5,36C 297.837,36.63 324.837,39.9633 351.5,46C 352.381,46.7083 353.047,47.5416 353.5,48.5C 327.467,42.9592 301.134,39.7925 274.5,39C 210.148,38.9597 145.815,38.293 81.5,37C 76.849,36.2584 73.0157,34.0917 70,30.5C 67.2021,25.899 64.7021,21.2324 62.5,16.5C 64.2504,15.1302 66.2504,14.1302 68.5,13.5 Z"/></g>
<g><path style="opacity:0.96" fill="#353535" d="M 324.5,13.5 C 335.586,14.6255 346.586,16.2922 357.5,18.5C 357.335,21.8499 357.502,25.1832 358,28.5C 359.214,30.0488 360.714,31.2155 362.5,32C 359.854,32.4974 357.187,32.6641 354.5,32.5C 351.167,32.5 347.833,32.5 344.5,32.5C 344.5,33.8333 344.5,35.1667 344.5,36.5C 343.209,36.7373 342.209,36.404 341.5,35.5C 339.836,33.3209 340.17,31.4875 342.5,30C 336.915,28.0277 331.415,25.861 326,23.5C 324.801,20.2744 324.301,16.941 324.5,13.5 Z"/></g>
<g><path style="opacity:0.996" fill="#090909" d="M 62.5,16.5 C 64.7021,21.2324 67.2021,25.899 70,30.5C 73.0157,34.0917 76.849,36.2584 81.5,37C 145.815,38.293 210.148,38.9597 274.5,39C 301.134,39.7925 327.467,42.9592 353.5,48.5C 354.167,48.8333 354.833,49.1667 355.5,49.5C 358.167,51.5 360.5,53.8333 362.5,56.5C 358.698,53.615 354.364,51.7817 349.5,51C 333.974,47.7344 318.307,45.401 302.5,44C 228.168,42.9851 153.835,41.9851 79.5,41C 74.513,40.6183 70.1797,38.785 66.5,35.5C 62.3167,30.4482 58.6501,25.1148 55.5,19.5C 57.4261,17.7073 59.7594,16.7073 62.5,16.5 Z"/></g>
<g><path style="opacity:0.976" fill="#3c3c3c" d="M 357.5,18.5 C 366.806,20.4065 375.806,23.0731 384.5,26.5C 384.335,29.8499 384.502,33.1832 385,36.5C 401.59,48.8786 418.09,61.3786 434.5,74C 461.689,98.2216 478.189,128.388 484,164.5C 485.093,183.892 486.759,203.226 489,222.5C 492.04,224.78 495.206,226.78 498.5,228.5C 498.08,233.529 496.746,238.195 494.5,242.5C 490.516,241.26 487.349,238.926 485,235.5C 483.269,227.361 483.102,219.194 484.5,211C 486.489,178.763 480.989,147.93 468,118.5C 457.983,100.139 444.65,84.4724 428,71.5C 427.536,72.0944 427.369,72.7611 427.5,73.5C 426.395,72.3995 425.062,71.7329 423.5,71.5C 421.1,68.0969 418.1,65.4302 414.5,63.5C 413.415,61.4131 411.749,60.0798 409.5,59.5C 408.738,57.7376 407.404,56.7376 405.5,56.5C 403.874,53.3783 401.208,51.7117 397.5,51.5C 396.833,51.5 396.167,51.5 395.5,51.5C 394.313,49.0246 392.313,48.0246 389.5,48.5C 389.167,47.8333 388.833,47.1667 388.5,46.5C 385.691,44.1034 382.358,42.7701 378.5,42.5C 378.027,41.0937 377.027,40.427 375.5,40.5C 373.901,40.7678 372.568,40.4345 371.5,39.5C 371.389,38.8826 371.056,38.3826 370.5,38C 365.653,35.9054 360.653,34.4054 355.5,33.5C 355.167,33.5 354.833,33.5 354.5,33.5C 354.5,33.1667 354.5,32.8333 354.5,32.5C 357.187,32.6641 359.854,32.4974 362.5,32C 360.714,31.2155 359.214,30.0488 358,28.5C 357.502,25.1832 357.335,21.8499 357.5,18.5 Z"/></g>
<g><path style="opacity:0.996" fill="#000000" d="M 55.5,19.5 C 58.6501,25.1148 62.3167,30.4482 66.5,35.5C 70.1797,38.785 74.513,40.6183 79.5,41C 153.835,41.9851 228.168,42.9851 302.5,44C 318.307,45.401 333.974,47.7344 349.5,51C 354.364,51.7817 358.698,53.615 362.5,56.5C 364.167,57.8333 365.833,59.1667 367.5,60.5C 367.738,62.4044 368.738,63.7377 370.5,64.5C 370.5,65.1667 370.5,65.8333 370.5,66.5C 370.427,68.0269 371.094,69.0269 372.5,69.5C 372.427,71.0269 373.094,72.0269 374.5,72.5C 375.338,72.8417 375.672,73.5084 375.5,74.5C 375.427,76.0269 376.094,77.0269 377.5,77.5C 378.441,79.0495 379.107,80.7162 379.5,82.5C 379.427,84.0269 380.094,85.0269 381.5,85.5C 381.5,86.1667 381.833,86.5 382.5,86.5C 382.232,88.099 382.566,89.4324 383.5,90.5C 383.5,91.1667 383.5,91.8333 383.5,92.5C 384.858,98.0651 385.691,103.732 386,109.5C 386.566,111.723 387.4,113.723 388.5,115.5C 388.716,124.533 388.383,133.533 387.5,142.5C 387.5,143.833 387.5,145.167 387.5,146.5C 386.076,148.515 385.41,150.848 385.5,153.5C 384.25,156.006 383.584,158.673 383.5,161.5C 381.992,163.181 380.992,165.181 380.5,167.5C 379.094,167.973 378.427,168.973 378.5,170.5C 378.5,171.167 378.5,171.833 378.5,172.5C 377.833,173.167 377.167,173.833 376.5,174.5C 373.779,177.894 371.446,181.561 369.5,185.5C 361.971,193.928 353.304,200.928 343.5,206.5C 341.5,207.833 339.5,209.167 337.5,210.5C 335.856,210.714 334.356,210.38 333,209.5C 332.005,210.066 331.172,210.733 330.5,211.5C 328.167,211.5 325.833,211.5 323.5,211.5C 326.866,210.844 330.032,209.511 333,207.5C 335.992,177.633 323.159,158.467 294.5,150C 289.239,148.615 283.906,147.615 278.5,147C 249.518,145.65 220.518,145.15 191.5,145.5C 186.434,140.119 181.101,134.953 175.5,130C 165.466,122.982 156.966,124.482 150,134.5C 147.728,139.59 146.394,144.923 146,150.5C 146.142,173.727 145.308,196.727 143.5,219.5C 138.968,219.182 134.634,219.515 130.5,220.5C 116.152,220.528 101.818,221.028 87.5,222C 86.5842,222.278 85.9175,222.778 85.5,223.5C 84.1667,223.5 82.8333,223.5 81.5,223.5C 78.8478,223.41 76.5145,224.076 74.5,225.5C 70.467,226.025 66.8004,227.358 63.5,229.5C 62.8333,229.5 62.1667,229.5 61.5,229.5C 59.9731,229.427 58.9731,230.094 58.5,231.5C 55.8021,231.845 53.8021,233.178 52.5,235.5C 48.2294,238.101 44.5628,241.434 41.5,245.5C 39.1,247.296 37.4333,249.63 36.5,252.5C 36.5,253.167 36.5,253.833 36.5,254.5C 35.6554,255.671 34.9887,257.005 34.5,258.5C 33.0762,260.515 32.4095,262.848 32.5,265.5C 31.8338,271.658 31.5004,277.991 31.5,284.5C 32.0987,308.831 32.5987,333.165 33,357.5C 33.2784,358.416 33.7784,359.082 34.5,359.5C 34.5,360.5 34.5,361.5 34.5,362.5C 34.4095,365.152 35.0762,367.485 36.5,369.5C 39.2282,369.829 41.5615,369.163 43.5,367.5C 45.7488,366.92 47.4154,365.587 48.5,363.5C 49.5137,362.326 50.847,361.66 52.5,361.5C 54.4044,361.262 55.7377,360.262 56.5,358.5C 58.0269,358.573 59.0269,357.906 59.5,356.5C 60.609,356.443 61.609,356.11 62.5,355.5C 67.9823,353.116 73.649,351.116 79.5,349.5C 81.8984,349.741 83.8984,349.074 85.5,347.5C 88.8067,346.949 92.1401,346.616 95.5,346.5C 102.736,346.235 109.736,345.235 116.5,343.5C 118.5,343.5 120.5,343.5 122.5,343.5C 140.83,343.016 159.163,342.683 177.5,342.5C 218.03,342.961 258.363,341.961 298.5,339.5C 303.167,339.5 307.833,339.5 312.5,339.5C 321.416,339.468 330.082,338.468 338.5,336.5C 341.482,336.037 344.482,335.704 347.5,335.5C 351.708,335.323 355.374,333.99 358.5,331.5C 359.833,331.5 361.167,331.5 362.5,331.5C 364.898,331.741 366.898,331.074 368.5,329.5C 370.153,329.34 371.486,328.674 372.5,327.5C 375.082,327.975 377.082,327.308 378.5,325.5C 379.514,324.326 380.847,323.66 382.5,323.5C 384.404,323.262 385.738,322.262 386.5,320.5C 387.167,320.5 387.833,320.5 388.5,320.5C 390.117,319.962 391.784,319.629 393.5,319.5C 391.81,329.039 393.31,338.373 398,347.5C 414.667,369.5 431.333,391.5 448,413.5C 455.463,424.149 457.797,435.816 455,448.5C 452.777,456.949 449.443,464.949 445,472.5C 442.348,478.06 442.015,483.727 444,489.5C 446.258,494.353 448.758,499.019 451.5,503.5C 448.898,505.81 445.898,507.643 442.5,509C 436.768,511.008 431.102,512.842 425.5,514.5C 416.833,514.5 408.167,514.5 399.5,514.5C 379.095,510.711 361.928,501.044 348,485.5C 321.362,446.695 294.528,408.029 267.5,369.5C 242.175,368.5 216.842,368.167 191.5,368.5C 186.434,363.119 181.101,357.953 175.5,353C 164.301,345.511 155.467,347.677 149,359.5C 147.368,364.03 146.368,368.696 146,373.5C 145.667,395.833 145.333,418.167 145,440.5C 144.472,444.943 143.472,449.277 142,453.5C 137.792,462.412 134.292,471.579 131.5,481C 133.552,488.598 136.552,495.765 140.5,502.5C 130.9,508.469 120.567,512.469 109.5,514.5C 100.167,514.5 90.8333,514.5 81.5,514.5C 51.1776,509.075 29.3443,492.409 16,464.5C 13.7228,458.668 12.0561,452.668 11,446.5C 10.3333,323.833 10.3333,201.167 11,78.5C 16.1867,51.4201 31.0201,31.7534 55.5,19.5 Z"/></g>
<g><path style="opacity:0.976" fill="#414141" d="M 384.5,26.5 C 392.625,28.5377 400.292,31.5377 407.5,35.5C 407.146,39.6372 407.646,43.6372 409,47.5C 421.333,59.1667 433.667,70.8333 446,82.5C 466.082,103.66 479.082,128.66 485,157.5C 487.613,173.089 489.613,188.755 491,204.5C 493.777,208.476 497.61,210.809 502.5,211.5C 501.479,217.329 500.145,222.996 498.5,228.5C 495.206,226.78 492.04,224.78 489,222.5C 486.759,203.226 485.093,183.892 484,164.5C 478.189,128.388 461.689,98.2216 434.5,74C 418.09,61.3786 401.59,48.8786 385,36.5C 384.502,33.1832 384.335,29.8499 384.5,26.5 Z"/></g>
<g><path style="opacity:1" fill="#9d9d9d" d="M 354.5,33.5 C 354.833,33.5 355.167,33.5 355.5,33.5C 355.5,33.8333 355.5,34.1667 355.5,34.5C 353.143,34.3367 350.81,34.5034 348.5,35C 347.748,35.6708 347.414,36.5041 347.5,37.5C 345.534,36.7455 345.2,35.5788 346.5,34C 349.146,33.5026 351.813,33.3359 354.5,33.5 Z"/></g>
<g><path style="opacity:1" fill="#6b6b6b" d="M 354.5,32.5 C 354.5,32.8333 354.5,33.1667 354.5,33.5C 351.813,33.3359 349.146,33.5026 346.5,34C 345.2,35.5788 345.534,36.7455 347.5,37.5C 347.833,38.1667 348.167,38.8333 348.5,39.5C 347.391,39.4431 346.391,39.1098 345.5,38.5C 345.167,37.8333 344.833,37.1667 344.5,36.5C 344.5,35.1667 344.5,33.8333 344.5,32.5C 347.833,32.5 351.167,32.5 354.5,32.5 Z"/></g>
<g><path style="opacity:1" fill="#cdcdcd" d="M 355.5,34.5 C 356.791,34.2627 357.791,34.596 358.5,35.5C 355.5,35.5 352.5,35.5 349.5,35.5C 349.704,37.6854 350.37,39.6854 351.5,41.5C 350.5,40.8333 349.5,40.1667 348.5,39.5C 348.167,38.8333 347.833,38.1667 347.5,37.5C 347.414,36.5041 347.748,35.6708 348.5,35C 350.81,34.5034 353.143,34.3367 355.5,34.5 Z"/></g>
<g><path style="opacity:1" fill="#7b7b7b" d="M 355.5,34.5 C 355.5,34.1667 355.5,33.8333 355.5,33.5C 360.653,34.4054 365.653,35.9054 370.5,38C 371.056,38.3826 371.389,38.8826 371.5,39.5C 369.167,38.8333 366.833,38.1667 364.5,37.5C 362.579,36.6373 360.579,35.9707 358.5,35.5C 357.791,34.596 356.791,34.2627 355.5,34.5 Z"/></g>
<g><path style="opacity:0.975" fill="#474747" d="M 407.5,35.5 C 415.612,38.7221 423.279,42.7221 430.5,47.5C 427.87,52.7029 428.37,57.7029 432,62.5C 445.14,76.6342 457.14,91.6342 468,107.5C 472.802,115.437 476.802,123.77 480,132.5C 484.535,145.771 488.868,159.105 493,172.5C 496.082,175.659 498.416,179.325 500,183.5C 500.816,184.823 501.983,185.489 503.5,185.5C 503.5,191.5 503.5,197.5 503.5,203.5C 502.527,205.948 502.194,208.615 502.5,211.5C 497.61,210.809 493.777,208.476 491,204.5C 489.613,188.755 487.613,173.089 485,157.5C 479.082,128.66 466.082,103.66 446,82.5C 433.667,70.8333 421.333,59.1667 409,47.5C 407.646,43.6372 407.146,39.6372 407.5,35.5 Z"/></g>
<g><path style="opacity:1" fill="#fefefe" d="M 358.5,35.5 C 360.579,35.9707 362.579,36.6373 364.5,37.5C 367.672,40.8329 371.672,42.4995 376.5,42.5C 377.167,42.5 377.833,42.5 378.5,42.5C 379.167,43.1667 379.833,43.8333 380.5,44.5C 382.934,46.8744 385.934,48.2078 389.5,48.5C 391.033,50.2451 393.033,51.2451 395.5,51.5C 396.262,53.2624 397.596,54.2624 399.5,54.5C 401.379,57.258 404.046,58.9247 407.5,59.5C 408.167,59.5 408.833,59.5 409.5,59.5C 410.585,61.5869 412.251,62.9202 414.5,63.5C 416.833,66.5 419.5,69.1667 422.5,71.5C 422.5,73.5 423.5,74.5 425.5,74.5C 427.167,75.8333 428.833,77.1667 430.5,78.5C 432.43,82.1002 435.097,85.1002 438.5,87.5C 438.5,88.1667 438.5,88.8333 438.5,89.5C 439.419,92.0892 441.086,94.0892 443.5,95.5C 444.5,96.1667 445.5,96.8333 446.5,97.5C 446.738,99.4044 447.738,100.738 449.5,101.5C 449.5,102.167 449.5,102.833 449.5,103.5C 449.94,107.252 451.607,110.252 454.5,112.5C 456.332,116.836 458.665,120.836 461.5,124.5C 461.5,124.833 461.5,125.167 461.5,125.5C 462.636,130.422 464.303,135.089 466.5,139.5C 466.5,140.167 466.5,140.833 466.5,141.5C 468.628,148.562 470.628,155.562 472.5,162.5C 472.667,174.838 472.5,187.171 472,199.5C 471.436,206.953 470.269,214.286 468.5,221.5C 467.596,222.209 467.263,223.209 467.5,224.5C 465.447,228.991 463.78,233.658 462.5,238.5C 460.456,244.255 457.623,249.588 454,254.5C 452.54,257.748 451.374,261.081 450.5,264.5C 444.422,270.242 439.088,276.575 434.5,283.5C 433.833,283.5 433.5,283.833 433.5,284.5C 430.167,287.167 427.167,290.167 424.5,293.5C 422.068,294.75 419.734,296.25 417.5,298C 416.177,298.816 415.511,299.983 415.5,301.5C 414.833,301.833 414.167,302.167 413.5,302.5C 408.214,305.788 403.214,309.454 398.5,313.5C 396.326,313.75 394.659,314.75 393.5,316.5C 391.62,316.229 390.287,316.896 389.5,318.5C 388.833,318.5 388.167,318.5 387.5,318.5C 382.24,320.799 377.24,323.466 372.5,326.5C 370.143,326.337 367.81,326.503 365.5,327C 364.944,327.383 364.611,327.883 364.5,328.5C 362.5,329.167 360.5,329.833 358.5,330.5C 356.473,330.338 354.473,330.505 352.5,331C 349.975,332.719 347.308,333.886 344.5,334.5C 342.167,334.5 339.833,334.5 337.5,334.5C 332.489,334.334 327.489,334.501 322.5,335C 319.809,335.156 317.476,335.989 315.5,337.5C 285.18,338.282 254.847,338.949 224.5,339.5C 197.827,339.436 171.16,339.769 144.5,340.5C 131.829,340.333 119.162,340.5 106.5,341C 104.618,341.198 102.952,341.698 101.5,342.5C 95.3053,344.018 88.9719,344.851 82.5,345C 80.8807,345.236 79.8807,346.069 79.5,347.5C 78.1667,347.833 76.8333,348.167 75.5,348.5C 72.3695,347.908 70.0361,348.908 68.5,351.5C 67.8333,351.833 67.1667,352.167 66.5,352.5C 65.1266,352.343 63.7932,352.51 62.5,353C 60.5692,353.902 58.9025,355.069 57.5,356.5C 52.519,357.361 48.519,359.694 45.5,363.5C 43.5082,363.328 41.8415,363.995 40.5,365.5C 39.0295,364.619 38.1962,363.286 38,361.5C 37.0671,344.68 36.2337,328.014 35.5,311.5C 35.5,308.833 35.5,306.167 35.5,303.5C 35.2396,289.804 35.5729,276.137 36.5,262.5C 36.5,261.167 36.5,259.833 36.5,258.5C 36.5,257.833 36.5,257.167 36.5,256.5C 37.1429,254.924 38.1429,253.59 39.5,252.5C 41.2132,251.365 41.8799,249.698 41.5,247.5C 41.5,247.167 41.5,246.833 41.5,246.5C 42.5,245.833 43.5,245.167 44.5,244.5C 48.4356,242.234 51.7689,239.234 54.5,235.5C 56.0269,235.573 57.0269,234.906 57.5,233.5C 57.8333,232.833 58.1667,232.167 58.5,231.5C 59.1667,231.5 59.8333,231.5 60.5,231.5C 62.0269,231.573 63.0269,230.906 63.5,229.5C 65.5648,229.483 67.5648,229.15 69.5,228.5C 72.9164,228.472 75.9164,227.472 78.5,225.5C 82.3597,225.192 86.0264,224.525 89.5,223.5C 91.1667,223.5 92.8333,223.5 94.5,223.5C 113.158,222.791 131.825,222.457 150.5,222.5C 182.502,222.667 214.502,222.5 246.5,222C 266.463,220.741 286.463,220.075 306.5,220C 313.715,218.231 321.048,217.231 328.5,217C 331.367,214.734 334.367,212.901 337.5,211.5C 341.151,210.341 344.485,208.674 347.5,206.5C 353.541,203.305 359.208,199.472 364.5,195C 366.808,192.872 368.474,190.372 369.5,187.5C 370.906,187.027 371.573,186.027 371.5,184.5C 374.808,183.935 376.808,181.935 377.5,178.5C 378.242,176.02 379.242,173.687 380.5,171.5C 380.5,170.833 380.5,170.167 380.5,169.5C 381.167,168.833 381.833,168.167 382.5,167.5C 384.081,165.326 385.581,162.993 387,160.5C 387.495,158.527 387.662,156.527 387.5,154.5C 389.146,149.678 390.479,144.678 391.5,139.5C 392.658,130.343 392.824,121.009 392,111.5C 391.974,107.821 391.14,104.488 389.5,101.5C 387.982,98.4659 387.149,95.1325 387,91.5C 385.264,89.9368 383.764,88.2701 382.5,86.5C 381.516,81.1524 379.516,76.1524 376.5,71.5C 375.817,71.1373 375.15,70.8039 374.5,70.5C 374.573,68.9731 373.906,67.9731 372.5,67.5C 372.573,65.9731 371.906,64.9731 370.5,64.5C 370.262,62.5956 369.262,61.2623 367.5,60.5C 367.267,58.9382 366.6,57.6049 365.5,56.5C 364.5,53.5 362.5,51.5 359.5,50.5C 359.167,48.1667 357.833,46.8333 355.5,46.5C 354.167,44.8333 352.833,43.1667 351.5,41.5C 350.37,39.6854 349.704,37.6854 349.5,35.5C 352.5,35.5 355.5,35.5 358.5,35.5 Z"/></g>
<g><path style="opacity:1" fill="#5e5e5e" d="M 348.5,39.5 C 349.5,40.1667 350.5,40.8333 351.5,41.5C 352.833,43.1667 354.167,44.8333 355.5,46.5C 355.5,46.8333 355.5,47.1667 355.5,47.5C 354.167,46.5 352.833,45.5 351.5,44.5C 350.833,43.1667 349.833,42.1667 348.5,41.5C 348.5,40.8333 348.5,40.1667 348.5,39.5 Z"/></g>
<g><path style="opacity:1" fill="#cacaca" d="M 364.5,37.5 C 366.833,38.1667 369.167,38.8333 371.5,39.5C 372.568,40.4345 373.901,40.7678 375.5,40.5C 375.833,41.1667 376.167,41.8333 376.5,42.5C 371.672,42.4995 367.672,40.8329 364.5,37.5 Z"/></g>
<g><path style="opacity:1" fill="#777777" d="M 375.5,40.5 C 377.027,40.427 378.027,41.0937 378.5,42.5C 377.833,42.5 377.167,42.5 376.5,42.5C 376.167,41.8333 375.833,41.1667 375.5,40.5 Z"/></g>
<g><path style="opacity:1" fill="#737373" d="M 378.5,42.5 C 382.358,42.7701 385.691,44.1034 388.5,46.5C 385.67,46.3059 383.004,45.6392 380.5,44.5C 379.833,43.8333 379.167,43.1667 378.5,42.5 Z"/></g>
<g><path style="opacity:1" fill="#c8c8c8" d="M 380.5,44.5 C 383.004,45.6392 385.67,46.3059 388.5,46.5C 388.833,47.1667 389.167,47.8333 389.5,48.5C 385.934,48.2078 382.934,46.8744 380.5,44.5 Z"/></g>
<g><path style="opacity:1" fill="#ababab" d="M 355.5,47.5 C 355.5,47.1667 355.5,46.8333 355.5,46.5C 357.833,46.8333 359.167,48.1667 359.5,50.5C 358.167,49.5 356.833,48.5 355.5,47.5 Z"/></g>
<g><path style="opacity:0.967" fill="#4d4d4d" d="M 430.5,47.5 C 439.267,52.8811 447.267,59.2145 454.5,66.5C 453.371,68.6282 453.204,70.9615 454,73.5C 466.61,94.4587 477.944,116.125 488,138.5C 491.246,141.419 495.08,143.086 499.5,143.5C 501.127,151.577 502.46,159.577 503.5,167.5C 503.5,173.5 503.5,179.5 503.5,185.5C 501.983,185.489 500.816,184.823 500,183.5C 498.416,179.325 496.082,175.659 493,172.5C 488.868,159.105 484.535,145.771 480,132.5C 476.802,123.77 472.802,115.437 468,107.5C 457.14,91.6342 445.14,76.6342 432,62.5C 428.37,57.7029 427.87,52.7029 430.5,47.5 Z"/></g>
<g><path style="opacity:1" fill="#535353" d="M 355.5,47.5 C 356.833,48.5 358.167,49.5 359.5,50.5C 361.167,52.8333 363.167,54.8333 365.5,56.5C 366.6,57.6049 367.267,58.9382 367.5,60.5C 365.833,59.1667 364.167,57.8333 362.5,56.5C 360.5,53.8333 358.167,51.5 355.5,49.5C 355.5,48.8333 355.5,48.1667 355.5,47.5 Z"/></g>
<g><path style="opacity:1" fill="#979797" d="M 389.5,48.5 C 392.313,48.0246 394.313,49.0246 395.5,51.5C 393.033,51.2451 391.033,50.2451 389.5,48.5 Z"/></g>
<g><path style="opacity:1" fill="#b6b6b6" d="M 359.5,50.5 C 362.5,51.5 364.5,53.5 365.5,56.5C 363.167,54.8333 361.167,52.8333 359.5,50.5 Z"/></g>
<g><path style="opacity:1" fill="#aeaeae" d="M 395.5,51.5 C 396.167,51.5 396.833,51.5 397.5,51.5C 398.167,52.5 398.833,53.5 399.5,54.5C 397.596,54.2624 396.262,53.2624 395.5,51.5 Z"/></g>
<g><path style="opacity:1" fill="#626262" d="M 397.5,51.5 C 401.208,51.7117 403.874,53.3783 405.5,56.5C 403.5,55.8333 401.5,55.1667 399.5,54.5C 398.833,53.5 398.167,52.5 397.5,51.5 Z"/></g>
<g><path style="opacity:1" fill="#d2d2d2" d="M 399.5,54.5 C 401.5,55.1667 403.5,55.8333 405.5,56.5C 406.167,57.5 406.833,58.5 407.5,59.5C 404.046,58.9247 401.379,57.258 399.5,54.5 Z"/></g>
<g><path style="opacity:1" fill="#7f7f7f" d="M 405.5,56.5 C 407.404,56.7376 408.738,57.7376 409.5,59.5C 408.833,59.5 408.167,59.5 407.5,59.5C 406.833,58.5 406.167,57.5 405.5,56.5 Z"/></g>
<g><path style="opacity:1" fill="#7c7c7c" d="M 367.5,60.5 C 369.262,61.2623 370.262,62.5956 370.5,64.5C 368.738,63.7377 367.738,62.4044 367.5,60.5 Z"/></g>
<g><path style="opacity:1" fill="#898989" d="M 409.5,59.5 C 411.749,60.0798 413.415,61.4131 414.5,63.5C 412.251,62.9202 410.585,61.5869 409.5,59.5 Z"/></g>
<g><path style="opacity:1" fill="#898989" d="M 414.5,63.5 C 418.1,65.4302 421.1,68.0969 423.5,71.5C 423.167,71.5 422.833,71.5 422.5,71.5C 419.5,69.1667 416.833,66.5 414.5,63.5 Z"/></g>
<g><path style="opacity:1" fill="#8d8d8d" d="M 370.5,64.5 C 371.906,64.9731 372.573,65.9731 372.5,67.5C 371.833,67.1667 371.167,66.8333 370.5,66.5C 370.5,65.8333 370.5,65.1667 370.5,64.5 Z"/></g>
<g><path style="opacity:0.942" fill="#535353" d="M 454.5,66.5 C 478.223,86.9301 493.223,112.597 499.5,143.5C 495.08,143.086 491.246,141.419 488,138.5C 477.944,116.125 466.61,94.4587 454,73.5C 453.204,70.9615 453.371,68.6282 454.5,66.5 Z"/></g>
<g><path style="opacity:1" fill="#3e3e3e" d="M 370.5,66.5 C 371.167,66.8333 371.833,67.1667 372.5,67.5C 372.5,68.1667 372.5,68.8333 372.5,69.5C 371.094,69.0269 370.427,68.0269 370.5,66.5 Z"/></g>
<g><path style="opacity:1" fill="#979797" d="M 372.5,67.5 C 373.906,67.9731 374.573,68.9731 374.5,70.5C 373.833,70.1667 373.167,69.8333 372.5,69.5C 372.5,68.8333 372.5,68.1667 372.5,67.5 Z"/></g>
<g><path style="opacity:1" fill="#444444" d="M 372.5,69.5 C 373.167,69.8333 373.833,70.1667 374.5,70.5C 374.5,71.1667 374.5,71.8333 374.5,72.5C 373.094,72.0269 372.427,71.0269 372.5,69.5 Z"/></g>
<g><path style="opacity:1" fill="#7b7b7b" d="M 423.5,71.5 C 425.062,71.7329 426.395,72.3995 427.5,73.5C 428.833,75.1667 430.167,76.8333 431.5,78.5C 431.167,78.5 430.833,78.5 430.5,78.5C 428.833,77.1667 427.167,75.8333 425.5,74.5C 424.833,73.5 424.167,72.5 423.5,71.5 Z"/></g>
<g><path style="opacity:0.983" fill="#353535" d="M 494.5,242.5 C 493.266,247.883 491.266,252.883 488.5,257.5C 482.226,254.957 478.892,250.29 478.5,243.5C 482.188,214.846 482.355,186.18 479,157.5C 476.526,141.563 471.026,126.897 462.5,113.5C 461.85,113.196 461.183,112.863 460.5,112.5C 459.548,114.045 459.215,115.712 459.5,117.5C 458.5,116.167 457.5,114.833 456.5,113.5C 456.573,111.973 455.906,110.973 454.5,110.5C 454.672,109.508 454.338,108.842 453.5,108.5C 453.851,105.188 452.518,102.855 449.5,101.5C 449.262,99.5956 448.262,98.2623 446.5,97.5C 446.262,95.5956 445.262,94.2623 443.5,93.5C 442.581,90.9108 440.914,88.9108 438.5,87.5C 436.573,84.2327 434.239,81.2327 431.5,78.5C 430.167,76.8333 428.833,75.1667 427.5,73.5C 427.369,72.7611 427.536,72.0944 428,71.5C 444.65,84.4724 457.983,100.139 468,118.5C 480.989,147.93 486.489,178.763 484.5,211C 483.102,219.194 483.269,227.361 485,235.5C 487.349,238.926 490.516,241.26 494.5,242.5 Z"/></g>
<g><path style="opacity:1" fill="#c6c6c6" d="M 422.5,71.5 C 422.833,71.5 423.167,71.5 423.5,71.5C 424.167,72.5 424.833,73.5 425.5,74.5C 423.5,74.5 422.5,73.5 422.5,71.5 Z"/></g>
<g><path style="opacity:1" fill="#909090" d="M 374.5,70.5 C 375.15,70.8039 375.817,71.1373 376.5,71.5C 379.516,76.1524 381.516,81.1524 382.5,86.5C 381.833,86.5 381.5,86.1667 381.5,85.5C 381.573,83.9731 380.906,82.9731 379.5,82.5C 379.107,80.7162 378.441,79.0495 377.5,77.5C 377.573,75.9731 376.906,74.9731 375.5,74.5C 375.672,73.5084 375.338,72.8417 374.5,72.5C 374.5,71.8333 374.5,71.1667 374.5,70.5 Z"/></g>
<g><path style="opacity:1" fill="#383838" d="M 375.5,74.5 C 376.906,74.9731 377.573,75.9731 377.5,77.5C 376.094,77.0269 375.427,76.0269 375.5,74.5 Z"/></g>
<g><path style="opacity:1" fill="#a4a4a4" d="M 430.5,78.5 C 430.833,78.5 431.167,78.5 431.5,78.5C 434.239,81.2327 436.573,84.2327 438.5,87.5C 435.097,85.1002 432.43,82.1002 430.5,78.5 Z"/></g>
<g><path style="opacity:1" fill="#3d3d3d" d="M 379.5,82.5 C 380.906,82.9731 381.573,83.9731 381.5,85.5C 380.094,85.0269 379.427,84.0269 379.5,82.5 Z"/></g>
<g><path style="opacity:1" fill="#888888" d="M 438.5,87.5 C 440.914,88.9108 442.581,90.9108 443.5,93.5C 441.833,92.1667 440.167,90.8333 438.5,89.5C 438.5,88.8333 438.5,88.1667 438.5,87.5 Z"/></g>
<g><path style="opacity:1" fill="#d3d3d3" d="M 438.5,89.5 C 440.167,90.8333 441.833,92.1667 443.5,93.5C 443.5,94.1667 443.5,94.8333 443.5,95.5C 441.086,94.0892 439.419,92.0892 438.5,89.5 Z"/></g>
<g><path style="opacity:1" fill="#989898" d="M 443.5,93.5 C 445.262,94.2623 446.262,95.5956 446.5,97.5C 445.5,96.8333 444.5,96.1667 443.5,95.5C 443.5,94.8333 443.5,94.1667 443.5,93.5 Z"/></g>
<g><path style="opacity:1" fill="#777777" d="M 383.5,90.5 C 385.975,91.6874 386.975,93.6874 386.5,96.5C 385.143,95.4097 384.143,94.0764 383.5,92.5C 383.5,91.8333 383.5,91.1667 383.5,90.5 Z"/></g>
<g><path style="opacity:1" fill="#9a9a9a" d="M 446.5,97.5 C 448.262,98.2623 449.262,99.5956 449.5,101.5C 447.738,100.738 446.738,99.4044 446.5,97.5 Z"/></g>
<g><path style="opacity:1" fill="#aaaaaa" d="M 382.5,86.5 C 383.764,88.2701 385.264,89.9368 387,91.5C 387.149,95.1325 387.982,98.4659 389.5,101.5C 389.5,104.167 389.5,106.833 389.5,109.5C 388.954,106.353 387.954,103.353 386.5,100.5C 386.5,99.1667 386.5,97.8333 386.5,96.5C 386.975,93.6874 385.975,91.6874 383.5,90.5C 382.566,89.4324 382.232,88.099 382.5,86.5 Z"/></g>
<g><path style="opacity:1" fill="#7c7c7c" d="M 449.5,101.5 C 452.518,102.855 453.851,105.188 453.5,108.5C 452.167,106.833 450.833,105.167 449.5,103.5C 449.5,102.833 449.5,102.167 449.5,101.5 Z"/></g>
<g><path style="opacity:1" fill="#d4d4d4" d="M 449.5,103.5 C 450.833,105.167 452.167,106.833 453.5,108.5C 454.338,108.842 454.672,109.508 454.5,110.5C 454.5,111.167 454.5,111.833 454.5,112.5C 451.607,110.252 449.94,107.252 449.5,103.5 Z"/></g>
<g><path style="opacity:1" fill="#1e1e1e" d="M 383.5,92.5 C 384.143,94.0764 385.143,95.4097 386.5,96.5C 386.5,97.8333 386.5,99.1667 386.5,100.5C 387.059,104.853 387.725,109.186 388.5,113.5C 388.5,114.167 388.5,114.833 388.5,115.5C 387.4,113.723 386.566,111.723 386,109.5C 385.691,103.732 384.858,98.0651 383.5,92.5 Z"/></g>
<g><path style="opacity:1" fill="#666666" d="M 386.5,100.5 C 387.954,103.353 388.954,106.353 389.5,109.5C 389.5,110.833 389.5,112.167 389.5,113.5C 389.167,113.5 388.833,113.5 388.5,113.5C 387.725,109.186 387.059,104.853 386.5,100.5 Z"/></g>
<g><path style="opacity:1" fill="#8e8e8e" d="M 454.5,110.5 C 455.906,110.973 456.573,111.973 456.5,113.5C 455.833,113.167 455.167,112.833 454.5,112.5C 454.5,111.833 454.5,111.167 454.5,110.5 Z"/></g>
<g><path style="opacity:0.983" fill="#2e2e2e" d="M 462.5,113.5 C 471.026,126.897 476.526,141.563 479,157.5C 482.355,186.18 482.188,214.846 478.5,243.5C 478.892,250.29 482.226,254.957 488.5,257.5C 487.341,261.151 485.674,264.485 483.5,267.5C 477.18,264.687 473.847,259.854 473.5,253C 479.198,224.436 481.032,195.603 479,166.5C 476.811,147.768 471.311,130.101 462.5,113.5 Z"/></g>
<g><path style="opacity:1" fill="#afafaf" d="M 454.5,112.5 C 455.167,112.833 455.833,113.167 456.5,113.5C 457.5,114.833 458.5,116.167 459.5,117.5C 460.167,119.833 460.833,122.167 461.5,124.5C 458.665,120.836 456.332,116.836 454.5,112.5 Z"/></g>
<g><path style="opacity:1" fill="#5e5e5e" d="M 459.5,117.5 C 461.897,120.309 463.23,123.642 463.5,127.5C 462.833,126.833 462.167,126.167 461.5,125.5C 461.5,125.167 461.5,124.833 461.5,124.5C 460.833,122.167 460.167,119.833 459.5,117.5 Z"/></g>
<g><path style="opacity:1" fill="#ebebeb" d="M 389.5,101.5 C 391.14,104.488 391.974,107.821 392,111.5C 392.824,121.009 392.658,130.343 391.5,139.5C 391.666,131.493 391.5,123.493 391,115.5C 390.809,113.292 390.309,111.292 389.5,109.5C 389.5,106.833 389.5,104.167 389.5,101.5 Z"/></g>
<g><path style="opacity:1" fill="#090909" d="M 191.5,145.5 C 190.167,145.5 188.833,145.5 187.5,145.5C 185.372,142.87 183.039,140.37 180.5,138C 176.81,134.825 172.81,132.158 168.5,130C 161.989,128.126 156.822,129.959 153,135.5C 150.867,139.232 149.534,143.232 149,147.5C 148.833,171.174 148.333,194.84 147.5,218.5C 146.264,219.246 144.93,219.579 143.5,219.5C 145.308,196.727 146.142,173.727 146,150.5C 146.394,144.923 147.728,139.59 150,134.5C 156.966,124.482 165.466,122.982 175.5,130C 181.101,134.953 186.434,140.119 191.5,145.5 Z"/></g>
<g><path style="opacity:1" fill="#434343" d="M 388.5,113.5 C 388.833,113.5 389.167,113.5 389.5,113.5C 390.769,122.186 390.769,130.853 389.5,139.5C 388.833,140.5 388.167,141.5 387.5,142.5C 388.383,133.533 388.716,124.533 388.5,115.5C 388.5,114.833 388.5,114.167 388.5,113.5 Z"/></g>
<g><path style="opacity:1" fill="#c5c5c5" d="M 461.5,125.5 C 462.167,126.167 462.833,126.833 463.5,127.5C 464.129,130.397 465.129,133.064 466.5,135.5C 466.5,136.167 466.5,136.833 466.5,137.5C 466.5,138.167 466.5,138.833 466.5,139.5C 464.303,135.089 462.636,130.422 461.5,125.5 Z"/></g>
<g><path style="opacity:1" fill="#101010" d="M 187.5,145.5 C 186.5,145.5 185.5,145.5 184.5,145.5C 179.212,138.881 172.545,134.214 164.5,131.5C 158.753,132.083 154.92,135.083 153,140.5C 152.08,143.101 151.413,145.768 151,148.5C 150.5,172.164 150.333,195.831 150.5,219.5C 150.5,219.833 150.5,220.167 150.5,220.5C 150.167,220.5 149.833,220.5 149.5,220.5C 143.167,220.5 136.833,220.5 130.5,220.5C 134.634,219.515 138.968,219.182 143.5,219.5C 144.93,219.579 146.264,219.246 147.5,218.5C 148.333,194.84 148.833,171.174 149,147.5C 149.534,143.232 150.867,139.232 153,135.5C 156.822,129.959 161.989,128.126 168.5,130C 172.81,132.158 176.81,134.825 180.5,138C 183.039,140.37 185.372,142.87 187.5,145.5 Z"/></g>
<g><path style="opacity:1" fill="#707070" d="M 463.5,127.5 C 465.655,129.617 466.655,132.284 466.5,135.5C 465.129,133.064 464.129,130.397 463.5,127.5 Z"/></g>
<g><path style="opacity:1" fill="#bbbbbb" d="M 389.5,109.5 C 390.309,111.292 390.809,113.292 391,115.5C 391.5,123.493 391.666,131.493 391.5,139.5C 390.479,144.678 389.146,149.678 387.5,154.5C 387.5,153.167 387.5,151.833 387.5,150.5C 387.5,149.167 387.5,147.833 387.5,146.5C 388.924,144.485 389.59,142.152 389.5,139.5C 390.769,130.853 390.769,122.186 389.5,113.5C 389.5,112.167 389.5,110.833 389.5,109.5 Z"/></g>
<g><path style="opacity:0.978" fill="#282828" d="M 462.5,113.5 C 471.311,130.101 476.811,147.768 479,166.5C 481.032,195.603 479.198,224.436 473.5,253C 473.847,259.854 477.18,264.687 483.5,267.5C 481.683,271.801 479.35,275.801 476.5,279.5C 470.637,276.949 467.637,272.449 467.5,266C 469.779,252.715 472.613,239.549 476,226.5C 479.268,203.802 479.268,181.136 476,158.5C 475.506,160.134 475.34,161.801 475.5,163.5C 475.167,163.5 474.833,163.5 474.5,163.5C 474.5,162.833 474.5,162.167 474.5,161.5C 474.665,158.482 474.498,155.482 474,152.5C 473.722,151.584 473.222,150.918 472.5,150.5C 471.57,146.204 470.737,141.87 470,137.5C 469.29,136.027 468.124,135.36 466.5,135.5C 466.655,132.284 465.655,129.617 463.5,127.5C 463.23,123.642 461.897,120.309 459.5,117.5C 459.215,115.712 459.548,114.045 460.5,112.5C 461.183,112.863 461.85,113.196 462.5,113.5 Z"/></g>
<g><path style="opacity:1" fill="#171717" d="M 184.5,145.5 C 182.833,145.5 181.167,145.5 179.5,145.5C 175.774,140.879 170.941,137.879 165,136.5C 160.841,137.324 157.841,139.658 156,143.5C 154.915,148.437 154.248,153.437 154,158.5C 153.174,178.073 153.341,197.573 154.5,217C 153.529,218.481 152.196,219.315 150.5,219.5C 150.333,195.831 150.5,172.164 151,148.5C 151.413,145.768 152.08,143.101 153,140.5C 154.92,135.083 158.753,132.083 164.5,131.5C 172.545,134.214 179.212,138.881 184.5,145.5 Z"/></g>
<g><path style="opacity:1" fill="#414141" d="M 466.5,135.5 C 468.124,135.36 469.29,136.027 470,137.5C 470.737,141.87 471.57,146.204 472.5,150.5C 471.5,148.5 470.5,146.5 469.5,144.5C 469.834,141.509 468.834,139.176 466.5,137.5C 466.5,136.833 466.5,136.167 466.5,135.5 Z"/></g>
<g><path style="opacity:0.998" fill="#262626" d="M 179.5,145.5 C 179.5,146.167 179.5,146.833 179.5,147.5C 175.124,144.645 170.457,142.312 165.5,140.5C 161.436,141.73 158.936,144.396 158,148.5C 156.562,172.128 156.062,195.795 156.5,219.5C 155.833,219.5 155.5,219.833 155.5,220.5C 153.833,220.5 152.167,220.5 150.5,220.5C 150.5,220.167 150.5,219.833 150.5,219.5C 152.196,219.315 153.529,218.481 154.5,217C 153.341,197.573 153.174,178.073 154,158.5C 154.248,153.437 154.915,148.437 156,143.5C 157.841,139.658 160.841,137.324 165,136.5C 170.941,137.879 175.774,140.879 179.5,145.5 Z"/></g>
<g><path style="opacity:1" fill="#9d9d9d" d="M 466.5,137.5 C 468.834,139.176 469.834,141.509 469.5,144.5C 468.728,143.306 467.728,142.306 466.5,141.5C 466.5,140.833 466.5,140.167 466.5,139.5C 466.5,138.833 466.5,138.167 466.5,137.5 Z"/></g>
<g><path style="opacity:0.996" fill="#333333" d="M 179.5,147.5 C 179.5,149.167 179.5,150.833 179.5,152.5C 175.717,149.524 171.55,147.191 167,145.5C 165.056,146.439 163.389,147.773 162,149.5C 160.709,172.117 160.042,194.783 160,217.5C 159.283,218.044 158.783,218.711 158.5,219.5C 157.833,219.5 157.167,219.5 156.5,219.5C 156.062,195.795 156.562,172.128 158,148.5C 158.936,144.396 161.436,141.73 165.5,140.5C 170.457,142.312 175.124,144.645 179.5,147.5 Z"/></g>
<g><path style="opacity:1" fill="#696969" d="M 389.5,139.5 C 389.59,142.152 388.924,144.485 387.5,146.5C 387.5,145.167 387.5,143.833 387.5,142.5C 388.167,141.5 388.833,140.5 389.5,139.5 Z"/></g>
<g><path style="opacity:1" fill="#9f9f9f" d="M 469.5,144.5 C 470.5,146.5 471.5,148.5 472.5,150.5C 472.5,151.833 472.5,153.167 472.5,154.5C 470.723,151.495 469.723,148.162 469.5,144.5 Z"/></g>
<g><path style="opacity:0.996" fill="#3f3f3f" d="M 179.5,152.5 C 179.5,154.5 179.5,156.5 179.5,158.5C 176.526,156.008 173.193,154.008 169.5,152.5C 167.803,153.364 166.637,154.697 166,156.5C 165.667,175.167 165.333,193.833 165,212.5C 165.442,217.456 163.276,219.789 158.5,219.5C 158.783,218.711 159.283,218.044 160,217.5C 160.042,194.783 160.709,172.117 162,149.5C 163.389,147.773 165.056,146.439 167,145.5C 171.55,147.191 175.717,149.524 179.5,152.5 Z"/></g>
<g><path style="opacity:1" fill="#e1e1e1" d="M 466.5,141.5 C 467.728,142.306 468.728,143.306 469.5,144.5C 469.723,148.162 470.723,151.495 472.5,154.5C 472.5,157.167 472.5,159.833 472.5,162.5C 470.628,155.562 468.628,148.562 466.5,141.5 Z"/></g>
<g><path style="opacity:0.993" fill="#494949" d="M 179.5,158.5 C 179.5,177.833 179.5,197.167 179.5,216.5C 191.5,216.5 203.5,216.5 215.5,216.5C 227.5,216.5 239.5,216.5 251.5,216.5C 227.316,216.836 203.316,217.836 179.5,219.5C 179.5,219.833 179.5,220.167 179.5,220.5C 171.5,220.5 163.5,220.5 155.5,220.5C 155.5,219.833 155.833,219.5 156.5,219.5C 157.167,219.5 157.833,219.5 158.5,219.5C 163.276,219.789 165.442,217.456 165,212.5C 165.333,193.833 165.667,175.167 166,156.5C 166.637,154.697 167.803,153.364 169.5,152.5C 173.193,154.008 176.526,156.008 179.5,158.5 Z"/></g>
<g><path style="opacity:1" fill="#393939" d="M 387.5,146.5 C 387.5,147.833 387.5,149.167 387.5,150.5C 386.833,151.5 386.167,152.5 385.5,153.5C 385.41,150.848 386.076,148.515 387.5,146.5 Z"/></g>
<g><path style="opacity:1" fill="#4f4f4f" d="M 472.5,150.5 C 473.222,150.918 473.722,151.584 474,152.5C 474.498,155.482 474.665,158.482 474.5,161.5C 473.833,159.167 473.167,156.833 472.5,154.5C 472.5,153.167 472.5,151.833 472.5,150.5 Z"/></g>
<g><path style="opacity:1" fill="#707070" d="M 387.5,150.5 C 387.5,151.833 387.5,153.167 387.5,154.5C 386.433,156.964 385.1,159.297 383.5,161.5C 383.584,158.673 384.25,156.006 385.5,153.5C 386.167,152.5 386.833,151.5 387.5,150.5 Z"/></g>
<g><path style="opacity:0.983" fill="#242424" d="M 476.5,279.5 C 474.183,283.146 471.516,286.48 468.5,289.5C 463.578,286.565 460.578,282.232 459.5,276.5C 464.796,260.32 469.629,243.986 474,227.5C 475.092,223.203 475.425,218.869 475,214.5C 474.148,215.571 473.315,216.571 472.5,217.5C 472.5,216.167 472.5,214.833 472.5,213.5C 473.977,209.767 474.811,205.767 475,201.5C 475.5,188.838 475.667,176.171 475.5,163.5C 475.34,161.801 475.506,160.134 476,158.5C 479.268,181.136 479.268,203.802 476,226.5C 472.613,239.549 469.779,252.715 467.5,266C 467.637,272.449 470.637,276.949 476.5,279.5 Z"/></g>
<g><path style="opacity:1" fill="#dddddd" d="M 387.5,154.5 C 387.662,156.527 387.495,158.527 387,160.5C 385.581,162.993 384.081,165.326 382.5,167.5C 383.15,165.565 383.483,163.565 383.5,161.5C 385.1,159.297 386.433,156.964 387.5,154.5 Z"/></g>
<g><path style="opacity:1" fill="#909090" d="M 383.5,161.5 C 383.483,163.565 383.15,165.565 382.5,167.5C 381.833,168.167 381.167,168.833 380.5,169.5C 380.5,168.833 380.5,168.167 380.5,167.5C 380.992,165.181 381.992,163.181 383.5,161.5 Z"/></g>
<g><path style="opacity:1" fill="#434343" d="M 380.5,167.5 C 380.5,168.167 380.5,168.833 380.5,169.5C 379.833,169.833 379.167,170.167 378.5,170.5C 378.427,168.973 379.094,167.973 380.5,167.5 Z"/></g>
<g><path style="opacity:1" fill="#969696" d="M 472.5,154.5 C 473.167,156.833 473.833,159.167 474.5,161.5C 474.5,162.167 474.5,162.833 474.5,163.5C 474.828,174.679 474.495,185.679 473.5,196.5C 473.828,184.988 473.495,173.654 472.5,162.5C 472.5,159.833 472.5,157.167 472.5,154.5 Z"/></g>
<g><path style="opacity:1" fill="#7d7d7d" d="M 380.5,169.5 C 380.5,170.167 380.5,170.833 380.5,171.5C 379.833,171.833 379.167,172.167 378.5,172.5C 378.5,171.833 378.5,171.167 378.5,170.5C 379.167,170.167 379.833,169.833 380.5,169.5 Z"/></g>
<g><path style="opacity:1" fill="#a7a7a7" d="M 380.5,171.5 C 379.242,173.687 378.242,176.02 377.5,178.5C 376.5,179.167 375.5,179.833 374.5,180.5C 375.63,178.685 376.296,176.685 376.5,174.5C 377.167,173.833 377.833,173.167 378.5,172.5C 379.167,172.167 379.833,171.833 380.5,171.5 Z"/></g>
<g><path style="opacity:1" fill="#505050" d="M 376.5,174.5 C 376.296,176.685 375.63,178.685 374.5,180.5C 373.026,181.436 372.026,182.77 371.5,184.5C 370.833,184.833 370.167,185.167 369.5,185.5C 371.446,181.561 373.779,177.894 376.5,174.5 Z"/></g>
<g><path style="opacity:1" fill="#d8d8d8" d="M 472.5,162.5 C 473.495,173.654 473.828,184.988 473.5,196.5C 472.968,202.152 472.635,207.819 472.5,213.5C 471.076,215.515 470.41,217.848 470.5,220.5C 469.833,220.833 469.167,221.167 468.5,221.5C 470.269,214.286 471.436,206.953 472,199.5C 472.5,187.171 472.667,174.838 472.5,162.5 Z"/></g>
<g><path style="opacity:1" fill="#e0e0e0" d="M 377.5,178.5 C 376.808,181.935 374.808,183.935 371.5,184.5C 372.026,182.77 373.026,181.436 374.5,180.5C 375.5,179.833 376.5,179.167 377.5,178.5 Z"/></g>
<g><path style="opacity:1" fill="#c6c6c6" d="M 371.5,184.5 C 371.573,186.027 370.906,187.027 369.5,187.5C 369.5,186.833 369.5,186.167 369.5,185.5C 370.167,185.167 370.833,184.833 371.5,184.5 Z"/></g>
<g><path style="opacity:1" fill="#d1d1d1" d="M 369.5,187.5 C 368.474,190.372 366.808,192.872 364.5,195C 359.208,199.472 353.541,203.305 347.5,206.5C 355.449,200.885 362.782,194.552 369.5,187.5 Z"/></g>
<g><path style="opacity:1" fill="#656565" d="M 369.5,185.5 C 369.5,186.167 369.5,186.833 369.5,187.5C 362.782,194.552 355.449,200.885 347.5,206.5C 346.167,206.5 344.833,206.5 343.5,206.5C 353.304,200.928 361.971,193.928 369.5,185.5 Z"/></g>
<g><path style="opacity:1" fill="#696969" d="M 474.5,163.5 C 474.833,163.5 475.167,163.5 475.5,163.5C 475.667,176.171 475.5,188.838 475,201.5C 474.811,205.767 473.977,209.767 472.5,213.5C 472.635,207.819 472.968,202.152 473.5,196.5C 474.495,185.679 474.828,174.679 474.5,163.5 Z"/></g>
<g><path style="opacity:1" fill="#b2b2b2" d="M 343.5,206.5 C 344.833,206.5 346.167,206.5 347.5,206.5C 344.485,208.674 341.151,210.341 337.5,211.5C 337.5,211.167 337.5,210.833 337.5,210.5C 339.5,209.167 341.5,207.833 343.5,206.5 Z"/></g>
<g><path style="opacity:0.278" fill="#656565" d="M 337.5,210.5 C 337.5,210.833 337.5,211.167 337.5,211.5C 335.236,212.219 332.903,212.552 330.5,212.5C 330.5,212.167 330.5,211.833 330.5,211.5C 331.172,210.733 332.005,210.066 333,209.5C 334.356,210.38 335.856,210.714 337.5,210.5 Z"/></g>
<g><path style="opacity:0.013" fill="#323232" d="M 323.5,211.5 C 325.833,211.5 328.167,211.5 330.5,211.5C 330.5,211.833 330.5,212.167 330.5,212.5C 323.987,212.167 317.654,213 311.5,215C 294.995,215.169 278.662,215.669 262.5,216.5C 258.833,216.5 255.167,216.5 251.5,216.5C 239.5,216.5 227.5,216.5 215.5,216.5C 221.319,215.672 227.319,215.172 233.5,215C 257.833,214.667 282.167,214.333 306.5,214C 312.11,212.757 317.776,211.924 323.5,211.5 Z"/></g>
<g><path style="opacity:0.981" fill="#1b1b1b" d="M 468.5,289.5 C 465.877,293.791 462.544,297.457 458.5,300.5C 455.853,297.883 453.686,294.883 452,291.5C 451.333,287.833 451.333,284.167 452,280.5C 458.192,266.948 463.692,253.114 468.5,239C 468.333,238.5 468.167,238 468,237.5C 467.722,238.416 467.222,239.082 466.5,239.5C 466.5,238.167 466.5,236.833 466.5,235.5C 468.99,232.374 470.323,228.708 470.5,224.5C 471.924,222.485 472.59,220.152 472.5,217.5C 473.315,216.571 474.148,215.571 475,214.5C 475.425,218.869 475.092,223.203 474,227.5C 469.629,243.986 464.796,260.32 459.5,276.5C 460.578,282.232 463.578,286.565 468.5,289.5 Z"/></g>
<g><path style="opacity:0.051" fill="#595959" d="M 330.5,212.5 C 329.791,213.404 328.791,213.737 327.5,213.5C 322.867,213.678 318.533,214.678 314.5,216.5C 311.833,216.5 309.167,216.5 306.5,216.5C 291.833,216.5 277.167,216.5 262.5,216.5C 278.662,215.669 294.995,215.169 311.5,215C 317.654,213 323.987,212.167 330.5,212.5 Z"/></g>
<g><path style="opacity:0.718" fill="#a7a7a7" d="M 327.5,213.5 C 323.694,216.034 319.36,217.034 314.5,216.5C 318.533,214.678 322.867,213.678 327.5,213.5 Z"/></g>
<g><path style="opacity:0.183" fill="#7a7a7a" d="M 251.5,216.5 C 255.167,216.5 258.833,216.5 262.5,216.5C 277.167,216.5 291.833,216.5 306.5,216.5C 306.5,217.167 306.167,217.5 305.5,217.5C 263.496,217.945 221.496,218.611 179.5,219.5C 203.316,217.836 227.316,216.836 251.5,216.5 Z"/></g>
<g><path style="opacity:0.765" fill="#bababa" d="M 305.5,217.5 C 296.859,218.832 287.859,219.498 278.5,219.5C 245.504,220.25 212.504,220.583 179.5,220.5C 179.5,220.167 179.5,219.833 179.5,219.5C 221.496,218.611 263.496,217.945 305.5,217.5 Z"/></g>
<g><path style="opacity:1" fill="#7d7d7d" d="M 472.5,213.5 C 472.5,214.833 472.5,216.167 472.5,217.5C 471.833,218.5 471.167,219.5 470.5,220.5C 470.41,217.848 471.076,215.515 472.5,213.5 Z"/></g>
<g><path style="opacity:1" fill="#3e3e3e" d="M 130.5,220.5 C 136.833,220.5 143.167,220.5 149.5,220.5C 131.143,221.04 112.809,222.04 94.5,223.5C 92.8333,223.5 91.1667,223.5 89.5,223.5C 88.1667,223.5 86.8333,223.5 85.5,223.5C 85.9175,222.778 86.5842,222.278 87.5,222C 101.818,221.028 116.152,220.528 130.5,220.5 Z"/></g>
<g><path style="opacity:1" fill="#909090" d="M 149.5,220.5 C 149.833,220.5 150.167,220.5 150.5,220.5C 152.167,220.5 153.833,220.5 155.5,220.5C 163.5,220.5 171.5,220.5 179.5,220.5C 169.833,221.167 160.167,221.833 150.5,222.5C 131.825,222.457 113.158,222.791 94.5,223.5C 112.809,222.04 131.143,221.04 149.5,220.5 Z"/></g>
<g><path style="opacity:0.922" fill="#e2e2e2" d="M 337.5,211.5 C 334.367,212.901 331.367,214.734 328.5,217C 321.048,217.231 313.715,218.231 306.5,220C 286.463,220.075 266.463,220.741 246.5,222C 214.502,222.5 182.502,222.667 150.5,222.5C 160.167,221.833 169.833,221.167 179.5,220.5C 212.504,220.583 245.504,220.25 278.5,219.5C 287.859,219.498 296.859,218.832 305.5,217.5C 306.167,217.5 306.5,217.167 306.5,216.5C 309.167,216.5 311.833,216.5 314.5,216.5C 319.36,217.034 323.694,216.034 327.5,213.5C 328.791,213.737 329.791,213.404 330.5,212.5C 332.903,212.552 335.236,212.219 337.5,211.5 Z"/></g>
<g><path style="opacity:1" fill="#3d3d3d" d="M 472.5,217.5 C 472.59,220.152 471.924,222.485 470.5,224.5C 470.5,223.833 470.5,223.167 470.5,222.5C 470.5,221.833 470.5,221.167 470.5,220.5C 471.167,219.5 471.833,218.5 472.5,217.5 Z"/></g>
<g><path style="opacity:1" fill="#494949" d="M 81.5,223.5 C 80.5,224.167 79.5,224.833 78.5,225.5C 77.1667,225.5 75.8333,225.5 74.5,225.5C 76.5145,224.076 78.8478,223.41 81.5,223.5 Z"/></g>
<g><path style="opacity:1" fill="#9b9b9b" d="M 81.5,223.5 C 82.8333,223.5 84.1667,223.5 85.5,223.5C 86.8333,223.5 88.1667,223.5 89.5,223.5C 86.0264,224.525 82.3597,225.192 78.5,225.5C 79.5,224.833 80.5,224.167 81.5,223.5 Z"/></g>
<g><path style="opacity:1" fill="#808080" d="M 470.5,222.5 C 470.5,223.167 470.5,223.833 470.5,224.5C 469.539,227.055 468.206,229.388 466.5,231.5C 466.366,229.708 466.699,228.042 467.5,226.5C 468.143,224.924 469.143,223.59 470.5,222.5 Z"/></g>
<g><path style="opacity:1" fill="#b4b4b4" d="M 470.5,220.5 C 470.5,221.167 470.5,221.833 470.5,222.5C 469.143,223.59 468.143,224.924 467.5,226.5C 467.5,225.833 467.5,225.167 467.5,224.5C 467.263,223.209 467.596,222.209 468.5,221.5C 469.167,221.167 469.833,220.833 470.5,220.5 Z"/></g>
<g><path style="opacity:1" fill="#6e6e6e" d="M 74.5,225.5 C 72.9275,226.687 71.2608,227.687 69.5,228.5C 67.5648,229.15 65.5648,229.483 63.5,229.5C 66.8004,227.358 70.467,226.025 74.5,225.5 Z"/></g>
<g><path style="opacity:1" fill="#b3b3b3" d="M 74.5,225.5 C 75.8333,225.5 77.1667,225.5 78.5,225.5C 75.9164,227.472 72.9164,228.472 69.5,228.5C 71.2608,227.687 72.9275,226.687 74.5,225.5 Z"/></g>
<g><path style="opacity:1" fill="#3c3c3c" d="M 470.5,224.5 C 470.323,228.708 468.99,232.374 466.5,235.5C 466.5,234.833 466.5,234.167 466.5,233.5C 466.5,232.833 466.5,232.167 466.5,231.5C 468.206,229.388 469.539,227.055 470.5,224.5 Z"/></g>
<g><path style="opacity:1" fill="#505050" d="M 61.5,229.5 C 61.1667,230.167 60.8333,230.833 60.5,231.5C 59.8333,231.5 59.1667,231.5 58.5,231.5C 58.9731,230.094 59.9731,229.427 61.5,229.5 Z"/></g>
<g><path style="opacity:1" fill="#9a9a9a" d="M 61.5,229.5 C 62.1667,229.5 62.8333,229.5 63.5,229.5C 63.0269,230.906 62.0269,231.573 60.5,231.5C 60.8333,230.833 61.1667,230.167 61.5,229.5 Z"/></g>
<g><path style="opacity:1" fill="#e1e1e1" d="M 467.5,224.5 C 467.5,225.167 467.5,225.833 467.5,226.5C 466.699,228.042 466.366,229.708 466.5,231.5C 466.5,232.167 466.5,232.833 466.5,233.5C 464.926,234.984 463.593,236.651 462.5,238.5C 463.78,233.658 465.447,228.991 467.5,224.5 Z"/></g>
<g><path style="opacity:1" fill="#4f4f4f" d="M 58.5,231.5 C 58.1667,232.167 57.8333,232.833 57.5,233.5C 55.9731,233.427 54.9731,234.094 54.5,235.5C 53.8333,235.5 53.1667,235.5 52.5,235.5C 53.8021,233.178 55.8021,231.845 58.5,231.5 Z"/></g>
<g><path style="opacity:1" fill="#b9b9b9" d="M 57.5,233.5 C 57.0269,234.906 56.0269,235.573 54.5,235.5C 54.9731,234.094 55.9731,233.427 57.5,233.5 Z"/></g>
<g><path style="opacity:0.981" fill="#161616" d="M 458.5,300.5 C 454.833,304.833 450.833,308.833 446.5,312.5C 443.082,308.231 440.748,303.398 439.5,298C 439.796,296.112 440.296,294.278 441,292.5C 445.745,283.544 450.078,274.544 454,265.5C 452.961,266.71 451.794,267.71 450.5,268.5C 450.5,267.833 450.5,267.167 450.5,266.5C 453.632,264.797 455.299,262.13 455.5,258.5C 455.5,257.833 455.5,257.167 455.5,256.5C 456.5,256.167 457.167,255.5 457.5,254.5C 459.942,252.879 461.275,250.546 461.5,247.5C 463.171,244.796 464.837,242.129 466.5,239.5C 467.222,239.082 467.722,238.416 468,237.5C 468.167,238 468.333,238.5 468.5,239C 463.692,253.114 458.192,266.948 452,280.5C 451.333,284.167 451.333,287.833 452,291.5C 453.686,294.883 455.853,297.883 458.5,300.5 Z"/></g>
<g><path style="opacity:1" fill="#4c4c4c" d="M 466.5,235.5 C 466.5,236.833 466.5,238.167 466.5,239.5C 464.837,242.129 463.171,244.796 461.5,247.5C 462.105,242.968 463.772,238.968 466.5,235.5 Z"/></g>
<g><path style="opacity:1" fill="#b7b7b7" d="M 466.5,233.5 C 466.5,234.167 466.5,234.833 466.5,235.5C 463.772,238.968 462.105,242.968 461.5,247.5C 460.5,247.833 459.833,248.5 459.5,249.5C 457.058,251.121 455.725,253.454 455.5,256.5C 455.5,257.167 455.5,257.833 455.5,258.5C 453.484,260.249 451.818,262.249 450.5,264.5C 451.374,261.081 452.54,257.748 454,254.5C 457.623,249.588 460.456,244.255 462.5,238.5C 463.593,236.651 464.926,234.984 466.5,233.5 Z"/></g>
<g><path style="opacity:1" fill="#7f7f7f" d="M 52.5,235.5 C 49.8333,238.5 47.1667,241.5 44.5,244.5C 43.5,245.167 42.5,245.833 41.5,246.5C 41.5,246.167 41.5,245.833 41.5,245.5C 44.5628,241.434 48.2294,238.101 52.5,235.5 Z"/></g>
<g><path style="opacity:1" fill="#dfdfdf" d="M 52.5,235.5 C 53.1667,235.5 53.8333,235.5 54.5,235.5C 51.7689,239.234 48.4356,242.234 44.5,244.5C 47.1667,241.5 49.8333,238.5 52.5,235.5 Z"/></g>
<g><path style="opacity:1" fill="#535353" d="M 41.5,245.5 C 41.5,245.833 41.5,246.167 41.5,246.5C 41.5,246.833 41.5,247.167 41.5,247.5C 40.0937,247.973 39.427,248.973 39.5,250.5C 38.5,251.167 37.5,251.833 36.5,252.5C 37.4333,249.63 39.1,247.296 41.5,245.5 Z"/></g>
<g><path style="opacity:1" fill="#d4d4d4" d="M 41.5,247.5 C 41.8799,249.698 41.2132,251.365 39.5,252.5C 39.5,251.833 39.5,251.167 39.5,250.5C 39.427,248.973 40.0937,247.973 41.5,247.5 Z"/></g>
<g><path style="opacity:1" fill="#a9a9a9" d="M 39.5,250.5 C 39.5,251.167 39.5,251.833 39.5,252.5C 38.1429,253.59 37.1429,254.924 36.5,256.5C 36.5,255.833 36.5,255.167 36.5,254.5C 36.5,253.833 36.5,253.167 36.5,252.5C 37.5,251.833 38.5,251.167 39.5,250.5 Z"/></g>
<g><path style="opacity:1" fill="#393939" d="M 461.5,247.5 C 461.275,250.546 459.942,252.879 457.5,254.5C 458.167,252.833 458.833,251.167 459.5,249.5C 459.833,248.5 460.5,247.833 461.5,247.5 Z"/></g>
<g><path style="opacity:1" fill="#797979" d="M 459.5,249.5 C 458.833,251.167 458.167,252.833 457.5,254.5C 457.167,255.5 456.5,256.167 455.5,256.5C 455.725,253.454 457.058,251.121 459.5,249.5 Z"/></g>
<g><path style="opacity:1" fill="#717171" d="M 36.5,254.5 C 36.5,255.167 36.5,255.833 36.5,256.5C 36.5,257.167 36.5,257.833 36.5,258.5C 35.8333,259.5 35.1667,260.5 34.5,261.5C 34.5,260.5 34.5,259.5 34.5,258.5C 34.9887,257.005 35.6554,255.671 36.5,254.5 Z"/></g>
<g><path style="opacity:1" fill="#3d3d3d" d="M 455.5,258.5 C 455.299,262.13 453.632,264.797 450.5,266.5C 450.5,265.833 450.5,265.167 450.5,264.5C 451.818,262.249 453.484,260.249 455.5,258.5 Z"/></g>
<g><path style="opacity:1" fill="#373737" d="M 34.5,258.5 C 34.5,259.5 34.5,260.5 34.5,261.5C 33.5187,275.088 33.1853,288.754 33.5,302.5C 32.5048,290.345 32.1714,278.011 32.5,265.5C 32.4095,262.848 33.0762,260.515 34.5,258.5 Z"/></g>
<g><path style="opacity:1" fill="#aaaaaa" d="M 36.5,258.5 C 36.5,259.833 36.5,261.167 36.5,262.5C 35.7321,263.263 35.2321,264.263 35,265.5C 34.5001,277.829 34.3335,290.162 34.5,302.5C 34.1667,302.5 33.8333,302.5 33.5,302.5C 33.1853,288.754 33.5187,275.088 34.5,261.5C 35.1667,260.5 35.8333,259.5 36.5,258.5 Z"/></g>
<g><path style="opacity:0.989" fill="#0e0e0e" d="M 446.5,312.5 C 443.81,315.185 440.81,317.518 437.5,319.5C 430.046,318.849 423.046,316.682 416.5,313C 402.286,312.896 396.119,320.063 398,334.5C 399.245,340.322 401.578,345.655 405,350.5C 419.425,369.681 434.091,388.681 449,407.5C 460.098,421.554 463.431,437.221 459,454.5C 456.119,461.974 453.953,469.64 452.5,477.5C 452.83,480.324 453.664,482.991 455,485.5C 457.717,488.71 460.217,492.044 462.5,495.5C 461.415,497.587 459.749,498.92 457.5,499.5C 454.184,494.88 451.351,489.88 449,484.5C 448.833,482.833 448.667,481.167 448.5,479.5C 451.152,469.041 454.319,458.708 458,448.5C 459.066,440.006 458.399,431.672 456,423.5C 453.065,417.573 449.732,411.906 446,406.5C 430.757,387.013 415.757,367.347 401,347.5C 394.985,338.211 394.152,328.544 398.5,318.5C 396.955,317.548 395.288,317.215 393.5,317.5C 393.5,317.167 393.5,316.833 393.5,316.5C 396.157,316.065 398.491,315.065 400.5,313.5C 402.167,313.5 403.833,313.5 405.5,313.5C 405.5,312.5 405.5,311.5 405.5,310.5C 407.749,309.92 409.415,308.587 410.5,306.5C 413.089,305.581 415.089,303.914 416.5,301.5C 420.88,299.3 424.88,296.467 428.5,293C 430.464,291.549 431.797,289.716 432.5,287.5C 435.543,285.457 437.876,282.79 439.5,279.5C 442.573,277.431 444.906,274.764 446.5,271.5C 447.833,270.5 449.167,269.5 450.5,268.5C 451.794,267.71 452.961,266.71 454,265.5C 450.078,274.544 445.745,283.544 441,292.5C 440.296,294.278 439.796,296.112 439.5,298C 440.748,303.398 443.082,308.231 446.5,312.5 Z"/></g>
<g><path style="opacity:1" fill="#dddddd" d="M 36.5,262.5 C 35.5729,276.137 35.2396,289.804 35.5,303.5C 35.1667,303.5 34.8333,303.5 34.5,303.5C 34.5,303.167 34.5,302.833 34.5,302.5C 34.3335,290.162 34.5001,277.829 35,265.5C 35.2321,264.263 35.7321,263.263 36.5,262.5 Z"/></g>
<g><path style="opacity:1" fill="#4c4c4c" d="M 450.5,266.5 C 450.5,267.167 450.5,267.833 450.5,268.5C 449.167,269.5 447.833,270.5 446.5,271.5C 447.08,269.251 448.413,267.585 450.5,266.5 Z"/></g>
<g><path style="opacity:1" fill="#3c3c3c" d="M 446.5,271.5 C 444.906,274.764 442.573,277.431 439.5,279.5C 441.094,276.236 443.427,273.569 446.5,271.5 Z"/></g>
<g><path style="opacity:1" fill="#a4a4a4" d="M 450.5,264.5 C 450.5,265.167 450.5,265.833 450.5,266.5C 448.413,267.585 447.08,269.251 446.5,271.5C 443.427,273.569 441.094,276.236 439.5,279.5C 437.833,280.833 436.167,282.167 434.5,283.5C 439.088,276.575 444.422,270.242 450.5,264.5 Z"/></g>
<g><path style="opacity:1" fill="#373737" d="M 439.5,279.5 C 437.876,282.79 435.543,285.457 432.5,287.5C 432.557,286.391 432.89,285.391 433.5,284.5C 433.5,283.833 433.833,283.5 434.5,283.5C 436.167,282.167 437.833,280.833 439.5,279.5 Z"/></g>
<g><path style="opacity:1" fill="#8b8b8b" d="M 433.5,284.5 C 432.89,285.391 432.557,286.391 432.5,287.5C 430.116,289.885 427.45,291.885 424.5,293.5C 427.167,290.167 430.167,287.167 433.5,284.5 Z"/></g>
<g><path style="opacity:1" fill="#979797" d="M 424.5,293.5 C 422.14,296.527 419.473,299.194 416.5,301.5C 416.167,301.5 415.833,301.5 415.5,301.5C 415.511,299.983 416.177,298.816 417.5,298C 419.734,296.25 422.068,294.75 424.5,293.5 Z"/></g>
<g><path style="opacity:1" fill="#303030" d="M 432.5,287.5 C 431.797,289.716 430.464,291.549 428.5,293C 424.88,296.467 420.88,299.3 416.5,301.5C 419.473,299.194 422.14,296.527 424.5,293.5C 427.45,291.885 430.116,289.885 432.5,287.5 Z"/></g>
<g><path style="opacity:1" fill="#393939" d="M 415.5,301.5 C 415.833,301.5 416.167,301.5 416.5,301.5C 415.089,303.914 413.089,305.581 410.5,306.5C 411.5,305.167 412.5,303.833 413.5,302.5C 414.167,302.167 414.833,301.833 415.5,301.5 Z"/></g>
<g><path style="opacity:1" fill="#9f9f9f" d="M 413.5,302.5 C 412.5,303.833 411.5,305.167 410.5,306.5C 408.251,307.08 406.585,308.413 405.5,310.5C 403.566,311.11 401.899,312.11 400.5,313.5C 399.833,313.5 399.167,313.5 398.5,313.5C 403.214,309.454 408.214,305.788 413.5,302.5 Z"/></g>
<g><path style="opacity:1" fill="#3e3e3e" d="M 410.5,306.5 C 409.415,308.587 407.749,309.92 405.5,310.5C 406.585,308.413 408.251,307.08 410.5,306.5 Z"/></g>
<g><path style="opacity:1" fill="#2d2d2d" d="M 405.5,310.5 C 405.5,311.5 405.5,312.5 405.5,313.5C 403.833,313.5 402.167,313.5 400.5,313.5C 401.899,312.11 403.566,311.11 405.5,310.5 Z"/></g>
<g><path style="opacity:0.986" fill="#151515" d="M 437.5,319.5 C 436.564,320.974 435.23,321.974 433.5,322.5C 428.077,320.852 422.744,318.685 417.5,316C 410.155,313.763 404.655,315.93 401,322.5C 399.524,327.076 399.19,331.743 400,336.5C 402.221,342.61 405.221,348.277 409,353.5C 426.308,374.787 442.642,396.787 458,419.5C 462.202,429.087 463.535,439.087 462,449.5C 460.088,457.649 458.254,465.816 456.5,474C 457.963,481.281 461.63,487.114 467.5,491.5C 466.055,493.063 464.389,494.396 462.5,495.5C 460.217,492.044 457.717,488.71 455,485.5C 453.664,482.991 452.83,480.324 452.5,477.5C 453.953,469.64 456.119,461.974 459,454.5C 463.431,437.221 460.098,421.554 449,407.5C 434.091,388.681 419.425,369.681 405,350.5C 401.578,345.655 399.245,340.322 398,334.5C 396.119,320.063 402.286,312.896 416.5,313C 423.046,316.682 430.046,318.849 437.5,319.5 Z"/></g>
<g><path style="opacity:1" fill="#747474" d="M 398.5,313.5 C 399.167,313.5 399.833,313.5 400.5,313.5C 398.491,315.065 396.157,316.065 393.5,316.5C 394.659,314.75 396.326,313.75 398.5,313.5 Z"/></g>
<g><path style="opacity:0.988" fill="#1b1b1b" d="M 433.5,322.5 C 432.71,323.401 431.71,324.068 430.5,324.5C 425.369,322.11 420.036,319.943 414.5,318C 409.443,317.278 405.61,319.112 403,323.5C 400.23,333.532 402.23,342.532 409,350.5C 422.667,368.167 436.333,385.833 450,403.5C 454.759,410.011 458.759,417.011 462,424.5C 463.878,430.18 464.712,436.014 464.5,442C 463.386,452.171 462.552,462.338 462,472.5C 464.199,477.867 467.699,482.201 472.5,485.5C 470.804,487.525 469.137,489.525 467.5,491.5C 461.63,487.114 457.963,481.281 456.5,474C 458.254,465.816 460.088,457.649 462,449.5C 463.535,439.087 462.202,429.087 458,419.5C 442.642,396.787 426.308,374.787 409,353.5C 405.221,348.277 402.221,342.61 400,336.5C 399.19,331.743 399.524,327.076 401,322.5C 404.655,315.93 410.155,313.763 417.5,316C 422.744,318.685 428.077,320.852 433.5,322.5 Z"/></g>
<g><path style="opacity:1" fill="#8f8f8f" d="M 393.5,316.5 C 393.5,316.833 393.5,317.167 393.5,317.5C 392.167,317.833 390.833,318.167 389.5,318.5C 390.287,316.896 391.62,316.229 393.5,316.5 Z"/></g>
<g><path style="opacity:0.993" fill="#090909" d="M 393.5,317.5 C 395.288,317.215 396.955,317.548 398.5,318.5C 394.152,328.544 394.985,338.211 401,347.5C 415.757,367.347 430.757,387.013 446,406.5C 449.732,411.906 453.065,417.573 456,423.5C 458.399,431.672 459.066,440.006 458,448.5C 454.319,458.708 451.152,469.041 448.5,479.5C 448.667,481.167 448.833,482.833 449,484.5C 451.351,489.88 454.184,494.88 457.5,499.5C 456.198,501.822 454.198,503.155 451.5,503.5C 448.758,499.019 446.258,494.353 444,489.5C 442.015,483.727 442.348,478.06 445,472.5C 449.443,464.949 452.777,456.949 455,448.5C 457.797,435.816 455.463,424.149 448,413.5C 431.333,391.5 414.667,369.5 398,347.5C 393.31,338.373 391.81,329.039 393.5,319.5C 393.5,318.833 393.5,318.167 393.5,317.5 Z"/></g>
<g><path style="opacity:1" fill="#7b7b7b" d="M 387.5,318.5 C 388.167,318.5 388.833,318.5 389.5,318.5C 389.167,319.167 388.833,319.833 388.5,320.5C 387.833,320.5 387.167,320.5 386.5,320.5C 386.833,319.833 387.167,319.167 387.5,318.5 Z"/></g>
<g><path style="opacity:1" fill="#2f2f2f" d="M 393.5,317.5 C 393.5,318.167 393.5,318.833 393.5,319.5C 391.784,319.629 390.117,319.962 388.5,320.5C 388.833,319.833 389.167,319.167 389.5,318.5C 390.833,318.167 392.167,317.833 393.5,317.5 Z"/></g>
<g><path style="opacity:1" fill="#4e4e4e" d="M 386.5,320.5 C 385.738,322.262 384.404,323.262 382.5,323.5C 383.262,321.738 384.596,320.738 386.5,320.5 Z"/></g>
<g><path style="opacity:1" fill="#b5b5b5" d="M 387.5,318.5 C 387.167,319.167 386.833,319.833 386.5,320.5C 384.596,320.738 383.262,321.738 382.5,323.5C 380.847,323.66 379.514,324.326 378.5,325.5C 376.565,326.15 374.565,326.483 372.5,326.5C 377.24,323.466 382.24,320.799 387.5,318.5 Z"/></g>
<g><path style="opacity:0.983" fill="#323232" d="M 427.5,326.5 C 426.167,327.5 426.167,328.5 427.5,329.5C 406.557,323.332 402.057,329.666 414,348.5C 430.051,368.883 445.717,389.55 461,410.5C 463,414.5 465,418.5 467,422.5C 470.003,432.862 473.003,443.195 476,453.5C 478.985,456.409 482.485,458.409 486.5,459.5C 485.285,464.812 483.285,469.812 480.5,474.5C 475.286,472.304 471.452,468.637 469,463.5C 469.241,449.575 467.575,435.908 464,422.5C 461.88,416.565 458.547,411.565 454,407.5C 453,404.5 452,401.5 451,398.5C 442.333,387.167 433.667,375.833 425,364.5C 418.968,358.802 413.301,352.802 408,346.5C 399.637,324.363 406.137,317.696 427.5,326.5 Z"/></g>
<g><path style="opacity:1" fill="#c2c2c2" d="M 372.5,326.5 C 372.5,326.833 372.5,327.167 372.5,327.5C 370.435,327.517 368.435,327.85 366.5,328.5C 365.833,328.5 365.167,328.5 364.5,328.5C 364.611,327.883 364.944,327.383 365.5,327C 367.81,326.503 370.143,326.337 372.5,326.5 Z"/></g>
<g><path style="opacity:1" fill="#292929" d="M 378.5,325.5 C 377.082,327.308 375.082,327.975 372.5,327.5C 372.5,327.167 372.5,326.833 372.5,326.5C 374.565,326.483 376.565,326.15 378.5,325.5 Z"/></g>
<g><path style="opacity:0.985" fill="#3b3b3b" d="M 427.5,329.5 C 427.833,330.167 428.167,330.833 428.5,331.5C 423.025,329.284 417.359,328.451 411.5,329C 409.022,332.685 408.856,336.518 411,340.5C 427.282,363.116 443.948,385.449 461,407.5C 468.022,420.227 473.689,433.56 478,447.5C 481.298,449.565 484.798,451.232 488.5,452.5C 488.59,455.152 487.924,457.485 486.5,459.5C 482.485,458.409 478.985,456.409 476,453.5C 473.003,443.195 470.003,432.862 467,422.5C 465,418.5 463,414.5 461,410.5C 445.717,389.55 430.051,368.883 414,348.5C 402.057,329.666 406.557,323.332 427.5,329.5 Z"/></g>
<g><path style="opacity:1" fill="#464646" d="M 372.5,327.5 C 371.486,328.674 370.153,329.34 368.5,329.5C 367.833,329.5 367.167,329.5 366.5,329.5C 366.5,329.167 366.5,328.833 366.5,328.5C 368.435,327.85 370.435,327.517 372.5,327.5 Z"/></g>
<g><path style="opacity:0.98" fill="#414141" d="M 428.5,331.5 C 429.5,331.833 430.167,332.5 430.5,333.5C 425.779,332.82 421.113,331.82 416.5,330.5C 413.5,330.833 411.833,332.5 411.5,335.5C 412.036,337.942 412.869,340.275 414,342.5C 429.667,363.167 445.333,383.833 461,404.5C 467.613,415.325 473.28,426.658 478,438.5C 481.539,441.6 485.705,443.266 490.5,443.5C 490.324,446.727 489.657,449.727 488.5,452.5C 484.798,451.232 481.298,449.565 478,447.5C 473.689,433.56 468.022,420.227 461,407.5C 443.948,385.449 427.282,363.116 411,340.5C 408.856,336.518 409.022,332.685 411.5,329C 417.359,328.451 423.025,329.284 428.5,331.5 Z"/></g>
<g><path style="opacity:1" fill="#868686" d="M 364.5,328.5 C 365.167,328.5 365.833,328.5 366.5,328.5C 366.5,328.833 366.5,329.167 366.5,329.5C 364.847,329.66 363.514,330.326 362.5,331.5C 361.167,331.5 359.833,331.5 358.5,331.5C 358.5,331.167 358.5,330.833 358.5,330.5C 360.5,329.833 362.5,329.167 364.5,328.5 Z"/></g>
<g><path style="opacity:1" fill="#c1c1c1" d="M 358.5,330.5 C 358.5,330.833 358.5,331.167 358.5,331.5C 354.951,332.679 351.284,333.679 347.5,334.5C 346.5,334.5 345.5,334.5 344.5,334.5C 347.308,333.886 349.975,332.719 352.5,331C 354.473,330.505 356.473,330.338 358.5,330.5 Z"/></g>
<g><path style="opacity:1" fill="#242424" d="M 366.5,329.5 C 367.167,329.5 367.833,329.5 368.5,329.5C 366.898,331.074 364.898,331.741 362.5,331.5C 363.514,330.326 364.847,329.66 366.5,329.5 Z"/></g>
<g><path style="opacity:0.992" fill="#474747" d="M 430.5,333.5 C 431.167,334.5 431.833,335.5 432.5,336.5C 426.89,334.764 421.224,334.431 415.5,335.5C 414.617,337.48 414.783,339.48 416,341.5C 429.95,360.452 444.284,379.118 459,397.5C 466.013,407.519 472.013,418.186 477,429.5C 480.728,433.068 485.228,435.068 490.5,435.5C 490.5,438.167 490.5,440.833 490.5,443.5C 485.705,443.266 481.539,441.6 478,438.5C 473.28,426.658 467.613,415.325 461,404.5C 445.333,383.833 429.667,363.167 414,342.5C 412.869,340.275 412.036,337.942 411.5,335.5C 411.833,332.5 413.5,330.833 416.5,330.5C 421.113,331.82 425.779,332.82 430.5,333.5 Z"/></g>
<g><path style="opacity:1" fill="#4c4c4c" d="M 358.5,331.5 C 355.374,333.99 351.708,335.323 347.5,335.5C 347.5,335.167 347.5,334.833 347.5,334.5C 351.284,333.679 354.951,332.679 358.5,331.5 Z"/></g>
<g><path style="opacity:0.989" fill="#4e4e4e" d="M 432.5,336.5 C 433.803,338.142 435.136,339.809 436.5,341.5C 432.232,340.627 427.898,340.294 423.5,340.5C 423.491,342.308 423.991,343.975 425,345.5C 437,360.833 449,376.167 461,391.5C 466.585,400.335 471.919,409.335 477,418.5C 480.752,421.077 484.919,422.077 489.5,421.5C 490.383,426.103 490.717,430.77 490.5,435.5C 485.228,435.068 480.728,433.068 477,429.5C 472.013,418.186 466.013,407.519 459,397.5C 444.284,379.118 429.95,360.452 416,341.5C 414.783,339.48 414.617,337.48 415.5,335.5C 421.224,334.431 426.89,334.764 432.5,336.5 Z"/></g>
<g><path style="opacity:1" fill="#dadada" d="M 337.5,334.5 C 334.359,335.321 331.025,335.821 327.5,336C 326.944,336.383 326.611,336.883 326.5,337.5C 324.167,337.5 321.833,337.5 319.5,337.5C 318.167,337.5 316.833,337.5 315.5,337.5C 317.476,335.989 319.809,335.156 322.5,335C 327.489,334.501 332.489,334.334 337.5,334.5 Z"/></g>
<g><path style="opacity:1" fill="#999999" d="M 337.5,334.5 C 339.833,334.5 342.167,334.5 344.5,334.5C 345.5,334.5 346.5,334.5 347.5,334.5C 347.5,334.833 347.5,335.167 347.5,335.5C 344.482,335.704 341.482,336.037 338.5,336.5C 334.466,336.505 330.466,336.838 326.5,337.5C 326.611,336.883 326.944,336.383 327.5,336C 331.025,335.821 334.359,335.321 337.5,334.5 Z"/></g>
<g><path style="opacity:1" fill="#515151" d="M 338.5,336.5 C 330.082,338.468 321.416,339.468 312.5,339.5C 314.833,338.833 317.167,338.167 319.5,337.5C 321.833,337.5 324.167,337.5 326.5,337.5C 330.466,336.838 334.466,336.505 338.5,336.5 Z"/></g>
<g><path style="opacity:1" fill="#888888" d="M 315.5,337.5 C 316.833,337.5 318.167,337.5 319.5,337.5C 317.167,338.167 314.833,338.833 312.5,339.5C 307.833,339.5 303.167,339.5 298.5,339.5C 277.826,339.461 257.159,339.795 236.5,340.5C 232.5,340.5 228.5,340.5 224.5,340.5C 224.5,340.167 224.5,339.833 224.5,339.5C 254.847,338.949 285.18,338.282 315.5,337.5 Z"/></g>
<g><path style="opacity:1" fill="#bebebe" d="M 224.5,339.5 C 224.5,339.833 224.5,340.167 224.5,340.5C 197.829,340.526 171.162,340.859 144.5,341.5C 144.5,341.167 144.5,340.833 144.5,340.5C 171.16,339.769 197.827,339.436 224.5,339.5 Z"/></g>
<g><path style="opacity:1" fill="#1b1b1b" d="M 32.5,265.5 C 32.1714,278.011 32.5048,290.345 33.5,302.5C 33.8333,302.5 34.1667,302.5 34.5,302.5C 34.5,302.833 34.5,303.167 34.5,303.5C 34.5,322.167 34.5,340.833 34.5,359.5C 33.7784,359.082 33.2784,358.416 33,357.5C 32.5987,333.165 32.0987,308.831 31.5,284.5C 31.5004,277.991 31.8338,271.658 32.5,265.5 Z"/></g>
<g><path style="opacity:1" fill="#cecece" d="M 144.5,340.5 C 144.5,340.833 144.5,341.167 144.5,341.5C 137.138,341.365 129.804,341.698 122.5,342.5C 116.833,342.5 111.167,342.5 105.5,342.5C 104.167,342.5 102.833,342.5 101.5,342.5C 102.952,341.698 104.618,341.198 106.5,341C 119.162,340.5 131.829,340.333 144.5,340.5 Z"/></g>
<g><path style="opacity:0.945" fill="#535353" d="M 436.5,341.5 C 451.137,360.315 465.637,379.315 480,398.5C 484.29,405.741 487.457,413.408 489.5,421.5C 484.919,422.077 480.752,421.077 477,418.5C 471.919,409.335 466.585,400.335 461,391.5C 449,376.167 437,360.833 425,345.5C 423.991,343.975 423.491,342.308 423.5,340.5C 427.898,340.294 432.232,340.627 436.5,341.5 Z"/></g>
<g><path style="opacity:1" fill="#555555" d="M 224.5,340.5 C 228.5,340.5 232.5,340.5 236.5,340.5C 216.833,341.167 197.167,341.833 177.5,342.5C 159.163,342.683 140.83,343.016 122.5,343.5C 122.5,343.167 122.5,342.833 122.5,342.5C 129.804,341.698 137.138,341.365 144.5,341.5C 171.162,340.859 197.829,340.526 224.5,340.5 Z"/></g>
<g><path style="opacity:1" fill="#1d1d1d" d="M 298.5,339.5 C 258.363,341.961 218.03,342.961 177.5,342.5C 197.167,341.833 216.833,341.167 236.5,340.5C 257.159,339.795 277.826,339.461 298.5,339.5 Z"/></g>
<g><path style="opacity:1" fill="#c5c5c5" d="M 101.5,342.5 C 102.833,342.5 104.167,342.5 105.5,342.5C 102.408,343.184 99.4083,344.184 96.5,345.5C 96.1667,345.5 95.8333,345.5 95.5,345.5C 90.5859,345.362 85.9192,346.028 81.5,347.5C 80.8333,347.5 80.1667,347.5 79.5,347.5C 79.8807,346.069 80.8807,345.236 82.5,345C 88.9719,344.851 95.3053,344.018 101.5,342.5 Z"/></g>
<g><path style="opacity:1" fill="#707070" d="M 105.5,342.5 C 111.167,342.5 116.833,342.5 122.5,342.5C 122.5,342.833 122.5,343.167 122.5,343.5C 120.5,343.5 118.5,343.5 116.5,343.5C 109.782,343.698 103.115,344.365 96.5,345.5C 99.4083,344.184 102.408,343.184 105.5,342.5 Z"/></g>
<g><path style="opacity:1" fill="#242424" d="M 116.5,343.5 C 109.736,345.235 102.736,346.235 95.5,346.5C 95.5,346.167 95.5,345.833 95.5,345.5C 95.8333,345.5 96.1667,345.5 96.5,345.5C 103.115,344.365 109.782,343.698 116.5,343.5 Z"/></g>
<g><path style="opacity:1" fill="#5a5a5a" d="M 95.5,345.5 C 95.5,345.833 95.5,346.167 95.5,346.5C 92.1401,346.616 88.8067,346.949 85.5,347.5C 84.1667,347.5 82.8333,347.5 81.5,347.5C 85.9192,346.028 90.5859,345.362 95.5,345.5 Z"/></g>
<g><path style="opacity:1" fill="#252525" d="M 81.5,347.5 C 82.8333,347.5 84.1667,347.5 85.5,347.5C 83.8984,349.074 81.8984,349.741 79.5,349.5C 80.1667,348.833 80.8333,348.167 81.5,347.5 Z"/></g>
<g><path style="opacity:0.994" fill="#090909" d="M 191.5,368.5 C 190.167,368.5 188.833,368.5 187.5,368.5C 181.358,360.499 173.525,355.166 164,352.5C 156.522,353.64 151.855,357.973 150,365.5C 148.717,389.459 148.05,413.459 148,437.5C 147.625,442.21 146.958,446.877 146,451.5C 142.439,460.452 139.605,469.619 137.5,479C 139.026,486.217 142.026,492.717 146.5,498.5C 144.795,500.192 142.795,501.525 140.5,502.5C 136.552,495.765 133.552,488.598 131.5,481C 134.292,471.579 137.792,462.412 142,453.5C 143.472,449.277 144.472,444.943 145,440.5C 145.333,418.167 145.667,395.833 146,373.5C 146.368,368.696 147.368,364.03 149,359.5C 155.467,347.677 164.301,345.511 175.5,353C 181.101,357.953 186.434,363.119 191.5,368.5 Z"/></g>
<g><path style="opacity:1" fill="#c3c3c3" d="M 75.5,348.5 C 73.4907,350.065 71.1573,351.065 68.5,351.5C 70.0361,348.908 72.3695,347.908 75.5,348.5 Z"/></g>
<g><path style="opacity:1" fill="#565656" d="M 79.5,347.5 C 80.1667,347.5 80.8333,347.5 81.5,347.5C 80.8333,348.167 80.1667,348.833 79.5,349.5C 73.649,351.116 67.9823,353.116 62.5,355.5C 63.5903,354.143 64.9236,353.143 66.5,352.5C 67.1667,352.167 67.8333,351.833 68.5,351.5C 71.1573,351.065 73.4907,350.065 75.5,348.5C 76.8333,348.167 78.1667,347.833 79.5,347.5 Z"/></g>
<g><path style="opacity:0.992" fill="#0f0f0f" d="M 187.5,368.5 C 186.5,368.5 185.5,368.5 184.5,368.5C 179.212,361.881 172.545,357.214 164.5,354.5C 157.572,355.594 153.406,359.594 152,366.5C 150.717,390.459 150.05,414.459 150,438.5C 148.224,450.99 145.724,463.324 142.5,475.5C 143.62,482.74 146.62,489.074 151.5,494.5C 150.055,496.063 148.389,497.396 146.5,498.5C 142.026,492.717 139.026,486.217 137.5,479C 139.605,469.619 142.439,460.452 146,451.5C 146.958,446.877 147.625,442.21 148,437.5C 148.05,413.459 148.717,389.459 150,365.5C 151.855,357.973 156.522,353.64 164,352.5C 173.525,355.166 181.358,360.499 187.5,368.5 Z"/></g>
<g><path style="opacity:1" fill="#8d8d8d" d="M 34.5,303.5 C 34.8333,303.5 35.1667,303.5 35.5,303.5C 35.5,306.167 35.5,308.833 35.5,311.5C 35.3575,329.512 35.6908,347.512 36.5,365.5C 35.8333,364.5 35.1667,363.5 34.5,362.5C 34.5,361.5 34.5,360.5 34.5,359.5C 34.5,340.833 34.5,322.167 34.5,303.5 Z"/></g>
<g><path style="opacity:1" fill="#8d8d8d" d="M 66.5,352.5 C 64.9236,353.143 63.5903,354.143 62.5,355.5C 61.609,356.11 60.609,356.443 59.5,356.5C 58.8333,356.5 58.1667,356.5 57.5,356.5C 58.9025,355.069 60.5692,353.902 62.5,353C 63.7932,352.51 65.1266,352.343 66.5,352.5 Z"/></g>
<g><path style="opacity:0.992" fill="#151515" d="M 184.5,368.5 C 183.833,368.5 183.167,368.5 182.5,368.5C 176.97,361.118 169.637,357.618 160.5,358C 156.365,361.091 153.865,365.258 153,370.5C 152.667,391.833 152.333,413.167 152,434.5C 151.303,446.848 149.47,459.015 146.5,471C 146.267,474.459 147.101,477.626 149,480.5C 151.335,483.665 153.835,486.665 156.5,489.5C 155.167,491.5 153.5,493.167 151.5,494.5C 146.62,489.074 143.62,482.74 142.5,475.5C 145.724,463.324 148.224,450.99 150,438.5C 150.05,414.459 150.717,390.459 152,366.5C 153.406,359.594 157.572,355.594 164.5,354.5C 172.545,357.214 179.212,361.881 184.5,368.5 Z"/></g>
<g><path style="opacity:1" fill="#474747" d="M 57.5,356.5 C 58.1667,356.5 58.8333,356.5 59.5,356.5C 59.0269,357.906 58.0269,358.573 56.5,358.5C 56.8333,357.833 57.1667,357.167 57.5,356.5 Z"/></g>
<g><path style="opacity:0.986" fill="#1b1b1b" d="M 182.5,368.5 C 181.5,368.5 180.5,368.5 179.5,368.5C 175.774,363.879 170.941,360.879 165,359.5C 159.231,360.936 155.898,364.603 155,370.5C 153.314,389.006 153.147,407.506 154.5,426C 153.988,439.401 152.655,452.735 150.5,466C 151.615,473.612 155.615,479.112 162.5,482.5C 161.243,485.427 159.243,487.761 156.5,489.5C 153.835,486.665 151.335,483.665 149,480.5C 147.101,477.626 146.267,474.459 146.5,471C 149.47,459.015 151.303,446.848 152,434.5C 152.333,413.167 152.667,391.833 153,370.5C 153.865,365.258 156.365,361.091 160.5,358C 169.637,357.618 176.97,361.118 182.5,368.5 Z"/></g>
<g><path style="opacity:1" fill="#3b3b3b" d="M 56.5,358.5 C 55.7377,360.262 54.4044,361.262 52.5,361.5C 53.2623,359.738 54.5956,358.738 56.5,358.5 Z"/></g>
<g><path style="opacity:0.99" fill="#222222" d="M 179.5,368.5 C 179.5,368.833 179.5,369.167 179.5,369.5C 175.37,365.682 170.537,363.016 165,361.5C 159.833,363.339 156.833,367.005 156,372.5C 155.667,396.5 155.333,420.5 155,444.5C 154.769,450.371 154.269,456.204 153.5,462C 154.594,469.596 158.594,475.096 165.5,478.5C 165.262,480.404 164.262,481.738 162.5,482.5C 155.615,479.112 151.615,473.612 150.5,466C 152.655,452.735 153.988,439.401 154.5,426C 153.147,407.506 153.314,389.006 155,370.5C 155.898,364.603 159.231,360.936 165,359.5C 170.941,360.879 175.774,363.879 179.5,368.5 Z"/></g>
<g><path style="opacity:0.984" fill="#282828" d="M 179.5,369.5 C 179.5,369.833 179.5,370.167 179.5,370.5C 175.124,367.645 170.457,365.312 165.5,363.5C 159.449,366.093 156.616,370.76 157,377.5C 156.333,403.833 156.333,430.167 157,456.5C 157.528,464.859 161.695,470.526 169.5,473.5C 168.396,475.389 167.063,477.055 165.5,478.5C 158.594,475.096 154.594,469.596 153.5,462C 154.269,456.204 154.769,450.371 155,444.5C 155.333,420.5 155.667,396.5 156,372.5C 156.833,367.005 159.833,363.339 165,361.5C 170.537,363.016 175.37,365.682 179.5,369.5 Z"/></g>
<g><path style="opacity:1" fill="#b4b4b4" d="M 57.5,356.5 C 57.1667,357.167 56.8333,357.833 56.5,358.5C 54.5956,358.738 53.2623,359.738 52.5,361.5C 50.847,361.66 49.5137,362.326 48.5,363.5C 47.391,363.557 46.391,363.89 45.5,364.5C 45.5,364.167 45.5,363.833 45.5,363.5C 48.519,359.694 52.519,357.361 57.5,356.5 Z"/></g>
<g><path style="opacity:0.983" fill="#2e2e2e" d="M 179.5,370.5 C 179.5,371.167 179.5,371.833 179.5,372.5C 175.66,369.83 171.494,367.83 167,366.5C 162.402,367.098 159.735,369.765 159,374.5C 158.064,401.198 158.398,427.865 160,454.5C 162.053,460.72 166.22,464.72 172.5,466.5C 171.773,468.954 170.773,471.287 169.5,473.5C 161.695,470.526 157.528,464.859 157,456.5C 156.333,430.167 156.333,403.833 157,377.5C 156.616,370.76 159.449,366.093 165.5,363.5C 170.457,365.312 175.124,367.645 179.5,370.5 Z"/></g>
<g><path style="opacity:1" fill="#dbdbdb" d="M 35.5,311.5 C 36.2337,328.014 37.0671,344.68 38,361.5C 38.1962,363.286 39.0295,364.619 40.5,365.5C 41.8415,363.995 43.5082,363.328 45.5,363.5C 45.5,363.833 45.5,364.167 45.5,364.5C 43.1175,366.046 40.4509,366.713 37.5,366.5C 37.5,365.833 37.1667,365.5 36.5,365.5C 35.6908,347.512 35.3575,329.512 35.5,311.5 Z"/></g>
<g><path style="opacity:1" fill="#2e2e2e" d="M 34.5,362.5 C 35.1667,363.5 35.8333,364.5 36.5,365.5C 36.5,366.833 36.5,368.167 36.5,369.5C 35.0762,367.485 34.4095,365.152 34.5,362.5 Z"/></g>
<g><path style="opacity:1" fill="#b0b0b0" d="M 45.5,364.5 C 44.8333,365.5 44.1667,366.5 43.5,367.5C 41.2646,367.795 39.2646,367.461 37.5,366.5C 40.4509,366.713 43.1175,366.046 45.5,364.5 Z"/></g>
<g><path style="opacity:1" fill="#424242" d="M 48.5,363.5 C 47.4154,365.587 45.7488,366.92 43.5,367.5C 44.1667,366.5 44.8333,365.5 45.5,364.5C 46.391,363.89 47.391,363.557 48.5,363.5 Z"/></g>
<g><path style="opacity:0.983" fill="#353535" d="M 179.5,372.5 C 179.5,373.5 179.5,374.5 179.5,375.5C 175.717,372.524 171.55,370.191 167,368.5C 163.471,370.028 161.471,372.694 161,376.5C 160.125,399.857 160.458,423.19 162,446.5C 163.689,453.688 168.189,458.022 175.5,459.5C 174.736,462.018 173.736,464.351 172.5,466.5C 166.22,464.72 162.053,460.72 160,454.5C 158.398,427.865 158.064,401.198 159,374.5C 159.735,369.765 162.402,367.098 167,366.5C 171.494,367.83 175.66,369.83 179.5,372.5 Z"/></g>
<g><path style="opacity:1" fill="#6d6d6d" d="M 36.5,365.5 C 37.1667,365.5 37.5,365.833 37.5,366.5C 39.2646,367.461 41.2646,367.795 43.5,367.5C 41.5615,369.163 39.2282,369.829 36.5,369.5C 36.5,368.167 36.5,366.833 36.5,365.5 Z"/></g>
<g><path style="opacity:0.985" fill="#3b3b3b" d="M 179.5,375.5 C 179.5,376.167 179.5,376.833 179.5,377.5C 175.983,375.241 172.317,373.241 168.5,371.5C 165.012,372.492 163.179,374.825 163,378.5C 162.134,398.526 162.467,418.526 164,438.5C 164.562,446.896 169.062,451.563 177.5,452.5C 176.985,454.894 176.319,457.228 175.5,459.5C 168.189,458.022 163.689,453.688 162,446.5C 160.458,423.19 160.125,399.857 161,376.5C 161.471,372.694 163.471,370.028 167,368.5C 171.55,370.191 175.717,372.524 179.5,375.5 Z"/></g>
<g><path style="opacity:0.984" fill="#414141" d="M 179.5,377.5 C 179.5,378.833 179.5,380.167 179.5,381.5C 176.526,379.008 173.193,377.008 169.5,375.5C 168.522,375.977 167.689,376.643 167,377.5C 165.862,385.903 165.362,394.403 165.5,403C 165.667,410.833 165.833,418.667 166,426.5C 165.622,435.955 170.122,441.288 179.5,442.5C 178.833,445.833 178.167,449.167 177.5,452.5C 169.062,451.563 164.562,446.896 164,438.5C 162.467,418.526 162.134,398.526 163,378.5C 163.179,374.825 165.012,372.492 168.5,371.5C 172.317,373.241 175.983,375.241 179.5,377.5 Z"/></g>
<g><path style="opacity:0.99" fill="#484848" d="M 179.5,381.5 C 179.5,401.833 179.5,422.167 179.5,442.5C 170.122,441.288 165.622,435.955 166,426.5C 165.833,418.667 165.667,410.833 165.5,403C 165.362,394.403 165.862,385.903 167,377.5C 167.689,376.643 168.522,375.977 169.5,375.5C 173.193,377.008 176.526,379.008 179.5,381.5 Z"/></g>
<g><path style="opacity:0.978" fill="#252525" d="M 430.5,324.5 C 430.027,325.906 429.027,326.573 427.5,326.5C 406.137,317.696 399.637,324.363 408,346.5C 413.301,352.802 418.968,358.802 425,364.5C 433.667,375.833 442.333,387.167 451,398.5C 452,401.5 453,404.5 454,407.5C 458.547,411.565 461.88,416.565 464,422.5C 467.575,435.908 469.241,449.575 469,463.5C 471.452,468.637 475.286,472.304 480.5,474.5C 478.066,478.382 475.399,482.048 472.5,485.5C 467.699,482.201 464.199,477.867 462,472.5C 462.552,462.338 463.386,452.171 464.5,442C 464.712,436.014 463.878,430.18 462,424.5C 458.759,417.011 454.759,410.011 450,403.5C 436.333,385.833 422.667,368.167 409,350.5C 402.23,342.532 400.23,333.532 403,323.5C 405.61,319.112 409.443,317.278 414.5,318C 420.036,319.943 425.369,322.11 430.5,324.5 Z"/></g>
</svg>
