<?xml version="1.0" encoding="UTF-8"?>
<!DOCTYPE svg PUBLIC "-//W3C//DTD SVG 1.1//EN" "http://www.w3.org/Graphics/SVG/1.1/DTD/svg11.dtd">
<svg xmlns="http://www.w3.org/2000/svg" version="1.1" width="612px" height="612px" style="shape-rendering:geometricPrecision; text-rendering:geometricPrecision; image-rendering:optimizeQuality; fill-rule:evenodd; clip-rule:evenodd" xmlns:xlink="http://www.w3.org/1999/xlink">
<g><path style="opacity:0.996" fill="#cbd5f5" d="M 550.5,245.5 C 544.718,242.225 539.052,238.725 533.5,235C 531.26,234.023 528.927,233.523 526.5,233.5C 526.829,220.323 526.495,207.323 525.5,194.5C 525.575,186.195 524.575,178.028 522.5,170C 520.866,165.556 518.866,161.39 516.5,157.5C 516.167,157.5 515.833,157.5 515.5,157.5C 515.768,155.901 515.434,154.568 514.5,153.5C 514.245,151.033 513.245,149.033 511.5,147.5C 511.5,146.833 511.5,146.167 511.5,145.5C 511.573,143.973 510.906,142.973 509.5,142.5C 508.901,138.979 507.568,135.979 505.5,133.5C 504.876,131.246 503.543,129.579 501.5,128.5C 501.672,127.508 501.338,126.842 500.5,126.5C 500.573,124.973 499.906,123.973 498.5,123.5C 498.573,121.973 497.906,120.973 496.5,120.5C 495.833,119.167 494.833,118.167 493.5,117.5C 492.92,115.251 491.587,113.585 489.5,112.5C 489.443,111.391 489.11,110.391 488.5,109.5C 488.512,106.858 487.179,105.525 484.5,105.5C 481.833,100.833 478.167,97.1667 473.5,94.5C 471.1,91.0969 468.1,88.4302 464.5,86.5C 463.415,84.4131 461.749,83.0798 459.5,82.5C 458.535,78.8925 456.202,77.2258 452.5,77.5C 451.833,77.5 451.167,77.5 450.5,77.5C 450.027,76.0937 449.027,75.427 447.5,75.5C 446.167,74.8333 444.833,74.1667 443.5,73.5C 441.651,72.407 439.984,71.0737 438.5,69.5C 434.927,66.957 430.927,65.2903 426.5,64.5C 424.632,63.7368 422.965,62.7368 421.5,61.5C 418.219,59.9542 414.885,58.1208 411.5,56C 404.563,54.7122 397.563,54.2122 390.5,54.5C 390.343,55.8734 390.51,57.2068 391,58.5C 394.17,62.1782 398.003,64.8449 402.5,66.5C 404.094,69.7642 406.427,72.4309 409.5,74.5C 410.5,77.5 412.5,79.5 415.5,80.5C 415.427,82.0269 416.094,83.0269 417.5,83.5C 417.738,85.4044 418.738,86.7377 420.5,87.5C 420.5,88.1667 420.5,88.8333 420.5,89.5C 421.226,92.2878 422.893,94.2878 425.5,95.5C 425.427,97.0269 426.094,98.0269 427.5,98.5C 427.232,100.099 427.566,101.432 428.5,102.5C 429.468,105.1 430.801,107.434 432.5,109.5C 432.5,109.833 432.5,110.167 432.5,110.5C 432.427,112.027 433.094,113.027 434.5,113.5C 434.5,114.167 434.5,114.833 434.5,115.5C 434.56,118.341 435.226,121.007 436.5,123.5C 438.201,136.422 438.868,149.422 438.5,162.5C 437.508,167.452 436.842,172.452 436.5,177.5C 436.5,177.833 436.5,178.167 436.5,178.5C 435.094,178.973 434.427,179.973 434.5,181.5C 434.5,181.833 434.5,182.167 434.5,182.5C 433.5,182.833 432.833,183.5 432.5,184.5C 429.782,187.952 428.115,191.952 427.5,196.5C 427.5,197.167 427.5,197.833 427.5,198.5C 425.469,199.539 424.136,201.205 423.5,203.5C 420.016,207.134 417.016,211.134 414.5,215.5C 413.833,215.5 413.167,215.5 412.5,215.5C 411.5,215.5 410.5,215.5 409.5,215.5C 411.41,174.793 392.41,150.626 352.5,143C 341.912,141.189 331.246,140.189 320.5,140C 291.161,139.167 261.828,139.333 232.5,140.5C 226.414,141.92 220.914,144.586 216,148.5C 205.711,166.233 210.211,178.233 229.5,184.5C 229.5,202.833 229.5,221.167 229.5,239.5C 229.5,239.833 229.5,240.167 229.5,240.5C 229.5,240.833 229.5,241.167 229.5,241.5C 229.5,241.833 229.5,242.167 229.5,242.5C 204.498,242.333 179.498,242.5 154.5,243C 148.317,243.323 142.15,243.823 136,244.5C 134.319,244.608 133.152,245.275 132.5,246.5C 127.072,248.176 121.738,249.842 116.5,251.5C 115.508,251.328 114.842,251.662 114.5,252.5C 113.167,252.833 111.833,253.167 110.5,253.5C 108.223,254.449 106.223,255.782 104.5,257.5C 101.865,258.473 99.865,260.14 98.5,262.5C 97.5,262.833 96.8333,263.5 96.5,264.5C 93.5,265.5 91.5,267.5 90.5,270.5C 88.7376,271.262 87.7376,272.596 87.5,274.5C 87.1667,275.833 86.8333,277.167 86.5,278.5C 85.3995,280.277 84.5662,282.277 84,284.5C 83.5001,300.497 83.3334,316.497 83.5,332.5C 83.3334,347.837 83.5001,363.17 84,378.5C 84.1862,381.036 84.6862,383.369 85.5,385.5C 84.7902,388.93 85.9569,391.263 89,392.5C 90.3756,392.316 91.2089,391.649 91.5,390.5C 91.8333,390.5 92.1667,390.5 92.5,390.5C 92.8333,390.5 93.1667,390.5 93.5,390.5C 100.573,387.974 106.573,383.974 111.5,378.5C 114.397,377.871 117.064,376.871 119.5,375.5C 120.209,374.596 121.209,374.263 122.5,374.5C 125.397,373.871 128.064,372.871 130.5,371.5C 132.153,371.34 133.486,370.674 134.5,369.5C 134.833,369.5 135.167,369.5 135.5,369.5C 138.167,369.5 140.833,369.5 143.5,369.5C 147.135,368.886 150.802,368.552 154.5,368.5C 176.48,366.658 198.48,366.325 220.5,367.5C 213.24,374.156 210.074,382.489 211,392.5C 214.558,400.698 220.725,405.698 229.5,407.5C 229.777,429.189 229.444,450.856 228.5,472.5C 220.132,468.543 211.465,465.71 202.5,464C 196.384,474.202 189.05,483.535 180.5,492C 170.172,500.58 158.338,505.747 145,507.5C 118.659,502.824 100.325,488.157 90,463.5C 88.4886,457.788 86.822,452.121 85,446.5C 84.2681,444.077 82.7681,442.91 80.5,443C 74.6885,449.067 68.0218,453.9 60.5,457.5C 60.3333,338.833 60.5,220.166 61,101.5C 66.3514,72.4808 82.5181,51.9808 109.5,40C 116.571,37.0654 123.904,35.0654 131.5,34C 204.167,33.3333 276.833,33.3333 349.5,34C 385.441,35.4546 420.108,42.7879 453.5,56C 533.54,94.2383 565.873,157.405 550.5,245.5 Z M 229.5,168.5 C 230.5,168.5 231.5,168.5 232.5,168.5C 233.167,168.5 233.833,168.5 234.5,168.5C 235.5,168.5 236.5,168.5 237.5,168.5C 239.167,168.5 240.833,168.5 242.5,168.5C 243.167,168.5 243.833,168.5 244.5,168.5C 272.519,168.157 300.519,168.657 328.5,170C 336.736,170.893 344.736,172.726 352.5,175.5C 354.05,176.441 355.716,177.107 357.5,177.5C 359.794,179.653 362.46,181.32 365.5,182.5C 365.833,183.5 366.5,184.167 367.5,184.5C 369.139,185.473 370.473,186.806 371.5,188.5C 372.5,190.167 373.833,191.5 375.5,192.5C 376.584,195.004 377.917,197.337 379.5,199.5C 379.796,201.403 380.463,203.07 381.5,204.5C 381.629,206.216 381.962,207.883 382.5,209.5C 382.5,210.167 382.5,210.833 382.5,211.5C 383.624,217.752 383.79,224.085 383,230.5C 378.553,232.997 373.719,234.497 368.5,235C 364.442,235.34 360.442,236.007 356.5,237C 314.152,237.327 271.818,238.16 229.5,239.5C 229.5,221.167 229.5,202.833 229.5,184.5C 229.5,183.833 229.5,183.167 229.5,182.5C 229.5,180.833 229.5,179.167 229.5,177.5C 229.5,176.167 229.5,174.833 229.5,173.5C 229.5,172.167 229.5,170.833 229.5,169.5C 229.5,169.167 229.5,168.833 229.5,168.5 Z"/></g>
<g><path style="opacity:1" fill="#bbc4e2" d="M 421.5,61.5 C 419.565,60.8505 417.565,60.5172 415.5,60.5C 414.5,59.8333 413.5,59.1667 412.5,58.5C 410.898,56.9261 408.898,56.2594 406.5,56.5C 402.5,56.5 398.5,56.5 394.5,56.5C 394.229,58.3797 394.896,59.713 396.5,60.5C 397.167,60.8333 397.833,61.1667 398.5,61.5C 399.833,63.1667 401.167,64.8333 402.5,66.5C 398.003,64.8449 394.17,62.1782 391,58.5C 390.51,57.2068 390.343,55.8734 390.5,54.5C 397.563,54.2122 404.563,54.7122 411.5,56C 414.885,58.1208 418.219,59.9542 421.5,61.5 Z"/></g>
<g><path style="opacity:1" fill="#6e7485" d="M 406.5,56.5 C 406.5,56.8333 406.5,57.1667 406.5,57.5C 403.167,57.5 399.833,57.5 396.5,57.5C 396.5,58.5 396.5,59.5 396.5,60.5C 394.896,59.713 394.229,58.3797 394.5,56.5C 398.5,56.5 402.5,56.5 406.5,56.5 Z"/></g>
<g><path style="opacity:1" fill="#2d3037" d="M 406.5,57.5 C 407.492,57.3284 408.158,57.6618 408.5,58.5C 405.167,58.5 401.833,58.5 398.5,58.5C 398.5,59.5 398.5,60.5 398.5,61.5C 397.833,61.1667 397.167,60.8333 396.5,60.5C 396.5,59.5 396.5,58.5 396.5,57.5C 399.833,57.5 403.167,57.5 406.5,57.5 Z"/></g>
<g><path style="opacity:1" fill="#9aa1ba" d="M 406.5,57.5 C 406.5,57.1667 406.5,56.8333 406.5,56.5C 408.898,56.2594 410.898,56.9261 412.5,58.5C 411.833,58.5 411.167,58.5 410.5,58.5C 409.833,58.5 409.167,58.5 408.5,58.5C 408.158,57.6618 407.492,57.3284 406.5,57.5 Z"/></g>
<g><path style="opacity:1" fill="#000000" d="M 408.5,58.5 C 409.167,58.5 409.833,58.5 410.5,58.5C 411.635,60.2132 413.302,60.8799 415.5,60.5C 418.74,62.951 422.407,64.6176 426.5,65.5C 430.04,66.3872 433.373,67.7205 436.5,69.5C 437.777,72.5517 440.11,73.8851 443.5,73.5C 444.833,74.1667 446.167,74.8333 447.5,75.5C 447.973,76.9063 448.973,77.573 450.5,77.5C 450.973,78.9063 451.973,79.573 453.5,79.5C 455.5,80.5 457.5,81.5 459.5,82.5C 460.585,84.5869 462.251,85.9202 464.5,86.5C 466.9,89.9031 469.9,92.5698 473.5,94.5C 476.5,97.8333 479.5,101.167 482.5,104.5C 484.094,107.764 486.427,110.431 489.5,112.5C 490.08,114.749 491.413,116.415 493.5,117.5C 494.833,118.167 495.833,119.167 496.5,120.5C 496.427,122.027 497.094,123.027 498.5,123.5C 498.427,125.027 499.094,126.027 500.5,126.5C 501.338,126.842 501.672,127.508 501.5,128.5C 502.298,130.966 503.631,132.966 505.5,134.5C 506.279,137.545 507.613,140.211 509.5,142.5C 509.427,144.027 510.094,145.027 511.5,145.5C 511.5,146.167 511.5,146.833 511.5,147.5C 511.755,149.967 512.755,151.967 514.5,153.5C 515.434,154.568 515.768,155.901 515.5,157.5C 515.415,160.649 516.415,163.316 518.5,165.5C 518.528,168.916 519.528,171.916 521.5,174.5C 522.404,175.209 522.737,176.209 522.5,177.5C 523.338,191.149 523.671,204.816 523.5,218.5C 522.806,223.805 522.472,229.138 522.5,234.5C 522.443,235.609 522.11,236.609 521.5,237.5C 519.074,240.23 517.741,243.563 517.5,247.5C 517.5,248.833 517.5,250.167 517.5,251.5C 517.5,251.833 517.5,252.167 517.5,252.5C 515.787,253.635 515.12,255.302 515.5,257.5C 513.759,259.395 512.759,261.728 512.5,264.5C 512.167,265.833 511.833,267.167 511.5,268.5C 510.833,269.167 510.167,269.833 509.5,270.5C 506.57,272.685 504.903,275.685 504.5,279.5C 504.167,280.833 503.833,282.167 503.5,283.5C 501.178,284.802 499.845,286.802 499.5,289.5C 496.757,291.239 494.757,293.573 493.5,296.5C 491.086,297.911 489.419,299.911 488.5,302.5C 484.5,306.167 480.5,309.833 476.5,313.5C 475.448,313.351 474.448,313.517 473.5,314C 469.644,317.357 465.644,320.524 461.5,323.5C 460.571,324.689 460.238,326.022 460.5,327.5C 458.833,328.5 457.5,329.833 456.5,331.5C 454.205,332.136 452.539,333.469 451.5,335.5C 450.167,335.833 448.833,336.167 447.5,336.5C 445.596,336.738 444.262,337.738 443.5,339.5C 437.044,341.631 431.044,344.631 425.5,348.5C 422.262,349.633 418.929,350.467 415.5,351C 414.944,351.383 414.611,351.883 414.5,352.5C 411.478,352.804 408.478,353.304 405.5,354C 404.944,354.383 404.611,354.883 404.5,355.5C 401.167,356.167 397.833,356.833 394.5,357.5C 389.924,357.438 385.591,358.105 381.5,359.5C 380.5,359.5 379.5,359.5 378.5,359.5C 372.916,359.255 367.583,359.922 362.5,361.5C 360.5,361.5 358.5,361.5 356.5,361.5C 315.659,361.44 274.992,362.107 234.5,363.5C 223.819,363.47 213.152,363.804 202.5,364.5C 189.163,364.333 175.829,364.5 162.5,365C 158.975,365.179 155.641,365.679 152.5,366.5C 150.735,367.461 148.735,367.795 146.5,367.5C 142.613,367.646 138.946,368.313 135.5,369.5C 135.167,369.5 134.833,369.5 134.5,369.5C 132.102,369.259 130.102,369.926 128.5,371.5C 127.833,371.5 127.167,371.5 126.5,371.5C 123.918,371.025 121.918,371.692 120.5,373.5C 118.973,373.427 117.973,374.094 117.5,375.5C 116.833,375.5 116.167,375.5 115.5,375.5C 112.687,375.025 110.687,376.025 109.5,378.5C 109.158,379.338 108.492,379.672 107.5,379.5C 105.596,379.738 104.262,380.738 103.5,382.5C 101.326,382.75 99.6594,383.75 98.5,385.5C 96.5168,386.471 94.5168,387.471 92.5,388.5C 89.911,388.539 87.911,387.539 86.5,385.5C 86.1667,385.5 85.8333,385.5 85.5,385.5C 85.5,381.167 85.5,376.833 85.5,372.5C 85.5,356.5 85.5,340.5 85.5,324.5C 85.2377,310.471 85.571,296.471 86.5,282.5C 86.5,281.167 86.5,279.833 86.5,278.5C 86.8333,277.167 87.1667,275.833 87.5,274.5C 89.2624,273.738 90.2624,272.404 90.5,270.5C 92.8333,268.833 94.8333,266.833 96.5,264.5C 96.8333,263.5 97.5,262.833 98.5,262.5C 101.109,261.557 103.109,259.89 104.5,257.5C 106.514,257.608 108.18,256.942 109.5,255.5C 111.848,255.408 113.514,254.408 114.5,252.5C 114.842,251.662 115.508,251.328 116.5,251.5C 121.373,251.159 126.04,249.992 130.5,248C 134.152,247.501 137.818,247.335 141.5,247.5C 171.007,247.386 200.34,246.719 229.5,245.5C 229.5,245.167 229.5,244.833 229.5,244.5C 229.5,244.167 229.5,243.833 229.5,243.5C 244.5,243.5 259.5,243.5 274.5,243.5C 301.681,243.681 328.681,243.014 355.5,241.5C 358.33,241.037 360.997,240.371 363.5,239.5C 364.167,239.5 364.833,239.5 365.5,239.5C 370.911,239.875 375.911,238.875 380.5,236.5C 380.5,236.167 380.5,235.833 380.5,235.5C 382.167,235.5 383.833,235.5 385.5,235.5C 386.833,235.5 387.5,234.833 387.5,233.5C 388.167,233.5 388.833,233.5 389.5,233.5C 391.848,233.408 393.514,232.408 394.5,230.5C 396.027,230.573 397.027,229.906 397.5,228.5C 397.833,228.5 398.167,228.5 398.5,228.5C 401.109,227.557 403.109,225.89 404.5,223.5C 408.704,221.967 412.037,219.3 414.5,215.5C 418.471,212.224 421.471,208.224 423.5,203.5C 425.587,202.415 426.92,200.749 427.5,198.5C 428.906,198.027 429.573,197.027 429.5,195.5C 431.341,193.151 432.674,190.485 433.5,187.5C 433.433,186.041 433.766,184.708 434.5,183.5C 437.931,181.196 439.264,177.863 438.5,173.5C 438.552,169.802 438.886,166.135 439.5,162.5C 440.117,162.389 440.617,162.056 441,161.5C 441.667,153.167 441.667,144.833 441,136.5C 440.334,131.885 439.168,127.551 437.5,123.5C 437.634,121.708 437.301,120.042 436.5,118.5C 436.88,116.302 436.213,114.635 434.5,113.5C 434.573,111.973 433.906,110.973 432.5,110.5C 432.5,110.167 432.5,109.833 432.5,109.5C 432.029,107.421 431.363,105.421 430.5,103.5C 429.89,101.566 428.89,99.8993 427.5,98.5C 427.573,96.9731 426.906,95.9731 425.5,95.5C 424.89,93.5659 423.89,91.8993 422.5,90.5C 422.573,88.9731 421.906,87.9731 420.5,87.5C 420.262,85.5956 419.262,84.2623 417.5,83.5C 417.573,81.9731 416.906,80.9731 415.5,80.5C 414.789,78.9699 413.789,77.6366 412.5,76.5C 412.5,74.5 411.5,73.5 409.5,73.5C 407.5,70.8333 405.167,68.5 402.5,66.5C 401.167,64.8333 399.833,63.1667 398.5,61.5C 398.5,60.5 398.5,59.5 398.5,58.5C 401.833,58.5 405.167,58.5 408.5,58.5 Z"/></g>
<g><path style="opacity:1" fill="#494d58" d="M 410.5,58.5 C 411.167,58.5 411.833,58.5 412.5,58.5C 413.5,59.1667 414.5,59.8333 415.5,60.5C 413.302,60.8799 411.635,60.2132 410.5,58.5 Z"/></g>
<g><path style="opacity:1" fill="#6b7081" d="M 415.5,60.5 C 417.565,60.5172 419.565,60.8505 421.5,61.5C 422.965,62.7368 424.632,63.7368 426.5,64.5C 426.5,64.8333 426.5,65.1667 426.5,65.5C 422.407,64.6176 418.74,62.951 415.5,60.5 Z"/></g>
<g><path style="opacity:1" fill="#9299b0" d="M 426.5,65.5 C 426.5,65.1667 426.5,64.8333 426.5,64.5C 430.927,65.2903 434.927,66.957 438.5,69.5C 437.833,69.5 437.167,69.5 436.5,69.5C 433.373,67.7205 430.04,66.3872 426.5,65.5 Z"/></g>
<g><path style="opacity:1" fill="#81889c" d="M 402.5,66.5 C 405.167,68.5 407.5,70.8333 409.5,73.5C 409.5,73.8333 409.5,74.1667 409.5,74.5C 406.427,72.4309 404.094,69.7642 402.5,66.5 Z"/></g>
<g><path style="opacity:1" fill="#34363e" d="M 436.5,69.5 C 437.167,69.5 437.833,69.5 438.5,69.5C 439.984,71.0737 441.651,72.407 443.5,73.5C 440.11,73.8851 437.777,72.5517 436.5,69.5 Z"/></g>
<g><path style="opacity:1" fill="#363841" d="M 409.5,74.5 C 409.5,74.1667 409.5,73.8333 409.5,73.5C 411.5,73.5 412.5,74.5 412.5,76.5C 411.5,75.8333 410.5,75.1667 409.5,74.5 Z"/></g>
<g><path style="opacity:1" fill="#8e95ab" d="M 409.5,74.5 C 410.5,75.1667 411.5,75.8333 412.5,76.5C 413.789,77.6366 414.789,78.9699 415.5,80.5C 412.5,79.5 410.5,77.5 409.5,74.5 Z"/></g>
<g><path style="opacity:1" fill="#616675" d="M 447.5,75.5 C 449.027,75.427 450.027,76.0937 450.5,77.5C 448.973,77.573 447.973,76.9063 447.5,75.5 Z"/></g>
<g><path style="opacity:1" fill="#4b4f5b" d="M 450.5,77.5 C 451.167,77.5 451.833,77.5 452.5,77.5C 452.833,78.1667 453.167,78.8333 453.5,79.5C 451.973,79.573 450.973,78.9063 450.5,77.5 Z"/></g>
<g><path style="opacity:1" fill="#a5aec8" d="M 452.5,77.5 C 456.202,77.2258 458.535,78.8925 459.5,82.5C 457.5,81.5 455.5,80.5 453.5,79.5C 453.167,78.8333 452.833,78.1667 452.5,77.5 Z"/></g>
<g><path style="opacity:1" fill="#696e7e" d="M 415.5,80.5 C 416.906,80.9731 417.573,81.9731 417.5,83.5C 416.094,83.0269 415.427,82.0269 415.5,80.5 Z"/></g>
<g><path style="opacity:1" fill="#686d7d" d="M 417.5,83.5 C 419.262,84.2623 420.262,85.5956 420.5,87.5C 418.738,86.7377 417.738,85.4044 417.5,83.5 Z"/></g>
<g><path style="opacity:1" fill="#777d90" d="M 459.5,82.5 C 461.749,83.0798 463.415,84.4131 464.5,86.5C 462.251,85.9202 460.585,84.5869 459.5,82.5 Z"/></g>
<g><path style="opacity:1" fill="#757b8d" d="M 464.5,86.5 C 468.1,88.4302 471.1,91.0969 473.5,94.5C 469.9,92.5698 466.9,89.9031 464.5,86.5 Z"/></g>
<g><path style="opacity:1" fill="#575b69" d="M 420.5,87.5 C 421.906,87.9731 422.573,88.9731 422.5,90.5C 421.833,90.1667 421.167,89.8333 420.5,89.5C 420.5,88.8333 420.5,88.1667 420.5,87.5 Z"/></g>
<g><path style="opacity:1" fill="#8990a6" d="M 420.5,89.5 C 421.167,89.8333 421.833,90.1667 422.5,90.5C 423.89,91.8993 424.89,93.5659 425.5,95.5C 422.893,94.2878 421.226,92.2878 420.5,89.5 Z"/></g>
<g><path style="opacity:1" fill="#7c8295" d="M 473.5,94.5 C 478.167,97.1667 481.833,100.833 484.5,105.5C 483.833,105.167 483.167,104.833 482.5,104.5C 479.5,101.167 476.5,97.8333 473.5,94.5 Z"/></g>
<g><path style="opacity:1" fill="#696f7f" d="M 425.5,95.5 C 426.906,95.9731 427.573,96.9731 427.5,98.5C 426.094,98.0269 425.427,97.0269 425.5,95.5 Z"/></g>
<g><path style="opacity:1" fill="#5d6170" d="M 427.5,98.5 C 428.89,99.8993 429.89,101.566 430.5,103.5C 429.833,103.167 429.167,102.833 428.5,102.5C 427.566,101.432 427.232,100.099 427.5,98.5 Z"/></g>
<g><path style="opacity:1" fill="#82889d" d="M 428.5,102.5 C 429.167,102.833 429.833,103.167 430.5,103.5C 431.363,105.421 432.029,107.421 432.5,109.5C 430.801,107.434 429.468,105.1 428.5,102.5 Z"/></g>
<g><path style="opacity:1" fill="#2d2f36" d="M 482.5,104.5 C 483.167,104.833 483.833,105.167 484.5,105.5C 485.5,107.167 486.833,108.5 488.5,109.5C 489.11,110.391 489.443,111.391 489.5,112.5C 486.427,110.431 484.094,107.764 482.5,104.5 Z"/></g>
<g><path style="opacity:1" fill="#a3abc4" d="M 484.5,105.5 C 487.179,105.525 488.512,106.858 488.5,109.5C 486.833,108.5 485.5,107.167 484.5,105.5 Z"/></g>
<g><path style="opacity:1" fill="#606473" d="M 432.5,110.5 C 433.906,110.973 434.573,111.973 434.5,113.5C 433.094,113.027 432.427,112.027 432.5,110.5 Z"/></g>
<g><path style="opacity:1" fill="#3f434d" d="M 489.5,112.5 C 491.587,113.585 492.92,115.251 493.5,117.5C 491.413,116.415 490.08,114.749 489.5,112.5 Z"/></g>
<g><path style="opacity:1" fill="#444752" d="M 434.5,113.5 C 436.213,114.635 436.88,116.302 436.5,118.5C 435.833,117.5 435.167,116.5 434.5,115.5C 434.5,114.833 434.5,114.167 434.5,113.5 Z"/></g>
<g><path style="opacity:1" fill="#848ba0" d="M 434.5,115.5 C 435.167,116.5 435.833,117.5 436.5,118.5C 437.301,120.042 437.634,121.708 437.5,123.5C 437.167,123.5 436.833,123.5 436.5,123.5C 435.226,121.007 434.56,118.341 434.5,115.5 Z"/></g>
<g><path style="opacity:1" fill="#515562" d="M 496.5,120.5 C 497.906,120.973 498.573,121.973 498.5,123.5C 497.094,123.027 496.427,122.027 496.5,120.5 Z"/></g>
<g><path style="opacity:1" fill="#505461" d="M 498.5,123.5 C 499.906,123.973 500.573,124.973 500.5,126.5C 499.094,126.027 498.427,125.027 498.5,123.5 Z"/></g>
<g><path style="opacity:1" fill="#555967" d="M 501.5,128.5 C 503.543,129.579 504.876,131.246 505.5,133.5C 505.5,133.833 505.5,134.167 505.5,134.5C 503.631,132.966 502.298,130.966 501.5,128.5 Z"/></g>
<g><path style="opacity:1" fill="#454853" d="M 437.5,123.5 C 439.168,127.551 440.334,131.885 441,136.5C 441.667,144.833 441.667,153.167 441,161.5C 440.617,162.056 440.117,162.389 439.5,162.5C 439.934,149.423 439.268,136.423 437.5,123.5 Z"/></g>
<g><path style="opacity:1" fill="#7f8599" d="M 505.5,133.5 C 507.568,135.979 508.901,138.979 509.5,142.5C 507.613,140.211 506.279,137.545 505.5,134.5C 505.5,134.167 505.5,133.833 505.5,133.5 Z"/></g>
<g><path style="opacity:0.999" fill="#c5cfec" d="M 412.5,215.5 C 410.14,218.527 407.473,221.194 404.5,223.5C 401.865,224.473 399.865,226.14 398.5,228.5C 398.167,228.5 397.833,228.5 397.5,228.5C 396.833,228.5 396.167,228.5 395.5,228.5C 393.973,228.427 392.973,229.094 392.5,230.5C 392.158,231.338 391.492,231.672 390.5,231.5C 388.973,231.427 387.973,232.094 387.5,233.5C 386.508,233.328 385.842,233.662 385.5,234.5C 383.344,232.882 381.677,233.216 380.5,235.5C 380.5,235.833 380.5,236.167 380.5,236.5C 378.167,236.5 375.833,236.5 373.5,236.5C 369.454,236.952 365.454,237.619 361.5,238.5C 317.515,239.853 273.515,240.52 229.5,240.5C 229.5,240.167 229.5,239.833 229.5,239.5C 271.818,238.16 314.152,237.327 356.5,237C 360.442,236.007 364.442,235.34 368.5,235C 373.719,234.497 378.553,232.997 383,230.5C 383.79,224.085 383.624,217.752 382.5,211.5C 387.93,211.839 393.264,211.339 398.5,210C 399.701,209.097 400.535,207.931 401,206.5C 402.672,188.351 396.505,173.518 382.5,162C 379.108,159.306 375.441,157.14 371.5,155.5C 369.058,153.774 366.391,152.274 363.5,151C 358.469,150.601 353.802,149.101 349.5,146.5C 343.248,144.902 336.915,143.736 330.5,143C 297.5,142.333 264.5,142.333 231.5,143C 226.177,144.077 221.677,146.577 218,150.5C 208.598,166.016 212.431,176.683 229.5,182.5C 229.5,183.167 229.5,183.833 229.5,184.5C 210.211,178.233 205.711,166.233 216,148.5C 220.914,144.586 226.414,141.92 232.5,140.5C 261.828,139.333 291.161,139.167 320.5,140C 331.246,140.189 341.912,141.189 352.5,143C 392.41,150.626 411.41,174.793 409.5,215.5C 410.5,215.5 411.5,215.5 412.5,215.5 Z"/></g>
<g><path style="opacity:1" fill="#b9c0d9" d="M 371.5,155.5 C 377.082,161.42 382.749,167.42 388.5,173.5C 393.136,179.346 395.969,186.013 397,193.5C 398.666,204.669 393.832,210.002 382.5,209.5C 381.962,207.883 381.629,206.216 381.5,204.5C 389.922,202.476 393.088,197.143 391,188.5C 384.634,172.471 373.8,160.638 358.5,153C 345.27,148.421 331.603,145.754 317.5,145C 291.5,144.333 265.5,144.333 239.5,145C 229.799,147.1 223.632,152.933 221,162.5C 220.163,164.821 219.83,167.155 220,169.5C 222.54,171.705 224.707,174.205 226.5,177C 227.448,177.483 228.448,177.649 229.5,177.5C 229.5,179.167 229.5,180.833 229.5,182.5C 212.431,176.683 208.598,166.016 218,150.5C 221.677,146.577 226.177,144.077 231.5,143C 264.5,142.333 297.5,142.333 330.5,143C 336.915,143.736 343.248,144.902 349.5,146.5C 353.802,149.101 358.469,150.601 363.5,151C 366.391,152.274 369.058,153.774 371.5,155.5 Z"/></g>
<g><path style="opacity:1" fill="#757b8e" d="M 509.5,142.5 C 510.906,142.973 511.573,143.973 511.5,145.5C 510.094,145.027 509.427,144.027 509.5,142.5 Z"/></g>
<g><path style="opacity:1" fill="#adb3c6" d="M 381.5,204.5 C 380.463,203.07 379.796,201.403 379.5,199.5C 385.152,193.2 385.985,186.2 382,178.5C 379.095,173.871 375.595,169.704 371.5,166C 364.903,161.871 358.236,158.038 351.5,154.5C 347.802,152.203 343.802,150.369 339.5,149C 332.885,147.892 326.218,147.225 319.5,147C 293.16,146.167 266.827,146.333 240.5,147.5C 230.737,150.43 225.07,156.93 223.5,167C 224.486,170.163 226.486,172.33 229.5,173.5C 229.5,174.833 229.5,176.167 229.5,177.5C 228.448,177.649 227.448,177.483 226.5,177C 224.707,174.205 222.54,171.705 220,169.5C 219.83,167.155 220.163,164.821 221,162.5C 223.632,152.933 229.799,147.1 239.5,145C 265.5,144.333 291.5,144.333 317.5,145C 331.603,145.754 345.27,148.421 358.5,153C 373.8,160.638 384.634,172.471 391,188.5C 393.088,197.143 389.922,202.476 381.5,204.5 Z"/></g>
<g><path style="opacity:1" fill="#a5aab9" d="M 351.5,154.5 C 342.152,152.411 332.819,150.578 323.5,149C 297.827,148.167 272.16,148.334 246.5,149.5C 238.197,150.651 232.364,154.985 229,162.5C 228.204,165.039 228.371,167.372 229.5,169.5C 229.5,170.833 229.5,172.167 229.5,173.5C 226.486,172.33 224.486,170.163 223.5,167C 225.07,156.93 230.737,150.43 240.5,147.5C 266.827,146.333 293.16,146.167 319.5,147C 326.218,147.225 332.885,147.892 339.5,149C 343.802,150.369 347.802,152.203 351.5,154.5 Z"/></g>
<g><path style="opacity:1" fill="#9da0ad" d="M 351.5,154.5 C 358.236,158.038 364.903,161.871 371.5,166C 375.595,169.704 379.095,173.871 382,178.5C 385.985,186.2 385.152,193.2 379.5,199.5C 377.917,197.337 376.584,195.004 375.5,192.5C 377.894,190.668 378.894,188.168 378.5,185C 377.968,176.947 374.302,170.613 367.5,166C 361.853,163.15 356.186,160.15 350.5,157C 344,154.869 337.333,153.202 330.5,152C 303.524,150.428 276.524,150.094 249.5,151C 237.912,151.432 231.245,157.265 229.5,168.5C 229.5,168.833 229.5,169.167 229.5,169.5C 228.371,167.372 228.204,165.039 229,162.5C 232.364,154.985 238.197,150.651 246.5,149.5C 272.16,148.334 297.827,148.167 323.5,149C 332.819,150.578 342.152,152.411 351.5,154.5 Z"/></g>
<g><path style="opacity:1" fill="#555966" d="M 511.5,147.5 C 513.245,149.033 514.245,151.033 514.5,153.5C 512.755,151.967 511.755,149.967 511.5,147.5 Z"/></g>
<g><path style="opacity:1" fill="#8b8c91" d="M 371.5,188.5 C 370.473,186.806 369.139,185.473 367.5,184.5C 368.634,182.034 368.801,179.367 368,176.5C 365.833,173.667 363.667,170.833 361.5,168C 350.918,161.028 339.251,157.028 326.5,156C 300.5,155.333 274.5,155.333 248.5,156C 241.126,157.21 236.46,161.377 234.5,168.5C 233.833,168.5 233.167,168.5 232.5,168.5C 233.561,162.558 236.895,158.391 242.5,156C 245.833,155.333 249.167,154.667 252.5,154C 277.855,153.125 303.188,153.459 328.5,155C 346.456,155.978 361.122,163.311 372.5,177C 374.082,181.14 373.749,184.974 371.5,188.5 Z"/></g>
<g><path style="opacity:1" fill="#a6afc9" d="M 436.5,123.5 C 436.833,123.5 437.167,123.5 437.5,123.5C 439.268,136.423 439.934,149.423 439.5,162.5C 439.167,162.5 438.833,162.5 438.5,162.5C 438.868,149.422 438.201,136.422 436.5,123.5 Z"/></g>
<g><path style="opacity:1" fill="#848587" d="M 367.5,184.5 C 366.5,184.167 365.833,183.5 365.5,182.5C 365.965,176.598 363.632,172.098 358.5,169C 349.332,163.277 339.332,159.944 328.5,159C 303.523,157.448 278.523,157.115 253.5,158C 245.929,158.274 240.596,161.774 237.5,168.5C 236.5,168.5 235.5,168.5 234.5,168.5C 236.46,161.377 241.126,157.21 248.5,156C 274.5,155.333 300.5,155.333 326.5,156C 339.251,157.028 350.918,161.028 361.5,168C 363.667,170.833 365.833,173.667 368,176.5C 368.801,179.367 368.634,182.034 367.5,184.5 Z"/></g>
<g><path style="opacity:0.991" fill="#7c7c7b" d="M 365.5,182.5 C 362.46,181.32 359.794,179.653 357.5,177.5C 356.868,172.695 354.201,169.528 349.5,168C 341.193,164.503 332.526,162.503 323.5,162C 299.833,161.333 276.167,161.333 252.5,162C 247.979,162.439 244.646,164.605 242.5,168.5C 240.833,168.5 239.167,168.5 237.5,168.5C 240.596,161.774 245.929,158.274 253.5,158C 278.523,157.115 303.523,157.448 328.5,159C 339.332,159.944 349.332,163.277 358.5,169C 363.632,172.098 365.965,176.598 365.5,182.5 Z"/></g>
<g><path style="opacity:1" fill="#4d505d" d="M 515.5,157.5 C 515.833,157.5 516.167,157.5 516.5,157.5C 517.75,160.006 518.416,162.673 518.5,165.5C 516.415,163.316 515.415,160.649 515.5,157.5 Z"/></g>
<g><path style="opacity:0.981" fill="#72706a" d="M 352.5,175.5 C 344.736,172.726 336.736,170.893 328.5,170C 300.519,168.657 272.519,168.157 244.5,168.5C 246.649,166.254 249.316,164.754 252.5,164C 277.167,163.333 301.833,163.333 326.5,164C 334.965,164.783 342.965,167.116 350.5,171C 352.037,172.11 352.703,173.61 352.5,175.5 Z"/></g>
<g><path style="opacity:1" fill="#777673" d="M 357.5,177.5 C 355.716,177.107 354.05,176.441 352.5,175.5C 352.703,173.61 352.037,172.11 350.5,171C 342.965,167.116 334.965,164.783 326.5,164C 301.833,163.333 277.167,163.333 252.5,164C 249.316,164.754 246.649,166.254 244.5,168.5C 243.833,168.5 243.167,168.5 242.5,168.5C 244.646,164.605 247.979,162.439 252.5,162C 276.167,161.333 299.833,161.333 323.5,162C 332.526,162.503 341.193,164.503 349.5,168C 354.201,169.528 356.868,172.695 357.5,177.5 Z"/></g>
<g><path style="opacity:1" fill="#a6aec8" d="M 516.5,157.5 C 518.866,161.39 520.866,165.556 522.5,170C 524.575,178.028 525.575,186.195 525.5,194.5C 525.827,204.015 525.494,213.348 524.5,222.5C 524.5,221.167 524.5,219.833 524.5,218.5C 524.667,207.162 524.5,195.828 524,184.5C 523.814,181.964 523.314,179.631 522.5,177.5C 522.737,176.209 522.404,175.209 521.5,174.5C 521.31,171.145 520.31,168.145 518.5,165.5C 518.416,162.673 517.75,160.006 516.5,157.5 Z"/></g>
<g><path style="opacity:1" fill="#3c3f48" d="M 518.5,165.5 C 520.31,168.145 521.31,171.145 521.5,174.5C 519.528,171.916 518.528,168.916 518.5,165.5 Z"/></g>
<g><path style="opacity:1" fill="#6f7587" d="M 438.5,162.5 C 438.833,162.5 439.167,162.5 439.5,162.5C 438.886,166.135 438.552,169.802 438.5,173.5C 437.833,174.833 437.167,176.167 436.5,177.5C 436.842,172.452 437.508,167.452 438.5,162.5 Z"/></g>
<g><path style="opacity:0.944" fill="#92959d" d="M 375.5,192.5 C 373.833,191.5 372.5,190.167 371.5,188.5C 373.749,184.974 374.082,181.14 372.5,177C 361.122,163.311 346.456,155.978 328.5,155C 303.188,153.459 277.855,153.125 252.5,154C 249.167,154.667 245.833,155.333 242.5,156C 236.895,158.391 233.561,162.558 232.5,168.5C 231.5,168.5 230.5,168.5 229.5,168.5C 231.245,157.265 237.912,151.432 249.5,151C 276.524,150.094 303.524,150.428 330.5,152C 337.333,153.202 344,154.869 350.5,157C 356.186,160.15 361.853,163.15 367.5,166C 374.302,170.613 377.968,176.947 378.5,185C 378.894,188.168 377.894,190.668 375.5,192.5 Z"/></g>
<g><path style="opacity:1" fill="#73788a" d="M 436.5,178.5 C 436.573,180.027 435.906,181.027 434.5,181.5C 434.427,179.973 435.094,178.973 436.5,178.5 Z"/></g>
<g><path style="opacity:1" fill="#1b1c20" d="M 438.5,173.5 C 439.264,177.863 437.931,181.196 434.5,183.5C 434.5,183.167 434.5,182.833 434.5,182.5C 434.5,182.167 434.5,181.833 434.5,181.5C 435.906,181.027 436.573,180.027 436.5,178.5C 436.5,178.167 436.5,177.833 436.5,177.5C 437.167,176.167 437.833,174.833 438.5,173.5 Z"/></g>
<g><path style="opacity:1" fill="#767b8e" d="M 434.5,182.5 C 434.5,182.833 434.5,183.167 434.5,183.5C 433.766,184.708 433.433,186.041 433.5,187.5C 433.167,187.5 432.833,187.5 432.5,187.5C 432.5,186.5 432.5,185.5 432.5,184.5C 432.833,183.5 433.5,182.833 434.5,182.5 Z"/></g>
<g><path style="opacity:1" fill="#bec7e1" d="M 371.5,155.5 C 375.441,157.14 379.108,159.306 382.5,162C 396.505,173.518 402.672,188.351 401,206.5C 400.535,207.931 399.701,209.097 398.5,210C 393.264,211.339 387.93,211.839 382.5,211.5C 382.5,210.833 382.5,210.167 382.5,209.5C 393.832,210.002 398.666,204.669 397,193.5C 395.969,186.013 393.136,179.346 388.5,173.5C 382.749,167.42 377.082,161.42 371.5,155.5 Z"/></g>
<g><path style="opacity:1" fill="#a6aec9" d="M 432.5,184.5 C 432.5,185.5 432.5,186.5 432.5,187.5C 430.415,189.684 429.415,192.351 429.5,195.5C 428.833,195.833 428.167,196.167 427.5,196.5C 428.115,191.952 429.782,187.952 432.5,184.5 Z"/></g>
<g><path style="opacity:1" fill="#3e414b" d="M 432.5,187.5 C 432.833,187.5 433.167,187.5 433.5,187.5C 432.674,190.485 431.341,193.151 429.5,195.5C 429.415,192.351 430.415,189.684 432.5,187.5 Z"/></g>
<g><path style="opacity:1" fill="#575b69" d="M 522.5,177.5 C 523.314,179.631 523.814,181.964 524,184.5C 524.5,195.828 524.667,207.162 524.5,218.5C 524.167,218.5 523.833,218.5 523.5,218.5C 523.671,204.816 523.338,191.149 522.5,177.5 Z"/></g>
<g><path style="opacity:1" fill="#40434d" d="M 429.5,195.5 C 429.573,197.027 428.906,198.027 427.5,198.5C 427.5,197.833 427.5,197.167 427.5,196.5C 428.167,196.167 428.833,195.833 429.5,195.5 Z"/></g>
<g><path style="opacity:1" fill="#6a7080" d="M 427.5,198.5 C 426.92,200.749 425.587,202.415 423.5,203.5C 424.136,201.205 425.469,199.539 427.5,198.5 Z"/></g>
<g><path style="opacity:1" fill="#585c6a" d="M 423.5,203.5 C 421.471,208.224 418.471,212.224 414.5,215.5C 417.016,211.134 420.016,207.134 423.5,203.5 Z"/></g>
<g><path style="opacity:1" fill="#484c57" d="M 412.5,215.5 C 413.167,215.5 413.833,215.5 414.5,215.5C 412.037,219.3 408.704,221.967 404.5,223.5C 407.473,221.194 410.14,218.527 412.5,215.5 Z"/></g>
<g><path style="opacity:1" fill="#585c6a" d="M 404.5,223.5 C 403.109,225.89 401.109,227.557 398.5,228.5C 399.865,226.14 401.865,224.473 404.5,223.5 Z"/></g>
<g><path style="opacity:1" fill="#8a91a7" d="M 395.5,228.5 C 395.167,229.167 394.833,229.833 394.5,230.5C 393.833,230.5 393.167,230.5 392.5,230.5C 392.973,229.094 393.973,228.427 395.5,228.5 Z"/></g>
<g><path style="opacity:1" fill="#434651" d="M 395.5,228.5 C 396.167,228.5 396.833,228.5 397.5,228.5C 397.027,229.906 396.027,230.573 394.5,230.5C 394.833,229.833 395.167,229.167 395.5,228.5 Z"/></g>
<g><path style="opacity:0.989" fill="#c6cfed" d="M 525.5,194.5 C 526.495,207.323 526.829,220.323 526.5,233.5C 528.927,233.523 531.26,234.023 533.5,235C 539.052,238.725 544.718,242.225 550.5,245.5C 549.833,248.167 549.167,250.833 548.5,253.5C 542.583,249.599 536.25,248.432 529.5,250C 524.474,255.217 520.308,261.05 517,267.5C 518.302,262.556 520.468,257.889 523.5,253.5C 523.333,253.167 523.167,252.833 523,252.5C 522.085,253.328 521.419,254.328 521,255.5C 520.55,251.812 520.717,248.146 521.5,244.5C 521.5,243.167 521.5,241.833 521.5,240.5C 521.5,239.5 521.5,238.5 521.5,237.5C 522.11,236.609 522.443,235.609 522.5,234.5C 523.482,230.684 524.149,226.684 524.5,222.5C 525.494,213.348 525.827,204.015 525.5,194.5 Z"/></g>
<g><path style="opacity:1" fill="#26282e" d="M 392.5,230.5 C 393.167,230.5 393.833,230.5 394.5,230.5C 393.514,232.408 391.848,233.408 389.5,233.5C 389.833,232.833 390.167,232.167 390.5,231.5C 391.492,231.672 392.158,231.338 392.5,230.5 Z"/></g>
<g><path style="opacity:1" fill="#686d7e" d="M 390.5,231.5 C 390.167,232.167 389.833,232.833 389.5,233.5C 388.833,233.5 388.167,233.5 387.5,233.5C 387.973,232.094 388.973,231.427 390.5,231.5 Z"/></g>
<g><path style="opacity:1" fill="#636878" d="M 523.5,218.5 C 523.833,218.5 524.167,218.5 524.5,218.5C 524.5,219.833 524.5,221.167 524.5,222.5C 524.149,226.684 523.482,230.684 522.5,234.5C 522.472,229.138 522.806,223.805 523.5,218.5 Z"/></g>
<g><path style="opacity:0.408" fill="#73798b" d="M 385.5,234.5 C 385.5,234.833 385.5,235.167 385.5,235.5C 383.833,235.5 382.167,235.5 380.5,235.5C 381.677,233.216 383.344,232.882 385.5,234.5 Z"/></g>
<g><path style="opacity:1" fill="#32343c" d="M 387.5,233.5 C 387.5,234.833 386.833,235.5 385.5,235.5C 385.5,235.167 385.5,234.833 385.5,234.5C 385.842,233.662 386.508,233.328 387.5,233.5 Z"/></g>
<g><path style="opacity:0.333" fill="#73798b" d="M 373.5,236.5 C 370.98,237.918 368.313,238.918 365.5,239.5C 364.833,239.5 364.167,239.5 363.5,239.5C 362.833,239.5 362.167,239.5 361.5,239.5C 361.5,239.167 361.5,238.833 361.5,238.5C 365.454,237.619 369.454,236.952 373.5,236.5 Z"/></g>
<g><path style="opacity:0.04" fill="#959db4" d="M 361.5,238.5 C 361.5,238.833 361.5,239.167 361.5,239.5C 343.012,240.086 324.679,240.752 306.5,241.5C 280.833,241.5 255.167,241.5 229.5,241.5C 229.5,241.167 229.5,240.833 229.5,240.5C 273.515,240.52 317.515,239.853 361.5,238.5 Z"/></g>
<g><path style="opacity:0.769" fill="#3c3f48" d="M 373.5,236.5 C 375.833,236.5 378.167,236.5 380.5,236.5C 375.911,238.875 370.911,239.875 365.5,239.5C 368.313,238.918 370.98,237.918 373.5,236.5 Z"/></g>
<g><path style="opacity:0.544" fill="#4b4e5a" d="M 361.5,239.5 C 362.167,239.5 362.833,239.5 363.5,239.5C 360.997,240.371 358.33,241.037 355.5,241.5C 339.167,241.5 322.833,241.5 306.5,241.5C 324.679,240.752 343.012,240.086 361.5,239.5 Z"/></g>
<g><path style="opacity:1" fill="#bcc6e3" d="M 229.5,242.5 C 229.5,242.833 229.5,243.167 229.5,243.5C 205.498,243.333 181.498,243.5 157.5,244C 153.975,244.179 150.641,244.679 147.5,245.5C 145.585,245.216 143.919,245.549 142.5,246.5C 142.167,246.5 141.833,246.5 141.5,246.5C 138.5,246.5 135.5,246.5 132.5,246.5C 133.152,245.275 134.319,244.608 136,244.5C 142.15,243.823 148.317,243.323 154.5,243C 179.498,242.5 204.498,242.333 229.5,242.5 Z"/></g>
<g><path style="opacity:0.663" fill="#464954" d="M 229.5,241.5 C 255.167,241.5 280.833,241.5 306.5,241.5C 295.833,242.167 285.167,242.833 274.5,243.5C 259.5,243.5 244.5,243.5 229.5,243.5C 229.5,243.167 229.5,242.833 229.5,242.5C 229.5,242.167 229.5,241.833 229.5,241.5 Z"/></g>
<g><path style="opacity:0.903" fill="#1e2024" d="M 306.5,241.5 C 322.833,241.5 339.167,241.5 355.5,241.5C 328.681,243.014 301.681,243.681 274.5,243.5C 285.167,242.833 295.833,242.167 306.5,241.5 Z"/></g>
<g><path style="opacity:1" fill="#939ab2" d="M 229.5,243.5 C 229.5,243.833 229.5,244.167 229.5,244.5C 202.156,244.281 174.822,244.614 147.5,245.5C 150.641,244.679 153.975,244.179 157.5,244C 181.498,243.5 205.498,243.333 229.5,243.5 Z"/></g>
<g><path style="opacity:1" fill="#1a1b1e" d="M 521.5,237.5 C 521.5,238.5 521.5,239.5 521.5,240.5C 520.433,242.964 519.1,245.297 517.5,247.5C 517.741,243.563 519.074,240.23 521.5,237.5 Z"/></g>
<g><path style="opacity:1" fill="#6f7485" d="M 521.5,240.5 C 521.5,241.833 521.5,243.167 521.5,244.5C 520.264,246.649 519.264,248.982 518.5,251.5C 518.167,251.5 517.833,251.5 517.5,251.5C 517.5,250.167 517.5,248.833 517.5,247.5C 519.1,245.297 520.433,242.964 521.5,240.5 Z"/></g>
<g><path style="opacity:1" fill="#494c58" d="M 229.5,244.5 C 229.5,244.833 229.5,245.167 229.5,245.5C 200.492,245.353 171.492,245.686 142.5,246.5C 143.919,245.549 145.585,245.216 147.5,245.5C 174.822,244.614 202.156,244.281 229.5,244.5 Z"/></g>
<g><path style="opacity:1" fill="#121215" d="M 229.5,245.5 C 200.34,246.719 171.007,247.386 141.5,247.5C 141.5,247.167 141.5,246.833 141.5,246.5C 141.833,246.5 142.167,246.5 142.5,246.5C 171.492,245.686 200.492,245.353 229.5,245.5 Z"/></g>
<g><path style="opacity:0.989" fill="#c1cae6" d="M 521.5,244.5 C 520.717,248.146 520.55,251.812 521,255.5C 521.419,254.328 522.085,253.328 523,252.5C 523.167,252.833 523.333,253.167 523.5,253.5C 520.468,257.889 518.302,262.556 517,267.5C 520.308,261.05 524.474,255.217 529.5,250C 536.25,248.432 542.583,249.599 548.5,253.5C 547.807,256.941 546.807,260.275 545.5,263.5C 539.764,260.675 534.097,260.841 528.5,264C 525.667,266.833 522.833,269.667 520,272.5C 507.677,290.3 493.177,306.133 476.5,320C 475.833,320.667 475.167,320.667 474.5,320C 477.777,317.234 480.443,314.067 482.5,310.5C 484.909,308.098 486.909,305.431 488.5,302.5C 490.914,301.089 492.581,299.089 493.5,296.5C 496.243,294.761 498.243,292.427 499.5,289.5C 502.086,288.513 503.419,286.513 503.5,283.5C 505.408,282.514 506.408,280.848 506.5,278.5C 509.705,276.091 511.372,272.758 511.5,268.5C 513.408,267.514 514.408,265.848 514.5,263.5C 516.77,260.026 518.103,256.026 518.5,251.5C 519.264,248.982 520.264,246.649 521.5,244.5 Z"/></g>
<g><path style="opacity:1" fill="#585d6b" d="M 132.5,246.5 C 135.5,246.5 138.5,246.5 141.5,246.5C 141.5,246.833 141.5,247.167 141.5,247.5C 137.818,247.335 134.152,247.501 130.5,248C 126.04,249.992 121.373,251.159 116.5,251.5C 121.738,249.842 127.072,248.176 132.5,246.5 Z"/></g>
<g><path style="opacity:1" fill="#25262c" d="M 114.5,252.5 C 113.514,254.408 111.848,255.408 109.5,255.5C 109.833,254.833 110.167,254.167 110.5,253.5C 111.833,253.167 113.167,252.833 114.5,252.5 Z"/></g>
<g><path style="opacity:1" fill="#3e414a" d="M 517.5,252.5 C 517.204,254.403 516.537,256.07 515.5,257.5C 515.12,255.302 515.787,253.635 517.5,252.5 Z"/></g>
<g><path style="opacity:1" fill="#606575" d="M 110.5,253.5 C 110.167,254.167 109.833,254.833 109.5,255.5C 108.18,256.942 106.514,257.608 104.5,257.5C 106.223,255.782 108.223,254.449 110.5,253.5 Z"/></g>
<g><path style="opacity:1" fill="#5d6170" d="M 104.5,257.5 C 103.109,259.89 101.109,261.557 98.5,262.5C 99.865,260.14 101.865,258.473 104.5,257.5 Z"/></g>
<g><path style="opacity:1" fill="#9fa7c0" d="M 517.5,251.5 C 517.833,251.5 518.167,251.5 518.5,251.5C 518.103,256.026 516.77,260.026 514.5,263.5C 514.517,261.435 514.85,259.435 515.5,257.5C 516.537,256.07 517.204,254.403 517.5,252.5C 517.5,252.167 517.5,251.833 517.5,251.5 Z"/></g>
<g><path style="opacity:1" fill="#383b43" d="M 515.5,257.5 C 514.85,259.435 514.517,261.435 514.5,263.5C 513.833,263.833 513.167,264.167 512.5,264.5C 512.759,261.728 513.759,259.395 515.5,257.5 Z"/></g>
<g><path style="opacity:1" fill="#636878" d="M 96.5,264.5 C 94.8333,266.833 92.8333,268.833 90.5,270.5C 91.5,267.5 93.5,265.5 96.5,264.5 Z"/></g>
<g><path style="opacity:1" fill="#949bb1" d="M 514.5,263.5 C 514.408,265.848 513.408,267.514 511.5,268.5C 511.833,267.167 512.167,265.833 512.5,264.5C 513.167,264.167 513.833,263.833 514.5,263.5 Z"/></g>
<g><path style="opacity:0.985" fill="#b7bfd6" d="M 543.5,269.5 C 542.833,271.167 542.167,272.833 541.5,274.5C 535.361,272.532 529.694,273.365 524.5,277C 513.5,288.667 502.5,300.333 491.5,312C 485.621,316.559 479.787,321.059 474,325.5C 468.047,336.822 471.214,343.489 483.5,345.5C 483.158,346.338 482.492,346.672 481.5,346.5C 471.686,345.514 467.853,340.18 470,330.5C 470.561,328.275 471.561,326.275 473,324.5C 477.892,319.973 483.059,315.807 488.5,312C 501.632,298.714 514.298,285.047 526.5,271C 531.92,267.145 537.586,266.645 543.5,269.5 Z"/></g>
<g><path style="opacity:1" fill="#797f92" d="M 90.5,270.5 C 90.2624,272.404 89.2624,273.738 87.5,274.5C 87.7376,272.596 88.7376,271.262 90.5,270.5 Z"/></g>
<g><path style="opacity:1" fill="#303239" d="M 509.5,270.5 C 508.552,273.14 507.552,275.807 506.5,278.5C 505.833,278.833 505.167,279.167 504.5,279.5C 504.903,275.685 506.57,272.685 509.5,270.5 Z"/></g>
<g><path style="opacity:1" fill="#9ca4bc" d="M 511.5,268.5 C 511.372,272.758 509.705,276.091 506.5,278.5C 507.552,275.807 508.552,273.14 509.5,270.5C 510.167,269.833 510.833,269.167 511.5,268.5 Z"/></g>
<g><path style="opacity:0.978" fill="#b2b9ce" d="M 541.5,274.5 C 540.343,278.147 538.677,281.48 536.5,284.5C 530.737,282.643 525.404,283.476 520.5,287C 511.53,294.969 502.863,303.303 494.5,312C 486.482,316.451 479.982,322.617 475,330.5C 473.558,338.234 476.725,342.9 484.5,344.5C 484.5,345.167 484.167,345.5 483.5,345.5C 471.214,343.489 468.047,336.822 474,325.5C 479.787,321.059 485.621,316.559 491.5,312C 502.5,300.333 513.5,288.667 524.5,277C 529.694,273.365 535.361,272.532 541.5,274.5 Z"/></g>
<g><path style="opacity:1" fill="#9097ac" d="M 506.5,278.5 C 506.408,280.848 505.408,282.514 503.5,283.5C 503.833,282.167 504.167,280.833 504.5,279.5C 505.167,279.167 505.833,278.833 506.5,278.5 Z"/></g>
<g><path style="opacity:0.96" fill="#acb2c5" d="M 536.5,284.5 C 535.674,287.485 534.341,290.151 532.5,292.5C 527.396,289.869 522.396,290.369 517.5,294C 504.667,304.833 491.833,315.667 479,326.5C 474.641,335.268 477.141,340.935 486.5,343.5C 486.158,344.338 485.492,344.672 484.5,344.5C 476.725,342.9 473.558,338.234 475,330.5C 479.982,322.617 486.482,316.451 494.5,312C 502.863,303.303 511.53,294.969 520.5,287C 525.404,283.476 530.737,282.643 536.5,284.5 Z"/></g>
<g><path style="opacity:1" fill="#bdc5df" d="M 545.5,263.5 C 545.029,265.579 544.363,267.579 543.5,269.5C 537.586,266.645 531.92,267.145 526.5,271C 514.298,285.047 501.632,298.714 488.5,312C 483.059,315.807 477.892,319.973 473,324.5C 471.561,326.275 470.561,328.275 470,330.5C 467.853,340.18 471.686,345.514 481.5,346.5C 480.738,348.262 479.404,349.262 477.5,349.5C 473.087,349.147 468.754,348.314 464.5,347C 461.5,342.698 460,337.865 460,332.5C 457.749,333.412 455.583,334.412 453.5,335.5C 454.5,334.167 455.5,332.833 456.5,331.5C 460.051,329.889 463.051,327.556 465.5,324.5C 467.595,323.588 469.595,322.421 471.5,321C 475.036,317.296 478.702,313.796 482.5,310.5C 480.443,314.067 477.777,317.234 474.5,320C 475.167,320.667 475.833,320.667 476.5,320C 493.177,306.133 507.677,290.3 520,272.5C 522.833,269.667 525.667,266.833 528.5,264C 534.097,260.841 539.764,260.675 545.5,263.5 Z"/></g>
<g><path style="opacity:1" fill="#82889b" d="M 503.5,283.5 C 503.419,286.513 502.086,288.513 499.5,289.5C 499.845,286.802 501.178,284.802 503.5,283.5 Z"/></g>
<g><path style="opacity:1" fill="#616674" d="M 499.5,289.5 C 498.243,292.427 496.243,294.761 493.5,296.5C 494.757,293.573 496.757,291.239 499.5,289.5 Z"/></g>
<g><path style="opacity:1" fill="#545865" d="M 86.5,278.5 C 86.5,279.833 86.5,281.167 86.5,282.5C 85.7321,283.263 85.2321,284.263 85,285.5C 84.1731,298.673 84.3398,311.673 85.5,324.5C 85.5,340.5 85.5,356.5 85.5,372.5C 84.8333,359.167 84.1667,345.833 83.5,332.5C 83.3334,316.497 83.5001,300.497 84,284.5C 84.5662,282.277 85.3995,280.277 86.5,278.5 Z"/></g>
<g><path style="opacity:1" fill="#151618" d="M 86.5,282.5 C 85.571,296.471 85.2377,310.471 85.5,324.5C 84.3398,311.673 84.1731,298.673 85,285.5C 85.2321,284.263 85.7321,283.263 86.5,282.5 Z"/></g>
<g><path style="opacity:0.964" fill="#a5aaba" d="M 532.5,292.5 C 530.527,296.457 528.194,300.124 525.5,303.5C 524.376,302.191 522.876,301.525 521,301.5C 516.585,302.415 512.418,303.915 508.5,306C 499.377,312.788 490.544,319.954 482,327.5C 478.811,334.403 480.645,339.403 487.5,342.5C 487.5,343.167 487.167,343.5 486.5,343.5C 477.141,340.935 474.641,335.268 479,326.5C 491.833,315.667 504.667,304.833 517.5,294C 522.396,290.369 527.396,289.869 532.5,292.5 Z"/></g>
<g><path style="opacity:1" fill="#717686" d="M 493.5,296.5 C 492.581,299.089 490.914,301.089 488.5,302.5C 489.419,299.911 491.086,297.911 493.5,296.5 Z"/></g>
<g><path style="opacity:1" fill="#727788" d="M 488.5,302.5 C 486.909,305.431 484.909,308.098 482.5,310.5C 478.702,313.796 475.036,317.296 471.5,321C 469.595,322.421 467.595,323.588 465.5,324.5C 469.473,321.194 473.14,317.527 476.5,313.5C 480.5,309.833 484.5,306.167 488.5,302.5 Z"/></g>
<g><path style="opacity:0.955" fill="#9da1ad" d="M 525.5,303.5 C 522.397,308.052 519.064,312.386 515.5,316.5C 512.346,314.14 509.013,313.974 505.5,316C 498.24,318.601 492.073,322.768 487,328.5C 484.606,333.717 486.106,337.383 491.5,339.5C 490.205,340.488 488.872,341.488 487.5,342.5C 480.645,339.403 478.811,334.403 482,327.5C 490.544,319.954 499.377,312.788 508.5,306C 512.418,303.915 516.585,302.415 521,301.5C 522.876,301.525 524.376,302.191 525.5,303.5 Z"/></g>
<g><path style="opacity:1" fill="#17181a" d="M 476.5,313.5 C 473.14,317.527 469.473,321.194 465.5,324.5C 463.589,325.075 461.922,326.075 460.5,327.5C 460.238,326.022 460.571,324.689 461.5,323.5C 465.644,320.524 469.644,317.357 473.5,314C 474.448,313.517 475.448,313.351 476.5,313.5 Z"/></g>
<g><path style="opacity:0.954" fill="#9497a0" d="M 515.5,316.5 C 508.133,324.868 500.133,332.535 491.5,339.5C 486.106,337.383 484.606,333.717 487,328.5C 492.073,322.768 498.24,318.601 505.5,316C 509.013,313.974 512.346,314.14 515.5,316.5 Z"/></g>
<g><path style="opacity:1" fill="#6b707f" d="M 465.5,324.5 C 463.051,327.556 460.051,329.889 456.5,331.5C 457.5,329.833 458.833,328.5 460.5,327.5C 461.922,326.075 463.589,325.075 465.5,324.5 Z"/></g>
<g><path style="opacity:1" fill="#646878" d="M 456.5,331.5 C 455.5,332.833 454.5,334.167 453.5,335.5C 452.833,335.5 452.167,335.5 451.5,335.5C 452.539,333.469 454.205,332.136 456.5,331.5 Z"/></g>
<g><path style="opacity:0.996" fill="#cbd5f5" d="M 477.5,349.5 C 476.499,350.789 476.666,352.122 478,353.5C 495.333,376.167 512.667,398.833 530,421.5C 540.17,437.54 543.337,454.873 539.5,473.5C 530.498,469.749 521.165,467.582 511.5,467C 503.167,483.333 490.833,495.667 474.5,504C 462.595,508.696 451.262,507.362 440.5,500C 433.12,495.627 426.62,490.127 421,483.5C 395.333,446.5 369.667,409.5 344,372.5C 341.258,368.884 337.758,366.384 333.5,365C 338.351,364.826 343.018,364.326 347.5,363.5C 357.689,363.406 367.689,362.739 377.5,361.5C 383.79,360.595 390.123,359.928 396.5,359.5C 405.078,358.199 413.078,355.532 420.5,351.5C 422.565,351.047 424.232,350.047 425.5,348.5C 430.144,347.679 434.477,346.013 438.5,343.5C 444.003,341.834 449.003,339.167 453.5,335.5C 455.583,334.412 457.749,333.412 460,332.5C 460,337.865 461.5,342.698 464.5,347C 468.754,348.314 473.087,349.147 477.5,349.5 Z"/></g>
<g><path style="opacity:1" fill="#505461" d="M 447.5,336.5 C 446.738,338.262 445.404,339.262 443.5,339.5C 444.262,337.738 445.596,336.738 447.5,336.5 Z"/></g>
<g><path style="opacity:1" fill="#b5beda" d="M 451.5,335.5 C 452.167,335.5 452.833,335.5 453.5,335.5C 449.003,339.167 444.003,341.834 438.5,343.5C 440.167,342.167 441.833,340.833 443.5,339.5C 445.404,339.262 446.738,338.262 447.5,336.5C 448.833,336.167 450.167,335.833 451.5,335.5 Z"/></g>
<g><path style="opacity:1" fill="#696e7f" d="M 443.5,339.5 C 441.833,340.833 440.167,342.167 438.5,343.5C 434.477,346.013 430.144,347.679 425.5,348.5C 431.044,344.631 437.044,341.631 443.5,339.5 Z"/></g>
<g><path style="opacity:1" fill="#616675" d="M 425.5,348.5 C 424.232,350.047 422.565,351.047 420.5,351.5C 418.435,351.517 416.435,351.85 414.5,352.5C 414.611,351.883 414.944,351.383 415.5,351C 418.929,350.467 422.262,349.633 425.5,348.5 Z"/></g>
<g><path style="opacity:1" fill="#4e515e" d="M 414.5,352.5 C 411.417,353.993 408.083,354.993 404.5,355.5C 404.611,354.883 404.944,354.383 405.5,354C 408.478,353.304 411.478,352.804 414.5,352.5 Z"/></g>
<g><path style="opacity:1" fill="#b8c1de" d="M 420.5,351.5 C 413.078,355.532 405.078,358.199 396.5,359.5C 396.5,359.167 396.5,358.833 396.5,358.5C 399.542,358.267 402.208,357.267 404.5,355.5C 408.083,354.993 411.417,353.993 414.5,352.5C 416.435,351.85 418.435,351.517 420.5,351.5 Z"/></g>
<g><path style="opacity:1" fill="#6f7486" d="M 404.5,355.5 C 402.208,357.267 399.542,358.267 396.5,358.5C 395.833,358.5 395.167,358.5 394.5,358.5C 394.5,358.167 394.5,357.833 394.5,357.5C 397.833,356.833 401.167,356.167 404.5,355.5 Z"/></g>
<g><path style="opacity:1" fill="#41444e" d="M 394.5,357.5 C 394.5,357.833 394.5,358.167 394.5,358.5C 390.176,358.927 385.842,359.261 381.5,359.5C 385.591,358.105 389.924,357.438 394.5,357.5 Z"/></g>
<g><path style="opacity:1" fill="#8990a5" d="M 394.5,358.5 C 395.167,358.5 395.833,358.5 396.5,358.5C 396.5,358.833 396.5,359.167 396.5,359.5C 390.123,359.928 383.79,360.595 377.5,361.5C 375.5,361.5 373.5,361.5 371.5,361.5C 373.833,360.833 376.167,360.167 378.5,359.5C 379.5,359.5 380.5,359.5 381.5,359.5C 385.842,359.261 390.176,358.927 394.5,358.5 Z"/></g>
<g><path style="opacity:1" fill="#4f525f" d="M 378.5,359.5 C 376.167,360.167 373.833,360.833 371.5,361.5C 368.5,361.5 365.5,361.5 362.5,361.5C 367.583,359.922 372.916,359.255 378.5,359.5 Z"/></g>
<g><path style="opacity:1" fill="#505460" d="M 356.5,361.5 C 336.833,362.167 317.167,362.833 297.5,363.5C 289.833,363.5 282.167,363.5 274.5,363.5C 261.167,363.5 247.833,363.5 234.5,363.5C 274.992,362.107 315.659,361.44 356.5,361.5 Z"/></g>
<g><path style="opacity:1" fill="#aab3cd" d="M 356.5,361.5 C 358.5,361.5 360.5,361.5 362.5,361.5C 365.5,361.5 368.5,361.5 371.5,361.5C 373.5,361.5 375.5,361.5 377.5,361.5C 367.689,362.739 357.689,363.406 347.5,363.5C 337.833,363.5 328.167,363.5 318.5,363.5C 315.5,363.5 312.5,363.5 309.5,363.5C 305.5,363.5 301.5,363.5 297.5,363.5C 317.167,362.833 336.833,362.167 356.5,361.5 Z"/></g>
<g><path style="opacity:1" fill="#999fb5" d="M 234.5,363.5 C 247.833,363.5 261.167,363.5 274.5,363.5C 265.357,364.733 256.024,365.399 246.5,365.5C 231.833,365.5 217.167,365.5 202.5,365.5C 202.5,365.167 202.5,364.833 202.5,364.5C 213.152,363.804 223.819,363.47 234.5,363.5 Z"/></g>
<g><path style="opacity:0.998" fill="#c8d1f0" d="M 318.5,363.5 C 328.167,363.5 337.833,363.5 347.5,363.5C 343.018,364.326 338.351,364.826 333.5,365C 337.758,366.384 341.258,368.884 344,372.5C 369.667,409.5 395.333,446.5 421,483.5C 426.62,490.127 433.12,495.627 440.5,500C 451.262,507.362 462.595,508.696 474.5,504C 490.833,495.667 503.167,483.333 511.5,467C 521.165,467.582 530.498,469.749 539.5,473.5C 539.167,474.833 538.833,476.167 538.5,477.5C 530.36,473.047 522.027,472.547 513.5,476C 503.353,490.171 490.353,500.504 474.5,507C 451.09,510.53 431.59,503.363 416,485.5C 390.42,449.341 365.087,413.008 340,376.5C 333.949,369.891 326.449,366.058 317.5,365C 318.056,364.617 318.389,364.117 318.5,363.5 Z"/></g>
<g><path style="opacity:1" fill="#73798b" d="M 202.5,364.5 C 202.5,364.833 202.5,365.167 202.5,365.5C 188.495,365.667 174.495,366 160.5,366.5C 157.833,366.5 155.167,366.5 152.5,366.5C 155.641,365.679 158.975,365.179 162.5,365C 175.829,364.5 189.163,364.333 202.5,364.5 Z"/></g>
<g><path style="opacity:1" fill="#b7bfd7" d="M 274.5,363.5 C 282.167,363.5 289.833,363.5 297.5,363.5C 301.5,363.5 305.5,363.5 309.5,363.5C 308.048,364.302 306.382,364.802 304.5,365C 306.382,365.198 308.048,365.698 309.5,366.5C 311.844,366.94 313.844,367.94 315.5,369.5C 300.723,367.971 285.889,367.305 271,367.5C 259.432,367.365 247.932,367.865 236.5,369C 226.303,372.684 220.637,380.018 219.5,391C 221.819,393.989 224.153,396.989 226.5,400C 227.448,400.483 228.448,400.649 229.5,400.5C 229.5,401.833 229.5,403.167 229.5,404.5C 227.193,403.347 224.86,402.18 222.5,401C 220.452,398.297 218.618,395.464 217,392.5C 216.248,383.549 219.414,376.383 226.5,371C 233.029,368.204 239.695,366.371 246.5,365.5C 256.024,365.399 265.357,364.733 274.5,363.5 Z"/></g>
<g><path style="opacity:1" fill="#666b7b" d="M 146.5,367.5 C 145.5,368.167 144.5,368.833 143.5,369.5C 140.833,369.5 138.167,369.5 135.5,369.5C 138.946,368.313 142.613,367.646 146.5,367.5 Z"/></g>
<g><path style="opacity:1" fill="#9aa2ba" d="M 152.5,366.5 C 155.167,366.5 157.833,366.5 160.5,366.5C 158.5,367.167 156.5,367.833 154.5,368.5C 150.802,368.552 147.135,368.886 143.5,369.5C 144.5,368.833 145.5,368.167 146.5,367.5C 148.735,367.795 150.735,367.461 152.5,366.5 Z"/></g>
<g><path style="opacity:1" fill="#bfc7e3" d="M 202.5,365.5 C 217.167,365.5 231.833,365.5 246.5,365.5C 239.695,366.371 233.029,368.204 226.5,371C 219.414,376.383 216.248,383.549 217,392.5C 218.618,395.464 220.452,398.297 222.5,401C 224.86,402.18 227.193,403.347 229.5,404.5C 229.5,405.5 229.5,406.5 229.5,407.5C 220.725,405.698 214.558,400.698 211,392.5C 210.074,382.489 213.24,374.156 220.5,367.5C 198.48,366.325 176.48,366.658 154.5,368.5C 156.5,367.833 158.5,367.167 160.5,366.5C 174.495,366 188.495,365.667 202.5,365.5 Z"/></g>
<g><path style="opacity:1" fill="#73798b" d="M 134.5,369.5 C 133.486,370.674 132.153,371.34 130.5,371.5C 129.833,371.5 129.167,371.5 128.5,371.5C 130.102,369.926 132.102,369.259 134.5,369.5 Z"/></g>
<g><path style="opacity:1" fill="#25272c" d="M 126.5,371.5 C 125.329,372.345 123.995,373.011 122.5,373.5C 121.833,373.5 121.167,373.5 120.5,373.5C 121.918,371.692 123.918,371.025 126.5,371.5 Z"/></g>
<g><path style="opacity:1" fill="#989fb7" d="M 126.5,371.5 C 127.167,371.5 127.833,371.5 128.5,371.5C 129.167,371.5 129.833,371.5 130.5,371.5C 128.064,372.871 125.397,373.871 122.5,374.5C 122.5,374.167 122.5,373.833 122.5,373.5C 123.995,373.011 125.329,372.345 126.5,371.5 Z"/></g>
<g><path style="opacity:1" fill="#a5adc7" d="M 83.5,332.5 C 84.1667,345.833 84.8333,359.167 85.5,372.5C 85.5,376.833 85.5,381.167 85.5,385.5C 84.6862,383.369 84.1862,381.036 84,378.5C 83.5001,363.17 83.3334,347.837 83.5,332.5 Z"/></g>
<g><path style="opacity:1" fill="#595e6c" d="M 120.5,373.5 C 121.167,373.5 121.833,373.5 122.5,373.5C 122.5,373.833 122.5,374.167 122.5,374.5C 121.209,374.263 120.209,374.596 119.5,375.5C 118.833,375.5 118.167,375.5 117.5,375.5C 117.973,374.094 118.973,373.427 120.5,373.5 Z"/></g>
<g><path style="opacity:1" fill="#92959d" d="M 330.5,390.5 C 333.063,398.915 335.396,407.415 337.5,416C 337.361,417.301 336.695,418.134 335.5,418.5C 332.833,414.5 330.167,410.5 327.5,406.5C 328.899,400.828 328.732,395.161 327,389.5C 324.167,388 322,385.833 320.5,383C 314.183,379.842 307.517,377.842 300.5,377C 284.5,376.333 268.5,376.333 252.5,377C 246.154,377.192 240.654,379.358 236,383.5C 234.232,385.912 233.065,388.579 232.5,391.5C 231.5,391.5 230.5,391.5 229.5,391.5C 231.245,380.265 237.912,374.432 249.5,374C 269.205,373.076 288.871,373.41 308.5,375C 313.381,377.607 318.381,379.941 323.5,382C 326.447,384.436 328.78,387.269 330.5,390.5 Z"/></g>
<g><path style="opacity:1" fill="#383b44" d="M 115.5,375.5 C 113.924,376.143 112.59,377.143 111.5,378.5C 110.833,378.5 110.167,378.5 109.5,378.5C 110.687,376.025 112.687,375.025 115.5,375.5 Z"/></g>
<g><path style="opacity:1" fill="#8b8d91" d="M 327.5,406.5 C 325.336,404.178 323.669,401.511 322.5,398.5C 323.435,395.887 323.602,393.221 323,390.5C 318.768,384.274 312.934,380.441 305.5,379C 286.5,378.333 267.5,378.333 248.5,379C 241.126,380.21 236.46,384.377 234.5,391.5C 233.833,391.5 233.167,391.5 232.5,391.5C 233.065,388.579 234.232,385.912 236,383.5C 240.654,379.358 246.154,377.192 252.5,377C 268.5,376.333 284.5,376.333 300.5,377C 307.517,377.842 314.183,379.842 320.5,383C 322,385.833 324.167,388 327,389.5C 328.732,395.161 328.899,400.828 327.5,406.5 Z"/></g>
<g><path style="opacity:1" fill="#8f97ad" d="M 115.5,375.5 C 116.167,375.5 116.833,375.5 117.5,375.5C 118.167,375.5 118.833,375.5 119.5,375.5C 117.064,376.871 114.397,377.871 111.5,378.5C 112.59,377.143 113.924,376.143 115.5,375.5 Z"/></g>
<g><path style="opacity:1" fill="#535764" d="M 107.5,379.5 C 106.738,381.262 105.404,382.262 103.5,382.5C 104.262,380.738 105.596,379.738 107.5,379.5 Z"/></g>
<g><path style="opacity:1" fill="#646979" d="M 103.5,382.5 C 102.514,384.408 100.848,385.408 98.5,385.5C 99.6594,383.75 101.326,382.75 103.5,382.5 Z"/></g>
<g><path style="opacity:1" fill="#b3bcd8" d="M 109.5,378.5 C 110.167,378.5 110.833,378.5 111.5,378.5C 106.573,383.974 100.573,387.974 93.5,390.5C 95.3603,389.061 97.027,387.395 98.5,385.5C 100.848,385.408 102.514,384.408 103.5,382.5C 105.404,382.262 106.738,381.262 107.5,379.5C 108.492,379.672 109.158,379.338 109.5,378.5 Z"/></g>
<g><path style="opacity:1" fill="#1c1d22" d="M 86.5,385.5 C 87.911,387.539 89.911,388.539 92.5,388.5C 92.5,389.167 92.5,389.833 92.5,390.5C 92.1667,390.5 91.8333,390.5 91.5,390.5C 87.8493,390.838 86.1826,389.172 86.5,385.5 Z"/></g>
<g><path style="opacity:1" fill="#505461" d="M 98.5,385.5 C 97.027,387.395 95.3603,389.061 93.5,390.5C 93.1667,390.5 92.8333,390.5 92.5,390.5C 92.5,389.833 92.5,389.167 92.5,388.5C 94.5168,387.471 96.5168,386.471 98.5,385.5 Z"/></g>
<g><path style="opacity:0.928" fill="#979aa3" d="M 330.5,390.5 C 333.934,398.046 337.434,405.712 341,413.5C 356.667,436.167 372.333,458.833 388,481.5C 397.103,492.129 407.936,500.462 420.5,506.5C 425.971,509.56 431.304,512.56 436.5,515.5C 425.063,511.784 414.063,506.951 403.5,501C 399.843,499.353 396.177,499.187 392.5,500.5C 373.5,473.167 354.5,445.833 335.5,418.5C 336.695,418.134 337.361,417.301 337.5,416C 335.396,407.415 333.063,398.915 330.5,390.5 Z"/></g>
<g><path style="opacity:1" fill="#80869a" d="M 85.5,385.5 C 85.8333,385.5 86.1667,385.5 86.5,385.5C 86.1826,389.172 87.8493,390.838 91.5,390.5C 91.2089,391.649 90.3756,392.316 89,392.5C 85.9569,391.263 84.7902,388.93 85.5,385.5 Z"/></g>
<g><path style="opacity:1" fill="#9b9fab" d="M 420.5,506.5 C 407.936,500.462 397.103,492.129 388,481.5C 372.333,458.833 356.667,436.167 341,413.5C 337.434,405.712 333.934,398.046 330.5,390.5C 328.78,387.269 326.447,384.436 323.5,382C 318.381,379.941 313.381,377.607 308.5,375C 288.871,373.41 269.205,373.076 249.5,374C 237.912,374.432 231.245,380.265 229.5,391.5C 229.5,391.833 229.5,392.167 229.5,392.5C 227.594,385.423 229.927,379.923 236.5,376C 239.732,374.534 243.065,373.367 246.5,372.5C 266.492,371.334 286.492,371.167 306.5,372C 317.369,374.197 326.202,379.697 333,388.5C 334.778,394.057 337.111,399.391 340,404.5C 357.667,430.167 375.333,455.833 393,481.5C 399.027,489.872 406.527,496.372 415.5,501C 417.201,502.839 418.868,504.673 420.5,506.5 Z"/></g>
<g><path style="opacity:1" fill="#bec6e0" d="M 309.5,366.5 C 322.002,365.504 332.168,369.838 340,379.5C 363.75,413.336 387.25,447.336 410.5,481.5C 427.921,505.921 451.255,514.421 480.5,507C 486.585,504.455 492.251,501.121 497.5,497C 503.838,490.329 510.504,483.996 517.5,478C 524.336,475.999 531.002,476.499 537.5,479.5C 537.405,481.786 536.738,483.786 535.5,485.5C 526.55,481.309 518.217,482.475 510.5,489C 490.397,510.664 466.064,516.664 437.5,507C 425.492,501.911 415.659,494.077 408,483.5C 384.731,449.23 361.065,415.23 337,381.5C 331.277,374.726 324.11,370.726 315.5,369.5C 313.844,367.94 311.844,366.94 309.5,366.5 Z"/></g>
<g><path style="opacity:1" fill="#aeb4c8" d="M 315.5,369.5 C 319.575,371.374 323.575,373.54 327.5,376C 340.328,388.198 350.828,402.031 359,417.5C 376.134,439.647 392.134,462.647 407,486.5C 415.847,495.792 425.681,503.459 436.5,509.5C 434.801,509.66 433.134,509.494 431.5,509C 426.52,506.032 421.52,503.032 416.5,500C 412.36,495.86 408.194,491.694 404,487.5C 380.469,454.406 357.469,421.073 335,387.5C 330.481,383.978 326.315,380.145 322.5,376C 316.157,371.66 309.157,369.327 301.5,369C 282.486,368.217 263.486,368.384 244.5,369.5C 232.7,371.467 225.7,378.3 223.5,390C 224.486,393.163 226.486,395.33 229.5,396.5C 229.5,397.833 229.5,399.167 229.5,400.5C 228.448,400.649 227.448,400.483 226.5,400C 224.153,396.989 221.819,393.989 219.5,391C 220.637,380.018 226.303,372.684 236.5,369C 247.932,367.865 259.432,367.365 271,367.5C 285.889,367.305 300.723,367.971 315.5,369.5 Z"/></g>
<g><path style="opacity:1" fill="#848587" d="M 322.5,398.5 C 321.094,398.027 320.427,397.027 320.5,395.5C 322.202,391.836 321.202,389.003 317.5,387C 312.639,383.823 307.305,381.823 301.5,381C 285.5,380.333 269.5,380.333 253.5,381C 245.929,381.274 240.596,384.774 237.5,391.5C 236.5,391.5 235.5,391.5 234.5,391.5C 236.46,384.377 241.126,380.21 248.5,379C 267.5,378.333 286.5,378.333 305.5,379C 312.934,380.441 318.768,384.274 323,390.5C 323.602,393.221 323.435,395.887 322.5,398.5 Z"/></g>
<g><path style="opacity:0.998" fill="#c9d2f1" d="M 228.5,472.5 C 228.167,473.167 227.833,473.833 227.5,474.5C 221.749,472.029 215.749,470.362 209.5,469.5C 207.423,469.692 205.423,470.192 203.5,471C 198.869,478.225 193.535,484.892 187.5,491C 180.181,496.843 172.514,502.01 164.5,506.5C 149.421,510.114 134.754,508.947 120.5,503C 118.124,500.32 115.124,498.987 111.5,499C 106.023,493.854 100.856,488.354 96,482.5C 92.0784,475.658 88.4117,468.658 85,461.5C 83.0914,458.586 80.4247,456.919 77,456.5C 71.1923,457.27 65.6923,458.937 60.5,461.5C 60.5,460.167 60.5,458.833 60.5,457.5C 68.0218,453.9 74.6885,449.067 80.5,443C 82.7681,442.91 84.2681,444.077 85,446.5C 86.822,452.121 88.4886,457.788 90,463.5C 100.325,488.157 118.659,502.824 145,507.5C 158.338,505.747 170.172,500.58 180.5,492C 189.05,483.535 196.384,474.202 202.5,464C 211.465,465.71 220.132,468.543 228.5,472.5 Z"/></g>
<g><path style="opacity:1" fill="#a4a9b9" d="M 436.5,509.5 C 440.285,511.266 444.285,512.766 448.5,514C 456.167,514.667 463.833,514.667 471.5,514C 475.09,513.689 478.423,512.856 481.5,511.5C 484.947,511.186 488.28,510.352 491.5,509C 499.532,504.652 507.532,500.319 515.5,496C 520.735,494.058 525.735,494.558 530.5,497.5C 529.396,499.389 528.063,501.055 526.5,502.5C 521.973,500.474 517.306,500.14 512.5,501.5C 505.935,503.782 499.602,506.615 493.5,510C 488.062,512.422 482.395,514.088 476.5,515C 465.833,515.667 455.167,515.667 444.5,515C 436.543,511.979 428.543,509.145 420.5,506.5C 418.868,504.673 417.201,502.839 415.5,501C 406.527,496.372 399.027,489.872 393,481.5C 375.333,455.833 357.667,430.167 340,404.5C 337.111,399.391 334.778,394.057 333,388.5C 326.202,379.697 317.369,374.197 306.5,372C 286.492,371.167 266.492,371.334 246.5,372.5C 243.065,373.367 239.732,374.534 236.5,376C 229.927,379.923 227.594,385.423 229.5,392.5C 229.5,393.833 229.5,395.167 229.5,396.5C 226.486,395.33 224.486,393.163 223.5,390C 225.7,378.3 232.7,371.467 244.5,369.5C 263.486,368.384 282.486,368.217 301.5,369C 309.157,369.327 316.157,371.66 322.5,376C 326.315,380.145 330.481,383.978 335,387.5C 357.469,421.073 380.469,454.406 404,487.5C 408.194,491.694 412.36,495.86 416.5,500C 421.52,503.032 426.52,506.032 431.5,509C 433.134,509.494 434.801,509.66 436.5,509.5 Z"/></g>
<g><path style="opacity:0.989" fill="#7c7c7b" d="M 320.5,395.5 C 318.806,394.473 317.473,393.139 316.5,391.5C 313.057,387.778 308.723,385.611 303.5,385C 286.5,384.333 269.5,384.333 252.5,385C 247.979,385.439 244.646,387.605 242.5,391.5C 240.833,391.5 239.167,391.5 237.5,391.5C 240.596,384.774 245.929,381.274 253.5,381C 269.5,380.333 285.5,380.333 301.5,381C 307.305,381.823 312.639,383.823 317.5,387C 321.202,389.003 322.202,391.836 320.5,395.5 Z"/></g>
<g><path style="opacity:1" fill="#73716c" d="M 316.5,391.5 C 291.833,391.5 267.167,391.5 242.5,391.5C 244.646,387.605 247.979,385.439 252.5,385C 269.5,384.333 286.5,384.333 303.5,385C 308.723,385.611 313.057,387.778 316.5,391.5 Z"/></g>
<g><path style="opacity:1" fill="#c3cce8" d="M 309.5,363.5 C 312.5,363.5 315.5,363.5 318.5,363.5C 318.389,364.117 318.056,364.617 317.5,365C 326.449,366.058 333.949,369.891 340,376.5C 365.087,413.008 390.42,449.341 416,485.5C 431.59,503.363 451.09,510.53 474.5,507C 490.353,500.504 503.353,490.171 513.5,476C 522.027,472.547 530.36,473.047 538.5,477.5C 538.672,478.492 538.338,479.158 537.5,479.5C 531.002,476.499 524.336,475.999 517.5,478C 510.504,483.996 503.838,490.329 497.5,497C 492.251,501.121 486.585,504.455 480.5,507C 451.255,514.421 427.921,505.921 410.5,481.5C 387.25,447.336 363.75,413.336 340,379.5C 332.168,369.838 322.002,365.504 309.5,366.5C 308.048,365.698 306.382,365.198 304.5,365C 306.382,364.802 308.048,364.302 309.5,363.5 Z"/></g>
<g><path style="opacity:0.975" fill="#bdc6e0" d="M 164.5,506.5 C 171.425,506.036 177.759,503.869 183.5,500C 190.538,493.293 197.872,486.96 205.5,481C 208.456,480.011 211.456,479.178 214.5,478.5C 218.229,479.348 221.896,480.348 225.5,481.5C 225.737,482.791 225.404,483.791 224.5,484.5C 214.913,480.743 206.246,482.243 198.5,489C 192.631,493.704 187.297,498.871 182.5,504.5C 175.449,507.517 168.115,509.517 160.5,510.5C 139.395,513.914 120.062,509.748 102.5,498C 94.8162,490.248 87.1496,482.581 79.5,475C 73.7759,471.964 68.1093,471.798 62.5,474.5C 61.5933,472.343 60.9267,470.01 60.5,467.5C 69.5752,463.82 77.7419,465.153 85,471.5C 102.591,503.548 129.091,515.214 164.5,506.5 Z"/></g>
<g><path style="opacity:0.994" fill="#b6bed5" d="M 160.5,510.5 C 140.696,514.921 122.03,512.088 104.5,502C 95.8333,494.667 87.1667,487.333 78.5,480C 73.5393,478.236 68.5393,478.07 63.5,479.5C 62.6993,477.958 62.366,476.292 62.5,474.5C 68.1093,471.798 73.7759,471.964 79.5,475C 87.1496,482.581 94.8162,490.248 102.5,498C 120.062,509.748 139.395,513.914 160.5,510.5 Z"/></g>
<g><path style="opacity:0.991" fill="#c3cce8" d="M 227.5,474.5 C 227.279,477.067 226.612,479.401 225.5,481.5C 221.896,480.348 218.229,479.348 214.5,478.5C 211.456,479.178 208.456,480.011 205.5,481C 197.872,486.96 190.538,493.293 183.5,500C 177.759,503.869 171.425,506.036 164.5,506.5C 172.514,502.01 180.181,496.843 187.5,491C 193.535,484.892 198.869,478.225 203.5,471C 205.423,470.192 207.423,469.692 209.5,469.5C 215.749,470.362 221.749,472.029 227.5,474.5 Z"/></g>
<g><path style="opacity:0.977" fill="#a5abbb" d="M 118.5,511.5 C 115.157,510.776 111.824,509.943 108.5,509C 106.381,506.607 103.715,505.274 100.5,505C 94.8913,500.189 88.8913,495.856 82.5,492C 77.8238,490.383 73.1572,490.217 68.5,491.5C 67.2632,490.035 66.2632,488.368 65.5,486.5C 72.1627,483.903 78.496,484.736 84.5,489C 89.9826,493.906 95.6492,498.572 101.5,503C 106.99,506.412 112.657,509.245 118.5,511.5 Z"/></g>
<g><path style="opacity:0.963" fill="#aeb4c7" d="M 533.5,490.5 C 532.773,492.954 531.773,495.287 530.5,497.5C 525.735,494.558 520.735,494.058 515.5,496C 507.532,500.319 499.532,504.652 491.5,509C 488.28,510.352 484.947,511.186 481.5,511.5C 481.611,510.883 481.944,510.383 482.5,510C 487.53,509.889 491.53,507.889 494.5,504C 502.41,499.762 510.076,495.095 517.5,490C 522.901,488.008 528.234,488.175 533.5,490.5 Z"/></g>
<g><path style="opacity:0.961" fill="#9598a1" d="M 121.5,516.5 C 118.11,515.977 114.777,515.143 111.5,514C 103.499,509.556 95.1653,505.889 86.5,503C 82.673,502.024 79.3396,502.857 76.5,505.5C 74.7745,503.772 73.4411,501.772 72.5,499.5C 77.0133,497.062 81.6799,496.895 86.5,499C 97.9746,505.404 109.641,511.237 121.5,516.5 Z"/></g>
<g><path style="opacity:1" fill="#afb5c9" d="M 160.5,510.5 C 168.115,509.517 175.449,507.517 182.5,504.5C 187.297,498.871 192.631,493.704 198.5,489C 206.246,482.243 214.913,480.743 224.5,484.5C 223.383,488.734 221.716,492.734 219.5,496.5C 214.446,493.27 209.112,492.77 203.5,495C 195.005,499.413 186.672,504.08 178.5,509C 158.748,515.329 138.748,516.163 118.5,511.5C 112.657,509.245 106.99,506.412 101.5,503C 95.6492,498.572 89.9826,493.906 84.5,489C 78.496,484.736 72.1627,483.903 65.5,486.5C 64.8333,484.167 64.1667,481.833 63.5,479.5C 68.5393,478.07 73.5393,478.236 78.5,480C 87.1667,487.333 95.8333,494.667 104.5,502C 122.03,512.088 140.696,514.921 160.5,510.5 Z"/></g>
<g><path style="opacity:0.969" fill="#8d8f95" d="M 436.5,515.5 C 449.676,520.133 463.342,521.633 477.5,520C 487.164,516.781 496.997,513.948 507,511.5C 510.583,511.968 513.75,513.302 516.5,515.5C 513.792,518.209 510.792,520.542 507.5,522.5C 507.426,520.589 506.426,519.422 504.5,519C 502.667,518.833 500.833,518.667 499,518.5C 487.397,520.601 475.73,522.267 464,523.5C 446.79,522.209 430.29,518.042 414.5,511C 410.198,509.994 406.198,510.494 402.5,512.5C 398.701,508.909 395.367,504.909 392.5,500.5C 396.177,499.187 399.843,499.353 403.5,501C 414.063,506.951 425.063,511.784 436.5,515.5 Z"/></g>
<g><path style="opacity:0.981" fill="#8d8f95" d="M 121.5,516.5 C 136.883,521.245 152.55,521.745 168.5,518C 176.167,515.667 183.833,513.333 191.5,511C 196.631,509.806 201.298,510.639 205.5,513.5C 203.451,516.55 200.784,518.883 197.5,520.5C 195.407,518.233 192.741,516.9 189.5,516.5C 175.557,520.185 161.39,522.518 147,523.5C 140.118,523.029 133.285,522.195 126.5,521C 114.278,517.304 102.111,513.47 90,509.5C 87.5568,510.03 85.3901,511.03 83.5,512.5C 80.8333,510.5 78.5,508.167 76.5,505.5C 79.3396,502.857 82.673,502.024 86.5,503C 95.1653,505.889 103.499,509.556 111.5,514C 114.777,515.143 118.11,515.977 121.5,516.5 Z"/></g>
<g><path style="opacity:1" fill="#c4cdea" d="M 164.5,506.5 C 129.091,515.214 102.591,503.548 85,471.5C 77.7419,465.153 69.5752,463.82 60.5,467.5C 60.5,465.5 60.5,463.5 60.5,461.5C 65.6923,458.937 71.1923,457.27 77,456.5C 80.4247,456.919 83.0914,458.586 85,461.5C 88.4117,468.658 92.0784,475.658 96,482.5C 100.856,488.354 106.023,493.854 111.5,499C 115.124,498.987 118.124,500.32 120.5,503C 134.754,508.947 149.421,510.114 164.5,506.5 Z"/></g>
<g><path style="opacity:0.943" fill="#9598a1" d="M 520.5,510.5 C 519.396,512.389 518.063,514.055 516.5,515.5C 513.75,513.302 510.583,511.968 507,511.5C 496.997,513.948 487.164,516.781 477.5,520C 463.342,521.633 449.676,520.133 436.5,515.5C 450.047,518.14 463.713,518.973 477.5,518C 488.915,513.422 500.582,509.589 512.5,506.5C 515.714,506.95 518.381,508.283 520.5,510.5 Z"/></g>
<g><path style="opacity:1" fill="#a5aaba" d="M 219.5,496.5 C 218.396,498.389 217.063,500.055 215.5,501.5C 210.683,499.592 205.683,499.092 200.5,500C 188.187,506.828 175.187,511.995 161.5,515.5C 153.521,516.665 145.521,516.832 137.5,516C 130.818,515.435 124.485,513.935 118.5,511.5C 138.748,516.163 158.748,515.329 178.5,509C 186.672,504.08 195.005,499.413 203.5,495C 209.112,492.77 214.446,493.27 219.5,496.5 Z"/></g>
<g><path style="opacity:1" fill="#9da1ae" d="M 118.5,511.5 C 124.485,513.935 130.818,515.435 137.5,516C 145.521,516.832 153.521,516.665 161.5,515.5C 175.187,511.995 188.187,506.828 200.5,500C 205.683,499.092 210.683,499.592 215.5,501.5C 214.214,504.117 212.547,506.45 210.5,508.5C 206.222,505.744 201.556,504.911 196.5,506C 188.718,508.689 181.052,511.522 173.5,514.5C 156.334,519.063 139.001,519.73 121.5,516.5C 109.641,511.237 97.9746,505.404 86.5,499C 81.6799,496.895 77.0133,497.062 72.5,499.5C 70.659,497.151 69.3257,494.485 68.5,491.5C 73.1572,490.217 77.8238,490.383 82.5,492C 88.8913,495.856 94.8913,500.189 100.5,505C 103.715,505.274 106.381,506.607 108.5,509C 111.824,509.943 115.157,510.776 118.5,511.5 Z"/></g>
<g><path style="opacity:1" fill="#b4bbd1" d="M 315.5,369.5 C 324.11,370.726 331.277,374.726 337,381.5C 361.065,415.23 384.731,449.23 408,483.5C 415.659,494.077 425.492,501.911 437.5,507C 466.064,516.664 490.397,510.664 510.5,489C 518.217,482.475 526.55,481.309 535.5,485.5C 535.204,487.403 534.537,489.07 533.5,490.5C 528.234,488.175 522.901,488.008 517.5,490C 510.076,495.095 502.41,499.762 494.5,504C 491.53,507.889 487.53,509.889 482.5,510C 481.944,510.383 481.611,510.883 481.5,511.5C 478.423,512.856 475.09,513.689 471.5,514C 463.833,514.667 456.167,514.667 448.5,514C 444.285,512.766 440.285,511.266 436.5,509.5C 425.681,503.459 415.847,495.792 407,486.5C 392.134,462.647 376.134,439.647 359,417.5C 350.828,402.031 340.328,388.198 327.5,376C 323.575,373.54 319.575,371.374 315.5,369.5 Z"/></g>
<g><path style="opacity:0.949" fill="#858688" d="M 507.5,522.5 C 505.733,524.89 503.4,526.557 500.5,527.5C 498.042,524.693 494.875,523.359 491,523.5C 478.216,525.305 465.383,525.805 452.5,525C 440.986,522.494 429.486,519.994 418,517.5C 416.167,517.667 414.333,517.833 412.5,518C 411.748,518.671 411.414,519.504 411.5,520.5C 407.88,518.547 404.88,515.881 402.5,512.5C 406.198,510.494 410.198,509.994 414.5,511C 430.29,518.042 446.79,522.209 464,523.5C 475.73,522.267 487.397,520.601 499,518.5C 500.833,518.667 502.667,518.833 504.5,519C 506.426,519.422 507.426,520.589 507.5,522.5 Z"/></g>
<g><path style="opacity:1" fill="#9da1ae" d="M 526.5,502.5 C 525.471,505.891 523.471,508.557 520.5,510.5C 518.381,508.283 515.714,506.95 512.5,506.5C 500.582,509.589 488.915,513.422 477.5,518C 463.713,518.973 450.047,518.14 436.5,515.5C 431.304,512.56 425.971,509.56 420.5,506.5C 428.543,509.145 436.543,511.979 444.5,515C 455.167,515.667 465.833,515.667 476.5,515C 482.395,514.088 488.062,512.422 493.5,510C 499.602,506.615 505.935,503.782 512.5,501.5C 517.306,500.14 521.973,500.474 526.5,502.5 Z"/></g>
<g><path style="opacity:1" fill="#828384" d="M 193.5,523.5 C 190.322,526.258 186.655,528.258 182.5,529.5C 182.423,528.25 181.756,527.417 180.5,527C 165.837,527.16 151.17,527.16 136.5,527C 125.109,525.152 113.775,522.986 102.5,520.5C 99.8984,520.467 97.8984,521.467 96.5,523.5C 92.9181,521.88 89.9181,519.547 87.5,516.5C 87.4142,515.504 87.7476,514.671 88.5,514C 92.1667,513.333 95.8333,513.333 99.5,514C 117.735,521.848 136.735,525.181 156.5,524C 166.044,522.758 175.544,521.258 185,519.5C 188.727,519.115 191.56,520.448 193.5,523.5 Z"/></g>
<g><path style="opacity:1" fill="#9598a1" d="M 210.5,508.5 C 209.167,510.5 207.5,512.167 205.5,513.5C 201.298,510.639 196.631,509.806 191.5,511C 183.833,513.333 176.167,515.667 168.5,518C 152.55,521.745 136.883,521.245 121.5,516.5C 139.001,519.73 156.334,519.063 173.5,514.5C 181.052,511.522 188.718,508.689 196.5,506C 201.556,504.911 206.222,505.744 210.5,508.5 Z"/></g>
<g><path style="opacity:1" fill="#87888c" d="M 197.5,520.5 C 196.564,521.974 195.23,522.974 193.5,523.5C 191.56,520.448 188.727,519.115 185,519.5C 175.544,521.258 166.044,522.758 156.5,524C 136.735,525.181 117.735,521.848 99.5,514C 95.8333,513.333 92.1667,513.333 88.5,514C 87.7476,514.671 87.4142,515.504 87.5,516.5C 85.8333,515.5 84.5,514.167 83.5,512.5C 85.3901,511.03 87.5568,510.03 90,509.5C 102.111,513.47 114.278,517.304 126.5,521C 133.285,522.195 140.118,523.029 147,523.5C 161.39,522.518 175.557,520.185 189.5,516.5C 192.741,516.9 195.407,518.233 197.5,520.5 Z"/></g>
<g><path style="opacity:0.965" fill="#7b7a79" d="M 182.5,529.5 C 180.75,530.87 178.75,531.87 176.5,532.5C 176.423,531.25 175.756,530.417 174.5,530C 171.964,529.661 169.464,529.161 167,528.5C 157.535,529.628 148.035,529.795 138.5,529C 127.526,527.114 116.526,525.78 105.5,525C 104.058,525.377 103.058,526.21 102.5,527.5C 100.205,526.525 98.2048,525.192 96.5,523.5C 97.8984,521.467 99.8984,520.467 102.5,520.5C 113.775,522.986 125.109,525.152 136.5,527C 151.17,527.16 165.837,527.16 180.5,527C 181.756,527.417 182.423,528.25 182.5,529.5 Z"/></g>
<g><path style="opacity:0.965" fill="#7c7c7b" d="M 500.5,527.5 C 497.249,529.957 493.582,531.624 489.5,532.5C 488.317,531.496 486.984,530.662 485.5,530C 475.833,529.667 466.167,529.333 456.5,529C 445.585,526.79 434.585,525.79 423.5,526C 422.944,526.383 422.611,526.883 422.5,527.5C 418.317,525.913 414.65,523.579 411.5,520.5C 411.414,519.504 411.748,518.671 412.5,518C 414.333,517.833 416.167,517.667 418,517.5C 429.486,519.994 440.986,522.494 452.5,525C 465.383,525.805 478.216,525.305 491,523.5C 494.875,523.359 498.042,524.693 500.5,527.5 Z"/></g>
<g><path style="opacity:0.934" fill="#74726d" d="M 176.5,532.5 C 157.033,538.588 137.367,539.088 117.5,534C 112.265,532.313 107.265,530.146 102.5,527.5C 103.058,526.21 104.058,525.377 105.5,525C 116.526,525.78 127.526,527.114 138.5,529C 148.035,529.795 157.535,529.628 167,528.5C 169.464,529.161 171.964,529.661 174.5,530C 175.756,530.417 176.423,531.25 176.5,532.5 Z"/></g>
<g><path style="opacity:0.938" fill="#74726d" d="M 489.5,532.5 C 485.17,534.664 480.503,536.164 475.5,537C 460.079,538.832 445.079,537.166 430.5,532C 427.609,530.726 424.942,529.226 422.5,527.5C 422.611,526.883 422.944,526.383 423.5,526C 434.585,525.79 445.585,526.79 456.5,529C 466.167,529.333 475.833,529.667 485.5,530C 486.984,530.662 488.317,531.496 489.5,532.5 Z"/></g>
</svg>
