<?xml version="1.0" encoding="UTF-8"?>
<!DOCTYPE svg PUBLIC "-//W3C//DTD SVG 1.1//EN" "http://www.w3.org/Graphics/SVG/1.1/DTD/svg11.dtd">
<svg xmlns="http://www.w3.org/2000/svg" version="1.1" width="612px" height="612px" style="shape-rendering:geometricPrecision; text-rendering:geometricPrecision; image-rendering:optimizeQuality; fill-rule:evenodd; clip-rule:evenodd" xmlns:xlink="http://www.w3.org/1999/xlink">
<g><path style="opacity:0.866" fill="#000000" d="M 298.5,64.5 C 340.6,61.6089 379.6,71.1089 415.5,93C 417.333,94.8333 419.167,96.6667 421,98.5C 421.667,100.167 421.667,101.833 421,103.5C 416.587,104.632 412.087,104.799 407.5,104C 377.973,95.1178 347.973,93.1178 317.5,98C 289.365,104.903 263.698,116.903 240.5,134C 226.971,147.195 213.804,160.695 201,174.5C 167.312,222.588 154.312,275.921 162,334.5C 166.668,372.522 180.335,406.856 203,437.5C 218.893,454.062 235.393,469.895 252.5,485C 303.628,515.825 357.795,522.325 415,504.5C 422.553,506.178 423.387,509.678 417.5,515C 373.242,542.936 325.242,551.936 273.5,542C 226.441,532.723 186.608,510.556 154,475.5C 106.022,419.892 85.0217,355.226 91,281.5C 95.9292,225.339 116.929,176.339 154,134.5C 185.595,99.7822 224.428,77.6156 270.5,68C 279.923,66.337 289.256,65.1704 298.5,64.5 Z"/></g>
<g><path style="opacity:0.841" fill="#000000" d="M 335.5,111.5 C 398.841,105.932 451.007,127.265 492,175.5C 530.846,224.541 545.179,280.208 535,342.5C 528.918,368.32 519.251,392.653 506,415.5C 491.246,436.255 473.746,454.421 453.5,470C 441.292,476.604 428.959,482.937 416.5,489C 390.435,497.165 363.769,499.831 336.5,497C 321.196,494.343 306.529,489.676 292.5,483C 281.108,475.753 281.942,471.253 295,469.5C 367.734,479.346 422.401,452.679 459,389.5C 482.985,340.807 485.985,290.807 468,239.5C 462.204,225.235 454.871,211.902 446,199.5C 435.5,189 425,178.5 414.5,168C 397.471,154.987 378.471,145.987 357.5,141C 333.236,137.788 309.069,138.288 285,142.5C 282.474,142.435 280.141,141.768 278,140.5C 277.333,139.167 277.333,137.833 278,136.5C 284.945,130.275 292.779,125.442 301.5,122C 312.928,118.354 324.261,114.854 335.5,111.5 Z"/></g>
<g><path style="opacity:0.985" fill="#000000" d="M 249.5,205.5 C 273.836,205.333 298.169,205.5 322.5,206C 344.166,207.255 362.666,215.422 378,230.5C 389.873,246.176 394.54,263.842 392,283.5C 387.084,310.758 371.584,329.258 345.5,339C 367.622,369.412 389.622,399.912 411.5,430.5C 393.176,431.666 374.842,431.833 356.5,431C 337.875,402.252 319.375,373.418 301,344.5C 298.959,343.577 296.792,343.244 294.5,343.5C 294.5,372.833 294.5,402.167 294.5,431.5C 279.5,431.5 264.5,431.5 249.5,431.5C 249.5,356.167 249.5,280.833 249.5,205.5 Z M 294.5,244.5 C 302.841,244.81 311.174,245.31 319.5,246C 342.678,250.86 351.178,264.693 345,287.5C 340.267,298.126 332.1,304.293 320.5,306C 311.88,307.252 303.213,307.752 294.5,307.5C 294.5,286.5 294.5,265.5 294.5,244.5 Z"/></g>
</svg>
