<?xml version="1.0" encoding="UTF-8"?>
<!DOCTYPE svg PUBLIC "-//W3C//DTD SVG 1.1//EN" "http://www.w3.org/Graphics/SVG/1.1/DTD/svg11.dtd">
<svg xmlns="http://www.w3.org/2000/svg" version="1.1" width="461px" height="490px" style="shape-rendering:geometricPrecision; text-rendering:geometricPrecision; image-rendering:optimizeQuality; fill-rule:evenodd; clip-rule:evenodd" xmlns:xlink="http://www.w3.org/1999/xlink">
<g><path style="opacity:0.848" fill="#222222" d="M 207.5,10.5 C 209.948,9.52693 212.615,9.1936 215.5,9.5C 216.874,14.3899 220.208,17.2233 225.5,18C 232.167,18.3333 238.833,18.6667 245.5,19C 261.918,23.0141 278.251,27.3474 294.5,32C 304.818,35.2394 313.985,40.406 322,47.5C 322.464,48.0944 322.631,48.7611 322.5,49.5C 321.5,49.5 320.5,49.5 319.5,49.5C 317.737,45.9012 315.07,43.0678 311.5,41C 290.512,31.252 268.512,24.9187 245.5,22C 235.824,21.659 226.158,21.159 216.5,20.5C 211.934,20.713 207.434,21.3797 203,22.5C 197.742,22.226 193.742,19.8926 191,15.5C 190.51,14.2068 190.343,12.8734 190.5,11.5C 194.064,10.5773 197.731,10.244 201.5,10.5C 200.206,13.2557 201.206,14.9223 204.5,15.5C 206.187,15.2395 207.687,14.5728 209,13.5C 209.585,12.0024 209.085,11.0024 207.5,10.5 Z"/></g>
<g><path style="opacity:0.823" fill="#282828" d="M 215.5,9.5 C 219.167,9.5 222.833,9.5 226.5,9.5C 226.33,10.8221 226.663,11.9887 227.5,13C 232.505,13.082 237.505,13.082 242.5,13C 246.941,15.7723 251.608,18.1056 256.5,20C 278.082,23.4161 298.415,30.4161 317.5,41C 321.048,43.047 323.715,45.8803 325.5,49.5C 324.5,49.5 323.5,49.5 322.5,49.5C 322.631,48.7611 322.464,48.0944 322,47.5C 313.985,40.406 304.818,35.2394 294.5,32C 278.251,27.3474 261.918,23.0141 245.5,19C 238.833,18.6667 232.167,18.3333 225.5,18C 220.208,17.2233 216.874,14.3899 215.5,9.5 Z"/></g>
<g><path style="opacity:0.645" fill="#2e2e2e" d="M 226.5,9.5 C 235.352,9.68861 244.019,10.3553 252.5,11.5C 252.511,13.0174 253.177,14.1841 254.5,15C 262.468,18.7433 270.801,21.41 279.5,23C 295.404,28.1193 310.404,35.1193 324.5,44C 325.965,45.7742 327.298,47.6075 328.5,49.5C 327.5,49.5 326.5,49.5 325.5,49.5C 323.715,45.8803 321.048,43.047 317.5,41C 298.415,30.4161 278.082,23.4161 256.5,20C 251.608,18.1056 246.941,15.7723 242.5,13C 237.505,13.082 232.505,13.082 227.5,13C 226.663,11.9887 226.33,10.8221 226.5,9.5 Z"/></g>
<g><path style="opacity:0.416" fill="#252625" d="M 201.5,10.5 C 203.5,10.5 205.5,10.5 207.5,10.5C 209.085,11.0024 209.585,12.0024 209,13.5C 207.687,14.5728 206.187,15.2395 204.5,15.5C 201.206,14.9223 200.206,13.2557 201.5,10.5 Z"/></g>
<g><path style="opacity:0.877" fill="#1b1b1b" d="M 190.5,11.5 C 190.343,12.8734 190.51,14.2068 191,15.5C 193.742,19.8926 197.742,22.226 203,22.5C 207.434,21.3797 211.934,20.713 216.5,20.5C 226.158,21.159 235.824,21.659 245.5,22C 268.512,24.9187 290.512,31.252 311.5,41C 315.07,43.0678 317.737,45.9012 319.5,49.5C 317.784,49.3713 316.117,49.038 314.5,48.5C 313.409,45.5722 311.409,43.4055 308.5,42C 288.876,32.6725 268.209,27.0059 246.5,25C 230.776,24.1179 215.109,24.6179 199.5,26.5C 191.672,26.6932 184.172,25.3598 177,22.5C 175.293,20.0912 174.46,17.4245 174.5,14.5C 179.591,12.8711 184.924,11.8711 190.5,11.5 Z"/></g>
<g><path style="opacity:0.508" fill="#353535" d="M 252.5,11.5 C 257.749,11.3969 262.749,12.3969 267.5,14.5C 289.447,22.9736 310.447,33.3069 330.5,45.5C 330.771,47.3797 330.104,48.713 328.5,49.5C 327.298,47.6075 325.965,45.7742 324.5,44C 310.404,35.1193 295.404,28.1193 279.5,23C 270.801,21.41 262.468,18.7433 254.5,15C 253.177,14.1841 252.511,13.0174 252.5,11.5 Z"/></g>
<g><path style="opacity:0.873" fill="#151515" d="M 174.5,14.5 C 174.46,17.4245 175.293,20.0912 177,22.5C 184.172,25.3598 191.672,26.6932 199.5,26.5C 215.109,24.6179 230.776,24.1179 246.5,25C 268.209,27.0059 288.876,32.6725 308.5,42C 311.409,43.4055 313.409,45.5722 314.5,48.5C 312.421,48.0293 310.421,47.3627 308.5,46.5C 307.71,45.2058 306.71,44.0391 305.5,43C 286.538,33.9255 266.538,28.5922 245.5,27C 220.477,28.0044 195.477,29.3377 170.5,31C 163.063,30.0631 158.73,25.8964 157.5,18.5C 163.034,16.7001 168.701,15.3668 174.5,14.5 Z"/></g>
<g><path style="opacity:0.091" fill="#3b3b3b" d="M 267.5,14.5 C 282.891,17.2541 297.225,22.5875 310.5,30.5C 311.659,32.2503 313.326,33.2503 315.5,33.5C 316.492,33.3284 317.158,33.6618 317.5,34.5C 319.629,36.9501 322.296,38.6167 325.5,39.5C 327.914,40.9108 329.581,42.9108 330.5,45.5C 310.447,33.3069 289.447,22.9736 267.5,14.5 Z"/></g>
<g><path style="opacity:0.88" fill="#0f0f0f" d="M 157.5,18.5 C 158.73,25.8964 163.063,30.0631 170.5,31C 195.477,29.3377 220.477,28.0044 245.5,27C 266.538,28.5922 286.538,33.9255 305.5,43C 306.71,44.0391 307.71,45.2058 308.5,46.5C 304.779,46.0889 301.112,45.4222 297.5,44.5C 293.474,40.1483 288.474,37.315 282.5,36C 261.495,30.4276 240.162,28.4276 218.5,30C 202.108,31.924 185.775,34.2573 169.5,37C 164.167,37.6667 158.833,37.6667 153.5,37C 147.622,34.4189 144.288,29.9189 143.5,23.5C 147.957,21.2725 152.624,19.6058 157.5,18.5 Z"/></g>
<g><path style="opacity:0.949" fill="#090909" d="M 143.5,23.5 C 144.288,29.9189 147.622,34.4189 153.5,37C 158.833,37.6667 164.167,37.6667 169.5,37C 185.775,34.2573 202.108,31.924 218.5,30C 240.162,28.4276 261.495,30.4276 282.5,36C 288.474,37.315 293.474,40.1483 297.5,44.5C 290.52,42.9038 283.52,41.5705 276.5,40.5C 275.942,39.2101 274.942,38.3768 273.5,38C 262.52,35.0311 251.353,33.1978 240,32.5C 215.494,33.6673 191.328,37.1673 167.5,43C 160.544,44.1287 155.877,47.9621 153.5,54.5C 156.256,59.6833 159.256,64.6833 162.5,69.5C 159.709,71.7349 156.709,73.7349 153.5,75.5C 150.227,67.8905 144.56,63.2238 136.5,61.5C 130.999,61.919 126.665,64.419 123.5,69C 118.328,72.0852 113.328,75.4186 108.5,79C 96.6573,90.1766 85.4906,102.01 75,114.5C 38.1525,172.558 26.1525,235.558 39,303.5C 51.2043,364.46 82.371,412.96 132.5,449C 170.048,471.552 210.715,480.885 254.5,477C 270.595,474.648 286.428,471.148 302,466.5C 305.187,466.828 308.02,467.828 310.5,469.5C 308.95,470.441 307.284,471.107 305.5,471.5C 302.15,471.335 298.817,471.502 295.5,472C 198.017,496.521 121.851,467.021 67,383.5C 32.7126,322.219 23.3792,257.219 39,188.5C 47.4696,154.227 62.8029,123.561 85,96.5C 92.8248,89.3761 100.325,81.8761 107.5,74C 113.869,69.4765 119.869,64.4765 125.5,59C 130.448,56.2792 135.281,53.4459 140,50.5C 140.584,47.7433 140.25,45.0766 139,42.5C 136.233,37.9654 133.733,33.2987 131.5,28.5C 135.203,26.3213 139.203,24.6546 143.5,23.5 Z"/></g>
<g><path style="opacity:0.863" fill="#000000" d="M 131.5,28.5 C 133.733,33.2987 136.233,37.9654 139,42.5C 140.25,45.0766 140.584,47.7433 140,50.5C 135.281,53.4459 130.448,56.2792 125.5,59C 119.869,64.4765 113.869,69.4765 107.5,74C 100.325,81.8761 92.8248,89.3761 85,96.5C 62.8029,123.561 47.4696,154.227 39,188.5C 23.3792,257.219 32.7126,322.219 67,383.5C 121.851,467.021 198.017,496.521 295.5,472C 298.817,471.502 302.15,471.335 305.5,471.5C 293.234,477.982 280.234,482.815 266.5,486C 259.07,487.499 251.737,488.666 244.5,489.5C 229.167,489.5 213.833,489.5 198.5,489.5C 144.924,483.128 99.7572,460.128 63,420.5C 26.0068,378.039 4.84012,328.706 -0.5,272.5C -0.5,257.167 -0.5,241.833 -0.5,226.5C 5.61889,161.268 32.6189,106.435 80.5,62C 96.1878,48.8236 113.188,37.6569 131.5,28.5 Z"/></g>
<g><path style="opacity:0.01" fill="#3f3f3f" d="M 310.5,30.5 C 312.674,30.7497 314.341,31.7497 315.5,33.5C 313.326,33.2503 311.659,32.2503 310.5,30.5 Z"/></g>
<g><path style="opacity:0.752" fill="#020202" d="M 276.5,40.5 C 246.517,37.8534 217.85,42.6868 190.5,55C 180.983,59.5911 171.65,64.4244 162.5,69.5C 159.256,64.6833 156.256,59.6833 153.5,54.5C 155.877,47.9621 160.544,44.1287 167.5,43C 191.328,37.1673 215.494,33.6673 240,32.5C 251.353,33.1978 262.52,35.0311 273.5,38C 274.942,38.3768 275.942,39.2101 276.5,40.5 Z"/></g>
<g><path style="opacity:0.011" fill="#404040" d="M 317.5,34.5 C 320.704,35.3833 323.371,37.0499 325.5,39.5C 322.296,38.6167 319.629,36.9501 317.5,34.5 Z"/></g>
<g><path style="opacity:0.913" fill="#1c1c1c" d="M 253.5,56.5 C 251.942,59.2436 252.609,61.4103 255.5,63C 282.544,67.5668 307.544,77.2335 330.5,92C 338.957,97.3028 346.957,103.136 354.5,109.5C 358.167,113.833 362.167,117.833 366.5,121.5C 367.167,121.5 367.5,121.833 367.5,122.5C 369.094,125.764 371.427,128.431 374.5,130.5C 375.08,132.749 376.413,134.415 378.5,135.5C 379.433,138.37 381.1,140.704 383.5,142.5C 383.427,144.027 384.094,145.027 385.5,145.5C 385.427,147.027 386.094,148.027 387.5,148.5C 387.75,150.674 388.75,152.341 390.5,153.5C 391.41,156.992 393.076,159.992 395.5,162.5C 395.328,163.492 395.662,164.158 396.5,164.5C 397.376,168.582 399.043,172.249 401.5,175.5C 407.511,190.704 412.011,206.37 415,222.5C 415.208,237.021 415.708,251.521 416.5,266C 416.031,276.911 414.864,287.744 413,298.5C 407.665,316.505 402.332,334.505 397,352.5C 396.333,357.167 396.333,361.833 397,366.5C 398.715,369.717 401.215,372.05 404.5,373.5C 399.509,379.823 394.176,385.823 388.5,391.5C 381.95,387.698 379.784,382.032 382,374.5C 394.768,348.196 404.768,320.863 412,292.5C 422.289,234.333 409.956,181.667 375,134.5C 341.686,94.755 299.186,71.5883 247.5,65C 243.709,63.9196 242.043,61.4196 242.5,57.5C 246.099,56.6561 249.766,56.3227 253.5,56.5 Z"/></g>
<g><path style="opacity:0.825" fill="#222222" d="M 253.5,56.5 C 261.167,56.5 268.833,56.5 276.5,56.5C 274.337,57.4691 272.004,58.3024 269.5,59C 268.167,59.6667 268.167,60.3333 269.5,61C 283.5,67 297.5,73 311.5,79C 320.833,84.6667 330.167,90.3333 339.5,96C 344.95,100.049 349.95,104.549 354.5,109.5C 346.957,103.136 338.957,97.3028 330.5,92C 307.544,77.2335 282.544,67.5668 255.5,63C 252.609,61.4103 251.942,59.2436 253.5,56.5 Z"/></g>
<g><path style="opacity:0.824" fill="#282828" d="M 276.5,56.5 C 282.726,56.3877 288.726,57.0543 294.5,58.5C 290.785,58.423 287.119,58.7564 283.5,59.5C 283.323,61.9806 284.323,63.8139 286.5,65C 305.403,73.4498 323.403,83.4498 340.5,95C 346.627,98.96 351.96,103.793 356.5,109.5C 355.833,109.5 355.167,109.5 354.5,109.5C 349.95,104.549 344.95,100.049 339.5,96C 330.167,90.3333 320.833,84.6667 311.5,79C 297.5,73 283.5,67 269.5,61C 268.167,60.3333 268.167,59.6667 269.5,59C 272.004,58.3024 274.337,57.4691 276.5,56.5 Z"/></g>
<g><path style="opacity:0.925" fill="#151515" d="M 242.5,57.5 C 242.043,61.4196 243.709,63.9196 247.5,65C 299.186,71.5883 341.686,94.755 375,134.5C 409.956,181.667 422.289,234.333 412,292.5C 404.768,320.863 394.768,348.196 382,374.5C 379.784,382.032 381.95,387.698 388.5,391.5C 384.167,396.5 379.5,401.167 374.5,405.5C 372.425,402.354 370.592,399.021 369,395.5C 368.333,393.167 368.333,390.833 369,388.5C 374.493,377.51 380.493,366.843 387,356.5C 399.151,331.714 407.484,305.714 412,278.5C 418.99,211.782 398.157,155.616 349.5,110C 327.784,91.9953 303.117,79.6619 275.5,73C 265.124,71.5781 254.791,69.9115 244.5,68C 239.261,67.2384 235.927,64.4051 234.5,59.5C 236.993,58.2264 239.659,57.5597 242.5,57.5 Z"/></g>
<g><path style="opacity:0.826" fill="#2e2e2e" d="M 294.5,58.5 C 300.142,58.4964 305.475,59.4964 310.5,61.5C 306.418,61.3436 302.418,61.8436 298.5,63C 297.549,63.7175 297.383,64.5509 298,65.5C 313.414,75.791 328.914,85.9577 344.5,96C 355.393,105.392 365.393,115.559 374.5,126.5C 371.833,124.167 369.167,121.833 366.5,119.5C 363.473,115.806 360.14,112.473 356.5,109.5C 351.96,103.793 346.627,98.96 340.5,95C 323.403,83.4498 305.403,73.4498 286.5,65C 284.323,63.8139 283.323,61.9806 283.5,59.5C 287.119,58.7564 290.785,58.423 294.5,58.5 Z"/></g>
<g><path style="opacity:0.945" fill="#0f0f0f" d="M 234.5,59.5 C 235.927,64.4051 239.261,67.2384 244.5,68C 254.791,69.9115 265.124,71.5781 275.5,73C 303.117,79.6619 327.784,91.9953 349.5,110C 398.157,155.616 418.99,211.782 412,278.5C 407.484,305.714 399.151,331.714 387,356.5C 380.493,366.843 374.493,377.51 369,388.5C 368.333,390.833 368.333,393.167 369,395.5C 370.592,399.021 372.425,402.354 374.5,405.5C 372.525,407.137 370.525,408.804 368.5,410.5C 363.738,404.65 361.571,397.984 362,390.5C 368.153,379.53 374.82,368.863 382,358.5C 394.35,335.792 403.35,311.792 409,286.5C 418.085,229.13 404.752,177.796 369,132.5C 337.088,95.4608 296.588,75.2941 247.5,72C 239.798,70.4913 232.132,68.8246 224.5,67C 222.574,66.5776 221.574,65.4109 221.5,63.5C 225.818,62.1723 230.151,60.839 234.5,59.5 Z"/></g>
<g><path style="opacity:0.976" fill="#0f0f0f" d="M 153.5,75.5 C 151.909,77.6326 149.909,79.2993 147.5,80.5C 144.764,74.2318 140.097,71.0651 133.5,71C 131.545,71.9533 129.878,73.2866 128.5,75C 116.77,77.8605 107.436,84.1938 100.5,94C 85.0974,104.739 73.2641,118.573 65,135.5C 38.2183,188.706 30.2183,244.706 41,303.5C 52.658,361.44 81.8247,408.273 128.5,444C 167.829,469.247 210.829,479.247 257.5,474C 272.264,471.383 286.764,467.883 301,463.5C 305.587,463.545 309.753,464.878 313.5,467.5C 312.71,468.401 311.71,469.068 310.5,469.5C 308.02,467.828 305.187,466.828 302,466.5C 286.428,471.148 270.595,474.648 254.5,477C 210.715,480.885 170.048,471.552 132.5,449C 82.371,412.96 51.2043,364.46 39,303.5C 26.1525,235.558 38.1525,172.558 75,114.5C 85.4906,102.01 96.6573,90.1766 108.5,79C 113.328,75.4186 118.328,72.0852 123.5,69C 126.665,64.419 130.999,61.919 136.5,61.5C 144.56,63.2238 150.227,67.8905 153.5,75.5 Z"/></g>
<g><path style="opacity:0.889" fill="#353535" d="M 310.5,61.5 C 313.067,61.7215 315.401,62.3882 317.5,63.5C 315.611,64.322 313.611,65.1553 311.5,66C 310.483,67.0495 310.316,68.2161 311,69.5C 322.275,78.7753 334.109,87.2753 346.5,95C 386.602,128.343 411.436,170.843 421,222.5C 421.949,249.849 423.282,277.182 425,304.5C 427.557,309.233 431.39,312.233 436.5,313.5C 433.443,321.946 430.11,330.279 426.5,338.5C 419.067,336.739 415.401,332.073 415.5,324.5C 417.157,314.867 418.657,305.201 420,295.5C 420.907,270.807 420.574,246.14 419,221.5C 415.476,203.927 410.142,186.927 403,170.5C 400.646,165.113 397.812,160.113 394.5,155.5C 393.502,151.495 391.502,148.161 388.5,145.5C 388.573,143.973 387.906,142.973 386.5,142.5C 386.573,140.973 385.906,139.973 384.5,139.5C 383.471,136.109 381.471,133.443 378.5,131.5C 377.92,129.251 376.587,127.585 374.5,126.5C 365.393,115.559 355.393,105.392 344.5,96C 328.914,85.9577 313.414,75.791 298,65.5C 297.383,64.5509 297.549,63.7175 298.5,63C 302.418,61.8436 306.418,61.3436 310.5,61.5 Z"/></g>
<g><path style="opacity:0.955" fill="#090909" d="M 221.5,63.5 C 221.574,65.4109 222.574,66.5776 224.5,67C 232.132,68.8246 239.798,70.4913 247.5,72C 296.588,75.2941 337.088,95.4608 369,132.5C 404.752,177.796 418.085,229.13 409,286.5C 403.35,311.792 394.35,335.792 382,358.5C 374.82,368.863 368.153,379.53 362,390.5C 361.571,397.984 363.738,404.65 368.5,410.5C 366.381,412.4 364.047,414.066 361.5,415.5C 355.009,407.852 353.176,399.185 356,389.5C 364.667,376.833 373.333,364.167 382,351.5C 393.913,329.094 402.246,305.428 407,280.5C 414.59,224.5 400.59,174.834 365,131.5C 325.561,89.2274 276.728,70.0607 218.5,74C 214.374,73.281 211.374,71.1143 209.5,67.5C 213.421,65.9706 217.421,64.6373 221.5,63.5 Z"/></g>
<g><path style="opacity:0.892" fill="#3b3b3b" d="M 317.5,63.5 C 320.152,63.4095 322.485,64.0762 324.5,65.5C 322.614,66.3606 320.78,67.3606 319,68.5C 318.685,69.9078 319.018,71.2411 320,72.5C 353.233,94.7306 379.9,123.064 400,157.5C 411.429,180.358 419.429,204.358 424,229.5C 424.333,242.5 424.667,255.5 425,268.5C 425.403,273.867 426.07,279.201 427,284.5C 427.516,287.034 428.683,289.2 430.5,291C 434.268,293.056 438.268,294.222 442.5,294.5C 440.5,300.833 438.5,307.167 436.5,313.5C 431.39,312.233 427.557,309.233 425,304.5C 423.282,277.182 421.949,249.849 421,222.5C 411.436,170.843 386.602,128.343 346.5,95C 334.109,87.2753 322.275,78.7753 311,69.5C 310.316,68.2161 310.483,67.0495 311.5,66C 313.611,65.1553 315.611,64.322 317.5,63.5 Z"/></g>
<g><path style="opacity:0.909" fill="#414141" d="M 324.5,65.5 C 328.151,66.6589 331.485,68.3256 334.5,70.5C 332.727,71.3143 332.227,72.6476 333,74.5C 348.341,89.1742 363.007,104.508 377,120.5C 410.89,163.165 427.89,211.832 428,266.5C 427.291,275.269 431.124,280.769 439.5,283C 441.134,283.494 442.801,283.66 444.5,283.5C 444.089,287.221 443.422,290.888 442.5,294.5C 438.268,294.222 434.268,293.056 430.5,291C 428.683,289.2 427.516,287.034 427,284.5C 426.07,279.201 425.403,273.867 425,268.5C 424.667,255.5 424.333,242.5 424,229.5C 419.429,204.358 411.429,180.358 400,157.5C 379.9,123.064 353.233,94.7306 320,72.5C 319.018,71.2411 318.685,69.9078 319,68.5C 320.78,67.3606 322.614,66.3606 324.5,65.5 Z"/></g>
<g><path style="opacity:0.802" fill="#010101" d="M 209.5,67.5 C 211.374,71.1143 214.374,73.281 218.5,74C 276.728,70.0607 325.561,89.2274 365,131.5C 400.59,174.834 414.59,224.5 407,280.5C 402.246,305.428 393.913,329.094 382,351.5C 373.333,364.167 364.667,376.833 356,389.5C 353.176,399.185 355.009,407.852 361.5,415.5C 349.652,421.924 337.652,428.091 325.5,434C 299.435,442.165 272.769,444.831 245.5,442C 237.094,440.914 229.094,438.747 221.5,435.5C 222.514,434.235 224.014,433.569 226,433.5C 249.101,436.678 271.267,433.512 292.5,424C 298.899,418.247 300.232,411.414 296.5,403.5C 306.334,397.751 316.001,391.751 325.5,385.5C 332.014,384.576 336.014,380.91 337.5,374.5C 366.604,345.619 383.437,310.619 388,269.5C 392.26,225.54 382.26,185.207 358,148.5C 346.863,136.362 335.363,124.529 323.5,113C 305.098,98.8018 284.432,89.4685 261.5,85C 238.853,82.4491 216.353,83.2825 194,87.5C 184.982,86.2619 184.149,82.7619 191.5,77C 197.084,73.0414 203.084,69.8747 209.5,67.5 Z"/></g>
<g><path style="opacity:0.921" fill="#151515" d="M 147.5,80.5 C 142.167,86.5 136.5,92.1667 130.5,97.5C 127.329,94.1789 123.662,91.3455 119.5,89C 117.833,88.3333 116.167,88.3333 114.5,89C 111.061,91.5269 108.061,94.5269 105.5,98C 96.0378,101.15 88.2045,106.65 82,114.5C 57.9937,147.207 43.9937,183.874 40,224.5C 32.8388,283.711 45.1722,338.378 77,388.5C 126.307,458.834 193.141,485.001 277.5,467C 283.014,466.085 287.347,463.418 290.5,459C 289.748,458.329 289.414,457.496 289.5,456.5C 293.894,456.156 298.228,455.49 302.5,454.5C 301.119,456.274 301.452,457.774 303.5,459C 307.732,461.275 311.732,463.775 315.5,466.5C 315.158,467.338 314.492,467.672 313.5,467.5C 309.753,464.878 305.587,463.545 301,463.5C 286.764,467.883 272.264,471.383 257.5,474C 210.829,479.247 167.829,469.247 128.5,444C 81.8247,408.273 52.658,361.44 41,303.5C 30.2183,244.706 38.2183,188.706 65,135.5C 73.2641,118.573 85.0974,104.739 100.5,94C 107.436,84.1938 116.77,77.8605 128.5,75C 129.878,73.2866 131.545,71.9533 133.5,71C 140.097,71.0651 144.764,74.2318 147.5,80.5 Z"/></g>
<g><path style="opacity:0.878" fill="#474747" d="M 334.5,70.5 C 344.442,74.4697 353.776,79.4697 362.5,85.5C 361.124,87.0816 360.124,88.9149 359.5,91C 360.587,94.6741 362.087,98.1741 364,101.5C 383.247,121.433 398.58,144.099 410,169.5C 417.455,187.863 424.121,206.53 430,225.5C 431.223,229.615 433.223,233.282 436,236.5C 437.215,245.44 437.882,254.44 438,263.5C 439.359,267.619 441.526,268.285 444.5,265.5C 444.5,271.5 444.5,277.5 444.5,283.5C 442.801,283.66 441.134,283.494 439.5,283C 431.124,280.769 427.291,275.269 428,266.5C 427.89,211.832 410.89,163.165 377,120.5C 363.007,104.508 348.341,89.1742 333,74.5C 332.227,72.6476 332.727,71.3143 334.5,70.5 Z"/></g>
<g><path style="opacity:0.818" fill="#4d4d4d" d="M 362.5,85.5 C 371.065,90.7309 378.732,97.0643 385.5,104.5C 381.854,105.462 380.687,107.795 382,111.5C 400.749,139.997 416.082,170.331 428,202.5C 432.569,206.329 437.402,206.995 442.5,204.5C 442.933,207.166 443.433,209.832 444,212.5C 444.5,230.164 444.667,247.83 444.5,265.5C 441.526,268.285 439.359,267.619 438,263.5C 437.882,254.44 437.215,245.44 436,236.5C 433.223,233.282 431.223,229.615 430,225.5C 424.121,206.53 417.455,187.863 410,169.5C 398.58,144.099 383.247,121.433 364,101.5C 362.087,98.1741 360.587,94.6741 359.5,91C 360.124,88.9149 361.124,87.0816 362.5,85.5 Z"/></g>
<g><path style="opacity:0.907" fill="#1b1b1b" d="M 130.5,97.5 C 124.139,104.193 117.806,110.86 111.5,117.5C 107.043,114.523 102.21,112.189 97,110.5C 89.6449,112.84 83.6449,117.174 79,123.5C 46.0594,172.946 33.7261,227.279 42,286.5C 44.8577,312.227 52.0244,336.56 63.5,359.5C 63.9925,361.819 64.9925,363.819 66.5,365.5C 67.4097,368.992 69.0764,371.992 71.5,374.5C 72.4977,378.505 74.4977,381.839 77.5,384.5C 77.8449,387.198 79.1782,389.198 81.5,390.5C 82.5293,393.891 84.5293,396.557 87.5,398.5C 88.0798,400.749 89.4131,402.415 91.5,403.5C 91.5,404.167 91.8333,404.5 92.5,404.5C 100.575,414.079 109.242,423.246 118.5,432C 119.094,432.464 119.761,432.631 120.5,432.5C 122.637,435.973 125.637,438.306 129.5,439.5C 145.48,451.902 163.48,460.402 183.5,465C 206.908,470.66 230.575,471.994 254.5,469C 260.362,468.069 265.362,465.569 269.5,461.5C 268.66,460.265 267.66,459.265 266.5,458.5C 274.294,458.73 281.961,458.063 289.5,456.5C 289.414,457.496 289.748,458.329 290.5,459C 287.347,463.418 283.014,466.085 277.5,467C 193.141,485.001 126.307,458.834 77,388.5C 45.1722,338.378 32.8388,283.711 40,224.5C 43.9937,183.874 57.9937,147.207 82,114.5C 88.2045,106.65 96.0378,101.15 105.5,98C 108.061,94.5269 111.061,91.5269 114.5,89C 116.167,88.3333 117.833,88.3333 119.5,89C 123.662,91.3455 127.329,94.1789 130.5,97.5 Z"/></g>
<g><path style="opacity:0.714" fill="#535353" d="M 385.5,104.5 C 414.277,132.03 433.277,165.363 442.5,204.5C 437.402,206.995 432.569,206.329 428,202.5C 416.082,170.331 400.749,139.997 382,111.5C 380.687,107.795 381.854,105.462 385.5,104.5 Z"/></g>
<g><path style="opacity:1" fill="#242424" d="M 354.5,109.5 C 355.167,109.5 355.833,109.5 356.5,109.5C 360.14,112.473 363.473,115.806 366.5,119.5C 366.5,120.167 366.5,120.833 366.5,121.5C 362.167,117.833 358.167,113.833 354.5,109.5 Z"/></g>
<g><path style="opacity:0.944" fill="#222222" d="M 111.5,117.5 C 109.518,120.81 107.185,123.81 104.5,126.5C 98.3923,121.07 91.7257,120.237 84.5,124C 73.9699,134.877 65.8033,147.377 60,161.5C 50.2373,182.789 44.5707,205.122 43,228.5C 39.6141,263.536 42.9474,297.869 53,331.5C 54.566,336.056 56.3993,340.39 58.5,344.5C 58.4021,346.553 59.0687,348.22 60.5,349.5C 60.7073,352.241 61.7073,354.574 63.5,356.5C 63.5,357.5 63.5,358.5 63.5,359.5C 52.0244,336.56 44.8577,312.227 42,286.5C 33.7261,227.279 46.0594,172.946 79,123.5C 83.6449,117.174 89.6449,112.84 97,110.5C 102.21,112.189 107.043,114.523 111.5,117.5 Z"/></g>
<g><path style="opacity:1" fill="#282828" d="M 366.5,119.5 C 369.167,121.833 371.833,124.167 374.5,126.5C 374.5,127.167 374.5,127.833 374.5,128.5C 372.167,126.5 369.833,124.5 367.5,122.5C 367.5,121.833 367.167,121.5 366.5,121.5C 366.5,120.833 366.5,120.167 366.5,119.5 Z"/></g>
<g><path style="opacity:0.932" fill="#282828" d="M 104.5,126.5 C 102.528,130.15 100.528,133.816 98.5,137.5C 93.9808,134.27 88.9808,132.77 83.5,133C 79.6667,135.5 76.5,138.667 74,142.5C 55.3933,170.655 45.3933,201.655 44,235.5C 40.725,272.97 45.5584,309.304 58.5,344.5C 56.3993,340.39 54.566,336.056 53,331.5C 42.9474,297.869 39.6141,263.536 43,228.5C 44.5707,205.122 50.2373,182.789 60,161.5C 65.8033,147.377 73.9699,134.877 84.5,124C 91.7257,120.237 98.3923,121.07 104.5,126.5 Z"/></g>
<g><path style="opacity:1" fill="#222222" d="M 367.5,122.5 C 369.833,124.5 372.167,126.5 374.5,128.5C 374.5,129.167 374.5,129.833 374.5,130.5C 371.427,128.431 369.094,125.764 367.5,122.5 Z"/></g>
<g><path style="opacity:1" fill="#2e2e2e" d="M 374.5,126.5 C 376.587,127.585 377.92,129.251 378.5,131.5C 377.167,130.5 375.833,129.5 374.5,128.5C 374.5,127.833 374.5,127.167 374.5,126.5 Z"/></g>
<g><path style="opacity:1" fill="#282828" d="M 374.5,128.5 C 375.833,129.5 377.167,130.5 378.5,131.5C 378.5,132.167 378.5,132.833 378.5,133.5C 377.167,132.5 375.833,131.5 374.5,130.5C 374.5,129.833 374.5,129.167 374.5,128.5 Z"/></g>
<g><path style="opacity:1" fill="#222222" d="M 374.5,130.5 C 375.833,131.5 377.167,132.5 378.5,133.5C 378.5,134.167 378.5,134.833 378.5,135.5C 376.413,134.415 375.08,132.749 374.5,130.5 Z"/></g>
<g><path style="opacity:1" fill="#2e2e2e" d="M 378.5,131.5 C 381.471,133.443 383.471,136.109 384.5,139.5C 383.5,138.833 382.5,138.167 381.5,137.5C 381.262,135.596 380.262,134.262 378.5,133.5C 378.5,132.833 378.5,132.167 378.5,131.5 Z"/></g>
<g><path style="opacity:0.917" fill="#2e2e2e" d="M 98.5,137.5 C 95.4845,142.868 92.4845,148.202 89.5,153.5C 79.5837,147.868 72.0837,150.201 67,160.5C 61.221,171.838 56.221,183.505 52,195.5C 37.768,255.154 43.9347,312.487 70.5,367.5C 69.8333,367.167 69.1667,366.833 68.5,366.5C 67.3411,362.849 65.6744,359.515 63.5,356.5C 63.2927,353.759 62.2927,351.426 60.5,349.5C 60.5979,347.447 59.9313,345.78 58.5,344.5C 45.5584,309.304 40.725,272.97 44,235.5C 45.3933,201.655 55.3933,170.655 74,142.5C 76.5,138.667 79.6667,135.5 83.5,133C 88.9808,132.77 93.9808,134.27 98.5,137.5 Z"/></g>
<g><path style="opacity:1" fill="#282828" d="M 378.5,133.5 C 380.262,134.262 381.262,135.596 381.5,137.5C 380.5,136.833 379.5,136.167 378.5,135.5C 378.5,134.833 378.5,134.167 378.5,133.5 Z"/></g>
<g><path style="opacity:1" fill="#222222" d="M 378.5,135.5 C 379.5,136.167 380.5,136.833 381.5,137.5C 382.167,139.167 382.833,140.833 383.5,142.5C 381.1,140.704 379.433,138.37 378.5,135.5 Z"/></g>
<g><path style="opacity:1" fill="#282828" d="M 381.5,137.5 C 382.5,138.167 383.5,138.833 384.5,139.5C 384.427,141.027 385.094,142.027 386.5,142.5C 386.427,144.027 387.094,145.027 388.5,145.5C 388.833,146.833 389.167,148.167 389.5,149.5C 388.833,149.167 388.167,148.833 387.5,148.5C 387.573,146.973 386.906,145.973 385.5,145.5C 385.573,143.973 384.906,142.973 383.5,142.5C 382.833,140.833 382.167,139.167 381.5,137.5 Z"/></g>
<g><path style="opacity:1" fill="#2e2e2e" d="M 384.5,139.5 C 385.906,139.973 386.573,140.973 386.5,142.5C 385.094,142.027 384.427,141.027 384.5,139.5 Z"/></g>
<g><path style="opacity:1" fill="#222222" d="M 383.5,142.5 C 384.906,142.973 385.573,143.973 385.5,145.5C 384.094,145.027 383.427,144.027 383.5,142.5 Z"/></g>
<g><path style="opacity:1" fill="#2e2e2e" d="M 386.5,142.5 C 387.906,142.973 388.573,143.973 388.5,145.5C 387.094,145.027 386.427,144.027 386.5,142.5 Z"/></g>
<g><path style="opacity:1" fill="#222222" d="M 385.5,145.5 C 386.906,145.973 387.573,146.973 387.5,148.5C 386.094,148.027 385.427,147.027 385.5,145.5 Z"/></g>
<g><path style="opacity:1" fill="#2e2e2e" d="M 388.5,145.5 C 391.502,148.161 393.502,151.495 394.5,155.5C 393.833,155.167 393.167,154.833 392.5,154.5C 392.25,152.326 391.25,150.659 389.5,149.5C 389.167,148.167 388.833,146.833 388.5,145.5 Z"/></g>
<g><path style="opacity:1" fill="#222222" d="M 387.5,148.5 C 388.167,148.833 388.833,149.167 389.5,149.5C 389.833,150.833 390.167,152.167 390.5,153.5C 388.75,152.341 387.75,150.674 387.5,148.5 Z"/></g>
<g><path style="opacity:1" fill="#282828" d="M 389.5,149.5 C 391.25,150.659 392.25,152.326 392.5,154.5C 391.833,154.167 391.167,153.833 390.5,153.5C 390.167,152.167 389.833,150.833 389.5,149.5 Z"/></g>
<g><path style="opacity:0.904" fill="#353535" d="M 89.5,153.5 C 86.3031,161.757 83.3031,170.09 80.5,178.5C 72.6926,174.675 66.1926,176.342 61,183.5C 53.0778,198.854 48.7444,215.187 48,232.5C 40.8344,294.63 56.1677,350.297 94,399.5C 103.167,410 113,419.833 123.5,429C 151.547,451.243 183.214,460.91 218.5,458C 216.46,455.664 214.127,453.831 211.5,452.5C 216.499,453.833 221.499,455.166 226.5,456.5C 227.476,457.815 228.476,459.148 229.5,460.5C 224.872,462.999 219.872,464.332 214.5,464.5C 181.297,462.325 151.297,451.658 124.5,432.5C 122.431,429.427 119.764,427.094 116.5,425.5C 116.5,424.833 116.167,424.5 115.5,424.5C 110.5,418.833 105.167,413.5 99.5,408.5C 98.8333,408.5 98.5,408.167 98.5,407.5C 96.9059,404.236 94.5725,401.569 91.5,399.5C 90.9202,397.251 89.5869,395.585 87.5,394.5C 87.2624,392.596 86.2624,391.262 84.5,390.5C 84.573,388.973 83.9063,387.973 82.5,387.5C 82.573,385.973 81.9063,384.973 80.5,384.5C 80.573,382.973 79.9063,381.973 78.5,381.5C 78.2503,379.326 77.2503,377.659 75.5,376.5C 74.5903,373.008 72.9236,370.008 70.5,367.5C 43.9347,312.487 37.768,255.154 52,195.5C 56.221,183.505 61.221,171.838 67,160.5C 72.0837,150.201 79.5837,147.868 89.5,153.5 Z"/></g>
<g><path style="opacity:1" fill="#0f0f0f" d="M 159.5,150.5 C 164.759,157.263 170.593,163.597 177,169.5C 178.986,171.806 180.153,174.472 180.5,177.5C 177.097,193.98 175.764,210.647 176.5,227.5C 175.401,243.668 177.068,259.501 181.5,275C 178.966,282.637 177.466,290.471 177,298.5C 176.333,313.5 176.333,328.5 177,343.5C 177.243,348.806 178.576,353.806 181,358.5C 186.376,364.372 191.543,370.372 196.5,376.5C 195.833,376.5 195.167,376.5 194.5,376.5C 189.504,371.336 184.671,366.003 180,360.5C 176.924,355.605 175.257,350.272 175,344.5C 174.333,328.5 174.333,312.5 175,296.5C 175.526,289.062 176.693,281.729 178.5,274.5C 175.069,258.532 173.736,242.366 174.5,226C 174.258,209.068 175.091,192.234 177,175.5C 175.392,172.228 173.392,169.228 171,166.5C 166.305,162.97 162.138,158.97 158.5,154.5C 158.232,152.901 158.566,151.568 159.5,150.5 Z"/></g>
<g><path style="opacity:1" fill="#151515" d="M 159.5,150.5 C 160.5,150.5 161.5,150.5 162.5,150.5C 168.13,156.631 173.964,162.631 180,168.5C 181.84,170.681 183.007,173.181 183.5,176C 181.763,182.114 180.263,188.281 179,194.5C 178.333,215.833 178.333,237.167 179,258.5C 180.407,264.216 181.907,269.883 183.5,275.5C 181.7,281.404 180.2,287.404 179,293.5C 178.333,311.167 178.333,328.833 179,346.5C 179.632,352.065 181.632,357.065 185,361.5C 190.037,366.369 194.87,371.369 199.5,376.5C 198.5,376.5 197.5,376.5 196.5,376.5C 191.543,370.372 186.376,364.372 181,358.5C 178.576,353.806 177.243,348.806 177,343.5C 176.333,328.5 176.333,313.5 177,298.5C 177.466,290.471 178.966,282.637 181.5,275C 177.068,259.501 175.401,243.668 176.5,227.5C 175.764,210.647 177.097,193.98 180.5,177.5C 180.153,174.472 178.986,171.806 177,169.5C 170.593,163.597 164.759,157.263 159.5,150.5 Z"/></g>
<g><path style="opacity:0.997" fill="#1b1b1b" d="M 162.5,150.5 C 164.167,150.5 165.833,150.5 167.5,150.5C 168.906,153.414 170.906,155.914 173.5,158C 177.548,161.716 181.882,165.05 186.5,168C 193.855,166.461 201.355,165.294 209,164.5C 231.845,165.381 251.345,173.714 267.5,189.5C 268.34,191.853 269.674,193.853 271.5,195.5C 273.892,200.959 275.725,206.626 277,212.5C 278.223,224.852 278.89,237.186 279,249.5C 280.898,253.998 283.731,257.664 287.5,260.5C 286.5,262.167 285.167,263.5 283.5,264.5C 278.821,260.981 275.988,256.314 275,250.5C 283.85,198.524 262.017,170.858 209.5,167.5C 205.78,168.12 202.114,168.953 198.5,170C 193.527,173.497 193.361,177.33 198,181.5C 201.003,184.067 203.836,186.734 206.5,189.5C 205.5,189.5 204.5,189.5 203.5,189.5C 199.689,185.031 195.023,181.697 189.5,179.5C 187.742,180.128 186.242,181.128 185,182.5C 182.867,186.232 181.534,190.232 181,194.5C 180.333,216.167 180.333,237.833 181,259.5C 182.412,265.657 184.912,271.324 188.5,276.5C 184.372,281.425 181.872,287.092 181,293.5C 180.333,311.5 180.333,329.5 181,347.5C 181.697,351.928 183.363,355.928 186,359.5C 190.728,365.73 196.228,371.063 202.5,375.5C 202.833,375.5 203.167,375.5 203.5,375.5C 202.432,376.434 201.099,376.768 199.5,376.5C 194.87,371.369 190.037,366.369 185,361.5C 181.632,357.065 179.632,352.065 179,346.5C 178.333,328.833 178.333,311.167 179,293.5C 180.2,287.404 181.7,281.404 183.5,275.5C 181.907,269.883 180.407,264.216 179,258.5C 178.333,237.167 178.333,215.833 179,194.5C 180.263,188.281 181.763,182.114 183.5,176C 183.007,173.181 181.84,170.681 180,168.5C 173.964,162.631 168.13,156.631 162.5,150.5 Z M 203.5,189.5 C 204.5,189.5 205.5,189.5 206.5,189.5C 207.167,189.5 207.833,189.5 208.5,189.5C 209.5,189.5 210.5,189.5 211.5,189.5C 213.216,189.629 214.883,189.962 216.5,190.5C 229.306,189.487 240.473,193.153 250,201.5C 257.591,213.748 257.924,226.081 251,238.5C 248.271,241.399 245.438,244.066 242.5,246.5C 240.716,246.893 239.05,247.559 237.5,248.5C 236.005,248.989 234.671,249.655 233.5,250.5C 231.901,250.232 230.568,250.566 229.5,251.5C 227.833,251.5 226.167,251.5 224.5,251.5C 222.565,252.15 220.565,252.483 218.5,252.5C 216.833,252.5 215.167,252.5 213.5,252.5C 212.5,252.5 211.5,252.5 210.5,252.5C 209.167,252.5 207.833,252.5 206.5,252.5C 205.5,252.5 204.5,252.5 203.5,252.5C 203.5,250.5 203.5,248.5 203.5,246.5C 203.5,242.833 203.5,239.167 203.5,235.5C 203.5,227.167 203.5,218.833 203.5,210.5C 203.5,207.833 203.5,205.167 203.5,202.5C 203.5,201.167 203.5,199.833 203.5,198.5C 203.5,197.833 203.5,197.167 203.5,196.5C 203.5,195.5 203.5,194.5 203.5,193.5C 203.5,192.833 203.5,192.167 203.5,191.5C 203.5,191.167 203.5,190.833 203.5,190.5C 203.5,190.167 203.5,189.833 203.5,189.5 Z"/></g>
<g><path style="opacity:1" fill="#222222" d="M 167.5,150.5 C 169.167,150.5 170.833,150.5 172.5,150.5C 176.176,155.509 180.843,159.343 186.5,162C 193.751,161.816 200.918,160.982 208,159.5C 226.072,162.856 242.905,169.356 258.5,179C 262.107,182.098 265.107,185.598 267.5,189.5C 251.345,173.714 231.845,165.381 209,164.5C 201.355,165.294 193.855,166.461 186.5,168C 181.882,165.05 177.548,161.716 173.5,158C 170.906,155.914 168.906,153.414 167.5,150.5 Z"/></g>
<g><path style="opacity:1" fill="#282828" d="M 172.5,150.5 C 187.5,150.5 202.5,150.5 217.5,150.5C 218.07,154.912 220.403,158.078 224.5,160C 241.152,165.405 255.652,174.238 268,186.5C 269.094,188.078 269.928,189.745 270.5,191.5C 269.5,190.833 268.5,190.167 267.5,189.5C 265.107,185.598 262.107,182.098 258.5,179C 242.905,169.356 226.072,162.856 208,159.5C 200.918,160.982 193.751,161.816 186.5,162C 180.843,159.343 176.176,155.509 172.5,150.5 Z"/></g>
<g><path style="opacity:0.976" fill="#2e2e2e" d="M 217.5,150.5 C 222.363,150.181 227.03,150.514 231.5,151.5C 230.822,155.273 232.156,158.106 235.5,160C 249.404,166.903 261.238,176.403 271,188.5C 274.803,194.439 277.803,200.773 280,207.5C 281.667,217.167 283.333,226.833 285,236.5C 286.684,242.016 290.184,245.682 295.5,247.5C 295.34,249.153 294.674,250.486 293.5,251.5C 285.788,248.627 281.954,242.96 282,234.5C 281.329,226.122 280.329,217.789 279,209.5C 278.356,205.381 276.856,201.715 274.5,198.5C 273.662,198.158 273.328,197.492 273.5,196.5C 273.25,194.326 272.25,192.659 270.5,191.5C 269.928,189.745 269.094,188.078 268,186.5C 255.652,174.238 241.152,165.405 224.5,160C 220.403,158.078 218.07,154.912 217.5,150.5 Z"/></g>
<g><path style="opacity:0.973" fill="#353535" d="M 231.5,151.5 C 236.1,151.28 240.433,151.946 244.5,153.5C 244.062,156.893 244.895,159.893 247,162.5C 271.265,179.467 284.598,202.8 287,232.5C 289.052,237.264 292.552,240.264 297.5,241.5C 297.405,243.786 296.738,245.786 295.5,247.5C 290.184,245.682 286.684,242.016 285,236.5C 283.333,226.833 281.667,217.167 280,207.5C 277.803,200.773 274.803,194.439 271,188.5C 261.238,176.403 249.404,166.903 235.5,160C 232.156,158.106 230.822,155.273 231.5,151.5 Z"/></g>
<g><path style="opacity:0.971" fill="#3b3b3b" d="M 244.5,153.5 C 248.479,153.742 252.146,154.742 255.5,156.5C 254.104,160.036 254.604,163.37 257,166.5C 266.967,176.43 274.967,187.763 281,200.5C 284.129,210.49 287.129,220.49 290,230.5C 292.552,233.359 295.719,235.026 299.5,235.5C 299.405,237.786 298.738,239.786 297.5,241.5C 292.552,240.264 289.052,237.264 287,232.5C 284.598,202.8 271.265,179.467 247,162.5C 244.895,159.893 244.062,156.893 244.5,153.5 Z"/></g>
<g><path style="opacity:1" fill="#222222" d="M 390.5,153.5 C 391.167,153.833 391.833,154.167 392.5,154.5C 393.5,157.167 394.5,159.833 395.5,162.5C 393.076,159.992 391.41,156.992 390.5,153.5 Z"/></g>
<g><path style="opacity:1" fill="#090909" d="M 158.5,154.5 C 162.138,158.97 166.305,162.97 171,166.5C 173.392,169.228 175.392,172.228 177,175.5C 175.091,192.234 174.258,209.068 174.5,226C 173.736,242.366 175.069,258.532 178.5,274.5C 176.693,281.729 175.526,289.062 175,296.5C 174.333,312.5 174.333,328.5 175,344.5C 175.257,350.272 176.924,355.605 180,360.5C 184.671,366.003 189.504,371.336 194.5,376.5C 193.167,376.5 191.833,376.5 190.5,376.5C 186.17,372.002 182.003,367.335 178,362.5C 175.363,358.928 173.697,354.928 173,350.5C 172.333,329.5 172.333,308.5 173,287.5C 173.962,283.023 174.795,278.523 175.5,274C 174.795,269.477 173.962,264.977 173,260.5C 172.227,234.324 172.394,208.157 173.5,182C 173.776,178.214 172.943,174.714 171,171.5C 166.964,167.296 162.798,163.296 158.5,159.5C 158.5,157.833 158.5,156.167 158.5,154.5 Z"/></g>
<g><path style="opacity:1" fill="#282828" d="M 392.5,154.5 C 393.167,154.833 393.833,155.167 394.5,155.5C 398.392,163.281 401.725,171.281 404.5,179.5C 403.5,178.167 402.5,176.833 401.5,175.5C 400.624,171.418 398.957,167.751 396.5,164.5C 395.662,164.158 395.328,163.492 395.5,162.5C 394.5,159.833 393.5,157.167 392.5,154.5 Z"/></g>
<g><path style="opacity:0.91" fill="#2e2e2e" d="M 394.5,155.5 C 397.812,160.113 400.646,165.113 403,170.5C 410.142,186.927 415.476,203.927 419,221.5C 420.574,246.14 420.907,270.807 420,295.5C 418.657,305.201 417.157,314.867 415.5,324.5C 415.401,332.073 419.067,336.739 426.5,338.5C 424.926,343.32 422.593,347.653 419.5,351.5C 412.61,349.94 408.944,345.607 408.5,338.5C 411.349,323.104 414.516,307.77 418,292.5C 418.93,267.801 418.597,243.135 417,218.5C 414.902,207.715 411.735,197.382 407.5,187.5C 407.267,184.458 406.267,181.792 404.5,179.5C 401.725,171.281 398.392,163.281 394.5,155.5 Z"/></g>
<g><path style="opacity:0.973" fill="#414141" d="M 255.5,156.5 C 258.715,156.905 261.715,157.905 264.5,159.5C 263.737,162.141 263.57,164.808 264,167.5C 271.091,178.01 277.425,189.01 283,200.5C 286.066,208.363 288.732,216.363 291,224.5C 293.541,227.354 296.708,229.021 300.5,229.5C 300.675,231.621 300.341,233.621 299.5,235.5C 295.719,235.026 292.552,233.359 290,230.5C 287.129,220.49 284.129,210.49 281,200.5C 274.967,187.763 266.967,176.43 257,166.5C 254.604,163.37 254.104,160.036 255.5,156.5 Z"/></g>
<g><path style="opacity:1" fill="#010101" d="M 158.5,159.5 C 162.798,163.296 166.964,167.296 171,171.5C 172.943,174.714 173.776,178.214 173.5,182C 172.394,208.157 172.227,234.324 173,260.5C 173.962,264.977 174.795,269.477 175.5,274C 174.795,278.523 173.962,283.023 173,287.5C 172.333,308.5 172.333,329.5 173,350.5C 173.697,354.928 175.363,358.928 178,362.5C 182.003,367.335 186.17,372.002 190.5,376.5C 179.833,376.5 169.167,376.5 158.5,376.5C 158.5,304.167 158.5,231.833 158.5,159.5 Z"/></g>
<g><path style="opacity:0.963" fill="#474747" d="M 264.5,159.5 C 267.696,160.929 270.696,162.595 273.5,164.5C 270.985,169.174 271.152,173.841 274,178.5C 280.527,190.221 286.527,202.221 292,214.5C 294.552,217.359 297.719,219.026 301.5,219.5C 301.747,222.939 301.414,226.272 300.5,229.5C 296.708,229.021 293.541,227.354 291,224.5C 288.732,216.363 286.066,208.363 283,200.5C 277.425,189.01 271.091,178.01 264,167.5C 263.57,164.808 263.737,162.141 264.5,159.5 Z"/></g>
<g><path style="opacity:0.954" fill="#4d4d4d" d="M 273.5,164.5 C 277.758,166.793 281.424,169.793 284.5,173.5C 281.764,175.858 280.93,178.858 282,182.5C 284.347,189.366 287.847,195.532 292.5,201C 294.81,201.497 297.143,201.663 299.5,201.5C 300.82,207.41 301.487,213.41 301.5,219.5C 297.719,219.026 294.552,217.359 292,214.5C 286.527,202.221 280.527,190.221 274,178.5C 271.152,173.841 270.985,169.174 273.5,164.5 Z"/></g>
<g><path style="opacity:1" fill="#222222" d="M 396.5,164.5 C 398.957,167.751 400.624,171.418 401.5,175.5C 399.043,172.249 397.376,168.582 396.5,164.5 Z"/></g>
<g><path style="opacity:0.993" fill="#151515" d="M 283.5,264.5 C 282.5,266.167 281.167,267.5 279.5,268.5C 275.48,265.137 272.98,260.804 272,255.5C 273.326,242.884 273.993,230.217 274,217.5C 270.024,192.523 255.524,177.69 230.5,173C 220.873,170.357 211.206,170.024 201.5,172C 197.859,174.845 197.692,178.012 201,181.5C 203.705,184.036 206.205,186.703 208.5,189.5C 207.833,189.5 207.167,189.5 206.5,189.5C 203.836,186.734 201.003,184.067 198,181.5C 193.361,177.33 193.527,173.497 198.5,170C 202.114,168.953 205.78,168.12 209.5,167.5C 262.017,170.858 283.85,198.524 275,250.5C 275.988,256.314 278.821,260.981 283.5,264.5 Z"/></g>
<g><path style="opacity:0.99" fill="#0f0f0f" d="M 279.5,268.5 C 278.421,270.543 276.754,271.876 274.5,272.5C 270.811,267.445 268.478,261.778 267.5,255.5C 269.942,244.957 271.609,234.29 272.5,223.5C 271.952,196.905 258.618,181.072 232.5,176C 223.943,173.83 215.277,173.163 206.5,174C 204.697,174.637 203.364,175.803 202.5,177.5C 204.755,182.084 207.755,186.084 211.5,189.5C 210.5,189.5 209.5,189.5 208.5,189.5C 206.205,186.703 203.705,184.036 201,181.5C 197.692,178.012 197.859,174.845 201.5,172C 211.206,170.024 220.873,170.357 230.5,173C 255.524,177.69 270.024,192.523 274,217.5C 273.993,230.217 273.326,242.884 272,255.5C 272.98,260.804 275.48,265.137 279.5,268.5 Z"/></g>
<g><path style="opacity:0.984" fill="#090909" d="M 274.5,272.5 C 272.371,274.95 269.704,276.617 266.5,277.5C 256.837,276.255 249.337,271.588 244,263.5C 241.534,258.594 239.368,253.594 237.5,248.5C 239.05,247.559 240.716,246.893 242.5,246.5C 244.688,257.057 250.022,265.557 258.5,272C 260.81,272.497 263.143,272.663 265.5,272.5C 264.248,267.907 263.248,263.241 262.5,258.5C 264.024,251.095 265.857,243.761 268,236.5C 274.452,202.561 260.618,183.061 226.5,178C 222.822,177.582 219.155,177.082 215.5,176.5C 213.161,176.669 210.994,177.336 209,178.5C 208.48,180.289 208.813,181.956 210,183.5C 212.372,185.703 214.539,188.037 216.5,190.5C 214.883,189.962 213.216,189.629 211.5,189.5C 207.755,186.084 204.755,182.084 202.5,177.5C 203.364,175.803 204.697,174.637 206.5,174C 215.277,173.163 223.943,173.83 232.5,176C 258.618,181.072 271.952,196.905 272.5,223.5C 271.609,234.29 269.942,244.957 267.5,255.5C 268.478,261.778 270.811,267.445 274.5,272.5 Z"/></g>
<g><path style="opacity:0.923" fill="#525252" d="M 284.5,173.5 C 292.09,181.34 297.09,190.673 299.5,201.5C 297.143,201.663 294.81,201.497 292.5,201C 287.847,195.532 284.347,189.366 282,182.5C 280.93,178.858 281.764,175.858 284.5,173.5 Z"/></g>
<g><path style="opacity:0.915" fill="#222222" d="M 401.5,175.5 C 402.5,176.833 403.5,178.167 404.5,179.5C 404.733,182.542 405.733,185.208 407.5,187.5C 412.241,201.13 415.407,215.13 417,229.5C 417.667,247.5 417.667,265.5 417,283.5C 416.517,289.914 415.517,296.248 414,302.5C 409.302,317.459 405.469,332.626 402.5,348C 402.329,351.129 403.162,353.963 405,356.5C 407.688,358.364 410.188,360.364 412.5,362.5C 410.565,366.707 407.898,370.373 404.5,373.5C 401.215,372.05 398.715,369.717 397,366.5C 396.333,361.833 396.333,357.167 397,352.5C 402.332,334.505 407.665,316.505 413,298.5C 414.864,287.744 416.031,276.911 416.5,266C 415.708,251.521 415.208,237.021 415,222.5C 412.011,206.37 407.511,190.704 401.5,175.5 Z"/></g>
<g><path style="opacity:0.886" fill="#3b3b3b" d="M 80.5,178.5 C 78.2987,184.437 76.2987,190.437 74.5,196.5C 70.9779,195.996 67.4779,195.329 64,194.5C 62.018,194.99 60.3513,195.99 59,197.5C 37.8831,268.13 48.5497,333.463 91,393.5C 102.833,406.667 115.333,419.167 128.5,431C 149.254,446.473 172.587,454.14 198.5,454C 198.833,453.667 199.167,453.333 199.5,453C 196.961,450.63 194.628,448.13 192.5,445.5C 198.842,448.056 205.176,450.389 211.5,452.5C 214.127,453.831 216.46,455.664 218.5,458C 183.214,460.91 151.547,451.243 123.5,429C 113,419.833 103.167,410 94,399.5C 56.1677,350.297 40.8344,294.63 48,232.5C 48.7444,215.187 53.0778,198.854 61,183.5C 66.1926,176.342 72.6926,174.675 80.5,178.5 Z"/></g>
<g><path style="opacity:0.969" fill="#010101" d="M 242.5,246.5 C 245.438,244.066 248.271,241.399 251,238.5C 257.924,226.081 257.591,213.748 250,201.5C 240.473,193.153 229.306,189.487 216.5,190.5C 214.539,188.037 212.372,185.703 210,183.5C 208.813,181.956 208.48,180.289 209,178.5C 210.994,177.336 213.161,176.669 215.5,176.5C 219.155,177.082 222.822,177.582 226.5,178C 260.618,183.061 274.452,202.561 268,236.5C 265.857,243.761 264.024,251.095 262.5,258.5C 263.248,263.241 264.248,267.907 265.5,272.5C 263.143,272.663 260.81,272.497 258.5,272C 250.022,265.557 244.688,257.057 242.5,246.5 Z"/></g>
<g><path style="opacity:0.995" fill="#222222" d="M 203.5,189.5 C 203.5,189.833 203.5,190.167 203.5,190.5C 199.887,186.899 195.553,184.566 190.5,183.5C 186.173,184.33 183.673,186.997 183,191.5C 181.926,203.801 181.426,216.135 181.5,228.5C 181.391,239.88 181.891,251.213 183,262.5C 184.74,269.931 189.24,272.765 196.5,271C 202.17,268.167 207.503,264.834 212.5,261C 215.381,258.721 217.381,255.888 218.5,252.5C 220.565,252.483 222.565,252.15 224.5,251.5C 224.893,254.93 224.227,258.096 222.5,261C 212.079,264.127 202.579,268.96 194,275.5C 193.582,277.788 194.249,279.788 196,281.5C 198.396,284.067 200.896,286.4 203.5,288.5C 203.5,288.833 203.5,289.167 203.5,289.5C 190.396,277.291 183.23,280.291 182,298.5C 181.333,313.5 181.333,328.5 182,343.5C 182.297,346.914 182.964,350.247 184,353.5C 189.25,361.585 195.416,368.918 202.5,375.5C 196.228,371.063 190.728,365.73 186,359.5C 183.363,355.928 181.697,351.928 181,347.5C 180.333,329.5 180.333,311.5 181,293.5C 181.872,287.092 184.372,281.425 188.5,276.5C 184.912,271.324 182.412,265.657 181,259.5C 180.333,237.833 180.333,216.167 181,194.5C 181.534,190.232 182.867,186.232 185,182.5C 186.242,181.128 187.742,180.128 189.5,179.5C 195.023,181.697 199.689,185.031 203.5,189.5 Z"/></g>
<g><path style="opacity:1" fill="#282828" d="M 404.5,179.5 C 406.267,181.792 407.267,184.458 407.5,187.5C 405.733,185.208 404.733,182.542 404.5,179.5 Z"/></g>
<g><path style="opacity:0.992" fill="#282828" d="M 203.5,190.5 C 203.5,190.833 203.5,191.167 203.5,191.5C 199.756,189.114 195.756,187.114 191.5,185.5C 188.312,185.856 186.145,187.523 185,190.5C 183.869,211.159 183.035,231.826 182.5,252.5C 182.606,258.994 184.939,264.494 189.5,269C 194.28,270.03 198.613,269.03 202.5,266C 207.16,262.187 210.827,257.687 213.5,252.5C 215.167,252.5 216.833,252.5 218.5,252.5C 217.381,255.888 215.381,258.721 212.5,261C 207.503,264.834 202.17,268.167 196.5,271C 189.24,272.765 184.74,269.931 183,262.5C 181.891,251.213 181.391,239.88 181.5,228.5C 181.426,216.135 181.926,203.801 183,191.5C 183.673,186.997 186.173,184.33 190.5,183.5C 195.553,184.566 199.887,186.899 203.5,190.5 Z"/></g>
<g><path style="opacity:0.993" fill="#2e2e2e" d="M 203.5,191.5 C 203.5,192.167 203.5,192.833 203.5,193.5C 200.253,191.045 196.586,189.379 192.5,188.5C 189.349,188.811 187.182,190.477 186,193.5C 184.414,215.134 184.081,236.8 185,258.5C 185.777,265.622 189.61,268.456 196.5,267C 202.715,263.619 207.382,258.786 210.5,252.5C 211.5,252.5 212.5,252.5 213.5,252.5C 210.827,257.687 207.16,262.187 202.5,266C 198.613,269.03 194.28,270.03 189.5,269C 184.939,264.494 182.606,258.994 182.5,252.5C 183.035,231.826 183.869,211.159 185,190.5C 186.145,187.523 188.312,185.856 191.5,185.5C 195.756,187.114 199.756,189.114 203.5,191.5 Z"/></g>
<g><path style="opacity:0.907" fill="#282828" d="M 407.5,187.5 C 411.735,197.382 414.902,207.715 417,218.5C 418.597,243.135 418.93,267.801 418,292.5C 414.516,307.77 411.349,323.104 408.5,338.5C 408.944,345.607 412.61,349.94 419.5,351.5C 417.913,355.683 415.579,359.35 412.5,362.5C 410.188,360.364 407.688,358.364 405,356.5C 403.162,353.963 402.329,351.129 402.5,348C 405.469,332.626 409.302,317.459 414,302.5C 415.517,296.248 416.517,289.914 417,283.5C 417.667,265.5 417.667,247.5 417,229.5C 415.407,215.13 412.241,201.13 407.5,187.5 Z"/></g>
<g><path style="opacity:0.992" fill="#343434" d="M 203.5,193.5 C 203.5,194.5 203.5,195.5 203.5,196.5C 200.446,194.129 197.113,192.129 193.5,190.5C 190.867,191.301 189.033,192.967 188,195.5C 186.416,216.8 186.082,238.134 187,259.5C 191.391,267.171 196.391,267.504 202,260.5C 203.765,257.968 205.265,255.301 206.5,252.5C 207.833,252.5 209.167,252.5 210.5,252.5C 207.382,258.786 202.715,263.619 196.5,267C 189.61,268.456 185.777,265.622 185,258.5C 184.081,236.8 184.414,215.134 186,193.5C 187.182,190.477 189.349,188.811 192.5,188.5C 196.586,189.379 200.253,191.045 203.5,193.5 Z"/></g>
<g><path style="opacity:1" fill="#222222" d="M 267.5,189.5 C 268.5,190.167 269.5,190.833 270.5,191.5C 270.833,192.833 271.167,194.167 271.5,195.5C 269.674,193.853 268.34,191.853 267.5,189.5 Z"/></g>
<g><path style="opacity:0.994" fill="#3b3b3b" d="M 203.5,196.5 C 203.5,197.167 203.5,197.833 203.5,198.5C 200.582,196.456 197.415,194.79 194,193.5C 192.013,194.154 190.68,195.487 190,197.5C 189.365,217.838 189.032,238.171 189,258.5C 191.172,262.738 194.338,263.572 198.5,261C 200.556,258.386 202.223,255.553 203.5,252.5C 204.5,252.5 205.5,252.5 206.5,252.5C 205.265,255.301 203.765,257.968 202,260.5C 196.391,267.504 191.391,267.171 187,259.5C 186.082,238.134 186.416,216.8 188,195.5C 189.033,192.967 190.867,191.301 193.5,190.5C 197.113,192.129 200.446,194.129 203.5,196.5 Z"/></g>
<g><path style="opacity:1" fill="#282828" d="M 270.5,191.5 C 272.25,192.659 273.25,194.326 273.5,196.5C 272.833,196.167 272.167,195.833 271.5,195.5C 271.167,194.167 270.833,192.833 270.5,191.5 Z"/></g>
<g><path style="opacity:1" fill="#414141" d="M 203.5,198.5 C 203.5,199.833 203.5,201.167 203.5,202.5C 201.198,200.344 198.531,198.677 195.5,197.5C 193.364,198.472 192.197,200.139 192,202.5C 191.783,219.349 191.283,236.182 190.5,253C 190.707,258.846 193.207,260.346 198,257.5C 199.337,253.493 201.17,249.827 203.5,246.5C 203.5,248.5 203.5,250.5 203.5,252.5C 202.223,255.553 200.556,258.386 198.5,261C 194.338,263.572 191.172,262.738 189,258.5C 189.032,238.171 189.365,217.838 190,197.5C 190.68,195.487 192.013,194.154 194,193.5C 197.415,194.79 200.582,196.456 203.5,198.5 Z"/></g>
<g><path style="opacity:0.907" fill="#414141" d="M 74.5,196.5 C 73.1851,201.744 72.5185,207.077 72.5,212.5C 65.5555,210.211 60.3888,212.545 57,219.5C 42.3001,283.683 54.6334,342.016 94,394.5C 104.167,406 115,416.833 126.5,427C 141.597,439.477 158.931,445.81 178.5,446C 179.768,443.837 179.768,441.67 178.5,439.5C 183.254,441.306 187.92,443.306 192.5,445.5C 194.628,448.13 196.961,450.63 199.5,453C 199.167,453.333 198.833,453.667 198.5,454C 172.587,454.14 149.254,446.473 128.5,431C 115.333,419.167 102.833,406.667 91,393.5C 48.5497,333.463 37.8831,268.13 59,197.5C 60.3513,195.99 62.018,194.99 64,194.5C 67.4779,195.329 70.9779,195.996 74.5,196.5 Z"/></g>
<g><path style="opacity:0.978" fill="#222222" d="M 271.5,195.5 C 272.167,195.833 272.833,196.167 273.5,196.5C 273.328,197.492 273.662,198.158 274.5,198.5C 276.779,204.618 278.279,210.951 279,217.5C 279.282,226.531 279.949,235.531 281,244.5C 282.892,249.553 286.058,253.553 290.5,256.5C 289.488,257.872 288.488,259.205 287.5,260.5C 283.731,257.664 280.898,253.998 279,249.5C 278.89,237.186 278.223,224.852 277,212.5C 275.725,206.626 273.892,200.959 271.5,195.5 Z"/></g>
<g><path style="opacity:1" fill="#484848" d="M 203.5,202.5 C 203.5,205.167 203.5,207.833 203.5,210.5C 202.312,209.316 201.145,209.316 200,210.5C 199.333,218.167 199.333,225.833 200,233.5C 200.816,234.823 201.983,235.489 203.5,235.5C 203.5,239.167 203.5,242.833 203.5,246.5C 201.17,249.827 199.337,253.493 198,257.5C 193.207,260.346 190.707,258.846 190.5,253C 191.283,236.182 191.783,219.349 192,202.5C 192.197,200.139 193.364,198.472 195.5,197.5C 198.531,198.677 201.198,200.344 203.5,202.5 Z"/></g>
<g><path style="opacity:0.975" fill="#282828" d="M 274.5,198.5 C 276.856,201.715 278.356,205.381 279,209.5C 280.329,217.789 281.329,226.122 282,234.5C 281.954,242.96 285.788,248.627 293.5,251.5C 292.737,253.368 291.737,255.035 290.5,256.5C 286.058,253.553 282.892,249.553 281,244.5C 279.949,235.531 279.282,226.531 279,217.5C 278.279,210.951 276.779,204.618 274.5,198.5 Z"/></g>
<g><path style="opacity:1" fill="#4b4b4b" d="M 203.5,210.5 C 203.5,218.833 203.5,227.167 203.5,235.5C 201.983,235.489 200.816,234.823 200,233.5C 199.333,225.833 199.333,218.167 200,210.5C 201.145,209.316 202.312,209.316 203.5,210.5 Z"/></g>
<g><path style="opacity:0.885" fill="#474747" d="M 72.5,212.5 C 70.8223,222.713 70.1556,233.046 70.5,243.5C 68.4876,238.898 65.9876,238.565 63,242.5C 62.6086,248.863 61.942,255.197 61,261.5C 56.1809,269.116 54.3476,277.449 55.5,286.5C 58.0115,324.54 70.5115,358.873 93,389.5C 104.5,402.333 116.667,414.5 129.5,426C 136.287,430.976 143.787,434.476 152,436.5C 156.866,436.457 159.699,434.123 160.5,429.5C 166.535,432.849 172.535,436.182 178.5,439.5C 179.768,441.67 179.768,443.837 178.5,446C 158.931,445.81 141.597,439.477 126.5,427C 115,416.833 104.167,406 94,394.5C 54.6334,342.016 42.3001,283.683 57,219.5C 60.3888,212.545 65.5555,210.211 72.5,212.5 Z"/></g>
<g><path style="opacity:0.85" fill="#4d4d4d" d="M 70.5,243.5 C 70.3335,255.505 70.5001,267.505 71,279.5C 71.5671,286.974 72.7337,294.308 74.5,301.5C 64.5625,302.31 61.0625,307.644 64,317.5C 70.3188,345.307 82.8188,369.807 101.5,391C 112.247,398.722 122.247,407.389 131.5,417C 134.821,419.849 138.154,420.016 141.5,417.5C 142.246,416.264 142.579,414.93 142.5,413.5C 148.228,419.233 154.228,424.567 160.5,429.5C 159.699,434.123 156.866,436.457 152,436.5C 143.787,434.476 136.287,430.976 129.5,426C 116.667,414.5 104.5,402.333 93,389.5C 70.5115,358.873 58.0115,324.54 55.5,286.5C 54.3476,277.449 56.1809,269.116 61,261.5C 61.942,255.197 62.6086,248.863 63,242.5C 65.9876,238.565 68.4876,238.898 70.5,243.5 Z"/></g>
<g><path style="opacity:0.963" fill="#0f0f0f" d="M 237.5,248.5 C 239.368,253.594 241.534,258.594 244,263.5C 249.337,271.588 256.837,276.255 266.5,277.5C 266.027,278.906 265.027,279.573 263.5,279.5C 248.18,275.178 238.18,265.511 233.5,250.5C 234.671,249.655 236.005,248.989 237.5,248.5 Z"/></g>
<g><path style="opacity:0.974" fill="#151515" d="M 229.5,251.5 C 230.568,250.566 231.901,250.232 233.5,250.5C 238.18,265.511 248.18,275.178 263.5,279.5C 263.158,280.338 262.492,280.672 261.5,280.5C 252.447,276.806 243.78,272.306 235.5,267C 234.299,266.097 233.465,264.931 233,263.5C 232.119,259.291 230.953,255.291 229.5,251.5 Z"/></g>
<g><path style="opacity:0.994" fill="#1b1b1b" d="M 224.5,251.5 C 226.167,251.5 227.833,251.5 229.5,251.5C 230.953,255.291 232.119,259.291 233,263.5C 233.465,264.931 234.299,266.097 235.5,267C 243.78,272.306 252.447,276.806 261.5,280.5C 261.158,281.338 260.492,281.672 259.5,281.5C 253.417,279.295 247.417,276.795 241.5,274C 235.657,273.175 232.99,275.841 233.5,282C 233.936,290.357 236.936,297.524 242.5,303.5C 242.427,305.027 243.094,306.027 244.5,306.5C 244.427,308.027 245.094,309.027 246.5,309.5C 250.726,317.387 255.726,324.72 261.5,331.5C 261.427,333.027 262.094,334.027 263.5,334.5C 263.427,336.027 264.094,337.027 265.5,337.5C 267.062,341.392 269.395,344.725 272.5,347.5C 274.833,351.833 278.167,355.167 282.5,357.5C 282.973,358.906 283.973,359.573 285.5,359.5C 288.678,362.258 292.345,364.258 296.5,365.5C 296.842,366.338 297.508,366.672 298.5,366.5C 304.002,370.085 309.669,373.419 315.5,376.5C 314.167,376.5 312.833,376.5 311.5,376.5C 301.723,370.774 291.723,365.274 281.5,360C 277,356.833 273.167,353 270,348.5C 259,332.167 248,315.833 237,299.5C 232.767,290.675 230.433,281.342 230,271.5C 229.167,270.667 228.333,269.833 227.5,269C 218.327,266.79 209.661,268.123 201.5,273C 199.99,274.351 198.99,276.018 198.5,278C 200.217,281.942 202.551,285.442 205.5,288.5C 204.833,288.5 204.167,288.5 203.5,288.5C 200.896,286.4 198.396,284.067 196,281.5C 194.249,279.788 193.582,277.788 194,275.5C 202.579,268.96 212.079,264.127 222.5,261C 224.227,258.096 224.893,254.93 224.5,251.5 Z"/></g>
<g><path style="opacity:1" fill="#151515" d="M 311.5,376.5 C 310.5,376.5 309.5,376.5 308.5,376.5C 300.228,372.029 291.895,367.529 283.5,363C 279.084,360.588 275.251,357.422 272,353.5C 260.333,336.5 248.667,319.5 237,302.5C 232.401,293.072 228.568,283.405 225.5,273.5C 218.482,269.823 211.482,269.99 204.5,274C 203.128,275.242 202.128,276.742 201.5,278.5C 203.157,282.13 205.157,285.464 207.5,288.5C 206.833,288.5 206.167,288.5 205.5,288.5C 202.551,285.442 200.217,281.942 198.5,278C 198.99,276.018 199.99,274.351 201.5,273C 209.661,268.123 218.327,266.79 227.5,269C 228.333,269.833 229.167,270.667 230,271.5C 230.433,281.342 232.767,290.675 237,299.5C 248,315.833 259,332.167 270,348.5C 273.167,353 277,356.833 281.5,360C 291.723,365.274 301.723,370.774 311.5,376.5 Z"/></g>
<g><path style="opacity:0.991" fill="#0f0f0f" d="M 308.5,376.5 C 307.167,376.5 305.833,376.5 304.5,376.5C 293.648,370.821 283.148,364.488 273,357.5C 259.943,339.442 247.277,321.109 235,302.5C 230.788,293.797 226.955,284.964 223.5,276C 217.324,272.569 211.49,273.069 206,277.5C 205.333,278.833 205.333,280.167 206,281.5C 208.421,285.071 210.587,288.738 212.5,292.5C 211.24,290.633 209.573,289.3 207.5,288.5C 205.157,285.464 203.157,282.13 201.5,278.5C 202.128,276.742 203.128,275.242 204.5,274C 211.482,269.99 218.482,269.823 225.5,273.5C 228.568,283.405 232.401,293.072 237,302.5C 248.667,319.5 260.333,336.5 272,353.5C 275.251,357.422 279.084,360.588 283.5,363C 291.895,367.529 300.228,372.029 308.5,376.5 Z"/></g>
<g><path style="opacity:0.988" fill="#090909" d="M 304.5,376.5 C 302.833,376.5 301.167,376.5 299.5,376.5C 292.562,372.695 285.562,368.861 278.5,365C 274.701,362.203 271.201,359.036 268,355.5C 255.753,338.006 243.753,320.34 232,302.5C 228.55,296.152 225.884,289.485 224,282.5C 220.806,277.661 216.639,276.494 211.5,279C 210.941,279.725 210.608,280.558 210.5,281.5C 214.604,288.375 217.604,295.708 219.5,303.5C 216.421,300.35 214.087,296.683 212.5,292.5C 210.587,288.738 208.421,285.071 206,281.5C 205.333,280.167 205.333,278.833 206,277.5C 211.49,273.069 217.324,272.569 223.5,276C 226.955,284.964 230.788,293.797 235,302.5C 247.277,321.109 259.943,339.442 273,357.5C 283.148,364.488 293.648,370.821 304.5,376.5 Z"/></g>
<g><path style="opacity:0.982" fill="#222222" d="M 259.5,281.5 C 259.158,282.338 258.492,282.672 257.5,282.5C 252.063,280.367 246.563,278.367 241,276.5C 239.289,276.439 237.956,277.106 237,278.5C 234.672,286.342 236.172,293.342 241.5,299.5C 241.833,300.833 242.167,302.167 242.5,303.5C 236.936,297.524 233.936,290.357 233.5,282C 232.99,275.841 235.657,273.175 241.5,274C 247.417,276.795 253.417,279.295 259.5,281.5 Z"/></g>
<g><path style="opacity:0.973" fill="#282828" d="M 257.5,282.5 C 256.791,283.404 255.791,283.737 254.5,283.5C 251.208,281.364 247.542,280.031 243.5,279.5C 241.307,279.326 239.473,279.993 238,281.5C 237.333,284.5 237.333,287.5 238,290.5C 239.18,293.521 240.346,296.521 241.5,299.5C 236.172,293.342 234.672,286.342 237,278.5C 237.956,277.106 239.289,276.439 241,276.5C 246.563,278.367 252.063,280.367 257.5,282.5 Z"/></g>
<g><path style="opacity:0.965" fill="#010101" d="M 299.5,376.5 C 288.162,376.667 276.828,376.5 265.5,376C 249.77,352.031 234.437,327.864 219.5,303.5C 217.604,295.708 214.604,288.375 210.5,281.5C 210.608,280.558 210.941,279.725 211.5,279C 216.639,276.494 220.806,277.661 224,282.5C 225.884,289.485 228.55,296.152 232,302.5C 243.753,320.34 255.753,338.006 268,355.5C 271.201,359.036 274.701,362.203 278.5,365C 285.562,368.861 292.562,372.695 299.5,376.5 Z"/></g>
<g><path style="opacity:0.996" fill="#2e2e2e" d="M 254.5,283.5 C 254.5,283.833 254.5,284.167 254.5,284.5C 251.309,283.104 247.976,282.104 244.5,281.5C 242.626,281.39 241.126,282.056 240,283.5C 239.333,286.167 239.333,288.833 240,291.5C 241.588,295.672 243.421,299.672 245.5,303.5C 244.167,302.167 242.833,300.833 241.5,299.5C 240.346,296.521 239.18,293.521 238,290.5C 237.333,287.5 237.333,284.5 238,281.5C 239.473,279.993 241.307,279.326 243.5,279.5C 247.542,280.031 251.208,281.364 254.5,283.5 Z"/></g>
<g><path style="opacity:1" fill="#282828" d="M 203.5,289.5 C 203.5,290.5 203.5,291.5 203.5,292.5C 200.61,289.447 197.276,286.947 193.5,285C 187.596,284.562 184.43,287.396 184,293.5C 183.833,302.667 183.667,311.833 183.5,321C 183.37,331.236 183.87,341.403 185,351.5C 189.527,360.195 195.694,367.529 203.5,373.5C 203.5,374.167 203.5,374.833 203.5,375.5C 203.167,375.5 202.833,375.5 202.5,375.5C 195.416,368.918 189.25,361.585 184,353.5C 182.964,350.247 182.297,346.914 182,343.5C 181.333,328.5 181.333,313.5 182,298.5C 183.23,280.291 190.396,277.291 203.5,289.5 Z"/></g>
<g><path style="opacity:0.984" fill="#353535" d="M 254.5,284.5 C 255.5,284.833 256.167,285.5 256.5,286.5C 252.904,285.801 249.404,284.801 246,283.5C 241.874,285.142 240.541,288.142 242,292.5C 254.14,313.286 267.64,333.12 282.5,352C 292.963,358.897 303.963,364.731 315.5,369.5C 316.833,370.167 317.833,371.167 318.5,372.5C 315.426,371.698 312.426,370.698 309.5,369.5C 307.847,369.34 306.514,368.674 305.5,367.5C 300.984,364.073 295.984,361.407 290.5,359.5C 289.341,357.75 287.674,356.75 285.5,356.5C 282.526,353.862 279.526,351.195 276.5,348.5C 273.655,343.473 270.321,338.806 266.5,334.5C 266.573,332.973 265.906,331.973 264.5,331.5C 264.573,329.973 263.906,328.973 262.5,328.5C 262.573,326.973 261.906,325.973 260.5,325.5C 256.905,318.638 252.572,312.304 247.5,306.5C 247.573,304.973 246.906,303.973 245.5,303.5C 243.421,299.672 241.588,295.672 240,291.5C 239.333,288.833 239.333,286.167 240,283.5C 241.126,282.056 242.626,281.39 244.5,281.5C 247.976,282.104 251.309,283.104 254.5,284.5 Z"/></g>
<g><path style="opacity:0.994" fill="#3b3b3b" d="M 256.5,286.5 C 257.338,286.842 257.672,287.508 257.5,288.5C 253.611,287.035 249.611,286.535 245.5,287C 243.163,289.593 242.996,292.426 245,295.5C 256.883,314.101 269.383,332.268 282.5,350C 292.567,356.894 303.234,362.727 314.5,367.5C 315.338,367.842 315.672,368.508 315.5,369.5C 303.963,364.731 292.963,358.897 282.5,352C 267.64,333.12 254.14,313.286 242,292.5C 240.541,288.142 241.874,285.142 246,283.5C 249.404,284.801 252.904,285.801 256.5,286.5 Z"/></g>
<g><path style="opacity:1" fill="#2e2e2e" d="M 203.5,292.5 C 203.5,293.167 203.5,293.833 203.5,294.5C 200.997,292.167 198.331,290.001 195.5,288C 192.044,286.877 189.21,287.71 187,290.5C 185.873,293.377 185.206,296.377 185,299.5C 184.333,314.167 184.333,328.833 185,343.5C 187.693,355.045 193.86,364.378 203.5,371.5C 203.5,372.167 203.5,372.833 203.5,373.5C 195.694,367.529 189.527,360.195 185,351.5C 183.87,341.403 183.37,331.236 183.5,321C 183.667,311.833 183.833,302.667 184,293.5C 184.43,287.396 187.596,284.562 193.5,285C 197.276,286.947 200.61,289.447 203.5,292.5 Z"/></g>
<g><path style="opacity:0.985" fill="#414141" d="M 257.5,288.5 C 258.906,288.973 259.573,289.973 259.5,291.5C 255.695,289.691 251.695,289.191 247.5,290C 246.402,292.498 246.568,294.998 248,297.5C 257.333,311.5 266.667,325.5 276,339.5C 279.131,343.633 282.631,347.466 286.5,351C 295.236,356.367 304.236,361.201 313.5,365.5C 313.833,366.167 314.167,366.833 314.5,367.5C 303.234,362.727 292.567,356.894 282.5,350C 269.383,332.268 256.883,314.101 245,295.5C 242.996,292.426 243.163,289.593 245.5,287C 249.611,286.535 253.611,287.035 257.5,288.5 Z"/></g>
<g><path style="opacity:1" fill="#343434" d="M 203.5,294.5 C 203.5,295.833 203.5,297.167 203.5,298.5C 200.783,294.619 197.283,291.619 193,289.5C 188.371,292.091 186.371,296.091 187,301.5C 186.115,317.536 186.448,333.536 188,349.5C 191.517,357.183 196.684,363.517 203.5,368.5C 203.5,369.5 203.5,370.5 203.5,371.5C 193.86,364.378 187.693,355.045 185,343.5C 184.333,328.833 184.333,314.167 185,299.5C 185.206,296.377 185.873,293.377 187,290.5C 189.21,287.71 192.044,286.877 195.5,288C 198.331,290.001 200.997,292.167 203.5,294.5 Z"/></g>
<g><path style="opacity:1" fill="#3b3b3b" d="M 203.5,298.5 C 203.5,299.833 203.5,301.167 203.5,302.5C 201.216,298.216 197.882,294.882 193.5,292.5C 192.522,292.977 191.689,293.643 191,294.5C 189.859,303.737 189.359,313.071 189.5,322.5C 189.667,331.167 189.833,339.833 190,348.5C 190.725,350.949 191.725,353.283 193,355.5C 196.002,359.668 199.502,363.335 203.5,366.5C 203.5,367.167 203.5,367.833 203.5,368.5C 196.684,363.517 191.517,357.183 188,349.5C 186.448,333.536 186.115,317.536 187,301.5C 186.371,296.091 188.371,292.091 193,289.5C 197.283,291.619 200.783,294.619 203.5,298.5 Z"/></g>
<g><path style="opacity:0.982" fill="#474747" d="M 259.5,291.5 C 260.5,291.833 261.167,292.5 261.5,293.5C 258.183,292.779 254.849,292.612 251.5,293C 250.446,294.388 250.28,295.888 251,297.5C 260.274,312.438 269.94,327.104 280,341.5C 288.599,350.55 298.765,357.217 310.5,361.5C 311.5,362.833 312.5,364.167 313.5,365.5C 304.236,361.201 295.236,356.367 286.5,351C 282.631,347.466 279.131,343.633 276,339.5C 266.667,325.5 257.333,311.5 248,297.5C 246.568,294.998 246.402,292.498 247.5,290C 251.695,289.191 255.695,289.691 259.5,291.5 Z"/></g>
<g><path style="opacity:1" fill="#414141" d="M 203.5,302.5 C 203.5,305.167 203.5,307.833 203.5,310.5C 202.11,305.895 199.777,301.728 196.5,298C 195.216,297.316 194.049,297.483 193,298.5C 191.88,306.594 191.38,314.76 191.5,323C 191.411,331.883 191.911,340.716 193,349.5C 195.594,354.917 199.094,359.583 203.5,363.5C 203.5,364.5 203.5,365.5 203.5,366.5C 199.502,363.335 196.002,359.668 193,355.5C 191.725,353.283 190.725,350.949 190,348.5C 189.833,339.833 189.667,331.167 189.5,322.5C 189.359,313.071 189.859,303.737 191,294.5C 191.689,293.643 192.522,292.977 193.5,292.5C 197.882,294.882 201.216,298.216 203.5,302.5 Z"/></g>
<g><path style="opacity:0.977" fill="#4e4e4e" d="M 261.5,293.5 C 262.803,295.142 264.136,296.809 265.5,298.5C 263.181,297.833 260.847,297.666 258.5,298C 257.483,299.049 257.316,300.216 258,301.5C 268.111,316.611 278.611,331.444 289.5,346C 294.491,349.495 299.825,352.328 305.5,354.5C 307.412,356.657 309.079,358.991 310.5,361.5C 298.765,357.217 288.599,350.55 280,341.5C 269.94,327.104 260.274,312.438 251,297.5C 250.28,295.888 250.446,294.388 251.5,293C 254.849,292.612 258.183,292.779 261.5,293.5 Z"/></g>
<g><path style="opacity:1" fill="#484848" d="M 203.5,310.5 C 203.5,316.5 203.5,322.5 203.5,328.5C 202.521,327.235 201.521,325.901 200.5,324.5C 199.335,332.479 199.168,340.479 200,348.5C 200.424,351.025 201.59,353.025 203.5,354.5C 203.5,357.5 203.5,360.5 203.5,363.5C 199.094,359.583 195.594,354.917 193,349.5C 191.911,340.716 191.411,331.883 191.5,323C 191.38,314.76 191.88,306.594 193,298.5C 194.049,297.483 195.216,297.316 196.5,298C 199.777,301.728 202.11,305.895 203.5,310.5 Z"/></g>
<g><path style="opacity:0.915" fill="#535353" d="M 265.5,298.5 C 278.833,317.167 292.167,335.833 305.5,354.5C 299.825,352.328 294.491,349.495 289.5,346C 278.611,331.444 268.111,316.611 258,301.5C 257.316,300.216 257.483,299.049 258.5,298C 260.847,297.666 263.181,297.833 265.5,298.5 Z"/></g>
<g><path style="opacity:1" fill="#282828" d="M 241.5,299.5 C 242.833,300.833 244.167,302.167 245.5,303.5C 245.427,305.027 246.094,306.027 247.5,306.5C 248.167,308.167 248.833,309.833 249.5,311.5C 248.5,310.833 247.5,310.167 246.5,309.5C 246.573,307.973 245.906,306.973 244.5,306.5C 244.573,304.973 243.906,303.973 242.5,303.5C 242.167,302.167 241.833,300.833 241.5,299.5 Z"/></g>
<g><path style="opacity:0.734" fill="#535353" d="M 74.5,301.5 C 81.0822,331.326 93.5822,358.326 112,382.5C 122.369,392.702 132.535,403.035 142.5,413.5C 142.579,414.93 142.246,416.264 141.5,417.5C 138.154,420.016 134.821,419.849 131.5,417C 122.247,407.389 112.247,398.722 101.5,391C 82.8188,369.807 70.3188,345.307 64,317.5C 61.0625,307.644 64.5625,302.31 74.5,301.5 Z"/></g>
<g><path style="opacity:1" fill="#222222" d="M 242.5,303.5 C 243.906,303.973 244.573,304.973 244.5,306.5C 243.094,306.027 242.427,305.027 242.5,303.5 Z"/></g>
<g><path style="opacity:1" fill="#2e2e2e" d="M 245.5,303.5 C 246.906,303.973 247.573,304.973 247.5,306.5C 246.094,306.027 245.427,305.027 245.5,303.5 Z"/></g>
<g><path style="opacity:1" fill="#222222" d="M 244.5,306.5 C 245.906,306.973 246.573,307.973 246.5,309.5C 245.094,309.027 244.427,308.027 244.5,306.5 Z"/></g>
<g><path style="opacity:1" fill="#2e2e2e" d="M 247.5,306.5 C 252.572,312.304 256.905,318.638 260.5,325.5C 259.5,324.833 258.5,324.167 257.5,323.5C 257.573,321.973 256.906,320.973 255.5,320.5C 255.573,318.973 254.906,317.973 253.5,317.5C 253.573,315.973 252.906,314.973 251.5,314.5C 251.573,312.973 250.906,311.973 249.5,311.5C 248.833,309.833 248.167,308.167 247.5,306.5 Z"/></g>
<g><path style="opacity:1" fill="#222222" d="M 246.5,309.5 C 247.5,310.167 248.5,310.833 249.5,311.5C 249.427,313.027 250.094,314.027 251.5,314.5C 251.427,316.027 252.094,317.027 253.5,317.5C 253.427,319.027 254.094,320.027 255.5,320.5C 255.427,322.027 256.094,323.027 257.5,323.5C 258.833,326.167 260.167,328.833 261.5,331.5C 255.726,324.72 250.726,317.387 246.5,309.5 Z"/></g>
<g><path style="opacity:1" fill="#282828" d="M 249.5,311.5 C 250.906,311.973 251.573,312.973 251.5,314.5C 250.094,314.027 249.427,313.027 249.5,311.5 Z"/></g>
<g><path style="opacity:1" fill="#282828" d="M 251.5,314.5 C 252.906,314.973 253.573,315.973 253.5,317.5C 252.094,317.027 251.427,316.027 251.5,314.5 Z"/></g>
<g><path style="opacity:1" fill="#282828" d="M 253.5,317.5 C 254.906,317.973 255.573,318.973 255.5,320.5C 254.094,320.027 253.427,319.027 253.5,317.5 Z"/></g>
<g><path style="opacity:1" fill="#282828" d="M 255.5,320.5 C 256.906,320.973 257.573,321.973 257.5,323.5C 256.094,323.027 255.427,322.027 255.5,320.5 Z"/></g>
<g><path style="opacity:1" fill="#282828" d="M 257.5,323.5 C 258.5,324.167 259.5,324.833 260.5,325.5C 260.427,327.027 261.094,328.027 262.5,328.5C 262.427,330.027 263.094,331.027 264.5,331.5C 264.427,333.027 265.094,334.027 266.5,334.5C 267.167,336.167 267.833,337.833 268.5,339.5C 267.5,338.833 266.5,338.167 265.5,337.5C 265.573,335.973 264.906,334.973 263.5,334.5C 263.573,332.973 262.906,331.973 261.5,331.5C 260.167,328.833 258.833,326.167 257.5,323.5 Z"/></g>
<g><path style="opacity:1" fill="#4b4b4b" d="M 203.5,328.5 C 203.5,337.167 203.5,345.833 203.5,354.5C 201.59,353.025 200.424,351.025 200,348.5C 199.168,340.479 199.335,332.479 200.5,324.5C 201.521,325.901 202.521,327.235 203.5,328.5 Z"/></g>
<g><path style="opacity:1" fill="#2e2e2e" d="M 260.5,325.5 C 261.906,325.973 262.573,326.973 262.5,328.5C 261.094,328.027 260.427,327.027 260.5,325.5 Z"/></g>
<g><path style="opacity:1" fill="#2e2e2e" d="M 262.5,328.5 C 263.906,328.973 264.573,329.973 264.5,331.5C 263.094,331.027 262.427,330.027 262.5,328.5 Z"/></g>
<g><path style="opacity:1" fill="#222222" d="M 261.5,331.5 C 262.906,331.973 263.573,332.973 263.5,334.5C 262.094,334.027 261.427,333.027 261.5,331.5 Z"/></g>
<g><path style="opacity:1" fill="#2e2e2e" d="M 264.5,331.5 C 265.906,331.973 266.573,332.973 266.5,334.5C 265.094,334.027 264.427,333.027 264.5,331.5 Z"/></g>
<g><path style="opacity:1" fill="#222222" d="M 263.5,334.5 C 264.906,334.973 265.573,335.973 265.5,337.5C 264.094,337.027 263.427,336.027 263.5,334.5 Z"/></g>
<g><path style="opacity:1" fill="#2e2e2e" d="M 266.5,334.5 C 270.321,338.806 273.655,343.473 276.5,348.5C 275.167,347.5 273.833,346.5 272.5,345.5C 272.573,343.973 271.906,342.973 270.5,342.5C 270.573,340.973 269.906,339.973 268.5,339.5C 267.833,337.833 267.167,336.167 266.5,334.5 Z"/></g>
<g><path style="opacity:1" fill="#222222" d="M 265.5,337.5 C 266.5,338.167 267.5,338.833 268.5,339.5C 268.427,341.027 269.094,342.027 270.5,342.5C 270.427,344.027 271.094,345.027 272.5,345.5C 272.5,346.167 272.5,346.833 272.5,347.5C 269.395,344.725 267.062,341.392 265.5,337.5 Z"/></g>
<g><path style="opacity:1" fill="#282828" d="M 268.5,339.5 C 269.906,339.973 270.573,340.973 270.5,342.5C 269.094,342.027 268.427,341.027 268.5,339.5 Z"/></g>
<g><path style="opacity:1" fill="#282828" d="M 270.5,342.5 C 271.906,342.973 272.573,343.973 272.5,345.5C 271.094,345.027 270.427,344.027 270.5,342.5 Z"/></g>
<g><path style="opacity:1" fill="#282828" d="M 58.5,344.5 C 59.9313,345.78 60.5979,347.447 60.5,349.5C 59.0687,348.22 58.4021,346.553 58.5,344.5 Z"/></g>
<g><path style="opacity:1" fill="#282828" d="M 272.5,345.5 C 273.833,346.5 275.167,347.5 276.5,348.5C 276.5,349.167 276.5,349.833 276.5,350.5C 275.167,349.5 273.833,348.5 272.5,347.5C 272.5,346.833 272.5,346.167 272.5,345.5 Z"/></g>
<g><path style="opacity:1" fill="#232323" d="M 272.5,347.5 C 273.833,348.5 275.167,349.5 276.5,350.5C 277.5,352.167 278.833,353.5 280.5,354.5C 281.167,355.5 281.833,356.5 282.5,357.5C 278.167,355.167 274.833,351.833 272.5,347.5 Z"/></g>
<g><path style="opacity:1" fill="#2d2d2d" d="M 276.5,348.5 C 279.526,351.195 282.526,353.862 285.5,356.5C 283.833,355.833 282.167,355.167 280.5,354.5C 278.833,353.5 277.5,352.167 276.5,350.5C 276.5,349.833 276.5,349.167 276.5,348.5 Z"/></g>
<g><path style="opacity:1" fill="#282828" d="M 60.5,349.5 C 62.2927,351.426 63.2927,353.759 63.5,356.5C 61.7073,354.574 60.7073,352.241 60.5,349.5 Z"/></g>
<g><path style="opacity:1" fill="#282828" d="M 280.5,354.5 C 282.167,355.167 283.833,355.833 285.5,356.5C 286.659,358.25 288.326,359.25 290.5,359.5C 290.833,360.167 291.167,360.833 291.5,361.5C 289.5,360.833 287.5,360.167 285.5,359.5C 285.027,358.094 284.027,357.427 282.5,357.5C 281.833,356.5 281.167,355.5 280.5,354.5 Z"/></g>
<g><path style="opacity:1" fill="#262626" d="M 63.5,356.5 C 65.6744,359.515 67.3411,362.849 68.5,366.5C 67.8333,366.167 67.1667,365.833 66.5,365.5C 64.9925,363.819 63.9925,361.819 63.5,359.5C 63.5,358.5 63.5,357.5 63.5,356.5 Z"/></g>
<g><path style="opacity:1" fill="#2f2f2f" d="M 285.5,356.5 C 287.674,356.75 289.341,357.75 290.5,359.5C 288.326,359.25 286.659,358.25 285.5,356.5 Z"/></g>
<g><path style="opacity:1" fill="#222222" d="M 282.5,357.5 C 284.027,357.427 285.027,358.094 285.5,359.5C 283.973,359.573 282.973,358.906 282.5,357.5 Z"/></g>
<g><path style="opacity:1" fill="#222222" d="M 285.5,359.5 C 287.5,360.167 289.5,360.833 291.5,361.5C 292.514,362.674 293.847,363.34 295.5,363.5C 295.833,364.167 296.167,364.833 296.5,365.5C 292.345,364.258 288.678,362.258 285.5,359.5 Z"/></g>
<g><path style="opacity:1" fill="#2d2d2d" d="M 290.5,359.5 C 295.984,361.407 300.984,364.073 305.5,367.5C 302.167,366.167 298.833,364.833 295.5,363.5C 293.847,363.34 292.514,362.674 291.5,361.5C 291.167,360.833 290.833,360.167 290.5,359.5 Z"/></g>
<g><path style="opacity:1" fill="#282828" d="M 295.5,363.5 C 298.833,364.833 302.167,366.167 305.5,367.5C 306.514,368.674 307.847,369.34 309.5,369.5C 309.833,370.167 310.167,370.833 310.5,371.5C 306.5,369.833 302.5,368.167 298.5,366.5C 297.508,366.672 296.842,366.338 296.5,365.5C 296.167,364.833 295.833,364.167 295.5,363.5 Z"/></g>
<g><path style="opacity:1" fill="#222222" d="M 66.5,365.5 C 67.1667,365.833 67.8333,366.167 68.5,366.5C 69.5,369.167 70.5,371.833 71.5,374.5C 69.0764,371.992 67.4097,368.992 66.5,365.5 Z"/></g>
<g><path style="opacity:1" fill="#282828" d="M 68.5,366.5 C 69.1667,366.833 69.8333,367.167 70.5,367.5C 71.5,370.167 72.5,372.833 73.5,375.5C 72.8333,375.167 72.1667,374.833 71.5,374.5C 70.5,371.833 69.5,369.167 68.5,366.5 Z"/></g>
<g><path style="opacity:0.99" fill="#222222" d="M 298.5,366.5 C 302.5,368.167 306.5,369.833 310.5,371.5C 310.842,372.338 311.508,372.672 312.5,372.5C 314.792,374.267 317.458,375.267 320.5,375.5C 319.081,376.451 317.415,376.784 315.5,376.5C 309.669,373.419 304.002,370.085 298.5,366.5 Z"/></g>
<g><path style="opacity:1" fill="#2e2e2e" d="M 70.5,367.5 C 72.9236,370.008 74.5903,373.008 75.5,376.5C 74.8333,376.167 74.1667,375.833 73.5,375.5C 72.5,372.833 71.5,370.167 70.5,367.5 Z"/></g>
<g><path style="opacity:0.96" fill="#2d2d2d" d="M 309.5,369.5 C 312.426,370.698 315.426,371.698 318.5,372.5C 318.5,372.833 318.5,373.167 318.5,373.5C 316.5,373.167 314.5,372.833 312.5,372.5C 311.508,372.672 310.842,372.338 310.5,371.5C 310.167,370.833 309.833,370.167 309.5,369.5 Z"/></g>
<g><path style="opacity:0.835" fill="#282828" d="M 312.5,372.5 C 314.5,372.833 316.5,373.167 318.5,373.5C 319.5,373.833 320.167,374.5 320.5,375.5C 317.458,375.267 314.792,374.267 312.5,372.5 Z"/></g>
<g><path style="opacity:1" fill="#222222" d="M 71.5,374.5 C 72.1667,374.833 72.8333,375.167 73.5,375.5C 73.7497,377.674 74.7497,379.341 76.5,380.5C 76.8333,381.833 77.1667,383.167 77.5,384.5C 74.4977,381.839 72.4977,378.505 71.5,374.5 Z"/></g>
<g><path style="opacity:0.056" fill="#080808" d="M 337.5,374.5 C 336.014,380.91 332.014,384.576 325.5,385.5C 329.474,381.862 333.474,378.195 337.5,374.5 Z"/></g>
<g><path style="opacity:1" fill="#282828" d="M 73.5,375.5 C 74.1667,375.833 74.8333,376.167 75.5,376.5C 75.8333,377.833 76.1667,379.167 76.5,380.5C 74.7497,379.341 73.7497,377.674 73.5,375.5 Z"/></g>
<g><path style="opacity:1" fill="#2e2e2e" d="M 75.5,376.5 C 77.2503,377.659 78.2503,379.326 78.5,381.5C 77.8333,381.167 77.1667,380.833 76.5,380.5C 76.1667,379.167 75.8333,377.833 75.5,376.5 Z"/></g>
<g><path style="opacity:1" fill="#282828" d="M 76.5,380.5 C 77.1667,380.833 77.8333,381.167 78.5,381.5C 78.427,383.027 79.0937,384.027 80.5,384.5C 80.427,386.027 81.0937,387.027 82.5,387.5C 82.427,389.027 83.0937,390.027 84.5,390.5C 84.5,391.167 84.5,391.833 84.5,392.5C 83.5,391.833 82.5,391.167 81.5,390.5C 80.6597,388.147 79.3264,386.147 77.5,384.5C 77.1667,383.167 76.8333,381.833 76.5,380.5 Z"/></g>
<g><path style="opacity:1" fill="#2e2e2e" d="M 78.5,381.5 C 79.9063,381.973 80.573,382.973 80.5,384.5C 79.0937,384.027 78.427,383.027 78.5,381.5 Z"/></g>
<g><path style="opacity:1" fill="#222222" d="M 77.5,384.5 C 79.3264,386.147 80.6597,388.147 81.5,390.5C 79.1782,389.198 77.8449,387.198 77.5,384.5 Z"/></g>
<g><path style="opacity:1" fill="#2e2e2e" d="M 80.5,384.5 C 81.9063,384.973 82.573,385.973 82.5,387.5C 81.0937,387.027 80.427,386.027 80.5,384.5 Z"/></g>
<g><path style="opacity:1" fill="#2e2e2e" d="M 82.5,387.5 C 83.9063,387.973 84.573,388.973 84.5,390.5C 83.0937,390.027 82.427,389.027 82.5,387.5 Z"/></g>
<g><path style="opacity:1" fill="#222222" d="M 81.5,390.5 C 82.5,391.167 83.5,391.833 84.5,392.5C 84.7376,394.404 85.7376,395.738 87.5,396.5C 87.5,397.167 87.5,397.833 87.5,398.5C 84.5293,396.557 82.5293,393.891 81.5,390.5 Z"/></g>
<g><path style="opacity:1" fill="#2e2e2e" d="M 84.5,390.5 C 86.2624,391.262 87.2624,392.596 87.5,394.5C 86.5,393.833 85.5,393.167 84.5,392.5C 84.5,391.833 84.5,391.167 84.5,390.5 Z"/></g>
<g><path style="opacity:1" fill="#292929" d="M 84.5,392.5 C 85.5,393.167 86.5,393.833 87.5,394.5C 87.5,395.167 87.5,395.833 87.5,396.5C 85.7376,395.738 84.7376,394.404 84.5,392.5 Z"/></g>
<g><path style="opacity:1" fill="#2e2e2e" d="M 87.5,394.5 C 89.5869,395.585 90.9202,397.251 91.5,399.5C 90.1667,398.5 88.8333,397.5 87.5,396.5C 87.5,395.833 87.5,395.167 87.5,394.5 Z"/></g>
<g><path style="opacity:1" fill="#282828" d="M 87.5,396.5 C 88.8333,397.5 90.1667,398.5 91.5,399.5C 91.5,400.167 91.5,400.833 91.5,401.5C 90.1667,400.5 88.8333,399.5 87.5,398.5C 87.5,397.833 87.5,397.167 87.5,396.5 Z"/></g>
<g><path style="opacity:1" fill="#222222" d="M 87.5,398.5 C 88.8333,399.5 90.1667,400.5 91.5,401.5C 91.5,402.167 91.5,402.833 91.5,403.5C 89.4131,402.415 88.0798,400.749 87.5,398.5 Z"/></g>
<g><path style="opacity:1" fill="#2e2e2e" d="M 91.5,399.5 C 94.5725,401.569 96.9059,404.236 98.5,407.5C 96.1667,405.5 93.8333,403.5 91.5,401.5C 91.5,400.833 91.5,400.167 91.5,399.5 Z"/></g>
<g><path style="opacity:1" fill="#282828" d="M 91.5,401.5 C 93.8333,403.5 96.1667,405.5 98.5,407.5C 98.5,408.167 98.8333,408.5 99.5,408.5C 99.5,409.167 99.5,409.833 99.5,410.5C 97.1667,408.5 94.8333,406.5 92.5,404.5C 91.8333,404.5 91.5,404.167 91.5,403.5C 91.5,402.833 91.5,402.167 91.5,401.5 Z"/></g>
<g><path style="opacity:0.761" fill="#080808" d="M 296.5,403.5 C 300.232,411.414 298.899,418.247 292.5,424C 271.267,433.512 249.101,436.678 226,433.5C 224.014,433.569 222.514,434.235 221.5,435.5C 212.424,433.959 204.424,430.292 197.5,424.5C 198.967,425.292 200.3,425.292 201.5,424.5C 199.878,421.592 198.544,418.592 197.5,415.5C 198.708,414.766 200.041,414.433 201.5,414.5C 203.324,419.648 206.657,423.481 211.5,426C 236.521,434.434 260.854,432.768 284.5,421C 289.65,417.225 290.65,412.725 287.5,407.5C 290.428,406.183 293.428,404.85 296.5,403.5 Z"/></g>
<g><path style="opacity:1" fill="#232323" d="M 92.5,404.5 C 94.8333,406.5 97.1667,408.5 99.5,410.5C 103.833,415.5 108.5,420.167 113.5,424.5C 115.833,427.167 118.167,429.833 120.5,432.5C 119.761,432.631 119.094,432.464 118.5,432C 109.242,423.246 100.575,414.079 92.5,404.5 Z"/></g>
<g><path style="opacity:0.875" fill="#0f0f0f" d="M 287.5,407.5 C 290.65,412.725 289.65,417.225 284.5,421C 260.854,432.768 236.521,434.434 211.5,426C 206.657,423.481 203.324,419.648 201.5,414.5C 202.5,414.5 203.5,414.5 204.5,414.5C 206.614,420.071 210.614,423.571 216.5,425C 234.6,430.563 252.267,429.563 269.5,422C 273.895,420.14 276.895,416.973 278.5,412.5C 278.137,411.817 277.804,411.15 277.5,410.5C 280.817,409.503 284.15,408.503 287.5,407.5 Z"/></g>
<g><path style="opacity:1" fill="#2c2c2c" d="M 99.5,408.5 C 105.167,413.5 110.5,418.833 115.5,424.5C 114.833,424.5 114.167,424.5 113.5,424.5C 108.5,420.167 103.833,415.5 99.5,410.5C 99.5,409.833 99.5,409.167 99.5,408.5 Z"/></g>
<g><path style="opacity:0.818" fill="#151515" d="M 277.5,410.5 C 277.804,411.15 278.137,411.817 278.5,412.5C 276.895,416.973 273.895,420.14 269.5,422C 252.267,429.563 234.6,430.563 216.5,425C 210.614,423.571 206.614,420.071 204.5,414.5C 205.5,414.5 206.5,414.5 207.5,414.5C 209.011,418.176 211.677,420.676 215.5,422C 226.699,425.387 238.032,426.387 249.5,425C 255.486,423.592 260.652,420.758 265,416.5C 265.483,415.552 265.649,414.552 265.5,413.5C 269.499,412.5 273.499,411.5 277.5,410.5 Z"/></g>
<g><path style="opacity:0.728" fill="#1b1b1b" d="M 265.5,413.5 C 265.649,414.552 265.483,415.552 265,416.5C 260.652,420.758 255.486,423.592 249.5,425C 238.032,426.387 226.699,425.387 215.5,422C 211.677,420.676 209.011,418.176 207.5,414.5C 209.435,415.15 211.435,415.483 213.5,415.5C 215.12,417.984 217.453,419.484 220.5,420C 229.137,422.333 237.804,422.667 246.5,421C 248.996,419.669 250.996,417.836 252.5,415.5C 256.894,415.156 261.228,414.49 265.5,413.5 Z"/></g>
<g><path style="opacity:0.03" fill="#050505" d="M 197.5,415.5 C 198.544,418.592 199.878,421.592 201.5,424.5C 200.3,425.292 198.967,425.292 197.5,424.5C 192.247,421.255 192.247,418.255 197.5,415.5 Z"/></g>
<g><path style="opacity:0.347" fill="#222222" d="M 213.5,415.5 C 226.526,416.749 239.526,416.749 252.5,415.5C 250.996,417.836 248.996,419.669 246.5,421C 237.804,422.667 229.137,422.333 220.5,420C 217.453,419.484 215.12,417.984 213.5,415.5 Z"/></g>
<g><path style="opacity:1" fill="#292929" d="M 113.5,424.5 C 114.167,424.5 114.833,424.5 115.5,424.5C 116.167,424.5 116.5,424.833 116.5,425.5C 118.5,427.833 120.5,430.167 122.5,432.5C 121.833,432.5 121.167,432.5 120.5,432.5C 118.167,429.833 115.833,427.167 113.5,424.5 Z"/></g>
<g><path style="opacity:1" fill="#2e2e2e" d="M 116.5,425.5 C 119.764,427.094 122.431,429.427 124.5,432.5C 123.833,432.5 123.167,432.5 122.5,432.5C 120.5,430.167 118.5,427.833 116.5,425.5 Z"/></g>
<g><path style="opacity:1" fill="#222222" d="M 120.5,432.5 C 121.167,432.5 121.833,432.5 122.5,432.5C 123.585,434.587 125.251,435.92 127.5,436.5C 128.167,437.5 128.833,438.5 129.5,439.5C 125.637,438.306 122.637,435.973 120.5,432.5 Z"/></g>
<g><path style="opacity:1" fill="#282828" d="M 122.5,432.5 C 123.167,432.5 123.833,432.5 124.5,432.5C 125.5,433.833 126.5,435.167 127.5,436.5C 125.251,435.92 123.585,434.587 122.5,432.5 Z"/></g>
<g><path style="opacity:0.86" fill="#2e2e2e" d="M 124.5,432.5 C 151.297,451.658 181.297,462.325 214.5,464.5C 219.872,464.332 224.872,462.999 229.5,460.5C 228.476,459.148 227.476,457.815 226.5,456.5C 231.391,456.532 236.057,457.199 240.5,458.5C 241.66,459.265 242.66,460.265 243.5,461.5C 243.291,462.086 242.957,462.586 242.5,463C 226.619,467.26 210.619,467.593 194.5,464C 182.546,461.682 170.879,458.349 159.5,454C 148.298,448.904 137.632,443.071 127.5,436.5C 126.5,435.167 125.5,433.833 124.5,432.5 Z"/></g>
<g><path style="opacity:0.857" fill="#282828" d="M 127.5,436.5 C 137.632,443.071 148.298,448.904 159.5,454C 170.879,458.349 182.546,461.682 194.5,464C 210.619,467.593 226.619,467.26 242.5,463C 242.957,462.586 243.291,462.086 243.5,461.5C 242.66,460.265 241.66,459.265 240.5,458.5C 245.5,458.5 250.5,458.5 255.5,458.5C 257.873,459.378 258.706,461.045 258,463.5C 255.53,465.438 252.696,466.604 249.5,467C 206.058,472.304 166.058,463.137 129.5,439.5C 128.833,438.5 128.167,437.5 127.5,436.5 Z"/></g>
<g><path style="opacity:0.885" fill="#222222" d="M 129.5,439.5 C 166.058,463.137 206.058,472.304 249.5,467C 252.696,466.604 255.53,465.438 258,463.5C 258.706,461.045 257.873,459.378 255.5,458.5C 259.167,458.5 262.833,458.5 266.5,458.5C 267.66,459.265 268.66,460.265 269.5,461.5C 265.362,465.569 260.362,468.069 254.5,469C 230.575,471.994 206.908,470.66 183.5,465C 163.48,460.402 145.48,451.902 129.5,439.5 Z"/></g>
<g><path style="opacity:0.141" fill="#2e2e2e" d="M 327.5,450.5 C 320.201,449.942 317.701,452.942 320,459.5C 320.816,460.823 321.983,461.489 323.5,461.5C 323.167,462.5 322.5,463.167 321.5,463.5C 318.401,461.725 316.401,459.058 315.5,455.5C 316.092,453.577 317.092,451.911 318.5,450.5C 321.638,449.319 324.638,449.319 327.5,450.5 Z"/></g>
<g><path style="opacity:0.224" fill="#282828" d="M 318.5,450.5 C 317.092,451.911 316.092,453.577 315.5,455.5C 316.401,459.058 318.401,461.725 321.5,463.5C 320.833,463.833 320.167,464.167 319.5,464.5C 317.028,462.5 314.862,460.167 313,457.5C 312.36,455.735 312.527,454.068 313.5,452.5C 314.93,451.463 316.597,450.796 318.5,450.5 Z"/></g>
<g><path style="opacity:0.083" fill="#343434" d="M 327.5,450.5 C 329.446,451.035 330.446,452.368 330.5,454.5C 326.918,451.628 324.251,452.295 322.5,456.5C 322.752,458.073 323.418,459.406 324.5,460.5C 324.5,461.167 324.167,461.5 323.5,461.5C 321.983,461.489 320.816,460.823 320,459.5C 317.701,452.942 320.201,449.942 327.5,450.5 Z"/></g>
<g><path style="opacity:0.353" fill="#222222" d="M 313.5,452.5 C 312.527,454.068 312.36,455.735 313,457.5C 314.862,460.167 317.028,462.5 319.5,464.5C 319.167,464.5 318.833,464.5 318.5,464.5C 312.876,462.885 309.876,459.218 309.5,453.5C 310.568,452.566 311.901,452.232 313.5,452.5 Z"/></g>
<g><path style="opacity:0.04" fill="#3a3a3a" d="M 330.5,454.5 C 329.478,457.522 327.478,459.522 324.5,460.5C 323.418,459.406 322.752,458.073 322.5,456.5C 324.251,452.295 326.918,451.628 330.5,454.5 Z"/></g>
<g><path style="opacity:0.427" fill="#1b1b1b" d="M 309.5,453.5 C 309.876,459.218 312.876,462.885 318.5,464.5C 317.71,465.401 316.71,466.068 315.5,466.5C 311.732,463.775 307.732,461.275 303.5,459C 301.452,457.774 301.119,456.274 302.5,454.5C 304.806,454.007 307.139,453.674 309.5,453.5 Z"/></g>
</svg>
