<?xml version="1.0" encoding="UTF-8"?>
<!DOCTYPE svg PUBLIC "-//W3C//DTD SVG 1.1//EN" "http://www.w3.org/Graphics/SVG/1.1/DTD/svg11.dtd">
<svg xmlns="http://www.w3.org/2000/svg" version="1.1" width="454px" height="619px" style="shape-rendering:geometricPrecision; text-rendering:geometricPrecision; image-rendering:optimizeQuality; fill-rule:evenodd; clip-rule:evenodd" xmlns:xlink="http://www.w3.org/1999/xlink">
<g><path style="opacity:0.996" fill="#1c1c1c" d="M 77.5,24.5 C 78.3821,29.3603 79.8821,34.027 82,38.5C 85.3356,41.1694 89.1689,42.6694 93.5,43C 152.5,43.3333 211.5,43.6667 270.5,44C 281.296,45.6319 291.962,47.7986 302.5,50.5C 303.514,51.6737 304.847,52.3404 306.5,52.5C 307.391,53.1098 308.391,53.4431 309.5,53.5C 309.5,54.1667 309.5,54.8333 309.5,55.5C 298.164,51.6656 286.498,49.1656 274.5,48C 213.833,47.6667 153.167,47.3333 92.5,47C 78.7583,46.4252 71.4249,39.2586 70.5,25.5C 72.861,25.3259 75.1944,24.9926 77.5,24.5 Z"/></g>
<g><path style="opacity:0.998" fill="#222222" d="M 77.5,24.5 C 79.8333,24.5 82.1667,24.5 84.5,24.5C 85.5106,28.2066 86.6773,31.8733 88,35.5C 89.6477,36.717 91.481,37.5503 93.5,38C 151.167,38.3333 208.833,38.6667 266.5,39C 277.113,41.8799 287.779,44.5466 298.5,47C 300.324,47.66 301.657,48.8267 302.5,50.5C 291.962,47.7986 281.296,45.6319 270.5,44C 211.5,43.6667 152.5,43.3333 93.5,43C 89.1689,42.6694 85.3356,41.1694 82,38.5C 79.8821,34.027 78.3821,29.3603 77.5,24.5 Z"/></g>
<g><path style="opacity:0.996" fill="#282828" d="M 84.5,24.5 C 147.833,24.5 211.167,24.5 274.5,24.5C 274.932,29.7724 276.932,34.2724 280.5,38C 288.528,39.94 295.861,43.1067 302.5,47.5C 302.5,48.1667 302.833,48.5 303.5,48.5C 304.5,49.8333 305.5,51.1667 306.5,52.5C 304.847,52.3404 303.514,51.6737 302.5,50.5C 301.657,48.8267 300.324,47.66 298.5,47C 287.779,44.5466 277.113,41.8799 266.5,39C 208.833,38.6667 151.167,38.3333 93.5,38C 91.481,37.5503 89.6477,36.717 88,35.5C 86.6773,31.8733 85.5106,28.2066 84.5,24.5 Z"/></g>
<g><path style="opacity:0.977" fill="#2e2e2e" d="M 274.5,24.5 C 280.545,24.3032 286.545,24.6365 292.5,25.5C 292.11,29.3935 292.777,33.0602 294.5,36.5C 297.699,38.8635 301.032,41.0302 304.5,43C 303.418,44.3297 302.751,45.8297 302.5,47.5C 295.861,43.1067 288.528,39.94 280.5,38C 276.932,34.2724 274.932,29.7724 274.5,24.5 Z"/></g>
<g><path style="opacity:0.992" fill="#151515" d="M 70.5,25.5 C 71.4249,39.2586 78.7583,46.4252 92.5,47C 153.167,47.3333 213.833,47.6667 274.5,48C 286.498,49.1656 298.164,51.6656 309.5,55.5C 310.5,55.8333 311.167,56.5 311.5,57.5C 297.788,53.5248 283.788,51.0248 269.5,50C 208.167,49.6667 146.833,49.3333 85.5,49C 80.0426,48.7407 75.5426,46.5741 72,42.5C 69.0072,37.6501 66.5072,32.6501 64.5,27.5C 66.3024,26.5418 68.3024,25.8751 70.5,25.5 Z"/></g>
<g><path style="opacity:0.965" fill="#353535" d="M 292.5,25.5 C 298.929,25.9605 305.263,26.9605 311.5,28.5C 311.335,32.1817 311.501,35.8484 312,39.5C 313.543,41.3783 315.376,42.8783 317.5,44C 313.5,44.3333 309.5,44.6667 305.5,45C 304.177,45.8159 303.511,46.9826 303.5,48.5C 302.833,48.5 302.5,48.1667 302.5,47.5C 302.751,45.8297 303.418,44.3297 304.5,43C 301.032,41.0302 297.699,38.8635 294.5,36.5C 292.777,33.0602 292.11,29.3935 292.5,25.5 Z"/></g>
<g><path style="opacity:0.997" fill="#0f0f0f" d="M 64.5,27.5 C 66.5072,32.6501 69.0072,37.6501 72,42.5C 75.5426,46.5741 80.0426,48.7407 85.5,49C 146.833,49.3333 208.167,49.6667 269.5,50C 283.788,51.0248 297.788,53.5248 311.5,57.5C 313.167,58.5 314.5,59.8333 315.5,61.5C 301.912,56.8156 287.912,53.9823 273.5,53C 210.833,52.6667 148.167,52.3333 85.5,52C 77.0186,52.0117 70.5186,48.5117 66,41.5C 63.5965,37.3653 61.7632,33.0319 60.5,28.5C 61.7079,27.7659 63.0413,27.4326 64.5,27.5 Z"/></g>
<g><path style="opacity:0.996" fill="#090909" d="M 60.5,28.5 C 61.7632,33.0319 63.5965,37.3653 66,41.5C 70.5186,48.5117 77.0186,52.0117 85.5,52C 148.167,52.3333 210.833,52.6667 273.5,53C 287.912,53.9823 301.912,56.8156 315.5,61.5C 316.5,62.1667 317.5,62.8333 318.5,63.5C 318.5,64.1667 318.5,64.8333 318.5,65.5C 305.912,60.9484 292.912,58.115 279.5,57C 212.487,56.9423 145.487,56.2756 78.5,55C 72.2356,54.1188 67.0689,51.2854 63,46.5C 60.1428,41.4454 57.3095,36.4454 54.5,31.5C 56.2504,30.1302 58.2504,29.1302 60.5,28.5 Z"/></g>
<g><path style="opacity:0.962" fill="#3c3c3c" d="M 311.5,28.5 C 317.439,29.5945 323.106,31.2611 328.5,33.5C 325.841,41.6971 328.508,47.5305 336.5,51C 332.285,51.6587 328.285,51.1587 324.5,49.5C 324.167,49.5 323.833,49.5 323.5,49.5C 321.615,47.6885 319.281,46.5218 316.5,46C 312.973,45.1925 309.64,45.3592 306.5,46.5C 305.142,48.7428 305.808,50.4095 308.5,51.5C 308.833,52.1667 309.167,52.8333 309.5,53.5C 308.391,53.4431 307.391,53.1098 306.5,52.5C 305.5,51.1667 304.5,49.8333 303.5,48.5C 303.511,46.9826 304.177,45.8159 305.5,45C 309.5,44.6667 313.5,44.3333 317.5,44C 315.376,42.8783 313.543,41.3783 312,39.5C 311.501,35.8484 311.335,32.1817 311.5,28.5 Z"/></g>
<g><path style="opacity:0.996" fill="#000000" d="M 54.5,31.5 C 57.3095,36.4454 60.1428,41.4454 63,46.5C 67.0689,51.2854 72.2356,54.1188 78.5,55C 145.487,56.2756 212.487,56.9423 279.5,57C 292.912,58.115 305.912,60.9484 318.5,65.5C 320.167,66.8333 321.833,68.1667 323.5,69.5C 324.11,71.4341 325.11,73.1007 326.5,74.5C 327.167,74.8333 327.833,75.1667 328.5,75.5C 328.427,77.0269 329.094,78.0269 330.5,78.5C 330.427,80.0269 331.094,81.0269 332.5,81.5C 332.66,83.153 333.326,84.4863 334.5,85.5C 335.65,88.2982 336.983,90.9648 338.5,93.5C 338.427,95.0269 339.094,96.0269 340.5,96.5C 340.259,98.8984 340.926,100.898 342.5,102.5C 342.5,103.167 342.5,103.833 342.5,104.5C 343.436,111.463 345.102,118.13 347.5,124.5C 347.833,124.5 348.167,124.5 348.5,124.5C 348.5,124.833 348.5,125.167 348.5,125.5C 349.218,134.482 349.552,143.482 349.5,152.5C 348.539,154.265 348.205,156.265 348.5,158.5C 347.509,163.05 346.509,167.717 345.5,172.5C 344.662,172.842 344.328,173.508 344.5,174.5C 343.094,174.973 342.427,175.973 342.5,177.5C 342.5,178.167 342.5,178.833 342.5,179.5C 339.89,182.632 338.223,186.299 337.5,190.5C 335.412,192.336 334.079,194.669 333.5,197.5C 327.167,205.833 319.833,213.167 311.5,219.5C 309.326,219.75 307.659,220.75 306.5,222.5C 305.833,222.833 305.167,223.167 304.5,223.5C 301.762,221.866 299.762,222.533 298.5,225.5C 297.167,225.5 295.833,225.5 294.5,225.5C 295.687,224.466 296.52,223.133 297,221.5C 298.84,222.833 299.34,222.666 298.5,221C 300.329,220.727 301.829,219.893 303,218.5C 309.201,198.674 302.368,183.84 282.5,174C 280.212,173.178 277.878,172.511 275.5,172C 241.168,171.5 206.835,171.333 172.5,171.5C 167.029,166.199 161.362,161.033 155.5,156C 144.301,148.511 135.467,150.677 129,162.5C 127.268,167.35 126.268,172.35 126,177.5C 125.384,196.874 125.384,216.207 126,235.5C 116.478,237.346 106.978,238.679 97.5,239.5C 95.5853,239.216 93.9187,239.549 92.5,240.5C 86.4093,240.211 80.4093,240.545 74.5,241.5C 68.2888,242.346 62.6221,244.346 57.5,247.5C 56.8333,247.5 56.1667,247.5 55.5,247.5C 53.9731,247.427 52.9731,248.094 52.5,249.5C 49.883,250.786 47.5496,252.453 45.5,254.5C 42.1667,257.167 39.1667,260.167 36.5,263.5C 34.7376,264.262 33.7376,265.596 33.5,267.5C 33.6716,268.492 33.3382,269.158 32.5,269.5C 30.4152,271.684 29.4152,274.351 29.5,277.5C 28.6993,279.042 28.366,280.708 28.5,282.5C 27.3393,296.327 27.1727,310.327 28,324.5C 29.1698,335.975 30.3365,347.308 31.5,358.5C 31.9607,366.997 32.6274,375.331 33.5,383.5C 33.5,384.167 33.5,384.833 33.5,385.5C 33.9666,388.297 35.6333,389.631 38.5,389.5C 42.3197,386.747 45.9864,383.747 49.5,380.5C 51.7488,379.92 53.4154,378.587 54.5,376.5C 55.1667,376.5 55.8333,376.5 56.5,376.5C 59.1003,375.532 61.4336,374.199 63.5,372.5C 65.153,372.34 66.4863,371.674 67.5,370.5C 68.5,369.833 69.5,369.167 70.5,368.5C 73.9164,368.472 76.9164,367.472 79.5,365.5C 81.4147,365.784 83.0813,365.451 84.5,364.5C 84.8333,364.5 85.1667,364.5 85.5,364.5C 86.8333,364.5 88.1667,364.5 89.5,364.5C 91.5648,364.483 93.5648,364.15 95.5,363.5C 101.699,363.348 107.699,362.682 113.5,361.5C 120.809,360.752 128.142,360.418 135.5,360.5C 146.003,360.101 156.336,359.435 166.5,358.5C 176.821,357.867 187.155,357.534 197.5,357.5C 201.167,357.5 204.833,357.5 208.5,357.5C 218.725,357.917 228.725,357.251 238.5,355.5C 249.02,355.372 259.353,354.706 269.5,353.5C 270.5,353.5 271.5,353.5 272.5,353.5C 278.833,353.5 285.167,353.5 291.5,353.5C 297.523,353.331 303.523,352.831 309.5,352C 310.737,351.768 311.737,351.268 312.5,350.5C 314.786,350.405 316.786,349.738 318.5,348.5C 320.302,347.542 322.302,346.875 324.5,346.5C 325.167,346.5 325.833,346.5 326.5,346.5C 330.288,346.691 333.288,345.358 335.5,342.5C 335.833,342.5 336.167,342.5 336.5,342.5C 338.403,342.204 340.07,341.537 341.5,340.5C 343.027,340.573 344.027,339.906 344.5,338.5C 347.707,337.821 350.707,336.654 353.5,335C 354.71,333.961 355.71,332.794 356.5,331.5C 358.833,330.167 361.167,328.833 363.5,327.5C 366.674,326.99 369.008,325.323 370.5,322.5C 372.044,322.297 373.378,321.63 374.5,320.5C 375.521,321.002 375.688,321.668 375,322.5C 368.396,329.769 362.563,337.602 357.5,346C 336.77,343.738 326.603,352.905 327,373.5C 327.92,380.343 330.254,386.677 334,392.5C 361.5,434.829 388.5,477.496 415,520.5C 418.221,529.579 419.221,538.913 418,548.5C 414.426,558.554 411.259,568.721 408.5,579C 409.987,586.806 412.987,593.973 417.5,600.5C 401.848,609.861 384.848,613.028 366.5,610C 344.461,605.304 327.295,593.471 315,574.5C 274.667,513.833 234.333,453.167 194,392.5C 187.256,391.521 180.422,391.188 173.5,391.5C 167.363,385.533 161.03,379.699 154.5,374C 139.572,368.224 130.406,373.391 127,389.5C 125.702,442.475 125.035,495.475 125,548.5C 121.54,558.416 118.374,568.416 115.5,578.5C 117.198,586.564 120.532,593.898 125.5,600.5C 109.388,609.754 92.0543,612.921 73.5,610C 41,602.833 21.1667,583 14,550.5C 13.3333,395.167 13.3333,239.833 14,84.5C 18.8568,60.0735 32.3568,42.4068 54.5,31.5 Z"/></g>
<g><path style="opacity:0.964" fill="#444444" d="M 328.5,33.5 C 335.057,35.2411 341.391,37.5745 347.5,40.5C 346.489,44.1122 346.322,47.7789 347,51.5C 350.131,55.6328 353.631,59.4662 357.5,63C 356.181,63.195 354.847,63.0283 353.5,62.5C 352.833,62.5 352.167,62.5 351.5,62.5C 350.508,62.6716 349.842,62.3382 349.5,61.5C 349.5,60.5 349.5,59.5 349.5,58.5C 346.549,58.7128 343.882,58.0461 341.5,56.5C 339.901,56.7678 338.568,56.4345 337.5,55.5C 336.07,54.4625 334.403,53.7959 332.5,53.5C 330.901,53.7678 329.568,53.4345 328.5,52.5C 327.41,51.1429 326.076,50.1429 324.5,49.5C 328.285,51.1587 332.285,51.6587 336.5,51C 328.508,47.5305 325.841,41.6971 328.5,33.5 Z"/></g>
<g><path style="opacity:0.964" fill="#494949" d="M 347.5,40.5 C 354.488,43.659 361.154,47.3256 367.5,51.5C 364.835,55.8819 365.002,60.2152 368,64.5C 375.295,73.4637 382.962,82.1304 391,90.5C 391.528,91.816 391.028,92.4827 389.5,92.5C 384.11,87.1057 378.444,82.1057 372.5,77.5C 371.415,75.4131 369.749,74.0798 367.5,73.5C 366.08,70.4123 363.747,68.4123 360.5,67.5C 359.167,67.1667 357.833,66.8333 356.5,66.5C 355.5,65.1667 354.5,63.8333 353.5,62.5C 354.847,63.0283 356.181,63.195 357.5,63C 353.631,59.4662 350.131,55.6328 347,51.5C 346.322,47.7789 346.489,44.1122 347.5,40.5 Z"/></g>
<g><path style="opacity:1" fill="#8e8e8e" d="M 306.5,46.5 C 309.713,46.19 312.713,46.5233 315.5,47.5C 313.167,47.5 310.833,47.5 308.5,47.5C 308.5,48.8333 308.5,50.1667 308.5,51.5C 305.808,50.4095 305.142,48.7428 306.5,46.5 Z"/></g>
<g><path style="opacity:1" fill="#636363" d="M 306.5,46.5 C 309.64,45.3592 312.973,45.1925 316.5,46C 319.281,46.5218 321.615,47.6885 323.5,49.5C 320.888,48.6295 318.221,47.9628 315.5,47.5C 312.713,46.5233 309.713,46.19 306.5,46.5 Z"/></g>
<g><path style="opacity:1" fill="#bebebe" d="M 315.5,47.5 C 318.221,47.9628 320.888,48.6295 323.5,49.5C 323.833,49.5 324.167,49.5 324.5,49.5C 326.076,50.1429 327.41,51.1429 328.5,52.5C 325.598,51.4222 322.598,50.7556 319.5,50.5C 319.082,49.7784 318.416,49.2784 317.5,49C 314.854,48.5026 312.187,48.3359 309.5,48.5C 309.704,50.6854 310.37,52.6854 311.5,54.5C 310.833,54.1667 310.167,53.8333 309.5,53.5C 309.167,52.8333 308.833,52.1667 308.5,51.5C 308.5,50.1667 308.5,48.8333 308.5,47.5C 310.833,47.5 313.167,47.5 315.5,47.5 Z"/></g>
<g><path style="opacity:1" fill="#e6e6e6" d="M 319.5,50.5 C 317.248,49.6669 315.081,49.6669 313,50.5C 313.117,53.3529 313.95,56.0196 315.5,58.5C 313.833,57.5 312.5,56.1667 311.5,54.5C 310.37,52.6854 309.704,50.6854 309.5,48.5C 312.187,48.3359 314.854,48.5026 317.5,49C 318.416,49.2784 319.082,49.7784 319.5,50.5 Z"/></g>
<g><path style="opacity:1" fill="#fefefe" d="M 319.5,50.5 C 322.598,50.7556 325.598,51.4222 328.5,52.5C 329.568,53.4345 330.901,53.7678 332.5,53.5C 332.833,54.5 333.5,55.1667 334.5,55.5C 337.209,57.1526 340.209,58.486 343.5,59.5C 344.492,59.3284 345.158,59.6618 345.5,60.5C 347.008,63.0926 349.341,64.4259 352.5,64.5C 353.605,65.6005 354.938,66.2671 356.5,66.5C 357.486,68.4077 359.152,69.4077 361.5,69.5C 363.223,71.2181 365.223,72.5514 367.5,73.5C 368.585,75.5869 370.251,76.9202 372.5,77.5C 377.167,82.5 381.833,87.5 386.5,92.5C 388.766,96.4356 391.766,99.7689 395.5,102.5C 395.738,104.404 396.738,105.738 398.5,106.5C 398.733,108.062 399.4,109.395 400.5,110.5C 400.564,114.219 402.231,116.886 405.5,118.5C 406.593,120.349 407.926,122.016 409.5,123.5C 409.5,124.167 409.5,124.833 409.5,125.5C 409.427,127.027 410.094,128.027 411.5,128.5C 413.113,131.803 414.78,135.136 416.5,138.5C 416.259,140.898 416.926,142.898 418.5,144.5C 418.345,147.716 419.345,150.383 421.5,152.5C 421.5,152.833 421.5,153.167 421.5,153.5C 421.723,157.162 422.723,160.495 424.5,163.5C 425.338,163.842 425.672,164.508 425.5,165.5C 426.78,186.501 426.78,207.501 425.5,228.5C 424.083,232.002 423.416,235.669 423.5,239.5C 423.5,239.833 423.5,240.167 423.5,240.5C 421.595,244.216 420.261,248.216 419.5,252.5C 416.694,254.299 415.361,256.966 415.5,260.5C 413.341,263.484 411.675,266.817 410.5,270.5C 410.5,271.167 410.5,271.833 410.5,272.5C 409.89,273.391 409.557,274.391 409.5,275.5C 404.273,280.281 400.273,285.948 397.5,292.5C 390.916,299.384 384.583,306.384 378.5,313.5C 373.868,316.798 369.534,320.464 365.5,324.5C 362.966,324.259 361.3,325.259 360.5,327.5C 359.833,327.833 359.167,328.167 358.5,328.5C 357.448,328.351 356.448,328.517 355.5,329C 352.038,331.415 348.705,333.915 345.5,336.5C 341.778,338.288 338.111,339.954 334.5,341.5C 331.743,343.086 328.743,344.086 325.5,344.5C 319.276,345.748 313.276,347.415 307.5,349.5C 295.715,351.049 284.048,352.382 272.5,353.5C 271.5,353.5 270.5,353.5 269.5,353.5C 256.496,353.333 243.496,353.5 230.5,354C 229.584,354.278 228.918,354.778 228.5,355.5C 218.135,355.267 207.802,355.6 197.5,356.5C 180.837,356.976 164.17,357.309 147.5,357.5C 133.235,356.915 119.235,357.915 105.5,360.5C 101.629,360.185 97.9619,360.518 94.5,361.5C 91.4021,361.756 88.4021,362.422 85.5,363.5C 81.4862,363.334 77.4862,363.501 73.5,364C 71.3812,366.393 68.7145,367.726 65.5,368C 64.6195,368.708 63.9528,369.542 63.5,370.5C 59.6104,369.777 56.9437,371.11 55.5,374.5C 53.6883,374.771 52.0217,375.438 50.5,376.5C 47.5431,378.489 44.8764,380.822 42.5,383.5C 39.6354,383.945 37.1354,383.278 35,381.5C 34.8951,371.949 34.0618,362.616 32.5,353.5C 32.5,350.5 32.5,347.5 32.5,344.5C 32.1869,322.833 31.8535,301.166 31.5,279.5C 31.5,278.167 31.5,276.833 31.5,275.5C 31.8333,274.167 32.1667,272.833 32.5,271.5C 34.369,269.966 35.7023,267.966 36.5,265.5C 36.5,265.167 36.5,264.833 36.5,264.5C 40.1667,261.5 43.5,258.167 46.5,254.5C 47.391,253.89 48.391,253.557 49.5,253.5C 51.7488,252.92 53.4154,251.587 54.5,249.5C 55.1667,249.5 55.8333,249.5 56.5,249.5C 62.9784,247.896 69.3117,245.896 75.5,243.5C 95.3653,243.371 115.032,242.371 134.5,240.5C 156.68,240.037 178.68,239.037 200.5,237.5C 200.833,237.5 201.167,237.5 201.5,237.5C 225.52,237.302 249.52,236.469 273.5,235C 281.444,233.243 289.111,231.41 296.5,229.5C 298.449,227.437 300.782,226.104 303.5,225.5C 304.167,225.5 304.833,225.5 305.5,225.5C 307.179,225.108 308.846,224.608 310.5,224C 313.739,222.264 316.073,219.764 317.5,216.5C 323.538,211.463 328.871,205.797 333.5,199.5C 335.984,197.2 337.984,194.533 339.5,191.5C 339.5,191.167 339.5,190.833 339.5,190.5C 341.834,188.824 342.834,186.491 342.5,183.5C 344.284,182.426 345.451,180.76 346,178.5C 347.357,174.935 348.19,171.268 348.5,167.5C 348.5,166.833 348.5,166.167 348.5,165.5C 353.135,153.407 353.801,141.074 350.5,128.5C 350.59,125.848 349.924,123.515 348.5,121.5C 348.784,119.585 348.451,117.919 347.5,116.5C 347.59,113.848 346.924,111.515 345.5,109.5C 345.483,107.435 345.15,105.435 344.5,103.5C 344.443,102.391 344.11,101.391 343.5,100.5C 343.162,98.146 342.662,95.8127 342,93.5C 341.578,91.5743 340.411,90.5743 338.5,90.5C 337.89,89.609 337.557,88.609 337.5,87.5C 337.313,84.3095 335.646,82.3095 332.5,81.5C 332.573,79.9731 331.906,78.9731 330.5,78.5C 330.573,76.9731 329.906,75.9731 328.5,75.5C 328.5,74.8333 328.5,74.1667 328.5,73.5C 327.636,70.9524 326.303,68.6191 324.5,66.5C 323.583,65.8728 322.583,65.5394 321.5,65.5C 320.879,61.9147 318.879,59.5814 315.5,58.5C 313.95,56.0196 313.117,53.3529 313,50.5C 315.081,49.6669 317.248,49.6669 319.5,50.5 Z"/></g>
<g><path style="opacity:0.968" fill="#4e4e4e" d="M 367.5,51.5 C 378.726,58.7256 389.059,67.0589 398.5,76.5C 396.974,77.4919 396.307,78.9919 396.5,81C 396.631,83.2527 397.131,85.4194 398,87.5C 413.563,111.287 427.063,136.287 438.5,162.5C 441.951,164.756 445.618,166.423 449.5,167.5C 451.13,176.256 452.464,184.923 453.5,193.5C 453.5,197.833 453.5,202.167 453.5,206.5C 449.933,204.443 446.766,201.777 444,198.5C 438.072,180.05 431.739,161.717 425,143.5C 419.342,131.508 412.675,120.175 405,109.5C 404.517,110.448 404.351,111.448 404.5,112.5C 404.167,112.5 403.833,112.5 403.5,112.5C 402.581,109.911 400.914,107.911 398.5,106.5C 398.262,104.596 397.262,103.262 395.5,102.5C 393.909,99.5691 391.909,96.9024 389.5,94.5C 389.5,93.8333 389.5,93.1667 389.5,92.5C 391.028,92.4827 391.528,91.816 391,90.5C 382.962,82.1304 375.295,73.4637 368,64.5C 365.002,60.2152 364.835,55.8819 367.5,51.5 Z"/></g>
<g><path style="opacity:1" fill="#555555" d="M 309.5,53.5 C 310.167,53.8333 310.833,54.1667 311.5,54.5C 312.5,56.1667 313.833,57.5 315.5,58.5C 316.925,59.922 317.925,61.5887 318.5,63.5C 317.5,62.8333 316.5,62.1667 315.5,61.5C 314.5,59.8333 313.167,58.5 311.5,57.5C 311.167,56.5 310.5,55.8333 309.5,55.5C 309.5,54.8333 309.5,54.1667 309.5,53.5 Z"/></g>
<g><path style="opacity:1" fill="#9e9e9e" d="M 332.5,53.5 C 334.403,53.7959 336.07,54.4625 337.5,55.5C 336.5,55.5 335.5,55.5 334.5,55.5C 333.5,55.1667 332.833,54.5 332.5,53.5 Z"/></g>
<g><path style="opacity:1" fill="#cdcdcd" d="M 334.5,55.5 C 335.5,55.5 336.5,55.5 337.5,55.5C 338.568,56.4345 339.901,56.7678 341.5,56.5C 342.167,57.5 342.833,58.5 343.5,59.5C 340.209,58.486 337.209,57.1526 334.5,55.5 Z"/></g>
<g><path style="opacity:1" fill="#606060" d="M 341.5,56.5 C 343.882,58.0461 346.549,58.7128 349.5,58.5C 349.5,59.5 349.5,60.5 349.5,61.5C 348.167,61.1667 346.833,60.8333 345.5,60.5C 345.158,59.6618 344.492,59.3284 343.5,59.5C 342.833,58.5 342.167,57.5 341.5,56.5 Z"/></g>
<g><path style="opacity:1" fill="#d7d7d7" d="M 315.5,58.5 C 318.879,59.5814 320.879,61.9147 321.5,65.5C 320.5,64.8333 319.5,64.1667 318.5,63.5C 317.925,61.5887 316.925,59.922 315.5,58.5 Z"/></g>
<g><path style="opacity:1" fill="#cecece" d="M 345.5,60.5 C 346.833,60.8333 348.167,61.1667 349.5,61.5C 349.842,62.3382 350.508,62.6716 351.5,62.5C 351.833,63.1667 352.167,63.8333 352.5,64.5C 349.341,64.4259 347.008,63.0926 345.5,60.5 Z"/></g>
<g><path style="opacity:1" fill="#535353" d="M 318.5,63.5 C 319.5,64.1667 320.5,64.8333 321.5,65.5C 322.6,66.6049 323.267,67.9382 323.5,69.5C 321.833,68.1667 320.167,66.8333 318.5,65.5C 318.5,64.8333 318.5,64.1667 318.5,63.5 Z"/></g>
<g><path style="opacity:1" fill="#929292" d="M 351.5,62.5 C 352.167,62.5 352.833,62.5 353.5,62.5C 354.5,63.8333 355.5,65.1667 356.5,66.5C 354.938,66.2671 353.605,65.6005 352.5,64.5C 352.167,63.8333 351.833,63.1667 351.5,62.5 Z"/></g>
<g><path style="opacity:1" fill="#a8a8a8" d="M 356.5,66.5 C 357.833,66.8333 359.167,67.1667 360.5,67.5C 360.833,68.1667 361.167,68.8333 361.5,69.5C 359.152,69.4077 357.486,68.4077 356.5,66.5 Z"/></g>
<g><path style="opacity:1" fill="#7c7c7c" d="M 360.5,67.5 C 363.747,68.4123 366.08,70.4123 367.5,73.5C 365.223,72.5514 363.223,71.2181 361.5,69.5C 361.167,68.8333 360.833,68.1667 360.5,67.5 Z"/></g>
<g><path style="opacity:1" fill="#d2d2d2" d="M 321.5,65.5 C 322.583,65.5394 323.583,65.8728 324.5,66.5C 326.303,68.6191 327.636,70.9524 328.5,73.5C 327.833,73.1667 327.167,72.8333 326.5,72.5C 326.19,70.8564 325.19,69.8564 323.5,69.5C 323.267,67.9382 322.6,66.6049 321.5,65.5 Z"/></g>
<g><path style="opacity:1" fill="#494949" d="M 323.5,69.5 C 325.19,69.8564 326.19,70.8564 326.5,72.5C 326.5,73.1667 326.5,73.8333 326.5,74.5C 325.11,73.1007 324.11,71.4341 323.5,69.5 Z"/></g>
<g><path style="opacity:1" fill="#919191" d="M 367.5,73.5 C 369.749,74.0798 371.415,75.4131 372.5,77.5C 370.251,76.9202 368.585,75.5869 367.5,73.5 Z"/></g>
<g><path style="opacity:1" fill="#7c7c7c" d="M 326.5,72.5 C 327.167,72.8333 327.833,73.1667 328.5,73.5C 328.5,74.1667 328.5,74.8333 328.5,75.5C 327.833,75.1667 327.167,74.8333 326.5,74.5C 326.5,73.8333 326.5,73.1667 326.5,72.5 Z"/></g>
<g><path style="opacity:0.94" fill="#535353" d="M 398.5,76.5 C 424.548,101.579 441.548,131.912 449.5,167.5C 445.618,166.423 441.951,164.756 438.5,162.5C 427.063,136.287 413.563,111.287 398,87.5C 397.131,85.4194 396.631,83.2527 396.5,81C 396.307,78.9919 396.974,77.4919 398.5,76.5 Z"/></g>
<g><path style="opacity:1" fill="#7b7b7b" d="M 328.5,75.5 C 329.906,75.9731 330.573,76.9731 330.5,78.5C 329.094,78.0269 328.427,77.0269 328.5,75.5 Z"/></g>
<g><path style="opacity:1" fill="#848484" d="M 372.5,77.5 C 378.444,82.1057 384.11,87.1057 389.5,92.5C 389.5,93.1667 389.5,93.8333 389.5,94.5C 388.5,93.8333 387.5,93.1667 386.5,92.5C 381.833,87.5 377.167,82.5 372.5,77.5 Z"/></g>
<g><path style="opacity:1" fill="#7a7a7a" d="M 330.5,78.5 C 331.906,78.9731 332.573,79.9731 332.5,81.5C 331.094,81.0269 330.427,80.0269 330.5,78.5 Z"/></g>
<g><path style="opacity:1" fill="#b6b6b6" d="M 332.5,81.5 C 335.646,82.3095 337.313,84.3095 337.5,87.5C 336.5,86.8333 335.5,86.1667 334.5,85.5C 333.326,84.4863 332.66,83.153 332.5,81.5 Z"/></g>
<g><path style="opacity:1" fill="#696969" d="M 334.5,85.5 C 335.5,86.1667 336.5,86.8333 337.5,87.5C 337.557,88.609 337.89,89.609 338.5,90.5C 338.5,90.8333 338.5,91.1667 338.5,91.5C 338.5,92.1667 338.5,92.8333 338.5,93.5C 336.983,90.9648 335.65,88.2982 334.5,85.5 Z"/></g>
<g><path style="opacity:1" fill="#dfdfdf" d="M 338.5,91.5 C 338.5,91.1667 338.5,90.8333 338.5,90.5C 340.411,90.5743 341.578,91.5743 342,93.5C 342.662,95.8127 343.162,98.146 343.5,100.5C 343.167,100.5 342.833,100.5 342.5,100.5C 342.34,98.847 341.674,97.5137 340.5,96.5C 340.5,95.8333 340.5,95.1667 340.5,94.5C 340.573,92.9731 339.906,91.9731 338.5,91.5 Z"/></g>
<g><path style="opacity:1" fill="#a7a7a7" d="M 338.5,91.5 C 339.906,91.9731 340.573,92.9731 340.5,94.5C 339.833,94.1667 339.167,93.8333 338.5,93.5C 338.5,92.8333 338.5,92.1667 338.5,91.5 Z"/></g>
<g><path style="opacity:1" fill="#656565" d="M 338.5,93.5 C 339.167,93.8333 339.833,94.1667 340.5,94.5C 340.5,95.1667 340.5,95.8333 340.5,96.5C 339.094,96.0269 338.427,95.0269 338.5,93.5 Z"/></g>
<g><path style="opacity:1" fill="#bebebe" d="M 386.5,92.5 C 387.5,93.1667 388.5,93.8333 389.5,94.5C 391.909,96.9024 393.909,99.5691 395.5,102.5C 391.766,99.7689 388.766,96.4356 386.5,92.5 Z"/></g>
<g><path style="opacity:1" fill="#5d5d5d" d="M 340.5,96.5 C 341.674,97.5137 342.34,98.847 342.5,100.5C 342.5,101.167 342.5,101.833 342.5,102.5C 340.926,100.898 340.259,98.8984 340.5,96.5 Z"/></g>
<g><path style="opacity:1" fill="#a9a9a9" d="M 342.5,100.5 C 342.833,100.5 343.167,100.5 343.5,100.5C 344.11,101.391 344.443,102.391 344.5,103.5C 343.833,103.167 343.167,102.833 342.5,102.5C 342.5,101.833 342.5,101.167 342.5,100.5 Z"/></g>
<g><path style="opacity:1" fill="#a0a0a0" d="M 395.5,102.5 C 397.262,103.262 398.262,104.596 398.5,106.5C 396.738,105.738 395.738,104.404 395.5,102.5 Z"/></g>
<g><path style="opacity:1" fill="#747474" d="M 342.5,102.5 C 343.167,102.833 343.833,103.167 344.5,103.5C 345.15,105.435 345.483,107.435 345.5,109.5C 344.313,107.928 343.313,106.261 342.5,104.5C 342.5,103.833 342.5,103.167 342.5,102.5 Z"/></g>
<g><path style="opacity:0.978" fill="#494949" d="M 453.5,206.5 C 453.5,211.5 453.5,216.5 453.5,221.5C 452.775,225.395 452.109,229.395 451.5,233.5C 447.992,232.496 444.826,230.829 442,228.5C 439.745,211.789 437.079,195.122 434,178.5C 431.059,165.344 426.726,152.678 421,140.5C 420.414,143.729 420.914,146.729 422.5,149.5C 421.833,149.167 421.167,148.833 420.5,148.5C 420.011,147.005 419.345,145.671 418.5,144.5C 418.741,142.102 418.074,140.102 416.5,138.5C 416.408,134.316 414.741,130.983 411.5,128.5C 411.573,126.973 410.906,125.973 409.5,125.5C 409.5,124.833 409.5,124.167 409.5,123.5C 408.777,119.299 407.11,115.632 404.5,112.5C 404.351,111.448 404.517,110.448 405,109.5C 412.675,120.175 419.342,131.508 425,143.5C 431.739,161.717 438.072,180.05 444,198.5C 446.766,201.777 449.933,204.443 453.5,206.5 Z"/></g>
<g><path style="opacity:1" fill="#939393" d="M 398.5,106.5 C 400.914,107.911 402.581,109.911 403.5,112.5C 402.5,111.833 401.5,111.167 400.5,110.5C 399.4,109.395 398.733,108.062 398.5,106.5 Z"/></g>
<g><path style="opacity:1" fill="#e1e1e1" d="M 400.5,110.5 C 401.5,111.167 402.5,111.833 403.5,112.5C 404.167,114.5 404.833,116.5 405.5,118.5C 402.231,116.886 400.564,114.219 400.5,110.5 Z"/></g>
<g><path style="opacity:1" fill="#797979" d="M 403.5,112.5 C 403.833,112.5 404.167,112.5 404.5,112.5C 407.11,115.632 408.777,119.299 409.5,123.5C 407.926,122.016 406.593,120.349 405.5,118.5C 404.833,116.5 404.167,114.5 403.5,112.5 Z"/></g>
<g><path style="opacity:1" fill="#9e9e9e" d="M 345.5,109.5 C 346.924,111.515 347.59,113.848 347.5,116.5C 346.833,115.5 346.167,114.5 345.5,113.5C 345.5,112.167 345.5,110.833 345.5,109.5 Z"/></g>
<g><path style="opacity:1" fill="#202020" d="M 342.5,104.5 C 343.313,106.261 344.313,107.928 345.5,109.5C 345.5,110.833 345.5,112.167 345.5,113.5C 346.167,117.167 346.833,120.833 347.5,124.5C 345.102,118.13 343.436,111.463 342.5,104.5 Z"/></g>
<g><path style="opacity:1" fill="#686868" d="M 345.5,113.5 C 346.167,114.5 346.833,115.5 347.5,116.5C 348.451,117.919 348.784,119.585 348.5,121.5C 348.5,122.5 348.5,123.5 348.5,124.5C 348.167,124.5 347.833,124.5 347.5,124.5C 346.833,120.833 346.167,117.167 345.5,113.5 Z"/></g>
<g><path style="opacity:1" fill="#bfbfbf" d="M 348.5,121.5 C 349.924,123.515 350.59,125.848 350.5,128.5C 350.5,129.833 350.5,131.167 350.5,132.5C 349.833,130.167 349.167,127.833 348.5,125.5C 348.5,125.167 348.5,124.833 348.5,124.5C 348.5,123.5 348.5,122.5 348.5,121.5 Z"/></g>
<g><path style="opacity:1" fill="#afafaf" d="M 409.5,125.5 C 410.906,125.973 411.573,126.973 411.5,128.5C 410.094,128.027 409.427,127.027 409.5,125.5 Z"/></g>
<g><path style="opacity:1" fill="#999999" d="M 411.5,128.5 C 414.741,130.983 416.408,134.316 416.5,138.5C 414.78,135.136 413.113,131.803 411.5,128.5 Z"/></g>
<g><path style="opacity:0.978" fill="#424242" d="M 451.5,233.5 C 451.039,239.929 450.039,246.263 448.5,252.5C 443.963,251.153 440.463,248.486 438,244.5C 436.648,228.523 435.648,212.523 435,196.5C 433.882,187.233 431.882,178.233 429,169.5C 428.506,171.134 428.34,172.801 428.5,174.5C 427.833,172.167 427.167,169.833 426.5,167.5C 426.5,166.833 426.5,166.167 426.5,165.5C 426.741,163.102 426.074,161.102 424.5,159.5C 424.041,156.123 423.374,152.789 422.5,149.5C 420.914,146.729 420.414,143.729 421,140.5C 426.726,152.678 431.059,165.344 434,178.5C 437.079,195.122 439.745,211.789 442,228.5C 444.826,230.829 447.992,232.496 451.5,233.5 Z"/></g>
<g><path style="opacity:1" fill="#adadad" d="M 416.5,138.5 C 418.074,140.102 418.741,142.102 418.5,144.5C 416.926,142.898 416.259,140.898 416.5,138.5 Z"/></g>
<g><path style="opacity:1" fill="#d8d8d8" d="M 350.5,128.5 C 353.801,141.074 353.135,153.407 348.5,165.5C 348.5,163.167 348.5,160.833 348.5,158.5C 348.205,156.265 348.539,154.265 349.5,152.5C 350.491,146.021 350.824,139.354 350.5,132.5C 350.5,131.167 350.5,129.833 350.5,128.5 Z"/></g>
<g><path style="opacity:1" fill="#7b7b7b" d="M 348.5,125.5 C 349.167,127.833 349.833,130.167 350.5,132.5C 350.824,139.354 350.491,146.021 349.5,152.5C 349.552,143.482 349.218,134.482 348.5,125.5 Z"/></g>
<g><path style="opacity:1" fill="#b9b9b9" d="M 418.5,144.5 C 419.345,145.671 420.011,147.005 420.5,148.5C 420.833,149.833 421.167,151.167 421.5,152.5C 419.345,150.383 418.345,147.716 418.5,144.5 Z"/></g>
<g><path style="opacity:1" fill="#757575" d="M 420.5,148.5 C 421.167,148.833 421.833,149.167 422.5,149.5C 423.374,152.789 424.041,156.123 424.5,159.5C 423.5,157.5 422.5,155.5 421.5,153.5C 421.5,153.167 421.5,152.833 421.5,152.5C 421.167,151.167 420.833,149.833 420.5,148.5 Z"/></g>
<g><path style="opacity:0.995" fill="#0b0b0b" d="M 172.5,171.5 C 171.167,171.5 169.833,171.5 168.5,171.5C 162.445,165.628 155.778,160.461 148.5,156C 140.949,154.026 135.449,156.526 132,163.5C 130.592,167.057 129.592,170.724 129,174.5C 128.822,195.573 128.322,216.573 127.5,237.5C 117.544,238.718 107.544,239.385 97.5,239.5C 106.978,238.679 116.478,237.346 126,235.5C 125.384,216.207 125.384,196.874 126,177.5C 126.268,172.35 127.268,167.35 129,162.5C 135.467,150.677 144.301,148.511 155.5,156C 161.362,161.033 167.029,166.199 172.5,171.5 Z"/></g>
<g><path style="opacity:0.995" fill="#111111" d="M 168.5,171.5 C 166.5,171.5 164.5,171.5 162.5,171.5C 157.759,165.795 151.759,162.128 144.5,160.5C 138.78,160.793 135.28,163.793 134,169.5C 132.865,192.189 132.032,214.856 131.5,237.5C 130.167,237.5 128.833,237.5 127.5,237.5C 128.322,216.573 128.822,195.573 129,174.5C 129.592,170.724 130.592,167.057 132,163.5C 135.449,156.526 140.949,154.026 148.5,156C 155.778,160.461 162.445,165.628 168.5,171.5 Z"/></g>
<g><path style="opacity:1" fill="#c1c1c1" d="M 421.5,153.5 C 422.5,155.5 423.5,157.5 424.5,159.5C 424.5,160.833 424.5,162.167 424.5,163.5C 422.723,160.495 421.723,157.162 421.5,153.5 Z"/></g>
<g><path style="opacity:0.996" fill="#202020" d="M 162.5,171.5 C 161.508,171.328 160.842,171.662 160.5,172.5C 155.999,169.08 150.999,166.414 145.5,164.5C 139.568,166.27 136.401,170.27 136,176.5C 136.138,197.063 135.305,217.397 133.5,237.5C 132.833,237.5 132.167,237.5 131.5,237.5C 132.032,214.856 132.865,192.189 134,169.5C 135.28,163.793 138.78,160.793 144.5,160.5C 151.759,162.128 157.759,165.795 162.5,171.5 Z"/></g>
<g><path style="opacity:1" fill="#828282" d="M 424.5,159.5 C 426.074,161.102 426.741,163.102 426.5,165.5C 426.167,165.5 425.833,165.5 425.5,165.5C 425.672,164.508 425.338,163.842 424.5,163.5C 424.5,162.167 424.5,160.833 424.5,159.5 Z"/></g>
<g><path style="opacity:1" fill="#858585" d="M 348.5,158.5 C 348.5,160.833 348.5,163.167 348.5,165.5C 348.5,166.167 348.5,166.833 348.5,167.5C 347.935,169.42 346.935,171.087 345.5,172.5C 346.509,167.717 347.509,163.05 348.5,158.5 Z"/></g>
<g><path style="opacity:0.994" fill="#2c2c2c" d="M 160.5,172.5 C 160.5,173.833 160.5,175.167 160.5,176.5C 156.305,173.324 151.638,170.991 146.5,169.5C 143.349,169.811 141.182,171.477 140,174.5C 138.857,195.492 138.024,216.492 137.5,237.5C 136.167,237.5 134.833,237.5 133.5,237.5C 135.305,217.397 136.138,197.063 136,176.5C 136.401,170.27 139.568,166.27 145.5,164.5C 150.999,166.414 155.999,169.08 160.5,172.5 Z"/></g>
<g><path style="opacity:0.978" fill="#3c3c3c" d="M 448.5,252.5 C 447.232,257.971 445.565,263.304 443.5,268.5C 439.516,267.26 436.349,264.926 434,261.5C 433.667,240.167 433.333,218.833 433,197.5C 432.66,193.442 431.993,189.442 431,185.5C 430.667,196.833 430.333,208.167 430,219.5C 429.768,220.737 429.268,221.737 428.5,222.5C 428.5,220.833 428.5,219.167 428.5,217.5C 429.69,203.324 429.69,188.991 428.5,174.5C 428.34,172.801 428.506,171.134 429,169.5C 431.882,178.233 433.882,187.233 435,196.5C 435.648,212.523 436.648,228.523 438,244.5C 440.463,248.486 443.963,251.153 448.5,252.5 Z"/></g>
<g><path style="opacity:0.992" fill="#393939" d="M 160.5,176.5 C 160.5,178.5 160.5,180.5 160.5,182.5C 156.753,179.208 152.586,176.541 148,174.5C 146,175.167 144.667,176.5 144,178.5C 142.859,197.825 142.026,217.158 141.5,236.5C 140.292,237.234 138.959,237.567 137.5,237.5C 138.024,216.492 138.857,195.492 140,174.5C 141.182,171.477 143.349,169.811 146.5,169.5C 151.638,170.991 156.305,173.324 160.5,176.5 Z"/></g>
<g><path style="opacity:0.992" fill="#414141" d="M 160.5,182.5 C 160.5,183.833 160.5,185.167 160.5,186.5C 157.095,183.762 153.428,181.429 149.5,179.5C 148.353,179.818 147.519,180.484 147,181.5C 145.729,197.113 145.063,212.78 145,228.5C 144.667,230.833 144.333,233.167 144,235.5C 143.329,236.252 142.496,236.586 141.5,236.5C 142.026,217.158 142.859,197.825 144,178.5C 144.667,176.5 146,175.167 148,174.5C 152.586,176.541 156.753,179.208 160.5,182.5 Z"/></g>
<g><path style="opacity:1" fill="#3d3d3d" d="M 344.5,174.5 C 344.5,175.167 344.5,175.833 344.5,176.5C 343.833,176.833 343.167,177.167 342.5,177.5C 342.427,175.973 343.094,174.973 344.5,174.5 Z"/></g>
<g><path style="opacity:1" fill="#757575" d="M 344.5,176.5 C 344.573,178.027 343.906,179.027 342.5,179.5C 342.5,178.833 342.5,178.167 342.5,177.5C 343.167,177.167 343.833,176.833 344.5,176.5 Z"/></g>
<g><path style="opacity:0.973" fill="#4a4a4a" d="M 160.5,186.5 C 160.5,202.5 160.5,218.5 160.5,234.5C 160.5,234.833 160.5,235.167 160.5,235.5C 160.5,235.833 160.5,236.167 160.5,236.5C 160.5,236.833 160.5,237.167 160.5,237.5C 148.31,237.511 136.31,238.177 124.5,239.5C 121.287,239.19 118.287,239.523 115.5,240.5C 114.833,240.5 114.167,240.5 113.5,240.5C 106.5,240.5 99.5,240.5 92.5,240.5C 93.9187,239.549 95.5853,239.216 97.5,239.5C 107.544,239.385 117.544,238.718 127.5,237.5C 128.833,237.5 130.167,237.5 131.5,237.5C 132.167,237.5 132.833,237.5 133.5,237.5C 134.833,237.5 136.167,237.5 137.5,237.5C 138.959,237.567 140.292,237.234 141.5,236.5C 142.496,236.586 143.329,236.252 144,235.5C 144.333,233.167 144.667,230.833 145,228.5C 145.063,212.78 145.729,197.113 147,181.5C 147.519,180.484 148.353,179.818 149.5,179.5C 153.428,181.429 157.095,183.762 160.5,186.5 Z"/></g>
<g><path style="opacity:1" fill="#d9d9d9" d="M 348.5,167.5 C 348.19,171.268 347.357,174.935 346,178.5C 345.451,180.76 344.284,182.426 342.5,183.5C 342.5,182.167 342.5,180.833 342.5,179.5C 343.906,179.027 344.573,178.027 344.5,176.5C 344.5,175.833 344.5,175.167 344.5,174.5C 344.328,173.508 344.662,172.842 345.5,172.5C 346.935,171.087 347.935,169.42 348.5,167.5 Z"/></g>
<g><path style="opacity:1" fill="#595959" d="M 342.5,179.5 C 342.5,180.833 342.5,182.167 342.5,183.5C 341.13,185.25 340.13,187.25 339.5,189.5C 338.833,189.833 338.167,190.167 337.5,190.5C 338.223,186.299 339.89,182.632 342.5,179.5 Z"/></g>
<g><path style="opacity:0.976" fill="#353535" d="M 443.5,268.5 C 441.955,274.577 439.622,280.244 436.5,285.5C 434.519,283.697 432.352,282.03 430,280.5C 429.138,278.913 428.471,277.246 428,275.5C 428.708,259.992 429.875,244.492 431.5,229C 431.333,226.5 431.167,224 431,221.5C 430.243,223.315 429.41,224.981 428.5,226.5C 428.5,225.167 428.5,223.833 428.5,222.5C 429.268,221.737 429.768,220.737 430,219.5C 430.333,208.167 430.667,196.833 431,185.5C 431.993,189.442 432.66,193.442 433,197.5C 433.333,218.833 433.667,240.167 434,261.5C 436.349,264.926 439.516,267.26 443.5,268.5 Z"/></g>
<g><path style="opacity:1" fill="#d3d3d3" d="M 342.5,183.5 C 342.834,186.491 341.834,188.824 339.5,190.5C 339.5,190.167 339.5,189.833 339.5,189.5C 340.13,187.25 341.13,185.25 342.5,183.5 Z"/></g>
<g><path style="opacity:1" fill="#9a9a9a" d="M 339.5,189.5 C 339.5,189.833 339.5,190.167 339.5,190.5C 339.5,190.833 339.5,191.167 339.5,191.5C 338.833,191.833 338.167,192.167 337.5,192.5C 337.5,191.833 337.5,191.167 337.5,190.5C 338.167,190.167 338.833,189.833 339.5,189.5 Z"/></g>
<g><path style="opacity:1" fill="#e0e0e0" d="M 425.5,165.5 C 425.833,165.5 426.167,165.5 426.5,165.5C 426.5,166.167 426.5,166.833 426.5,167.5C 426.907,173.161 427.24,178.828 427.5,184.5C 427.76,198.196 427.427,211.863 426.5,225.5C 426.5,226.5 426.5,227.5 426.5,228.5C 426.167,228.5 425.833,228.5 425.5,228.5C 426.78,207.501 426.78,186.501 425.5,165.5 Z"/></g>
<g><path style="opacity:1" fill="#585858" d="M 337.5,190.5 C 337.5,191.167 337.5,191.833 337.5,192.5C 336.396,194.389 335.063,196.055 333.5,197.5C 334.079,194.669 335.412,192.336 337.5,190.5 Z"/></g>
<g><path style="opacity:1" fill="#c9c9c9" d="M 339.5,191.5 C 337.984,194.533 335.984,197.2 333.5,199.5C 333.5,198.833 333.5,198.167 333.5,197.5C 335.063,196.055 336.396,194.389 337.5,192.5C 338.167,192.167 338.833,191.833 339.5,191.5 Z"/></g>
<g><path style="opacity:1" fill="#717171" d="M 426.5,167.5 C 427.167,169.833 427.833,172.167 428.5,174.5C 429.69,188.991 429.69,203.324 428.5,217.5C 428.828,206.321 428.495,195.321 427.5,184.5C 427.24,178.828 426.907,173.161 426.5,167.5 Z"/></g>
<g><path style="opacity:1" fill="#6e6e6e" d="M 333.5,197.5 C 333.5,198.167 333.5,198.833 333.5,199.5C 328.871,205.797 323.538,211.463 317.5,216.5C 315.784,218.025 313.784,219.025 311.5,219.5C 319.833,213.167 327.167,205.833 333.5,197.5 Z"/></g>
<g><path style="opacity:1" fill="#a3a3a3" d="M 427.5,184.5 C 428.495,195.321 428.828,206.321 428.5,217.5C 428.5,219.167 428.5,220.833 428.5,222.5C 427.833,223.5 427.167,224.5 426.5,225.5C 427.427,211.863 427.76,198.196 427.5,184.5 Z"/></g>
<g><path style="opacity:1" fill="#4d4d4d" d="M 311.5,219.5 C 311.167,220.167 310.833,220.833 310.5,221.5C 309.167,221.833 307.833,222.167 306.5,222.5C 307.659,220.75 309.326,219.75 311.5,219.5 Z"/></g>
<g><path style="opacity:0.974" fill="#2e2e2e" d="M 436.5,285.5 C 435.008,289.818 433.008,293.818 430.5,297.5C 424.593,294.256 421.593,289.256 421.5,282.5C 424.544,266.736 427.211,250.902 429.5,235C 429.316,233.624 428.649,232.791 427.5,232.5C 427.205,230.265 427.539,228.265 428.5,226.5C 429.41,224.981 430.243,223.315 431,221.5C 431.167,224 431.333,226.5 431.5,229C 429.875,244.492 428.708,259.992 428,275.5C 428.471,277.246 429.138,278.913 430,280.5C 432.352,282.03 434.519,283.697 436.5,285.5 Z"/></g>
<g><path style="opacity:1" fill="#a0a0a0" d="M 310.5,221.5 C 308.833,222.833 307.167,224.167 305.5,225.5C 304.833,225.5 304.167,225.5 303.5,225.5C 303.833,224.833 304.167,224.167 304.5,223.5C 305.167,223.167 305.833,222.833 306.5,222.5C 307.833,222.167 309.167,221.833 310.5,221.5 Z"/></g>
<g><path style="opacity:0.725" fill="#5d5d5d" d="M 304.5,223.5 C 304.167,224.167 303.833,224.833 303.5,225.5C 301.833,225.5 300.167,225.5 298.5,225.5C 299.762,222.533 301.762,221.866 304.5,223.5 Z"/></g>
<g><path style="opacity:1" fill="#e1e1e1" d="M 317.5,216.5 C 316.073,219.764 313.739,222.264 310.5,224C 308.846,224.608 307.179,225.108 305.5,225.5C 307.167,224.167 308.833,222.833 310.5,221.5C 310.833,220.833 311.167,220.167 311.5,219.5C 313.784,219.025 315.784,218.025 317.5,216.5 Z"/></g>
<g><path style="opacity:0.071" fill="#393939" d="M 294.5,225.5 C 295.833,225.5 297.167,225.5 298.5,225.5C 298.5,226.167 298.167,226.5 297.5,226.5C 295.5,226.5 293.5,226.5 291.5,226.5C 291.369,225.761 291.536,225.094 292,224.5C 292.671,225.252 293.504,225.586 294.5,225.5 Z"/></g>
<g><path style="opacity:0.325" fill="#727272" d="M 290.5,226.5 C 290.833,226.5 291.167,226.5 291.5,226.5C 293.5,226.5 295.5,226.5 297.5,226.5C 294.155,228.217 290.489,228.884 286.5,228.5C 287.833,227.833 289.167,227.167 290.5,226.5 Z"/></g>
<g><path style="opacity:0.773" fill="#acacac" d="M 298.5,225.5 C 300.167,225.5 301.833,225.5 303.5,225.5C 300.782,226.104 298.449,227.437 296.5,229.5C 292.534,230.162 288.534,230.495 284.5,230.5C 285.167,229.833 285.833,229.167 286.5,228.5C 290.489,228.884 294.155,228.217 297.5,226.5C 298.167,226.5 298.5,226.167 298.5,225.5 Z"/></g>
<g><path style="opacity:0.01" fill="#343434" d="M 290.5,226.5 C 289.167,227.167 287.833,227.833 286.5,228.5C 284.102,228.259 282.102,228.926 280.5,230.5C 278.833,230.5 277.167,230.5 275.5,230.5C 267.167,230.5 258.833,230.5 250.5,230.5C 249.737,229.732 248.737,229.232 247.5,229C 248.167,228.833 248.833,228.667 249.5,228.5C 257.541,229.374 265.541,229.707 273.5,229.5C 276.145,228.892 278.812,228.392 281.5,228C 280.304,227.346 280.304,226.846 281.5,226.5C 284.634,226.6 287.634,226.6 290.5,226.5 Z"/></g>
<g><path style="opacity:0.267" fill="#6e6e6e" d="M 286.5,228.5 C 285.833,229.167 285.167,229.833 284.5,230.5C 284.167,230.5 283.833,230.5 283.5,230.5C 282.5,230.5 281.5,230.5 280.5,230.5C 282.102,228.926 284.102,228.259 286.5,228.5 Z"/></g>
<g><path style="opacity:0.018" fill="#414141" d="M 250.5,230.5 C 258.833,230.5 267.167,230.5 275.5,230.5C 275.5,231.167 275.167,231.5 274.5,231.5C 265.833,231.5 257.167,231.5 248.5,231.5C 233.17,231.94 217.836,232.273 202.5,232.5C 208.653,231.672 214.987,231.172 221.5,231C 220.833,230.667 220.167,230.333 219.5,230C 229.807,230.304 240.14,230.471 250.5,230.5 Z"/></g>
<g><path style="opacity:1" fill="#9b9b9b" d="M 425.5,228.5 C 425.833,228.5 426.167,228.5 426.5,228.5C 425.833,232.167 425.167,235.833 424.5,239.5C 424.167,239.5 423.833,239.5 423.5,239.5C 423.416,235.669 424.083,232.002 425.5,228.5 Z"/></g>
<g><path style="opacity:0.114" fill="#686868" d="M 248.5,231.5 C 241.833,232.167 235.167,232.833 228.5,233.5C 223.527,234.164 218.527,234.497 213.5,234.5C 207.833,234.5 202.167,234.5 196.5,234.5C 198.5,233.833 200.5,233.167 202.5,232.5C 217.836,232.273 233.17,231.94 248.5,231.5 Z"/></g>
<g><path style="opacity:0.323" fill="#8c8c8c" d="M 248.5,231.5 C 257.167,231.5 265.833,231.5 274.5,231.5C 266.5,232.167 258.5,232.833 250.5,233.5C 249.833,233.5 249.167,233.5 248.5,233.5C 241.833,233.5 235.167,233.5 228.5,233.5C 235.167,232.833 241.833,232.167 248.5,231.5 Z"/></g>
<g><path style="opacity:0.646" fill="#b2b2b2" d="M 275.5,230.5 C 277.167,230.5 278.833,230.5 280.5,230.5C 281.5,230.5 282.5,230.5 283.5,230.5C 280.977,231.384 278.31,232.218 275.5,233C 267.173,233.5 258.84,233.666 250.5,233.5C 258.5,232.833 266.5,232.167 274.5,231.5C 275.167,231.5 275.5,231.167 275.5,230.5 Z"/></g>
<g><path style="opacity:0.976" fill="#282828" d="M 427.5,232.5 C 428.649,232.791 429.316,233.624 429.5,235C 427.211,250.902 424.544,266.736 421.5,282.5C 421.593,289.256 424.593,294.256 430.5,297.5C 428.316,301.881 425.65,305.881 422.5,309.5C 417.126,306.622 414.459,302.122 414.5,296C 417.582,281.417 421.082,266.917 425,252.5C 425.789,250.288 425.622,248.288 424.5,246.5C 424.5,244.167 424.5,241.833 424.5,239.5C 425.677,237.321 426.677,234.987 427.5,232.5 Z"/></g>
<g><path style="opacity:0.029" fill="#525252" d="M 202.5,232.5 C 200.5,233.167 198.5,233.833 196.5,234.5C 184.526,235.392 172.526,235.725 160.5,235.5C 160.5,235.167 160.5,234.833 160.5,234.5C 174.55,232.817 188.55,232.15 202.5,232.5 Z"/></g>
<g><path style="opacity:0.58" fill="#b3b3b3" d="M 228.5,233.5 C 235.167,233.5 241.833,233.5 248.5,233.5C 247.791,234.404 246.791,234.737 245.5,234.5C 234.83,234.755 224.164,235.088 213.5,235.5C 213.5,235.167 213.5,234.833 213.5,234.5C 218.527,234.497 223.527,234.164 228.5,233.5 Z"/></g>
<g><path style="opacity:0.496" fill="#9f9f9f" d="M 196.5,234.5 C 202.167,234.5 207.833,234.5 213.5,234.5C 213.5,234.833 213.5,235.167 213.5,235.5C 195.842,236.185 178.175,236.518 160.5,236.5C 160.5,236.167 160.5,235.833 160.5,235.5C 172.526,235.725 184.526,235.392 196.5,234.5 Z"/></g>
<g><path style="opacity:0.85" fill="#cecece" d="M 245.5,234.5 C 230.85,235.785 216.183,236.785 201.5,237.5C 201.167,237.5 200.833,237.5 200.5,237.5C 187.167,237.5 173.833,237.5 160.5,237.5C 160.5,237.167 160.5,236.833 160.5,236.5C 178.175,236.518 195.842,236.185 213.5,235.5C 224.164,235.088 234.83,234.755 245.5,234.5 Z"/></g>
<g><path style="opacity:1" fill="#575757" d="M 428.5,222.5 C 428.5,223.833 428.5,225.167 428.5,226.5C 427.539,228.265 427.205,230.265 427.5,232.5C 426.677,234.987 425.677,237.321 424.5,239.5C 425.167,235.833 425.833,232.167 426.5,228.5C 426.5,227.5 426.5,226.5 426.5,225.5C 427.167,224.5 427.833,223.5 428.5,222.5 Z"/></g>
<g><path style="opacity:0.984" fill="#ececec" d="M 296.5,229.5 C 289.111,231.41 281.444,233.243 273.5,235C 249.52,236.469 225.52,237.302 201.5,237.5C 216.183,236.785 230.85,235.785 245.5,234.5C 246.791,234.737 247.791,234.404 248.5,233.5C 249.167,233.5 249.833,233.5 250.5,233.5C 258.84,233.666 267.173,233.5 275.5,233C 278.31,232.218 280.977,231.384 283.5,230.5C 283.833,230.5 284.167,230.5 284.5,230.5C 288.534,230.495 292.534,230.162 296.5,229.5 Z"/></g>
<g><path style="opacity:1" fill="#9a9a9a" d="M 160.5,237.5 C 148.7,239.016 136.7,239.682 124.5,239.5C 136.31,238.177 148.31,237.511 160.5,237.5 Z"/></g>
<g><path style="opacity:0.953" fill="#dfdfdf" d="M 160.5,237.5 C 173.833,237.5 187.167,237.5 200.5,237.5C 178.68,239.037 156.68,240.037 134.5,240.5C 128.167,240.5 121.833,240.5 115.5,240.5C 118.287,239.523 121.287,239.19 124.5,239.5C 136.7,239.682 148.7,239.016 160.5,237.5 Z"/></g>
<g><path style="opacity:1" fill="#727272" d="M 92.5,240.5 C 89.1667,241.167 85.8333,241.833 82.5,242.5C 80.1667,242.5 77.8333,242.5 75.5,242.5C 75.1667,242.5 74.8333,242.5 74.5,242.5C 74.5,242.167 74.5,241.833 74.5,241.5C 80.4093,240.545 86.4093,240.211 92.5,240.5 Z"/></g>
<g><path style="opacity:1" fill="#b9b9b9" d="M 92.5,240.5 C 99.5,240.5 106.5,240.5 113.5,240.5C 103.342,241.527 93.0088,242.193 82.5,242.5C 85.8333,241.833 89.1667,241.167 92.5,240.5 Z"/></g>
<g><path style="opacity:1" fill="#eaeaea" d="M 113.5,240.5 C 114.167,240.5 114.833,240.5 115.5,240.5C 121.833,240.5 128.167,240.5 134.5,240.5C 115.032,242.371 95.3653,243.371 75.5,243.5C 75.5,243.167 75.5,242.833 75.5,242.5C 77.8333,242.5 80.1667,242.5 82.5,242.5C 93.0088,242.193 103.342,241.527 113.5,240.5 Z"/></g>
<g><path style="opacity:1" fill="#5c5c5c" d="M 74.5,241.5 C 74.5,241.833 74.5,242.167 74.5,242.5C 68.9191,244.457 63.2524,246.124 57.5,247.5C 62.6221,244.346 68.2888,242.346 74.5,241.5 Z"/></g>
<g><path style="opacity:1" fill="#cecece" d="M 74.5,242.5 C 74.8333,242.5 75.1667,242.5 75.5,242.5C 75.5,242.833 75.5,243.167 75.5,243.5C 69.3117,245.896 62.9784,247.896 56.5,249.5C 56.8333,248.833 57.1667,248.167 57.5,247.5C 63.2524,246.124 68.9191,244.457 74.5,242.5 Z"/></g>
<g><path style="opacity:0.974" fill="#222222" d="M 424.5,246.5 C 425.622,248.288 425.789,250.288 425,252.5C 421.082,266.917 417.582,281.417 414.5,296C 414.459,302.122 417.126,306.622 422.5,309.5C 420.262,314.071 417.262,318.071 413.5,321.5C 406.514,315.584 404.681,308.251 408,299.5C 412.898,287.034 417.232,274.368 421,261.5C 421.667,260.167 421.667,258.833 421,257.5C 420.617,258.056 420.117,258.389 419.5,258.5C 419.833,257.167 420.167,255.833 420.5,254.5C 421.634,251.784 422.967,249.118 424.5,246.5 Z"/></g>
<g><path style="opacity:1" fill="#4d4d4d" d="M 423.5,239.5 C 423.833,239.5 424.167,239.5 424.5,239.5C 424.5,241.833 424.5,244.167 424.5,246.5C 422.967,249.118 421.634,251.784 420.5,254.5C 421.5,249.833 422.5,245.167 423.5,240.5C 423.5,240.167 423.5,239.833 423.5,239.5 Z"/></g>
<g><path style="opacity:1" fill="#4f4f4f" d="M 55.5,247.5 C 55.1667,248.167 54.8333,248.833 54.5,249.5C 53.8333,249.5 53.1667,249.5 52.5,249.5C 52.9731,248.094 53.9731,247.427 55.5,247.5 Z"/></g>
<g><path style="opacity:1" fill="#9f9f9f" d="M 55.5,247.5 C 56.1667,247.5 56.8333,247.5 57.5,247.5C 57.1667,248.167 56.8333,248.833 56.5,249.5C 55.8333,249.5 55.1667,249.5 54.5,249.5C 54.8333,248.833 55.1667,248.167 55.5,247.5 Z"/></g>
<g><path style="opacity:1" fill="#a1a1a1" d="M 423.5,240.5 C 422.5,245.167 421.5,249.833 420.5,254.5C 420.167,254.5 419.833,254.5 419.5,254.5C 419.5,253.833 419.5,253.167 419.5,252.5C 420.261,248.216 421.595,244.216 423.5,240.5 Z"/></g>
<g><path style="opacity:1" fill="#d5d5d5" d="M 52.5,249.5 C 53.1667,249.5 53.8333,249.5 54.5,249.5C 53.4154,251.587 51.7488,252.92 49.5,253.5C 50.5,252.167 51.5,250.833 52.5,249.5 Z"/></g>
<g><path style="opacity:1" fill="#6a6a6a" d="M 52.5,249.5 C 51.5,250.833 50.5,252.167 49.5,253.5C 48.391,253.557 47.391,253.89 46.5,254.5C 46.1667,254.5 45.8333,254.5 45.5,254.5C 47.5496,252.453 49.883,250.786 52.5,249.5 Z"/></g>
<g><path style="opacity:1" fill="#d7d7d7" d="M 419.5,252.5 C 419.5,253.167 419.5,253.833 419.5,254.5C 418.167,256.5 416.833,258.5 415.5,260.5C 415.361,256.966 416.694,254.299 419.5,252.5 Z"/></g>
<g><path style="opacity:1" fill="#959595" d="M 45.5,254.5 C 45.8333,254.5 46.1667,254.5 46.5,254.5C 43.5,258.167 40.1667,261.5 36.5,264.5C 36.5,264.167 36.5,263.833 36.5,263.5C 39.1667,260.167 42.1667,257.167 45.5,254.5 Z"/></g>
<g><path style="opacity:0.976" fill="#1c1c1c" d="M 413.5,321.5 C 409.971,326.548 405.971,331.215 401.5,335.5C 395.576,331.75 393.076,326.417 394,319.5C 400.637,305.059 407.137,290.559 413.5,276C 413.333,275.5 413.167,275 413,274.5C 412.722,275.416 412.222,276.082 411.5,276.5C 411.629,274.784 411.962,273.117 412.5,271.5C 412.5,270.833 412.5,270.167 412.5,269.5C 413.906,269.027 414.573,268.027 414.5,266.5C 414.328,265.508 414.662,264.842 415.5,264.5C 416.833,262.5 418.167,260.5 419.5,258.5C 420.117,258.389 420.617,258.056 421,257.5C 421.667,258.833 421.667,260.167 421,261.5C 417.232,274.368 412.898,287.034 408,299.5C 404.681,308.251 406.514,315.584 413.5,321.5 Z"/></g>
<g><path style="opacity:1" fill="#6b6b6b" d="M 419.5,254.5 C 419.833,254.5 420.167,254.5 420.5,254.5C 420.167,255.833 419.833,257.167 419.5,258.5C 418.167,260.5 416.833,262.5 415.5,264.5C 415.5,263.167 415.5,261.833 415.5,260.5C 416.833,258.5 418.167,256.5 419.5,254.5 Z"/></g>
<g><path style="opacity:1" fill="#505050" d="M 36.5,263.5 C 36.5,263.833 36.5,264.167 36.5,264.5C 36.5,264.833 36.5,265.167 36.5,265.5C 35.5,266.167 34.5,266.833 33.5,267.5C 33.7376,265.596 34.7376,264.262 36.5,263.5 Z"/></g>
<g><path style="opacity:1" fill="#d0d0d0" d="M 415.5,260.5 C 415.5,261.833 415.5,263.167 415.5,264.5C 414.662,264.842 414.328,265.508 414.5,266.5C 413.094,266.973 412.427,267.973 412.5,269.5C 411.833,269.833 411.167,270.167 410.5,270.5C 411.675,266.817 413.341,263.484 415.5,260.5 Z"/></g>
<g><path style="opacity:1" fill="#7d7d7d" d="M 414.5,266.5 C 414.573,268.027 413.906,269.027 412.5,269.5C 412.427,267.973 413.094,266.973 414.5,266.5 Z"/></g>
<g><path style="opacity:1" fill="#b1b1b1" d="M 36.5,265.5 C 35.7023,267.966 34.369,269.966 32.5,271.5C 32.5,270.833 32.5,270.167 32.5,269.5C 33.3382,269.158 33.6716,268.492 33.5,267.5C 34.5,266.833 35.5,266.167 36.5,265.5 Z"/></g>
<g><path style="opacity:1" fill="#9d9d9d" d="M 412.5,269.5 C 412.5,270.167 412.5,270.833 412.5,271.5C 411.833,271.833 411.167,272.167 410.5,272.5C 410.5,271.833 410.5,271.167 410.5,270.5C 411.167,270.167 411.833,269.833 412.5,269.5 Z"/></g>
<g><path style="opacity:1" fill="#5d5d5d" d="M 32.5,269.5 C 32.5,270.167 32.5,270.833 32.5,271.5C 32.1667,272.833 31.8333,274.167 31.5,275.5C 30.8333,276.167 30.1667,276.833 29.5,277.5C 29.4152,274.351 30.4152,271.684 32.5,269.5 Z"/></g>
<g><path style="opacity:0.974" fill="#151515" d="M 401.5,335.5 C 398.769,339.234 395.436,342.234 391.5,344.5C 387.103,339.702 384.936,334.036 385,327.5C 386.443,322.611 388.443,317.945 391,313.5C 396.672,304.826 401.839,295.826 406.5,286.5C 405.767,285.913 404.767,285.913 403.5,286.5C 403.5,286.167 403.5,285.833 403.5,285.5C 405.262,284.738 406.262,283.404 406.5,281.5C 408.262,280.738 409.262,279.404 409.5,277.5C 410.167,277.167 410.833,276.833 411.5,276.5C 412.222,276.082 412.722,275.416 413,274.5C 413.167,275 413.333,275.5 413.5,276C 407.137,290.559 400.637,305.059 394,319.5C 393.076,326.417 395.576,331.75 401.5,335.5 Z"/></g>
<g><path style="opacity:1" fill="#4e4e4e" d="M 412.5,271.5 C 411.962,273.117 411.629,274.784 411.5,276.5C 410.833,276.833 410.167,277.167 409.5,277.5C 409.5,276.833 409.5,276.167 409.5,275.5C 409.557,274.391 409.89,273.391 410.5,272.5C 411.167,272.167 411.833,271.833 412.5,271.5 Z"/></g>
<g><path style="opacity:1" fill="#555555" d="M 409.5,277.5 C 409.262,279.404 408.262,280.738 406.5,281.5C 406.738,279.596 407.738,278.262 409.5,277.5 Z"/></g>
<g><path style="opacity:1" fill="#868686" d="M 31.5,275.5 C 31.5,276.833 31.5,278.167 31.5,279.5C 30.7784,279.918 30.2784,280.584 30,281.5C 29.5002,290.16 29.3336,298.827 29.5,307.5C 28.5073,299.35 28.1739,291.017 28.5,282.5C 28.366,280.708 28.6993,279.042 29.5,277.5C 30.1667,276.833 30.8333,276.167 31.5,275.5 Z"/></g>
<g><path style="opacity:1" fill="#b1b1b1" d="M 409.5,275.5 C 409.5,276.167 409.5,276.833 409.5,277.5C 407.738,278.262 406.738,279.596 406.5,281.5C 404.738,282.262 403.738,283.596 403.5,285.5C 401.738,286.262 400.738,287.596 400.5,289.5C 399.599,290.29 398.932,291.29 398.5,292.5C 398.167,292.5 397.833,292.5 397.5,292.5C 400.273,285.948 404.273,280.281 409.5,275.5 Z"/></g>
<g><path style="opacity:1" fill="#525252" d="M 406.5,281.5 C 406.262,283.404 405.262,284.738 403.5,285.5C 403.738,283.596 404.738,282.262 406.5,281.5 Z"/></g>
<g><path style="opacity:1" fill="#e3e3e3" d="M 31.5,279.5 C 31.8535,301.166 32.1869,322.833 32.5,344.5C 32.1667,344.5 31.8333,344.5 31.5,344.5C 31.5,342.5 31.5,340.5 31.5,338.5C 31.7123,328.291 31.0457,318.291 29.5,308.5C 29.5,308.167 29.5,307.833 29.5,307.5C 29.3336,298.827 29.5002,290.16 30,281.5C 30.2784,280.584 30.7784,279.918 31.5,279.5 Z"/></g>
<g><path style="opacity:0.979" fill="#101010" d="M 391.5,344.5 C 388.072,349.264 383.738,352.93 378.5,355.5C 375.548,351.334 373.548,346.667 372.5,341.5C 377.006,328.82 383.339,317.154 391.5,306.5C 391.333,306.167 391.167,305.833 391,305.5C 388.269,307.745 385.436,309.745 382.5,311.5C 384.167,309.167 386.167,307.167 388.5,305.5C 390.587,304.415 391.92,302.749 392.5,300.5C 394.587,299.415 395.92,297.749 396.5,295.5C 397.167,294.5 397.833,293.5 398.5,292.5C 398.932,291.29 399.599,290.29 400.5,289.5C 401.833,288.833 402.833,287.833 403.5,286.5C 404.767,285.913 405.767,285.913 406.5,286.5C 401.839,295.826 396.672,304.826 391,313.5C 388.443,317.945 386.443,322.611 385,327.5C 384.936,334.036 387.103,339.702 391.5,344.5 Z"/></g>
<g><path style="opacity:1" fill="#4f4f4f" d="M 403.5,285.5 C 403.5,285.833 403.5,286.167 403.5,286.5C 402.833,287.833 401.833,288.833 400.5,289.5C 400.738,287.596 401.738,286.262 403.5,285.5 Z"/></g>
<g><path style="opacity:1" fill="#333333" d="M 396.5,295.5 C 395.92,297.749 394.587,299.415 392.5,300.5C 393.08,298.251 394.413,296.585 396.5,295.5 Z"/></g>
<g><path style="opacity:1" fill="#3a3a3a" d="M 392.5,300.5 C 391.92,302.749 390.587,304.415 388.5,305.5C 389.08,303.251 390.413,301.585 392.5,300.5 Z"/></g>
<g><path style="opacity:0.994" fill="#090909" d="M 378.5,355.5 C 377.564,356.974 376.23,357.974 374.5,358.5C 371.482,358.665 368.482,358.498 365.5,358C 359.953,356.11 354.62,353.777 349.5,351C 340.626,349.688 334.46,353.188 331,361.5C 329.582,366.428 329.249,371.428 330,376.5C 331.778,382.057 334.111,387.391 337,392.5C 364.75,434.995 391.75,477.995 418,521.5C 421.651,531.982 422.318,542.648 420,553.5C 417.527,561.084 415.361,568.751 413.5,576.5C 415.257,584.015 418.591,590.682 423.5,596.5C 421.853,598.326 419.853,599.66 417.5,600.5C 412.987,593.973 409.987,586.806 408.5,579C 411.259,568.721 414.426,558.554 418,548.5C 419.221,538.913 418.221,529.579 415,520.5C 388.5,477.496 361.5,434.829 334,392.5C 330.254,386.677 327.92,380.343 327,373.5C 326.603,352.905 336.77,343.738 357.5,346C 362.563,337.602 368.396,329.769 375,322.5C 375.688,321.668 375.521,321.002 374.5,320.5C 373.378,321.63 372.044,322.297 370.5,322.5C 372.167,320.167 374.167,318.167 376.5,316.5C 379.089,315.581 381.089,313.914 382.5,311.5C 385.436,309.745 388.269,307.745 391,305.5C 391.167,305.833 391.333,306.167 391.5,306.5C 383.339,317.154 377.006,328.82 372.5,341.5C 373.548,346.667 375.548,351.334 378.5,355.5 Z"/></g>
<g><path style="opacity:1" fill="#888888" d="M 397.5,292.5 C 397.833,292.5 398.167,292.5 398.5,292.5C 397.833,293.5 397.167,294.5 396.5,295.5C 394.413,296.585 393.08,298.251 392.5,300.5C 390.413,301.585 389.08,303.251 388.5,305.5C 386.167,307.167 384.167,309.167 382.5,311.5C 380.938,311.733 379.605,312.4 378.5,313.5C 384.583,306.384 390.916,299.384 397.5,292.5 Z"/></g>
<g><path style="opacity:1" fill="#2c2c2c" d="M 382.5,311.5 C 381.089,313.914 379.089,315.581 376.5,316.5C 377.167,315.5 377.833,314.5 378.5,313.5C 379.605,312.4 380.938,311.733 382.5,311.5 Z"/></g>
<g><path style="opacity:1" fill="#292929" d="M 28.5,282.5 C 28.1739,291.017 28.5073,299.35 29.5,307.5C 29.5,307.833 29.5,308.167 29.5,308.5C 29.2284,318.713 29.895,328.713 31.5,338.5C 31.5,340.5 31.5,342.5 31.5,344.5C 31.5,349.167 31.5,353.833 31.5,358.5C 30.3365,347.308 29.1698,335.975 28,324.5C 27.1727,310.327 27.3393,296.327 28.5,282.5 Z"/></g>
<g><path style="opacity:1" fill="#828282" d="M 378.5,313.5 C 377.833,314.5 377.167,315.5 376.5,316.5C 374.167,318.167 372.167,320.167 370.5,322.5C 368.589,323.075 366.922,324.075 365.5,325.5C 365.5,325.167 365.5,324.833 365.5,324.5C 369.534,320.464 373.868,316.798 378.5,313.5 Z"/></g>
<g><path style="opacity:1" fill="#323232" d="M 370.5,322.5 C 369.008,325.323 366.674,326.99 363.5,327.5C 363.5,327.167 363.5,326.833 363.5,326.5C 363.842,325.662 364.508,325.328 365.5,325.5C 366.922,324.075 368.589,323.075 370.5,322.5 Z"/></g>
<g><path style="opacity:1" fill="#c4c4c4" d="M 365.5,324.5 C 365.5,324.833 365.5,325.167 365.5,325.5C 364.508,325.328 363.842,325.662 363.5,326.5C 362.391,326.557 361.391,326.89 360.5,327.5C 361.3,325.259 362.966,324.259 365.5,324.5 Z"/></g>
<g><path style="opacity:1" fill="#7b7b7b" d="M 363.5,326.5 C 363.5,326.833 363.5,327.167 363.5,327.5C 361.167,328.833 358.833,330.167 356.5,331.5C 356.167,331.5 355.833,331.5 355.5,331.5C 356.306,330.272 357.306,329.272 358.5,328.5C 359.167,328.167 359.833,327.833 360.5,327.5C 361.391,326.89 362.391,326.557 363.5,326.5 Z"/></g>
<g><path style="opacity:1" fill="#959595" d="M 29.5,308.5 C 31.0457,318.291 31.7123,328.291 31.5,338.5C 29.895,328.713 29.2284,318.713 29.5,308.5 Z"/></g>
<g><path style="opacity:1" fill="#c1c1c1" d="M 358.5,328.5 C 357.306,329.272 356.306,330.272 355.5,331.5C 352.143,333.208 348.81,334.875 345.5,336.5C 348.705,333.915 352.038,331.415 355.5,329C 356.448,328.517 357.448,328.351 358.5,328.5 Z"/></g>
<g><path style="opacity:1" fill="#434343" d="M 355.5,331.5 C 355.833,331.5 356.167,331.5 356.5,331.5C 355.71,332.794 354.71,333.961 353.5,335C 350.707,336.654 347.707,337.821 344.5,338.5C 344.833,337.833 345.167,337.167 345.5,336.5C 348.81,334.875 352.143,333.208 355.5,331.5 Z"/></g>
<g><path style="opacity:1" fill="#c0c0c0" d="M 345.5,336.5 C 345.167,337.167 344.833,337.833 344.5,338.5C 342.973,338.427 341.973,339.094 341.5,340.5C 339.708,340.366 338.042,340.699 336.5,341.5C 335.833,341.5 335.167,341.5 334.5,341.5C 338.111,339.954 341.778,338.288 345.5,336.5 Z"/></g>
<g><path style="opacity:1" fill="#505050" d="M 344.5,338.5 C 344.027,339.906 343.027,340.573 341.5,340.5C 341.973,339.094 342.973,338.427 344.5,338.5 Z"/></g>
<g><path style="opacity:1" fill="#4f4f4f" d="M 341.5,340.5 C 340.07,341.537 338.403,342.204 336.5,342.5C 336.5,342.167 336.5,341.833 336.5,341.5C 338.042,340.699 339.708,340.366 341.5,340.5 Z"/></g>
<g><path style="opacity:1" fill="#787878" d="M 334.5,341.5 C 335.167,341.5 335.833,341.5 336.5,341.5C 336.5,341.833 336.5,342.167 336.5,342.5C 336.167,342.5 335.833,342.5 335.5,342.5C 332.457,343.843 329.457,345.177 326.5,346.5C 325.833,346.5 325.167,346.5 324.5,346.5C 324.833,345.833 325.167,345.167 325.5,344.5C 328.743,344.086 331.743,343.086 334.5,341.5 Z"/></g>
<g><path style="opacity:1" fill="#232323" d="M 335.5,342.5 C 333.288,345.358 330.288,346.691 326.5,346.5C 329.457,345.177 332.457,343.843 335.5,342.5 Z"/></g>
<g><path style="opacity:1" fill="#c8c8c8" d="M 325.5,344.5 C 325.167,345.167 324.833,345.833 324.5,346.5C 322.302,346.875 320.302,347.542 318.5,348.5C 314.865,349.114 311.198,349.448 307.5,349.5C 313.276,347.415 319.276,345.748 325.5,344.5 Z"/></g>
<g><path style="opacity:1" fill="#696969" d="M 318.5,348.5 C 316.786,349.738 314.786,350.405 312.5,350.5C 309.833,350.833 307.167,351.167 304.5,351.5C 305.5,350.833 306.5,350.167 307.5,349.5C 311.198,349.448 314.865,349.114 318.5,348.5 Z"/></g>
<g><path style="opacity:1" fill="#979797" d="M 307.5,349.5 C 306.5,350.167 305.5,350.833 304.5,351.5C 299.9,351.28 295.567,351.946 291.5,353.5C 285.167,353.5 278.833,353.5 272.5,353.5C 284.048,352.382 295.715,351.049 307.5,349.5 Z"/></g>
<g><path style="opacity:0.987" fill="#0f0f0f" d="M 374.5,358.5 C 372.853,360.326 370.853,361.66 368.5,362.5C 361.817,360 355.151,357.167 348.5,354C 341.109,352.779 335.942,355.612 333,362.5C 331.607,367.095 331.274,371.761 332,376.5C 334.197,383.227 337.197,389.561 341,395.5C 368.334,436.827 394.667,478.827 420,521.5C 424.757,536.584 424.424,551.584 419,566.5C 417.399,576.955 420.566,585.622 428.5,592.5C 427.421,594.543 425.754,595.876 423.5,596.5C 418.591,590.682 415.257,584.015 413.5,576.5C 415.361,568.751 417.527,561.084 420,553.5C 422.318,542.648 421.651,531.982 418,521.5C 391.75,477.995 364.75,434.995 337,392.5C 334.111,387.391 331.778,382.057 330,376.5C 329.249,371.428 329.582,366.428 331,361.5C 334.46,353.188 340.626,349.688 349.5,351C 354.62,353.777 359.953,356.11 365.5,358C 368.482,358.498 371.482,358.665 374.5,358.5 Z"/></g>
<g><path style="opacity:1" fill="#2f2f2f" d="M 312.5,350.5 C 311.737,351.268 310.737,351.768 309.5,352C 303.523,352.831 297.523,353.331 291.5,353.5C 295.567,351.946 299.9,351.28 304.5,351.5C 307.167,351.167 309.833,350.833 312.5,350.5 Z"/></g>
<g><path style="opacity:0.992" fill="#151515" d="M 368.5,362.5 C 368.5,363.167 368.167,363.5 367.5,363.5C 359.992,361.417 352.659,358.751 345.5,355.5C 339.322,356.18 335.489,359.513 334,365.5C 333.333,369.5 333.333,373.5 334,377.5C 336.455,384.617 339.789,391.284 344,397.5C 369.833,437.162 395.166,477.162 420,517.5C 423.487,525.284 425.321,533.45 425.5,542C 424.061,552.511 422.894,563.011 422,573.5C 424.133,579.465 427.633,584.465 432.5,588.5C 431.5,590.167 430.167,591.5 428.5,592.5C 420.566,585.622 417.399,576.955 419,566.5C 424.424,551.584 424.757,536.584 420,521.5C 394.667,478.827 368.334,436.827 341,395.5C 337.197,389.561 334.197,383.227 332,376.5C 331.274,371.761 331.607,367.095 333,362.5C 335.942,355.612 341.109,352.779 348.5,354C 355.151,357.167 361.817,360 368.5,362.5 Z"/></g>
<g><path style="opacity:1" fill="#949494" d="M 269.5,353.5 C 259.353,354.706 249.02,355.372 238.5,355.5C 235.167,355.5 231.833,355.5 228.5,355.5C 228.918,354.778 229.584,354.278 230.5,354C 243.496,353.5 256.496,353.333 269.5,353.5 Z"/></g>
<g><path style="opacity:0.987" fill="#1d1d1d" d="M 367.5,363.5 C 366.486,364.674 365.153,365.34 363.5,365.5C 358.804,363.656 354.137,361.489 349.5,359C 343.221,357.556 338.721,359.723 336,365.5C 335.161,370.921 335.494,376.254 337,381.5C 347.783,400.761 359.783,419.095 373,436.5C 374,439.167 375,441.833 376,444.5C 384.061,456.232 391.728,468.232 399,480.5C 402.667,485.167 406.333,489.833 410,494.5C 411,497.167 412,499.833 413,502.5C 416.251,508.004 419.751,513.338 423.5,518.5C 425.932,523.562 427.432,528.895 428,534.5C 428.333,544.833 428.667,555.167 429,565.5C 431.273,571.27 435.106,575.603 440.5,578.5C 438.792,582.572 436.126,585.905 432.5,588.5C 427.633,584.465 424.133,579.465 422,573.5C 422.894,563.011 424.061,552.511 425.5,542C 425.321,533.45 423.487,525.284 420,517.5C 395.166,477.162 369.833,437.162 344,397.5C 339.789,391.284 336.455,384.617 334,377.5C 333.333,373.5 333.333,369.5 334,365.5C 335.489,359.513 339.322,356.18 345.5,355.5C 352.659,358.751 359.992,361.417 367.5,363.5 Z"/></g>
<g><path style="opacity:1" fill="#909090" d="M 197.5,356.5 C 197.5,356.833 197.5,357.167 197.5,357.5C 187.155,357.534 176.821,357.867 166.5,358.5C 160.167,358.5 153.833,358.5 147.5,358.5C 147.5,358.167 147.5,357.833 147.5,357.5C 164.17,357.309 180.837,356.976 197.5,356.5 Z"/></g>
<g><path style="opacity:1" fill="#656565" d="M 228.5,355.5 C 221.833,356.167 215.167,356.833 208.5,357.5C 204.833,357.5 201.167,357.5 197.5,357.5C 197.5,357.167 197.5,356.833 197.5,356.5C 207.802,355.6 218.135,355.267 228.5,355.5 Z"/></g>
<g><path style="opacity:1" fill="#2a2a2a" d="M 228.5,355.5 C 231.833,355.5 235.167,355.5 238.5,355.5C 228.725,357.251 218.725,357.917 208.5,357.5C 215.167,356.833 221.833,356.167 228.5,355.5 Z"/></g>
<g><path style="opacity:1" fill="#dadada" d="M 147.5,357.5 C 147.5,357.833 147.5,358.167 147.5,358.5C 143.452,358.395 139.452,358.728 135.5,359.5C 127.466,359.302 119.466,359.635 111.5,360.5C 109.5,360.5 107.5,360.5 105.5,360.5C 119.235,357.915 133.235,356.915 147.5,357.5 Z"/></g>
<g><path style="opacity:1" fill="#545454" d="M 147.5,358.5 C 153.833,358.5 160.167,358.5 166.5,358.5C 156.336,359.435 146.003,360.101 135.5,360.5C 135.5,360.167 135.5,359.833 135.5,359.5C 139.452,358.728 143.452,358.395 147.5,358.5 Z"/></g>
<g><path style="opacity:1" fill="#696969" d="M 135.5,359.5 C 135.5,359.833 135.5,360.167 135.5,360.5C 128.142,360.418 120.809,360.752 113.5,361.5C 112.833,361.5 112.167,361.5 111.5,361.5C 111.5,361.167 111.5,360.833 111.5,360.5C 119.466,359.635 127.466,359.302 135.5,359.5 Z"/></g>
<g><path style="opacity:1" fill="#a7a7a7" d="M 94.5,361.5 C 92.7392,362.313 91.0725,363.313 89.5,364.5C 88.1667,364.5 86.8333,364.5 85.5,364.5C 85.5,364.167 85.5,363.833 85.5,363.5C 88.4021,362.422 91.4021,361.756 94.5,361.5 Z"/></g>
<g><path style="opacity:1" fill="#747474" d="M 105.5,360.5 C 107.5,360.5 109.5,360.5 111.5,360.5C 111.5,360.833 111.5,361.167 111.5,361.5C 105.931,361.376 100.598,362.043 95.5,363.5C 93.5648,364.15 91.5648,364.483 89.5,364.5C 91.0725,363.313 92.7392,362.313 94.5,361.5C 97.9619,360.518 101.629,360.185 105.5,360.5 Z"/></g>
<g><path style="opacity:1" fill="#2a2a2a" d="M 111.5,361.5 C 112.167,361.5 112.833,361.5 113.5,361.5C 107.699,362.682 101.699,363.348 95.5,363.5C 100.598,362.043 105.931,361.376 111.5,361.5 Z"/></g>
<g><path style="opacity:1" fill="#d5d5d5" d="M 85.5,363.5 C 85.5,363.833 85.5,364.167 85.5,364.5C 85.1667,364.5 84.8333,364.5 84.5,364.5C 81.1501,364.335 77.8168,364.502 74.5,365C 73.944,365.383 73.6107,365.883 73.5,366.5C 72.5,367.167 71.5,367.833 70.5,368.5C 68.302,368.12 66.6354,368.787 65.5,370.5C 64.8333,370.5 64.1667,370.5 63.5,370.5C 63.9528,369.542 64.6195,368.708 65.5,368C 68.7145,367.726 71.3812,366.393 73.5,364C 77.4862,363.501 81.4862,363.334 85.5,363.5 Z"/></g>
<g><path style="opacity:1" fill="#9e9e9e" d="M 84.5,364.5 C 83.0813,365.451 81.4147,365.784 79.5,365.5C 77.4352,365.517 75.4352,365.85 73.5,366.5C 73.6107,365.883 73.944,365.383 74.5,365C 77.8168,364.502 81.1501,364.335 84.5,364.5 Z"/></g>
<g><path style="opacity:0.986" fill="#353535" d="M 360.5,368.5 C 360.833,369.167 361.167,369.833 361.5,370.5C 357.045,369.071 352.545,367.738 348,366.5C 343.245,366.991 341.078,369.658 341.5,374.5C 341.594,376.923 342.094,379.256 343,381.5C 370.333,424.833 397.667,468.167 425,511.5C 427.888,517.277 430.221,523.277 432,529.5C 433.024,537.645 434.69,545.645 437,553.5C 440.216,557.532 444.383,560.199 449.5,561.5C 449.065,564.157 448.065,566.491 446.5,568.5C 441.969,566.478 438.136,563.478 435,559.5C 432.71,548.229 430.71,536.896 429,525.5C 426.883,519.264 424.216,513.264 421,507.5C 393.938,465.433 367.271,423.1 341,380.5C 338.37,374.681 339.204,369.515 343.5,365C 345.833,364.333 348.167,364.333 350.5,365C 353.748,366.46 357.081,367.626 360.5,368.5 Z"/></g>
<g><path style="opacity:1" fill="#d6d6d6" d="M 32.5,353.5 C 34.0618,362.616 34.8951,371.949 35,381.5C 37.1354,383.278 39.6354,383.945 42.5,383.5C 42.5,383.833 42.5,384.167 42.5,384.5C 41.8333,384.5 41.5,384.833 41.5,385.5C 39.5648,386.15 37.5648,386.483 35.5,386.5C 34.8333,386.167 34.1667,385.833 33.5,385.5C 33.5,384.833 33.5,384.167 33.5,383.5C 33.5468,373.484 33.2135,363.484 32.5,353.5 Z"/></g>
<g><path style="opacity:0.989" fill="#3b3b3b" d="M 361.5,370.5 C 361.833,371.167 362.167,371.833 362.5,372.5C 358.045,371.071 353.545,369.738 349,368.5C 344.792,368.9 342.959,371.234 343.5,375.5C 343.594,377.923 344.094,380.256 345,382.5C 371.667,424.5 398.333,466.5 425,508.5C 427.607,513.38 429.94,518.38 432,523.5C 434.04,532.708 436.706,541.708 440,550.5C 443.639,552.656 447.472,554.323 451.5,555.5C 451.029,557.579 450.363,559.579 449.5,561.5C 444.383,560.199 440.216,557.532 437,553.5C 434.69,545.645 433.024,537.645 432,529.5C 430.221,523.277 427.888,517.277 425,511.5C 397.667,468.167 370.333,424.833 343,381.5C 342.094,379.256 341.594,376.923 341.5,374.5C 341.078,369.658 343.245,366.991 348,366.5C 352.545,367.738 357.045,369.071 361.5,370.5 Z"/></g>
<g><path style="opacity:1" fill="#555555" d="M 79.5,365.5 C 76.9164,367.472 73.9164,368.472 70.5,368.5C 71.5,367.833 72.5,367.167 73.5,366.5C 75.4352,365.85 77.4352,365.517 79.5,365.5 Z"/></g>
<g><path style="opacity:0.99" fill="#414141" d="M 362.5,372.5 C 363.338,372.842 363.672,373.508 363.5,374.5C 358.329,372.495 352.995,371.662 347.5,372C 345.03,376.117 345.197,380.284 348,384.5C 374.333,425.833 400.667,467.167 427,508.5C 433.04,519.62 437.707,531.287 441,543.5C 444.605,545.648 448.438,547.314 452.5,548.5C 452.326,550.861 451.993,553.194 451.5,555.5C 447.472,554.323 443.639,552.656 440,550.5C 436.706,541.708 434.04,532.708 432,523.5C 429.94,518.38 427.607,513.38 425,508.5C 398.333,466.5 371.667,424.5 345,382.5C 344.094,380.256 343.594,377.923 343.5,375.5C 342.959,371.234 344.792,368.9 349,368.5C 353.545,369.738 358.045,371.071 362.5,372.5 Z"/></g>
<g><path style="opacity:1" fill="#797979" d="M 70.5,368.5 C 69.5,369.167 68.5,369.833 67.5,370.5C 66.8333,370.5 66.1667,370.5 65.5,370.5C 66.6354,368.787 68.302,368.12 70.5,368.5 Z"/></g>
<g><path style="opacity:1" fill="#858585" d="M 31.5,344.5 C 31.8333,344.5 32.1667,344.5 32.5,344.5C 32.5,347.5 32.5,350.5 32.5,353.5C 33.2135,363.484 33.5468,373.484 33.5,383.5C 32.6274,375.331 31.9607,366.997 31.5,358.5C 31.5,353.833 31.5,349.167 31.5,344.5 Z"/></g>
<g><path style="opacity:0.992" fill="#090909" d="M 173.5,391.5 C 172.167,391.5 170.833,391.5 169.5,391.5C 164.695,386.866 159.695,382.366 154.5,378C 146.228,372.562 139.061,373.729 133,381.5C 131.063,385.646 129.729,389.979 129,394.5C 128.667,445.167 128.333,495.833 128,546.5C 126.015,556.622 123.515,566.622 120.5,576.5C 122.529,583.85 125.862,590.517 130.5,596.5C 129.055,598.063 127.389,599.396 125.5,600.5C 120.532,593.898 117.198,586.564 115.5,578.5C 118.374,568.416 121.54,558.416 125,548.5C 125.035,495.475 125.702,442.475 127,389.5C 130.406,373.391 139.572,368.224 154.5,374C 161.03,379.699 167.363,385.533 173.5,391.5 Z"/></g>
<g><path style="opacity:1" fill="#d3d3d3" d="M 63.5,370.5 C 62.8333,371.167 62.1667,371.833 61.5,372.5C 60.8333,372.5 60.1667,372.5 59.5,372.5C 57.9731,372.427 56.9731,373.094 56.5,374.5C 56.1667,374.5 55.8333,374.5 55.5,374.5C 56.9437,371.11 59.6104,369.777 63.5,370.5 Z"/></g>
<g><path style="opacity:1" fill="#434343" d="M 63.5,370.5 C 64.1667,370.5 64.8333,370.5 65.5,370.5C 66.1667,370.5 66.8333,370.5 67.5,370.5C 66.4863,371.674 65.153,372.34 63.5,372.5C 62.8333,372.5 62.1667,372.5 61.5,372.5C 62.1667,371.833 62.8333,371.167 63.5,370.5 Z"/></g>
<g><path style="opacity:0.985" fill="#474747" d="M 363.5,374.5 C 364.906,374.973 365.573,375.973 365.5,377.5C 360.314,375.703 354.981,374.87 349.5,375C 348.292,378.65 348.792,382.15 351,385.5C 375,422.833 399,460.167 423,497.5C 429.509,508.517 435.509,519.85 441,531.5C 444.557,534.743 448.723,536.743 453.5,537.5C 453.5,540.5 453.5,543.5 453.5,546.5C 452.662,546.842 452.328,547.508 452.5,548.5C 448.438,547.314 444.605,545.648 441,543.5C 437.707,531.287 433.04,519.62 427,508.5C 400.667,467.167 374.333,425.833 348,384.5C 345.197,380.284 345.03,376.117 347.5,372C 352.995,371.662 358.329,372.495 363.5,374.5 Z"/></g>
<g><path style="opacity:1" fill="#888888" d="M 59.5,372.5 C 59.1667,373.5 58.5,374.167 57.5,374.5C 57.1667,374.5 56.8333,374.5 56.5,374.5C 56.9731,373.094 57.9731,372.427 59.5,372.5 Z"/></g>
<g><path style="opacity:1" fill="#232323" d="M 59.5,372.5 C 60.1667,372.5 60.8333,372.5 61.5,372.5C 62.1667,372.5 62.8333,372.5 63.5,372.5C 61.4336,374.199 59.1003,375.532 56.5,376.5C 56.8333,375.833 57.1667,375.167 57.5,374.5C 58.5,374.167 59.1667,373.5 59.5,372.5 Z"/></g>
<g><path style="opacity:0.99" fill="#0f0f0f" d="M 169.5,391.5 C 168.5,391.5 167.5,391.5 166.5,391.5C 161.94,386.875 156.94,382.709 151.5,379C 145.681,376.37 140.515,377.204 136,381.5C 133.35,385.78 131.684,390.447 131,395.5C 130.667,446.5 130.333,497.5 130,548.5C 128.415,556.67 126.915,564.837 125.5,573C 126.308,580.783 129.642,587.283 135.5,592.5C 134.421,594.543 132.754,595.876 130.5,596.5C 125.862,590.517 122.529,583.85 120.5,576.5C 123.515,566.622 126.015,556.622 128,546.5C 128.333,495.833 128.667,445.167 129,394.5C 129.729,389.979 131.063,385.646 133,381.5C 139.061,373.729 146.228,372.562 154.5,378C 159.695,382.366 164.695,386.866 169.5,391.5 Z"/></g>
<g><path style="opacity:0.986" fill="#4e4e4e" d="M 365.5,377.5 C 366.974,378.436 367.974,379.77 368.5,381.5C 364.202,380.8 359.869,380.467 355.5,380.5C 355.46,383.425 356.293,386.091 358,388.5C 385.5,430.829 412.5,473.496 439,516.5C 439.903,517.701 441.069,518.535 442.5,519C 445.095,519.226 447.595,519.726 450,520.5C 450.383,519.944 450.883,519.611 451.5,519.5C 451.99,522.655 452.656,525.655 453.5,528.5C 453.5,531.5 453.5,534.5 453.5,537.5C 448.723,536.743 444.557,534.743 441,531.5C 435.509,519.85 429.509,508.517 423,497.5C 399,460.167 375,422.833 351,385.5C 348.792,382.15 348.292,378.65 349.5,375C 354.981,374.87 360.314,375.703 365.5,377.5 Z"/></g>
<g><path style="opacity:1" fill="#525252" d="M 55.5,374.5 C 55.8333,374.5 56.1667,374.5 56.5,374.5C 56.8333,374.5 57.1667,374.5 57.5,374.5C 57.1667,375.167 56.8333,375.833 56.5,376.5C 55.8333,376.5 55.1667,376.5 54.5,376.5C 54.8333,375.833 55.1667,375.167 55.5,374.5 Z"/></g>
<g><path style="opacity:0.99" fill="#151515" d="M 166.5,391.5 C 165.5,391.5 164.5,391.5 163.5,391.5C 158.751,385.372 152.584,381.372 145,379.5C 137.769,381.244 133.769,385.911 133,393.5C 132.667,444.5 132.333,495.5 132,546.5C 131.093,554.37 129.926,562.203 128.5,570C 128.865,573.763 130.032,577.263 132,580.5C 134.705,583.036 137.205,585.703 139.5,588.5C 138.5,590.167 137.167,591.5 135.5,592.5C 129.642,587.283 126.308,580.783 125.5,573C 126.915,564.837 128.415,556.67 130,548.5C 130.333,497.5 130.667,446.5 131,395.5C 131.684,390.447 133.35,385.78 136,381.5C 140.515,377.204 145.681,376.37 151.5,379C 156.94,382.709 161.94,386.875 166.5,391.5 Z"/></g>
<g><path style="opacity:1" fill="#b5b5b5" d="M 55.5,374.5 C 55.1667,375.167 54.8333,375.833 54.5,376.5C 52.2512,377.08 50.5846,378.413 49.5,380.5C 46.7052,381.063 44.3718,382.396 42.5,384.5C 42.5,384.167 42.5,383.833 42.5,383.5C 44.8764,380.822 47.5431,378.489 50.5,376.5C 52.0217,375.438 53.6883,374.771 55.5,374.5 Z"/></g>
<g><path style="opacity:1" fill="#393939" d="M 54.5,376.5 C 53.4154,378.587 51.7488,379.92 49.5,380.5C 50.5846,378.413 52.2512,377.08 54.5,376.5 Z"/></g>
<g><path style="opacity:0.987" fill="#1c1c1c" d="M 163.5,391.5 C 162.5,391.5 161.5,391.5 160.5,391.5C 156.605,386.717 151.605,383.717 145.5,382.5C 139.478,383.69 135.978,387.356 135,393.5C 134.667,445.167 134.333,496.833 134,548.5C 133.61,553.844 133.11,559.178 132.5,564.5C 133.015,572.873 137.015,578.873 144.5,582.5C 143.581,585.089 141.914,587.089 139.5,588.5C 137.205,585.703 134.705,583.036 132,580.5C 130.032,577.263 128.865,573.763 128.5,570C 129.926,562.203 131.093,554.37 132,546.5C 132.333,495.5 132.667,444.5 133,393.5C 133.769,385.911 137.769,381.244 145,379.5C 152.584,381.372 158.751,385.372 163.5,391.5 Z"/></g>
<g><path style="opacity:0.949" fill="#535353" d="M 368.5,381.5 C 392.656,419.138 416.823,456.805 441,494.5C 445.604,502.374 449.104,510.708 451.5,519.5C 450.883,519.611 450.383,519.944 450,520.5C 447.595,519.726 445.095,519.226 442.5,519C 441.069,518.535 439.903,517.701 439,516.5C 412.5,473.496 385.5,430.829 358,388.5C 356.293,386.091 355.46,383.425 355.5,380.5C 359.869,380.467 364.202,380.8 368.5,381.5 Z"/></g>
<g><path style="opacity:1" fill="#4a4a4a" d="M 49.5,380.5 C 45.9864,383.747 42.3197,386.747 38.5,389.5C 38.8333,388.833 39.1667,388.167 39.5,387.5C 40.5,387.167 41.1667,386.5 41.5,385.5C 41.5,384.833 41.8333,384.5 42.5,384.5C 44.3718,382.396 46.7052,381.063 49.5,380.5 Z"/></g>
<g><path style="opacity:0.99" fill="#232323" d="M 160.5,391.5 C 160.5,391.833 160.5,392.167 160.5,392.5C 156.205,388.519 151.205,385.852 145.5,384.5C 139.651,386.2 136.484,390.2 136,396.5C 135.333,452.5 135.333,508.5 136,564.5C 136.725,566.949 137.725,569.283 139,571.5C 142.023,573.698 144.856,576.031 147.5,578.5C 147.262,580.404 146.262,581.738 144.5,582.5C 137.015,578.873 133.015,572.873 132.5,564.5C 133.11,559.178 133.61,553.844 134,548.5C 134.333,496.833 134.667,445.167 135,393.5C 135.978,387.356 139.478,383.69 145.5,382.5C 151.605,383.717 156.605,386.717 160.5,391.5 Z"/></g>
<g><path style="opacity:0.988" fill="#282828" d="M 160.5,392.5 C 160.5,392.833 160.5,393.167 160.5,393.5C 157.222,392.191 154.222,390.358 151.5,388C 146.149,385.265 141.983,386.432 139,391.5C 137.964,394.753 137.297,398.086 137,401.5C 136.087,453.513 136.42,505.513 138,557.5C 139.762,565.099 144.262,570.432 151.5,573.5C 150.396,575.389 149.063,577.055 147.5,578.5C 144.856,576.031 142.023,573.698 139,571.5C 137.725,569.283 136.725,566.949 136,564.5C 135.333,508.5 135.333,452.5 136,396.5C 136.484,390.2 139.651,386.2 145.5,384.5C 151.205,385.852 156.205,388.519 160.5,392.5 Z"/></g>
<g><path style="opacity:1" fill="#afafaf" d="M 41.5,385.5 C 41.1667,386.5 40.5,387.167 39.5,387.5C 37.901,387.768 36.5676,387.434 35.5,386.5C 37.5648,386.483 39.5648,386.15 41.5,385.5 Z"/></g>
<g><path style="opacity:0.991" fill="#2e2e2e" d="M 160.5,393.5 C 160.5,394.167 160.5,394.833 160.5,395.5C 156.242,392.787 151.742,390.454 147,388.5C 141.97,389.873 139.303,393.206 139,398.5C 138.333,447.167 138.333,495.833 139,544.5C 138.516,555.889 143.35,563.889 153.5,568.5C 153.107,570.284 152.441,571.95 151.5,573.5C 144.262,570.432 139.762,565.099 138,557.5C 136.42,505.513 136.087,453.513 137,401.5C 137.297,398.086 137.964,394.753 139,391.5C 141.983,386.432 146.149,385.265 151.5,388C 154.222,390.358 157.222,392.191 160.5,393.5 Z"/></g>
<g><path style="opacity:1" fill="#737373" d="M 33.5,385.5 C 34.1667,385.833 34.8333,386.167 35.5,386.5C 36.5676,387.434 37.901,387.768 39.5,387.5C 39.1667,388.167 38.8333,388.833 38.5,389.5C 35.6333,389.631 33.9666,388.297 33.5,385.5 Z"/></g>
<g><path style="opacity:0.987" fill="#353535" d="M 160.5,395.5 C 160.5,396.5 160.5,397.5 160.5,398.5C 156.603,395.384 152.27,393.051 147.5,391.5C 143.691,392.764 141.524,395.43 141,399.5C 140.333,446.5 140.333,493.5 141,540.5C 140.661,551.65 145.828,558.65 156.5,561.5C 156.065,564.157 155.065,566.491 153.5,568.5C 143.35,563.889 138.516,555.889 139,544.5C 138.333,495.833 138.333,447.167 139,398.5C 139.303,393.206 141.97,389.873 147,388.5C 151.742,390.454 156.242,392.787 160.5,395.5 Z"/></g>
<g><path style="opacity:0.989" fill="#3b3b3b" d="M 160.5,398.5 C 160.5,399.5 160.5,400.5 160.5,401.5C 157.013,398.359 153.013,396.025 148.5,394.5C 144.968,395.87 143.135,398.536 143,402.5C 142.333,446.833 142.333,491.167 143,535.5C 142.397,546.722 147.563,553.388 158.5,555.5C 158.029,557.579 157.363,559.579 156.5,561.5C 145.828,558.65 140.661,551.65 141,540.5C 140.333,493.5 140.333,446.5 141,399.5C 141.524,395.43 143.691,392.764 147.5,391.5C 152.27,393.051 156.603,395.384 160.5,398.5 Z"/></g>
<g><path style="opacity:0.99" fill="#414141" d="M 160.5,401.5 C 160.5,402.833 160.5,404.167 160.5,405.5C 158.036,403.43 155.369,401.596 152.5,400C 150.559,399.257 148.726,399.424 147,400.5C 145.86,423.293 145.36,446.127 145.5,469C 145.37,492.53 145.87,516.03 147,539.5C 147.273,541.329 148.107,542.829 149.5,544C 152.72,545.352 156.053,546.186 159.5,546.5C 159.632,549.57 159.299,552.57 158.5,555.5C 147.563,553.388 142.397,546.722 143,535.5C 142.333,491.167 142.333,446.833 143,402.5C 143.135,398.536 144.968,395.87 148.5,394.5C 153.013,396.025 157.013,398.359 160.5,401.5 Z"/></g>
<g><path style="opacity:0.966" fill="#484848" d="M 160.5,405.5 C 160.832,452.67 160.499,499.67 159.5,546.5C 156.053,546.186 152.72,545.352 149.5,544C 148.107,542.829 147.273,541.329 147,539.5C 145.87,516.03 145.37,492.53 145.5,469C 145.36,446.127 145.86,423.293 147,400.5C 148.726,399.424 150.559,399.257 152.5,400C 155.369,401.596 158.036,403.43 160.5,405.5 Z"/></g>
<g><path style="opacity:0.978" fill="#2a2a2a" d="M 363.5,365.5 C 362.694,366.728 361.694,367.728 360.5,368.5C 357.081,367.626 353.748,366.46 350.5,365C 348.167,364.333 345.833,364.333 343.5,365C 339.204,369.515 338.37,374.681 341,380.5C 367.271,423.1 393.938,465.433 421,507.5C 424.216,513.264 426.883,519.264 429,525.5C 430.71,536.896 432.71,548.229 435,559.5C 438.136,563.478 441.969,566.478 446.5,568.5C 445.502,572.505 443.502,575.839 440.5,578.5C 435.106,575.603 431.273,571.27 429,565.5C 428.667,555.167 428.333,544.833 428,534.5C 427.432,528.895 425.932,523.562 423.5,518.5C 419.751,513.338 416.251,508.004 413,502.5C 412,499.833 411,497.167 410,494.5C 406.333,489.833 402.667,485.167 399,480.5C 391.728,468.232 384.061,456.232 376,444.5C 375,441.833 374,439.167 373,436.5C 359.783,419.095 347.783,400.761 337,381.5C 335.494,376.254 335.161,370.921 336,365.5C 338.721,359.723 343.221,357.556 349.5,359C 354.137,361.489 358.804,363.656 363.5,365.5 Z"/></g>
</svg>
