<?xml version="1.0" encoding="UTF-8"?>
<!DOCTYPE svg PUBLIC "-//W3C//DTD SVG 1.1//EN" "http://www.w3.org/Graphics/SVG/1.1/DTD/svg11.dtd">
<svg xmlns="http://www.w3.org/2000/svg" version="1.1" width="504px" height="515px" style="shape-rendering:geometricPrecision; text-rendering:geometricPrecision; image-rendering:optimizeQuality; fill-rule:evenodd; clip-rule:evenodd" xmlns:xlink="http://www.w3.org/1999/xlink">
<g><path style="opacity:0.996" fill="#fefefe" d="M 503.5,167.5 C 503.5,179.5 503.5,191.5 503.5,203.5C 502.491,210.553 501.158,217.553 499.5,224.5C 493.958,221.065 487.958,218.732 481.5,217.5C 477.823,217.336 475.323,219.003 474,222.5C 473.825,219.843 473.992,217.176 474.5,214.5C 477.197,193.502 477.03,172.502 474,151.5C 473.292,150.619 472.458,149.953 471.5,149.5C 471.5,148.833 471.5,148.167 471.5,147.5C 471.88,145.302 471.213,143.635 469.5,142.5C 469.5,141.833 469.5,141.167 469.5,140.5C 469.66,138.801 469.494,137.134 469,135.5C 466.722,132.005 465.222,128.172 464.5,124C 464.164,122.97 463.497,122.47 462.5,122.5C 461.596,121.791 461.263,120.791 461.5,119.5C 458.984,113.777 456.151,108.11 453,102.5C 452.241,100.937 451.074,99.9371 449.5,99.5C 448.167,98.5 446.833,97.5 445.5,96.5C 444.92,94.2512 443.587,92.5846 441.5,91.5C 441.443,90.391 441.11,89.391 440.5,88.5C 440.19,86.8564 439.19,85.8564 437.5,85.5C 437.5,83.5 436.5,82.5 434.5,82.5C 432.909,79.5691 430.909,76.9024 428.5,74.5C 425.769,70.7657 422.436,67.7657 418.5,65.5C 417.415,63.4131 415.749,62.0798 413.5,61.5C 412.833,61.5 412.167,61.5 411.5,61.5C 411.167,60.8333 410.833,60.1667 410.5,59.5C 409.952,56.9162 408.285,55.9162 405.5,56.5C 403.874,53.3783 401.208,51.7117 397.5,51.5C 396.833,51.5 396.167,51.5 395.5,51.5C 394.016,49.9263 392.349,48.593 390.5,47.5C 389.313,45.0246 387.313,44.0246 384.5,44.5C 383.833,44.5 383.167,44.5 382.5,44.5C 380.544,43.5082 378.544,42.5082 376.5,41.5C 375.365,39.7868 373.698,39.1201 371.5,39.5C 370.609,38.8902 369.609,38.5569 368.5,38.5C 367.833,38.5 367.167,38.5 366.5,38.5C 365.167,37.8333 363.833,37.1667 362.5,36.5C 361.365,34.7868 359.698,34.1201 357.5,34.5C 357.167,34.5 356.833,34.5 356.5,34.5C 356.158,33.6618 355.492,33.3284 354.5,33.5C 354.082,32.7784 353.416,32.2784 352.5,32C 348.848,31.5014 345.182,31.3347 341.5,31.5C 340.731,35.7246 342.398,38.3913 346.5,39.5C 347.391,40.1098 348.391,40.4431 349.5,40.5C 349.833,42.8333 351.167,44.1667 353.5,44.5C 353.5,45.1667 353.5,45.8333 353.5,46.5C 356.77,51.4397 360.77,55.7731 365.5,59.5C 366.5,59.8333 367.167,60.5 367.5,61.5C 368.08,63.7488 369.413,65.4154 371.5,66.5C 371.5,66.8333 371.5,67.1667 371.5,67.5C 371.427,69.0269 372.094,70.0269 373.5,70.5C 375.298,74.5326 377.298,78.5326 379.5,82.5C 380.167,82.8333 380.833,83.1667 381.5,83.5C 381.5,84.1667 381.5,84.8333 381.5,85.5C 382.424,88.7961 383.424,92.1295 384.5,95.5C 384.797,102.228 385.63,108.895 387,115.5C 387.5,123.159 387.666,130.826 387.5,138.5C 386.023,145.444 384.689,152.444 383.5,159.5C 380.835,161.835 379.502,164.835 379.5,168.5C 379.5,168.833 379.5,169.167 379.5,169.5C 378.624,169.369 377.957,169.702 377.5,170.5C 375.88,174.759 373.88,178.759 371.5,182.5C 364.477,190.854 356.477,198.187 347.5,204.5C 342.04,206.581 336.706,208.581 331.5,210.5C 330.833,210.833 330.167,211.167 329.5,211.5C 327.5,211.5 325.5,211.5 323.5,211.5C 326.866,210.844 330.032,209.511 333,207.5C 333.499,201.843 333.666,196.176 333.5,190.5C 339.32,191.451 345.153,192.451 351,193.5C 354.641,193.192 356.641,191.192 357,187.5C 358.206,158.055 345.372,137.555 318.5,126C 305.924,121.251 292.924,118.751 279.5,118.5C 245.669,117.336 211.669,117.169 177.5,118C 167.195,117.645 161.029,122.478 159,132.5C 155.154,149.809 161.987,159.809 179.5,162.5C 179.5,180.5 179.5,198.5 179.5,216.5C 179.5,216.833 179.5,217.167 179.5,217.5C 179.5,218.167 179.5,218.833 179.5,219.5C 156.164,219.333 132.831,219.5 109.5,220C 106.964,220.186 104.631,220.686 102.5,221.5C 96.2614,221.276 90.2614,221.943 84.5,223.5C 81.0272,223.576 77.6939,224.242 74.5,225.5C 70.7627,226.2 67.0961,227.2 63.5,228.5C 61.0672,228.273 59.4006,229.273 58.5,231.5C 54.6082,233.062 51.2749,235.395 48.5,238.5C 45.8333,240.5 43.5,242.833 41.5,245.5C 39.4131,246.585 38.0798,248.251 37.5,250.5C 36.8902,251.391 36.5569,252.391 36.5,253.5C 33.5526,256.828 32.0526,260.828 32,265.5C 31.5835,278.505 31.7501,291.505 32.5,304.5C 32.3334,319.17 32.5001,333.837 33,348.5C 33.1762,352.688 33.6762,356.688 34.5,360.5C 34.8333,360.5 35.1667,360.5 35.5,360.5C 35.5,361.167 35.5,361.833 35.5,362.5C 34.5775,366.565 36.0775,368.898 40,369.5C 41.6811,369.392 42.8478,368.725 43.5,367.5C 45.7488,366.92 47.4154,365.587 48.5,363.5C 52.2499,362.589 55.2499,360.589 57.5,357.5C 59.0269,357.573 60.0269,356.906 60.5,355.5C 60.8333,355.5 61.1667,355.5 61.5,355.5C 64.3973,354.871 67.064,353.871 69.5,352.5C 71.8984,352.741 73.8984,352.074 75.5,350.5C 77.5,349.5 79.5,348.5 81.5,347.5C 86.4141,347.638 91.0808,346.972 95.5,345.5C 116.903,345.084 138.236,344.418 159.5,343.5C 160.952,344.302 162.618,344.802 164.5,345C 161.537,347.875 159.704,351.375 159,355.5C 155.154,372.809 161.987,382.809 179.5,385.5C 179.667,405.169 179.5,424.836 179,444.5C 178.809,446.708 178.309,448.708 177.5,450.5C 170.232,446.933 162.565,445.099 154.5,445C 149.606,448.935 145.772,453.769 143,459.5C 131.788,473.181 117.622,481.847 100.5,485.5C 78.2533,485.127 60.42,476.127 47,458.5C 42.2456,450.921 38.2456,442.921 35,434.5C 32.3981,430.788 28.8981,429.622 24.5,431C 19.77,432.742 15.1033,434.575 10.5,436.5C 10.3333,317.166 10.5,197.833 11,78.5C 17.2378,47.5931 35.0712,26.4265 64.5,15C 70.0555,13.1944 75.7222,11.8611 81.5,11C 154.167,10.3333 226.833,10.3333 299.5,11C 335.441,12.4546 370.108,19.7879 403.5,33C 437.228,47.7735 464.061,70.6068 484,101.5C 495.181,122.246 501.681,144.246 503.5,167.5 Z M 181.5,145.5 C 182.167,145.5 182.833,145.5 183.5,145.5C 184.167,145.5 184.833,145.5 185.5,145.5C 186.167,145.5 186.833,145.5 187.5,145.5C 188.167,145.5 188.833,145.5 189.5,145.5C 191.167,145.5 192.833,145.5 194.5,145.5C 195.833,145.5 197.167,145.5 198.5,145.5C 225.186,145.167 251.852,145.667 278.5,147C 284.606,147.721 290.606,148.888 296.5,150.5C 298.701,151.566 301.035,152.233 303.5,152.5C 306.131,154.153 308.797,155.819 311.5,157.5C 312.833,158.167 314.167,158.833 315.5,159.5C 316.262,161.262 317.596,162.262 319.5,162.5C 321.115,165.45 323.115,168.116 325.5,170.5C 326.846,172.537 328.18,174.537 329.5,176.5C 329.557,177.609 329.89,178.609 330.5,179.5C 330.833,180.833 331.167,182.167 331.5,183.5C 332.11,184.391 332.443,185.391 332.5,186.5C 332.5,187.167 332.5,187.833 332.5,188.5C 332.833,189.167 333.167,189.833 333.5,190.5C 333.666,196.176 333.499,201.843 333,207.5C 330.032,209.511 326.866,210.844 323.5,211.5C 317.776,211.924 312.11,212.757 306.5,214C 264.152,214.327 221.818,215.16 179.5,216.5C 179.5,198.5 179.5,180.5 179.5,162.5C 179.5,161.5 179.5,160.5 179.5,159.5C 179.5,158.167 179.5,156.833 179.5,155.5C 179.5,154.833 179.5,154.167 179.5,153.5C 179.5,152.5 179.5,151.5 179.5,150.5C 179.5,149.5 179.5,148.5 179.5,147.5C 179.5,146.167 180.167,145.5 181.5,145.5 Z"/></g>
<g><path style="opacity:1" fill="#e1e1e1" d="M 354.5,33.5 C 351.167,33.5 347.833,33.5 344.5,33.5C 344.229,35.3797 344.896,36.713 346.5,37.5C 346.5,38.1667 346.5,38.8333 346.5,39.5C 342.398,38.3913 340.731,35.7246 341.5,31.5C 345.182,31.3347 348.848,31.5014 352.5,32C 353.416,32.2784 354.082,32.7784 354.5,33.5 Z"/></g>
<g><path style="opacity:1" fill="#888888" d="M 354.5,33.5 C 355.492,33.3284 356.158,33.6618 356.5,34.5C 353.167,34.5 349.833,34.5 346.5,34.5C 346.5,35.5 346.5,36.5 346.5,37.5C 344.896,36.713 344.229,35.3797 344.5,33.5C 347.833,33.5 351.167,33.5 354.5,33.5 Z"/></g>
<g><path style="opacity:1" fill="#3f3f3f" d="M 356.5,34.5 C 356.833,34.5 357.167,34.5 357.5,34.5C 357.5,34.8333 357.5,35.1667 357.5,35.5C 354.833,35.5 352.167,35.5 349.5,35.5C 349.704,37.6854 350.37,39.6854 351.5,41.5C 350.833,41.1667 350.167,40.8333 349.5,40.5C 348.833,39.1667 347.833,38.1667 346.5,37.5C 346.5,36.5 346.5,35.5 346.5,34.5C 349.833,34.5 353.167,34.5 356.5,34.5 Z"/></g>
<g><path style="opacity:1" fill="#757575" d="M 357.5,35.5 C 357.5,35.1667 357.5,34.8333 357.5,34.5C 359.698,34.1201 361.365,34.7868 362.5,36.5C 360.708,36.634 359.042,36.3007 357.5,35.5 Z"/></g>
<g><path style="opacity:1" fill="#000000" d="M 357.5,35.5 C 359.042,36.3007 360.708,36.634 362.5,36.5C 363.833,37.1667 365.167,37.8333 366.5,38.5C 366.973,39.9063 367.973,40.573 369.5,40.5C 370.167,40.5 370.833,40.5 371.5,40.5C 372.391,41.1098 373.391,41.4431 374.5,41.5C 374.973,42.9063 375.973,43.573 377.5,43.5C 379.042,44.3007 380.708,44.634 382.5,44.5C 386.059,48.1154 390.393,50.4488 395.5,51.5C 396.262,53.2624 397.596,54.2624 399.5,54.5C 401.008,57.0926 403.341,58.4259 406.5,58.5C 407.492,58.3284 408.158,58.6618 408.5,59.5C 408.973,60.9063 409.973,61.573 411.5,61.5C 412.585,63.5869 414.251,64.9202 416.5,65.5C 419.231,69.2343 422.564,72.2343 426.5,74.5C 428.833,77.1667 431.167,79.8333 433.5,82.5C 434.08,84.7488 435.413,86.4154 437.5,87.5C 437.833,87.5 438.167,87.5 438.5,87.5C 438.738,89.4044 439.738,90.7377 441.5,91.5C 442.08,93.7488 443.413,95.4154 445.5,96.5C 445.5,97.1667 445.5,97.8333 445.5,98.5C 446.419,101.089 448.086,103.089 450.5,104.5C 451.917,107.669 453.583,110.669 455.5,113.5C 455.427,115.027 456.094,116.027 457.5,116.5C 457.5,117.167 457.5,117.833 457.5,118.5C 457.427,120.027 458.094,121.027 459.5,121.5C 460.401,122.29 461.068,123.29 461.5,124.5C 462.321,128.127 463.654,131.46 465.5,134.5C 465.584,137.327 466.25,139.994 467.5,142.5C 467.592,147.365 468.925,151.699 471.5,155.5C 472.318,169.484 472.651,183.484 472.5,197.5C 472.5,198.167 472.5,198.833 472.5,199.5C 471.732,200.263 471.232,201.263 471,202.5C 470.667,206.833 470.333,211.167 470,215.5C 469.887,217.974 468.887,219.974 467,221.5C 466.503,224.146 466.336,226.813 466.5,229.5C 464.882,232.171 464.215,235.171 464.5,238.5C 463.094,238.973 462.427,239.973 462.5,241.5C 461.094,241.973 460.427,242.973 460.5,244.5C 460.5,245.167 460.5,245.833 460.5,246.5C 459.624,246.369 458.957,246.702 458.5,247.5C 457.481,249.604 456.481,251.604 455.5,253.5C 452.57,255.685 450.903,258.685 450.5,262.5C 450.5,263.167 450.5,263.833 450.5,264.5C 446.898,268.605 443.065,272.605 439,276.5C 437.906,278.078 437.072,279.745 436.5,281.5C 433.5,282.5 431.5,284.5 430.5,287.5C 426.808,290.862 423.141,294.195 419.5,297.5C 413.208,301.791 407.208,306.458 401.5,311.5C 399.219,311.077 397.552,311.744 396.5,313.5C 395.5,313.833 394.833,314.5 394.5,315.5C 394.167,315.5 393.833,315.5 393.5,315.5C 392.022,315.238 390.689,315.571 389.5,316.5C 388.66,317.735 387.66,318.735 386.5,319.5C 385.508,319.328 384.842,319.662 384.5,320.5C 382.847,320.66 381.514,321.326 380.5,322.5C 379.167,323.5 377.833,324.5 376.5,325.5C 370.467,326.297 364.8,327.964 359.5,330.5C 356.918,330.025 354.918,330.692 353.5,332.5C 350.302,333.787 346.969,334.453 343.5,334.5C 337.824,334.334 332.157,334.501 326.5,335C 325.263,335.232 324.263,335.732 323.5,336.5C 318.9,336.28 314.567,336.946 310.5,338.5C 287.122,338.187 263.788,338.52 240.5,339.5C 214.493,339.397 188.493,339.73 162.5,340.5C 142.457,340.193 122.457,340.86 102.5,342.5C 99.8478,342.41 97.5145,343.076 95.5,344.5C 91.3034,344.429 87.1367,344.763 83,345.5C 81.3189,345.608 80.1522,346.275 79.5,347.5C 75.7136,348.222 72.3803,349.555 69.5,351.5C 67.901,351.232 66.5676,351.566 65.5,352.5C 62.5185,352.182 60.1852,353.182 58.5,355.5C 52.4472,357.809 47.1139,361.309 42.5,366C 40.8659,366.494 39.1992,366.66 37.5,366.5C 37.0113,365.005 36.3446,363.671 35.5,362.5C 35.5,361.833 35.5,361.167 35.5,360.5C 35.5,351.5 35.5,342.5 35.5,333.5C 35.5,323.5 35.5,313.5 35.5,303.5C 35.2341,288.804 35.5674,274.138 36.5,259.5C 36.5,258.167 36.5,256.833 36.5,255.5C 37.1667,255.5 37.5,255.167 37.5,254.5C 39.942,252.879 41.2753,250.546 41.5,247.5C 41.5,247.167 41.5,246.833 41.5,246.5C 44.5,244.167 47.1667,241.5 49.5,238.5C 51.0009,237.248 52.6675,236.248 54.5,235.5C 56.0269,235.573 57.0269,234.906 57.5,233.5C 59.0269,233.573 60.0269,232.906 60.5,231.5C 62.0269,231.573 63.0269,230.906 63.5,229.5C 65.5648,229.483 67.5648,229.15 69.5,228.5C 72.1522,228.59 74.4855,227.924 76.5,226.5C 80.0148,225.081 83.6814,224.414 87.5,224.5C 118.326,223.498 148.993,222.498 179.5,221.5C 215.015,221.877 250.349,221.21 285.5,219.5C 292.508,219.666 299.508,219.5 306.5,219C 307.056,218.617 307.389,218.117 307.5,217.5C 310.5,217.5 313.5,217.5 316.5,217.5C 323.723,218.624 330.056,216.957 335.5,212.5C 337.027,212.573 338.027,211.906 338.5,210.5C 344.782,209.03 350.115,206.03 354.5,201.5C 355.262,199.738 356.596,198.738 358.5,198.5C 361.089,197.581 363.089,195.914 364.5,193.5C 364.833,192.5 365.5,191.833 366.5,191.5C 368.262,190.738 369.262,189.404 369.5,187.5C 370.906,187.027 371.573,186.027 371.5,184.5C 373.048,184.179 373.715,183.179 373.5,181.5C 374.794,180.71 375.961,179.71 377,178.5C 378.768,174.914 380.268,171.247 381.5,167.5C 381.328,166.508 381.662,165.842 382.5,165.5C 383.719,163.058 385.219,160.724 387,158.5C 387.49,157.207 387.657,155.873 387.5,154.5C 388.338,154.158 388.672,153.492 388.5,152.5C 390.237,148.458 391.237,144.124 391.5,139.5C 391.666,130.161 391.5,120.827 391,111.5C 390.685,109.414 390.185,107.414 389.5,105.5C 389.59,102.848 388.924,100.515 387.5,98.5C 387.167,98.5 386.833,98.5 386.5,98.5C 386.5,97.1667 386.5,95.8333 386.5,94.5C 386.88,92.302 386.213,90.6354 384.5,89.5C 384.245,87.0326 383.245,85.0326 381.5,83.5C 381.5,82.8333 381.5,82.1667 381.5,81.5C 381.573,79.9731 380.906,78.9731 379.5,78.5C 378.326,77.4863 377.66,76.153 377.5,74.5C 377.262,72.5956 376.262,71.2623 374.5,70.5C 374.167,70.5 373.833,70.5 373.5,70.5C 373.5,69.8333 373.5,69.1667 373.5,68.5C 373.573,66.9731 372.906,65.9731 371.5,65.5C 371.167,64.8333 370.833,64.1667 370.5,63.5C 369.581,60.9108 367.914,58.9108 365.5,57.5C 362.232,52.8927 358.565,48.5594 354.5,44.5C 354.5,42.5 353.5,41.5 351.5,41.5C 350.37,39.6854 349.704,37.6854 349.5,35.5C 352.167,35.5 354.833,35.5 357.5,35.5 Z"/></g>
<g><path style="opacity:1" fill="#aeaeae" d="M 346.5,37.5 C 347.833,38.1667 348.833,39.1667 349.5,40.5C 348.391,40.4431 347.391,40.1098 346.5,39.5C 346.5,38.8333 346.5,38.1667 346.5,37.5 Z"/></g>
<g><path style="opacity:1" fill="#363636" d="M 366.5,38.5 C 367.167,38.5 367.833,38.5 368.5,38.5C 368.833,39.1667 369.167,39.8333 369.5,40.5C 367.973,40.573 366.973,39.9063 366.5,38.5 Z"/></g>
<g><path style="opacity:1" fill="#6c6c6c" d="M 368.5,38.5 C 369.609,38.5569 370.609,38.8902 371.5,39.5C 371.5,39.8333 371.5,40.1667 371.5,40.5C 370.833,40.5 370.167,40.5 369.5,40.5C 369.167,39.8333 368.833,39.1667 368.5,38.5 Z"/></g>
<g><path style="opacity:1" fill="#a0a0a0" d="M 371.5,40.5 C 371.5,40.1667 371.5,39.8333 371.5,39.5C 373.698,39.1201 375.365,39.7868 376.5,41.5C 375.833,41.5 375.167,41.5 374.5,41.5C 373.391,41.4431 372.391,41.1098 371.5,40.5 Z"/></g>
<g><path style="opacity:1" fill="#b3b3b3" d="M 349.5,40.5 C 350.167,40.8333 350.833,41.1667 351.5,41.5C 352.167,42.5 352.833,43.5 353.5,44.5C 351.167,44.1667 349.833,42.8333 349.5,40.5 Z"/></g>
<g><path style="opacity:1" fill="#3e3e3e" d="M 351.5,41.5 C 353.5,41.5 354.5,42.5 354.5,44.5C 354.167,44.5 353.833,44.5 353.5,44.5C 352.833,43.5 352.167,42.5 351.5,41.5 Z"/></g>
<g><path style="opacity:1" fill="#474747" d="M 374.5,41.5 C 375.167,41.5 375.833,41.5 376.5,41.5C 376.833,42.1667 377.167,42.8333 377.5,43.5C 375.973,43.573 374.973,42.9063 374.5,41.5 Z"/></g>
<g><path style="opacity:1" fill="#7a7a7a" d="M 376.5,41.5 C 378.544,42.5082 380.544,43.5082 382.5,44.5C 380.708,44.634 379.042,44.3007 377.5,43.5C 377.167,42.8333 376.833,42.1667 376.5,41.5 Z"/></g>
<g><path style="opacity:1" fill="#8b8b8b" d="M 353.5,44.5 C 353.833,44.5 354.167,44.5 354.5,44.5C 358.565,48.5594 362.232,52.8927 365.5,57.5C 361.5,53.8333 357.5,50.1667 353.5,46.5C 353.5,45.8333 353.5,45.1667 353.5,44.5 Z"/></g>
<g><path style="opacity:1" fill="#646464" d="M 382.5,44.5 C 383.167,44.5 383.833,44.5 384.5,44.5C 386.033,46.2451 388.033,47.2451 390.5,47.5C 392.349,48.593 394.016,49.9263 395.5,51.5C 390.393,50.4488 386.059,48.1154 382.5,44.5 Z"/></g>
<g><path style="opacity:1" fill="#cfcfcf" d="M 384.5,44.5 C 387.313,44.0246 389.313,45.0246 390.5,47.5C 388.033,47.2451 386.033,46.2451 384.5,44.5 Z"/></g>
<g><path style="opacity:1" fill="#e0e0e0" d="M 353.5,46.5 C 357.5,50.1667 361.5,53.8333 365.5,57.5C 365.5,58.1667 365.5,58.8333 365.5,59.5C 360.77,55.7731 356.77,51.4397 353.5,46.5 Z"/></g>
<g><path style="opacity:1" fill="#636363" d="M 395.5,51.5 C 396.167,51.5 396.833,51.5 397.5,51.5C 398.167,52.5 398.833,53.5 399.5,54.5C 397.596,54.2624 396.262,53.2624 395.5,51.5 Z"/></g>
<g><path style="opacity:1" fill="#c5c5c5" d="M 397.5,51.5 C 401.208,51.7117 403.874,53.3783 405.5,56.5C 403.5,55.8333 401.5,55.1667 399.5,54.5C 398.833,53.5 398.167,52.5 397.5,51.5 Z"/></g>
<g><path style="opacity:1" fill="#373737" d="M 399.5,54.5 C 401.5,55.1667 403.5,55.8333 405.5,56.5C 405.833,57.1667 406.167,57.8333 406.5,58.5C 403.341,58.4259 401.008,57.0926 399.5,54.5 Z"/></g>
<g><path style="opacity:1" fill="#cdcdcd" d="M 405.5,56.5 C 408.285,55.9162 409.952,56.9162 410.5,59.5C 409.833,59.5 409.167,59.5 408.5,59.5C 408.158,58.6618 407.492,58.3284 406.5,58.5C 406.167,57.8333 405.833,57.1667 405.5,56.5 Z"/></g>
<g><path style="opacity:1" fill="#707070" d="M 408.5,59.5 C 409.167,59.5 409.833,59.5 410.5,59.5C 410.833,60.1667 411.167,60.8333 411.5,61.5C 409.973,61.573 408.973,60.9063 408.5,59.5 Z"/></g>
<g><path style="opacity:1" fill="#626262" d="M 365.5,57.5 C 367.914,58.9108 369.581,60.9108 370.5,63.5C 369.5,62.8333 368.5,62.1667 367.5,61.5C 367.167,60.5 366.5,59.8333 365.5,59.5C 365.5,58.8333 365.5,58.1667 365.5,57.5 Z"/></g>
<g><path style="opacity:1" fill="#d5d5d5" d="M 413.5,61.5 C 415.749,62.0798 417.415,63.4131 418.5,65.5C 417.833,65.5 417.167,65.5 416.5,65.5C 415.5,64.1667 414.5,62.8333 413.5,61.5 Z"/></g>
<g><path style="opacity:1" fill="#767676" d="M 411.5,61.5 C 412.167,61.5 412.833,61.5 413.5,61.5C 414.5,62.8333 415.5,64.1667 416.5,65.5C 414.251,64.9202 412.585,63.5869 411.5,61.5 Z"/></g>
<g><path style="opacity:1" fill="#969696" d="M 367.5,61.5 C 368.5,62.1667 369.5,62.8333 370.5,63.5C 370.833,64.1667 371.167,64.8333 371.5,65.5C 371.5,65.8333 371.5,66.1667 371.5,66.5C 369.413,65.4154 368.08,63.7488 367.5,61.5 Z"/></g>
<g><path style="opacity:1" fill="#838383" d="M 416.5,65.5 C 417.167,65.5 417.833,65.5 418.5,65.5C 421.167,68.5 423.833,71.5 426.5,74.5C 422.564,72.2343 419.231,69.2343 416.5,65.5 Z"/></g>
<g><path style="opacity:1" fill="#dedede" d="M 418.5,65.5 C 422.436,67.7657 425.769,70.7657 428.5,74.5C 427.833,74.5 427.167,74.5 426.5,74.5C 423.833,71.5 421.167,68.5 418.5,65.5 Z"/></g>
<g><path style="opacity:1" fill="#595959" d="M 371.5,65.5 C 372.906,65.9731 373.573,66.9731 373.5,68.5C 372.833,68.1667 372.167,67.8333 371.5,67.5C 371.5,67.1667 371.5,66.8333 371.5,66.5C 371.5,66.1667 371.5,65.8333 371.5,65.5 Z"/></g>
<g><path style="opacity:1" fill="#a9a9a9" d="M 371.5,67.5 C 372.167,67.8333 372.833,68.1667 373.5,68.5C 373.5,69.1667 373.5,69.8333 373.5,70.5C 372.094,70.0269 371.427,69.0269 371.5,67.5 Z"/></g>
<g><path style="opacity:1" fill="#6c6c6c" d="M 374.5,70.5 C 376.262,71.2623 377.262,72.5956 377.5,74.5C 375.738,73.7377 374.738,72.4044 374.5,70.5 Z"/></g>
<g><path style="opacity:1" fill="#c1c1c1" d="M 373.5,70.5 C 373.833,70.5 374.167,70.5 374.5,70.5C 374.738,72.4044 375.738,73.7377 377.5,74.5C 377.66,76.153 378.326,77.4863 379.5,78.5C 379.5,79.1667 379.5,79.8333 379.5,80.5C 379.5,81.1667 379.5,81.8333 379.5,82.5C 377.298,78.5326 375.298,74.5326 373.5,70.5 Z"/></g>
<g><path style="opacity:1" fill="#909090" d="M 426.5,74.5 C 427.167,74.5 427.833,74.5 428.5,74.5C 430.909,76.9024 432.909,79.5691 434.5,82.5C 434.167,82.5 433.833,82.5 433.5,82.5C 431.167,79.8333 428.833,77.1667 426.5,74.5 Z"/></g>
<g><path style="opacity:1" fill="#4a4a4a" d="M 379.5,78.5 C 380.906,78.9731 381.573,79.9731 381.5,81.5C 380.833,81.1667 380.167,80.8333 379.5,80.5C 379.5,79.8333 379.5,79.1667 379.5,78.5 Z"/></g>
<g><path style="opacity:1" fill="#878787" d="M 379.5,80.5 C 380.167,80.8333 380.833,81.1667 381.5,81.5C 381.5,82.1667 381.5,82.8333 381.5,83.5C 380.833,83.1667 380.167,82.8333 379.5,82.5C 379.5,81.8333 379.5,81.1667 379.5,80.5 Z"/></g>
<g><path style="opacity:1" fill="#a7a7a7" d="M 434.5,82.5 C 436.5,82.5 437.5,83.5 437.5,85.5C 436.167,84.8333 435.167,83.8333 434.5,82.5 Z"/></g>
<g><path style="opacity:1" fill="#3e3e3e" d="M 433.5,82.5 C 433.833,82.5 434.167,82.5 434.5,82.5C 435.167,83.8333 436.167,84.8333 437.5,85.5C 437.5,86.1667 437.5,86.8333 437.5,87.5C 435.413,86.4154 434.08,84.7488 433.5,82.5 Z"/></g>
<g><path style="opacity:1" fill="#bababa" d="M 437.5,85.5 C 439.19,85.8564 440.19,86.8564 440.5,88.5C 439.833,88.1667 439.167,87.8333 438.5,87.5C 438.167,87.5 437.833,87.5 437.5,87.5C 437.5,86.8333 437.5,86.1667 437.5,85.5 Z"/></g>
<g><path style="opacity:1" fill="#515151" d="M 381.5,83.5 C 383.245,85.0326 384.245,87.0326 384.5,89.5C 383.143,88.4097 382.143,87.0764 381.5,85.5C 381.5,84.8333 381.5,84.1667 381.5,83.5 Z"/></g>
<g><path style="opacity:1" fill="#767676" d="M 438.5,87.5 C 439.167,87.8333 439.833,88.1667 440.5,88.5C 441.11,89.391 441.443,90.391 441.5,91.5C 439.738,90.7377 438.738,89.4044 438.5,87.5 Z"/></g>
<g><path style="opacity:1" fill="#474747" d="M 384.5,89.5 C 386.213,90.6354 386.88,92.302 386.5,94.5C 385.463,93.0697 384.796,91.403 384.5,89.5 Z"/></g>
<g><path style="opacity:1" fill="#696969" d="M 441.5,91.5 C 443.587,92.5846 444.92,94.2512 445.5,96.5C 443.413,95.4154 442.08,93.7488 441.5,91.5 Z"/></g>
<g><path style="opacity:1" fill="#a9a9a9" d="M 381.5,85.5 C 382.143,87.0764 383.143,88.4097 384.5,89.5C 384.796,91.403 385.463,93.0697 386.5,94.5C 386.5,95.8333 386.5,97.1667 386.5,98.5C 385.833,97.5 385.167,96.5 384.5,95.5C 383.424,92.1295 382.424,88.7961 381.5,85.5 Z"/></g>
<g><path style="opacity:1" fill="#292929" d="M 445.5,98.5 C 447.167,99.8333 448.833,101.167 450.5,102.5C 450.5,103.167 450.5,103.833 450.5,104.5C 448.086,103.089 446.419,101.089 445.5,98.5 Z"/></g>
<g><path style="opacity:1" fill="#dcdcdc" d="M 449.5,99.5 C 451.074,99.9371 452.241,100.937 453,102.5C 456.151,108.11 458.984,113.777 461.5,119.5C 460.833,119.5 460.167,119.5 459.5,119.5C 459.573,117.973 458.906,116.973 457.5,116.5C 457.5,115.833 457.5,115.167 457.5,114.5C 457.573,112.973 456.906,111.973 455.5,111.5C 455.008,109.181 454.008,107.181 452.5,105.5C 452.573,103.973 451.906,102.973 450.5,102.5C 450.443,101.391 450.11,100.391 449.5,99.5 Z"/></g>
<g><path style="opacity:1" fill="#828282" d="M 445.5,96.5 C 446.833,97.5 448.167,98.5 449.5,99.5C 450.11,100.391 450.443,101.391 450.5,102.5C 448.833,101.167 447.167,99.8333 445.5,98.5C 445.5,97.8333 445.5,97.1667 445.5,96.5 Z"/></g>
<g><path style="opacity:1" fill="#3c3c3c" d="M 387.5,98.5 C 388.924,100.515 389.59,102.848 389.5,105.5C 388.833,104.5 388.167,103.5 387.5,102.5C 387.5,101.167 387.5,99.8333 387.5,98.5 Z"/></g>
<g><path style="opacity:1" fill="#999999" d="M 450.5,102.5 C 451.906,102.973 452.573,103.973 452.5,105.5C 451.833,105.167 451.167,104.833 450.5,104.5C 450.5,103.833 450.5,103.167 450.5,102.5 Z"/></g>
<g><path style="opacity:1" fill="#616161" d="M 450.5,104.5 C 451.167,104.833 451.833,105.167 452.5,105.5C 454.008,107.181 455.008,109.181 455.5,111.5C 455.5,112.167 455.5,112.833 455.5,113.5C 453.583,110.669 451.917,107.669 450.5,104.5 Z"/></g>
<g><path style="opacity:1" fill="#9c9c9c" d="M 387.5,106.5 C 388.924,108.515 389.59,110.848 389.5,113.5C 389.167,113.5 388.833,113.5 388.5,113.5C 388.007,111.194 387.674,108.861 387.5,106.5 Z"/></g>
<g><path style="opacity:1" fill="#9a9a9a" d="M 455.5,111.5 C 456.906,111.973 457.573,112.973 457.5,114.5C 456.833,114.167 456.167,113.833 455.5,113.5C 455.5,112.833 455.5,112.167 455.5,111.5 Z"/></g>
<g><path style="opacity:1" fill="#5e5e5e" d="M 387.5,102.5 C 388.167,103.5 388.833,104.5 389.5,105.5C 390.185,107.414 390.685,109.414 391,111.5C 391.5,120.827 391.666,130.161 391.5,139.5C 390.833,139.5 390.167,139.5 389.5,139.5C 389.5,130.833 389.5,122.167 389.5,113.5C 389.59,110.848 388.924,108.515 387.5,106.5C 387.5,105.167 387.5,103.833 387.5,102.5 Z"/></g>
<g><path style="opacity:1" fill="#555555" d="M 455.5,113.5 C 456.167,113.833 456.833,114.167 457.5,114.5C 457.5,115.167 457.5,115.833 457.5,116.5C 456.094,116.027 455.427,115.027 455.5,113.5 Z"/></g>
<g><path style="opacity:0.999" fill="#f4f4f4" d="M 279.5,118.5 C 249.662,118.169 219.995,118.502 190.5,119.5C 190.167,119.5 189.833,119.5 189.5,119.5C 172.528,119.136 163.528,127.47 162.5,144.5C 165.543,152.515 171.209,157.515 179.5,159.5C 179.5,160.5 179.5,161.5 179.5,162.5C 161.987,159.809 155.154,149.809 159,132.5C 161.029,122.478 167.195,117.645 177.5,118C 211.669,117.169 245.669,117.336 279.5,118.5 Z"/></g>
<g><path style="opacity:1" fill="#737373" d="M 457.5,116.5 C 458.906,116.973 459.573,117.973 459.5,119.5C 458.833,119.167 458.167,118.833 457.5,118.5C 457.5,117.833 457.5,117.167 457.5,116.5 Z"/></g>
<g><path style="opacity:0.998" fill="#e8e8e8" d="M 189.5,119.5 C 175.038,122.478 167.538,131.478 167,146.5C 169.878,151.35 174.044,154.35 179.5,155.5C 179.5,156.833 179.5,158.167 179.5,159.5C 171.209,157.515 165.543,152.515 162.5,144.5C 163.528,127.47 172.528,119.136 189.5,119.5 Z"/></g>
<g><path style="opacity:1" fill="#333333" d="M 457.5,118.5 C 458.167,118.833 458.833,119.167 459.5,119.5C 459.5,120.167 459.5,120.833 459.5,121.5C 458.094,121.027 457.427,120.027 457.5,118.5 Z"/></g>
<g><path style="opacity:0.996" fill="#f2f2f2" d="M 279.5,118.5 C 292.924,118.751 305.924,121.251 318.5,126C 345.372,137.555 358.206,158.055 357,187.5C 356.641,191.192 354.641,193.192 351,193.5C 345.153,192.451 339.32,191.451 333.5,190.5C 333.167,189.833 332.833,189.167 332.5,188.5C 350.057,191.408 355.891,184.408 350,167.5C 341.602,143.27 324.769,128.936 299.5,124.5C 293.146,121.012 286.48,119.012 279.5,118.5 Z"/></g>
<g><path style="opacity:1" fill="#d9d9d9" d="M 189.5,119.5 C 189.833,119.5 190.167,119.5 190.5,119.5C 220.858,119.083 251.192,119.583 281.5,121C 290.709,123.875 300.043,126.542 309.5,129C 315.876,133.52 322.542,137.52 329.5,141C 339.301,150.101 345.301,161.268 347.5,174.5C 346.855,177.228 346.021,179.895 345,182.5C 341.226,184.894 337.06,186.227 332.5,186.5C 332.443,185.391 332.11,184.391 331.5,183.5C 338.745,182.422 342.745,178.255 343.5,171C 341.389,159.618 336.055,150.285 327.5,143C 326.552,142.517 325.552,142.351 324.5,142.5C 322.996,140.164 320.996,138.331 318.5,137C 311.15,134.241 303.983,131.075 297,127.5C 291.621,125.791 286.121,124.791 280.5,124.5C 280.082,123.778 279.416,123.278 278.5,123C 263.667,122.833 248.833,122.667 234,122.5C 217.783,122.363 201.616,122.863 185.5,124C 176.344,127.676 171.011,134.509 169.5,144.5C 171.604,148.941 174.937,151.941 179.5,153.5C 179.5,154.167 179.5,154.833 179.5,155.5C 174.044,154.35 169.878,151.35 167,146.5C 167.538,131.478 175.038,122.478 189.5,119.5 Z"/></g>
<g><path style="opacity:0.993" fill="#cccccc" d="M 280.5,124.5 C 252.178,123.412 223.845,123.246 195.5,124C 184.547,124.625 177.38,130.125 174,140.5C 173.192,142.579 173.359,144.579 174.5,146.5C 175.766,148.404 177.433,149.737 179.5,150.5C 179.5,151.5 179.5,152.5 179.5,153.5C 174.937,151.941 171.604,148.941 169.5,144.5C 171.011,134.509 176.344,127.676 185.5,124C 201.616,122.863 217.783,122.363 234,122.5C 248.833,122.667 263.667,122.833 278.5,123C 279.416,123.278 280.082,123.778 280.5,124.5 Z"/></g>
<g><path style="opacity:1" fill="#d2d2d2" d="M 388.5,113.5 C 388.833,113.5 389.167,113.5 389.5,113.5C 389.5,122.167 389.5,130.833 389.5,139.5C 388.076,141.515 387.41,143.848 387.5,146.5C 386.656,149.345 385.99,152.345 385.5,155.5C 385.771,157.38 385.104,158.713 383.5,159.5C 384.689,152.444 386.023,145.444 387.5,138.5C 388.493,130.35 388.826,122.017 388.5,113.5 Z"/></g>
<g><path style="opacity:1" fill="#999999" d="M 459.5,119.5 C 460.167,119.5 460.833,119.5 461.5,119.5C 461.263,120.791 461.596,121.791 462.5,122.5C 462.5,123.167 462.5,123.833 462.5,124.5C 462.167,124.5 461.833,124.5 461.5,124.5C 461.068,123.29 460.401,122.29 459.5,121.5C 459.5,120.833 459.5,120.167 459.5,119.5 Z"/></g>
<g><path style="opacity:1" fill="#e6e6e6" d="M 384.5,95.5 C 385.167,96.5 385.833,97.5 386.5,98.5C 386.833,98.5 387.167,98.5 387.5,98.5C 387.5,99.8333 387.5,101.167 387.5,102.5C 387.5,103.833 387.5,105.167 387.5,106.5C 387.674,108.861 388.007,111.194 388.5,113.5C 388.826,122.017 388.493,130.35 387.5,138.5C 387.666,130.826 387.5,123.159 387,115.5C 385.63,108.895 384.797,102.228 384.5,95.5 Z"/></g>
<g><path style="opacity:1" fill="#afafaf" d="M 329.5,176.5 C 328.18,174.537 326.846,172.537 325.5,170.5C 328.403,168.695 329.736,166.029 329.5,162.5C 329.196,158.886 328.029,155.552 326,152.5C 321.49,148.644 317.324,144.477 313.5,140C 308.745,137.272 303.745,134.939 298.5,133C 291.451,132.078 284.451,130.911 277.5,129.5C 252.507,128.334 227.507,128.167 202.5,129C 197.399,129.632 192.399,130.632 187.5,132C 183.721,135.724 181.721,140.224 181.5,145.5C 180.167,145.5 179.5,146.167 179.5,147.5C 174.988,146.12 174.154,143.453 177,139.5C 181.956,128.586 190.456,124.086 202.5,126C 226.833,125.333 251.167,125.333 275.5,126C 289.11,127.478 302.11,131.312 314.5,137.5C 322.984,143.146 329.484,150.479 334,159.5C 336.644,166.384 335.144,172.051 329.5,176.5 Z"/></g>
<g><path style="opacity:0.996" fill="#e6e6e6" d="M 190.5,119.5 C 219.995,118.502 249.662,118.169 279.5,118.5C 286.48,119.012 293.146,121.012 299.5,124.5C 324.769,128.936 341.602,143.27 350,167.5C 355.891,184.408 350.057,191.408 332.5,188.5C 332.5,187.833 332.5,187.167 332.5,186.5C 337.06,186.227 341.226,184.894 345,182.5C 346.021,179.895 346.855,177.228 347.5,174.5C 345.301,161.268 339.301,150.101 329.5,141C 322.542,137.52 315.876,133.52 309.5,129C 300.043,126.542 290.709,123.875 281.5,121C 251.192,119.583 220.858,119.083 190.5,119.5 Z"/></g>
<g><path style="opacity:1" fill="#707070" d="M 461.5,124.5 C 461.833,124.5 462.167,124.5 462.5,124.5C 464.302,127.574 465.302,130.908 465.5,134.5C 463.654,131.46 462.321,128.127 461.5,124.5 Z"/></g>
<g><path style="opacity:1" fill="#c1c1c1" d="M 280.5,124.5 C 286.121,124.791 291.621,125.791 297,127.5C 303.983,131.075 311.15,134.241 318.5,137C 320.996,138.331 322.996,140.164 324.5,142.5C 330.218,148.297 334.718,154.964 338,162.5C 340.632,170.72 338.132,176.387 330.5,179.5C 329.89,178.609 329.557,177.609 329.5,176.5C 335.144,172.051 336.644,166.384 334,159.5C 329.484,150.479 322.984,143.146 314.5,137.5C 302.11,131.312 289.11,127.478 275.5,126C 251.167,125.333 226.833,125.333 202.5,126C 190.456,124.086 181.956,128.586 177,139.5C 174.154,143.453 174.988,146.12 179.5,147.5C 179.5,148.5 179.5,149.5 179.5,150.5C 177.433,149.737 175.766,148.404 174.5,146.5C 173.359,144.579 173.192,142.579 174,140.5C 177.38,130.125 184.547,124.625 195.5,124C 223.845,123.246 252.178,123.412 280.5,124.5 Z"/></g>
<g><path style="opacity:1" fill="#9d9d9d" d="M 325.5,170.5 C 323.115,168.116 321.115,165.45 319.5,162.5C 320.339,161.359 321.006,160.026 321.5,158.5C 320.129,155.105 318.796,151.771 317.5,148.5C 316.448,148.649 315.448,148.483 314.5,148C 310.286,144.068 305.62,140.901 300.5,138.5C 293.041,134.799 285.041,132.633 276.5,132C 252.849,130.577 229.182,130.244 205.5,131C 197.988,130.998 191.488,133.498 186,138.5C 184.589,140.65 183.755,142.984 183.5,145.5C 182.833,145.5 182.167,145.5 181.5,145.5C 181.721,140.224 183.721,135.724 187.5,132C 192.399,130.632 197.399,129.632 202.5,129C 227.507,128.167 252.507,128.334 277.5,129.5C 284.451,130.911 291.451,132.078 298.5,133C 303.745,134.939 308.745,137.272 313.5,140C 317.324,144.477 321.49,148.644 326,152.5C 328.029,155.552 329.196,158.886 329.5,162.5C 329.736,166.029 328.403,168.695 325.5,170.5 Z"/></g>
<g><path style="opacity:1" fill="#cecece" d="M 462.5,122.5 C 463.497,122.47 464.164,122.97 464.5,124C 465.222,128.172 466.722,132.005 469,135.5C 469.494,137.134 469.66,138.801 469.5,140.5C 468.167,138.5 466.833,136.5 465.5,134.5C 465.302,130.908 464.302,127.574 462.5,124.5C 462.5,123.833 462.5,123.167 462.5,122.5 Z"/></g>
<g><path style="opacity:1" fill="#8e8e8e" d="M 300.5,138.5 C 291.235,136.685 281.902,135.185 272.5,134C 248.833,133.333 225.167,133.333 201.5,134C 194.004,135.018 188.671,138.852 185.5,145.5C 184.833,145.5 184.167,145.5 183.5,145.5C 183.755,142.984 184.589,140.65 186,138.5C 191.488,133.498 197.988,130.998 205.5,131C 229.182,130.244 252.849,130.577 276.5,132C 285.041,132.633 293.041,134.799 300.5,138.5 Z"/></g>
<g><path style="opacity:0.991" fill="#808080" d="M 315.5,159.5 C 314.167,158.833 312.833,158.167 311.5,157.5C 311.662,155.473 311.495,153.473 311,151.5C 304.166,144.878 295.999,140.711 286.5,139C 281.53,138.114 276.53,137.448 271.5,137C 248.5,136.333 225.5,136.333 202.5,137C 196.811,137.84 192.477,140.673 189.5,145.5C 188.833,145.5 188.167,145.5 187.5,145.5C 190.596,138.774 195.929,135.274 203.5,135C 228.523,134.115 253.523,134.448 278.5,136C 292.267,136.972 304.1,142.139 314,151.5C 315.252,154.014 315.752,156.68 315.5,159.5 Z"/></g>
<g><path style="opacity:0.99" fill="#757575" d="M 311.5,157.5 C 308.797,155.819 306.131,154.153 303.5,152.5C 301.424,147.776 297.758,144.942 292.5,144C 283.356,141.365 274.023,140.032 264.5,140C 244.833,139.333 225.167,139.333 205.5,140C 201.01,140.426 197.344,142.259 194.5,145.5C 192.833,145.5 191.167,145.5 189.5,145.5C 192.477,140.673 196.811,137.84 202.5,137C 225.5,136.333 248.5,136.333 271.5,137C 276.53,137.448 281.53,138.114 286.5,139C 295.999,140.711 304.166,144.878 311,151.5C 311.495,153.473 311.662,155.473 311.5,157.5 Z"/></g>
<g><path style="opacity:0.983" fill="#6d6d6d" d="M 303.5,152.5 C 301.035,152.233 298.701,151.566 296.5,150.5C 296.586,149.504 296.252,148.671 295.5,148C 285.961,143.854 275.961,141.854 265.5,142C 245.833,141.333 226.167,141.333 206.5,142C 203.334,142.322 200.667,143.489 198.5,145.5C 197.167,145.5 195.833,145.5 194.5,145.5C 197.344,142.259 201.01,140.426 205.5,140C 225.167,139.333 244.833,139.333 264.5,140C 274.023,140.032 283.356,141.365 292.5,144C 297.758,144.942 301.424,147.776 303.5,152.5 Z"/></g>
<g><path style="opacity:1" fill="#6b6b6b" d="M 465.5,134.5 C 466.833,136.5 468.167,138.5 469.5,140.5C 469.5,141.167 469.5,141.833 469.5,142.5C 469.5,143.167 469.5,143.833 469.5,144.5C 468.833,143.833 468.167,143.167 467.5,142.5C 466.25,139.994 465.584,137.327 465.5,134.5 Z"/></g>
<g><path style="opacity:0.965" fill="#666666" d="M 296.5,150.5 C 290.606,148.888 284.606,147.721 278.5,147C 251.852,145.667 225.186,145.167 198.5,145.5C 200.667,143.489 203.334,142.322 206.5,142C 226.167,141.333 245.833,141.333 265.5,142C 275.961,141.854 285.961,143.854 295.5,148C 296.252,148.671 296.586,149.504 296.5,150.5 Z"/></g>
<g><path style="opacity:1" fill="#c3c3c3" d="M 469.5,142.5 C 471.213,143.635 471.88,145.302 471.5,147.5C 470.833,146.5 470.167,145.5 469.5,144.5C 469.5,143.833 469.5,143.167 469.5,142.5 Z"/></g>
<g><path style="opacity:0.95" fill="#888888" d="M 300.5,138.5 C 305.62,140.901 310.286,144.068 314.5,148C 315.448,148.483 316.448,148.649 317.5,148.5C 318.796,151.771 320.129,155.105 321.5,158.5C 321.006,160.026 320.339,161.359 319.5,162.5C 317.596,162.262 316.262,161.262 315.5,159.5C 315.752,156.68 315.252,154.014 314,151.5C 304.1,142.139 292.267,136.972 278.5,136C 253.523,134.448 228.523,134.115 203.5,135C 195.929,135.274 190.596,138.774 187.5,145.5C 186.833,145.5 186.167,145.5 185.5,145.5C 188.671,138.852 194.004,135.018 201.5,134C 225.167,133.333 248.833,133.333 272.5,134C 281.902,135.185 291.235,136.685 300.5,138.5 Z"/></g>
<g><path style="opacity:1" fill="#949494" d="M 389.5,139.5 C 389.5,140.833 389.5,142.167 389.5,143.5C 388.833,144.5 388.167,145.5 387.5,146.5C 387.41,143.848 388.076,141.515 389.5,139.5 Z"/></g>
<g><path style="opacity:1" fill="#525252" d="M 389.5,143.5 C 389.037,146.482 388.704,149.482 388.5,152.5C 388.672,153.492 388.338,154.158 387.5,154.5C 387.5,151.833 387.5,149.167 387.5,146.5C 388.167,145.5 388.833,144.5 389.5,143.5 Z"/></g>
<g><path style="opacity:1" fill="#1c1c1c" d="M 389.5,139.5 C 390.167,139.5 390.833,139.5 391.5,139.5C 391.237,144.124 390.237,148.458 388.5,152.5C 388.704,149.482 389.037,146.482 389.5,143.5C 389.5,142.167 389.5,140.833 389.5,139.5 Z"/></g>
<g><path style="opacity:1" fill="#545454" d="M 469.5,144.5 C 470.167,145.5 470.833,146.5 471.5,147.5C 471.5,148.167 471.5,148.833 471.5,149.5C 471.5,150.167 471.5,150.833 471.5,151.5C 470.883,151.389 470.383,151.056 470,150.5C 469.505,148.527 469.338,146.527 469.5,144.5 Z"/></g>
<g><path style="opacity:1" fill="#949494" d="M 387.5,146.5 C 387.5,149.167 387.5,151.833 387.5,154.5C 386.833,154.833 386.167,155.167 385.5,155.5C 385.99,152.345 386.656,149.345 387.5,146.5 Z"/></g>
<g><path style="opacity:0.985" fill="#cfcfcf" d="M 324.5,142.5 C 325.552,142.351 326.552,142.517 327.5,143C 336.055,150.285 341.389,159.618 343.5,171C 342.745,178.255 338.745,182.422 331.5,183.5C 331.167,182.167 330.833,180.833 330.5,179.5C 338.132,176.387 340.632,170.72 338,162.5C 334.718,154.964 330.218,148.297 324.5,142.5 Z"/></g>
<g><path style="opacity:1" fill="#1d1d1d" d="M 467.5,142.5 C 468.167,143.167 468.833,143.833 469.5,144.5C 469.338,146.527 469.505,148.527 470,150.5C 470.383,151.056 470.883,151.389 471.5,151.5C 471.5,152.833 471.5,154.167 471.5,155.5C 468.925,151.699 467.592,147.365 467.5,142.5 Z"/></g>
<g><path style="opacity:1" fill="#707070" d="M 471.5,151.5 C 473.99,157.463 474.99,163.796 474.5,170.5C 474.825,178.352 474.492,186.018 473.5,193.5C 473.666,183.161 473.5,172.828 473,162.5C 472.814,159.964 472.314,157.631 471.5,155.5C 471.5,154.167 471.5,152.833 471.5,151.5 Z"/></g>
<g><path style="opacity:1" fill="#585858" d="M 387.5,154.5 C 387.657,155.873 387.49,157.207 387,158.5C 385.219,160.724 383.719,163.058 382.5,165.5C 382.517,163.435 382.85,161.435 383.5,159.5C 385.104,158.713 385.771,157.38 385.5,155.5C 386.167,155.167 386.833,154.833 387.5,154.5 Z"/></g>
<g><path style="opacity:1" fill="#d2d2d2" d="M 383.5,159.5 C 382.85,161.435 382.517,163.435 382.5,165.5C 381.662,165.842 381.328,166.508 381.5,167.5C 380.833,167.833 380.167,168.167 379.5,168.5C 379.502,164.835 380.835,161.835 383.5,159.5 Z"/></g>
<g><path style="opacity:1" fill="#c0c0c0" d="M 379.5,169.5 C 377.685,173.623 375.685,177.623 373.5,181.5C 372.833,181.5 372.5,181.833 372.5,182.5C 372.167,182.5 371.833,182.5 371.5,182.5C 373.88,178.759 375.88,174.759 377.5,170.5C 377.957,169.702 378.624,169.369 379.5,169.5 Z"/></g>
<g><path style="opacity:1" fill="#5d5d5d" d="M 381.5,167.5 C 380.268,171.247 378.768,174.914 377,178.5C 375.961,179.71 374.794,180.71 373.5,181.5C 375.685,177.623 377.685,173.623 379.5,169.5C 379.5,169.167 379.5,168.833 379.5,168.5C 380.167,168.167 380.833,167.833 381.5,167.5 Z"/></g>
<g><path style="opacity:1" fill="#e1e1e1" d="M 471.5,149.5 C 472.458,149.953 473.292,150.619 474,151.5C 477.03,172.502 477.197,193.502 474.5,214.5C 473.833,215.5 473.167,216.5 472.5,217.5C 472.5,216.167 472.5,214.833 472.5,213.5C 474.217,210.155 474.884,206.489 474.5,202.5C 475.749,191.686 475.749,181.019 474.5,170.5C 474.99,163.796 473.99,157.463 471.5,151.5C 471.5,150.833 471.5,150.167 471.5,149.5 Z"/></g>
<g><path style="opacity:1" fill="#202020" d="M 471.5,155.5 C 472.314,157.631 472.814,159.964 473,162.5C 473.5,172.828 473.666,183.161 473.5,193.5C 473.768,195.099 473.434,196.432 472.5,197.5C 472.651,183.484 472.318,169.484 471.5,155.5 Z"/></g>
<g><path style="opacity:1" fill="#353535" d="M 373.5,181.5 C 373.715,183.179 373.048,184.179 371.5,184.5C 371.833,183.833 372.167,183.167 372.5,182.5C 372.5,181.833 372.833,181.5 373.5,181.5 Z"/></g>
<g><path style="opacity:1" fill="#9b9b9b" d="M 371.5,182.5 C 371.833,182.5 372.167,182.5 372.5,182.5C 372.167,183.167 371.833,183.833 371.5,184.5C 370.094,184.973 369.427,185.973 369.5,187.5C 367.738,188.262 366.738,189.596 366.5,191.5C 365.5,191.833 364.833,192.5 364.5,193.5C 361.911,194.419 359.911,196.086 358.5,198.5C 356.596,198.738 355.262,199.738 354.5,201.5C 352.184,202.806 349.85,204.139 347.5,205.5C 347.5,205.167 347.5,204.833 347.5,204.5C 356.477,198.187 364.477,190.854 371.5,182.5 Z"/></g>
<g><path style="opacity:1" fill="#373737" d="M 371.5,184.5 C 371.573,186.027 370.906,187.027 369.5,187.5C 369.427,185.973 370.094,184.973 371.5,184.5 Z"/></g>
<g><path style="opacity:1" fill="#353535" d="M 369.5,187.5 C 369.262,189.404 368.262,190.738 366.5,191.5C 366.738,189.596 367.738,188.262 369.5,187.5 Z"/></g>
<g><path style="opacity:1" fill="#2d2d2d" d="M 364.5,193.5 C 363.089,195.914 361.089,197.581 358.5,198.5C 359.911,196.086 361.911,194.419 364.5,193.5 Z"/></g>
<g><path style="opacity:1" fill="#8c8c8c" d="M 474.5,170.5 C 475.749,181.019 475.749,191.686 474.5,202.5C 473.833,204.833 473.167,207.167 472.5,209.5C 472.5,206.167 472.5,202.833 472.5,199.5C 472.5,198.833 472.5,198.167 472.5,197.5C 473.434,196.432 473.768,195.099 473.5,193.5C 474.492,186.018 474.825,178.352 474.5,170.5 Z"/></g>
<g><path style="opacity:1" fill="#1e1e1e" d="M 472.5,199.5 C 472.5,202.833 472.5,206.167 472.5,209.5C 471.475,212.974 470.808,216.64 470.5,220.5C 468.025,221.687 467.025,223.687 467.5,226.5C 467.5,227.5 467.5,228.5 467.5,229.5C 467.167,229.5 466.833,229.5 466.5,229.5C 466.336,226.813 466.503,224.146 467,221.5C 468.887,219.974 469.887,217.974 470,215.5C 470.333,211.167 470.667,206.833 471,202.5C 471.232,201.263 471.732,200.263 472.5,199.5 Z"/></g>
<g><path style="opacity:1" fill="#cccccc" d="M 347.5,204.5 C 347.5,204.833 347.5,205.167 347.5,205.5C 344.008,206.41 341.008,208.076 338.5,210.5C 337.833,210.5 337.167,210.5 336.5,210.5C 334.833,210.5 333.167,210.5 331.5,210.5C 336.706,208.581 342.04,206.581 347.5,204.5 Z"/></g>
<g><path style="opacity:1" fill="#484848" d="M 354.5,201.5 C 350.115,206.03 344.782,209.03 338.5,210.5C 341.008,208.076 344.008,206.41 347.5,205.5C 349.85,204.139 352.184,202.806 354.5,201.5 Z"/></g>
<g><path style="opacity:1" fill="#b2b2b2" d="M 474.5,202.5 C 474.884,206.489 474.217,210.155 472.5,213.5C 472.5,212.167 472.5,210.833 472.5,209.5C 473.167,207.167 473.833,204.833 474.5,202.5 Z"/></g>
<g><path style="opacity:0.165" fill="#a0a0a0" d="M 331.5,210.5 C 333.167,210.5 334.833,210.5 336.5,210.5C 336.167,211.167 335.833,211.833 335.5,212.5C 333.585,212.216 331.919,212.549 330.5,213.5C 325.523,214.327 320.523,214.994 315.5,215.5C 316.347,214.034 317.68,213.2 319.5,213C 323.025,212.821 326.359,212.321 329.5,211.5C 330.167,211.167 330.833,210.833 331.5,210.5 Z"/></g>
<g><path style="opacity:1" fill="#3b3b3b" d="M 336.5,210.5 C 337.167,210.5 337.833,210.5 338.5,210.5C 338.027,211.906 337.027,212.573 335.5,212.5C 335.833,211.833 336.167,211.167 336.5,210.5 Z"/></g>
<g><path style="opacity:1" fill="#212121" d="M 335.5,212.5 C 330.056,216.957 323.723,218.624 316.5,217.5C 321.325,216.793 325.991,215.46 330.5,213.5C 331.919,212.549 333.585,212.216 335.5,212.5 Z"/></g>
<g><path style="opacity:0.008" fill="#e4e4e4" d="M 323.5,211.5 C 325.5,211.5 327.5,211.5 329.5,211.5C 326.359,212.321 323.025,212.821 319.5,213C 317.68,213.2 316.347,214.034 315.5,215.5C 312.833,215.833 310.167,216.167 307.5,216.5C 264.834,216.912 222.167,217.245 179.5,217.5C 179.5,217.167 179.5,216.833 179.5,216.5C 221.818,215.16 264.152,214.327 306.5,214C 312.11,212.757 317.776,211.924 323.5,211.5 Z"/></g>
<g><path style="opacity:0.592" fill="#565656" d="M 330.5,213.5 C 325.991,215.46 321.325,216.793 316.5,217.5C 313.5,217.5 310.5,217.5 307.5,217.5C 307.5,217.167 307.5,216.833 307.5,216.5C 310.167,216.167 312.833,215.833 315.5,215.5C 320.523,214.994 325.523,214.327 330.5,213.5 Z"/></g>
<g><path style="opacity:0.158" fill="#9b9b9b" d="M 307.5,216.5 C 307.5,216.833 307.5,217.167 307.5,217.5C 264.834,218.191 222.167,218.858 179.5,219.5C 179.5,218.833 179.5,218.167 179.5,217.5C 222.167,217.245 264.834,216.912 307.5,216.5 Z"/></g>
<g><path style="opacity:0.781" fill="#4a4a4a" d="M 307.5,217.5 C 307.389,218.117 307.056,218.617 306.5,219C 299.508,219.5 292.508,219.666 285.5,219.5C 250.171,220.185 214.838,220.518 179.5,220.5C 179.5,220.167 179.5,219.833 179.5,219.5C 222.167,218.858 264.834,218.191 307.5,217.5 Z"/></g>
<g><path style="opacity:1" fill="#e2e2e2" d="M 179.5,219.5 C 179.5,219.833 179.5,220.167 179.5,220.5C 153.818,220.244 128.152,220.578 102.5,221.5C 104.631,220.686 106.964,220.186 109.5,220C 132.831,219.5 156.164,219.333 179.5,219.5 Z"/></g>
<g><path style="opacity:0.922" fill="#232323" d="M 285.5,219.5 C 250.349,221.21 215.015,221.877 179.5,221.5C 179.5,221.167 179.5,220.833 179.5,220.5C 214.838,220.518 250.171,220.185 285.5,219.5 Z"/></g>
<g><path style="opacity:1" fill="#7d7d7d" d="M 472.5,209.5 C 472.5,210.833 472.5,212.167 472.5,213.5C 472.5,214.833 472.5,216.167 472.5,217.5C 471.833,218.5 471.167,219.5 470.5,220.5C 470.808,216.64 471.475,212.974 472.5,209.5 Z"/></g>
<g><path style="opacity:1" fill="#acacac" d="M 179.5,220.5 C 179.5,220.833 179.5,221.167 179.5,221.5C 148.796,221.069 118.129,221.736 87.5,223.5C 86.5,223.5 85.5,223.5 84.5,223.5C 90.2614,221.943 96.2614,221.276 102.5,221.5C 128.152,220.578 153.818,220.244 179.5,220.5 Z"/></g>
<g><path style="opacity:1" fill="#414141" d="M 179.5,221.5 C 148.993,222.498 118.326,223.498 87.5,224.5C 87.5,224.167 87.5,223.833 87.5,223.5C 118.129,221.736 148.796,221.069 179.5,221.5 Z"/></g>
<g><path style="opacity:1" fill="#757575" d="M 84.5,223.5 C 85.5,223.5 86.5,223.5 87.5,223.5C 87.5,223.833 87.5,224.167 87.5,224.5C 83.6814,224.414 80.0148,225.081 76.5,226.5C 75.8333,226.5 75.1667,226.5 74.5,226.5C 74.5,226.167 74.5,225.833 74.5,225.5C 77.6939,224.242 81.0272,223.576 84.5,223.5 Z"/></g>
<g><path style="opacity:1" fill="#555555" d="M 470.5,220.5 C 470.245,222.967 469.245,224.967 467.5,226.5C 467.025,223.687 468.025,221.687 470.5,220.5 Z"/></g>
<g><path style="opacity:1" fill="#bcbcbc" d="M 472.5,217.5 C 471.017,223.144 469.517,228.811 468,234.5C 467.617,235.056 467.117,235.389 466.5,235.5C 466.517,233.435 466.85,231.435 467.5,229.5C 467.5,228.5 467.5,227.5 467.5,226.5C 469.245,224.967 470.245,222.967 470.5,220.5C 471.167,219.5 471.833,218.5 472.5,217.5 Z"/></g>
<g><path style="opacity:0.989" fill="#f0f0f0" d="M 474.5,214.5 C 473.992,217.176 473.825,219.843 474,222.5C 475.323,219.003 477.823,217.336 481.5,217.5C 487.958,218.732 493.958,221.065 499.5,224.5C 498.992,228.197 498.326,231.864 497.5,235.5C 487.888,230.221 479.721,231.887 473,240.5C 463.649,256.353 452.483,270.853 439.5,284C 438.563,284.692 437.897,284.525 437.5,283.5C 438.6,282.395 439.267,281.062 439.5,279.5C 444.287,276.052 447.954,271.719 450.5,266.5C 450.5,265.833 450.5,265.167 450.5,264.5C 452.167,263.5 453.5,262.167 454.5,260.5C 456.245,258.967 457.245,256.967 457.5,254.5C 459.975,253.313 460.975,251.313 460.5,248.5C 460.5,247.833 460.5,247.167 460.5,246.5C 461.906,246.027 462.573,245.027 462.5,243.5C 463.906,243.027 464.573,242.027 464.5,240.5C 464.5,239.833 464.5,239.167 464.5,238.5C 465.167,237.5 465.833,236.5 466.5,235.5C 467.117,235.389 467.617,235.056 468,234.5C 469.517,228.811 471.017,223.144 472.5,217.5C 473.167,216.5 473.833,215.5 474.5,214.5 Z"/></g>
<g><path style="opacity:1" fill="#8d8d8d" d="M 74.5,225.5 C 74.5,225.833 74.5,226.167 74.5,226.5C 72.597,226.796 70.9303,227.463 69.5,228.5C 67.5648,229.15 65.5648,229.483 63.5,229.5C 63.5,229.167 63.5,228.833 63.5,228.5C 67.0961,227.2 70.7627,226.2 74.5,225.5 Z"/></g>
<g><path style="opacity:1" fill="#3d3d3d" d="M 74.5,226.5 C 75.1667,226.5 75.8333,226.5 76.5,226.5C 74.4855,227.924 72.1522,228.59 69.5,228.5C 70.9303,227.463 72.597,226.796 74.5,226.5 Z"/></g>
<g><path style="opacity:1" fill="#c2c2c2" d="M 63.5,228.5 C 63.5,228.833 63.5,229.167 63.5,229.5C 61.9731,229.427 60.9731,230.094 60.5,231.5C 59.8333,231.5 59.1667,231.5 58.5,231.5C 59.4006,229.273 61.0672,228.273 63.5,228.5 Z"/></g>
<g><path style="opacity:1" fill="#636363" d="M 63.5,229.5 C 63.0269,230.906 62.0269,231.573 60.5,231.5C 60.9731,230.094 61.9731,229.427 63.5,229.5 Z"/></g>
<g><path style="opacity:1" fill="#3d3d3d" d="M 58.5,231.5 C 59.1667,231.5 59.8333,231.5 60.5,231.5C 60.0269,232.906 59.0269,233.573 57.5,233.5C 57.8333,232.833 58.1667,232.167 58.5,231.5 Z"/></g>
<g><path style="opacity:1" fill="#555555" d="M 466.5,229.5 C 466.833,229.5 467.167,229.5 467.5,229.5C 466.85,231.435 466.517,233.435 466.5,235.5C 465.833,236.5 465.167,237.5 464.5,238.5C 464.215,235.171 464.882,232.171 466.5,229.5 Z"/></g>
<g><path style="opacity:0.988" fill="#e9e9e9" d="M 497.5,235.5 C 496.833,237.167 496.167,238.833 495.5,240.5C 489.764,237.675 484.097,237.841 478.5,241C 469.068,251.374 460.235,262.208 452,273.5C 444.1,282.069 435.6,289.903 426.5,297C 425.184,297.528 424.517,297.028 424.5,295.5C 426.5,292.833 428.833,290.5 431.5,288.5C 433.5,286.833 435.5,285.167 437.5,283.5C 437.897,284.525 438.563,284.692 439.5,284C 452.483,270.853 463.649,256.353 473,240.5C 479.721,231.887 487.888,230.221 497.5,235.5 Z"/></g>
<g><path style="opacity:1" fill="#444444" d="M 57.5,233.5 C 57.0269,234.906 56.0269,235.573 54.5,235.5C 54.9731,234.094 55.9731,233.427 57.5,233.5 Z"/></g>
<g><path style="opacity:1" fill="#a1a1a1" d="M 58.5,231.5 C 58.1667,232.167 57.8333,232.833 57.5,233.5C 55.9731,233.427 54.9731,234.094 54.5,235.5C 52.6675,236.248 51.0009,237.248 49.5,238.5C 49.1667,238.5 48.8333,238.5 48.5,238.5C 51.2749,235.395 54.6082,233.062 58.5,231.5 Z"/></g>
<g><path style="opacity:0.987" fill="#e1e1e1" d="M 495.5,240.5 C 494.442,244.279 493.109,247.946 491.5,251.5C 485.361,249.532 479.694,250.365 474.5,254C 463.349,265.985 452.016,277.818 440.5,289.5C 431.992,292.522 425.826,298.189 422,306.5C 419.469,315.445 422.636,321.111 431.5,323.5C 431.5,324.167 431.167,324.5 430.5,324.5C 417.245,325.063 412.245,318.73 415.5,305.5C 413.315,305.704 411.315,306.37 409.5,307.5C 412.415,304.041 415.748,301.041 419.5,298.5C 420.922,297.075 422.589,296.075 424.5,295.5C 424.517,297.028 425.184,297.528 426.5,297C 435.6,289.903 444.1,282.069 452,273.5C 460.235,262.208 469.068,251.374 478.5,241C 484.097,237.841 489.764,237.675 495.5,240.5 Z"/></g>
<g><path style="opacity:1" fill="#797979" d="M 48.5,238.5 C 48.8333,238.5 49.1667,238.5 49.5,238.5C 47.1667,241.5 44.5,244.167 41.5,246.5C 41.5,246.167 41.5,245.833 41.5,245.5C 43.5,242.833 45.8333,240.5 48.5,238.5 Z"/></g>
<g><path style="opacity:1" fill="#575757" d="M 464.5,238.5 C 464.5,239.167 464.5,239.833 464.5,240.5C 463.833,240.833 463.167,241.167 462.5,241.5C 462.427,239.973 463.094,238.973 464.5,238.5 Z"/></g>
<g><path style="opacity:1" fill="#979797" d="M 464.5,240.5 C 464.573,242.027 463.906,243.027 462.5,243.5C 462.5,242.833 462.5,242.167 462.5,241.5C 463.167,241.167 463.833,240.833 464.5,240.5 Z"/></g>
<g><path style="opacity:1" fill="#404040" d="M 462.5,241.5 C 462.5,242.167 462.5,242.833 462.5,243.5C 461.833,243.833 461.167,244.167 460.5,244.5C 460.427,242.973 461.094,241.973 462.5,241.5 Z"/></g>
<g><path style="opacity:1" fill="#808080" d="M 462.5,243.5 C 462.573,245.027 461.906,246.027 460.5,246.5C 460.5,245.833 460.5,245.167 460.5,244.5C 461.167,244.167 461.833,243.833 462.5,243.5 Z"/></g>
<g><path style="opacity:1" fill="#bababa" d="M 41.5,245.5 C 41.5,245.833 41.5,246.167 41.5,246.5C 41.5,246.833 41.5,247.167 41.5,247.5C 40.5,247.833 39.8333,248.5 39.5,249.5C 38.8333,249.833 38.1667,250.167 37.5,250.5C 38.0798,248.251 39.4131,246.585 41.5,245.5 Z"/></g>
<g><path style="opacity:1" fill="#787878" d="M 39.5,249.5 C 38.8333,251.167 38.1667,252.833 37.5,254.5C 37.5,255.167 37.1667,255.5 36.5,255.5C 36.5,254.833 36.5,254.167 36.5,253.5C 36.5569,252.391 36.8902,251.391 37.5,250.5C 38.1667,250.167 38.8333,249.833 39.5,249.5 Z"/></g>
<g><path style="opacity:1" fill="#303030" d="M 41.5,247.5 C 41.2753,250.546 39.942,252.879 37.5,254.5C 38.1667,252.833 38.8333,251.167 39.5,249.5C 39.8333,248.5 40.5,247.833 41.5,247.5 Z"/></g>
<g><path style="opacity:1" fill="#636363" d="M 460.5,246.5 C 460.5,247.167 460.5,247.833 460.5,248.5C 458.755,250.033 457.755,252.033 457.5,254.5C 456.833,254.833 456.167,255.167 455.5,255.5C 455.5,254.833 455.5,254.167 455.5,253.5C 456.481,251.604 457.481,249.604 458.5,247.5C 458.957,246.702 459.624,246.369 460.5,246.5 Z"/></g>
<g><path style="opacity:1" fill="#c4c4c4" d="M 460.5,248.5 C 460.975,251.313 459.975,253.313 457.5,254.5C 457.755,252.033 458.755,250.033 460.5,248.5 Z"/></g>
<g><path style="opacity:1" fill="#282828" d="M 455.5,253.5 C 455.5,254.167 455.5,254.833 455.5,255.5C 455.5,255.833 455.5,256.167 455.5,256.5C 454.182,258.751 452.516,260.751 450.5,262.5C 450.903,258.685 452.57,255.685 455.5,253.5 Z"/></g>
<g><path style="opacity:1" fill="#c5c5c5" d="M 457.5,254.5 C 457.245,256.967 456.245,258.967 454.5,260.5C 454.833,259.167 455.167,257.833 455.5,256.5C 455.5,256.167 455.5,255.833 455.5,255.5C 456.167,255.167 456.833,254.833 457.5,254.5 Z"/></g>
<g><path style="opacity:1" fill="#797979" d="M 36.5,255.5 C 36.5,256.833 36.5,258.167 36.5,259.5C 35.8333,260.5 35.1667,261.5 34.5,262.5C 34.4095,259.848 35.0762,257.515 36.5,255.5 Z"/></g>
<g><path style="opacity:1" fill="#8b8b8b" d="M 455.5,256.5 C 455.167,257.833 454.833,259.167 454.5,260.5C 453.5,262.167 452.167,263.5 450.5,264.5C 450.5,263.833 450.5,263.167 450.5,262.5C 452.516,260.751 454.182,258.751 455.5,256.5 Z"/></g>
<g><path style="opacity:0.966" fill="#c6c6c6" d="M 486.5,262.5 C 484.754,266.327 482.754,269.993 480.5,273.5C 474.779,271.716 469.445,272.549 464.5,276C 458.877,279.955 453.543,284.288 448.5,289C 447.167,289.333 445.833,289.667 444.5,290C 441.643,293.248 438.31,295.748 434.5,297.5C 446.238,286.936 457.905,276.102 469.5,265C 474.728,260.46 480.395,259.627 486.5,262.5 Z"/></g>
<g><path style="opacity:1" fill="#262626" d="M 36.5,259.5 C 35.5674,274.138 35.2341,288.804 35.5,303.5C 34.5043,290.01 34.171,276.344 34.5,262.5C 35.1667,261.5 35.8333,260.5 36.5,259.5 Z"/></g>
<g><path style="opacity:0.96" fill="#bebebe" d="M 480.5,273.5 C 479.396,275.389 478.063,277.055 476.5,278.5C 470.276,276.654 464.609,277.821 459.5,282C 451.91,287.713 444.41,293.546 437,299.5C 434.713,302.78 432.88,306.28 431.5,310C 432.318,314.165 434.652,316.998 438.5,318.5C 438.167,319.5 437.5,320.167 436.5,320.5C 426.941,318.044 424.441,312.378 429,303.5C 431.04,301.63 432.873,299.63 434.5,297.5C 438.31,295.748 441.643,293.248 444.5,290C 445.833,289.667 447.167,289.333 448.5,289C 453.543,284.288 458.877,279.955 464.5,276C 469.445,272.549 474.779,271.716 480.5,273.5 Z"/></g>
<g><path style="opacity:1" fill="#c0c0c0" d="M 450.5,266.5 C 447.954,271.719 444.287,276.052 439.5,279.5C 442.798,274.868 446.464,270.534 450.5,266.5 Z"/></g>
<g><path style="opacity:1" fill="#5c5c5c" d="M 450.5,264.5 C 450.5,265.167 450.5,265.833 450.5,266.5C 446.464,270.534 442.798,274.868 439.5,279.5C 438.5,280.167 437.5,280.833 436.5,281.5C 437.072,279.745 437.906,278.078 439,276.5C 443.065,272.605 446.898,268.605 450.5,264.5 Z"/></g>
<g><path style="opacity:1" fill="#d0d0d0" d="M 36.5,253.5 C 36.5,254.167 36.5,254.833 36.5,255.5C 35.0762,257.515 34.4095,259.848 34.5,262.5C 33.5042,276.323 33.1709,290.323 33.5,304.5C 33.1667,304.5 32.8333,304.5 32.5,304.5C 31.7501,291.505 31.5835,278.505 32,265.5C 32.0526,260.828 33.5526,256.828 36.5,253.5 Z"/></g>
<g><path style="opacity:0.969" fill="#b3b3b3" d="M 476.5,278.5 C 474.262,283.071 471.262,287.071 467.5,290.5C 466.688,289.007 465.355,288.34 463.5,288.5C 453.059,291.637 443.892,296.971 436,304.5C 433.348,309.961 434.514,314.294 439.5,317.5C 439.5,318.167 439.167,318.5 438.5,318.5C 434.652,316.998 432.318,314.165 431.5,310C 432.88,306.28 434.713,302.78 437,299.5C 444.41,293.546 451.91,287.713 459.5,282C 464.609,277.821 470.276,276.654 476.5,278.5 Z"/></g>
<g><path style="opacity:1" fill="#575757" d="M 436.5,281.5 C 434.833,283.5 433.167,285.5 431.5,287.5C 431.167,287.5 430.833,287.5 430.5,287.5C 431.5,284.5 433.5,282.5 436.5,281.5 Z"/></g>
<g><path style="opacity:1" fill="#c4c4c4" d="M 439.5,279.5 C 439.267,281.062 438.6,282.395 437.5,283.5C 435.5,285.167 433.5,286.833 431.5,288.5C 431.5,288.167 431.5,287.833 431.5,287.5C 433.167,285.5 434.833,283.5 436.5,281.5C 437.5,280.833 438.5,280.167 439.5,279.5 Z"/></g>
<g><path style="opacity:1" fill="#7f7f7f" d="M 430.5,287.5 C 430.833,287.5 431.167,287.5 431.5,287.5C 431.5,287.833 431.5,288.167 431.5,288.5C 428.833,290.5 426.5,292.833 424.5,295.5C 422.589,296.075 420.922,297.075 419.5,298.5C 419.5,298.167 419.5,297.833 419.5,297.5C 423.141,294.195 426.808,290.862 430.5,287.5 Z"/></g>
<g><path style="opacity:0.958" fill="#a5a5a5" d="M 467.5,290.5 C 459.44,300.894 450.107,309.894 439.5,317.5C 434.514,314.294 433.348,309.961 436,304.5C 443.892,296.971 453.059,291.637 463.5,288.5C 465.355,288.34 466.688,289.007 467.5,290.5 Z"/></g>
<g><path style="opacity:0.975" fill="#d4d4d4" d="M 491.5,251.5 C 490.107,255.286 488.441,258.952 486.5,262.5C 480.395,259.627 474.728,260.46 469.5,265C 457.905,276.102 446.238,286.936 434.5,297.5C 432.873,299.63 431.04,301.63 429,303.5C 424.441,312.378 426.941,318.044 436.5,320.5C 435.101,321.89 433.434,322.89 431.5,323.5C 422.636,321.111 419.469,315.445 422,306.5C 425.826,298.189 431.992,292.522 440.5,289.5C 452.016,277.818 463.349,265.985 474.5,254C 479.694,250.365 485.361,249.532 491.5,251.5 Z"/></g>
<g><path style="opacity:1" fill="#666666" d="M 419.5,297.5 C 419.5,297.833 419.5,298.167 419.5,298.5C 415.748,301.041 412.415,304.041 409.5,307.5C 407.596,307.738 406.262,308.738 405.5,310.5C 404.167,310.833 402.833,311.167 401.5,311.5C 407.208,306.458 413.208,301.791 419.5,297.5 Z"/></g>
<g><path style="opacity:1" fill="#f2f2f2" d="M 430.5,324.5 C 430.027,325.906 429.027,326.573 427.5,326.5C 422.284,326.866 417.284,326.032 412.5,324C 410.147,320.595 408.98,316.762 409,312.5C 407.855,311.316 406.688,311.316 405.5,312.5C 405.5,311.833 405.5,311.167 405.5,310.5C 406.262,308.738 407.596,307.738 409.5,307.5C 411.315,306.37 413.315,305.704 415.5,305.5C 412.245,318.73 417.245,325.063 430.5,324.5 Z"/></g>
<g><path style="opacity:1" fill="#2d2d2d" d="M 401.5,311.5 C 400.833,312.167 400.167,312.833 399.5,313.5C 398.833,313.5 398.167,313.5 397.5,313.5C 397.167,313.5 396.833,313.5 396.5,313.5C 397.552,311.744 399.219,311.077 401.5,311.5 Z"/></g>
<g><path style="opacity:0.996" fill="#fefefe" d="M 427.5,326.5 C 426.499,327.789 426.666,329.122 428,330.5C 444,351.167 460,371.833 476,392.5C 489.16,410.143 493.66,429.809 489.5,451.5C 481.462,448.259 473.128,446.759 464.5,447C 463.069,447.465 461.903,448.299 461,449.5C 450.698,468.988 434.865,480.988 413.5,485.5C 412.5,485.5 411.5,485.5 410.5,485.5C 393.524,482.251 379.357,473.918 368,460.5C 343,424.5 318,388.5 293,352.5C 289.085,347.477 284.251,343.81 278.5,341.5C 289.309,340.901 299.976,340.235 310.5,339.5C 311.167,339.5 311.833,339.5 312.5,339.5C 318.842,339.666 325.175,339.5 331.5,339C 333.058,338.79 334.391,338.29 335.5,337.5C 339.387,337.354 343.054,336.687 346.5,335.5C 349.785,335.072 352.785,334.072 355.5,332.5C 356.833,331.833 358.167,331.167 359.5,330.5C 360.833,330.5 362.167,330.5 363.5,330.5C 371.904,329.817 379.238,326.817 385.5,321.5C 386.391,320.89 387.391,320.557 388.5,320.5C 389.873,320.657 391.207,320.49 392.5,320C 395.288,318.281 397.621,316.115 399.5,313.5C 401.565,313.483 403.565,313.15 405.5,312.5C 406.688,311.316 407.855,311.316 409,312.5C 408.98,316.762 410.147,320.595 412.5,324C 417.284,326.032 422.284,326.866 427.5,326.5 Z"/></g>
<g><path style="opacity:1" fill="#c6c6c6" d="M 405.5,310.5 C 405.5,311.167 405.5,311.833 405.5,312.5C 403.565,313.15 401.565,313.483 399.5,313.5C 400.167,312.833 400.833,312.167 401.5,311.5C 402.833,311.167 404.167,310.833 405.5,310.5 Z"/></g>
<g><path style="opacity:1" fill="#616161" d="M 396.5,313.5 C 396.833,313.5 397.167,313.5 397.5,313.5C 397.027,314.906 396.027,315.573 394.5,315.5C 394.833,314.5 395.5,313.833 396.5,313.5 Z"/></g>
<g><path style="opacity:1" fill="#424242" d="M 393.5,315.5 C 392.055,317.063 390.389,318.396 388.5,319.5C 387.833,319.5 387.167,319.5 386.5,319.5C 387.66,318.735 388.66,317.735 389.5,316.5C 390.689,315.571 392.022,315.238 393.5,315.5 Z"/></g>
<g><path style="opacity:1" fill="#d0d0d0" d="M 397.5,313.5 C 398.167,313.5 398.833,313.5 399.5,313.5C 397.621,316.115 395.288,318.281 392.5,320C 391.207,320.49 389.873,320.657 388.5,320.5C 388.5,320.167 388.5,319.833 388.5,319.5C 390.389,318.396 392.055,317.063 393.5,315.5C 393.833,315.5 394.167,315.5 394.5,315.5C 396.027,315.573 397.027,314.906 397.5,313.5 Z"/></g>
<g><path style="opacity:1" fill="#7c7c7c" d="M 386.5,319.5 C 387.167,319.5 387.833,319.5 388.5,319.5C 388.5,319.833 388.5,320.167 388.5,320.5C 387.391,320.557 386.391,320.89 385.5,321.5C 385.167,321.5 384.833,321.5 384.5,321.5C 384.5,321.167 384.5,320.833 384.5,320.5C 384.842,319.662 385.508,319.328 386.5,319.5 Z"/></g>
<g><path style="opacity:1" fill="#454545" d="M 384.5,320.5 C 384.5,320.833 384.5,321.167 384.5,321.5C 383.292,322.234 381.959,322.567 380.5,322.5C 381.514,321.326 382.847,320.66 384.5,320.5 Z"/></g>
<g><path style="opacity:1" fill="#6b6b6b" d="M 34.5,262.5 C 34.171,276.344 34.5043,290.01 35.5,303.5C 35.5,313.5 35.5,323.5 35.5,333.5C 34.8333,327.833 34.1667,322.167 33.5,316.5C 33.5,312.5 33.5,308.5 33.5,304.5C 33.1709,290.323 33.5042,276.323 34.5,262.5 Z"/></g>
<g><path style="opacity:1" fill="#585858" d="M 376.5,325.5 C 372.192,327.291 367.859,328.958 363.5,330.5C 362.167,330.5 360.833,330.5 359.5,330.5C 364.8,327.964 370.467,326.297 376.5,325.5 Z"/></g>
<g><path style="opacity:1" fill="#bcbcbc" d="M 384.5,321.5 C 384.833,321.5 385.167,321.5 385.5,321.5C 379.238,326.817 371.904,329.817 363.5,330.5C 367.859,328.958 372.192,327.291 376.5,325.5C 377.833,324.5 379.167,323.5 380.5,322.5C 381.959,322.567 383.292,322.234 384.5,321.5 Z"/></g>
<g><path style="opacity:1" fill="#474747" d="M 359.5,330.5 C 358.167,331.167 356.833,331.833 355.5,332.5C 354.833,332.5 354.167,332.5 353.5,332.5C 354.918,330.692 356.918,330.025 359.5,330.5 Z"/></g>
<g><path style="opacity:1" fill="#8a8a8a" d="M 353.5,332.5 C 354.167,332.5 354.833,332.5 355.5,332.5C 352.785,334.072 349.785,335.072 346.5,335.5C 345.5,335.5 344.5,335.5 343.5,335.5C 343.5,335.167 343.5,334.833 343.5,334.5C 346.969,334.453 350.302,333.787 353.5,332.5 Z"/></g>
<g><path style="opacity:1" fill="#e5e5e5" d="M 32.5,304.5 C 32.8333,304.5 33.1667,304.5 33.5,304.5C 33.5,308.5 33.5,312.5 33.5,316.5C 33.9443,331.164 34.2776,345.83 34.5,360.5C 33.6762,356.688 33.1762,352.688 33,348.5C 32.5001,333.837 32.3334,319.17 32.5,304.5 Z"/></g>
<g><path style="opacity:1" fill="#2f2f2f" d="M 343.5,334.5 C 343.5,334.833 343.5,335.167 343.5,335.5C 341.833,335.5 340.167,335.5 338.5,335.5C 333.473,335.503 328.473,335.836 323.5,336.5C 324.263,335.732 325.263,335.232 326.5,335C 332.157,334.501 337.824,334.334 343.5,334.5 Z"/></g>
<g><path style="opacity:1" fill="#797979" d="M 338.5,335.5 C 336.5,336.167 334.5,336.833 332.5,337.5C 328.19,338.08 323.857,338.414 319.5,338.5C 320.833,337.833 322.167,337.167 323.5,336.5C 328.473,335.836 333.473,335.503 338.5,335.5 Z"/></g>
<g><path style="opacity:1" fill="#b5b5b5" d="M 338.5,335.5 C 340.167,335.5 341.833,335.5 343.5,335.5C 344.5,335.5 345.5,335.5 346.5,335.5C 343.054,336.687 339.387,337.354 335.5,337.5C 334.5,337.5 333.5,337.5 332.5,337.5C 334.5,336.833 336.5,336.167 338.5,335.5 Z"/></g>
<g><path style="opacity:1" fill="#545454" d="M 323.5,336.5 C 322.167,337.167 320.833,337.833 319.5,338.5C 317.167,338.5 314.833,338.5 312.5,338.5C 311.833,338.5 311.167,338.5 310.5,338.5C 314.567,336.946 318.9,336.28 323.5,336.5 Z"/></g>
<g><path style="opacity:1" fill="#dbdbdb" d="M 332.5,337.5 C 333.5,337.5 334.5,337.5 335.5,337.5C 334.391,338.29 333.058,338.79 331.5,339C 325.175,339.5 318.842,339.666 312.5,339.5C 312.5,339.167 312.5,338.833 312.5,338.5C 314.833,338.5 317.167,338.5 319.5,338.5C 323.857,338.414 328.19,338.08 332.5,337.5 Z"/></g>
<g><path style="opacity:1" fill="#8f8f8f" d="M 310.5,338.5 C 311.167,338.5 311.833,338.5 312.5,338.5C 312.5,338.833 312.5,339.167 312.5,339.5C 311.833,339.5 311.167,339.5 310.5,339.5C 295.798,339.216 281.131,339.55 266.5,340.5C 259.5,340.5 252.5,340.5 245.5,340.5C 243.833,340.5 242.167,340.5 240.5,340.5C 240.5,340.167 240.5,339.833 240.5,339.5C 263.788,338.52 287.122,338.187 310.5,338.5 Z"/></g>
<g><path style="opacity:1" fill="#6a6a6a" d="M 240.5,339.5 C 240.5,339.833 240.5,340.167 240.5,340.5C 217.164,340.697 193.831,341.03 170.5,341.5C 167.833,341.5 165.167,341.5 162.5,341.5C 162.5,341.167 162.5,340.833 162.5,340.5C 188.493,339.73 214.493,339.397 240.5,339.5 Z"/></g>
<g><path style="opacity:1" fill="#4e4e4e" d="M 162.5,340.5 C 162.5,340.833 162.5,341.167 162.5,341.5C 145.302,341.142 128.302,341.809 111.5,343.5C 107.466,343.505 103.466,343.838 99.5,344.5C 100.5,343.833 101.5,343.167 102.5,342.5C 122.457,340.86 142.457,340.193 162.5,340.5 Z"/></g>
<g><path style="opacity:1" fill="#c9c9c9" d="M 240.5,340.5 C 242.167,340.5 243.833,340.5 245.5,340.5C 220.685,342.1 195.685,342.766 170.5,342.5C 170.5,342.167 170.5,341.833 170.5,341.5C 193.831,341.03 217.164,340.697 240.5,340.5 Z"/></g>
<g><path style="opacity:1" fill="#ededed" d="M 310.5,339.5 C 299.976,340.235 289.309,340.901 278.5,341.5C 275.15,341.335 271.817,341.502 268.5,342C 277.03,343.347 284.196,347.181 290,353.5C 315.087,390.008 340.42,426.341 366,462.5C 377.37,476.935 392.204,484.601 410.5,485.5C 411.5,485.5 412.5,485.5 413.5,485.5C 422.167,485.833 430.167,483.666 437.5,479C 447.667,472.833 455.833,464.667 462,454.5C 466.861,450.716 472.361,449.549 478.5,451C 482.039,451.679 485.372,452.846 488.5,454.5C 488.204,456.403 487.537,458.07 486.5,459.5C 479.097,455.34 471.764,455.506 464.5,460C 458.098,467.073 451.098,473.406 443.5,479C 439.805,481.349 435.805,482.849 431.5,483.5C 430.614,484.325 430.281,485.325 430.5,486.5C 412.9,489.173 395.9,487.173 379.5,480.5C 372.253,474.085 365.42,467.085 359,459.5C 335.913,425.659 312.58,391.992 289,358.5C 281.382,349.108 271.548,344.108 259.5,343.5C 257.031,342.683 254.365,342.183 251.5,342C 256.684,341.826 261.684,341.326 266.5,340.5C 281.131,339.55 295.798,339.216 310.5,339.5 Z"/></g>
<g><path style="opacity:1" fill="#f6f6f6" d="M 278.5,341.5 C 284.251,343.81 289.085,347.477 293,352.5C 318,388.5 343,424.5 368,460.5C 379.357,473.918 393.524,482.251 410.5,485.5C 392.204,484.601 377.37,476.935 366,462.5C 340.42,426.341 315.087,390.008 290,353.5C 284.196,347.181 277.03,343.347 268.5,342C 271.817,341.502 275.15,341.335 278.5,341.5 Z"/></g>
<g><path style="opacity:1" fill="#a2a2a2" d="M 162.5,341.5 C 165.167,341.5 167.833,341.5 170.5,341.5C 170.5,341.833 170.5,342.167 170.5,342.5C 150.826,342.484 131.159,342.817 111.5,343.5C 128.302,341.809 145.302,341.142 162.5,341.5 Z"/></g>
<g><path style="opacity:0.996" fill="#e3e3e3" d="M 245.5,340.5 C 252.5,340.5 259.5,340.5 266.5,340.5C 261.684,341.326 256.684,341.826 251.5,342C 254.365,342.183 257.031,342.683 259.5,343.5C 233.108,342.879 206.775,343.712 180.5,346C 172.226,350.691 167.559,357.857 166.5,367.5C 168.701,373.702 173.034,377.369 179.5,378.5C 179.5,379.833 179.5,381.167 179.5,382.5C 162.425,376.672 158.591,366.005 168,350.5C 170.383,347.727 173.217,345.561 176.5,344C 170.843,343.501 165.176,343.334 159.5,343.5C 138.236,344.418 116.903,345.084 95.5,345.5C 95.5,345.167 95.5,344.833 95.5,344.5C 96.8333,344.5 98.1667,344.5 99.5,344.5C 103.466,343.838 107.466,343.505 111.5,343.5C 131.159,342.817 150.826,342.484 170.5,342.5C 195.685,342.766 220.685,342.1 245.5,340.5 Z"/></g>
<g><path style="opacity:1" fill="#323232" d="M 102.5,342.5 C 101.5,343.167 100.5,343.833 99.5,344.5C 98.1667,344.5 96.8333,344.5 95.5,344.5C 97.5145,343.076 99.8478,342.41 102.5,342.5 Z"/></g>
<g><path style="opacity:0.996" fill="#f2f2f2" d="M 159.5,343.5 C 165.176,343.334 170.843,343.501 176.5,344C 173.217,345.561 170.383,347.727 168,350.5C 158.591,366.005 162.425,376.672 179.5,382.5C 179.5,383.5 179.5,384.5 179.5,385.5C 161.987,382.809 155.154,372.809 159,355.5C 159.704,351.375 161.537,347.875 164.5,345C 162.618,344.802 160.952,344.302 159.5,343.5 Z"/></g>
<g><path style="opacity:1" fill="#e1e1e1" d="M 259.5,343.5 C 271.548,344.108 281.382,349.108 289,358.5C 312.58,391.992 335.913,425.659 359,459.5C 365.42,467.085 372.253,474.085 379.5,480.5C 375.86,479.85 372.527,478.35 369.5,476C 366.721,473.221 363.887,470.387 361,467.5C 359.367,463.367 356.534,460.367 352.5,458.5C 349.962,453.055 347.129,447.722 344,442.5C 323,412.875 302.5,383.375 282.5,354C 276.318,348.244 268.985,345.244 260.5,345C 259.944,344.617 259.611,344.117 259.5,343.5 Z"/></g>
<g><path style="opacity:1" fill="#4b4b4b" d="M 95.5,344.5 C 95.5,344.833 95.5,345.167 95.5,345.5C 90.5859,345.362 85.9192,346.028 81.5,347.5C 80.8333,347.5 80.1667,347.5 79.5,347.5C 80.1522,346.275 81.3189,345.608 83,345.5C 87.1367,344.763 91.3034,344.429 95.5,344.5 Z"/></g>
<g><path style="opacity:1" fill="#d6d6d6" d="M 259.5,343.5 C 259.611,344.117 259.944,344.617 260.5,345C 268.985,345.244 276.318,348.244 282.5,354C 302.5,383.375 323,412.875 344,442.5C 347.129,447.722 349.962,453.055 352.5,458.5C 329.693,426.906 307.36,394.906 285.5,362.5C 281.647,359.481 278.313,355.981 275.5,352C 269.287,347.375 262.287,345.375 254.5,346C 244.667,345.833 234.833,345.667 225,345.5C 211.77,345.28 198.603,345.947 185.5,347.5C 176.25,351.917 171.75,359.251 172,369.5C 174.086,372.094 176.586,374.094 179.5,375.5C 179.5,376.5 179.5,377.5 179.5,378.5C 173.034,377.369 168.701,373.702 166.5,367.5C 167.559,357.857 172.226,350.691 180.5,346C 206.775,343.712 233.108,342.879 259.5,343.5 Z"/></g>
<g><path style="opacity:1" fill="#a8a8a8" d="M 95.5,345.5 C 91.0808,346.972 86.4141,347.638 81.5,347.5C 85.9192,346.028 90.5859,345.362 95.5,345.5 Z"/></g>
<g><path style="opacity:1" fill="#737373" d="M 79.5,347.5 C 80.1667,347.5 80.8333,347.5 81.5,347.5C 79.5,348.5 77.5,349.5 75.5,350.5C 73.4352,350.517 71.4352,350.85 69.5,351.5C 72.3803,349.555 75.7136,348.222 79.5,347.5 Z"/></g>
<g><path style="opacity:1" fill="#a2a2a2" d="M 33.5,316.5 C 34.1667,322.167 34.8333,327.833 35.5,333.5C 35.5,342.5 35.5,351.5 35.5,360.5C 35.1667,360.5 34.8333,360.5 34.5,360.5C 34.2776,345.83 33.9443,331.164 33.5,316.5 Z"/></g>
<g><path style="opacity:1" fill="#cecece" d="M 75.5,350.5 C 73.8984,352.074 71.8984,352.741 69.5,352.5C 69.5,352.167 69.5,351.833 69.5,351.5C 71.4352,350.85 73.4352,350.517 75.5,350.5 Z"/></g>
<g><path style="opacity:1" fill="#4d4d4d" d="M 65.5,352.5 C 63.9236,353.143 62.5903,354.143 61.5,355.5C 61.1667,355.5 60.8333,355.5 60.5,355.5C 59.8333,355.5 59.1667,355.5 58.5,355.5C 60.1852,353.182 62.5185,352.182 65.5,352.5 Z"/></g>
<g><path style="opacity:1" fill="#949494" d="M 275.5,380.5 C 274.599,379.71 273.932,378.71 273.5,377.5C 274.82,374.72 275.32,371.72 275,368.5C 269.808,361.654 262.975,357.487 254.5,356C 236.167,355.333 217.833,355.333 199.5,356C 191.65,356.904 186.65,361.07 184.5,368.5C 183.5,368.5 182.5,368.5 181.5,368.5C 183.458,360.542 188.458,355.542 196.5,353.5C 216.492,352.334 236.492,352.167 256.5,353C 260.012,354.921 263.679,356.588 267.5,358C 269.963,361.465 272.796,364.631 276,367.5C 277.932,372.023 277.765,376.357 275.5,380.5 Z"/></g>
<g><path style="opacity:1" fill="#cacaca" d="M 352.5,458.5 C 356.534,460.367 359.367,463.367 361,467.5C 363.887,470.387 366.721,473.221 369.5,476C 372.527,478.35 375.86,479.85 379.5,480.5C 380.6,481.605 381.267,482.938 381.5,484.5C 378.833,483.833 376.167,483.167 373.5,482.5C 367.563,477.182 361.563,471.848 355.5,466.5C 332.423,434.252 309.923,401.585 288,368.5C 284.204,365 280.704,361.167 277.5,357C 276.255,356.209 274.922,355.709 273.5,355.5C 272.29,355.068 271.29,354.401 270.5,353.5C 267.502,351.334 264.168,349.667 260.5,348.5C 237.174,347.334 213.84,347.167 190.5,348C 179.104,350.869 173.771,358.036 174.5,369.5C 175.766,371.404 177.433,372.737 179.5,373.5C 179.5,374.167 179.5,374.833 179.5,375.5C 176.586,374.094 174.086,372.094 172,369.5C 171.75,359.251 176.25,351.917 185.5,347.5C 198.603,345.947 211.77,345.28 225,345.5C 234.833,345.667 244.667,345.833 254.5,346C 262.287,345.375 269.287,347.375 275.5,352C 278.313,355.981 281.647,359.481 285.5,362.5C 307.36,394.906 329.693,426.906 352.5,458.5 Z"/></g>
<g><path style="opacity:1" fill="#b0b0b0" d="M 256.5,350.5 C 236.156,350.167 215.822,350.5 195.5,351.5C 190.113,353.275 185.279,355.941 181,359.5C 179.851,362.393 179.351,365.393 179.5,368.5C 179.5,369.167 179.5,369.833 179.5,370.5C 174.988,369.12 174.154,366.453 177,362.5C 178.91,357.091 182.41,353.091 187.5,350.5C 200.12,349.052 212.786,348.385 225.5,348.5C 236.049,348.281 246.383,348.947 256.5,350.5 Z"/></g>
<g><path style="opacity:1" fill="#bcbcbc" d="M 270.5,353.5 C 269.167,353.5 267.833,353.5 266.5,353.5C 263.548,351.59 260.214,350.59 256.5,350.5C 246.383,348.947 236.049,348.281 225.5,348.5C 212.786,348.385 200.12,349.052 187.5,350.5C 182.41,353.091 178.91,357.091 177,362.5C 174.154,366.453 174.988,369.12 179.5,370.5C 179.5,371.5 179.5,372.5 179.5,373.5C 177.433,372.737 175.766,371.404 174.5,369.5C 173.771,358.036 179.104,350.869 190.5,348C 213.84,347.167 237.174,347.334 260.5,348.5C 264.168,349.667 267.502,351.334 270.5,353.5 Z"/></g>
<g><path style="opacity:1" fill="#9b9b9b" d="M 69.5,351.5 C 69.5,351.833 69.5,352.167 69.5,352.5C 67.064,353.871 64.3973,354.871 61.5,355.5C 62.5903,354.143 63.9236,353.143 65.5,352.5C 66.5676,351.566 67.901,351.232 69.5,351.5 Z"/></g>
<g><path style="opacity:1" fill="#999999" d="M 58.5,355.5 C 59.1667,355.5 59.8333,355.5 60.5,355.5C 60.0269,356.906 59.0269,357.573 57.5,357.5C 57.8333,356.833 58.1667,356.167 58.5,355.5 Z"/></g>
<g><path style="opacity:1" fill="#888888" d="M 273.5,377.5 C 272.11,376.101 271.11,374.434 270.5,372.5C 272.202,368.836 271.202,366.003 267.5,364C 262.639,360.823 257.305,358.823 251.5,358C 235.5,357.333 219.5,357.333 203.5,358C 195.929,358.274 190.596,361.774 187.5,368.5C 186.5,368.5 185.5,368.5 184.5,368.5C 186.65,361.07 191.65,356.904 199.5,356C 217.833,355.333 236.167,355.333 254.5,356C 262.975,357.487 269.808,361.654 275,368.5C 275.32,371.72 274.82,374.72 273.5,377.5 Z"/></g>
<g><path style="opacity:0.987" fill="#7b7b7b" d="M 270.5,372.5 C 268.806,371.473 267.473,370.139 266.5,368.5C 263.288,365.058 259.288,362.891 254.5,362C 236.828,360.036 219.161,360.036 201.5,362C 197.28,362.935 193.947,365.101 191.5,368.5C 190.167,368.5 188.833,368.5 187.5,368.5C 190.596,361.774 195.929,358.274 203.5,358C 219.5,357.333 235.5,357.333 251.5,358C 257.305,358.823 262.639,360.823 267.5,364C 271.202,366.003 272.202,368.836 270.5,372.5 Z"/></g>
<g><path style="opacity:1" fill="#b7b7b7" d="M 57.5,357.5 C 55.2499,360.589 52.2499,362.589 48.5,363.5C 51.2185,361.14 54.2185,359.14 57.5,357.5 Z"/></g>
<g><path style="opacity:1" fill="#505050" d="M 58.5,355.5 C 58.1667,356.167 57.8333,356.833 57.5,357.5C 54.2185,359.14 51.2185,361.14 48.5,363.5C 46.2512,364.08 44.5846,365.413 43.5,367.5C 42.1825,367.821 40.8492,368.154 39.5,368.5C 38.2867,368.253 37.62,367.586 37.5,366.5C 39.1992,366.66 40.8659,366.494 42.5,366C 47.1139,361.309 52.4472,357.809 58.5,355.5 Z"/></g>
<g><path style="opacity:1" fill="#ababab" d="M 279.5,365.5 C 280.458,365.953 281.292,366.619 282,367.5C 285.061,374.621 288.394,381.621 292,388.5C 307.667,411.167 323.333,433.833 339,456.5C 346.438,465.776 354.938,473.776 364.5,480.5C 353.11,474.882 343.277,467.215 335,457.5C 321.057,436.558 306.723,415.891 292,395.5C 287.527,385.563 283.36,375.563 279.5,365.5 Z"/></g>
<g><path style="opacity:1" fill="#bbbbbb" d="M 48.5,363.5 C 47.4154,365.587 45.7488,366.92 43.5,367.5C 44.5846,365.413 46.2512,364.08 48.5,363.5 Z"/></g>
<g><path style="opacity:0.902" fill="#a5a5a5" d="M 256.5,350.5 C 260.214,350.59 263.548,351.59 266.5,353.5C 271.108,357.104 275.441,361.104 279.5,365.5C 283.36,375.563 287.527,385.563 292,395.5C 306.723,415.891 321.057,436.558 335,457.5C 343.277,467.215 353.11,474.882 364.5,480.5C 370.573,484.196 376.573,487.863 382.5,491.5C 373.085,487.962 363.751,484.129 354.5,480C 351.833,479.333 349.167,479.333 346.5,480C 345.944,480.383 345.611,480.883 345.5,481.5C 321.933,448.045 298.599,414.378 275.5,380.5C 277.765,376.357 277.932,372.023 276,367.5C 272.796,364.631 269.963,361.465 267.5,358C 263.679,356.588 260.012,354.921 256.5,353C 236.492,352.167 216.492,352.334 196.5,353.5C 188.458,355.542 183.458,360.542 181.5,368.5C 180.833,368.5 180.167,368.5 179.5,368.5C 179.351,365.393 179.851,362.393 181,359.5C 185.279,355.941 190.113,353.275 195.5,351.5C 215.822,350.5 236.156,350.167 256.5,350.5 Z"/></g>
<g><path style="opacity:1" fill="#6f6f6f" d="M 266.5,368.5 C 264.5,368.5 262.5,368.5 260.5,368.5C 257.578,366.469 254.245,365.302 250.5,365C 235.833,364.333 221.167,364.333 206.5,365C 203.334,365.322 200.667,366.489 198.5,368.5C 196.167,368.5 193.833,368.5 191.5,368.5C 193.947,365.101 197.28,362.935 201.5,362C 219.161,360.036 236.828,360.036 254.5,362C 259.288,362.891 263.288,365.058 266.5,368.5 Z"/></g>
<g><path style="opacity:1" fill="#666666" d="M 260.5,368.5 C 239.833,368.5 219.167,368.5 198.5,368.5C 200.667,366.489 203.334,365.322 206.5,365C 221.167,364.333 235.833,364.333 250.5,365C 254.245,365.302 257.578,366.469 260.5,368.5 Z"/></g>
<g><path style="opacity:1" fill="#b2b2b2" d="M 266.5,353.5 C 267.833,353.5 269.167,353.5 270.5,353.5C 271.29,354.401 272.29,355.068 273.5,355.5C 277.79,360.126 282.123,364.793 286.5,369.5C 290.896,378.625 296.063,387.292 302,395.5C 317.667,417.833 333.333,440.167 349,462.5C 353.867,467.032 358.367,471.866 362.5,477C 365.802,479.574 369.469,481.408 373.5,482.5C 376.494,485.632 380.161,487.798 384.5,489C 390.051,489.721 395.385,491.054 400.5,493C 411.71,494.077 422.71,493.41 433.5,491C 442.376,487.564 451.042,483.564 459.5,479C 465.387,475.584 471.054,475.751 476.5,479.5C 475.66,481.853 474.326,483.853 472.5,485.5C 468.64,482.676 464.307,481.842 459.5,483C 449.469,486.184 439.803,490.184 430.5,495C 416.439,495.866 402.439,495.366 388.5,493.5C 386.786,492.262 384.786,491.595 382.5,491.5C 376.573,487.863 370.573,484.196 364.5,480.5C 354.938,473.776 346.438,465.776 339,456.5C 323.333,433.833 307.667,411.167 292,388.5C 288.394,381.621 285.061,374.621 282,367.5C 281.292,366.619 280.458,365.953 279.5,365.5C 275.441,361.104 271.108,357.104 266.5,353.5 Z"/></g>
<g><path style="opacity:1" fill="#adadad" d="M 35.5,362.5 C 36.3446,363.671 37.0113,365.005 37.5,366.5C 37.62,367.586 38.2867,368.253 39.5,368.5C 40.8492,368.154 42.1825,367.821 43.5,367.5C 42.8478,368.725 41.6811,369.392 40,369.5C 36.0775,368.898 34.5775,366.565 35.5,362.5 Z"/></g>
<g><path style="opacity:1" fill="#c0c0c0" d="M 273.5,355.5 C 274.922,355.709 276.255,356.209 277.5,357C 280.704,361.167 284.204,365 288,368.5C 309.923,401.585 332.423,434.252 355.5,466.5C 361.563,471.848 367.563,477.182 373.5,482.5C 369.469,481.408 365.802,479.574 362.5,477C 358.367,471.866 353.867,467.032 349,462.5C 333.333,440.167 317.667,417.833 302,395.5C 296.063,387.292 290.896,378.625 286.5,369.5C 282.123,364.793 277.79,360.126 273.5,355.5 Z"/></g>
<g><path style="opacity:0.991" fill="#f1f1f1" d="M 100.5,485.5 C 112.768,484.7 123.768,480.534 133.5,473C 140.573,466.598 146.906,459.598 152.5,452C 161.012,448.649 169.345,449.149 177.5,453.5C 176.976,455.306 176.309,456.972 175.5,458.5C 171.896,457.348 168.229,456.348 164.5,455.5C 161.456,456.178 158.456,457.011 155.5,458C 150.533,461.966 145.866,466.299 141.5,471C 137.844,474.163 133.844,476.829 129.5,479C 128.748,479.671 128.414,480.504 128.5,481.5C 123.194,485.151 117.194,486.817 110.5,486.5C 76.5282,490.931 51.3616,478.265 35,448.5C 27.7419,442.153 19.5752,440.82 10.5,444.5C 10.5,441.833 10.5,439.167 10.5,436.5C 15.1033,434.575 19.77,432.742 24.5,431C 28.8981,429.622 32.3981,430.788 35,434.5C 38.2456,442.921 42.2456,450.921 47,458.5C 60.42,476.127 78.2533,485.127 100.5,485.5 Z"/></g>
<g><path style="opacity:0.996" fill="#f6f6f6" d="M 177.5,450.5 C 177.5,451.5 177.5,452.5 177.5,453.5C 169.345,449.149 161.012,448.649 152.5,452C 146.906,459.598 140.573,466.598 133.5,473C 123.768,480.534 112.768,484.7 100.5,485.5C 117.622,481.847 131.788,473.181 143,459.5C 145.772,453.769 149.606,448.935 154.5,445C 162.565,445.099 170.232,446.933 177.5,450.5 Z"/></g>
<g><path style="opacity:0.993" fill="#f6f6f6" d="M 489.5,451.5 C 488.89,452.391 488.557,453.391 488.5,454.5C 485.372,452.846 482.039,451.679 478.5,451C 472.361,449.549 466.861,450.716 462,454.5C 455.833,464.667 447.667,472.833 437.5,479C 430.167,483.666 422.167,485.833 413.5,485.5C 434.865,480.988 450.698,468.988 461,449.5C 461.903,448.299 463.069,447.465 464.5,447C 473.128,446.759 481.462,448.259 489.5,451.5 Z"/></g>
<g><path style="opacity:0.98" fill="#d8d8d8" d="M 107.5,488.5 C 106.833,489.167 106.167,489.833 105.5,490.5C 91.4637,491.324 77.7971,489.658 64.5,485.5C 62.4352,485.483 60.4352,485.15 58.5,484.5C 54.7199,481.758 51.0532,478.758 47.5,475.5C 42.3868,468.222 36.0535,462.055 28.5,457C 23.5393,455.236 18.5393,455.07 13.5,456.5C 12.6993,454.958 12.366,453.292 12.5,451.5C 18.1093,448.798 23.7759,448.964 29.5,452C 37.1667,459.667 44.8333,467.333 52.5,475C 69.0544,486.208 87.3877,490.708 107.5,488.5 Z"/></g>
<g><path style="opacity:0.982" fill="#e2e2e2" d="M 175.5,458.5 C 175.396,460.703 174.73,462.703 173.5,464.5C 168.412,461.45 163.079,460.95 157.5,463C 148.355,470.17 138.688,476.337 128.5,481.5C 128.414,480.504 128.748,479.671 129.5,479C 133.844,476.829 137.844,474.163 141.5,471C 145.866,466.299 150.533,461.966 155.5,458C 158.456,457.011 161.456,456.178 164.5,455.5C 168.229,456.348 171.896,457.348 175.5,458.5 Z"/></g>
<g><path style="opacity:0.986" fill="#e0e0e0" d="M 486.5,459.5 C 486.598,461.553 485.931,463.22 484.5,464.5C 479.214,462.291 473.881,462.124 468.5,464C 461.885,468.281 455.552,472.947 449.5,478C 445.779,478.851 442.779,480.684 440.5,483.5C 436.86,485.662 432.86,487.162 428.5,488C 420.553,489.275 412.553,489.775 404.5,489.5C 399.481,489.248 394.481,488.748 389.5,488C 386.524,487.295 383.858,486.129 381.5,484.5C 381.267,482.938 380.6,481.605 379.5,480.5C 395.9,487.173 412.9,489.173 430.5,486.5C 430.281,485.325 430.614,484.325 431.5,483.5C 435.805,482.849 439.805,481.349 443.5,479C 451.098,473.406 458.098,467.073 464.5,460C 471.764,455.506 479.097,455.34 486.5,459.5 Z"/></g>
<g><path style="opacity:0.976" fill="#cdcdcd" d="M 47.5,475.5 C 41.6739,471.189 35.6739,467.022 29.5,463C 24.6961,460.855 20.0294,461.021 15.5,463.5C 14.8333,461.167 14.1667,458.833 13.5,456.5C 18.5393,455.07 23.5393,455.236 28.5,457C 36.0535,462.055 42.3868,468.222 47.5,475.5 Z"/></g>
<g><path style="opacity:0.976" fill="#d6d6d6" d="M 173.5,464.5 C 173.107,466.284 172.441,467.95 171.5,469.5C 166.683,467.592 161.683,467.092 156.5,468C 147.141,473.375 137.808,478.709 128.5,484C 122.227,487.067 115.561,488.567 108.5,488.5C 109.167,487.833 109.833,487.167 110.5,486.5C 117.194,486.817 123.194,485.151 128.5,481.5C 138.688,476.337 148.355,470.17 157.5,463C 163.079,460.95 168.412,461.45 173.5,464.5 Z"/></g>
<g><path style="opacity:0.976" fill="#d7d7d7" d="M 484.5,464.5 C 484.737,465.791 484.404,466.791 483.5,467.5C 475.76,464.384 468.427,465.217 461.5,470C 455.939,476.725 448.939,481.225 440.5,483.5C 442.779,480.684 445.779,478.851 449.5,478C 455.552,472.947 461.885,468.281 468.5,464C 473.881,462.124 479.214,462.291 484.5,464.5 Z"/></g>
<g><path style="opacity:0.973" fill="#bdbdbd" d="M 47.5,475.5 C 51.0532,478.758 54.7199,481.758 58.5,484.5C 53.5926,483.649 49.5926,481.316 46.5,477.5C 41.7545,475.629 37.0878,473.462 32.5,471C 28.0395,468.864 23.7061,469.031 19.5,471.5C 18.1667,468.833 16.8333,466.167 15.5,463.5C 20.0294,461.021 24.6961,460.855 29.5,463C 35.6739,467.022 41.6739,471.189 47.5,475.5 Z"/></g>
<g><path style="opacity:0.971" fill="#cbcbcb" d="M 171.5,469.5 C 171.068,470.71 170.401,471.71 169.5,472.5C 162.296,469.607 155.296,470.107 148.5,474C 135.728,483.754 121.394,489.254 105.5,490.5C 106.167,489.833 106.833,489.167 107.5,488.5C 107.833,488.5 108.167,488.5 108.5,488.5C 115.561,488.567 122.227,487.067 128.5,484C 137.808,478.709 147.141,473.375 156.5,468C 161.683,467.092 166.683,467.592 171.5,469.5 Z"/></g>
<g><path style="opacity:0.974" fill="#cdcdcd" d="M 483.5,467.5 C 483.008,469.819 482.008,471.819 480.5,473.5C 475.251,471.109 469.917,470.942 464.5,473C 457.663,477.253 450.663,481.253 443.5,485C 430.816,490.347 417.816,491.847 404.5,489.5C 412.553,489.775 420.553,489.275 428.5,488C 432.86,487.162 436.86,485.662 440.5,483.5C 448.939,481.225 455.939,476.725 461.5,470C 468.427,465.217 475.76,464.384 483.5,467.5 Z"/></g>
<g><path style="opacity:0.96" fill="#c1c1c1" d="M 169.5,472.5 C 168.66,474.853 167.326,476.853 165.5,478.5C 162.022,475.723 158.022,474.89 153.5,476C 141.94,480.952 130.606,486.118 119.5,491.5C 106.846,492.459 94.1793,492.626 81.5,492C 76.6092,491.069 71.7758,489.902 67,488.5C 65.6898,487.87 64.8565,486.87 64.5,485.5C 77.7971,489.658 91.4637,491.324 105.5,490.5C 121.394,489.254 135.728,483.754 148.5,474C 155.296,470.107 162.296,469.607 169.5,472.5 Z"/></g>
<g><path style="opacity:0.964" fill="#c0c0c0" d="M 480.5,473.5 C 479.66,475.853 478.326,477.853 476.5,479.5C 471.054,475.751 465.387,475.584 459.5,479C 451.042,483.564 442.376,487.564 433.5,491C 422.71,493.41 411.71,494.077 400.5,493C 395.385,491.054 390.051,489.721 384.5,489C 380.161,487.798 376.494,485.632 373.5,482.5C 376.167,483.167 378.833,483.833 381.5,484.5C 383.858,486.129 386.524,487.295 389.5,488C 394.481,488.748 399.481,489.248 404.5,489.5C 417.816,491.847 430.816,490.347 443.5,485C 450.663,481.253 457.663,477.253 464.5,473C 469.917,470.942 475.251,471.109 480.5,473.5 Z"/></g>
<g><path style="opacity:1" fill="#e6e6e6" d="M 110.5,486.5 C 109.833,487.167 109.167,487.833 108.5,488.5C 108.167,488.5 107.833,488.5 107.5,488.5C 87.3877,490.708 69.0544,486.208 52.5,475C 44.8333,467.333 37.1667,459.667 29.5,452C 23.7759,448.964 18.1093,448.798 12.5,451.5C 11.5933,449.343 10.9267,447.01 10.5,444.5C 19.5752,440.82 27.7419,442.153 35,448.5C 51.3616,478.265 76.5282,490.931 110.5,486.5 Z"/></g>
<g><path style="opacity:0.971" fill="#b4b4b4" d="M 165.5,478.5 C 164.551,480.777 163.218,482.777 161.5,484.5C 159.263,482.131 156.429,480.798 153,480.5C 141.86,484.324 130.694,487.99 119.5,491.5C 130.606,486.118 141.94,480.952 153.5,476C 158.022,474.89 162.022,475.723 165.5,478.5 Z"/></g>
<g><path style="opacity:0.982" fill="#8b8b8b" d="M 146.5,498.5 C 144.178,500.664 141.511,502.331 138.5,503.5C 138.586,502.504 138.252,501.671 137.5,501C 135.256,500.094 132.923,499.594 130.5,499.5C 115.268,502.194 99.9343,503.027 84.5,502C 72.1966,499.716 60.0299,496.882 48,493.5C 44.682,493.231 42.5153,494.564 41.5,497.5C 38.8333,495.5 36.5,493.167 34.5,490.5C 34.9528,489.542 35.6195,488.708 36.5,488C 39.5,487.333 42.5,487.333 45.5,488C 59.7242,493.65 74.3909,497.65 89.5,500C 94.8333,500.667 100.167,500.667 105.5,500C 116.381,498.404 127.214,496.571 138,494.5C 139.833,494.667 141.667,494.833 143.5,495C 145.426,495.422 146.426,496.589 146.5,498.5 Z"/></g>
<g><path style="opacity:0.966" fill="#8f8f8f" d="M 460.5,497.5 C 458.45,499.547 456.117,501.214 453.5,502.5C 453.426,500.589 452.426,499.422 450.5,499C 441.425,498.456 432.425,499.122 423.5,501C 417.5,501.667 411.5,501.667 405.5,501C 391.077,498.526 376.911,495.026 363,490.5C 360.075,490.529 358.242,491.862 357.5,494.5C 354.5,492.167 351.833,489.5 349.5,486.5C 350.871,484.859 352.704,483.859 355,483.5C 366.863,487.511 378.696,491.678 390.5,496C 398.252,497.705 406.085,498.871 414,499.5C 427.038,498.259 439.871,495.926 452.5,492.5C 454.889,493.18 457.222,494.014 459.5,495C 460.252,495.671 460.586,496.504 460.5,497.5 Z"/></g>
<g><path style="opacity:0.971" fill="#a2a2a2" d="M 472.5,485.5 C 470.832,487.34 469.332,489.34 468,491.5C 467.184,492.823 466.017,493.489 464.5,493.5C 461.838,491.109 458.671,490.109 455,490.5C 447.037,491.709 439.203,493.542 431.5,496C 421.545,497.498 411.545,497.831 401.5,497C 396.843,496.588 392.509,495.421 388.5,493.5C 402.439,495.366 416.439,495.866 430.5,495C 439.803,490.184 449.469,486.184 459.5,483C 464.307,481.842 468.64,482.676 472.5,485.5 Z"/></g>
<g><path style="opacity:1" fill="#b3b3b3" d="M 58.5,484.5 C 60.4352,485.15 62.4352,485.483 64.5,485.5C 64.8565,486.87 65.6898,487.87 67,488.5C 71.7758,489.902 76.6092,491.069 81.5,492C 94.1793,492.626 106.846,492.459 119.5,491.5C 98.9758,496.311 78.6424,495.144 58.5,488C 50.3688,483.524 42.0354,479.524 33.5,476C 29.9277,475.153 26.5943,475.653 23.5,477.5C 21.684,475.882 20.3507,473.882 19.5,471.5C 23.7061,469.031 28.0395,468.864 32.5,471C 37.0878,473.462 41.7545,475.629 46.5,477.5C 49.5926,481.316 53.5926,483.649 58.5,484.5 Z"/></g>
<g><path style="opacity:0.984" fill="#979797" d="M 156.5,489.5 C 153.789,493.212 150.456,496.212 146.5,498.5C 146.426,496.589 145.426,495.422 143.5,495C 141.667,494.833 139.833,494.667 138,494.5C 127.214,496.571 116.381,498.404 105.5,500C 100.167,500.667 94.8333,500.667 89.5,500C 74.3909,497.65 59.7242,493.65 45.5,488C 42.5,487.333 39.5,487.333 36.5,488C 35.6195,488.708 34.9528,489.542 34.5,490.5C 31.8333,488.5 29.5,486.167 27.5,483.5C 31.2686,481.581 35.2686,481.081 39.5,482C 46.6161,484.725 53.6161,487.725 60.5,491C 76.6548,497.082 93.3215,499.082 110.5,497C 122.928,492.969 135.428,489.135 148,485.5C 151.404,485.872 154.237,487.206 156.5,489.5 Z"/></g>
<g><path style="opacity:0.982" fill="#999999" d="M 382.5,491.5 C 384.786,491.595 386.786,492.262 388.5,493.5C 392.509,495.421 396.843,496.588 401.5,497C 411.545,497.831 421.545,497.498 431.5,496C 439.203,493.542 447.037,491.709 455,490.5C 458.671,490.109 461.838,491.109 464.5,493.5C 463.5,495.167 462.167,496.5 460.5,497.5C 460.586,496.504 460.252,495.671 459.5,495C 457.222,494.014 454.889,493.18 452.5,492.5C 439.871,495.926 427.038,498.259 414,499.5C 406.085,498.871 398.252,497.705 390.5,496C 378.696,491.678 366.863,487.511 355,483.5C 352.704,483.859 350.871,484.859 349.5,486.5C 347.937,485.055 346.604,483.389 345.5,481.5C 345.611,480.883 345.944,480.383 346.5,480C 349.167,479.333 351.833,479.333 354.5,480C 363.751,484.129 373.085,487.962 382.5,491.5 Z"/></g>
<g><path style="opacity:0.973" fill="#808080" d="M 138.5,503.5 C 136.819,505.008 134.819,506.008 132.5,506.5C 132.423,505.25 131.756,504.417 130.5,504C 115.837,504.16 101.17,504.16 86.5,504C 75.1086,502.152 63.7752,499.986 52.5,497.5C 49.8984,497.467 47.8984,498.467 46.5,500.5C 44.6675,499.752 43.0009,498.752 41.5,497.5C 42.5153,494.564 44.682,493.231 48,493.5C 60.0299,496.882 72.1966,499.716 84.5,502C 99.9343,503.027 115.268,502.194 130.5,499.5C 132.923,499.594 135.256,500.094 137.5,501C 138.252,501.671 138.586,502.504 138.5,503.5 Z"/></g>
<g><path style="opacity:0.966" fill="#828282" d="M 453.5,502.5 C 450.992,504.924 447.992,506.59 444.5,507.5C 443.547,505.39 441.881,504.223 439.5,504C 427.845,504.36 416.179,504.36 404.5,504C 394.149,502.23 383.815,500.396 373.5,498.5C 370.389,498.012 368.056,499.012 366.5,501.5C 363.19,499.518 360.19,497.185 357.5,494.5C 358.242,491.862 360.075,490.529 363,490.5C 376.911,495.026 391.077,498.526 405.5,501C 411.5,501.667 417.5,501.667 423.5,501C 432.425,499.122 441.425,498.456 450.5,499C 452.426,499.422 453.426,500.589 453.5,502.5 Z"/></g>
<g><path style="opacity:1" fill="#a4a4a4" d="M 119.5,491.5 C 130.694,487.99 141.86,484.324 153,480.5C 156.429,480.798 159.263,482.131 161.5,484.5C 160.167,486.5 158.5,488.167 156.5,489.5C 154.237,487.206 151.404,485.872 148,485.5C 135.428,489.135 122.928,492.969 110.5,497C 93.3215,499.082 76.6548,497.082 60.5,491C 53.6161,487.725 46.6161,484.725 39.5,482C 35.2686,481.081 31.2686,481.581 27.5,483.5C 25.7819,481.777 24.4486,479.777 23.5,477.5C 26.5943,475.653 29.9277,475.153 33.5,476C 42.0354,479.524 50.3688,483.524 58.5,488C 78.6424,495.144 98.9758,496.311 119.5,491.5 Z"/></g>
<g><path style="opacity:0.955" fill="#757575" d="M 132.5,506.5 C 128.797,508.679 124.797,510.345 120.5,511.5C 120.423,510.25 119.756,509.417 118.5,509C 100.397,508.714 82.3969,507.214 64.5,504.5C 61.8984,504.467 59.8984,505.467 58.5,507.5C 54.1362,505.656 50.1362,503.323 46.5,500.5C 47.8984,498.467 49.8984,497.467 52.5,497.5C 63.7752,499.986 75.1086,502.152 86.5,504C 101.17,504.16 115.837,504.16 130.5,504C 131.756,504.417 132.423,505.25 132.5,506.5 Z"/></g>
<g><path style="opacity:0.957" fill="#757575" d="M 444.5,507.5 C 441.2,509.642 437.533,510.975 433.5,511.5C 432.942,510.21 431.942,509.377 430.5,509C 413.494,507.666 396.494,506.666 379.5,506C 378.944,506.383 378.611,506.883 378.5,507.5C 374.217,506.025 370.217,504.025 366.5,501.5C 368.056,499.012 370.389,498.012 373.5,498.5C 383.815,500.396 394.149,502.23 404.5,504C 416.179,504.36 427.845,504.36 439.5,504C 441.881,504.223 443.547,505.39 444.5,507.5 Z"/></g>
<g><path style="opacity:0.896" fill="#686868" d="M 120.5,511.5 C 116.686,512.368 113.019,513.368 109.5,514.5C 100.167,514.5 90.8333,514.5 81.5,514.5C 73.6871,512.959 66.0204,510.625 58.5,507.5C 59.8984,505.467 61.8984,504.467 64.5,504.5C 82.3969,507.214 100.397,508.714 118.5,509C 119.756,509.417 120.423,510.25 120.5,511.5 Z"/></g>
<g><path style="opacity:0.901" fill="#686868" d="M 433.5,511.5 C 430.913,512.749 428.246,513.749 425.5,514.5C 416.833,514.5 408.167,514.5 399.5,514.5C 392.187,513.173 385.187,510.84 378.5,507.5C 378.611,506.883 378.944,506.383 379.5,506C 396.494,506.666 413.494,507.666 430.5,509C 431.942,509.377 432.942,510.21 433.5,511.5 Z"/></g>
</svg>
